<svg width="56" height="56" fill="none" xmlns="http://www.w3.org/2000/svg"><path d="M49.451 11.937a.846.846 0 00-1.074-.489l-.054.02-3.573 2.038a.657.657 0 00.65 1.14l2.315-1.32c-1.853 6.514-4.809 12.212-8.8 16.953-3.423 4.066-7.612 7.445-12.452 10.044-7.075 3.799-13.512 4.808-15.268 5.024a5.318 5.318 0 10.415 1.274c2.151-.278 8.41-1.36 15.425-5.116 4.997-2.675 9.324-6.159 12.861-10.354 4.061-4.815 7.08-10.582 8.993-17.162l.856 2.038a.656.656 0 101.21-.508l-1.504-3.582zM6.4 51.625a4 4 0 11-.015-8 4 4 0 01.015 8zm19.167-35.919a.656.656 0 00-.926-.048l-2.842 2.559-2.843-2.56a.654.654 0 00-1.06.268.656.656 0 00.182.708l2.74 2.467-2.74 2.466a.658.658 0 00.155 1.083.657.657 0 00.723-.107l2.842-2.56 2.843 2.56a.656.656 0 00.878-.975l-2.74-2.467 2.74-2.467a.656.656 0 00.049-.927zm23.277 28.838a.656.656 0 00-.927-.048l-2.842 2.56-2.842-2.56a.656.656 0 00-.878.975l2.74 2.467-2.74 2.467a.657.657 0 10.878.975l2.842-2.56 2.842 2.56a.655.655 0 001.097-.521.657.657 0 00-.219-.454l-2.74-2.467 2.74-2.467a.654.654 0 00.049-.927zm2.891-41.481a3.174 3.174 0 10-.006 6.347 3.174 3.174 0 00.006-6.348zm0 5.035a1.861 1.861 0 11-.006-3.722 1.861 1.861 0 01.006 3.722z" fill="#575757"/></svg>