<svg width="143" height="142" fill="none" xmlns="http://www.w3.org/2000/svg"><path d="M107.968 56.132l-.199-.05-45.282-11.555a1.35 1.35 0 00-.667 2.614h0l45.285 11.554.198.05-.01.205a7.947 7.947 0 00.13 1.892l.038.2-.19.078-23.99 9.775-.19.077-.113-.17a7.88 7.88 0 00-1.26-1.473c-2.82-2.572-7.016-2.708-9.98-.53l-.166.122-.151-.138-27.298-24.904-.151-.137.105-.176c.129-.214.246-.432.353-.654l.088-.185.199.05 10.091 2.576a1.35 1.35 0 00.667-2.614h0l-10.094-2.576-.199-.05.01-.205a7.873 7.873 0 00-2.555-6.232c-3.212-2.93-8.209-2.7-11.138.51-2.93 3.212-2.7 8.208.511 11.138a7.872 7.872 0 006.44 1.975l.203-.029.068.193 21.562 60.67.069.193-.176.105a7.873 7.873 0 00-1.774 1.449c-2.93 3.212-2.7 8.209.51 11.138 3.212 2.93 8.208 2.7 11.138-.511a7.865 7.865 0 002.007-6.171l-.022-.203.195-.062 26.409-8.375.195-.062.1.179a7.856 7.856 0 001.584 2.01c3.21 2.929 8.207 2.7 11.136-.511 2.93-3.211 2.701-8.208-.51-11.138a7.863 7.863 0 00-2.148-1.394l-.188-.082.044-.2 3.475-15.873.244.054-.244-.053a1.349 1.349 0 00-1.029-1.606h-.001a1.35 1.35 0 00-1.606 1.029l-3.474 15.876-.044.2-.205-.004a7.868 7.868 0 00-7.969 8.737l.023.203-.196.062-26.408 8.376-.195.062-.1-.18a7.854 7.854 0 00-3.166-3.132l-.18-.097.06-.196 2.766-9.093a1.348 1.348 0 00-.898-1.682h0a1.348 1.348 0 00-1.683.897h0l-2.766 9.097-.06.196-.204-.02a7.963 7.963 0 00-1.895.044l-.203.029-.068-.193-21.562-60.67-.069-.193.176-.105c.211-.126.418-.261.617-.408l.165-.122.152.138 27.299 24.905.151.138-.105.175c-1.898 3.152-1.377 7.317 1.441 9.888.49.447 1.022.82 1.581 1.12l.18.098-.059.196-2.521 8.291h0a1.349 1.349 0 00.897 1.683l36.799-36.233zm0 0l.089-.185m-.089.185l.089-.185m0 0a7.852 7.852 0 011.281-1.9c2.93-3.211 7.926-3.44 11.137-.51 3.212 2.93 3.441 7.925.511 11.137a7.863 7.863 0 01-5.961 2.563l-.205-.003-.043.2-.914 4.175s0 0 0 0a1.35 1.35 0 01-2.635-.577h0l.912-4.17.044-.2-.187-.083a7.848 7.848 0 01-3.408-2.866l-.113-.171-.19.077-23.99 9.775-.19.078.038.2a7.875 7.875 0 01-8.505 9.324l-.204-.02-.06.196-2.523 8.295h0m35.205-35.52l-35.205 35.52m0 0a1.349 1.349 0 01-1.682.898l1.682-.898zm-.287-19.8h0a5.191 5.191 0 00.344 7.317 5.191 5.191 0 007.327-.335 5.192 5.192 0 00-.336-7.327 5.19 5.19 0 00-7.319.328h0a.23.23 0 00-.008.009l-.007.008zm36.761 26.5a5.192 5.192 0 00-7.327.337 5.19 5.19 0 00.336 7.325 5.191 5.191 0 007.327-.335 5.193 5.193 0 00-.336-7.327zm-48.595 20.858a5.19 5.19 0 007.326-.336 5.192 5.192 0 00-.336-7.326 5.193 5.193 0 00-7.326.335 5.192 5.192 0 00.336 7.327zM40.818 35.668a5.192 5.192 0 00-7.326.337 5.192 5.192 0 00.336 7.326 5.19 5.19 0 007.326-.336 5.192 5.192 0 00-.336-7.327zm70.849 27.524a5.19 5.19 0 007.326-.337 5.19 5.19 0 00-.336-7.325 5.19 5.19 0 00-7.326.335 5.192 5.192 0 00.336 7.327z" fill="#000" stroke="#fff" stroke-width=".5"/></svg>