<svg width="56" height="55" fill="none" xmlns="http://www.w3.org/2000/svg"><g clip-path="url(#clip0)" fill="#E5E5E5"><path d="M27.57 24.15a12.186 12.186 0 00-5.274 1.926L6.146 36.753a3.287 3.287 0 00-1.46 3.123c.14 1.238.95 2.28 2.117 2.72l18.132 6.824a12.19 12.19 0 0011.139-1.328l16.018-10.898a3.287 3.287 0 001.418-3.141 3.287 3.287 0 00-2.153-2.692l-18.208-6.579a12.198 12.198 0 00-5.58-.633zm-2.381 24.596l.253-.674-18.131-6.825a1.829 1.829 0 01-1.193-1.532 1.828 1.828 0 01.822-1.76l16.15-10.677a10.78 10.78 0 019.569-1.141l18.208 6.58c.67.242 1.124.809 1.213 1.516a1.83 1.83 0 01-.799 1.77L35.263 46.902a10.747 10.747 0 01-9.82 1.171l-.254.674z"/><path d="M26.399 14.334a12.18 12.18 0 00-5.274 1.927L4.975 26.937a3.287 3.287 0 00-1.46 3.123 3.29 3.29 0 002.118 2.72l5.477 2.062.508-1.349-5.478-2.062A1.83 1.83 0 014.947 29.9a1.83 1.83 0 01.823-1.76l16.15-10.677a10.783 10.783 0 019.568-1.141l18.208 6.58a1.83 1.83 0 011.214 1.516c.089.708-.21 1.37-.8 1.77l-4.839 3.293.81 1.19 4.84-3.292a3.287 3.287 0 001.418-3.14 3.287 3.287 0 00-2.153-2.693l-18.208-6.579c-1.8-.65-3.716-.855-5.58-.632z"/><path d="M20.316 27.478a.72.72 0 00-.17 1.39l2.447.92a12.122 12.122 0 0010.455-.895.72.72 0 10-.73-1.242 10.688 10.688 0 01-9.217.79l-2.447-.922a.721.721 0 00-.338-.041z"/><path d="M25.228 4.518a12.18 12.18 0 00-5.274 1.927L3.804 17.122a3.286 3.286 0 00-1.46 3.122 3.291 3.291 0 002.118 2.72l12.561 4.728a.72.72 0 10.508-1.348L4.969 21.616a1.83 1.83 0 01-1.193-1.533 1.828 1.828 0 01.823-1.76l16.15-10.676a10.78 10.78 0 019.569-1.142l18.208 6.58c.67.242 1.124.809 1.213 1.516a1.83 1.83 0 01-.8 1.77L35.084 25.8a.72.72 0 10.81 1.191l13.857-9.427a3.286 3.286 0 001.418-3.142 3.286 3.286 0 00-2.153-2.691L30.807 5.15a12.18 12.18 0 00-5.579-.632zM11.28 33.452a.72.72 0 00-.17 1.39l12.654 4.763a12.19 12.19 0 0011.139-1.328s1.249-.7.77-1.396c-.475-.69-1.58.204-1.58.204a10.747 10.747 0 01-9.821 1.171l-12.654-4.763a.716.716 0 00-.339-.041zm34.31-4.092a.717.717 0 00-.319.12l-7.997 5.44a.72.72 0 10.81 1.192l7.997-5.441a.72.72 0 00-.49-1.31z"/></g><defs><clipPath id="clip0"><path transform="scale(1 -1) rotate(6.801 463.068 26.932)" fill="#fff" d="M0 0h49.17v49.17H0z"/></clipPath></defs></svg>