<svg width="68" height="146" fill="none" xmlns="http://www.w3.org/2000/svg"><path d="M49.316 67.694l.382-.538a87.18 87.18 0 003.527-5.356c7.997-13.255 9.266-24.257 4.203-31.222-2.961-4.073-7.878-6.425-14.29-7.078-6.414-.654-14.255.403-22.919 3.081l-.627.195-.276-.597c-3.8-8.233-8.258-14.767-13.035-19.097C1.507 2.755-3.532.674-8.545 1.197c-5.013.523-9.51 3.6-13.28 8.82-3.773 5.222-6.774 12.535-8.78 21.374l-.145.64-.654-.06c-9.032-.83-16.922-.245-23.061 1.719-6.136 1.963-10.458 5.28-12.508 9.876l116.29 24.128zm0 0l.485.447m-.485-.447l.485.447m0 0a87.32 87.32 0 014.566 4.512c10.58 11.315 14.11 21.816 10.606 29.675-2.921 6.552-10.478 10.516-21.25 11.641-4.317.45-9.136.425-14.317-.051l-.655-.06-.145.64c-2.005 8.84-5.007 16.155-8.78 21.378-3.77 5.22-8.267 8.298-13.28 8.821-5.014.523-10.053-1.558-14.828-5.887-4.778-4.33-9.235-10.866-13.036-19.1l-.276-.596-.627.194c-4.97 1.536-9.679 2.556-13.997 3.007-10.774 1.124-18.988-1.193-23.21-6.999-5.062-6.965-3.793-17.967 4.203-31.222a87.122 87.122 0 013.528-5.356l.381-.538M49.801 68.141l-101.117 10.06m0 0l-.485-.448m.485.447l-.485-.447m0 0a87.449 87.449 0 01-4.566-4.512c-10.58-11.315-14.11-21.816-10.606-29.675l15.172 34.187zm20.28-41.859l-.137.801c-1.123 6.563-1.737 13.797-1.773 21.497l-.001.33-.244.22C-39.284 63.84-44.274 69.127-48.47 74.43l-.506.638-.595-.556a83.22 83.22 0 01-3.941-3.93l.548-.513-.548.512c-4.5-4.812-7.683-9.517-9.392-13.83-1.708-4.308-1.971-8.298-.5-11.596l31.883-9.26zm0 0l-.81-.073m.81.073l-.81-.073m0 0c-4.841-.435-9.344-.466-13.337-.05-8.725.912-15.302 3.92-17.737 9.383l31.075-9.333zm86.598-2.953l-.606.44.606-.44c-3.518-4.84-10.579-6.426-19.303-5.515-3.993.417-8.391 1.378-13.037 2.803l-.777.239.3.756c2.465 6.188 4.57 13.138 6.207 20.663l.07.322.285.166c6.546 3.827 12.527 7.97 17.736 12.29l.627.52.467-.667a82.83 82.83 0 003.038-4.66c3.401-5.637 5.535-10.897 6.31-15.468.775-4.568.202-8.526-1.923-11.449zM30.173 58.172l-1.42-.894.281 1.654c.593 3.48 1.087 7.06 1.473 10.726.385 3.665.646 7.27.79 10.797l.069 1.676 1.203-1.168c4.105-3.985 7.812-8.061 11.024-12.146l.45-.573-.56-.466c-3.991-3.334-8.466-6.555-13.31-9.606zm-8.556-9.416l1.49.781-.415-1.63c-1.422-5.585-3.113-10.818-5.01-15.575l-.27-.68-.686.254c-4.802 1.77-9.821 4.02-14.921 6.694l-1.49.782 1.578.586c3.3 1.225 6.638 2.58 9.994 4.076l.305-.685-.305.685a169.025 169.025 0 019.73 4.712zM15.1 28.32l.763-.281-.342-.738C12.246 20.245 8.487 14.498 4.493 10.61.506 6.73-3.802 4.623-8.137 5.075c-4.335.453-8.112 3.403-11.205 8.024-3.098 4.628-5.58 11.026-7.315 18.606l-.181.793.805.117c6.596.964 13.667 2.61 21.01 4.96l.314.1.286-.163c6.695-3.814 13.27-6.886 19.523-9.191zm-41.978 8.137l-.724-.106-.124.721c-.864 5.045-1.43 10.513-1.66 16.271l-.066 1.68 1.295-1.072a168.734 168.734 0 0117.467-12.67l1.422-.9-1.62-.456c-5.546-1.562-10.924-2.728-15.99-3.468zm-5.294 51.264l1.42.894-.28-1.654a169.79 169.79 0 01-1.474-10.726c-.385-3.665-.645-7.27-.79-10.796l-.069-1.677-1.203 1.169c-4.105 3.984-7.811 8.06-11.023 12.145l-.45.573.559.466c3.992 3.333 8.466 6.555 13.31 9.606zm-15.575-6.42l-.627-.52-.467.667a83.13 83.13 0 00-3.037 4.659l.642.388-.642-.388c-3.402 5.637-5.536 10.897-6.312 15.469-.774 4.568-.2 8.526 1.924 11.449l.606-.441-.606.441c2.562 3.523 7.008 5.314 12.56 5.681 5.56.367 12.347-.682 19.783-2.964l.777-.239-.301-.755c-2.465-6.19-4.571-13.142-6.209-20.67l-.07-.321-.285-.167c-6.546-3.827-12.527-7.969-17.736-12.29zm24.132 15.836l-1.49-.781.415 1.63c1.422 5.584 3.112 10.815 5.008 15.571l.27.68.686-.253c4.81-1.773 9.834-4.013 14.945-6.694l1.49-.781-1.578-.586a170.28 170.28 0 01-10.017-4.074 168.98 168.98 0 01-9.73-4.712zm6.518 20.437l-.763.282.343.737c3.274 7.057 7.032 12.803 11.026 16.69 3.987 3.882 8.295 5.987 12.63 5.535 4.335-.453 8.11-3.403 11.204-8.023 3.098-4.628 5.58-11.025 7.315-18.605l.181-.792-.804-.118c-6.596-.963-13.67-2.621-21.012-4.969l-.314-.101-.286.163c-6.693 3.813-13.27 6.896-19.52 9.201zm41.978-8.143l.724.105.123-.72c.865-5.044 1.43-10.51 1.66-16.267l.067-1.68-1.295 1.072a168.766 168.766 0 01-8.539 6.619 169.286 169.286 0 01-8.95 6.053l-1.422.899 1.62.457c5.557 1.566 10.938 2.721 16.012 3.462zm2.363-23.553l.257-.226-.003-.343a159.608 159.608 0 00-.874-15.247 159.662 159.662 0 00-2.317-15.096l-.068-.337-.3-.168c-4.33-2.438-8.89-4.74-13.64-6.856A159.912 159.912 0 00-3.933 42.07l-.325-.11-.294.174a159.69 159.69 0 00-12.772 8.355 162.463 162.463 0 00-11.918 9.524l-.258.227.004.343c.044 4.944.327 10.051.874 15.247a159.656 159.656 0 002.317 15.096l.068.336.299.169a163.01 163.01 0 0013.64 6.856l.306-.685-.305.685a160.183 160.183 0 0014.234 5.539l.324.108.295-.173a159.545 159.545 0 0012.77-8.358 161.88 161.88 0 0011.918-9.525zm2.414 23.325l-.137.801.81.073c7.749.698 14.606.323 19.969-1.185 5.355-1.505 9.333-4.176 11.106-8.153 1.47-3.298 1.208-7.288-.5-11.597-1.71-4.312-4.892-9.017-9.392-13.83a82.988 82.988 0 00-3.942-3.93l-.595-.556-.505.638c-4.197 5.303-9.186 10.59-14.794 15.686l-.244.222-.002.33c-.036 7.7-.65 14.937-1.774 21.501z" fill="#02E7FE" stroke="#fff" stroke-width="1.5"/></svg>