<svg width="68" height="67" fill="none" xmlns="http://www.w3.org/2000/svg"><path d="M13.302 47.697l-.097.075-.092-.08c-1.313-1.144-3.005-1.86-4.874-1.86-4.115 0-7.464 3.35-7.464 7.464 0 4.115 3.349 7.464 7.464 7.464s7.463-3.349 7.463-7.464c0-1.163-.291-2.253-.77-3.239l-.055-.11.098-.074 10.394-7.949.105-.08.093.094a11.985 11.985 0 008.558 3.594c2.162 0 4.166-.619 5.925-1.624l.115-.066.08.106 5.664 7.552.076.102-.088.092c-1.531 1.613-2.486 3.777-2.486 6.17 0 4.956 4.031 8.987 8.987 8.987 4.955 0 8.986-4.031 8.986-8.987 0-4.955-4.031-8.986-8.986-8.986-1.48 0-2.858.394-4.094 1.033l-.113.059-.076-.102-5.655-7.54-.08-.106.096-.092c2.077-2.01 3.392-4.764 3.599-7.827l.009-.131.132-.008 6.46-.38.122-.006.032.118c.853 3.184 3.735 5.546 7.181 5.546 4.115 0 7.464-3.349 7.464-7.464s-3.349-7.463-7.464-7.463c-3.75 0-6.834 2.79-7.355 6.401l-.018.122-.122.007-6.426.377-.132.008-.024-.13c-.682-3.66-3.036-6.704-6.23-8.394l-.116-.061.046-.124 1.753-4.675.044-.119.125.024a8.957 8.957 0 001.705.173c4.956 0 8.987-4.031 8.987-8.987 0-4.955-4.031-8.986-8.987-8.986-4.955 0-8.986 4.031-8.986 8.986 0 3.307 1.816 6.172 4.487 7.733l.11.064-.045.118-1.754 4.678-.046.124-.129-.03c-.897-.214-1.817-.355-2.773-.355-3.433 0-6.515 1.463-8.71 3.779l-.091.096-.107-.078-7.121-5.224-.1-.072.052-.111a7.39 7.39 0 00.7-3.108c0-4.115-3.349-7.464-7.464-7.464S3.82 12.636 3.82 16.751s3.349 7.463 7.464 7.463c1.923 0 3.663-.751 4.99-1.953l.09-.082.099.072 7.15 5.245.108.079-.065.115c-.966 1.733-1.563 3.695-1.563 5.81 0 2.203.639 4.244 1.68 6.025l.066.114-.105.081-10.432 7.977zM6.566 16.751a4.723 4.723 0 014.718-4.718 4.723 4.723 0 014.718 4.718 4.723 4.723 0 01-4.718 4.718 4.723 4.723 0 01-4.718-4.718zM64.73 31.978a4.723 4.723 0 01-4.719 4.718 4.723 4.723 0 01-4.718-4.718 4.723 4.723 0 014.718-4.718 4.723 4.723 0 014.719 4.718zm-6.091 25.886a6.247 6.247 0 01-6.241 6.241 6.247 6.247 0 01-6.241-6.24 6.247 6.247 0 016.24-6.242 6.247 6.247 0 016.242 6.242zM49.502 9.138a6.247 6.247 0 01-6.24 6.241 6.247 6.247 0 01-6.242-6.24 6.247 6.247 0 016.241-6.242 6.247 6.247 0 016.241 6.241zm-6.09 24.364c0 5.12-4.166 9.286-9.287 9.286-5.12 0-9.286-4.165-9.286-9.286 0-5.121 4.165-9.286 9.286-9.286 5.12 0 9.286 4.165 9.286 9.286zM12.956 53.296a4.723 4.723 0 01-4.718 4.718 4.723 4.723 0 01-4.719-4.718 4.723 4.723 0 014.719-4.718 4.723 4.723 0 014.718 4.718z" fill="#000" stroke="#fff" stroke-width=".3"/></svg>