<svg width="139" height="156" fill="none" xmlns="http://www.w3.org/2000/svg"><g opacity=".1"><path d="M17.416 120.669L76.894 5l58.491 115.669-58.491 32.696-59.478-32.696zM76.894 5v148.037" stroke="#fff" stroke-width="4"/><path d="M17.416 120.669l59.313-28.26 58.656 28.26" stroke="#fff" stroke-width="4"/><circle cx="8.051" cy="71.049" r="6.051" stroke="#fff" stroke-width="4"/><circle cx="125.363" cy="19.459" r="6.051" stroke="#fff" stroke-width="4"/><path fill="#fff" d="M37.79 9.107h6.244v6.244H37.79zm94.966 36.476H139v6.244h-6.244zM37.79 22.252h6.244v6.244H37.79zm94.966 36.475H139v6.244h-6.244zM37.79 35.395h6.244v6.244H37.79zm94.966 36.476H139v6.244h-6.244zM37.79 48.54h6.244v6.244H37.79zm94.966 36.476H139v6.244h-6.244z"/></g></svg>