<svg width="80" height="123" fill="none" xmlns="http://www.w3.org/2000/svg"><path d="M70.639 80.73l.43-.069a9.027 9.027 0 007.101-6.014c1.593-4.696-.902-9.788-5.55-11.355a8.798 8.798 0 00-1.9-.413l-.439-.046-.009-.44-.305-15.282-.004-.244.19-.154a16.977 16.977 0 005.394-7.752c2.076-6.12.53-12.797-3.92-17.32l-.216-.218.1-.291L75.452 9.51c1.038-3.058-.588-6.371-3.611-7.39l-2.76-.93c-3.023-1.02-6.333.63-7.37 3.689L57.768 16.5l-.098.291-.305.044c-6.291.901-11.586 5.274-13.663 11.393a16.93 16.93 0 00-.434 9.423l.057.238-.153.19-4.594 5.755a1.335 1.335 0 00.196 1.871 1.315 1.315 0 001.854-.214l30.011 35.24zm0 0l.009.435.609 30.533c.094 4.706-3.639 8.634-8.31 8.761l-4.881.133-.498.013.01.497.107 5.256h0a1.34 1.34 0 01-1.294 1.369h-.001a1.313 1.313 0 01-1.341-1.29h0l-.145-7.072a.48.48 0 00-.002-.036l-.53-26.599-.007-.35-.333-.112-5.043-1.7a1.321 1.321 0 01-.82-1.683c.238-.7.99-1.071 1.676-.84l3.788 1.276.675.228-.014-.712-.111-5.608-.007-.35-.333-.112-19.57-6.596-.333-.112-.219.274-3.503 4.39-.445.557.675.227 8.609 2.902a1.32 1.32 0 01.82 1.681 1.33 1.33 0 01-1.677.842l-9.864-3.325-.332-.112-.22.275-16.564 20.749h0l-.07.086-4.43 5.544h0a1.321 1.321 0 01-1.452.433 1.286 1.286 0 01-.4-.22l-.001-.001a1.333 1.333 0 01-.195-1.87h0l3.286-4.113.31-.389-.387-.311-3.798-3.058h0c-3.636-2.927-4.21-8.306-1.27-11.99 0 0 0 0 0 0l28.621-35.848a1.315 1.315 0 011.854-.214h0c.565.455.657 1.293.196 1.87 0 0 0 0 0 0L4.862 90.289h0c-2.018 2.53-1.63 6.229.878 8.247l3.8 3.059.39.315.315-.393L51.89 49.355l.377-.472-.535-.282a16.664 16.664 0 01-7.025-7.093l-.355-.683-.48.602-3.244 4.064 30.011 35.24zm-59.57 24.025l.001-.004-.001.004zm.247-.285l.002-.001-.002.001zm57.388-85.193l.539.342.205-.604 3.51-10.345c.563-1.66-.316-3.467-1.973-4.026l-2.759-.93c-1.656-.558-3.456.346-4.02 2.006l-3.51 10.345-.205.605.636.053a16.674 16.674 0 017.577 2.554zm-32.55 54.009l-.444.557.675.227 17.058 5.75.675.227-.014-.712-.528-26.454-.027-1.383-.864 1.082-16.53 20.706zm21.35 44.157l.01.503.503-.014 4.882-.132c3.223-.088 5.784-2.792 5.72-6.025v-.001l-.614-30.764-.007-.386-.376-.09a8.86 8.86 0 01-.779-.22c-4.648-1.567-7.144-6.659-5.55-11.355a9.025 9.025 0 015.989-5.76l.366-.11-.008-.38-.267-13.361-.015-.77-.698.329a16.737 16.737 0 01-9.902 1.387l-.596-.1.012.604 1.33 66.645zm18.17-43.637c1.12-3.298-.629-6.884-3.911-7.99-3.281-1.106-6.856.686-7.975 3.984-1.12 3.298.63 6.885 3.911 7.99 3.283 1.107 6.856-.686 7.975-3.984zM64.216 20.063a13.994 13.994 0 00-5.598-.697h0c-5.7.448-10.574 4.26-12.421 9.703-2.53 7.458 1.427 15.56 8.835 18.057 7.409 2.497 15.489-1.548 18.02-9.006 1.846-5.444.293-11.422-3.964-15.226a13.952 13.952 0 00-4.872-2.83z" fill="#FEB13A" stroke="#fff"/></svg>