<svg width="142" height="150" fill="none" xmlns="http://www.w3.org/2000/svg"><path d="M125.203 86.462l.383-.646c3.771 2.234 6.012 6.192 5.987 10.575-.024 4.382-2.309 8.313-6.104 10.505L70.92 138.389c-3.795 2.191-8.342 2.204-12.15.034-3.807-2.17-6.114-6.089-6.163-10.472l-.222-19.825-.007-.628.617-.117a43.176 43.176 0 0015.444-6.166c5.289-3.413 9.723-7.879 13.183-13.28 4.787-7.478 11.599-13.042 19.744-16.138l.337-.128.311.184 23.572 13.963-.383.645zm0 0l-23.571-13.964 29.191 23.889c.023-4.117-2.078-7.827-5.62-9.925zM75.239 52.294l.098.17.17.1 51.65 30.598c4.73 2.802 7.531 7.749 7.5 13.245-.031 5.496-2.887 10.41-7.646 13.158L72.462 141.06c-4.76 2.748-10.444 2.764-15.218.043-4.775-2.722-7.66-7.621-7.72-13.118l-.674-60.03-.002-.196-.098-.17-13.877-24.036-.265-.46-.521.097a6.137 6.137 0 01-6.426-2.96 6.134 6.134 0 012.243-8.368L53.722 18.11a6.134 6.134 0 018.368 2.243 6.137 6.137 0 01-.65 7.044l-.343.403.265.459 13.877 24.036zM51.927 67.32h0l.405 36.141.01.913.895-.188c10.694-2.249 19.784-8.54 25.788-17.914h0c4.511-7.048 10.69-12.507 18.04-15.992l1.273-.605-1.213-.718-23.707-14.045a1.542 1.542 0 01-.55-.555L58.888 30.14l-.375-.65-.65.376-1.985 1.146a1.542 1.542 0 01-1.542-2.671l3.97-2.292a3.045 3.045 0 001.113-4.155 3.044 3.044 0 00-4.155-1.114L31.445 34.533a3.045 3.045 0 00-1.113 4.155 3.045 3.045 0 004.155 1.114l3.97-2.292A1.542 1.542 0 0140 40.18l-1.985 1.146-.65.375.376.65 13.98 24.215c.133.23.204.49.207.754z" fill="#CF32FA" stroke="#fff" stroke-width="1.5"/></svg>