<svg width="143" height="142" viewBox="0 0 143 142" fill="none" xmlns="http://www.w3.org/2000/svg">
<path d="M107.968 56.1318L107.769 56.0811L62.487 44.5272C61.7653 44.3437 61.0313 44.7787 60.8464 45.501C60.6626 46.2232 61.0982 46.9572 61.82 47.141L61.8201 47.1411L107.105 58.6949L107.303 58.7455L107.293 58.9498C107.261 59.5833 107.304 60.2183 107.423 60.8415L107.461 61.0426L107.271 61.1198L83.2806 70.8951L83.0909 70.9724L82.9778 70.8016C82.6271 70.2721 82.2078 69.7761 81.7178 69.3291C78.8987 66.7573 74.7019 66.6206 71.7373 68.7997L71.5722 68.9211L71.4208 68.783L44.1231 43.8794L43.9719 43.7415L44.0773 43.566C44.2055 43.3525 44.3228 43.1342 44.4297 42.9117L44.5184 42.7271L44.7168 42.7777L54.8083 45.3529C55.3075 45.4799 55.8138 45.3106 56.1391 44.9541C56.283 44.7963 56.3918 44.6012 56.4489 44.379C56.6325 43.6568 56.197 42.9228 55.4753 42.739L55.4752 42.739L45.3806 40.1633L45.1823 40.1128L45.1927 39.9084C45.3081 37.633 44.446 35.3262 42.6367 33.6757C39.4255 30.7461 34.4285 30.9753 31.4989 34.1865C28.5693 37.3977 28.799 42.3941 32.0103 45.3237C33.8196 46.9743 36.195 47.6222 38.4503 47.299L38.6528 47.27L38.7213 47.4628L60.283 108.133L60.3516 108.326L60.1758 108.431C59.5321 108.816 58.9325 109.299 58.4018 109.88C55.4722 113.092 55.7014 118.089 58.9126 121.018C62.1238 123.948 67.1202 123.718 70.0498 120.507C71.6346 118.77 72.2935 116.51 72.0568 114.336L72.0347 114.133L72.2298 114.071L98.6387 105.696L98.8342 105.634L98.9332 105.813C99.3377 106.546 99.8652 107.227 100.518 107.823C103.728 110.752 108.725 110.523 111.654 107.312C114.584 104.101 114.355 99.1037 111.144 96.1741C110.491 95.5789 109.764 95.1165 108.996 94.7802L108.808 94.698L108.852 94.4977L112.327 78.6255L112.571 78.6789L112.327 78.6255C112.486 77.8981 112.025 77.1789 111.298 77.0201L111.297 77.0201C110.57 76.8607 109.851 77.3214 109.691 78.0486L106.217 93.925L106.173 94.1249L105.968 94.1215C103.781 94.0848 101.592 94.9477 100.007 96.6849C98.4216 98.4227 97.7627 100.683 97.9994 102.858L98.0216 103.061L97.8265 103.123L71.4182 111.499L71.2228 111.561L71.1237 111.381C70.7185 110.647 70.1915 109.966 69.5384 109.37C69.0489 108.923 68.5172 108.55 67.9573 108.249L67.777 108.152L67.8365 107.956L70.6029 98.8631C70.8195 98.1497 70.4173 97.3966 69.705 97.1806L69.7047 97.1805C68.992 96.9634 68.2378 97.3656 68.0218 98.0779L68.0218 98.078L65.2556 107.175L65.196 107.371L64.9923 107.351C64.3607 107.29 63.7245 107.305 63.0966 107.395L62.8941 107.424L62.8256 107.231L41.2639 46.5613L41.1952 46.368L41.3715 46.2629C41.5824 46.1371 41.7887 46.0017 41.9881 45.8546L42.1533 45.7327L42.305 45.8711L69.6039 70.7758L69.7553 70.9139L69.6496 71.0894C67.7521 74.241 68.2729 78.4059 71.0913 80.9771C71.5815 81.4243 72.1132 81.797 72.6724 82.0977L72.8528 82.1947L72.7932 82.3906L70.272 90.682L70.272 90.6822C70.055 91.3946 70.4567 92.1478 71.1694 92.3651L107.968 56.1318ZM107.968 56.1318L108.057 55.947M107.968 56.1318L108.057 55.947M108.057 55.947C108.381 55.2708 108.807 54.6295 109.338 54.0471C112.268 50.8359 117.264 50.6073 120.475 53.5369C123.687 56.4665 123.916 61.4624 120.986 64.6736C119.401 66.4108 117.211 67.2743 115.025 67.237L114.82 67.2335L114.777 67.4336L113.863 71.6094C113.863 71.6095 113.863 71.6095 113.863 71.6096C113.811 71.8496 113.697 72.0601 113.543 72.2295C113.228 72.5741 112.744 72.7454 112.257 72.6387C111.529 72.4793 111.068 71.7606 111.228 71.0328L111.228 71.0326L112.14 66.8614L112.184 66.6611L111.997 66.5789C111.228 66.2426 110.502 65.7802 109.849 65.185C109.359 64.738 108.94 64.242 108.589 63.7125L108.476 63.5417L108.286 63.619L84.2956 73.3943L84.1061 73.4715L84.1443 73.6725C84.5926 76.0299 83.9661 78.5624 82.2292 80.4663C80.4917 82.3708 78.0271 83.2266 75.6386 82.9959L75.4349 82.9762L75.3754 83.172L72.852 91.467L72.8519 91.4673M108.057 55.947L72.8519 91.4673M72.8519 91.4673C72.792 91.6652 72.6899 91.8395 72.559 91.9829C72.2191 92.3555 71.684 92.5211 71.1697 92.3651L72.8519 91.4673ZM72.5655 71.6671L72.5651 71.6676C70.6469 73.7805 70.7998 77.0597 72.9094 78.9843C75.0221 80.9118 78.3083 80.7617 80.2358 78.6489C82.1633 76.5361 82.0125 73.2494 79.8997 71.3219C77.7896 69.3968 74.5089 69.5448 72.581 71.6502L72.5807 71.6505C72.5779 71.6535 72.5754 71.6564 72.5732 71.659C72.5708 71.6615 72.5682 71.6642 72.5655 71.6671ZM109.326 98.167C107.213 96.2394 103.927 96.3908 101.999 98.5036C100.072 100.616 100.222 103.902 102.335 105.829C104.448 107.757 107.734 107.607 109.662 105.494C111.589 103.381 111.438 100.094 109.326 98.167ZM60.7306 119.025C62.8435 120.953 66.1295 120.802 68.057 118.689C69.9839 116.577 69.8338 113.291 67.721 111.363C65.6082 109.436 62.3215 109.586 60.3946 111.698C58.4671 113.811 58.6178 117.098 60.7306 119.025ZM40.8181 35.6679C38.7059 33.741 35.4192 33.8917 33.4917 36.0045C31.5642 38.1173 31.7156 41.4034 33.8283 43.3309C35.9411 45.2584 39.2266 45.1077 41.1541 42.9949C43.0816 40.8821 42.9309 37.5954 40.8181 35.6679ZM111.667 63.1922C113.78 65.1197 117.066 64.9683 118.993 62.8555C120.921 60.7428 120.771 57.4566 118.657 55.5297C116.545 53.6023 113.259 53.7523 111.331 55.8652C109.404 57.978 109.554 61.2647 111.667 63.1922Z" fill="black" stroke="white" stroke-width="0.5"/>
</svg>
