<svg width="68" height="67" viewBox="0 0 68 67" fill="none" xmlns="http://www.w3.org/2000/svg">
<path d="M13.3022 47.6972L13.2049 47.7716L13.1126 47.6912C11.7996 46.5479 10.108 45.8327 8.2386 45.8327C4.12356 45.8327 0.775002 49.1811 0.775002 53.2961C0.775002 57.4112 4.12357 60.7597 8.2386 60.7597C12.3536 60.7597 15.7022 57.4112 15.7022 53.2961C15.7022 52.1329 15.4106 51.0432 14.9311 50.0574L14.8775 49.9471L14.9749 49.8726L25.3688 41.9244L25.4739 41.844L25.5668 41.9382C27.7504 44.1531 30.7773 45.5325 34.1249 45.5325C36.287 45.5325 38.291 44.9134 40.0501 43.9075L40.1651 43.8417L40.2445 43.9477L45.9087 51.5003L45.9847 51.6017L45.8974 51.6936C44.3657 53.3067 43.4113 55.4715 43.4113 57.8643C43.4113 62.8196 47.4424 66.8507 52.3977 66.8507C57.353 66.8507 61.384 62.8196 61.384 57.8643C61.384 52.909 57.353 48.8779 52.3977 48.8779C50.918 48.8779 49.5399 49.2722 48.304 49.9114L48.1912 49.9698L48.1151 49.8682L42.4602 42.328L42.3809 42.2222L42.4759 42.1302C44.5533 40.1196 45.8682 37.3663 46.075 34.3035L46.0839 34.1716L46.2158 34.1639L52.676 33.7847L52.798 33.7775L52.8296 33.8956C53.6828 37.0799 56.5648 39.4417 60.0114 39.4417C64.1264 39.4417 67.475 36.0932 67.475 31.9781C67.475 27.8631 64.1264 24.5145 60.0114 24.5145C56.261 24.5145 53.1772 27.3058 52.6559 30.9165L52.6384 31.0376L52.5162 31.0448L46.0902 31.4219L45.9582 31.4297L45.934 31.2997C45.2524 27.6397 42.8979 24.5965 39.7043 22.9064L39.5877 22.8447L39.634 22.7212L41.3866 18.0458L41.4311 17.9271L41.5556 17.9511C42.1106 18.0585 42.6787 18.1237 43.2613 18.1237C48.2166 18.1237 52.2477 14.0926 52.2477 9.13735C52.2477 4.18205 48.2166 0.150977 43.2613 0.150977C38.306 0.150977 34.2749 4.18205 34.2749 9.13735C34.2749 12.4444 36.091 15.3093 38.7622 16.87L38.8714 16.9337L38.827 17.0521L37.0732 21.7305L37.0268 21.8544L36.8981 21.8238C36.0006 21.6103 35.0806 21.4691 34.1249 21.4691C30.6922 21.4691 27.6097 22.9322 25.4145 25.248L25.3235 25.344L25.2169 25.2658L18.0955 20.0424L17.9967 19.9698L18.0481 19.8585C18.4869 18.9078 18.7476 17.8615 18.7476 16.7508C18.7476 12.6358 15.399 9.2872 11.284 9.2872C7.16898 9.2872 3.82041 12.6359 3.82041 16.7509C3.82041 20.866 7.16898 24.2145 11.284 24.2145C13.2073 24.2145 14.9468 23.463 16.2732 22.2609L16.364 22.1787L16.4627 22.2511L23.6139 27.4963L23.7207 27.5746L23.6562 27.6903C22.6899 29.4232 22.0932 31.3853 22.0932 33.5009C22.0932 35.7033 22.7315 37.7443 23.7722 39.5252L23.839 39.6395L23.7338 39.72L13.3022 47.6972ZM6.56582 16.7508C6.56582 14.1489 8.68209 12.0326 11.284 12.0326C13.8859 12.0326 16.0022 14.1489 16.0022 16.7508C16.0022 19.3527 13.8859 21.469 11.284 21.469C8.68209 21.469 6.56582 19.3527 6.56582 16.7508ZM64.7296 31.9781C64.7296 34.58 62.6133 36.6963 60.0114 36.6963C57.4095 36.6963 55.2932 34.58 55.2932 31.9781C55.2932 29.3762 57.4095 27.2599 60.0114 27.2599C62.6133 27.2599 64.7296 29.3762 64.7296 31.9781ZM58.6386 57.8645C58.6386 61.3066 55.8398 64.1054 52.3977 64.1054C48.9556 64.1054 46.1567 61.3066 46.1567 57.8645C46.1567 54.4223 48.9555 51.6235 52.3977 51.6235C55.8398 51.6235 58.6386 54.4223 58.6386 57.8645ZM49.5023 9.1372C49.5023 12.5792 46.7035 15.3782 43.2613 15.3782C39.8193 15.3782 37.0205 12.5792 37.0205 9.1372C37.0205 5.69518 39.8191 2.89624 43.2613 2.89624C46.7035 2.89624 49.5023 5.69518 49.5023 9.1372ZM43.4113 33.5009C43.4113 38.6219 39.2459 42.7873 34.1249 42.7873C29.0041 42.7873 24.8386 38.6219 24.8386 33.5009C24.8386 28.3799 29.0039 24.2145 34.1249 24.2145C39.2459 24.2145 43.4113 28.3799 43.4113 33.5009ZM12.9568 53.2963C12.9568 55.8982 10.8405 58.0145 8.2386 58.0145C5.63668 58.0145 3.52041 55.8982 3.52041 53.2963C3.52041 50.6944 5.63668 48.5781 8.2386 48.5781C10.8405 48.5781 12.9568 50.6944 12.9568 53.2963Z" fill="black" stroke="white" stroke-width="0.3"/>
</svg>
