<svg width="68" height="146" viewBox="0 0 68 146" fill="none" xmlns="http://www.w3.org/2000/svg">
<path d="M49.3164 67.6939L49.6976 67.1562C50.9697 65.3619 52.1546 63.5741 53.2253 61.7996C61.2217 48.545 62.4909 37.543 57.4281 30.5784C54.4665 26.5049 49.5496 24.1534 43.1381 23.5C36.7235 22.8462 28.883 23.9034 20.2192 26.5815L19.5916 26.7755L19.3162 26.1789C15.5156 17.9464 11.0583 11.412 6.2813 7.08226C1.50677 2.75477 -3.53245 0.673609 -8.54531 1.19696C-13.558 1.72029 -18.0548 4.79701 -21.8253 10.0166C-25.5978 15.2389 -28.5989 22.552 -30.6044 31.3907L-30.7498 32.0312L-31.404 31.9711C-40.4364 31.1405 -48.3261 31.7255 -54.4653 33.6899C-60.6014 35.6533 -64.9226 38.9692 -66.9732 43.5661L49.3164 67.6939ZM49.3164 67.6939L49.8012 68.1412M49.3164 67.6939L49.8012 68.1412M49.8012 68.1412C51.4189 69.6334 52.95 71.138 54.3667 72.6527C64.9469 83.968 68.4773 94.4689 64.9734 102.328C62.0517 108.88 54.495 112.844 43.7236 113.969C39.406 114.419 34.5866 114.394 29.4057 113.918L28.7514 113.858L28.6061 114.498C26.6007 123.338 23.5995 130.653 19.8267 135.876C16.0559 141.096 11.5588 144.174 6.5455 144.697C1.53225 145.22 -3.50744 143.139 -8.2824 138.81C-13.0598 134.48 -17.5175 127.944 -21.3182 119.71L-21.5936 119.114L-22.2212 119.308C-27.1908 120.844 -31.9 121.864 -36.2178 122.315C-46.9917 123.439 -55.2062 121.122 -59.4279 115.316C-64.4904 108.351 -63.2214 97.3489 -55.2251 84.0943C-54.1544 82.3199 -52.9693 80.5318 -51.6972 78.7378L-51.3159 78.2001M49.8012 68.1412L-51.3159 78.2001M-51.3159 78.2001L-51.8007 77.7528M-51.3159 78.2001L-51.8007 77.7528M-51.8007 77.7528C-53.4185 76.2601 -54.9499 74.7559 -56.3665 73.2412C-66.9466 61.926 -70.4771 51.4252 -66.9733 43.5662L-51.8007 77.7528ZM-31.5206 35.8941L-31.6578 36.6953C-32.7814 43.2582 -33.3947 50.4921 -33.4307 58.1918L-33.4322 58.5214L-33.676 58.7429C-39.284 63.8391 -44.2736 69.126 -48.4703 74.429L-48.9756 75.0675L-49.5708 74.5109C-50.9594 73.2124 -52.2767 71.9013 -53.512 70.5804L-52.9643 70.0684L-53.512 70.5804C-58.0126 65.7678 -61.1951 61.0627 -62.9044 56.7508C-64.6125 52.4418 -64.8753 48.4518 -63.4048 45.1536L-31.5206 35.8941ZM-31.5206 35.8941L-32.3305 35.8213M-31.5206 35.8941L-32.3305 35.8213M-32.3305 35.8213C-37.1722 35.3863 -41.6753 35.3548 -45.6677 35.7716C-54.3933 36.6826 -60.9697 39.6908 -63.4048 45.1536L-32.3305 35.8213ZM54.2674 32.8681L53.6607 33.3088L54.2673 32.8681C50.7486 28.0282 43.6881 26.4425 34.9637 27.3533C30.9713 27.7701 26.5728 28.7306 21.9268 30.1565L21.1497 30.395L21.4506 31.1505C23.9151 37.3387 26.02 44.2891 27.6573 51.8139L27.7274 52.1359L28.012 52.3023C34.5584 56.1293 40.5395 60.2711 45.748 64.5922L46.3751 65.1124L46.8416 64.4452C47.9305 62.8878 48.9459 61.3331 49.8795 59.7859C53.281 54.1483 55.4155 48.8881 56.1906 44.3168C56.9652 39.7486 56.3921 35.7909 54.2674 32.8681ZM30.1728 58.1723L28.7522 57.2778L29.034 58.9322C29.6268 62.4123 30.1214 65.992 30.5066 69.6576C30.892 73.3233 31.1529 76.9274 31.2973 80.4546L31.366 82.1312L32.5695 80.9627C36.6741 76.9776 40.3809 72.9017 43.593 68.8168L44.043 68.2444L43.4837 67.7775C39.4915 64.4443 35.0172 61.2228 30.1728 58.1723ZM21.6172 48.7558L23.1072 49.5373L22.692 47.9072C21.2695 42.3215 19.5788 37.0892 17.6828 32.3321L17.412 31.6528L16.7261 31.9057C11.9236 33.676 6.90479 35.9266 1.80471 38.6003L0.31454 39.3815L1.89272 39.9675C5.19359 41.1932 8.53061 42.5488 11.8871 44.0439L12.192 43.3589L11.8872 44.044C15.2218 45.5292 18.4704 47.1054 21.6172 48.7558ZM15.0995 28.3208L15.8622 28.0396L15.5199 27.3019C12.2455 20.2448 8.4866 14.4981 4.49309 10.6105C0.505572 6.7287 -3.80228 4.62266 -8.13746 5.07526C-12.4725 5.52785 -16.2486 8.47787 -19.342 13.0989C-22.44 17.7269 -24.9217 24.1251 -26.6566 31.7052L-26.838 32.4975L-26.0334 32.6151C-19.4368 33.5789 -12.3657 35.2258 -5.02293 37.575L-4.70917 37.6754L-4.4231 37.5124C2.27155 33.6979 8.84637 30.6261 15.0995 28.3208ZM-26.8794 36.4581L-27.6031 36.3524L-27.7266 37.073C-28.5912 42.1185 -29.1564 47.586 -29.3863 53.3442L-29.4534 55.0248L-28.1582 53.9524C-25.4229 51.6877 -22.573 49.475 -19.6201 47.3334C-16.6474 45.1777 -13.6654 43.1624 -10.6913 41.2813L-9.26941 40.382L-10.8897 39.9256C-16.4352 38.3636 -21.8129 37.1981 -26.8794 36.4581ZM-32.1726 87.7219L-30.7523 88.6163L-31.0337 86.9621C-31.626 83.4815 -32.1212 79.9019 -32.5066 76.2363C-32.8921 72.5708 -33.1524 68.9666 -33.2971 65.4396L-33.3659 63.7633L-34.5692 64.9315C-38.6739 68.9163 -42.3804 72.9919 -45.5925 77.0772L-46.0425 77.6495L-45.4832 78.1164C-41.491 81.4493 -37.0171 84.6711 -32.1726 87.7219ZM-47.7479 81.3015L-48.3751 80.7812L-48.8415 81.4486C-49.9297 83.0058 -50.9457 84.5604 -51.8794 86.1078L-51.2371 86.4955L-51.8794 86.1078C-55.2809 91.7453 -57.4154 97.0054 -58.1905 101.577C-58.965 106.145 -58.3919 110.103 -56.2672 113.026L-55.6606 112.585L-56.2672 113.026C-53.7054 116.549 -49.2587 118.34 -43.7067 118.707C-38.1461 119.074 -31.36 118.025 -23.9243 115.743L-23.1472 115.504L-23.4481 114.749C-25.9133 108.559 -28.0194 101.607 -29.6569 94.0798L-29.7269 93.7577L-30.0116 93.5913C-36.5579 89.7643 -42.5394 85.6223 -47.7479 81.3015ZM-23.6164 97.1381L-25.1064 96.3566L-24.6913 97.9867C-23.2692 103.571 -21.5792 108.802 -19.6835 113.558L-19.4127 114.238L-18.7269 113.985C-13.9169 112.212 -8.89277 109.972 -3.78201 107.291L-2.29196 106.51L-3.87025 105.924C-7.18089 104.695 -10.5223 103.348 -13.8867 101.85C-17.221 100.365 -20.4696 98.7885 -23.6164 97.1381ZM-17.098 117.575L-17.8606 117.857L-17.5183 118.594C-14.2443 125.651 -10.4856 131.397 -6.49224 135.284C-2.50489 139.166 1.80278 141.271 6.13765 140.819C10.4727 140.366 14.2487 137.416 17.342 132.796C20.4399 128.168 22.9217 121.771 24.6568 114.191L24.8382 113.399L24.0336 113.281C17.4384 112.318 10.3637 110.66 3.02206 108.312L2.70832 108.211L2.42226 108.374C-4.2706 112.187 -10.8471 115.27 -17.098 117.575ZM24.8804 109.432L25.604 109.537L25.7275 108.817C26.5923 103.773 27.1571 98.3064 27.3868 92.55L27.4539 90.8696L26.1587 91.9418C23.4234 94.2063 20.5735 96.4192 17.6204 98.5608C14.6413 100.721 11.6526 102.729 8.67 104.614L7.24799 105.513L8.86817 105.97C14.4252 107.536 19.8061 108.691 24.8804 109.432ZM27.243 85.8795L27.5004 85.6531L27.4973 85.3102C27.4534 80.3656 27.1691 75.2588 26.6227 70.0631C26.0763 64.8675 25.2917 59.8129 24.306 54.9666L24.2377 54.6305L23.9387 54.4622C19.6087 52.024 15.048 49.7215 10.2977 47.6062C5.52279 45.4791 0.754988 43.6427 -3.93448 42.0706L-4.25864 41.9619L-4.55315 42.1352C-8.81409 44.6417 -13.0957 47.4232 -17.3247 50.49C-21.5314 53.5402 -25.5143 56.7347 -29.243 60.0145L-29.5005 60.2409L-29.4974 60.5838C-29.4535 65.5283 -29.1698 70.6352 -28.6234 75.8309C-28.077 81.0266 -27.2921 86.0811 -26.3064 90.9274L-26.2381 91.2635L-25.9392 91.4318C-21.609 93.8706 -17.048 96.1725 -12.2981 98.2878L-11.9933 97.6028L-12.2981 98.2878C-7.52299 100.414 -2.75419 102.255 1.93594 103.827L2.26006 103.935L2.55454 103.762C6.81495 101.256 11.0967 98.4705 15.3245 95.404C19.5315 92.3535 23.5143 89.1596 27.243 85.8795ZM29.6574 109.204L29.5202 110.005L30.33 110.078C38.0789 110.776 44.9356 110.401 50.299 108.893C55.6541 107.388 59.6317 104.717 61.405 100.74C62.8755 97.4422 62.6127 93.4522 60.9047 89.1432C59.1954 84.8312 56.0129 80.1262 51.5125 75.3135C50.2772 73.9927 48.9605 72.6815 47.5712 71.3829L46.976 70.8266L46.4708 71.4649C42.2741 76.7676 37.2845 82.0551 31.6768 87.151L31.433 87.3725L31.4314 87.7021C31.3954 95.4038 30.7817 102.64 29.6574 109.204Z" fill="#02E7FE" stroke="white" stroke-width="1.5"/>
</svg>
