<svg width="56" height="55" viewBox="0 0 56 55" fill="none" xmlns="http://www.w3.org/2000/svg">
<g clip-path="url(#clip0)">
<path d="M27.5695 24.1492C25.7059 24.3715 23.8929 25.0207 22.2957 26.0763L6.14597 36.7531C5.10631 37.4407 4.54667 38.6371 4.68605 39.8755C4.82547 41.1143 5.63693 42.1562 6.80343 42.5955L24.935 49.4204C28.6381 50.8145 32.8022 50.3175 36.0737 48.0921L52.0916 37.1945C53.1221 36.4932 53.6654 35.2893 53.5096 34.0529C53.3538 32.8164 52.5289 31.7852 51.3567 31.3613L33.1487 24.782C31.348 24.1316 29.4331 23.927 27.5695 24.1492ZM25.1886 48.7464L25.4421 48.0724L7.3106 41.2475C6.64329 40.9961 6.19719 40.4233 6.11758 39.7146C6.03798 39.0059 6.34526 38.3482 6.94024 37.955L23.0903 27.2781C25.9064 25.416 29.4839 24.9893 32.6589 26.137L50.867 32.7163C51.5377 32.9586 51.9911 33.5256 52.0804 34.2332C52.1693 34.9407 51.8708 35.6023 51.2813 36.0036L35.263 46.9012C32.3787 48.8637 28.7074 49.3015 25.4421 48.0724L25.1886 48.7464Z" fill="#E5E5E5"/>
<path d="M26.3989 14.3337C24.5353 14.5559 22.7222 15.2047 21.125 16.2607L4.97491 26.9372C3.93526 27.6249 3.37599 28.8212 3.51541 30.0599C3.65479 31.2983 4.46629 32.3406 5.63274 32.7795L11.1103 34.8415L11.6179 33.4934L6.14029 31.4315C5.47298 31.1801 5.02688 30.6073 4.9469 29.8987C4.86729 29.19 5.17495 28.5322 5.76955 28.139L21.9196 17.4622C24.7362 15.6004 28.3132 15.1738 31.4883 16.321L49.6963 22.9004C50.3671 23.1427 50.8204 23.7097 50.9097 24.4172C50.999 25.1248 50.7001 25.7864 50.1106 26.1876L45.2712 29.48L46.0816 30.6709L50.921 27.3785C51.9514 26.6772 52.4947 25.4738 52.339 24.2373C52.1832 23.0005 51.3582 21.9693 50.186 21.5454L31.978 14.9664C30.1773 14.3156 28.2625 14.1114 26.3989 14.3337Z" fill="#E5E5E5"/>
<path d="M20.3157 27.478C20.0572 27.5088 19.8244 27.679 19.7262 27.9397C19.5863 28.3119 19.7744 28.7273 20.1466 28.8673L22.5935 29.7886C26.0518 31.0902 29.8626 30.7638 33.0482 28.8927C33.3914 28.6912 33.5062 28.2499 33.3047 27.9067C33.1032 27.5639 32.6615 27.4492 32.3187 27.6507C29.5101 29.3003 26.15 29.5881 23.1007 28.4402L20.6542 27.5192C20.5423 27.4774 20.4267 27.4648 20.3157 27.478Z" fill="#E5E5E5"/>
<path d="M25.2282 4.51777C23.3646 4.74002 21.5515 5.38882 19.9543 6.44482L3.80423 17.1217C2.76453 17.8089 2.20527 19.0052 2.34469 20.244C2.48407 21.4824 3.29557 22.5247 4.46202 22.9636L17.0231 27.692C17.3957 27.8323 17.8107 27.6442 17.9511 27.2719C18.091 26.8993 17.9028 26.4839 17.5306 26.344L4.9692 21.6156C4.30189 21.3642 3.85615 20.7914 3.77618 20.0827C3.69657 19.3741 4.00386 18.7163 4.59883 18.3231L20.749 7.64663C23.5651 5.78451 27.1425 5.35787 30.3176 6.5055L48.5256 13.0845C49.1963 13.3267 49.6497 13.8938 49.739 14.6013C49.8279 15.3089 49.5294 15.9705 48.9399 16.3717L35.0832 25.7989C34.7544 26.0228 34.6688 26.4709 34.8928 26.7997C35.1164 27.1289 35.5647 27.2137 35.8936 26.9901L49.7499 17.5627C50.7807 16.8617 51.324 15.6579 51.1682 14.4214C51.0124 13.1846 50.1875 12.1534 49.0153 11.7299L30.8073 5.15051C29.0066 4.49974 27.0918 4.29552 25.2282 4.51777Z" fill="#E5E5E5"/>
<path d="M11.2793 33.4518C11.0208 33.4826 10.788 33.6532 10.6899 33.9135C10.5499 34.2861 10.7377 34.7011 11.1103 34.8415L23.7643 39.6049C27.4674 40.9985 31.6312 40.502 34.9026 38.2765C34.9026 38.2765 36.152 37.5767 35.6731 36.8809C35.1979 36.191 34.0923 37.0853 34.0923 37.0853C31.2084 39.0477 27.5367 39.4855 24.2718 38.2564L11.6175 33.4934C11.5059 33.4512 11.3899 33.4386 11.2793 33.4518Z" fill="#E5E5E5"/>
<path d="M45.5904 29.3601C45.4794 29.3733 45.37 29.4128 45.2711 29.4801L37.2738 34.9209C36.945 35.1445 36.8598 35.5925 37.0837 35.9213C37.3073 36.2505 37.7553 36.3354 38.0842 36.1118L46.0815 30.671C46.4102 30.4471 46.4955 29.999 46.2719 29.6702C46.1153 29.4403 45.8489 29.3292 45.5904 29.3601Z" fill="#E5E5E5"/>
</g>
<defs>
<clipPath id="clip0">
<rect width="49.1696" height="49.1696" transform="matrix(0.992964 -0.118419 -0.118419 -0.992964 6.44751 54.6465)" fill="white"/>
</clipPath>
</defs>
</svg>
