<svg width="80" height="123" viewBox="0 0 80 123" fill="none" xmlns="http://www.w3.org/2000/svg">
<path d="M70.639 80.7306L71.0688 80.6611C74.2477 80.1475 77.0588 77.9216 78.1701 74.6468C79.7635 69.9509 77.2684 64.8586 72.6193 63.2917C71.9916 63.0801 71.3559 62.9458 70.7199 62.8793L70.2813 62.8334L70.2725 62.3931L69.9675 47.1108L69.9627 46.8666L70.1526 46.7125C72.564 44.7554 74.4752 42.1191 75.5468 38.961C77.6234 32.8412 76.0779 26.1635 71.627 21.6418L71.4114 21.4227L71.5102 21.1315L75.4534 9.51089C76.4911 6.45296 74.8654 3.13955 71.842 2.12056L69.0826 1.19058C66.0592 0.171587 62.7493 1.82157 61.7117 4.8795L57.7685 16.5001L57.6697 16.7913L57.3649 16.835C51.0738 17.7364 45.7788 22.1086 43.7021 28.2284C42.6305 31.3864 42.5438 34.6377 43.2676 37.6515L43.3246 37.8888L43.172 38.0799L38.578 43.8342C38.1168 44.4125 38.2087 45.2495 38.7738 45.7053C39.3387 46.1592 40.1669 46.0679 40.6277 45.4914L70.639 80.7306ZM70.639 80.7306L70.6477 81.1652L71.2565 111.698C71.3506 116.404 67.6185 120.332 62.9474 120.459L58.0658 120.592L57.5683 120.605L57.5784 121.102L57.6854 126.358L57.6854 126.358C57.7007 127.096 57.1181 127.707 56.3915 127.727L56.3899 127.727C56.2329 127.732 56.0809 127.707 55.9387 127.659C55.431 127.488 55.0598 127.011 55.0484 126.437L55.0484 126.437L54.9035 119.365C54.9036 119.353 54.9033 119.341 54.9025 119.329L54.3721 92.7304L54.3651 92.3798L54.0325 92.2677L48.9888 90.5678C48.3035 90.3369 47.9314 89.5863 48.1693 88.8853C48.4068 88.1855 49.1595 87.8138 49.8449 88.0448L53.6331 89.3215L54.3081 89.549L54.294 88.8373L54.1826 83.2295L54.1756 82.8789L53.843 82.7668L34.273 76.1711L33.9405 76.059L33.7214 76.3334L30.2176 80.7228L29.7729 81.2799L30.4479 81.5074L39.0567 84.4088C39.7421 84.6398 40.114 85.3905 39.8765 86.0904C39.6387 86.7913 38.8858 87.1628 38.2005 86.9318L28.3362 83.6073L28.0037 83.4952L27.7846 83.7696L11.2196 104.519L11.2192 104.519L11.1504 104.605L6.71962 110.149L6.71944 110.149C6.36062 110.598 5.77516 110.753 5.26751 110.582C5.12563 110.534 4.99067 110.462 4.86728 110.362L4.86664 110.361C4.30138 109.906 4.2101 109.068 4.67179 108.491L4.67189 108.491L7.95785 104.378L8.26854 103.989L7.88136 103.678L4.08251 100.62L4.08245 100.62C0.446713 97.6935 -0.126494 92.3141 2.81347 88.6306C2.81348 88.6306 2.81349 88.6306 2.81351 88.6306L31.434 52.7819C31.8947 52.2057 32.7233 52.114 33.2875 52.5683L33.2877 52.5685C33.853 53.0231 33.9451 53.861 33.4841 54.4386C33.4841 54.4386 33.4841 54.4387 33.484 54.4387L4.86242 90.2873L4.86231 90.2875C2.84371 92.8175 3.2326 96.5167 5.74041 98.5354L9.53925 101.594L9.93066 101.909L10.2446 101.516L51.8895 49.3547L52.2665 48.8826L51.7324 48.6014C48.657 46.9827 46.2465 44.476 44.7066 41.5078L44.3522 40.8246L43.8713 41.4271L40.6278 45.4912L70.639 80.7306ZM11.0689 104.755C11.0677 104.759 11.0684 104.756 11.0704 104.751L11.0689 104.755ZM11.3157 104.47C11.3188 104.469 11.3199 104.468 11.3177 104.469L11.3157 104.47ZM68.7044 19.2766L69.2425 19.6192L69.4476 19.0148L72.9579 8.66982C73.5211 7.01003 72.6419 5.20274 70.9847 4.6442L68.2262 3.71452C66.57 3.15632 64.7696 4.06036 64.2063 5.72026L60.696 16.0652L60.4909 16.6696L61.1272 16.7229C62.4626 16.8346 63.7817 17.1043 65.0721 17.5392C66.3624 17.9741 67.575 18.5577 68.7044 19.2766ZM36.1547 73.2857L35.71 73.8428L36.385 74.0703L53.443 79.8194L54.1181 80.0469L54.1039 79.3351L53.5763 52.8806L53.5487 51.4985L52.6851 52.5803L36.1547 73.2857ZM57.5036 117.443L57.5136 117.946L58.0166 117.932L62.899 117.8C66.1216 117.712 68.6835 115.008 68.6194 111.775L68.6194 111.774L68.0053 81.0102L67.9976 80.6243L67.6218 80.5349C67.3597 80.4725 67.1 80.4001 66.8433 80.3136C62.1951 78.747 59.6989 73.6552 61.2926 68.9585C62.2722 66.0715 64.5722 64.0016 67.2817 63.1984L67.6479 63.0899L67.6403 62.7086L67.3733 49.3479L67.3579 48.5783L66.6603 48.9068C63.63 50.3338 60.1874 50.8687 56.7579 50.2941L56.1621 50.1943L56.1741 50.7977L57.5036 117.443ZM75.6745 73.8057C76.7935 70.5082 75.0451 66.9218 71.7629 65.8156C68.4816 64.7098 64.9071 66.502 63.7881 69.7996C62.6688 73.098 64.4182 76.6847 67.6994 77.7905C70.9817 78.8968 74.5553 77.1041 75.6745 73.8057ZM64.2156 20.0631C62.4001 19.4513 60.5167 19.2163 58.6182 19.3658L58.6182 19.3658C52.9189 19.814 48.044 23.6254 46.1968 29.0691C43.6661 36.5269 47.6243 44.6291 55.0324 47.1259C62.4406 49.6227 70.5206 45.5777 73.0513 38.1199C74.8985 32.6761 73.3453 26.6983 69.0879 22.8944C67.671 21.6275 66.0311 20.675 64.2156 20.0631Z" fill="#FEB13A" stroke="white" stroke-width="0.999998"/>
</svg>
