<svg width="142" height="150" viewBox="0 0 142 150" fill="none" xmlns="http://www.w3.org/2000/svg">
<path d="M125.203 86.4615L125.586 85.8163C129.357 88.0504 131.598 92.008 131.573 96.3908C131.549 100.773 129.264 104.704 125.469 106.896L70.9204 138.389C67.1252 140.58 62.5781 140.593 58.7709 138.423C54.9631 136.253 52.656 132.334 52.607 127.951L52.3848 108.126L52.3777 107.498L52.9948 107.381C57.8204 106.465 62.3771 104.777 66.5902 102.345C67.2141 101.985 67.8306 101.608 68.4393 101.215C73.7278 97.8024 78.1624 93.3361 81.6216 87.9352C86.4091 80.457 93.221 74.8934 101.366 71.7973L101.703 71.6689L102.014 71.853L125.586 85.8163L125.203 86.4615ZM125.203 86.4615L101.632 72.4983L130.823 96.3866C130.846 92.2703 128.745 88.5599 125.203 86.4615ZM75.239 52.2949L75.3373 52.4651L75.5063 52.5652L127.157 83.1633C131.887 85.9648 134.688 90.9119 134.657 96.408C134.626 101.904 131.77 106.818 127.011 109.566L72.4623 141.06C67.7027 143.808 62.0185 143.824 57.2438 141.103C52.4687 138.381 49.5849 133.482 49.5233 127.985L48.8502 67.9551L48.848 67.7586L48.7498 67.5885L34.8726 43.5526L34.6077 43.0937L34.0867 43.1901C31.6049 43.6492 28.9914 42.5337 27.6614 40.2301C25.9728 37.3054 26.9789 33.5506 29.9036 31.8621L53.7221 18.1104C56.6468 16.4219 60.4016 17.428 62.0902 20.3526C63.4202 22.6563 63.0794 25.4773 61.4409 27.3971L61.097 27.8002L61.3619 28.259L75.239 52.2949ZM51.9271 67.3198L51.9271 67.3199L52.3323 103.461L52.3425 104.374L53.2365 104.186C63.9311 101.937 73.0208 95.6461 79.0246 86.2723L79.0247 86.2722C83.5362 79.2242 89.7153 73.7646 97.0642 70.2797L98.3384 69.6755L97.1252 68.9568L73.4178 54.9123C73.1899 54.7773 73.0009 54.5861 72.8684 54.3567L58.8876 30.1412L58.5126 29.4916L57.8631 29.8666L55.8782 31.0126C55.1409 31.4383 54.1976 31.1856 53.7719 30.4482C53.3462 29.7109 53.5989 28.7676 54.3363 28.3419L58.306 26.05C59.7592 25.211 60.2584 23.3478 59.4194 21.8946C58.5805 20.4414 56.7173 19.9422 55.2641 20.7812L31.4455 34.5328C29.9923 35.3718 29.4931 37.235 30.3321 38.6882C31.1711 40.1414 33.0343 40.6406 34.4875 39.8016L38.4572 37.5097C39.1946 37.084 40.1379 37.3367 40.5636 38.074C40.9893 38.8114 40.7365 39.7547 39.9992 40.1804L38.0143 41.3264L37.3648 41.7014L37.7398 42.3509L51.7206 66.5664C51.853 66.7958 51.9242 67.0554 51.9271 67.3198Z" fill="#CF32FA" stroke="white" stroke-width="1.5"/>
</svg>
