<svg width="28" height="28" viewBox="0 0 28 28" fill="none" xmlns="http://www.w3.org/2000/svg">
<path d="M26.4266 10.7332L23.9066 9.89317L25.0933 7.51984C25.2136 7.27142 25.2538 6.99179 25.2084 6.71954C25.1631 6.44728 25.0343 6.19582 24.84 5.99984L22 3.15984C21.8029 2.96262 21.5491 2.83212 21.274 2.78668C20.999 2.74123 20.7166 2.78314 20.4666 2.90651L18.0933 4.09317L17.2533 1.57318C17.1646 1.3105 16.9962 1.08201 16.7716 0.919506C16.5469 0.757002 16.2772 0.668567 16 0.666508H12C11.7204 0.665787 11.4478 0.752934 11.2205 0.915631C10.9932 1.07833 10.8227 1.30835 10.7333 1.57318L9.8933 4.09317L7.51996 2.90651C7.27154 2.78621 6.99192 2.74598 6.71966 2.79136C6.4474 2.83673 6.19594 2.96548 5.99996 3.15984L3.15996 5.99984C2.96274 6.19686 2.83224 6.45074 2.7868 6.72578C2.74136 7.00082 2.78326 7.28319 2.90663 7.53317L4.0933 9.90651L1.5733 10.7465C1.31062 10.8352 1.08213 11.0036 0.919628 11.2282C0.757124 11.4529 0.66869 11.7226 0.66663 11.9998V15.9998C0.665909 16.2794 0.753056 16.552 0.915753 16.7793C1.07845 17.0066 1.30847 17.1771 1.5733 17.2665L4.0933 18.1065L2.90663 20.4798C2.78634 20.7283 2.7461 21.0079 2.79148 21.2801C2.83685 21.5524 2.9656 21.8039 3.15996 21.9998L5.99996 24.8398C6.19698 25.0371 6.45086 25.1676 6.7259 25.213C7.00094 25.2584 7.28331 25.2165 7.5333 25.0932L9.90663 23.9065L10.7466 26.4265C10.8361 26.6913 11.0065 26.9214 11.2338 27.0841C11.4611 27.2467 11.7338 27.3339 12.0133 27.3332H16.0133C16.2928 27.3339 16.5655 27.2467 16.7928 27.0841C17.0201 26.9214 17.1905 26.6913 17.28 26.4265L18.12 23.9065L20.4933 25.0932C20.7401 25.2104 21.017 25.249 21.2865 25.2037C21.556 25.1584 21.8051 25.0314 22 24.8398L24.84 21.9998C25.0372 21.8028 25.1677 21.5489 25.2131 21.2739C25.2586 20.9989 25.2167 20.7165 25.0933 20.4665L23.9066 18.0932L26.4266 17.2532C26.6893 17.1645 26.9178 16.9961 27.0803 16.7714C27.2428 16.5468 27.3312 16.2771 27.3333 15.9998V11.9998C27.334 11.7203 27.2469 11.4476 27.0842 11.2203C26.9215 10.993 26.6915 10.8226 26.4266 10.7332ZM24.6666 15.0398L23.0666 15.5732C22.6987 15.6925 22.3611 15.8905 22.0774 16.1533C21.7936 16.4161 21.5704 16.7376 21.4232 17.0953C21.2761 17.453 21.2085 17.8384 21.2252 18.2249C21.2419 18.6113 21.3425 18.9895 21.52 19.3332L22.28 20.8532L20.8133 22.3198L19.3333 21.5198C18.9914 21.3495 18.6168 21.2546 18.235 21.2416C17.8533 21.2285 17.4731 21.2977 17.1204 21.4444C16.7676 21.591 16.4505 21.8118 16.1905 22.0916C15.9305 22.3715 15.7337 22.704 15.6133 23.0665L15.08 24.6665H12.96L12.4266 23.0665C12.3073 22.6986 12.1093 22.361 11.8465 22.0772C11.5837 21.7935 11.2622 21.5703 10.9045 21.4231C10.5468 21.276 10.1614 21.2084 9.77493 21.2251C9.38849 21.2418 9.01032 21.3424 8.66663 21.5198L7.14663 22.2798L5.67996 20.8132L6.47996 19.3332C6.65742 18.9895 6.75799 18.6113 6.77469 18.2249C6.79139 17.8384 6.72383 17.453 6.57668 17.0953C6.42954 16.7376 6.20633 16.4161 5.92256 16.1533C5.63878 15.8905 5.30122 15.6925 4.9333 15.5732L3.3333 15.0398V12.9598L4.9333 12.4265C5.30122 12.3072 5.63878 12.1092 5.92256 11.8464C6.20633 11.5835 6.42954 11.2621 6.57668 10.9044C6.72383 10.5467 6.79139 10.1612 6.77469 9.77481C6.75799 9.38837 6.65742 9.01019 6.47996 8.66651L5.71996 7.18651L7.18663 5.71984L8.66663 6.47984C9.01032 6.6573 9.38849 6.75787 9.77493 6.77457C10.1614 6.79127 10.5468 6.7237 10.9045 6.57656C11.2622 6.42941 11.5837 6.20621 11.8465 5.92243C12.1093 5.63866 12.3073 5.3011 12.4266 4.93317L12.96 3.33317H15.04L15.5733 4.93317C15.6926 5.3011 15.8906 5.63866 16.1534 5.92243C16.4163 6.20621 16.7377 6.42941 17.0954 6.57656C17.4531 6.7237 17.8386 6.79127 18.225 6.77457C18.6114 6.75787 18.9896 6.6573 19.3333 6.47984L20.8533 5.71984L22.32 7.18651L21.52 8.66651C21.3496 9.00843 21.2547 9.38297 21.2417 9.76476C21.2287 10.1465 21.2978 10.5267 21.4445 10.8794C21.5911 11.2322 21.8119 11.5493 22.0917 11.8093C22.3716 12.0693 22.7041 12.2661 23.0666 12.3865L24.6666 12.9198V15.0398ZM14 8.66651C12.9451 8.66651 11.914 8.9793 11.0369 9.56534C10.1599 10.1514 9.47627 10.9843 9.07261 11.9589C8.66894 12.9334 8.56332 14.0058 8.76911 15.0403C8.9749 16.0749 9.48285 17.0252 10.2287 17.7711C10.9746 18.517 11.9249 19.0249 12.9595 19.2307C13.994 19.4365 15.0664 19.3309 16.0409 18.9272C17.0155 18.5235 17.8484 17.8399 18.4345 16.9629C19.0205 16.0858 19.3333 15.0547 19.3333 13.9998C19.3333 12.5854 18.7714 11.2288 17.7712 10.2286C16.771 9.22841 15.4145 8.66651 14 8.66651ZM14 16.6665C13.4725 16.6665 12.957 16.5101 12.5184 16.2171C12.0799 15.9241 11.7381 15.5076 11.5363 15.0203C11.3344 14.5331 11.2816 13.9969 11.3845 13.4796C11.4874 12.9623 11.7414 12.4872 12.1143 12.1142C12.4873 11.7413 12.9624 11.4873 13.4797 11.3844C13.997 11.2815 14.5332 11.3343 15.0205 11.5362C15.5077 11.738 15.9242 12.0798 16.2172 12.5183C16.5102 12.9569 16.6666 13.4724 16.6666 13.9998C16.6666 14.7071 16.3857 15.3854 15.8856 15.8855C15.3855 16.3856 14.7072 16.6665 14 16.6665Z" fill="#4C4F5A"/>
</svg>
