<svg viewBox="0 0 385 395" fill="none" xmlns="http://www.w3.org/2000/svg"><path fill="#FFCDCD" stroke="#000" d="M.5.5h383.05v393.053H.5z"/><path d="M55.35 42.114c-14.534 0-26.315 12.105-26.315 27.037 0 14.931 11.781 27.036 26.314 27.036a25.609 25.609 0 004.542-.408l.277-.05c13.361-2.562 22.626-15.158 21.376-29.064S68.942 42.119 55.35 42.115zM53.234 94.29h-.062a23.71 23.71 0 01-2.03-.276c-.039-.007-.077-.011-.115-.019-.656-.12-1.306-.27-1.948-.445l-.156-.04a24 24 0 01-1.858-.603c-.064-.024-.128-.044-.19-.069-.6-.226-1.189-.48-1.768-.753-.072-.033-.144-.065-.216-.1a22.008 22.008 0 01-1.672-.895l-.232-.135a24.822 24.822 0 01-1.58-1.033l-.233-.166a25.042 25.042 0 01-1.482-1.171l-.132-.12v-7.597c.006-5.473 4.322-9.907 9.648-9.914h12.28c5.327.007 9.643 4.441 9.65 9.913v7.6l-.117.1c-.49.42-.994.818-1.511 1.194l-.206.144c-.522.373-1.056.723-1.604 1.052-.068.041-.138.08-.206.12-.555.325-1.12.63-1.694.907a5.631 5.631 0 01-.2.09c-.584.277-1.177.532-1.78.76-.06.022-.121.042-.176.064-.614.226-1.237.43-1.868.606l-.15.039c-.645.175-1.294.325-1.951.446l-.114.018c-.671.12-1.35.215-2.032.277h-.062a24.07 24.07 0 01-4.233.006zm19.657-7.494v-5.928c-.007-6.468-5.108-11.709-11.402-11.716H49.21c-6.295.007-11.396 5.248-11.404 11.716v5.927c-9.447-9.907-9.342-25.79.236-35.564 9.578-9.773 25.037-9.773 34.615 0 9.578 9.774 9.683 25.657.236 35.564z" fill="#F7AEAE"/><path d="M55.349 49.325c-4.844 0-8.771 4.034-8.771 9.011 0 4.978 3.927 9.012 8.771 9.012 4.845 0 8.772-4.034 8.772-9.012-.006-4.975-3.93-9.006-8.772-9.011zm0 16.221c-3.876 0-7.017-3.228-7.017-7.21 0-3.981 3.141-7.21 7.017-7.21 3.876 0 7.017 3.229 7.017 7.21-.004 3.98-3.143 7.206-7.017 7.21zm90.185-23.432c-14.533 0-26.314 12.105-26.314 27.037 0 14.931 11.781 27.036 26.314 27.036a25.609 25.609 0 004.542-.408l.277-.05c13.361-2.562 22.626-15.158 21.376-29.064s-12.602-24.546-26.195-24.55zM143.42 94.29h-.062a23.78 23.78 0 01-2.031-.276c-.038-.007-.077-.011-.114-.019-.656-.12-1.306-.27-1.949-.445l-.155-.04a23.977 23.977 0 01-1.858-.603c-.064-.024-.128-.044-.191-.069a23.668 23.668 0 01-1.767-.753c-.072-.033-.144-.065-.216-.1a21.987 21.987 0 01-1.672-.895l-.232-.135a24.62 24.62 0 01-1.579-1.033l-.235-.166c-.506-.37-1-.761-1.481-1.171l-.133-.12v-7.597c.007-5.473 4.323-9.907 9.649-9.914h12.28c5.327.007 9.643 4.441 9.649 9.913v7.6l-.117.1c-.49.42-.993.818-1.51 1.194l-.206.144c-.522.373-1.056.723-1.604 1.052-.068.041-.138.08-.207.12-.554.325-1.118.63-1.693.907a5.587 5.587 0 01-.2.09c-.584.277-1.177.532-1.781.76-.06.022-.12.042-.176.064-.614.226-1.236.43-1.867.606l-.151.039a24.05 24.05 0 01-1.951.446c-.037.007-.075.012-.113.018-.672.12-1.35.215-2.032.277h-.062a23.992 23.992 0 01-4.233.006zm19.657-7.494v-5.928c-.007-6.468-5.108-11.709-11.403-11.716h-12.28c-6.295.007-11.396 5.248-11.403 11.716v5.927c-9.447-9.907-9.342-25.79.236-35.564 9.577-9.773 25.037-9.773 34.615 0 9.577 9.774 9.683 25.657.235 35.564z" fill="#F7AEAE"/><path d="M145.534 49.325c-4.844 0-8.771 4.034-8.771 9.011 0 4.978 3.927 9.012 8.771 9.012 4.845 0 8.772-4.034 8.772-9.012-.005-4.975-3.929-9.006-8.772-9.011zm0 16.221c-3.875 0-7.017-3.228-7.017-7.21 0-3.981 3.142-7.21 7.017-7.21 3.876 0 7.018 3.229 7.018 7.21-.005 3.98-3.144 7.206-7.018 7.21zm90.186-23.432c-14.533 0-26.314 12.105-26.314 27.037 0 14.931 11.781 27.036 26.314 27.036a25.609 25.609 0 004.542-.408l.277-.05c13.361-2.562 22.626-15.158 21.376-29.064s-12.602-24.546-26.195-24.55zm-2.114 52.175h-.062a23.702 23.702 0 01-2.03-.276c-.039-.007-.077-.011-.115-.019-.656-.12-1.306-.27-1.948-.445l-.156-.04a23.977 23.977 0 01-1.858-.603c-.064-.024-.128-.044-.191-.069a23.668 23.668 0 01-1.767-.753c-.072-.033-.144-.065-.216-.1a21.987 21.987 0 01-1.672-.895l-.232-.135a24.62 24.62 0 01-1.579-1.033l-.235-.166c-.506-.37-1-.761-1.481-1.171l-.132-.12v-7.597c.006-5.473 4.322-9.907 9.648-9.914h12.28c5.327.007 9.643 4.441 9.649 9.913v7.6l-.116.1c-.491.42-.994.818-1.511 1.194l-.206.144c-.522.373-1.056.723-1.604 1.052-.068.041-.138.08-.206.12a23.62 23.62 0 01-1.694.907 6.471 6.471 0 01-.199.09c-.585.277-1.178.532-1.782.76-.06.022-.12.042-.175.064-.615.226-1.237.43-1.868.606l-.151.039c-.644.175-1.293.325-1.95.446l-.113.018c-.672.12-1.35.215-2.033.277h-.062c-.702.062-1.404.095-2.114.095-.711 0-1.418-.027-2.119-.089zm19.657-7.494v-5.928c-.007-6.468-5.108-11.709-11.403-11.716h-12.28c-6.294.007-11.395 5.248-11.403 11.716v5.927c-9.447-9.907-9.342-25.79.236-35.564 9.577-9.773 25.037-9.773 34.615 0 9.577 9.774 9.683 25.657.235 35.564z" fill="#F7AEAE"/><path d="M235.72 49.325c-4.844 0-8.771 4.034-8.771 9.011 0 4.978 3.927 9.012 8.771 9.012 4.845 0 8.772-4.034 8.772-9.012-.005-4.975-3.929-9.006-8.772-9.011zm0 16.221c-3.875 0-7.017-3.228-7.017-7.21 0-3.981 3.142-7.21 7.017-7.21 3.876 0 7.017 3.229 7.017 7.21-.004 3.98-3.143 7.206-7.017 7.21zm90.186-23.432c-14.533 0-26.315 12.105-26.315 27.037 0 14.931 11.782 27.036 26.315 27.036.792 0 1.582-.037 2.368-.11a25.63 25.63 0 002.174-.298l.276-.05c13.361-2.562 22.626-15.158 21.376-29.064s-12.602-24.546-26.194-24.55zm-2.115 52.175h-.062a23.702 23.702 0 01-2.03-.276c-.039-.007-.077-.011-.115-.019a23.56 23.56 0 01-1.948-.445l-.156-.04a23.977 23.977 0 01-1.858-.603c-.064-.024-.127-.044-.191-.069a23.847 23.847 0 01-1.767-.753c-.072-.033-.144-.065-.216-.1a22.178 22.178 0 01-1.672-.895l-.232-.135a24.903 24.903 0 01-1.579-1.033c-.078-.056-.157-.11-.234-.166a24.682 24.682 0 01-1.482-1.171l-.132-.12v-7.597c.006-5.473 4.322-9.907 9.648-9.914h12.281c5.326.007 9.642 4.441 9.648 9.913v7.6l-.116.1c-.491.42-.994.818-1.511 1.194-.068.049-.138.096-.206.144-.521.373-1.056.723-1.603 1.052l-.207.12a23.62 23.62 0 01-1.694.907 5.541 5.541 0 01-.199.09c-.585.277-1.178.532-1.782.76-.06.022-.12.042-.175.064-.614.226-1.237.43-1.868.606l-.151.039a23.93 23.93 0 01-1.95.446l-.113.018c-.672.12-1.35.215-2.033.277h-.062c-.702.062-1.404.095-2.114.095-.711 0-1.418-.027-2.119-.089zm19.658-7.494v-5.928c-.008-6.468-5.109-11.709-11.403-11.716h-12.281c-6.294.007-11.395 5.248-11.403 11.716v5.927c-9.447-9.907-9.342-25.79.236-35.564 9.578-9.773 25.037-9.773 34.615 0 9.578 9.774 9.683 25.657.236 35.564z" fill="#F7AEAE"/><path d="M325.906 49.325c-4.844 0-8.771 4.034-8.771 9.011 0 4.978 3.927 9.012 8.771 9.012 4.845 0 8.772-4.034 8.772-9.012-.006-4.975-3.93-9.006-8.772-9.011zm0 16.221c-3.876 0-7.017-3.228-7.017-7.21 0-3.981 3.141-7.21 7.017-7.21 3.876 0 7.017 3.229 7.017 7.21-.004 3.98-3.143 7.206-7.017 7.21z" fill="#F7AEAE"/><path d="M145.315 131.25c-14.533 0-26.315 12.104-26.315 27.036 0 14.931 11.782 27.036 26.315 27.036a25.469 25.469 0 004.542-.408l.276-.051c13.362-2.561 22.626-15.157 21.376-29.063-1.25-13.906-12.602-24.546-26.194-24.55zm-2.114 52.174h-.063a23.742 23.742 0 01-2.03-.276c-.039-.007-.077-.011-.115-.019a23.56 23.56 0 01-1.948-.445l-.156-.041a23.8 23.8 0 01-1.858-.602c-.063-.024-.127-.044-.191-.069a23.84 23.84 0 01-1.767-.753c-.072-.033-.144-.065-.216-.1a22.214 22.214 0 01-1.672-.895l-.232-.135a24.72 24.72 0 01-1.579-1.033c-.078-.056-.157-.11-.234-.166a24.636 24.636 0 01-1.482-1.171l-.132-.119v-7.598c.006-5.473 4.322-9.907 9.649-9.914h12.28c5.326.007 9.642 4.441 9.648 9.914v7.599l-.116.1c-.491.42-.994.818-1.511 1.194l-.206.145c-.521.372-1.056.722-1.603 1.051l-.207.12c-.555.325-1.119.631-1.694.907a5.055 5.055 0 01-.199.09c-.584.277-1.178.532-1.782.76-.059.022-.12.042-.175.064-.614.226-1.237.431-1.868.606l-.151.039a23.93 23.93 0 01-1.95.446l-.113.018c-.672.121-1.35.214-2.033.277h-.062c-.702.062-1.404.095-2.114.095-.711 0-1.418-.027-2.118-.089zm19.657-7.494v-5.928c-.008-6.468-5.109-11.709-11.403-11.716h-12.28c-6.295.007-11.396 5.248-11.403 11.716v5.927c-9.448-9.907-9.342-25.79.235-35.564 9.578-9.773 25.038-9.773 34.615 0 9.578 9.774 9.683 25.657.236 35.564v.001z" fill="#FA7F7F"/><path d="M145.315 138.459c-4.845 0-8.772 4.035-8.772 9.012 0 4.978 3.927 9.013 8.772 9.013 4.844 0 8.771-4.035 8.771-9.013-.005-4.975-3.929-9.007-8.771-9.012zm0 16.222c-3.876 0-7.017-3.228-7.017-7.21 0-3.982 3.141-7.21 7.017-7.21 3.876 0 7.017 3.228 7.017 7.21-.004 3.98-3.144 7.206-7.017 7.21z" fill="#FA7F7F"/><path d="M235.501 131.25c-14.533 0-26.315 12.104-26.315 27.036 0 14.931 11.782 27.036 26.315 27.036a25.469 25.469 0 004.542-.408l.276-.051c13.362-2.561 22.626-15.157 21.376-29.063-1.249-13.906-12.602-24.546-26.194-24.55zm-2.114 52.174h-.062a23.711 23.711 0 01-2.031-.276c-.039-.007-.077-.011-.115-.019a23.56 23.56 0 01-1.948-.445l-.156-.041a23.8 23.8 0 01-1.858-.602c-.063-.024-.127-.044-.191-.069a23.84 23.84 0 01-1.767-.753c-.072-.033-.144-.065-.216-.1a22.214 22.214 0 01-1.672-.895l-.232-.135a24.72 24.72 0 01-1.579-1.033c-.078-.056-.157-.11-.234-.166a24.636 24.636 0 01-1.482-1.171l-.132-.119v-7.598c.006-5.473 4.322-9.907 9.649-9.914h12.28c5.326.007 9.642 4.441 9.649 9.914v7.599l-.117.1c-.49.42-.994.818-1.511 1.194l-.206.145c-.521.372-1.056.722-1.603 1.051l-.207.12c-.555.325-1.119.631-1.694.907a5.055 5.055 0 01-.199.09c-.584.277-1.178.532-1.781.76-.06.022-.121.042-.176.064-.614.226-1.237.431-1.867.606l-.152.039a23.93 23.93 0 01-1.95.446l-.113.018c-.672.121-1.35.214-2.033.277h-.062c-.701.062-1.403.095-2.114.095-.711 0-1.418-.027-2.118-.089zm19.657-7.494v-5.928c-.007-6.468-5.108-11.709-11.403-11.716h-12.28c-6.295.007-11.396 5.248-11.403 11.716v5.927c-9.448-9.907-9.342-25.79.235-35.564 9.578-9.773 25.038-9.773 34.615 0 9.578 9.774 9.683 25.657.236 35.564v.001z" fill="#F7AEAE"/><path d="M235.501 138.459c-4.845 0-8.772 4.035-8.772 9.012 0 4.978 3.927 9.013 8.772 9.013 4.844 0 8.771-4.035 8.771-9.013-.005-4.975-3.929-9.007-8.771-9.012zm0 16.222c-3.876 0-7.018-3.228-7.018-7.21 0-3.982 3.142-7.21 7.018-7.21 3.875 0 7.017 3.228 7.017 7.21-.005 3.98-3.144 7.206-7.017 7.21zm90.185-23.431c-14.533 0-26.315 12.104-26.315 27.036 0 14.931 11.782 27.036 26.315 27.036a25.469 25.469 0 004.542-.408l.276-.051c13.362-2.561 22.626-15.157 21.377-29.063-1.25-13.906-12.603-24.546-26.195-24.55zm-2.114 52.174h-.062a23.711 23.711 0 01-2.031-.276c-.038-.007-.077-.011-.115-.019a23.56 23.56 0 01-1.948-.445l-.155-.041a23.823 23.823 0 01-1.859-.602c-.063-.024-.127-.044-.19-.069-.6-.226-1.188-.479-1.768-.753-.071-.033-.143-.065-.215-.1a21.833 21.833 0 01-1.672-.895l-.233-.135a24.72 24.72 0 01-1.579-1.033l-.234-.166a24.304 24.304 0 01-1.481-1.171l-.133-.119v-7.598c.007-5.473 4.323-9.907 9.649-9.914h12.28c5.326.007 9.642 4.441 9.649 9.914v7.599l-.117.1c-.49.42-.993.818-1.51 1.194l-.206.145a24.69 24.69 0 01-1.604 1.051c-.068.041-.139.08-.207.12-.554.325-1.119.631-1.694.907a5.055 5.055 0 01-.199.09c-.584.277-1.178.532-1.781.76-.06.022-.121.042-.176.064-.614.226-1.237.431-1.867.606l-.151.039a24.05 24.05 0 01-1.951.446l-.113.018c-.672.121-1.35.214-2.033.277h-.062c-.701.062-1.403.095-2.114.095-.71 0-1.418-.027-2.118-.089zm19.657-7.494v-5.928c-.007-6.468-5.108-11.709-11.403-11.716h-12.28c-6.295.007-11.396 5.248-11.403 11.716v5.927c-9.448-9.907-9.342-25.79.235-35.564 9.578-9.773 25.038-9.773 34.615 0 9.578 9.774 9.683 25.657.236 35.564v.001z" fill="#F7AEAE"/><path d="M325.686 138.459c-4.844 0-8.771 4.035-8.771 9.012 0 4.978 3.927 9.013 8.771 9.013 4.845 0 8.772-4.035 8.772-9.013-.005-4.975-3.929-9.007-8.772-9.012zm0 16.222c-3.875 0-7.017-3.228-7.017-7.21 0-3.982 3.142-7.21 7.017-7.21 3.876 0 7.018 3.228 7.018 7.21-.005 3.98-3.144 7.206-7.018 7.21zm-180.371 65.688c-14.533 0-26.315 12.104-26.315 27.036 0 14.931 11.782 27.036 26.315 27.036.792 0 1.582-.037 2.368-.109a25.877 25.877 0 002.174-.3l.276-.05c13.362-2.562 22.626-15.157 21.376-29.063-1.25-13.906-12.602-24.546-26.194-24.55zm-2.114 52.174h-.063a23.742 23.742 0 01-2.03-.276l-.115-.019a23.974 23.974 0 01-1.948-.445l-.156-.041a23.807 23.807 0 01-1.858-.603c-.063-.023-.127-.044-.191-.068a23.85 23.85 0 01-1.767-.754c-.072-.033-.144-.064-.216-.1a21.858 21.858 0 01-1.672-.895l-.232-.134a24.72 24.72 0 01-1.579-1.033c-.078-.056-.157-.11-.234-.166a25.06 25.06 0 01-1.482-1.172l-.132-.119v-7.598c.006-5.472 4.322-9.906 9.649-9.913h12.28c5.326.007 9.642 4.441 9.648 9.913v7.599l-.116.1c-.491.421-.994.819-1.511 1.194-.068.05-.138.097-.206.145-.521.373-1.056.723-1.603 1.052l-.207.12a23.79 23.79 0 01-1.694.907 7.117 7.117 0 01-.199.09c-.584.277-1.178.531-1.782.759-.059.023-.12.043-.175.065-.614.226-1.237.43-1.868.606l-.151.039c-.643.174-1.293.325-1.95.446l-.113.018c-.672.12-1.35.214-2.033.277h-.062c-.702.062-1.404.095-2.114.095-.711 0-1.418-.027-2.118-.089zm19.657-7.495v-5.928c-.008-6.467-5.109-11.708-11.403-11.715h-12.28c-6.295.007-11.396 5.248-11.403 11.715v5.928c-9.448-9.907-9.342-25.79.235-35.564 9.578-9.773 25.038-9.773 34.615 0 9.578 9.774 9.683 25.657.236 35.564z" fill="#F7AEAE"/><path d="M145.315 227.578c-4.845 0-8.772 4.035-8.772 9.012s3.927 9.012 8.772 9.012c4.844 0 8.771-4.035 8.771-9.012-.005-4.975-3.929-9.007-8.771-9.012zm0 16.222c-3.876 0-7.017-3.228-7.017-7.21 0-3.982 3.141-7.209 7.017-7.209 3.876 0 7.017 3.227 7.017 7.209-.004 3.98-3.144 7.205-7.017 7.21zm90.186-23.431c-14.533 0-26.315 12.104-26.315 27.036 0 14.931 11.782 27.036 26.315 27.036.793 0 1.582-.037 2.368-.109a25.877 25.877 0 002.174-.3l.276-.05c13.362-2.562 22.626-15.157 21.376-29.063-1.249-13.906-12.602-24.546-26.194-24.55zm-2.114 52.174h-.062a23.711 23.711 0 01-2.031-.276l-.115-.019a23.974 23.974 0 01-1.948-.445l-.156-.041a23.807 23.807 0 01-1.858-.603c-.063-.023-.127-.044-.191-.068a23.85 23.85 0 01-1.767-.754c-.072-.033-.144-.064-.216-.1a21.858 21.858 0 01-1.672-.895l-.232-.134a24.72 24.72 0 01-1.579-1.033c-.078-.056-.157-.11-.234-.166a25.06 25.06 0 01-1.482-1.172l-.132-.119v-7.598c.006-5.472 4.322-9.906 9.649-9.913h12.28c5.326.007 9.642 4.441 9.649 9.913v7.599l-.117.1c-.49.421-.994.819-1.511 1.194-.068.05-.138.097-.206.145-.521.373-1.056.723-1.603 1.052l-.207.12a23.79 23.79 0 01-1.694.907 7.117 7.117 0 01-.199.09c-.584.277-1.178.531-1.781.759-.06.023-.121.043-.176.065-.614.226-1.237.43-1.867.606l-.152.039c-.643.174-1.293.325-1.95.446l-.113.018c-.672.12-1.35.214-2.033.277h-.062c-.701.062-1.403.095-2.114.095-.711 0-1.418-.027-2.118-.089zm19.657-7.495v-5.928c-.007-6.467-5.108-11.708-11.403-11.715h-12.28c-6.295.007-11.396 5.248-11.403 11.715v5.928c-9.448-9.907-9.342-25.79.235-35.564 9.578-9.773 25.038-9.773 34.615 0 9.578 9.774 9.683 25.657.236 35.564z" fill="#F7AEAE"/><path d="M235.501 227.578c-4.845 0-8.772 4.035-8.772 9.012s3.927 9.012 8.772 9.012c4.844 0 8.771-4.035 8.771-9.012-.005-4.975-3.929-9.007-8.771-9.012zm0 16.222c-3.876 0-7.018-3.228-7.018-7.21 0-3.982 3.142-7.209 7.018-7.209 3.875 0 7.017 3.227 7.017 7.209-.005 3.98-3.144 7.205-7.017 7.21zm90.185-23.431c-14.533 0-26.315 12.104-26.315 27.036 0 14.931 11.782 27.036 26.315 27.036.793 0 1.582-.037 2.368-.109a25.877 25.877 0 002.174-.3l.276-.05c13.362-2.562 22.626-15.157 21.377-29.063-1.25-13.906-12.603-24.546-26.195-24.55zm-2.114 52.174h-.062a23.711 23.711 0 01-2.031-.276l-.115-.019a23.974 23.974 0 01-1.948-.445l-.155-.041a23.83 23.83 0 01-1.859-.603c-.063-.023-.127-.044-.19-.068-.6-.226-1.188-.48-1.768-.754-.071-.033-.143-.064-.215-.1a21.489 21.489 0 01-1.672-.895l-.233-.134a24.72 24.72 0 01-1.579-1.033l-.234-.166a24.717 24.717 0 01-1.481-1.172l-.133-.119v-7.598c.007-5.472 4.323-9.906 9.649-9.913h12.28c5.326.007 9.642 4.441 9.649 9.913v7.599l-.117.1c-.49.421-.993.819-1.51 1.194-.069.05-.138.097-.206.145-.522.373-1.057.723-1.604 1.052-.068.041-.139.08-.207.12-.554.324-1.119.631-1.694.907a7.117 7.117 0 01-.199.09c-.584.277-1.178.531-1.781.759-.06.023-.121.043-.176.065-.614.226-1.237.43-1.867.606l-.151.039c-.644.174-1.294.325-1.951.446l-.113.018c-.672.12-1.35.214-2.033.277h-.062c-.701.062-1.403.095-2.114.095-.71 0-1.418-.027-2.118-.089zm19.657-7.495v-5.928c-.007-6.467-5.108-11.708-11.403-11.715h-12.28c-6.295.007-11.396 5.248-11.403 11.715v5.928c-9.448-9.907-9.342-25.79.235-35.564 9.578-9.773 25.038-9.773 34.615 0 9.578 9.774 9.683 25.657.236 35.564z" fill="#F7AEAE"/><path d="M325.686 227.578c-4.844 0-8.771 4.035-8.771 9.012s3.927 9.012 8.771 9.012c4.845 0 8.772-4.035 8.772-9.012-.005-4.975-3.929-9.007-8.772-9.012zm0 16.222c-3.875 0-7.017-3.228-7.017-7.21 0-3.982 3.142-7.209 7.017-7.209 3.876 0 7.018 3.227 7.018 7.209-.005 3.98-3.144 7.205-7.018 7.21zm-180.371 69.692c-14.533 0-26.315 12.105-26.315 27.037 0 14.931 11.782 27.036 26.315 27.036.792 0 1.582-.037 2.368-.109a25.877 25.877 0 002.174-.3l.276-.05c13.362-2.562 22.626-15.157 21.376-29.063-1.25-13.906-12.602-24.546-26.194-24.551zm-2.114 52.175h-.063a23.742 23.742 0 01-2.03-.276l-.115-.019a23.974 23.974 0 01-1.948-.445l-.156-.041a23.807 23.807 0 01-1.858-.603c-.063-.023-.127-.044-.191-.068a23.85 23.85 0 01-1.767-.754c-.072-.033-.144-.064-.216-.1a21.858 21.858 0 01-1.672-.895l-.232-.134a24.72 24.72 0 01-1.579-1.033l-.234-.166a25.06 25.06 0 01-1.482-1.172l-.132-.119v-7.598c.006-5.472 4.322-9.906 9.649-9.913h12.28c5.326.007 9.642 4.441 9.648 9.913v7.599l-.116.1c-.491.421-.994.819-1.511 1.194-.068.05-.138.097-.206.145-.521.373-1.056.723-1.603 1.052l-.207.12a23.79 23.79 0 01-1.694.907 7.117 7.117 0 01-.199.09c-.584.277-1.178.531-1.782.759-.059.023-.12.043-.175.065-.614.226-1.237.43-1.868.606l-.151.039c-.643.174-1.293.325-1.95.446l-.113.018c-.672.12-1.35.214-2.033.277h-.062c-.702.062-1.404.095-2.114.095-.711 0-1.418-.027-2.118-.089zm19.657-7.495v-5.928c-.008-6.467-5.109-11.708-11.403-11.715h-12.28c-6.295.007-11.396 5.248-11.403 11.715v5.928c-9.448-9.907-9.342-25.79.235-35.564 9.578-9.773 25.038-9.773 34.615 0 9.578 9.774 9.683 25.657.236 35.564z" fill="#F7AEAE"/><path d="M145.315 320.702c-4.845 0-8.772 4.035-8.772 9.012s3.927 9.012 8.772 9.012c4.844 0 8.771-4.035 8.771-9.012-.005-4.975-3.929-9.007-8.771-9.012zm0 16.222c-3.876 0-7.017-3.228-7.017-7.21 0-3.982 3.141-7.209 7.017-7.209 3.876 0 7.017 3.227 7.017 7.209-.004 3.98-3.144 7.205-7.017 7.21zm90.186-23.432c-14.533 0-26.315 12.105-26.315 27.037 0 14.931 11.782 27.036 26.315 27.036.793 0 1.582-.037 2.368-.109a25.877 25.877 0 002.174-.3l.276-.05c13.362-2.562 22.626-15.157 21.376-29.063-1.249-13.906-12.602-24.546-26.194-24.551zm-2.114 52.175h-.062a23.711 23.711 0 01-2.031-.276l-.115-.019a23.974 23.974 0 01-1.948-.445l-.156-.041a23.807 23.807 0 01-1.858-.603c-.063-.023-.127-.044-.191-.068a23.85 23.85 0 01-1.767-.754c-.072-.033-.144-.064-.216-.1a21.858 21.858 0 01-1.672-.895l-.232-.134a24.72 24.72 0 01-1.579-1.033l-.234-.166a25.06 25.06 0 01-1.482-1.172l-.132-.119v-7.598c.006-5.472 4.322-9.906 9.649-9.913h12.28c5.326.007 9.642 4.441 9.649 9.913v7.599l-.117.1c-.49.421-.994.819-1.511 1.194-.068.05-.138.097-.206.145-.521.373-1.056.723-1.603 1.052l-.207.12a23.79 23.79 0 01-1.694.907 7.117 7.117 0 01-.199.09c-.584.277-1.178.531-1.781.759-.06.023-.121.043-.176.065-.614.226-1.237.43-1.867.606l-.152.039c-.643.174-1.293.325-1.95.446l-.113.018c-.672.12-1.35.214-2.033.277h-.062c-.701.062-1.403.095-2.114.095-.711 0-1.418-.027-2.118-.089zm19.657-7.495v-5.928c-.007-6.467-5.108-11.708-11.403-11.715h-12.28c-6.295.007-11.396 5.248-11.403 11.715v5.928c-9.448-9.907-9.342-25.79.235-35.564 9.578-9.773 25.038-9.773 34.615 0 9.578 9.774 9.683 25.657.236 35.564z" fill="#F7AEAE"/><path d="M235.501 320.702c-4.845 0-8.772 4.035-8.772 9.012s3.927 9.012 8.772 9.012c4.844 0 8.771-4.035 8.771-9.012-.005-4.975-3.929-9.007-8.771-9.012zm0 16.222c-3.876 0-7.018-3.228-7.018-7.21 0-3.982 3.142-7.209 7.018-7.209 3.875 0 7.017 3.227 7.017 7.209-.005 3.98-3.144 7.205-7.017 7.21zm90.185-23.432c-14.533 0-26.315 12.105-26.315 27.037 0 14.931 11.782 27.036 26.315 27.036.793 0 1.582-.037 2.368-.109a25.877 25.877 0 002.174-.3l.276-.05c13.362-2.562 22.626-15.157 21.377-29.063-1.25-13.906-12.603-24.546-26.195-24.551zm-2.114 52.175h-.062a23.711 23.711 0 01-2.031-.276l-.115-.019a23.974 23.974 0 01-1.948-.445l-.155-.041a23.83 23.83 0 01-1.859-.603c-.063-.023-.127-.044-.19-.068-.6-.226-1.188-.48-1.768-.754-.071-.033-.143-.064-.215-.1a21.489 21.489 0 01-1.672-.895l-.233-.134a24.72 24.72 0 01-1.579-1.033l-.234-.166a24.717 24.717 0 01-1.481-1.172l-.133-.119v-7.598c.007-5.472 4.323-9.906 9.649-9.913h12.28c5.326.007 9.642 4.441 9.649 9.913v7.599l-.117.1c-.49.421-.993.819-1.51 1.194-.069.05-.138.097-.206.145-.522.373-1.057.723-1.604 1.052-.068.041-.139.08-.207.12-.554.324-1.119.631-1.694.907a7.117 7.117 0 01-.199.09c-.584.277-1.178.531-1.781.759-.06.023-.121.043-.176.065-.614.226-1.237.43-1.867.606l-.151.039c-.644.174-1.294.325-1.951.446l-.113.018c-.672.12-1.35.214-2.033.277h-.062c-.701.062-1.403.095-2.114.095-.71 0-1.418-.027-2.118-.089zm19.657-7.495v-5.928c-.007-6.467-5.108-11.708-11.403-11.715h-12.28c-6.295.007-11.396 5.248-11.403 11.715v5.928c-9.448-9.907-9.342-25.79.235-35.564 9.578-9.773 25.038-9.773 34.615 0 9.578 9.774 9.683 25.657.236 35.564z" fill="#F7AEAE"/><path d="M325.686 320.702c-4.844 0-8.771 4.035-8.771 9.012s3.927 9.012 8.771 9.012c4.845 0 8.772-4.035 8.772-9.012-.005-4.975-3.929-9.007-8.772-9.012zm0 16.222c-3.875 0-7.017-3.228-7.017-7.21 0-3.982 3.142-7.209 7.017-7.209 3.876 0 7.018 3.227 7.018 7.209-.005 3.98-3.144 7.205-7.018 7.21zM55.35 132.69c-14.534 0-26.315 12.105-26.315 27.036 0 14.932 11.781 27.036 26.314 27.036a25.465 25.465 0 004.542-.408l.277-.05c13.361-2.562 22.626-15.157 21.376-29.063-1.25-13.906-12.602-24.546-26.195-24.551zm-2.115 52.175h-.062a23.75 23.75 0 01-2.03-.276l-.115-.019a23.955 23.955 0 01-1.948-.445l-.156-.041a24.262 24.262 0 01-1.858-.603c-.064-.023-.128-.044-.19-.068-.6-.226-1.189-.48-1.768-.754-.072-.033-.144-.065-.216-.1a21.692 21.692 0 01-1.672-.895l-.232-.134a24.655 24.655 0 01-1.58-1.034l-.233-.166a24.636 24.636 0 01-1.482-1.171l-.132-.119v-7.598c.006-5.472 4.322-9.907 9.648-9.913h12.28c5.327.006 9.643 4.441 9.65 9.913v7.599l-.117.1c-.49.421-.994.818-1.511 1.194-.069.05-.138.097-.206.145-.522.372-1.056.723-1.604 1.052-.068.041-.138.079-.206.12-.555.324-1.12.63-1.694.906-.066.032-.133.061-.2.091-.584.276-1.177.531-1.78.759-.06.023-.121.043-.176.064-.614.226-1.237.431-1.868.607l-.15.038c-.645.175-1.294.326-1.951.447l-.114.018c-.671.12-1.35.214-2.032.276h-.062a23.955 23.955 0 01-4.233.007zm19.657-7.495v-5.928c-.007-6.467-5.108-11.708-11.402-11.716H49.21c-6.295.008-11.396 5.249-11.404 11.716v5.927c-9.447-9.906-9.342-25.789.236-35.563 9.578-9.773 25.037-9.773 34.615 0 9.578 9.774 9.683 25.657.236 35.563v.001z" fill="#F7AEAE"/><path d="M55.349 139.9c-4.844 0-8.771 4.035-8.771 9.012s3.927 9.012 8.771 9.012c4.845 0 8.772-4.035 8.772-9.012-.006-4.975-3.93-9.007-8.772-9.012zm0 16.221c-3.876 0-7.017-3.227-7.017-7.209 0-3.982 3.141-7.209 7.017-7.209 3.876 0 7.017 3.227 7.017 7.209-.004 3.98-3.143 7.205-7.017 7.209zm.001 67.145c-14.534 0-26.315 12.104-26.315 27.036 0 14.931 11.781 27.036 26.314 27.036.793 0 1.583-.037 2.369-.109a26.29 26.29 0 002.173-.299l.277-.051c13.361-2.562 22.626-15.157 21.376-29.063-1.25-13.906-12.602-24.546-26.195-24.55zm-2.115 52.174h-.062a23.75 23.75 0 01-2.03-.276c-.039-.007-.077-.011-.115-.019-.656-.12-1.306-.27-1.948-.445l-.156-.041a23.823 23.823 0 01-1.858-.602c-.064-.024-.128-.044-.19-.069-.6-.226-1.189-.479-1.768-.753-.072-.033-.144-.065-.216-.1a22.406 22.406 0 01-1.672-.895l-.232-.135a24.64 24.64 0 01-1.58-1.033l-.233-.166a24.259 24.259 0 01-1.482-1.172l-.132-.118v-7.599c.006-5.472 4.322-9.906 9.648-9.913h12.28c5.327.007 9.643 4.441 9.65 9.913v7.6l-.117.099c-.49.421-.994.819-1.511 1.195l-.206.144c-.522.373-1.056.723-1.604 1.052-.068.041-.138.08-.206.12-.555.325-1.12.631-1.694.907a7.262 7.262 0 01-.2.09c-.584.277-1.177.532-1.78.759-.06.023-.121.043-.176.065a24.02 24.02 0 01-1.868.606l-.15.039c-.645.175-1.294.325-1.951.446l-.114.018a23.79 23.79 0 01-2.032.277h-.062a24.07 24.07 0 01-4.233.006zm19.657-7.494v-5.929c-.007-6.467-5.108-11.708-11.402-11.715H49.21c-6.295.007-11.396 5.248-11.404 11.715v5.928c-9.447-9.907-9.342-25.79.236-35.564 9.578-9.773 25.037-9.773 34.615 0 9.578 9.774 9.683 25.657.236 35.564v.001z" fill="#F7AEAE"/><path d="M55.349 230.475c-4.844 0-8.771 4.035-8.771 9.012 0 4.978 3.927 9.012 8.771 9.012 4.845 0 8.772-4.034 8.772-9.012-.006-4.975-3.93-9.006-8.772-9.012zm0 16.222c-3.876 0-7.017-3.228-7.017-7.21 0-3.982 3.141-7.209 7.017-7.209 3.876 0 7.017 3.227 7.017 7.209-.004 3.98-3.143 7.205-7.017 7.21zm.001 67.145c-14.534 0-26.315 12.104-26.315 27.036 0 14.931 11.781 27.036 26.314 27.036a25.601 25.601 0 004.543-.409l.276-.05c13.361-2.562 22.626-15.157 21.376-29.063-1.25-13.906-12.602-24.546-26.195-24.55zm-2.115 52.174h-.062a23.75 23.75 0 01-2.03-.276l-.115-.019a23.955 23.955 0 01-1.948-.445l-.156-.041a23.83 23.83 0 01-1.858-.603c-.064-.023-.128-.044-.19-.068-.6-.226-1.189-.48-1.768-.754-.072-.033-.144-.064-.216-.1a21.692 21.692 0 01-1.672-.895l-.232-.134a24.234 24.234 0 01-1.58-1.034l-.233-.165a25.06 25.06 0 01-1.482-1.172l-.132-.119v-7.598c.006-5.472 4.322-9.906 9.648-9.913h12.28c5.327.007 9.643 4.441 9.65 9.913v7.599l-.117.1c-.49.421-.994.819-1.511 1.194-.069.05-.138.097-.206.145-.522.372-1.056.723-1.604 1.052-.068.041-.138.079-.206.12a23.59 23.59 0 01-1.694.906 5.153 5.153 0 01-.2.091c-.584.276-1.177.531-1.78.759-.06.023-.121.043-.176.064-.614.227-1.237.431-1.868.607l-.15.038c-.645.175-1.294.326-1.951.447l-.114.018c-.671.12-1.35.214-2.032.277h-.062a24.07 24.07 0 01-4.233.006zm19.657-7.495v-5.928c-.007-6.467-5.108-11.708-11.402-11.715H49.21c-6.295.007-11.396 5.248-11.404 11.715v5.927c-9.447-9.906-9.342-25.789.236-35.563 9.578-9.773 25.037-9.773 34.615 0 9.578 9.774 9.683 25.657.236 35.563v.001z" fill="#F7AEAE"/><path d="M55.349 321.051c-4.844 0-8.771 4.035-8.771 9.012s3.927 9.012 8.771 9.012c4.845 0 8.772-4.035 8.772-9.012-.006-4.975-3.93-9.007-8.772-9.012zm0 16.222c-3.876 0-7.017-3.228-7.017-7.21 0-3.982 3.141-7.21 7.017-7.21 3.876 0 7.017 3.228 7.017 7.21-.004 3.98-3.143 7.205-7.017 7.21z" fill="#F7AEAE"/></svg>