<svg viewBox="0 0 214 46" fill="none" xmlns="http://www.w3.org/2000/svg"><path d="M203.553 40.38a2.148 2.148 0 01-.7-1.056.938.938 0 01.489-1.08 1.362 1.362 0 011.293.455 1.71 1.71 0 001.256.607 1.92 1.92 0 01-.591-1.793.75.75 0 01.164-.362c.249-.272.701-.155.999.055.943.675 1.212 1.962 1.218 3.121.053-.426.06-.857.02-1.285a1.32 1.32 0 01.482-1.138 1.44 1.44 0 01.735-.173 1.516 1.516 0 011.193.34 1.186 1.186 0 01-.049 1.465 4.656 4.656 0 01-1.234.99c-.354.212-.655.5-.882.844a.91.91 0 00-.067.15h-2.673a7.5 7.5 0 01-1.653-1.14zm-56.846.84a1.579 1.579 0 01-.515-.78.692.692 0 01.361-.795 1.008 1.008 0 01.953.335 1.28 1.28 0 00.927.448 1.43 1.43 0 01-.392-.605 1.43 1.43 0 01-.044-.72.58.58 0 01.121-.266c.185-.197.518-.112.738.045.701.493.896 1.445.901 2.302.038-.313.042-.63.013-.943a.98.98 0 01.355-.839c.165-.089.351-.133.538-.128a1.12 1.12 0 01.881.25.869.869 0 01-.035 1.08 3.498 3.498 0 01-.912.729 2.016 2.016 0 00-.651.623.759.759 0 00-.049.11h-1.972a5.482 5.482 0 01-1.218-.845v-.002zm-11.601 3.338a1.57 1.57 0 01-.516-.78.688.688 0 01.361-.794 1.009 1.009 0 01.953.335 1.271 1.271 0 00.928.448 1.41 1.41 0 01-.437-1.326.548.548 0 01.122-.265c.184-.197.517-.112.738.044.7.494.895 1.445.9 2.303.038-.313.042-.63.013-.944a.969.969 0 01.355-.838c.165-.09.351-.134.539-.128a1.12 1.12 0 01.88.25.87.87 0 01-.035 1.08 3.51 3.51 0 01-.911.728 1.996 1.996 0 00-.652.624.505.505 0 00-.049.11h-1.972a5.52 5.52 0 01-1.218-.845l.001-.002z" fill="#00A09C"/><path opacity=".1" d="M168.931 38.33c22.492 0 40.725-1.155 40.725-2.58 0-1.426-18.233-2.582-40.725-2.582-22.491 0-40.724 1.156-40.724 2.581 0 1.426 18.233 2.582 40.724 2.582z" fill="#1C201F"/><path d="M129.249 30.558c-.932-9.889 15.028-13.963 17.119.319l42.213 1.277c.742-13.984 17.122-13.593 17.758-.424 2.11.58 4.31.76 6.486.53.692-3.894.868-7.281-.638-9.05-.205-4.855-4.94-7.313-11.807-8.63l-9.466-2.34c-7.208-5.76-14.159-9.007-20.945-10.653-11.457-1.128-22.815-.54-34.132.746l-.317 1.598c-2.233 3.976-6.619 7.444-6.7 11.925l.328 2.883c-1.641 1.38-2.482 3.376-2.562 5.963-.045 3.113.658 5.296 2.663 5.856z" fill="#00BAB9"/><path opacity=".5" d="M176.411 4.977c4.148 3.053 13.664 7.17 12.442 9.159l-46.366-2.664c-1.589-2.35-1.602-5.05.639-8.252 12.939-1.325 24.454-1.179 33.285 1.757z" fill="#fff"/><path d="M143.126 3.22c-2.241 3.203-2.228 5.902-.639 8.252h.008c-1.346-2.261-1.24-4.846.87-7.878 12.874-1.327 24.326-1.175 33.107 1.753 3.764 2.786 11.974 6.455 12.462 8.588.538-2.054-8.512-6.006-12.523-8.96-8.831-2.933-20.346-3.08-33.285-1.755z" fill="#003A39"/><path d="M162.732 2.706l-3.437-.134.737 9.485 4.519.265-1.819-9.616zm20.143 11.083l5.975.344a.785.785 0 00.087-.197c-.282-1.226-3.116-2.966-6.187-4.742.233.72.38 1.463.439 2.216a5.826 5.826 0 01-.314 2.379z" fill="#003A39"/><path opacity=".5" d="M130.648 10.759c-1.036 1.601-1.792 3.268-1.825 5.106l.323 2.874s3.612-3.753 3.879-4.1c.266-.346-.081-1.171-.212-1.677a5.186 5.186 0 00-2.165-2.203zm72.502 6.063c.193.187 4.943 3.828 5.423 4.205.48.377.582.318 1.542.745a9.851 9.851 0 012.072 1.44 6.777 6.777 0 00-2.946-5.32c-1.573-.425-3.018-.796-3.326-.857-.687-.134-2.952-.4-2.765-.213zm8.187 12.322c.644 0 1.171-.73 1.171-1.618 0-.888-.527-1.625-1.171-1.625-.643 0-1.17.73-1.17 1.625s.526 1.618 1.17 1.618z" fill="#fff"/><path d="M205.755 31.78l.106 1.949c.919.18 1.854.27 2.791.27 1.195-.05 3.935-.319 4.094-.852.097-.283.124-.584.08-.88a17.496 17.496 0 01-6.489-.53l-.582.043z" fill="#383435"/><path d="M166.692 15.703a1.222 1.222 0 001.2-1.465 1.225 1.225 0 00-1.67-.892 1.226 1.226 0 00.47 2.357z" fill="#167C77"/><path d="M164.039 13.936l4.481.216a.436.436 0 01.411.432v.094a.379.379 0 01-.12.286.384.384 0 01-.291.108l-4.481-.217a.44.44 0 01-.411-.433v-.093a.394.394 0 01.255-.37.388.388 0 01.156-.023zm-19.353.525A1.22 1.22 0 00145.885 13a1.222 1.222 0 10-2.064 1.104 1.232 1.232 0 00.865.358z" fill="#167C77"/><path d="M142.094 12.693l4.479.216a.436.436 0 01.412.433v.093a.389.389 0 01-.412.392l-4.479-.215a.436.436 0 01-.413-.432v-.082a.394.394 0 01.413-.405z" fill="#167C77"/><path d="M137.73 37.33a7.226 7.226 0 006.677-4.474 7.25 7.25 0 00-1.571-7.889 7.228 7.228 0 00-7.88-1.568 7.242 7.242 0 00-3.912 9.461 7.228 7.228 0 006.686 4.47z" fill="#0A706B"/><path d="M137.73 35.69a5.602 5.602 0 001.093-11.091 5.586 5.586 0 00-5.741 2.379 5.608 5.608 0 00.693 7.07 5.593 5.593 0 003.955 1.641z" fill="#00BAB9"/><path d="M137.73 35.094a5 5 0 004.901-5.979 5.006 5.006 0 00-3.925-3.932 4.992 4.992 0 00-5.13 2.125 5.006 5.006 0 004.154 7.786z" fill="#00BAB9"/><path d="M137.73 22.85c1.917 0 3.757.763 5.113 2.121a7.246 7.246 0 012.098 5.65l1.429.26c-2.093-14.285-18.046-10.211-17.121-.321 0 0 .556-.096 1.255-.22v-.248a7.241 7.241 0 012.115-5.119 7.229 7.229 0 015.111-2.123z" fill="#003A39"/><path d="M197.542 37.33a7.065 7.065 0 003.928-1.193 7.084 7.084 0 00-2.549-12.831 7.061 7.061 0 00-7.258 3.01 7.087 7.087 0 00.879 8.94 7.067 7.067 0 005 2.075z" fill="#0A706B"/><path d="M197.542 35.848a5.587 5.587 0 005.165-3.456 5.604 5.604 0 00-4.076-7.633 5.584 5.584 0 00-5.739 2.38 5.606 5.606 0 00.696 7.07 5.58 5.58 0 003.954 1.64z" fill="#00BAB9"/><path d="M197.542 35.144a4.884 4.884 0 004.516-3.02 4.897 4.897 0 00-3.562-6.674 4.881 4.881 0 00-5.018 2.08 4.9 4.9 0 002.193 7.242 4.884 4.884 0 001.871.372z" fill="#00BAB9"/><path d="M206.339 31.728c-.632-13.112-16.879-13.552-17.748.254l2.205.399a7.09 7.09 0 01.955-6.195 7.074 7.074 0 015.491-3.01 7.069 7.069 0 017.173 5.41 7.096 7.096 0 01.027 3.218l1.346.674-.037-.697.588-.053z" fill="#003A39"/><path d="M162.291 12.675s.799 4.023 1.012 5.732c.212 1.708.907 11.338.907 11.338l-.347.053s-.573-8.361-.76-10.175c-.187-1.813-1.17-6.97-1.17-6.97l.358.022z" fill="#167C77"/><path d="M150.768 29.928l20.655.08.559-.265-23.048-.08 1.834.265z" fill="#167C77"/><path opacity=".5" d="M190.511 19.15c.704 0 1.276-.228 1.276-.506 0-.277-.572-.506-1.276-.506-.703 0-1.276.228-1.276.506 0 .28.573.506 1.276.506z" fill="#fff"/><path d="M188.582 32.155l-42.214-1.277s-.277 1.418-.077 1.955c.201.536 37.711 1.078 40.792.943 3.081-.135 1.499-1.621 1.499-1.621z" fill="#003A39"/><path d="M139.164 25.282v.182l-1.43 4.734-1.143-4.988a5.017 5.017 0 012.573.072zm-.01 9.618a5.007 5.007 0 01-2.516.085l1.098-4.787 1.418 4.701z" fill="#0A706B"/><path d="M142.727 30.088a5.011 5.011 0 01-.238 1.537h-.025l-4.728-1.427 4.888-1.124c.068.334.103.674.103 1.014zm-4.991.111l-4.728 1.43h-.037a5.079 5.079 0 01-.133-2.563l4.898 1.133zm61.24-4.869v.183l-1.424 4.732-1.145-4.988a5.007 5.007 0 012.569.074zm-.011 9.611a5.016 5.016 0 01-2.515.088l1.103-4.783 1.412 4.695zm3.57-4.804a5.01 5.01 0 01-.239 1.537h-.024l-4.719-1.429 4.889-1.123c.065.334.096.675.093 1.015z" fill="#0A706B"/><path d="M197.553 30.245l-4.727 1.43h-.037a5.07 5.07 0 01-.133-2.562l4.897 1.133z" fill="#0A706B"/><path d="M197.547 31.118a.87.87 0 100-1.738.87.87 0 000 1.738zm-59.811 0a.868.868 0 100-1.736.868.868 0 000 1.736z" fill="#04443F"/><path fill="#777" d="M.625 33.934h97.53v1H.625z"/></svg>