<svg width="876" height="420" fill="none" xmlns="http://www.w3.org/2000/svg"><path fill="#EDEDED" d="M24.509 24.21h851.205v394.844H24.509z"/><path fill="#F7F7F7" stroke="#000" d="M.5.5h850.205v393.844H.5z"/><path opacity=".07" fill="#000" d="M130 49.632h1v257.896h-1zm169 0h1v241.361h-1zm200 0h1v257.896h-1zm182 0h1v257.896h-1z"/><path d="M75.139 244.586c10.654-7.336 36.941-21.746 56.852-20.698 24.889 1.31 56.066 9.694 73.882 13.886 17.815 4.192 37.227 6.359 50.559 2.665 15.658-4.339 29.636-13.045 41.896-26.874 4.683-5.282 42.71-66.934 78.886-66.934 30.632 0 52.113 26.773 78.409 73.627 21.036 37.483 39.228 41.954 51.438 41.954 9.857-1.249 27.203-5.14 42.881-33.301 13.591-24.414 48.828-53.862 84.82-21.394 28.794 25.975 64.791 16.191 79.19 8.052 37.095-19.425 62.793-49.08 86.048-76.986" stroke="#1D74FF" stroke-dasharray="7 7"/><path fill="#fff" stroke="#000" stroke-width=".75" d="M89.378 116.852h58.407v23.112H89.378z"/><path fill="#fff" stroke="#000" stroke-width=".75" d="M94.431 112.875h58.407v23.112H94.431zM468.27 329.62h58.407v23.112H468.27z"/><path fill="#fff" stroke="#000" stroke-width=".75" d="M473.322 325.643h58.407v23.112h-58.407zm114.049-182.708h58.407v23.112h-58.407z"/><path fill="#fff" stroke="#000" stroke-width=".75" d="M592.423 138.958h58.407v23.112h-58.407zM223.152 305.243h58.407v23.112h-58.407z"/><path fill="#fff" stroke="#000" stroke-width=".75" d="M228.205 301.266h58.407v23.112h-58.407zM361.768 89.013h58.407v23.112h-58.407z"/><path fill="#fff" stroke="#000" stroke-width=".75" d="M366.82 85.036h58.407v23.112H366.82zm376.07 160.153h58.407v23.112H742.89z"/><path fill="#fff" stroke="#000" stroke-width=".75" d="M747.943 241.212h58.407v23.112h-58.407z"/><path d="M768.891 255.946c-.513 0-.975-.117-1.386-.352a2.594 2.594 0 01-.979-.99c-.235-.433-.352-.939-.352-1.518 0-.579.121-1.082.363-1.507.242-.433.568-.766.979-1.001a2.802 2.802 0 011.397-.352c.513 0 .975.117 1.386.352.411.235.733.568.968 1.001.242.425.363.928.363 1.507 0 .579-.121 1.085-.363 1.518a2.573 2.573 0 01-.99.99 2.742 2.742 0 01-1.386.352zm0-.792c.315 0 .609-.077.88-.231.271-.154.491-.385.66-.693.169-.308.253-.689.253-1.144 0-.455-.084-.836-.253-1.144a1.653 1.653 0 00-.649-.693 1.732 1.732 0 00-.869-.231c-.315 0-.609.077-.88.231a1.727 1.727 0 00-.66.693c-.169.308-.253.689-.253 1.144 0 .455.084.836.253 1.144.169.308.385.539.649.693.271.154.561.231.869.231zm5.36.66l-1.595-5.456h.924l1.155 4.279 1.276-4.279h1.045l1.287 4.279 1.144-4.279h.935l-1.595 5.456h-.946l-1.342-4.499-1.342 4.499h-.946zm7.633 0v-5.456h.836l.055.979a1.98 1.98 0 01.759-.814c.33-.198.704-.297 1.122-.297.645 0 1.158.198 1.54.594.388.389.583.99.583 1.804v3.19h-.924v-3.091c0-1.137-.47-1.705-1.408-1.705-.47 0-.862.172-1.177.517-.308.337-.462.821-.462 1.452v2.827h-.924zm-166.225-107.71v5.456h-.836l-.055-.979a1.98 1.98 0 01-.759.814c-.33.198-.704.297-1.122.297-.645 0-1.162-.194-1.551-.583-.381-.396-.572-1.001-.572-1.815v-3.19h.924v3.091c0 1.137.469 1.705 1.408 1.705a1.51 1.51 0 001.166-.506c.315-.344.473-.832.473-1.463v-2.827h.924zm4.051 5.588c-.653 0-1.195-.165-1.628-.495-.433-.33-.686-.777-.759-1.342h.946c.059.286.209.536.451.748.249.206.583.308 1.001.308.389 0 .675-.08.858-.242a.782.782 0 00.275-.594c0-.33-.121-.55-.363-.66-.235-.11-.568-.209-1.001-.297a5.6 5.6 0 01-.88-.253 2.04 2.04 0 01-.737-.462c-.198-.205-.297-.473-.297-.803 0-.476.176-.865.528-1.166.359-.308.843-.462 1.452-.462.579 0 1.052.147 1.419.44.374.286.59.697.649 1.232h-.913a.928.928 0 00-.363-.649c-.198-.161-.466-.242-.803-.242-.33 0-.587.07-.77.209a.669.669 0 00-.264.55c0 .22.114.393.341.517.235.125.55.231.946.319.337.074.656.165.957.275.308.103.557.261.748.473.198.206.297.506.297.902a1.5 1.5 0 01-.561 1.221c-.374.316-.884.473-1.529.473zm6.303 0a2.7 2.7 0 01-1.386-.352 2.618 2.618 0 01-.957-1.001c-.227-.425-.341-.927-.341-1.507 0-.572.114-1.07.341-1.496.227-.432.543-.766.946-1.001.411-.242.884-.363 1.419-.363.528 0 .983.121 1.364.363.389.235.686.547.891.935a2.65 2.65 0 01.297 1.496v.275h-4.345c.022.418.117.767.286 1.045.176.272.392.477.649.616.264.14.543.209.836.209.381 0 .7-.088.957-.264.257-.176.444-.414.561-.715h.913a2.48 2.48 0 01-.847 1.265c-.411.33-.939.495-1.584.495zm0-4.939c-.44 0-.832.136-1.177.407-.337.264-.532.653-.583 1.166h3.432c-.022-.491-.191-.876-.506-1.155-.315-.278-.704-.418-1.166-.418zm-249.747-48.029c-.521 0-.99-.117-1.408-.352a2.67 2.67 0 01-.979-1c-.235-.433-.352-.936-.352-1.508s.117-1.07.352-1.496c.242-.432.568-.766.979-1a2.758 2.758 0 011.408-.364c.645 0 1.188.17 1.628.506a2.2 2.2 0 01.847 1.353h-.946a1.192 1.192 0 00-.539-.78 1.763 1.763 0 00-1.001-.287c-.308 0-.598.077-.869.231a1.727 1.727 0 00-.66.693c-.169.308-.253.69-.253 1.144 0 .455.084.836.253 1.144.169.308.389.543.66.704.271.154.561.231.869.231a1.81 1.81 0 001.001-.275c.286-.19.466-.458.539-.803h.946c-.11.55-.389.998-.836 1.342-.447.345-.994.517-1.639.517zm6.692 0c-.514 0-.976-.117-1.386-.352a2.584 2.584 0 01-.979-.99c-.235-.432-.352-.938-.352-1.518 0-.579.121-1.081.363-1.507.242-.432.568-.766.979-1a2.802 2.802 0 011.397-.353c.513 0 .975.118 1.386.352.41.235.733.569.968 1.001.242.426.363.928.363 1.507 0 .58-.121 1.086-.363 1.518a2.563 2.563 0 01-.99.99 2.742 2.742 0 01-1.386.352zm0-.792c.315 0 .608-.077.88-.23.271-.155.491-.386.66-.694.168-.308.253-.689.253-1.144 0-.454-.085-.836-.253-1.144a1.659 1.659 0 00-.649-.693 1.734 1.734 0 00-.869-.23 1.714 1.714 0 00-1.54.924c-.169.307-.253.689-.253 1.143 0 .455.084.836.253 1.144.168.308.385.54.649.693.271.154.561.231.869.231zm4.463.66v-5.456h.836l.066.792a1.85 1.85 0 01.704-.682c.294-.16.624-.242.99-.242.433 0 .803.088 1.111.264.316.176.558.444.726.803.191-.33.451-.59.781-.78a2.18 2.18 0 011.089-.287c.653 0 1.174.198 1.562.594.389.39.583.99.583 1.804v3.19h-.913v-3.09c0-.565-.113-.99-.341-1.277-.227-.286-.553-.429-.979-.429-.44 0-.806.173-1.1.517-.286.338-.429.822-.429 1.452v2.827h-.924v-3.09c0-.565-.113-.99-.341-1.277-.227-.286-.553-.429-.979-.429-.432 0-.795.173-1.089.517-.286.338-.429.822-.429 1.452v2.827h-.924zm10.28 2.42v-7.876h.836l.088.902c.176-.264.425-.502.748-.715.33-.212.748-.319 1.254-.319.543 0 1.016.125 1.419.374.403.25.715.59.935 1.023.227.433.341.924.341 1.474 0 .55-.114 1.042-.341 1.474-.22.426-.535.763-.946 1.012-.403.242-.876.363-1.419.363a2.55 2.55 0 01-1.199-.275 1.905 1.905 0 01-.792-.77v3.333h-.924zm2.816-3.09c.367 0 .689-.085.968-.254.279-.176.499-.418.66-.726.161-.308.242-.667.242-1.078 0-.41-.081-.77-.242-1.078a1.775 1.775 0 00-.66-.715 1.774 1.774 0 00-.968-.264c-.367 0-.689.088-.968.264a1.775 1.775 0 00-.66.715 2.295 2.295 0 00-.242 1.078c0 .411.081.77.242 1.078.161.308.381.55.66.726.279.17.601.253.968.253zm6.346.802c-.454 0-.832-.077-1.133-.231a1.576 1.576 0 01-.671-.616 1.663 1.663 0 01-.22-.836c0-.557.213-.986.638-1.287.426-.3 1.005-.45 1.738-.45h1.474v-.067c0-.476-.124-.836-.374-1.078-.249-.249-.583-.374-1.001-.374-.359 0-.671.092-.935.275-.256.176-.418.437-.484.781h-.946c.037-.396.169-.73.396-1a2.25 2.25 0 01.869-.617c.345-.146.712-.22 1.1-.22.763 0 1.335.206 1.716.616.389.404.583.943.583 1.617v3.355h-.825l-.055-.979a2.187 2.187 0 01-.682.792c-.293.213-.689.319-1.188.319zm.143-.78c.352 0 .653-.092.902-.276a1.73 1.73 0 00.583-.715c.132-.293.198-.6.198-.924v-.01h-1.397c-.542 0-.927.095-1.155.285a.864.864 0 00-.33.693.87.87 0 00.308.693c.213.17.51.253.891.253zm4.434.648v-5.456h.836l.077 1.045c.168-.359.425-.645.77-.858.344-.212.77-.319 1.276-.319v.968h-.253c-.323 0-.62.06-.891.176a1.32 1.32 0 00-.649.572c-.162.272-.242.646-.242 1.122v2.75h-.924zm6.685.132a2.7 2.7 0 01-1.386-.352 2.607 2.607 0 01-.957-1c-.228-.426-.341-.928-.341-1.508 0-.572.113-1.07.341-1.496.227-.432.542-.766.946-1 .41-.243.883-.364 1.419-.364.528 0 .982.121 1.364.363.388.235.685.547.891.935a2.649 2.649 0 01.297 1.496v.275h-4.345c.022.418.117.767.286 1.045.176.272.392.477.649.616.264.14.542.21.836.21.381 0 .7-.089.957-.265.256-.176.443-.414.561-.715h.913a2.479 2.479 0 01-.847 1.265c-.411.33-.939.495-1.584.495zm0-4.939c-.44 0-.833.136-1.177.407-.338.264-.532.653-.583 1.166h3.432c-.022-.49-.191-.876-.506-1.155-.316-.278-.704-.418-1.166-.418zM243.573 315.953c-.455 0-.832-.077-1.133-.231a1.568 1.568 0 01-.671-.616 1.65 1.65 0 01-.22-.836c0-.557.213-.986.638-1.287.425-.3 1.005-.451 1.738-.451h1.474v-.066c0-.476-.125-.836-.374-1.078-.249-.249-.583-.374-1.001-.374-.359 0-.671.092-.935.275-.257.176-.418.437-.484.781h-.946c.037-.396.169-.729.396-1.001a2.25 2.25 0 01.869-.616c.345-.146.711-.22 1.1-.22.763 0 1.335.206 1.716.616.389.404.583.943.583 1.617v3.355h-.825l-.055-.979a2.188 2.188 0 01-.682.792c-.293.213-.689.319-1.188.319zm.143-.781c.352 0 .653-.091.902-.275a1.73 1.73 0 00.583-.715c.132-.293.198-.601.198-.924v-.011h-1.397c-.543 0-.928.096-1.155.286a.866.866 0 00-.33.693.87.87 0 00.308.693c.213.169.51.253.891.253zm5.426.649l-1.595-5.456h.924l1.155 4.279 1.276-4.279h1.045l1.287 4.279 1.144-4.279h.935l-1.595 5.456h-.946l-1.342-4.499-1.342 4.499h-.946zm9.254.132c-.454 0-.832-.077-1.133-.231a1.574 1.574 0 01-.671-.616 1.66 1.66 0 01-.22-.836c0-.557.213-.986.638-1.287.426-.3 1.005-.451 1.738-.451h1.474v-.066c0-.476-.124-.836-.374-1.078-.249-.249-.583-.374-1.001-.374-.359 0-.671.092-.935.275-.256.176-.418.437-.484.781h-.946c.037-.396.169-.729.396-1.001.235-.271.525-.476.869-.616.345-.146.712-.22 1.1-.22.763 0 1.335.206 1.716.616.389.404.583.943.583 1.617v3.355h-.825l-.055-.979a2.188 2.188 0 01-.682.792c-.293.213-.689.319-1.188.319zm.143-.781c.352 0 .653-.091.902-.275a1.73 1.73 0 00.583-.715c.132-.293.198-.601.198-.924v-.011h-1.397c-.542 0-.927.096-1.155.286a.866.866 0 00-.33.693.87.87 0 00.308.693c.213.169.51.253.891.253zm4.434.649v-5.456h.836l.077 1.045c.168-.359.425-.645.77-.858.344-.212.77-.319 1.276-.319v.968h-.253c-.323 0-.62.059-.891.176a1.32 1.32 0 00-.649.572c-.162.272-.242.646-.242 1.122v2.75h-.924zm6.685.132a2.7 2.7 0 01-1.386-.352 2.604 2.604 0 01-.957-1.001c-.228-.425-.341-.927-.341-1.507 0-.572.113-1.07.341-1.496.227-.432.542-.766.946-1.001.41-.242.883-.363 1.419-.363.528 0 .982.121 1.364.363.388.235.685.547.891.935a2.65 2.65 0 01.297 1.496v.275h-4.345c.022.418.117.767.286 1.045.176.272.392.477.649.616.264.14.542.209.836.209.381 0 .7-.088.957-.264.256-.176.443-.414.561-.715h.913a2.48 2.48 0 01-.847 1.265c-.411.33-.939.495-1.584.495zm0-4.939c-.44 0-.833.136-1.177.407-.338.264-.532.653-.583 1.166h3.432c-.022-.491-.191-.876-.506-1.155-.316-.278-.704-.418-1.166-.418zm220.101 30.162v-5.456h.836l.077 1.045a1.97 1.97 0 01.77-.858c.345-.213.77-.319 1.276-.319v.968h-.253c-.323 0-.62.058-.891.176-.271.11-.488.3-.649.572-.161.271-.242.645-.242 1.122v2.75h-.924zm6.685.132a2.71 2.71 0 01-1.386-.352 2.625 2.625 0 01-.957-1.001c-.227-.426-.341-.928-.341-1.507 0-.572.114-1.071.341-1.496.227-.433.543-.767.946-1.001.411-.242.884-.363 1.419-.363.528 0 .983.121 1.364.363.389.234.686.546.891.935a2.644 2.644 0 01.297 1.496v.275h-4.345c.022.418.117.766.286 1.045.176.271.392.476.649.616.264.139.543.209.836.209.381 0 .7-.088.957-.264a1.51 1.51 0 00.561-.715h.913a2.484 2.484 0 01-.847 1.265c-.411.33-.939.495-1.584.495zm0-4.939c-.44 0-.832.135-1.177.407-.337.264-.532.652-.583 1.166h3.432c-.022-.492-.191-.877-.506-1.155-.315-.279-.704-.418-1.166-.418zm4.25 4.807v-5.456h.836l.055.979a1.98 1.98 0 01.759-.814c.33-.198.704-.297 1.122-.297.645 0 1.158.198 1.54.594.388.388.583.99.583 1.804v3.19h-.924v-3.091c0-1.137-.47-1.705-1.408-1.705-.47 0-.862.172-1.177.517-.308.337-.462.821-.462 1.452v2.827h-.924zm8.891 0c-.499 0-.891-.121-1.177-.363-.286-.242-.429-.679-.429-1.309v-3.003h-.946v-.781h.946l.121-1.309h.803v1.309h1.606v.781h-1.606v3.003c0 .344.069.579.209.704.139.117.385.176.737.176h.572v.792h-.836zM104.346 127.609c-.52 0-.982-.117-1.386-.352a2.625 2.625 0 01-.957-1.001c-.227-.425-.341-.928-.341-1.507 0-.572.114-1.071.341-1.496.228-.433.543-.766.946-1.001.411-.242.884-.363 1.419-.363.528 0 .983.121 1.364.363.389.235.686.546.891.935a2.639 2.639 0 01.297 1.496v.275h-4.345c.022.418.118.766.286 1.045.176.271.393.477.649.616.264.139.543.209.836.209.382 0 .701-.088.957-.264.257-.176.444-.414.561-.715h.913a2.474 2.474 0 01-.847 1.265c-.41.33-.938.495-1.584.495zm0-4.939c-.44 0-.832.136-1.177.407-.337.264-.531.653-.583 1.166h3.432c-.022-.491-.19-.876-.506-1.155-.315-.279-.704-.418-1.166-.418zm3.442 4.807l1.892-2.728-1.892-2.728h1.001l1.529 2.255 1.54-2.255h.99l-1.892 2.728 1.892 2.728h-.99l-1.54-2.255-1.529 2.255h-1.001zm6.469 2.42v-7.876h.836l.088.902c.176-.264.425-.502.748-.715.33-.213.748-.319 1.254-.319.542 0 1.015.125 1.419.374.403.249.715.59.935 1.023.227.433.341.924.341 1.474 0 .55-.114 1.041-.341 1.474-.22.425-.536.763-.946 1.012-.404.242-.877.363-1.419.363a2.56 2.56 0 01-1.199-.275 1.904 1.904 0 01-.792-.77v3.333h-.924zm2.816-3.091c.366 0 .689-.084.968-.253a1.87 1.87 0 00.66-.726c.161-.308.242-.667.242-1.078 0-.411-.081-.77-.242-1.078a1.791 1.791 0 00-1.628-.979c-.367 0-.69.088-.968.264a1.777 1.777 0 00-.66.715c-.162.308-.242.667-.242 1.078 0 .411.08.77.242 1.078.161.308.381.55.66.726.278.169.601.253.968.253zm4.531.671v-7.92h.924v7.92h-.924zm5.364.132c-.513 0-.975-.117-1.386-.352a2.6 2.6 0 01-.979-.99c-.234-.433-.352-.939-.352-1.518 0-.579.121-1.082.363-1.507.242-.433.569-.766.979-1.001a2.802 2.802 0 011.397-.352c.514 0 .976.117 1.386.352.411.235.734.568.968 1.001.242.425.363.928.363 1.507 0 .579-.121 1.085-.363 1.518a2.573 2.573 0 01-.99.99c-.41.235-.872.352-1.386.352zm0-.792a1.714 1.714 0 001.54-.924c.169-.308.253-.689.253-1.144 0-.455-.084-.836-.253-1.144a1.647 1.647 0 00-.649-.693 1.732 1.732 0 00-.869-.231c-.315 0-.608.077-.88.231a1.727 1.727 0 00-.66.693c-.168.308-.253.689-.253 1.144 0 .455.085.836.253 1.144.169.308.385.539.649.693.272.154.561.231.869.231zm4.464.66v-5.456h.836l.077 1.045c.169-.359.426-.645.77-.858.345-.213.77-.319 1.276-.319v.968h-.253c-.322 0-.619.059-.891.176a1.33 1.33 0 00-.649.572c-.161.271-.242.645-.242 1.122v2.75h-.924zm6.685.132c-.52 0-.982-.117-1.386-.352a2.625 2.625 0 01-.957-1.001c-.227-.425-.341-.928-.341-1.507 0-.572.114-1.071.341-1.496.228-.433.543-.766.946-1.001.411-.242.884-.363 1.419-.363.528 0 .983.121 1.364.363.389.235.686.546.891.935a2.639 2.639 0 01.297 1.496v.275h-4.345c.022.418.118.766.286 1.045.176.271.393.477.649.616.264.139.543.209.836.209.382 0 .701-.088.957-.264.257-.176.444-.414.561-.715h.913a2.474 2.474 0 01-.847 1.265c-.41.33-.938.495-1.584.495zm0-4.939c-.44 0-.832.136-1.177.407-.337.264-.531.653-.583 1.166h3.432c-.022-.491-.19-.876-.506-1.155-.315-.279-.704-.418-1.166-.418z" fill="#797979"/></svg>