<svg viewBox="0 0 169 73" fill="none" xmlns="http://www.w3.org/2000/svg"><rect x=".31" y="7.977" width="164.041" height="65.014" rx="4" fill="#EDEDED"/><rect x="5.104" y="1.477" width="163.041" height="64.014" rx="3.5" fill="#fff" stroke="#01B9B8"/><path d="M25.956 39.483v-12.6h4.068c.984 0 1.788.162 2.412.486.624.324 1.086.768 1.386 1.332.3.564.45 1.188.45 1.872 0 .792-.216 1.506-.648 2.142-.42.636-1.08 1.086-1.98 1.35l2.754 5.418h-1.782l-2.556-5.202h-2.592v5.202h-1.512zm1.512-6.39h2.448c.972 0 1.68-.234 2.124-.702.444-.468.666-1.068.666-1.8 0-.744-.222-1.332-.666-1.764-.432-.444-1.146-.666-2.142-.666h-2.43v4.932zM40.545 39.7c-.852 0-1.608-.193-2.268-.577a4.284 4.284 0 01-1.566-1.638c-.372-.696-.558-1.518-.558-2.466 0-.936.186-1.752.558-2.448a4 4 0 011.548-1.638c.672-.396 1.446-.594 2.322-.594.864 0 1.608.198 2.232.594a3.88 3.88 0 011.458 1.53 4.327 4.327 0 01.486 2.448v.45h-7.11c.036.684.192 1.254.468 1.71.288.444.642.78 1.062 1.008a2.89 2.89 0 001.368.342c.624 0 1.146-.144 1.566-.432.42-.288.726-.678.918-1.17h1.494a4.057 4.057 0 01-1.386 2.07c-.672.54-1.536.81-2.592.81zm0-8.083a3.03 3.03 0 00-1.926.666c-.552.432-.87 1.068-.954 1.908h5.616c-.036-.804-.312-1.434-.828-1.89-.516-.456-1.152-.684-1.908-.684zm6.775 7.866v-8.928h1.367l.09 1.602a3.242 3.242 0 011.242-1.332c.54-.324 1.152-.486 1.836-.486 1.056 0 1.896.324 2.52.972.636.636.954 1.62.954 2.952v5.22h-1.512v-5.058c0-1.86-.768-2.79-2.304-2.79-.768 0-1.41.282-1.926.846-.504.552-.756 1.344-.756 2.376v4.626H47.32zm14.368 0c-.816 0-1.458-.198-1.926-.594-.468-.396-.702-1.11-.702-2.142v-4.914h-1.548v-1.278h1.548l.198-2.142h1.314v2.142H63.2v1.278h-2.628v4.914c0 .564.114.948.342 1.152.228.192.63.288 1.206.288h.936v1.296h-1.368zm12.805 0c-.816 0-1.459-.198-1.926-.594-.468-.396-.702-1.11-.702-2.142v-4.914h-1.548v-1.278h1.548l.198-2.142h1.313v2.142h2.628v1.278h-2.628v4.914c0 .564.114.948.343 1.152.228.192.63.288 1.206.288h.936v1.296h-1.368zm3.972 0v-12.96h1.512v5.562c.3-.552.726-.978 1.278-1.278a3.597 3.597 0 011.8-.468c1.032 0 1.86.324 2.484.972.624.636.936 1.62.936 2.952v5.22h-1.494v-5.058c0-1.86-.75-2.79-2.25-2.79a2.58 2.58 0 00-1.962.846c-.528.552-.792 1.344-.792 2.376v4.626h-1.512zm14.855.217c-.852 0-1.608-.193-2.268-.577a4.284 4.284 0 01-1.566-1.638c-.372-.696-.558-1.518-.558-2.466 0-.936.186-1.752.558-2.448a4 4 0 011.548-1.638c.672-.396 1.446-.594 2.322-.594.864 0 1.608.198 2.232.594a3.88 3.88 0 011.458 1.53 4.327 4.327 0 01.486 2.448v.45h-7.11c.036.684.192 1.254.468 1.71.288.444.642.78 1.062 1.008a2.89 2.89 0 001.368.342c.624 0 1.146-.144 1.566-.432.42-.288.726-.678.918-1.17h1.494a4.057 4.057 0 01-1.386 2.07c-.672.54-1.536.81-2.592.81zm0-8.083a3.03 3.03 0 00-1.926.666c-.552.432-.87 1.068-.954 1.908h5.616c-.036-.804-.312-1.434-.828-1.89-.516-.456-1.152-.684-1.908-.684zm6.774 7.866v-8.928h1.368l.09 1.602a3.242 3.242 0 011.242-1.332c.54-.324 1.152-.486 1.836-.486 1.056 0 1.896.324 2.52.972.636.636.954 1.62.954 2.952v5.22h-1.512v-5.058c0-1.86-.768-2.79-2.304-2.79-.768 0-1.41.282-1.926.846-.504.552-.756 1.344-.756 2.376v4.626h-1.512zm20.915.217c-.732 0-1.386-.15-1.962-.45-.564-.3-.996-.72-1.296-1.26l-.144 1.493h-1.368v-12.96h1.512v5.508c.288-.432.696-.822 1.224-1.17.54-.348 1.224-.522 2.052-.522.888 0 1.662.204 2.322.612.66.408 1.17.966 1.53 1.674.372.708.558 1.512.558 2.412 0 .9-.186 1.704-.558 2.412a4.114 4.114 0 01-1.548 1.656c-.66.396-1.434.594-2.322.594zm-.162-1.315c.6 0 1.128-.138 1.584-.414a3.043 3.043 0 001.08-1.188c.264-.504.396-1.092.396-1.764 0-.672-.132-1.26-.396-1.764a2.912 2.912 0 00-1.08-1.17c-.456-.288-.984-.432-1.584-.432-.6 0-1.128.144-1.584.432a2.912 2.912 0 00-1.08 1.17c-.264.504-.396 1.092-.396 1.764 0 .672.132 1.26.396 1.764s.624.9 1.08 1.188c.456.276.984.414 1.584.414zm15.046-7.83v8.928h-1.368l-.09-1.602a3.242 3.242 0 01-1.242 1.332c-.54.324-1.152.486-1.836.486-1.056 0-1.902-.318-2.538-.954-.624-.648-.936-1.638-.936-2.97v-5.22h1.512v5.058c0 1.86.768 2.79 2.304 2.79.768 0 1.404-.276 1.908-.828.516-.564.774-1.362.774-2.394v-4.626h1.512zm4.001 12.888l2.214-4.824h-.522l-3.546-8.064h1.638l2.952 6.948 3.132-6.948h1.566l-5.85 12.888h-1.584z" fill="#01B9B8"/></svg>