<svg viewBox="0 0 386 385" fill="none" xmlns="http://www.w3.org/2000/svg"><path fill="#9FD6FF" stroke="#000" d="M1.054.5h383.989v383.989H1.054z"/><path d="M30.213 49.367h329.996V244.48H30.213V49.367z" stroke="#6AA4FF"/><path d="M55.81 77.957h149.286V218.89H55.809V77.957z" stroke="#6AA4FF"/><path d="M229.223 89.457v-10.5h3.45c.82 0 1.495.135 2.025.405.53.27.92.635 1.17 1.095.26.46.39.98.39 1.56 0 .57-.125 1.085-.375 1.545-.25.46-.64.83-1.17 1.11-.53.27-1.21.405-2.04.405h-2.19v4.38h-1.26zm1.26-5.445h2.16c.84 0 1.435-.175 1.785-.525.36-.36.54-.85.54-1.47 0-.63-.18-1.12-.54-1.47-.35-.36-.945-.54-1.785-.54h-2.16v4.005zm7.352 5.445v-10.8h1.26v10.8h-1.26zm5.8.18c-.62 0-1.135-.105-1.545-.315-.41-.21-.715-.49-.915-.84-.2-.35-.3-.73-.3-1.14 0-.76.29-1.345.87-1.755.58-.41 1.37-.615 2.37-.615h2.01v-.09c0-.65-.17-1.14-.51-1.47-.34-.34-.795-.51-1.365-.51-.49 0-.915.125-1.275.375-.35.24-.57.595-.66 1.065h-1.29c.05-.54.23-.995.54-1.365.32-.37.715-.65 1.185-.84.47-.2.97-.3 1.5-.3 1.04 0 1.82.28 2.34.84.53.55.795 1.285.795 2.205v4.575h-1.125l-.075-1.335c-.21.42-.52.78-.93 1.08-.4.29-.94.435-1.62.435zm.195-1.065c.48 0 .89-.125 1.23-.375.35-.25.615-.575.795-.975.18-.4.27-.82.27-1.26v-.015h-1.905c-.74 0-1.265.13-1.575.39-.3.25-.45.565-.45.945 0 .39.14.705.42.945.29.23.695.345 1.215.345zm5.445.885v-7.44h1.14l.075 1.335c.24-.47.585-.84 1.035-1.11.45-.27.96-.405 1.53-.405.88 0 1.58.27 2.1.81.53.53.795 1.35.795 2.46v4.35h-1.26v-4.215c0-1.55-.64-2.325-1.92-2.325-.64 0-1.175.235-1.605.705-.42.46-.63 1.12-.63 1.98v3.855h-1.26zm8.584 0v-7.44h1.14l.075 1.335c.24-.47.585-.84 1.035-1.11.45-.27.96-.405 1.53-.405.88 0 1.58.27 2.1.81.53.53.795 1.35.795 2.46v4.35h-1.26v-4.215c0-1.55-.64-2.325-1.92-2.325-.64 0-1.175.235-1.605.705-.42.46-.63 1.12-.63 1.98v3.855h-1.26zm9.349-9.09c-.25 0-.46-.08-.63-.24a.884.884 0 01-.24-.63c0-.24.08-.44.24-.6.17-.16.38-.24.63-.24.24 0 .445.08.615.24.17.16.255.36.255.6 0 .25-.085.46-.255.63a.865.865 0 01-.615.24zm-.63 9.09v-7.44h1.26v7.44h-1.26zm3.454 0v-7.44h1.14l.075 1.335c.24-.47.585-.84 1.035-1.11.45-.27.96-.405 1.53-.405.88 0 1.58.27 2.1.81.53.53.795 1.35.795 2.46v4.35h-1.26v-4.215c0-1.55-.64-2.325-1.92-2.325-.64 0-1.175.235-1.605.705-.42.46-.63 1.12-.63 1.98v3.855h-1.26zm11.524-2.34c-.42 0-.805-.055-1.155-.165l-.75.705c.11.08.245.15.405.21.17.05.41.1.72.15.31.04.745.085 1.305.135 1 .07 1.715.3 2.145.69.43.39.645.9.645 1.53 0 .43-.12.84-.36 1.23-.23.39-.59.71-1.08.96-.48.25-1.1.375-1.86.375-.67 0-1.265-.09-1.785-.27-.52-.17-.925-.435-1.215-.795-.29-.35-.435-.795-.435-1.335 0-.28.075-.585.225-.915.15-.32.43-.625.84-.915-.22-.09-.41-.185-.57-.285-.15-.11-.29-.23-.42-.36v-.345l1.275-1.26c-.59-.5-.885-1.16-.885-1.98 0-.49.115-.935.345-1.335.23-.4.565-.715 1.005-.945.44-.24.975-.36 1.605-.36.43 0 .82.06 1.17.18h2.745v.945l-1.395.06c.29.42.435.905.435 1.455 0 .49-.12.935-.36 1.335-.23.4-.565.72-1.005.96-.43.23-.96.345-1.59.345zm0-1.035c.53 0 .95-.135 1.26-.405.32-.28.48-.68.48-1.2 0-.51-.16-.9-.48-1.17-.31-.28-.73-.42-1.26-.42-.54 0-.97.14-1.29.42-.31.27-.465.66-.465 1.17 0 .52.155.92.465 1.2.32.27.75.405 1.29.405zm-2.19 4.335c0 .5.21.87.63 1.11.42.25.945.375 1.575.375.62 0 1.115-.135 1.485-.405.38-.27.57-.63.57-1.08 0-.32-.13-.6-.39-.84-.26-.23-.74-.365-1.44-.405a19.12 19.12 0 01-1.425-.15c-.41.22-.68.455-.81.705-.13.26-.195.49-.195.69zm14.436-.96c-.68 0-1.215-.165-1.605-.495-.39-.33-.585-.925-.585-1.785v-4.095h-1.29v-1.065h1.29l.165-1.785h1.095v1.785h2.19v1.065h-2.19v4.095c0 .47.095.79.285.96.19.16.525.24 1.005.24h.78v1.08h-1.14zm6.046.18c-.7 0-1.33-.16-1.89-.48a3.534 3.534 0 01-1.335-1.35c-.32-.59-.48-1.28-.48-2.07 0-.79.165-1.475.495-2.055.33-.59.775-1.045 1.335-1.365.57-.32 1.205-.48 1.905-.48s1.33.16 1.89.48c.56.32 1 .775 1.32 1.365.33.58.495 1.265.495 2.055 0 .79-.165 1.48-.495 2.07-.33.58-.78 1.03-1.35 1.35-.56.32-1.19.48-1.89.48zm0-1.08c.43 0 .83-.105 1.2-.315.37-.21.67-.525.9-.945.23-.42.345-.94.345-1.56 0-.62-.115-1.14-.345-1.56a2.254 2.254 0 00-.885-.945 2.363 2.363 0 00-1.185-.315c-.43 0-.83.105-1.2.315-.37.21-.67.525-.9.945-.23.42-.345.94-.345 1.56 0 .62.115 1.14.345 1.56.23.42.525.735.885.945.37.21.765.315 1.185.315zm13.431 1.08c-.61 0-1.155-.125-1.635-.375-.47-.25-.83-.6-1.08-1.05l-.12 1.245h-1.14v-10.8h1.26v4.59c.24-.36.58-.685 1.02-.975.45-.29 1.02-.435 1.71-.435.74 0 1.385.17 1.935.51.55.34.975.805 1.275 1.395.31.59.465 1.26.465 2.01 0 .75-.155 1.42-.465 2.01-.3.58-.73 1.04-1.29 1.38-.55.33-1.195.495-1.935.495zm-.135-1.095c.5 0 .94-.115 1.32-.345.38-.24.68-.57.9-.99.22-.42.33-.91.33-1.47 0-.56-.11-1.05-.33-1.47-.22-.42-.52-.745-.9-.975-.38-.24-.82-.36-1.32-.36-.5 0-.94.12-1.32.36-.38.23-.68.555-.9.975-.22.42-.33.91-.33 1.47 0 .56.11 1.05.33 1.47.22.42.52.75.9.99.38.23.82.345 1.32.345zm12.089-6.525v7.44h-1.14l-.075-1.335c-.24.47-.585.84-1.035 1.11-.45.27-.96.405-1.53.405-.88 0-1.585-.265-2.115-.795-.52-.54-.78-1.365-.78-2.475v-4.35h1.26v4.215c0 1.55.64 2.325 1.92 2.325.64 0 1.17-.23 1.59-.69.43-.47.645-1.135.645-1.995v-3.855h1.26zm2.884 10.74l1.845-4.02h-.435l-2.955-6.72h1.365l2.46 5.79 2.61-5.79h1.305l-4.875 10.74h-1.32zm-96.494 16.88c-.62 0-1.135-.105-1.545-.315-.41-.21-.715-.49-.915-.84-.2-.35-.3-.73-.3-1.14 0-.76.29-1.345.87-1.755.58-.41 1.37-.615 2.37-.615h2.01v-.09c0-.65-.17-1.14-.51-1.47-.34-.34-.795-.51-1.365-.51-.49 0-.915.125-1.275.375-.35.24-.57.595-.66 1.065h-1.29c.05-.54.23-.995.54-1.365.32-.37.715-.65 1.185-.84.47-.2.97-.3 1.5-.3 1.04 0 1.82.28 2.34.84.53.55.795 1.285.795 2.205v4.575h-1.125l-.075-1.335c-.21.42-.52.78-.93 1.08-.4.29-.94.435-1.62.435zm.195-1.065c.48 0 .89-.125 1.23-.375.35-.25.615-.575.795-.975.18-.4.27-.82.27-1.26v-.015h-1.905c-.74 0-1.265.13-1.575.39-.3.25-.45.565-.45.945 0 .39.14.705.42.945.29.23.695.345 1.215.345zm12.835 1.065c-.71 0-1.35-.16-1.92-.48a3.645 3.645 0 01-1.335-1.365c-.32-.59-.48-1.275-.48-2.055 0-.78.16-1.46.48-2.04.33-.59.775-1.045 1.335-1.365.57-.33 1.21-.495 1.92-.495.88 0 1.62.23 2.22.69.61.46.995 1.075 1.155 1.845h-1.29c-.1-.46-.345-.815-.735-1.065-.39-.26-.845-.39-1.365-.39-.42 0-.815.105-1.185.315-.37.21-.67.525-.9.945-.23.42-.345.94-.345 1.56 0 .62.115 1.14.345 1.56.23.42.53.74.9.96.37.21.765.315 1.185.315.52 0 .975-.125 1.365-.375.39-.26.635-.625.735-1.095h1.29c-.15.75-.53 1.36-1.14 1.83-.61.47-1.355.705-2.235.705zm7.61 0c-.62 0-1.135-.105-1.545-.315-.41-.21-.715-.49-.915-.84-.2-.35-.3-.73-.3-1.14 0-.76.29-1.345.87-1.755.58-.41 1.37-.615 2.37-.615h2.01v-.09c0-.65-.17-1.14-.51-1.47-.34-.34-.795-.51-1.365-.51-.49 0-.915.125-1.275.375-.35.24-.57.595-.66 1.065h-1.29c.05-.54.23-.995.54-1.365.32-.37.715-.65 1.185-.84.47-.2.97-.3 1.5-.3 1.04 0 1.82.28 2.34.84.53.55.795 1.285.795 2.205v4.575h-1.125l-.075-1.335c-.21.42-.52.78-.93 1.08-.4.29-.94.435-1.62.435zm.195-1.065c.48 0 .89-.125 1.23-.375.35-.25.615-.575.795-.975.18-.4.27-.82.27-1.26v-.015h-1.905c-.74 0-1.265.13-1.575.39-.3.25-.45.565-.45.945 0 .39.14.705.42.945.29.23.695.345 1.215.345zm5.445.885v-7.44h1.14l.105 1.425c.23-.49.58-.88 1.05-1.17.47-.29 1.05-.435 1.74-.435v1.32h-.345c-.44 0-.845.08-1.215.24-.37.15-.665.41-.885.78-.22.37-.33.88-.33 1.53v3.75h-1.26zm10.649-2.94l-.06-2.415h.465c.56 0 1.08-.055 1.56-.165.49-.11.885-.325 1.185-.645.3-.32.45-.8.45-1.44 0-.62-.195-1.11-.585-1.47-.38-.36-.885-.54-1.515-.54-.64 0-1.145.175-1.515.525-.37.35-.555.82-.555 1.41h-1.2c0-.6.135-1.125.405-1.575.28-.45.665-.8 1.155-1.05s1.06-.375 1.71-.375c.65 0 1.225.125 1.725.375s.89.605 1.17 1.065c.28.46.42 1.005.42 1.635 0 .74-.16 1.34-.48 1.8-.31.46-.745.795-1.305 1.005-.55.21-1.18.315-1.89.315l-.045 1.545h-1.095zm.54 3.015c-.25 0-.46-.08-.63-.24a.865.865 0 01-.24-.615c0-.24.08-.44.24-.6.17-.17.38-.255.63-.255s.455.085.615.255c.16.16.24.36.24.6s-.08.445-.24.615a.833.833 0 01-.615.24zm-40.771 84.88h58.348v18.195h-58.348zm.384-57.988v-5.6h1.808c.437 0 .795.072 1.072.216.277.144.483.341.616.592.133.25.2.528.2.832 0 .352-.096.669-.288.952-.187.282-.48.482-.88.6l1.224 2.408h-.792l-1.136-2.312h-1.152v2.312h-.672zm.672-2.84h1.088c.432 0 .747-.104.944-.312.197-.208.296-.475.296-.8 0-.331-.099-.592-.296-.784-.192-.198-.509-.296-.952-.296h-1.08v2.192zm5.572 2.936c-.379 0-.715-.086-1.008-.256a1.911 1.911 0 01-.696-.728c-.165-.31-.248-.675-.248-1.096 0-.416.083-.779.248-1.088.165-.315.395-.558.688-.728a1.996 1.996 0 011.032-.264c.384 0 .715.088.992.264.283.17.499.397.648.68a1.923 1.923 0 01.216 1.088v.2h-3.16c.016.304.085.557.208.76.128.197.285.346.472.448.192.101.395.152.608.152.277 0 .509-.064.696-.192.187-.128.323-.302.408-.52h.664a1.808 1.808 0 01-.616.92c-.299.24-.683.36-1.152.36zm0-3.592c-.32 0-.605.098-.856.296-.245.192-.387.474-.424.848h2.496c-.016-.358-.139-.638-.368-.84a1.232 1.232 0 00-.848-.304zm3.758 3.496l-1.504-3.968h.704l1.192 3.32 1.2-3.32h.688l-1.504 3.968h-.776zm4.172 0l-1.504-3.968h.704l1.192 3.32 1.2-3.32h.688l-1.504 3.968h-.776zm7.641.096c-.549 0-1.024-.12-1.424-.36a2.507 2.507 0 01-.92-1.016c-.218-.438-.328-.944-.328-1.52 0-.571.11-1.072.328-1.504.219-.438.526-.779.92-1.024.4-.246.875-.368 1.424-.368.64 0 1.16.154 1.56.464.406.304.664.73.776 1.28h-.744a1.461 1.461 0 00-.528-.832c-.261-.214-.616-.32-1.064-.32-.4 0-.749.093-1.048.28-.298.181-.53.445-.696.792-.16.341-.24.752-.24 1.232s.08.893.24 1.24c.166.341.398.605.696.792.299.181.648.272 1.048.272.448 0 .803-.102 1.064-.304.267-.208.443-.483.528-.824h.744c-.112.538-.37.96-.776 1.264-.4.304-.92.456-1.56.456zm4.582 0c-.33 0-.605-.056-.824-.168a1.152 1.152 0 01-.488-.448 1.214 1.214 0 01-.16-.608c0-.406.155-.718.464-.936.31-.219.731-.328 1.264-.328h1.072v-.048c0-.347-.09-.608-.272-.784-.181-.182-.424-.272-.728-.272-.261 0-.488.066-.68.2a.85.85 0 00-.352.568h-.688c.027-.288.123-.531.288-.728.171-.198.382-.347.632-.448a2.02 2.02 0 01.8-.16c.555 0 .971.149 1.248.448.283.293.424.685.424 1.176v2.44h-.6l-.04-.712a1.59 1.59 0 01-.496.576c-.213.154-.501.232-.864.232zm.104-.568c.256 0 .475-.067.656-.2.187-.134.328-.307.424-.52.096-.214.144-.438.144-.672v-.008h-1.016c-.394 0-.674.069-.84.208a.628.628 0 00-.24.504c0 .208.075.376.224.504.155.122.371.184.648.184zm2.904.472v-3.968h.608l.056.76c.123-.262.31-.47.56-.624.251-.155.56-.232.928-.232v.704h-.184c-.234 0-.45.042-.648.128a.963.963 0 00-.472.416c-.117.197-.176.469-.176.816v2h-.672zm2.619-3.816l.464-1.784h.752l-.736 1.784h-.48zm3.167 3.912c-.475 0-.869-.12-1.184-.36a1.403 1.403 0 01-.552-.976h.688a.978.978 0 00.328.544c.181.149.424.224.728.224.283 0 .491-.059.624-.176a.572.572 0 00.2-.432c0-.24-.088-.4-.264-.48a3.366 3.366 0 00-.728-.216 4.163 4.163 0 01-.64-.184 1.484 1.484 0 01-.536-.336.807.807 0 01-.216-.584c0-.347.128-.63.384-.848.261-.224.613-.336 1.056-.336.421 0 .765.106 1.032.32.272.208.429.506.472.896h-.664a.674.674 0 00-.264-.472c-.144-.118-.339-.176-.584-.176-.24 0-.427.05-.56.152a.484.484 0 00-.192.4c0 .16.083.285.248.376.171.09.4.168.688.232.245.053.477.12.696.2.224.074.405.189.544.344.144.149.216.368.216.656.005.357-.131.653-.408.888-.272.229-.643.344-1.112.344zm5.741-.096l-1.504-3.968h.704l1.192 3.32 1.2-3.32h.688l-1.504 3.968h-.776zm3.436-4.848a.474.474 0 01-.336-.128.474.474 0 01-.128-.336c0-.128.043-.235.128-.32a.47.47 0 01.336-.128.46.46 0 01.328.128.42.42 0 01.136.32.456.456 0 01-.136.336.463.463 0 01-.328.128zm-.336 4.848v-3.968h.672v3.968h-.672zm3.362.096c-.475 0-.869-.12-1.184-.36a1.403 1.403 0 01-.552-.976h.688a.978.978 0 00.328.544c.181.149.424.224.728.224.283 0 .491-.059.624-.176a.572.572 0 00.2-.432c0-.24-.088-.4-.264-.48a3.366 3.366 0 00-.728-.216 4.163 4.163 0 01-.64-.184 1.484 1.484 0 01-.536-.336.807.807 0 01-.216-.584c0-.347.128-.63.384-.848.261-.224.613-.336 1.056-.336.421 0 .765.106 1.032.32.272.208.429.506.472.896h-.664a.674.674 0 00-.264-.472c-.144-.118-.339-.176-.584-.176-.24 0-.427.05-.56.152a.484.484 0 00-.192.4c0 .16.083.285.248.376.171.09.4.168.688.232.245.053.477.12.696.2.224.074.405.189.544.344.144.149.216.368.216.656.005.357-.131.653-.408.888-.272.229-.643.344-1.112.344zm2.888-4.944a.474.474 0 01-.336-.128.474.474 0 01-.128-.336c0-.128.043-.235.128-.32a.47.47 0 01.336-.128.46.46 0 01.328.128.42.42 0 01.136.32.456.456 0 01-.136.336.463.463 0 01-.328.128zm-.336 4.848v-3.968h.672v3.968h-.672zm3.65.096c-.373 0-.709-.086-1.008-.256a1.894 1.894 0 01-.712-.72 2.29 2.29 0 01-.256-1.104c0-.422.088-.787.264-1.096.176-.315.414-.558.712-.728a2.037 2.037 0 011.016-.256c.374 0 .71.085 1.008.256.299.17.534.413.704.728.176.309.264.674.264 1.096 0 .421-.088.789-.264 1.104a1.873 1.873 0 01-.72.72c-.298.17-.634.256-1.008.256zm0-.576a1.244 1.244 0 001.12-.672c.123-.224.184-.502.184-.832 0-.331-.061-.608-.184-.832a1.196 1.196 0 00-.472-.504 1.26 1.26 0 00-.632-.168c-.229 0-.442.056-.64.168-.197.112-.357.28-.48.504-.122.224-.184.501-.184.832 0 .33.062.608.184.832.123.224.28.392.472.504.198.112.408.168.632.168zm2.927.48v-3.968h.608l.04.712c.128-.251.312-.448.552-.592.24-.144.512-.216.816-.216.469 0 .842.144 1.12.432.282.282.424.72.424 1.312v2.32h-.672v-2.248c0-.827-.342-1.24-1.024-1.24a1.11 1.11 0 00-.856.376c-.224.245-.336.597-.336 1.056v2.056h-.672zm8.263 0c-.363 0-.648-.088-.856-.264-.208-.176-.312-.494-.312-.952v-2.184h-.688v-.568h.688l.088-.952h.584v.952h1.168v.568h-1.168v2.184c0 .25.051.421.152.512.101.085.28.128.536.128h.416v.576h-.608zm3.224.096c-.373 0-.709-.086-1.008-.256a1.894 1.894 0 01-.712-.72 2.29 2.29 0 01-.256-1.104c0-.422.088-.787.264-1.096.176-.315.414-.558.712-.728a2.037 2.037 0 011.016-.256c.374 0 .71.085 1.008.256.299.17.534.413.704.728.176.309.264.674.264 1.096 0 .421-.088.789-.264 1.104a1.873 1.873 0 01-.72.72c-.298.17-.634.256-1.008.256zm0-.576a1.244 1.244 0 001.12-.672c.123-.224.184-.502.184-.832 0-.331-.061-.608-.184-.832a1.196 1.196 0 00-.472-.504 1.26 1.26 0 00-.632-.168c-.229 0-.442.056-.64.168-.197.112-.357.28-.48.504-.122.224-.184.501-.184.832 0 .33.062.608.184.832.123.224.28.392.472.504.198.112.408.168.632.168zm6.844.576c-.395 0-.742-.091-1.04-.272a1.891 1.891 0 01-.688-.744 2.333 2.333 0 01-.24-1.072c0-.4.082-.755.248-1.064.165-.315.394-.56.688-.736.293-.182.64-.272 1.04-.272.325 0 .613.066.864.2.25.133.445.32.584.56v-2.456h.672v5.76h-.608l-.064-.656a1.862 1.862 0 01-.552.52c-.24.154-.542.232-.904.232zm.072-.584c.266 0 .501-.062.704-.184.208-.128.368-.304.48-.528.117-.224.176-.486.176-.784 0-.299-.059-.56-.176-.784a1.22 1.22 0 00-.48-.52 1.293 1.293 0 00-.704-.192c-.262 0-.496.064-.704.192a1.285 1.285 0 00-.48.52 1.731 1.731 0 00-.168.784c0 .298.056.56.168.784.117.224.277.4.48.528.208.122.442.184.704.184zm4.935.584c-.378 0-.714-.086-1.008-.256a1.911 1.911 0 01-.696-.728c-.165-.31-.248-.675-.248-1.096 0-.416.083-.779.248-1.088.166-.315.395-.558.688-.728a1.996 1.996 0 011.032-.264c.384 0 .715.088.992.264.283.17.499.397.648.68a1.912 1.912 0 01.216 1.088v.2h-3.16c.016.304.086.557.208.76.128.197.286.346.472.448.192.101.395.152.608.152.278 0 .51-.064.696-.192.187-.128.323-.302.408-.52h.664a1.802 1.802 0 01-.616.92c-.298.24-.682.36-1.152.36zm0-3.592c-.32 0-.605.098-.856.296-.245.192-.386.474-.424.848h2.496c-.016-.358-.138-.638-.368-.84a1.232 1.232 0 00-.848-.304zm3.759 3.496l-1.504-3.968h.704l1.192 3.32 1.2-3.32h.688l-1.504 3.968h-.776zm4.608.096c-.378 0-.714-.086-1.008-.256a1.911 1.911 0 01-.696-.728c-.165-.31-.248-.675-.248-1.096 0-.416.083-.779.248-1.088.166-.315.395-.558.688-.728a1.996 1.996 0 011.032-.264c.384 0 .715.088.992.264.283.17.499.397.648.68a1.912 1.912 0 01.216 1.088v.2h-3.16c.016.304.086.557.208.76.128.197.286.346.472.448.192.101.395.152.608.152.278 0 .51-.064.696-.192.187-.128.323-.302.408-.52h.664a1.802 1.802 0 01-.616.92c-.298.24-.682.36-1.152.36zm0-3.592c-.32 0-.605.098-.856.296-.245.192-.386.474-.424.848h2.496c-.016-.358-.138-.638-.368-.84a1.232 1.232 0 00-.848-.304zm4.579 3.592c-.373 0-.709-.086-1.008-.256a1.887 1.887 0 01-.712-.72c-.171-.315-.256-.683-.256-1.104 0-.422.088-.787.264-1.096a1.86 1.86 0 01.712-.728 2.037 2.037 0 011.016-.256c.373 0 .709.085 1.008.256.299.17.533.413.704.728.176.309.264.674.264 1.096 0 .421-.088.789-.264 1.104a1.873 1.873 0 01-.72.72c-.299.17-.635.256-1.008.256zm0-.576c.229 0 .443-.056.64-.168.197-.112.357-.28.48-.504.123-.224.184-.502.184-.832 0-.331-.061-.608-.184-.832a1.202 1.202 0 00-.472-.504 1.26 1.26 0 00-.632-.168c-.229 0-.443.056-.64.168-.197.112-.357.28-.48.504-.123.224-.184.501-.184.832 0 .33.061.608.184.832.123.224.28.392.472.504.197.112.408.168.632.168zm2.926 2.24v-5.728h.609l.063.656a1.88 1.88 0 01.545-.52c.24-.155.544-.232.911-.232.395 0 .739.09 1.032.272.294.181.52.429.68.744.166.314.248.672.248 1.072s-.082.757-.248 1.072c-.16.309-.389.554-.688.736a1.965 1.965 0 01-1.031.264c-.326 0-.617-.067-.872-.2a1.397 1.397 0 01-.577-.56v2.424h-.672zm2.048-2.248c.267 0 .502-.062.704-.184.203-.128.363-.304.481-.528.117-.224.175-.486.175-.784 0-.299-.058-.56-.175-.784a1.295 1.295 0 00-.481-.52 1.288 1.288 0 00-.704-.192c-.266 0-.501.064-.703.192a1.295 1.295 0 00-.481.52 1.67 1.67 0 00-.176.784c0 .298.059.56.176.784.118.224.278.4.481.528.202.122.437.184.703.184zm-96.501 12.584c-.331 0-.605-.056-.824-.168a1.146 1.146 0 01-.648-1.056c0-.406.155-.718.464-.936.309-.219.731-.328 1.264-.328h1.072v-.048c0-.347-.091-.608-.272-.784-.181-.182-.424-.272-.728-.272-.261 0-.488.066-.68.2a.847.847 0 00-.352.568h-.688c.027-.288.123-.531.288-.728.171-.198.381-.347.632-.448.251-.107.517-.16.8-.16.555 0 .971.149 1.248.448.283.293.424.685.424 1.176v2.44h-.6l-.04-.712a1.59 1.59 0 01-.496.576c-.213.154-.501.232-.864.232zm.104-.568c.256 0 .475-.067.656-.2.187-.134.328-.307.424-.52.096-.214.144-.438.144-.672v-.008h-1.016c-.395 0-.675.069-.84.208a.628.628 0 00-.24.504c0 .208.075.376.224.504.155.122.371.184.648.184zm6.341.568c-.33 0-.605-.056-.824-.168a1.152 1.152 0 01-.488-.448 1.214 1.214 0 01-.16-.608c0-.406.155-.718.464-.936.31-.219.731-.328 1.264-.328h1.072v-.048c0-.347-.09-.608-.272-.784-.181-.182-.424-.272-.728-.272-.261 0-.488.066-.68.2a.85.85 0 00-.352.568h-.688c.027-.288.123-.531.288-.728.171-.198.382-.347.632-.448a2.02 2.02 0 01.8-.16c.555 0 .971.149 1.248.448.283.293.424.685.424 1.176v2.44h-.6l-.04-.712a1.59 1.59 0 01-.496.576c-.213.154-.501.232-.864.232zm.104-.568c.256 0 .475-.067.656-.2.187-.134.328-.307.424-.52.096-.214.144-.438.144-.672v-.008h-1.016c-.394 0-.674.069-.84.208a.628.628 0 00-.24.504c0 .208.075.376.224.504.155.122.371.184.648.184zm4.728.568c-.378 0-.72-.086-1.024-.256a1.952 1.952 0 01-.712-.728 2.272 2.272 0 01-.256-1.096c0-.416.086-.779.256-1.088.176-.315.414-.558.712-.728a2.008 2.008 0 011.024-.264c.47 0 .864.122 1.184.368.326.245.531.573.616.984h-.688a.864.864 0 00-.392-.568 1.278 1.278 0 00-.728-.208c-.224 0-.434.056-.632.168-.197.112-.357.28-.48.504-.122.224-.184.501-.184.832 0 .33.062.608.184.832.123.224.283.394.48.512.198.112.408.168.632.168.278 0 .52-.067.728-.2a.901.901 0 00.392-.584h.688c-.08.4-.282.725-.608.976-.325.25-.722.376-1.192.376zm2.739-.096v-3.968h.608l.056.76c.123-.262.309-.47.56-.624.251-.155.56-.232.928-.232v.704h-.184c-.235 0-.451.042-.648.128a.96.96 0 00-.472.416c-.117.197-.176.469-.176.816v2h-.672zm7.143.096c-.325 0-.616-.067-.872-.2a1.4 1.4 0 01-.576-.56l-.064.664h-.608v-5.76h.672v2.448c.128-.192.31-.366.544-.52.24-.155.544-.232.912-.232.395 0 .739.09 1.032.272.294.181.52.429.68.744.166.314.248.672.248 1.072s-.082.757-.248 1.072c-.16.309-.389.554-.688.736a1.966 1.966 0 01-1.032.264zm-.072-.584c.267 0 .502-.062.704-.184.203-.128.363-.304.48-.528a1.66 1.66 0 00.176-.784c0-.299-.058-.56-.176-.784a1.285 1.285 0 00-.48-.52 1.288 1.288 0 00-.704-.192 1.3 1.3 0 00-1.184.712 1.67 1.67 0 00-.176.784c0 .298.059.56.176.784.118.224.278.4.48.528.203.122.438.184.704.184zm6.448-3.48v3.968h-.608l-.04-.712c-.128.25-.312.448-.552.592-.24.144-.512.216-.816.216-.469 0-.845-.142-1.128-.424-.277-.288-.416-.728-.416-1.32v-2.32h.672v2.248c0 .826.341 1.24 1.024 1.24a1.1 1.1 0 00.848-.368c.229-.251.344-.606.344-1.064v-2.056h.672zm1.538 5.728l.984-2.144h-.232l-1.576-3.584h.728l1.312 3.088 1.392-3.088h.696l-2.6 5.728h-.704zm4.421-6.608a.474.474 0 01-.336-.128.474.474 0 01-.128-.336c0-.128.043-.235.128-.32a.47.47 0 01.336-.128c.128 0 .238.042.328.128a.42.42 0 01.136.32.456.456 0 01-.136.336.462.462 0 01-.328.128zm-.336 4.848v-3.968h.672v3.968h-.672zm1.842 0v-3.968h.608l.04.712c.128-.251.312-.448.552-.592.24-.144.512-.216.816-.216.47 0 .843.144 1.12.432.283.282.424.72.424 1.312v2.32h-.672v-2.248c0-.827-.341-1.24-1.024-1.24-.341 0-.626.125-.856.376-.224.245-.336.597-.336 1.056v2.056h-.672zm6.147-1.248c-.224 0-.43-.03-.617-.088l-.4.376c.059.042.131.08.216.112.091.026.219.053.384.08.166.021.398.045.696.072.534.037.915.16 1.145.368.229.208.343.48.343.816 0 .229-.064.448-.191.656a1.37 1.37 0 01-.576.512c-.257.133-.587.2-.993.2-.357 0-.674-.048-.951-.144a1.345 1.345 0 01-.649-.424c-.154-.187-.232-.424-.232-.712 0-.15.04-.312.12-.488.08-.171.23-.334.448-.488a2.097 2.097 0 01-.304-.152 2.06 2.06 0 01-.224-.192v-.184l.681-.672c-.315-.267-.472-.619-.472-1.056 0-.262.061-.499.183-.712.123-.214.302-.382.536-.504.235-.128.521-.192.857-.192.229 0 .437.032.624.096h1.463v.504l-.744.032c.155.224.233.482.233.776 0 .261-.065.498-.193.712a1.338 1.338 0 01-.536.512c-.229.122-.512.184-.847.184zm0-.552c.282 0 .506-.072.671-.216.171-.15.256-.363.256-.64 0-.272-.085-.48-.256-.624-.165-.15-.389-.224-.671-.224-.288 0-.518.074-.688.224-.166.144-.249.352-.249.624 0 .277.083.49.249.64.17.144.4.216.688.216zm-1.169 2.312c0 .266.113.464.336.592.224.133.505.2.84.2.331 0 .595-.072.792-.216a.673.673 0 00.305-.576c0-.171-.07-.32-.208-.448-.139-.123-.395-.195-.769-.216a10.533 10.533 0 01-.759-.08c-.219.117-.363.242-.433.376a.844.844 0 00-.104.368zm6.132 1.248v-5.728h.608l.064.656c.128-.192.309-.366.544-.52.24-.155.544-.232.912-.232.394 0 .738.09 1.032.272.293.181.52.429.68.744.165.314.248.672.248 1.072s-.083.757-.248 1.072a1.84 1.84 0 01-.688.736 1.97 1.97 0 01-1.032.264c-.326 0-.616-.067-.872-.2a1.389 1.389 0 01-.576-.56v2.424h-.672zm2.048-2.248c.266 0 .501-.062.704-.184.202-.128.362-.304.48-.528.117-.224.176-.486.176-.784 0-.299-.059-.56-.176-.784a1.3 1.3 0 00-1.184-.712c-.267 0-.502.064-.704.192a1.285 1.285 0 00-.48.52 1.657 1.657 0 00-.176.784c0 .298.058.56.176.784.117.224.277.4.48.528.202.122.437.184.704.184zm2.975.488v-5.76h.672v5.76h-.672zm3.094.096c-.331 0-.606-.056-.824-.168a1.14 1.14 0 01-.648-1.056c0-.406.154-.718.464-.936.309-.219.73-.328 1.264-.328h1.072v-.048c0-.347-.091-.608-.272-.784-.182-.182-.424-.272-.728-.272-.262 0-.488.066-.68.2a.847.847 0 00-.352.568h-.688c.026-.288.122-.531.288-.728.17-.198.381-.347.632-.448.25-.107.517-.16.8-.16.554 0 .97.149 1.248.448.282.293.424.685.424 1.176v2.44h-.6l-.04-.712a1.6 1.6 0 01-.496.576c-.214.154-.502.232-.864.232zm.104-.568c.256 0 .474-.067.656-.2.186-.134.328-.307.424-.52.096-.214.144-.438.144-.672v-.008h-1.016c-.395 0-.675.069-.84.208a.628.628 0 00-.24.504.63.63 0 00.224.504c.154.122.37.184.648.184zm4.362.472c-.362 0-.648-.088-.856-.264-.208-.176-.312-.494-.312-.952v-2.184h-.688v-.568h.688l.088-.952h.584v.952h1.168v.568h-1.168v2.184c0 .25.051.421.152.512.102.085.28.128.536.128h.416v.576h-.608zm1.742 0v-3.4h-.6v-.568h.6v-.688c0-.384.096-.664.288-.84.192-.176.472-.264.84-.264h.4v.576h-.296c-.203 0-.347.042-.432.128-.085.08-.128.218-.128.416v.672h.976v.568h-.976v3.4h-.672zm4.1.096c-.373 0-.709-.086-1.008-.256a1.887 1.887 0 01-.712-.72c-.171-.315-.256-.683-.256-1.104 0-.422.088-.787.264-1.096a1.86 1.86 0 01.712-.728 2.037 2.037 0 011.016-.256c.373 0 .709.085 1.008.256.299.17.533.413.704.728.176.309.264.674.264 1.096 0 .421-.088.789-.264 1.104a1.873 1.873 0 01-.72.72c-.299.17-.635.256-1.008.256zm0-.576c.229 0 .443-.056.64-.168.197-.112.357-.28.48-.504.123-.224.184-.502.184-.832 0-.331-.061-.608-.184-.832a1.202 1.202 0 00-.472-.504 1.26 1.26 0 00-.632-.168c-.229 0-.443.056-.64.168-.197.112-.357.28-.48.504-.123.224-.184.501-.184.832 0 .33.061.608.184.832.123.224.28.392.472.504.197.112.408.168.632.168zm2.926.48v-3.968h.608l.056.76c.123-.262.31-.47.56-.624.251-.155.56-.232.928-.232v.704h-.184c-.234 0-.45.042-.648.128a.963.963 0 00-.472.416c-.117.197-.176.469-.176.816v2h-.672zm2.907 0v-3.968h.608l.048.576c.128-.214.298-.379.512-.496a1.46 1.46 0 01.72-.176c.314 0 .584.064.808.192.229.128.405.322.528.584.138-.24.328-.43.568-.568.245-.139.509-.208.792-.208.474 0 .853.144 1.136.432.282.282.424.72.424 1.312v2.32h-.664v-2.248c0-.411-.083-.72-.248-.928-.166-.208-.403-.312-.712-.312-.32 0-.587.125-.8.376-.208.245-.312.597-.312 1.056v2.056h-.672v-2.248c0-.411-.083-.72-.248-.928-.166-.208-.403-.312-.712-.312a.998.998 0 00-.792.376c-.208.245-.312.597-.312 1.056v2.056h-.672zm9.489 0v-3.4h-.6v-.568h.6v-.688c0-.384.096-.664.288-.84.192-.176.472-.264.84-.264h.4v.576h-.296c-.203 0-.347.042-.432.128-.085.08-.128.218-.128.416v.672h.976v.568h-.976v3.4h-.672zm4.1.096c-.374 0-.71-.086-1.008-.256a1.887 1.887 0 01-.712-.72c-.171-.315-.256-.683-.256-1.104 0-.422.088-.787.264-1.096a1.86 1.86 0 01.712-.728 2.034 2.034 0 011.016-.256c.373 0 .709.085 1.008.256.298.17.533.413.704.728.176.309.264.674.264 1.096 0 .421-.088.789-.264 1.104a1.873 1.873 0 01-.72.72c-.299.17-.635.256-1.008.256zm0-.576c.229 0 .442-.056.64-.168.197-.112.357-.28.48-.504.122-.224.184-.502.184-.832 0-.331-.062-.608-.184-.832a1.208 1.208 0 00-.472-.504 1.262 1.262 0 00-.632-.168 1.244 1.244 0 00-1.12.672c-.123.224-.184.501-.184.832 0 .33.061.608.184.832.122.224.28.392.472.504.197.112.408.168.632.168zm2.926.48v-3.968h.608l.056.76c.123-.262.31-.47.56-.624.251-.155.56-.232.928-.232v.704h-.184c-.234 0-.45.042-.648.128a.963.963 0 00-.472.416c-.117.197-.176.469-.176.816v2h-.672zm6.592 0c-.363 0-.648-.088-.856-.264-.208-.176-.312-.494-.312-.952v-2.184h-.688v-.568h.688l.088-.952h.584v.952h1.168v.568h-1.168v2.184c0 .25.05.421.152.512.101.085.28.128.536.128h.416v.576h-.608zm1.525 0v-5.76h.672v2.472c.134-.246.323-.435.568-.568.246-.139.512-.208.8-.208.459 0 .827.144 1.104.432.278.282.416.72.416 1.312v2.32h-.664v-2.248c0-.827-.333-1.24-1-1.24-.346 0-.637.125-.872.376-.234.245-.352.597-.352 1.056v2.056h-.672zm6.362.096c-.378 0-.714-.086-1.007-.256a1.897 1.897 0 01-.696-.728c-.166-.31-.248-.675-.248-1.096 0-.416.082-.779.248-1.088a1.77 1.77 0 01.687-.728 1.997 1.997 0 011.033-.264c.384 0 .714.088.991.264.283.17.499.397.649.68a1.923 1.923 0 01.215 1.088v.2h-3.159c.016.304.085.557.208.76.128.197.285.346.472.448.192.101.394.152.607.152.278 0 .51-.064.697-.192.186-.128.322-.302.407-.52h.665a1.81 1.81 0 01-.617.92c-.298.24-.682.36-1.152.36zm0-3.592c-.32 0-.605.098-.855.296-.246.192-.387.474-.425.848h2.496c-.015-.358-.138-.638-.368-.84a1.232 1.232 0 00-.848-.304zm-102.682 17.256v-5.728h.608l.064.656c.128-.192.309-.366.544-.52.24-.155.544-.232.912-.232.395 0 .739.09 1.032.272.293.181.52.429.68.744.165.314.248.672.248 1.072s-.083.757-.248 1.072c-.16.309-.389.554-.688.736a1.966 1.966 0 01-1.032.264c-.325 0-.616-.067-.872-.2a1.389 1.389 0 01-.576-.56v2.424h-.672zm2.048-2.248c.267 0 .501-.062.704-.184.203-.128.363-.304.48-.528.117-.224.176-.486.176-.784 0-.299-.059-.56-.176-.784a1.285 1.285 0 00-.48-.52 1.29 1.29 0 00-.704-.192 1.29 1.29 0 00-.704.192 1.285 1.285 0 00-.48.52 1.67 1.67 0 00-.176.784c0 .298.059.56.176.784.117.224.277.4.48.528.203.122.437.184.704.184zm2.975.488v-3.968h.608l.056.76c.123-.262.31-.47.56-.624.251-.155.56-.232.928-.232v.704h-.184c-.234 0-.45.042-.648.128a.963.963 0 00-.472.416c-.117.197-.176.469-.176.816v2h-.672zm4.542.096c-.378 0-.714-.086-1.008-.256a1.911 1.911 0 01-.696-.728c-.165-.31-.248-.675-.248-1.096 0-.416.083-.779.248-1.088.166-.315.395-.558.688-.728a1.996 1.996 0 011.032-.264c.384 0 .715.088.992.264.283.17.499.397.648.68a1.912 1.912 0 01.216 1.088v.2h-3.16c.016.304.086.557.208.76.128.197.286.346.472.448.192.101.395.152.608.152.278 0 .51-.064.696-.192.187-.128.323-.302.408-.52h.664a1.802 1.802 0 01-.616.92c-.298.24-.682.36-1.152.36zm0-3.592c-.32 0-.605.098-.856.296-.245.192-.386.474-.424.848h2.496c-.016-.358-.138-.638-.368-.84a1.232 1.232 0 00-.848-.304zm4.291 3.592c-.475 0-.869-.12-1.184-.36a1.403 1.403 0 01-.552-.976h.688a.978.978 0 00.328.544c.181.149.424.224.728.224.283 0 .491-.059.624-.176a.572.572 0 00.2-.432c0-.24-.088-.4-.264-.48a3.366 3.366 0 00-.728-.216 4.163 4.163 0 01-.64-.184 1.484 1.484 0 01-.536-.336.807.807 0 01-.216-.584c0-.347.128-.63.384-.848.261-.224.613-.336 1.056-.336.421 0 .765.106 1.032.32.272.208.429.506.472.896h-.664a.674.674 0 00-.264-.472c-.144-.118-.339-.176-.584-.176-.24 0-.427.05-.56.152a.484.484 0 00-.192.4c0 .16.083.285.248.376.171.09.4.168.688.232.245.053.477.12.696.2.224.074.405.189.544.344.144.149.216.368.216.656.005.357-.131.653-.408.888-.272.229-.643.344-1.112.344zm4.264 0c-.379 0-.715-.086-1.008-.256a1.911 1.911 0 01-.696-.728c-.165-.31-.248-.675-.248-1.096 0-.416.083-.779.248-1.088.165-.315.395-.558.688-.728a1.996 1.996 0 011.032-.264c.384 0 .715.088.992.264.283.17.499.397.648.68a1.923 1.923 0 01.216 1.088v.2h-3.16c.016.304.085.557.208.76.128.197.285.346.472.448.192.101.395.152.608.152.277 0 .509-.064.696-.192.187-.128.323-.302.408-.52h.664a1.808 1.808 0 01-.616.92c-.299.24-.683.36-1.152.36zm0-3.592c-.32 0-.605.098-.856.296-.245.192-.387.474-.424.848h2.496c-.016-.358-.139-.638-.368-.84a1.232 1.232 0 00-.848-.304zm2.771 3.496v-3.968h.608l.04.712c.128-.251.312-.448.552-.592.24-.144.512-.216.816-.216.469 0 .842.144 1.12.432.282.282.424.72.424 1.312v2.32h-.672v-2.248c0-.827-.342-1.24-1.024-1.24a1.11 1.11 0 00-.856.376c-.224.245-.336.597-.336 1.056v2.056h-.672zm6.146 0c-.363 0-.648-.088-.856-.264-.208-.176-.312-.494-.312-.952v-2.184h-.688v-.568h.688l.088-.952h.584v.952h1.168v.568h-1.168v2.184c0 .25.05.421.152.512.101.085.28.128.536.128h.416v.576h-.608zm5.443.096c-.395 0-.742-.091-1.04-.272a1.891 1.891 0 01-.688-.744 2.333 2.333 0 01-.24-1.072c0-.4.082-.755.248-1.064.165-.315.394-.56.688-.736.293-.182.64-.272 1.04-.272.325 0 .613.066.864.2.25.133.445.32.584.56v-2.456h.672v5.76h-.608l-.064-.656a1.862 1.862 0 01-.552.52c-.24.154-.542.232-.904.232zm.072-.584c.266 0 .501-.062.704-.184.208-.128.368-.304.48-.528.117-.224.176-.486.176-.784 0-.299-.059-.56-.176-.784a1.22 1.22 0 00-.48-.52 1.293 1.293 0 00-.704-.192c-.262 0-.496.064-.704.192a1.285 1.285 0 00-.48.52 1.731 1.731 0 00-.168.784c0 .298.056.56.168.784.117.224.277.4.48.528.208.122.442.184.704.184zm4.471.584c-.33 0-.605-.056-.824-.168a1.152 1.152 0 01-.488-.448 1.214 1.214 0 01-.16-.608c0-.406.155-.718.464-.936.31-.219.731-.328 1.264-.328h1.072v-.048c0-.347-.09-.608-.272-.784-.181-.182-.424-.272-.728-.272-.261 0-.488.066-.68.2a.85.85 0 00-.352.568h-.688c.027-.288.123-.531.288-.728.171-.198.382-.347.632-.448a2.02 2.02 0 01.8-.16c.555 0 .971.149 1.248.448.283.293.424.685.424 1.176v2.44h-.6l-.04-.712a1.59 1.59 0 01-.496.576c-.213.154-.501.232-.864.232zm.104-.568c.256 0 .475-.067.656-.2.187-.134.328-.307.424-.52.096-.214.144-.438.144-.672v-.008H266c-.394 0-.674.069-.84.208a.628.628 0 00-.24.504c0 .208.075.376.224.504.155.122.371.184.648.184zm3.219 2.232l.984-2.144h-.232l-1.576-3.584h.728l1.312 3.088 1.392-3.088h.696l-2.6 5.728h-.704zm3.725-5.576l.464-1.784h.752l-.736 1.784h-.48zm3.168 3.912c-.475 0-.87-.12-1.184-.36a1.403 1.403 0 01-.552-.976h.688a.972.972 0 00.328.544c.181.149.424.224.728.224.282 0 .49-.059.624-.176a.572.572 0 00.2-.432c0-.24-.088-.4-.264-.48a3.384 3.384 0 00-.728-.216 4.131 4.131 0 01-.64-.184 1.475 1.475 0 01-.536-.336.807.807 0 01-.216-.584c0-.347.128-.63.384-.848.261-.224.613-.336 1.056-.336.421 0 .765.106 1.032.32.272.208.429.506.472.896h-.664a.674.674 0 00-.264-.472c-.144-.118-.339-.176-.584-.176-.24 0-.427.05-.56.152a.484.484 0 00-.192.4c0 .16.082.285.248.376.17.09.4.168.688.232.245.053.477.12.696.2.224.074.405.189.544.344.144.149.216.368.216.656.005.357-.131.653-.408.888-.272.229-.643.344-1.112.344zm6.165-.096c-.363 0-.648-.088-.856-.264-.208-.176-.312-.494-.312-.952v-2.184h-.688v-.568h.688l.088-.952h.584v.952h1.168v.568h-1.168v2.184c0 .25.051.421.152.512.101.085.28.128.536.128h.416v.576h-.608zm3.2.096c-.378 0-.714-.086-1.008-.256a1.911 1.911 0 01-.696-.728c-.165-.31-.248-.675-.248-1.096 0-.416.083-.779.248-1.088.166-.315.395-.558.688-.728a1.996 1.996 0 011.032-.264c.384 0 .715.088.992.264.283.17.499.397.648.68a1.912 1.912 0 01.216 1.088v.2h-3.16c.016.304.086.557.208.76.128.197.286.346.472.448.192.101.395.152.608.152.278 0 .51-.064.696-.192.187-.128.323-.302.408-.52h.664a1.802 1.802 0 01-.616.92c-.298.24-.682.36-1.152.36zm0-3.592c-.32 0-.605.098-.856.296-.245.192-.386.474-.424.848h2.496c-.016-.358-.138-.638-.368-.84a1.232 1.232 0 00-.848-.304zm2.771 3.496v-3.968h.608l.048.576a1.34 1.34 0 01.512-.496 1.46 1.46 0 01.72-.176c.315 0 .584.064.808.192.229.128.405.322.528.584.139-.24.328-.43.568-.568.245-.139.509-.208.792-.208.475 0 .853.144 1.136.432.283.282.424.72.424 1.312v2.32h-.664v-2.248c0-.411-.083-.72-.248-.928-.165-.208-.403-.312-.712-.312-.32 0-.587.125-.8.376-.208.245-.312.597-.312 1.056v2.056h-.672v-2.248c0-.411-.083-.72-.248-.928-.165-.208-.403-.312-.712-.312a.998.998 0 00-.792.376c-.208.245-.312.597-.312 1.056v2.056h-.672zm7.156 1.76v-5.728h.608l.064.656c.128-.192.31-.366.544-.52.24-.155.544-.232.912-.232.395 0 .739.09 1.032.272.294.181.52.429.68.744.166.314.248.672.248 1.072s-.082.757-.248 1.072c-.16.309-.389.554-.688.736a1.966 1.966 0 01-1.032.264c-.325 0-.616-.067-.872-.2a1.4 1.4 0 01-.576-.56v2.424h-.672zm2.048-2.248c.267 0 .502-.062.704-.184.203-.128.363-.304.48-.528a1.66 1.66 0 00.176-.784c0-.299-.058-.56-.176-.784a1.285 1.285 0 00-.48-.52 1.288 1.288 0 00-.704-.192 1.3 1.3 0 00-1.184.712 1.67 1.67 0 00-.176.784c0 .298.059.56.176.784.118.224.278.4.48.528.203.122.438.184.704.184zm4.784.584c-.374 0-.71-.086-1.008-.256a1.887 1.887 0 01-.712-.72c-.171-.315-.256-.683-.256-1.104 0-.422.088-.787.264-1.096a1.86 1.86 0 01.712-.728 2.034 2.034 0 011.016-.256c.373 0 .709.085 1.008.256.298.17.533.413.704.728.176.309.264.674.264 1.096 0 .421-.088.789-.264 1.104a1.873 1.873 0 01-.72.72c-.299.17-.635.256-1.008.256zm0-.576c.229 0 .442-.056.64-.168.197-.112.357-.28.48-.504.122-.224.184-.502.184-.832 0-.331-.062-.608-.184-.832a1.208 1.208 0 00-.472-.504 1.262 1.262 0 00-.632-.168 1.244 1.244 0 00-1.12.672c-.123.224-.184.501-.184.832 0 .33.061.608.184.832.122.224.28.392.472.504.197.112.408.168.632.168zm2.926.48v-3.968h.608l.056.76c.123-.262.309-.47.56-.624.251-.155.56-.232.928-.232v.704h-.184c-.235 0-.451.042-.648.128a.96.96 0 00-.472.416c-.117.197-.176.469-.176.816v2h-.672zm4.226.096c-.33 0-.605-.056-.824-.168a1.152 1.152 0 01-.488-.448 1.214 1.214 0 01-.16-.608c0-.406.155-.718.464-.936.31-.219.731-.328 1.264-.328h1.072v-.048c0-.347-.09-.608-.272-.784-.181-.182-.424-.272-.728-.272-.261 0-.488.066-.68.2a.85.85 0 00-.352.568h-.688c.027-.288.123-.531.288-.728.171-.198.382-.347.632-.448a2.02 2.02 0 01.8-.16c.555 0 .971.149 1.248.448.283.293.424.685.424 1.176v2.44h-.6l-.04-.712a1.59 1.59 0 01-.496.576c-.213.154-.501.232-.864.232zm.104-.568c.256 0 .475-.067.656-.2.187-.134.328-.307.424-.52.096-.214.144-.438.144-.672v-.008h-1.016c-.394 0-.674.069-.84.208a.628.628 0 00-.24.504c0 .208.075.376.224.504.155.122.371.184.648.184zm2.904.472v-3.968h.609l.056.76c.122-.262.309-.47.559-.624.251-.155.561-.232.928-.232v.704h-.183a1.61 1.61 0 00-.649.128.963.963 0 00-.472.416c-.117.197-.176.469-.176.816v2h-.672zm3.339 1.76l.984-2.144h-.232l-1.576-3.584h.728l1.312 3.088 1.392-3.088h.696l-2.6 5.728h-.704zm-86.862 10.24v-3.968h.608l.048.576a1.34 1.34 0 01.512-.496 1.46 1.46 0 01.72-.176c.315 0 .584.064.808.192.229.128.405.322.528.584.139-.24.328-.43.568-.568.245-.139.509-.208.792-.208.475 0 .853.144 1.136.432.283.282.424.72.424 1.312v2.32h-.664v-2.248c0-.411-.083-.72-.248-.928-.165-.208-.403-.312-.712-.312-.32 0-.587.125-.8.376-.208.245-.312.597-.312 1.056v2.056h-.672v-2.248c0-.411-.083-.72-.248-.928-.165-.208-.403-.312-.712-.312a.998.998 0 00-.792.376c-.208.245-.312.597-.312 1.056v2.056h-.672zm8.476.096c-.33 0-.605-.056-.824-.168a1.152 1.152 0 01-.488-.448 1.214 1.214 0 01-.16-.608c0-.406.155-.718.464-.936.31-.219.731-.328 1.264-.328h1.072v-.048c0-.347-.09-.608-.272-.784-.181-.182-.424-.272-.728-.272-.261 0-.488.066-.68.2a.85.85 0 00-.352.568h-.688c.027-.288.123-.531.288-.728.171-.198.382-.347.632-.448a2.02 2.02 0 01.8-.16c.555 0 .971.149 1.248.448.283.293.424.685.424 1.176v2.44h-.6l-.04-.712a1.59 1.59 0 01-.496.576c-.213.154-.501.232-.864.232zm.104-.568c.256 0 .475-.067.656-.2.187-.134.328-.307.424-.52.096-.214.144-.438.144-.672v-.008h-1.016c-.394 0-.674.069-.84.208a.628.628 0 00-.24.504c0 .208.075.376.224.504.155.122.371.184.648.184zm2.904.472v-3.968h.608l.04.712c.128-.251.312-.448.552-.592.24-.144.512-.216.816-.216.47 0 .843.144 1.12.432.283.282.424.72.424 1.312v2.32h-.672v-2.248c0-.827-.341-1.24-1.024-1.24-.341 0-.626.125-.856.376-.224.245-.336.597-.336 1.056v2.056h-.672z" fill="#6AA4FF"/><path d="M360.709 384.989v-118.29H29.713v118.29" stroke="#6AA4FF"/><path d="M135.563 384.026v-88.737h-83.19v88.737m184.433 0v-88.737h-83.191v88.737m184.435 0v-88.737h-83.192v88.737" stroke="#6AA4FF"/></svg>