<svg width="28" height="28" fill="none" xmlns="http://www.w3.org/2000/svg"><path d="M26.427 10.733l-2.52-.84 1.186-2.373A1.333 1.333 0 0024.84 6L22 3.16a1.334 1.334 0 00-1.533-.253l-2.374 1.186-.84-2.52A1.333 1.333 0 0016 .667h-4a1.333 1.333 0 00-1.267.906l-.84 2.52L7.52 2.907A1.333 1.333 0 006 3.16L3.16 6a1.333 1.333 0 00-.253 1.533l1.186 2.374-2.52.84A1.333 1.333 0 00.667 12v4a1.333 1.333 0 00.906 1.267l2.52.84-1.186 2.373A1.333 1.333 0 003.16 22L6 24.84a1.333 1.333 0 001.533.253l2.374-1.186.84 2.52a1.334 1.334 0 001.266.906h4a1.334 1.334 0 001.267-.906l.84-2.52 2.373 1.186A1.334 1.334 0 0022 24.84L24.84 22a1.333 1.333 0 00.253-1.534l-1.186-2.373 2.52-.84A1.333 1.333 0 0027.333 16v-4a1.333 1.333 0 00-.906-1.267zm-1.76 4.307l-1.6.533a2.666 2.666 0 00-1.547 3.76l.76 1.52-1.467 1.467-1.48-.8a2.667 2.667 0 00-3.72 1.547l-.533 1.6h-2.12l-.533-1.6a2.667 2.667 0 00-3.76-1.547l-1.52.76-1.467-1.467.8-1.48a2.667 2.667 0 00-1.547-3.76l-1.6-.533v-2.08l1.6-.534a2.667 2.667 0 001.547-3.76l-.76-1.48L7.187 5.72l1.48.76a2.667 2.667 0 003.76-1.547l.533-1.6h2.08l.533 1.6a2.666 2.666 0 003.76 1.547l1.52-.76 1.467 1.467-.8 1.48a2.666 2.666 0 001.547 3.72l1.6.533v2.12zM14 8.667a5.333 5.333 0 100 10.666 5.333 5.333 0 000-10.666zm0 8a2.667 2.667 0 110-5.335 2.667 2.667 0 010 5.334z" fill="#4C4F5A"/></svg>