<svg width="100%" height="100%" viewBox="0 0 169 73" fill="none" xmlns="http://www.w3.org/2000/svg">
<rect x="0.30957" y="7.97656" width="164.041" height="65.0136" rx="4" fill="#EDEDED"/>
<rect x="5.10352" y="1.47656" width="163.041" height="64.0136" rx="3.5" fill="white" stroke="#01B9B8"/>
<path d="M25.9561 39.4834V26.8834H30.0241C31.0081 26.8834 31.8121 27.0454 32.4361 27.3694C33.0601 27.6934 33.5221 28.1374 33.8221 28.7014C34.1221 29.2654 34.2721 29.8894 34.2721 30.5734C34.2721 31.3654 34.0561 32.0794 33.6241 32.7154C33.2041 33.3514 32.5441 33.8014 31.6441 34.0654L34.3981 39.4834H32.6161L30.0601 34.2814H27.4681V39.4834H25.9561ZM27.4681 33.0934H29.9161C30.8881 33.0934 31.5961 32.8594 32.0401 32.3914C32.4841 31.9234 32.7061 31.3234 32.7061 30.5914C32.7061 29.8474 32.4841 29.2594 32.0401 28.8274C31.6081 28.3834 30.8941 28.1614 29.8981 28.1614H27.4681V33.0934Z" fill="#01B9B8"/>
<path d="M40.5451 39.6994C39.6931 39.6994 38.9371 39.5074 38.2771 39.1234C37.6171 38.7274 37.0951 38.1814 36.7111 37.4854C36.3391 36.7894 36.1531 35.9674 36.1531 35.0194C36.1531 34.0834 36.3391 33.2674 36.7111 32.5714C37.0831 31.8634 37.5991 31.3174 38.2591 30.9334C38.9311 30.5374 39.7051 30.3394 40.5811 30.3394C41.4451 30.3394 42.1891 30.5374 42.8131 30.9334C43.4491 31.3174 43.9351 31.8274 44.2711 32.4634C44.6071 33.0994 44.7751 33.7834 44.7751 34.5154C44.7751 34.6474 44.7691 34.7794 44.7571 34.9114C44.7571 35.0434 44.7571 35.1934 44.7571 35.3614H37.6471C37.6831 36.0454 37.8391 36.6154 38.1151 37.0714C38.4031 37.5154 38.7571 37.8514 39.1771 38.0794C39.6091 38.3074 40.0651 38.4214 40.5451 38.4214C41.1691 38.4214 41.6911 38.2774 42.1111 37.9894C42.5311 37.7014 42.8371 37.3114 43.0291 36.8194H44.5231C44.2831 37.6474 43.8211 38.3374 43.1371 38.8894C42.4651 39.4294 41.6011 39.6994 40.5451 39.6994ZM40.5451 31.6174C39.8251 31.6174 39.1831 31.8394 38.6191 32.2834C38.0671 32.7154 37.7491 33.3514 37.6651 34.1914H43.2811C43.2451 33.3874 42.9691 32.7574 42.4531 32.3014C41.9371 31.8454 41.3011 31.6174 40.5451 31.6174Z" fill="#01B9B8"/>
<path d="M47.3191 39.4834V30.5554H48.6871L48.7771 32.1574C49.0651 31.5934 49.4791 31.1494 50.0191 30.8254C50.5591 30.5014 51.1711 30.3394 51.8551 30.3394C52.9111 30.3394 53.7511 30.6634 54.3751 31.3114C55.0111 31.9474 55.3291 32.9314 55.3291 34.2634V39.4834H53.8171V34.4254C53.8171 32.5654 53.0491 31.6354 51.5131 31.6354C50.7451 31.6354 50.1031 31.9174 49.5871 32.4814C49.0831 33.0334 48.8311 33.8254 48.8311 34.8574V39.4834H47.3191Z" fill="#01B9B8"/>
<path d="M61.6879 39.4834C60.8719 39.4834 60.2299 39.2854 59.7619 38.8894C59.2939 38.4934 59.0599 37.7794 59.0599 36.7474V31.8334H57.5119V30.5554H59.0599L59.2579 28.4134H60.5719V30.5554H63.1999V31.8334H60.5719V36.7474C60.5719 37.3114 60.6859 37.6954 60.9139 37.8994C61.1419 38.0914 61.5439 38.1874 62.1199 38.1874H63.0559V39.4834H61.6879Z" fill="#01B9B8"/>
<path d="M74.4925 39.4834C73.6765 39.4834 73.0345 39.2854 72.5665 38.8894C72.0985 38.4934 71.8645 37.7794 71.8645 36.7474V31.8334H70.3165V30.5554H71.8645L72.0625 28.4134H73.3765V30.5554H76.0045V31.8334H73.3765V36.7474C73.3765 37.3114 73.4905 37.6954 73.7185 37.8994C73.9465 38.0914 74.3485 38.1874 74.9245 38.1874H75.8605V39.4834H74.4925Z" fill="#01B9B8"/>
<path d="M78.4654 39.4834V26.5234H79.9774V32.0854C80.2774 31.5334 80.7034 31.1074 81.2554 30.8074C81.8074 30.4954 82.4074 30.3394 83.0554 30.3394C84.0874 30.3394 84.9154 30.6634 85.5394 31.3114C86.1634 31.9474 86.4754 32.9314 86.4754 34.2634V39.4834H84.9814V34.4254C84.9814 32.5654 84.2314 31.6354 82.7314 31.6354C81.9514 31.6354 81.2974 31.9174 80.7694 32.4814C80.2414 33.0334 79.9774 33.8254 79.9774 34.8574V39.4834H78.4654Z" fill="#01B9B8"/>
<path d="M93.3202 39.6994C92.4682 39.6994 91.7122 39.5074 91.0522 39.1234C90.3922 38.7274 89.8702 38.1814 89.4862 37.4854C89.1142 36.7894 88.9282 35.9674 88.9282 35.0194C88.9282 34.0834 89.1142 33.2674 89.4862 32.5714C89.8582 31.8634 90.3742 31.3174 91.0342 30.9334C91.7062 30.5374 92.4802 30.3394 93.3562 30.3394C94.2202 30.3394 94.9642 30.5374 95.5882 30.9334C96.2242 31.3174 96.7102 31.8274 97.0462 32.4634C97.3822 33.0994 97.5502 33.7834 97.5502 34.5154C97.5502 34.6474 97.5442 34.7794 97.5322 34.9114C97.5322 35.0434 97.5322 35.1934 97.5322 35.3614H90.4222C90.4582 36.0454 90.6142 36.6154 90.8902 37.0714C91.1782 37.5154 91.5322 37.8514 91.9522 38.0794C92.3842 38.3074 92.8402 38.4214 93.3202 38.4214C93.9442 38.4214 94.4662 38.2774 94.8862 37.9894C95.3062 37.7014 95.6122 37.3114 95.8042 36.8194H97.2982C97.0582 37.6474 96.5962 38.3374 95.9122 38.8894C95.2402 39.4294 94.3762 39.6994 93.3202 39.6994ZM93.3202 31.6174C92.6002 31.6174 91.9582 31.8394 91.3942 32.2834C90.8422 32.7154 90.5242 33.3514 90.4402 34.1914H96.0562C96.0202 33.3874 95.7442 32.7574 95.2282 32.3014C94.7122 31.8454 94.0762 31.6174 93.3202 31.6174Z" fill="#01B9B8"/>
<path d="M100.094 39.4834V30.5554H101.462L101.552 32.1574C101.84 31.5934 102.254 31.1494 102.794 30.8254C103.334 30.5014 103.946 30.3394 104.63 30.3394C105.686 30.3394 106.526 30.6634 107.15 31.3114C107.786 31.9474 108.104 32.9314 108.104 34.2634V39.4834H106.592V34.4254C106.592 32.5654 105.824 31.6354 104.288 31.6354C103.52 31.6354 102.878 31.9174 102.362 32.4814C101.858 33.0334 101.606 33.8254 101.606 34.8574V39.4834H100.094Z" fill="#01B9B8"/>
<path d="M121.009 39.6994C120.277 39.6994 119.623 39.5494 119.047 39.2494C118.483 38.9494 118.051 38.5294 117.751 37.9894L117.607 39.4834H116.239V26.5234H117.751V32.0314C118.039 31.5994 118.447 31.2094 118.975 30.8614C119.515 30.5134 120.199 30.3394 121.027 30.3394C121.915 30.3394 122.689 30.5434 123.349 30.9514C124.009 31.3594 124.519 31.9174 124.879 32.6254C125.251 33.3334 125.437 34.1374 125.437 35.0374C125.437 35.9374 125.251 36.7414 124.879 37.4494C124.519 38.1454 124.003 38.6974 123.331 39.1054C122.671 39.5014 121.897 39.6994 121.009 39.6994ZM120.847 38.3854C121.447 38.3854 121.975 38.2474 122.431 37.9714C122.887 37.6834 123.247 37.2874 123.511 36.7834C123.775 36.2794 123.907 35.6914 123.907 35.0194C123.907 34.3474 123.775 33.7594 123.511 33.2554C123.247 32.7514 122.887 32.3614 122.431 32.0854C121.975 31.7974 121.447 31.6534 120.847 31.6534C120.247 31.6534 119.719 31.7974 119.263 32.0854C118.807 32.3614 118.447 32.7514 118.183 33.2554C117.919 33.7594 117.787 34.3474 117.787 35.0194C117.787 35.6914 117.919 36.2794 118.183 36.7834C118.447 37.2874 118.807 37.6834 119.263 37.9714C119.719 38.2474 120.247 38.3854 120.847 38.3854Z" fill="#01B9B8"/>
<path d="M135.893 30.5554V39.4834H134.525L134.435 37.8814C134.147 38.4454 133.733 38.8894 133.193 39.2134C132.653 39.5374 132.041 39.6994 131.357 39.6994C130.301 39.6994 129.455 39.3814 128.819 38.7454C128.195 38.0974 127.883 37.1074 127.883 35.7754V30.5554H129.395V35.6134C129.395 37.4734 130.163 38.4034 131.699 38.4034C132.467 38.4034 133.103 38.1274 133.607 37.5754C134.123 37.0114 134.381 36.2134 134.381 35.1814V30.5554H135.893Z" fill="#01B9B8"/>
<path d="M139.894 43.4434L142.108 38.6194H141.586L138.04 30.5554H139.678L142.63 37.5034L145.762 30.5554H147.328L141.478 43.4434H139.894Z" fill="#01B9B8"/>
</svg>
