<svg width="100%" height="100%" viewBox="0 0 214 46" fill="none" xmlns="http://www.w3.org/2000/svg">
<path d="M203.553 40.3799C203.219 40.1066 202.975 39.7386 202.853 39.3241C202.798 39.1153 202.817 38.8942 202.907 38.6977C202.996 38.5013 203.149 38.3414 203.342 38.2449C203.578 38.1995 203.823 38.2176 204.05 38.2974C204.277 38.3772 204.479 38.5158 204.635 38.6991C204.79 38.883 204.982 39.032 205.198 39.1365C205.415 39.241 205.651 39.2986 205.891 39.3055C205.646 39.083 205.463 38.801 205.36 38.4868C205.256 38.1726 205.236 37.8369 205.3 37.5123C205.321 37.3793 205.378 37.2545 205.464 37.1508C205.713 36.8789 206.165 36.9961 206.463 37.2065C207.406 37.8807 207.675 39.1677 207.681 40.3275C207.734 39.9008 207.741 39.4696 207.701 39.0416C207.682 38.8269 207.716 38.6109 207.801 38.4126C207.885 38.2142 208.016 38.0395 208.183 37.9035C208.408 37.7818 208.662 37.7224 208.918 37.7313C209.13 37.7006 209.345 37.715 209.551 37.7736C209.757 37.8321 209.947 37.9335 210.111 38.071C210.268 38.2853 210.349 38.5463 210.34 38.812C210.331 39.0777 210.234 39.3328 210.062 39.5361C209.71 39.9344 209.293 40.2694 208.828 40.5268C208.474 40.7379 208.173 41.0259 207.946 41.3696C207.919 41.4176 207.897 41.4682 207.879 41.5206H205.206C204.606 41.2163 204.051 40.8326 203.553 40.3799Z" fill="#00A09C"/>
<path d="M146.707 41.2191C146.461 41.0174 146.281 40.7458 146.192 40.44C146.152 40.2861 146.166 40.1233 146.232 39.9786C146.298 39.8339 146.411 39.7162 146.553 39.6449C146.727 39.6122 146.907 39.6261 147.074 39.685C147.241 39.7439 147.39 39.8457 147.506 39.9804C147.621 40.1156 147.763 40.2253 147.922 40.3024C148.082 40.3794 148.256 40.4221 148.433 40.4278C148.253 40.2633 148.118 40.0548 148.041 39.8226C147.965 39.5904 147.95 39.3424 147.997 39.1026C148.014 39.0051 148.056 38.9136 148.118 38.8371C148.303 38.6404 148.636 38.7252 148.856 38.8816C149.557 39.3751 149.752 40.3265 149.757 41.1842C149.795 40.871 149.799 40.5547 149.77 40.2407C149.756 40.0825 149.782 39.9234 149.843 39.7773C149.905 39.6311 150.002 39.5023 150.125 39.4021C150.29 39.3131 150.476 39.2689 150.663 39.2738C150.82 39.2513 150.979 39.262 151.13 39.3052C151.282 39.3484 151.423 39.4231 151.544 39.5246C151.661 39.6818 151.721 39.8741 151.715 40.07C151.708 40.2659 151.636 40.4538 151.509 40.6032C151.248 40.8956 150.94 41.1422 150.597 41.3326C150.336 41.4886 150.113 41.7016 149.946 41.9559C149.927 41.9916 149.91 42.0286 149.897 42.0667H147.925C147.482 41.8412 147.073 41.5568 146.707 41.2213L146.707 41.2191Z" fill="#00A09C"/>
<path d="M135.106 44.558C134.859 44.3568 134.679 44.085 134.59 43.7788C134.549 43.6249 134.563 43.4616 134.629 43.3167C134.694 43.1718 134.808 43.0541 134.951 42.9837C135.125 42.9511 135.305 42.9649 135.472 43.0238C135.64 43.0827 135.788 43.1846 135.904 43.3193C136.019 43.4545 136.161 43.5642 136.321 43.6412C136.48 43.7183 136.654 43.761 136.832 43.7666C136.651 43.6025 136.515 43.394 136.439 43.1618C136.362 42.9295 136.347 42.6813 136.395 42.4415C136.411 42.3435 136.453 42.2516 136.517 42.1759C136.701 41.9793 137.034 42.0641 137.255 42.2205C137.955 42.7139 138.15 43.6654 138.155 44.523C138.193 44.2099 138.197 43.8936 138.168 43.5795C138.154 43.4214 138.18 43.2623 138.242 43.1161C138.304 42.97 138.4 42.8412 138.523 42.741C138.688 42.6516 138.874 42.6073 139.062 42.6127C139.218 42.5901 139.377 42.6008 139.529 42.644C139.68 42.6872 139.821 42.762 139.942 42.8634C140.059 43.0207 140.119 43.213 140.113 43.4089C140.106 43.6047 140.034 43.7927 139.907 43.9421C139.646 44.2345 139.338 44.481 138.996 44.6714C138.734 44.8267 138.511 45.0399 138.344 45.2948C138.323 45.3298 138.307 45.3669 138.295 45.4056H136.323C135.881 45.1798 135.471 44.8955 135.105 44.5601L135.106 44.558Z" fill="#00A09C"/>
<path opacity="0.1" d="M168.931 38.3308C191.423 38.3308 209.656 37.175 209.656 35.7494C209.656 34.3237 191.423 33.168 168.931 33.168C146.44 33.168 128.207 34.3237 128.207 35.7494C128.207 37.175 146.44 38.3308 168.931 38.3308Z" fill="#1C201F"/>
<path d="M129.249 30.5585C128.317 20.6695 144.277 16.5947 146.368 30.8766L188.581 32.1538C189.323 18.1698 205.703 18.561 206.339 31.7297C208.449 32.3106 210.649 32.4904 212.825 32.2598C213.517 28.3658 213.693 24.9786 212.187 23.2095C211.982 18.3553 207.247 15.897 200.38 14.5801L190.914 12.2394C183.706 6.48028 176.755 3.23252 169.969 1.58743C158.512 0.458724 147.154 1.04773 135.837 2.33284L135.52 3.93074C133.287 7.90694 128.901 11.3752 128.82 15.8556L129.148 18.7386C127.507 20.1192 126.666 22.1147 126.586 24.7024C126.541 27.815 127.244 29.9976 129.249 30.5585Z" fill="#00BAB9"/>
<path opacity="0.5" d="M176.411 4.97694C180.559 8.02961 190.075 12.1463 188.853 14.1355L142.487 11.4719C140.898 9.12174 140.885 6.42216 143.126 3.21999C156.065 1.89459 167.58 2.04144 176.411 4.97694Z" fill="white"/>
<path d="M143.126 3.22014C140.885 6.42284 140.898 9.12189 142.487 11.4721H142.495C141.149 9.21095 141.255 6.62642 143.365 3.5939C156.239 2.26691 167.691 2.41907 176.472 5.34661C180.236 8.13261 188.446 11.8024 188.934 13.9352C189.472 11.8808 180.422 7.92902 176.411 4.97444C167.58 2.04159 156.065 1.89474 143.126 3.22014Z" fill="#003A39"/>
<path d="M162.732 2.70587L159.295 2.57227L160.032 12.0569L164.551 12.322L162.732 2.70587Z" fill="#003A39"/>
<path d="M182.875 13.7889L188.85 14.1329C188.888 14.0717 188.917 14.0055 188.937 13.9362C188.655 12.7102 185.821 10.97 182.75 9.19434C182.983 9.91326 183.13 10.6571 183.189 11.4105C183.25 12.2165 183.144 13.0264 182.875 13.7889Z" fill="#003A39"/>
<path opacity="0.5" d="M130.648 10.7588C129.612 12.3604 128.856 14.0272 128.823 15.8653L129.146 18.7387C129.146 18.7387 132.758 14.9857 133.025 14.6396C133.291 14.2934 132.944 13.4679 132.813 12.9621C132.332 12.0245 131.576 11.2559 130.648 10.7588V10.7588Z" fill="white"/>
<path opacity="0.5" d="M203.15 16.8218C203.343 17.009 208.093 20.6496 208.573 21.0271C209.053 21.4045 209.155 21.3451 210.115 21.7725C210.864 22.1612 211.561 22.6448 212.187 23.2113C212.144 22.1559 211.856 21.1251 211.344 20.2014C210.832 19.2776 210.112 18.4865 209.241 17.8912C207.668 17.467 206.223 17.0959 205.915 17.035C205.228 16.9014 202.963 16.6357 203.15 16.8218Z" fill="white"/>
<path opacity="0.5" d="M211.337 29.1438C211.981 29.1438 212.508 28.4144 212.508 27.526C212.508 26.6376 211.981 25.9014 211.337 25.9014C210.694 25.9014 210.167 26.6307 210.167 27.526C210.167 28.4213 210.693 29.1438 211.337 29.1438Z" fill="white"/>
<path d="M205.755 31.7802L205.861 33.7287C206.78 33.9095 207.715 33.9999 208.652 33.9985C209.847 33.9487 212.587 33.6805 212.746 33.1467C212.843 32.8644 212.87 32.5626 212.826 32.2674C210.649 32.4982 208.448 32.3184 206.337 31.7373L205.755 31.7802Z" fill="#383435"/>
<path d="M166.692 15.7029C166.934 15.7029 167.171 15.631 167.372 15.4963C167.573 15.3616 167.73 15.1701 167.823 14.9461C167.915 14.722 167.94 14.4755 167.892 14.2378C167.845 14 167.728 13.7817 167.557 13.6103C167.385 13.439 167.167 13.3224 166.93 13.2753C166.692 13.2282 166.446 13.2527 166.222 13.3457C165.999 13.4387 165.807 13.596 165.673 13.7978C165.539 13.9995 165.467 14.2366 165.468 14.479C165.468 14.8038 165.597 15.1151 165.827 15.3446C166.056 15.574 166.367 15.7029 166.692 15.7029Z" fill="#167C77"/>
<path d="M164.039 13.9362L168.52 14.1524C168.631 14.1589 168.735 14.207 168.811 14.2871C168.887 14.3672 168.93 14.4732 168.931 14.5839V14.6782C168.932 14.7316 168.922 14.7846 168.901 14.8339C168.88 14.8831 168.85 14.9276 168.811 14.9645C168.773 15.0014 168.727 15.03 168.677 15.0485C168.627 15.0671 168.574 15.0751 168.52 15.0721L164.039 14.8548C163.929 14.8483 163.825 14.8 163.748 14.7197C163.672 14.6394 163.629 14.5331 163.628 14.4222V14.3289C163.628 14.2756 163.638 14.2228 163.659 14.1737C163.68 14.1245 163.71 14.0802 163.749 14.0434C163.787 14.0066 163.833 13.978 163.883 13.9596C163.933 13.9412 163.986 13.9332 164.039 13.9362Z" fill="#167C77"/>
<path d="M144.686 14.4615C144.928 14.4615 145.164 14.3897 145.365 14.2553C145.566 14.1208 145.723 13.9297 145.815 13.7061C145.908 13.4825 145.932 13.2364 145.885 12.999C145.838 12.7616 145.722 12.5435 145.551 12.3723C145.38 12.2011 145.162 12.0845 144.925 12.0373C144.688 11.99 144.442 12.0141 144.218 12.1067C143.995 12.1992 143.804 12.356 143.67 12.5572C143.535 12.7584 143.464 12.995 143.463 13.2371C143.463 13.3978 143.495 13.557 143.556 13.7056C143.618 13.8542 143.708 13.9891 143.821 14.1029C143.935 14.2166 144.07 14.3068 144.218 14.3683C144.366 14.4298 144.525 14.4615 144.686 14.4615Z" fill="#167C77"/>
<path d="M142.094 12.693L146.573 12.9093C146.684 12.9158 146.788 12.9641 146.864 13.0443C146.941 13.1246 146.984 13.2309 146.985 13.3418V13.435C146.986 13.4884 146.975 13.5413 146.955 13.5904C146.934 13.6395 146.903 13.6839 146.864 13.7206C146.826 13.7574 146.78 13.7859 146.73 13.8042C146.68 13.8225 146.627 13.8304 146.573 13.8273L142.094 13.6116C141.983 13.6051 141.879 13.5571 141.803 13.477C141.726 13.397 141.683 13.2909 141.681 13.1801V13.0979C141.679 13.0436 141.689 12.9893 141.709 12.9388C141.729 12.8882 141.759 12.8424 141.798 12.8043C141.837 12.7662 141.883 12.7366 141.934 12.7174C141.985 12.6983 142.039 12.6899 142.094 12.693Z" fill="#167C77"/>
<path d="M137.73 37.3296C139.16 37.3285 140.557 36.903 141.746 36.1067C142.934 35.3105 143.86 34.1793 144.407 32.8562C144.953 31.533 145.096 30.0773 144.816 28.6731C144.537 27.2689 143.847 25.9792 142.836 24.967C141.825 23.9548 140.536 23.2656 139.134 22.9865C137.731 22.7075 136.278 22.851 134.956 23.399C133.635 23.9471 132.506 24.875 131.712 26.0655C130.917 27.256 130.493 28.6557 130.493 30.0875C130.493 31.039 130.68 31.9811 131.044 32.8601C131.407 33.7391 131.94 34.5377 132.612 35.2102C133.285 35.8828 134.082 36.4161 134.96 36.7798C135.838 37.1434 136.779 37.3303 137.73 37.3296Z" fill="#0A706B"/>
<path d="M137.73 35.6894C138.836 35.6896 139.917 35.3614 140.836 34.7463C141.756 34.1312 142.473 33.2568 142.897 32.2338C143.32 31.2107 143.431 30.0848 143.215 28.9986C143 27.9124 142.468 26.9145 141.686 26.1312C140.904 25.348 139.908 24.8144 138.823 24.5981C137.738 24.3818 136.614 24.4924 135.592 24.9159C134.57 25.3395 133.696 26.0569 133.082 26.9776C132.467 27.8982 132.139 28.9807 132.138 30.0882C132.138 30.8236 132.283 31.5518 132.564 32.2313C132.844 32.9108 133.256 33.5282 133.775 34.0484C134.295 34.5685 134.911 34.9811 135.589 35.2627C136.268 35.5442 136.995 35.6892 137.73 35.6894Z" fill="#00BAB9"/>
<path d="M137.73 35.0942C138.718 35.0942 139.684 34.8009 140.505 34.2512C141.327 33.7015 141.968 32.9202 142.346 32.0061C142.724 31.092 142.823 30.0861 142.631 29.1156C142.438 28.1451 141.963 27.2535 141.264 26.5536C140.566 25.8537 139.675 25.3769 138.706 25.1834C137.737 24.99 136.733 25.0887 135.819 25.4669C134.906 25.8451 134.126 26.4859 133.576 27.3084C133.027 28.1308 132.733 29.0979 132.733 30.0874C132.732 30.7448 132.861 31.3958 133.112 32.0032C133.363 32.6106 133.731 33.1626 134.195 33.6276C134.659 34.0925 135.21 34.4614 135.817 34.7131C136.423 34.9647 137.073 35.0942 137.73 35.0942Z" fill="#00BAB9"/>
<path d="M137.73 22.8504C139.647 22.8504 141.487 23.6132 142.843 24.9712C144.199 26.3291 144.961 28.1709 144.961 30.0913C144.961 30.2694 144.954 30.446 144.941 30.6214L146.37 30.8802C144.277 16.5955 128.324 20.6698 129.249 30.5599C129.249 30.5599 129.805 30.464 130.504 30.3399V30.0918C130.503 28.1722 131.264 26.3311 132.619 24.9732C133.974 23.6153 135.813 22.8518 137.73 22.8504Z" fill="#003A39"/>
<path d="M197.542 37.3305C198.94 37.3305 200.307 36.9153 201.47 36.1373C202.633 35.3593 203.539 34.2535 204.075 32.9597C204.61 31.666 204.75 30.2424 204.477 28.8689C204.204 27.4955 203.531 26.2339 202.542 25.2437C201.553 24.2535 200.293 23.5792 198.921 23.306C197.55 23.0328 196.128 23.173 194.836 23.7089C193.544 24.2448 192.44 25.1523 191.663 26.3166C190.886 27.481 190.471 28.8499 190.471 30.2502C190.471 32.128 191.216 33.9289 192.542 35.2567C193.868 36.5845 195.667 37.3305 197.542 37.3305Z" fill="#0A706B"/>
<path d="M197.542 35.8484C198.648 35.8482 199.728 35.5197 200.648 34.9044C201.567 34.2891 202.284 33.4146 202.707 32.3916C203.13 31.3686 203.24 30.243 203.024 29.157C202.808 28.0711 202.276 27.0736 201.494 26.2908C200.712 25.5079 199.716 24.9748 198.631 24.7589C197.547 24.5429 196.423 24.6539 195.401 25.0776C194.379 25.5014 193.506 26.219 192.892 27.1396C192.278 28.0603 191.95 29.1427 191.95 30.2499C191.95 30.9852 192.094 31.7133 192.375 32.3926C192.657 33.0719 193.068 33.6891 193.588 34.209C194.107 34.7289 194.723 35.1413 195.402 35.4226C196.08 35.7039 196.808 35.8486 197.542 35.8484Z" fill="#00BAB9"/>
<path d="M197.542 35.1443C198.509 35.1443 199.454 34.8573 200.258 34.3195C201.061 33.7817 201.688 33.0174 202.058 32.1231C202.428 31.2287 202.525 30.2447 202.336 29.2952C202.147 28.3458 201.682 27.4737 200.998 26.7892C200.315 26.1047 199.444 25.6385 198.496 25.4496C197.548 25.2607 196.565 25.3575 195.672 25.7279C194.779 26.0983 194.015 26.7255 193.478 27.5303C192.941 28.3351 192.654 29.2814 192.654 30.2494C192.654 30.8922 192.78 31.5287 193.026 32.1226C193.272 32.7164 193.632 33.2561 194.086 33.7106C194.539 34.1652 195.078 34.5257 195.671 34.7717C196.264 35.0177 196.9 35.1443 197.542 35.1443Z" fill="#00BAB9"/>
<path d="M206.339 31.7279C205.707 18.6165 189.46 18.1759 188.591 31.9818L190.796 32.381C190.469 31.3443 190.386 30.2462 190.551 29.1719C190.717 28.0976 191.127 27.0759 191.751 26.186C192.374 25.296 193.194 24.5617 194.146 24.0399C195.098 23.5181 196.158 23.2228 197.242 23.1769C198.327 23.1311 199.408 23.3358 200.401 23.7753C201.393 24.2148 202.272 24.8773 202.968 25.7114C203.664 26.5455 204.159 27.5289 204.415 28.5854C204.67 29.6419 204.68 30.7431 204.442 31.8037L205.788 32.4781L205.751 31.7809L206.339 31.7279Z" fill="#003A39"/>
<path d="M162.291 12.6751C162.291 12.6751 163.09 16.6985 163.303 18.4066C163.515 20.1148 164.21 29.7452 164.21 29.7452L163.863 29.7982C163.863 29.7982 163.29 21.4365 163.103 19.6234C162.916 17.8102 161.933 12.6533 161.933 12.6533L162.291 12.6751Z" fill="#167C77"/>
<path d="M150.768 29.9278L171.423 30.0072L171.982 29.7425L148.934 29.6631L150.768 29.9278Z" fill="#167C77"/>
<path opacity="0.5" d="M190.511 19.1501C191.215 19.1501 191.787 18.9222 191.787 18.6444C191.787 18.3667 191.215 18.1377 190.511 18.1377C189.808 18.1377 189.235 18.3656 189.235 18.6444C189.235 18.9232 189.808 19.1501 190.511 19.1501Z" fill="white"/>
<path d="M188.582 32.1548L146.368 30.8779C146.368 30.8779 146.091 32.2964 146.291 32.8328C146.492 33.3692 184.002 33.9114 187.083 33.7763C190.164 33.6411 188.582 32.1548 188.582 32.1548Z" fill="#003A39"/>
<path d="M139.164 25.2823V25.4641L137.734 30.1975L136.591 25.2097C137.44 25.0097 138.327 25.0348 139.164 25.2823Z" fill="#0A706B"/>
<path d="M139.154 34.8994C138.336 35.1418 137.47 35.1714 136.638 34.9852L137.736 30.1982L139.154 34.8994Z" fill="#0A706B"/>
<path d="M142.727 30.0882C142.728 30.6099 142.648 31.1286 142.489 31.6254H142.464L137.736 30.1985L142.624 29.0742C142.692 29.4079 142.727 29.7476 142.727 30.0882H142.727Z" fill="#0A706B"/>
<path d="M137.736 30.1986L133.008 31.6298H132.971C132.708 30.8008 132.662 29.9182 132.838 29.0664L137.736 30.1986Z" fill="#0A706B"/>
<path d="M198.976 25.3308V25.5127L197.552 30.245L196.407 25.2566C197.255 25.0574 198.141 25.083 198.976 25.3308Z" fill="#0A706B"/>
<path d="M198.965 34.9414C198.148 35.1839 197.282 35.2142 196.45 35.0293L197.553 30.2461L198.965 34.9414Z" fill="#0A706B"/>
<path d="M202.535 30.1371C202.536 30.6588 202.455 31.1775 202.296 31.6743H202.272L197.553 30.2453L202.442 29.1221C202.507 29.4564 202.538 29.7965 202.535 30.1371Z" fill="#0A706B"/>
<path d="M197.553 30.2455L192.826 31.6746H192.789C192.526 30.8463 192.48 29.9643 192.656 29.1133L197.553 30.2455Z" fill="#0A706B"/>
<path d="M197.547 31.1184C198.027 31.1184 198.416 30.7292 198.416 30.2492C198.416 29.7691 198.027 29.3799 197.547 29.3799C197.068 29.3799 196.679 29.7691 196.679 30.2492C196.679 30.7292 197.068 31.1184 197.547 31.1184Z" fill="#04443F"/>
<path d="M137.736 31.1184C138.216 31.1184 138.604 30.7292 138.604 30.2492C138.604 29.7691 138.216 29.3799 137.736 29.3799C137.256 29.3799 136.868 29.7691 136.868 30.2492C136.868 30.7292 137.256 31.1184 137.736 31.1184Z" fill="#04443F"/>
<rect x="0.624695" y="33.9336" width="97.5298" height="1" fill="#777777"/>
</svg>
