<svg width="100%" height="100%" viewBox="0 0 386 385" fill="none" xmlns="http://www.w3.org/2000/svg">
<rect x="1.05371" y="0.5" width="383.989" height="383.989" fill="#9FD6FF" stroke="black"/>
<path d="M30.2129 49.3672H360.209V244.48H30.2129V49.3672Z" stroke="#6AA4FF"/>
<path d="M55.8091 77.957H205.096V218.89H55.8091V77.957Z" stroke="#6AA4FF"/>
<path d="M229.223 89.457V78.957H232.673C233.493 78.957 234.168 79.092 234.698 79.362C235.228 79.632 235.618 79.997 235.868 80.457C236.128 80.917 236.258 81.437 236.258 82.017C236.258 82.587 236.133 83.102 235.883 83.562C235.633 84.022 235.243 84.392 234.713 84.672C234.183 84.942 233.503 85.077 232.673 85.077H230.483V89.457H229.223ZM230.483 84.012H232.643C233.483 84.012 234.078 83.837 234.428 83.487C234.788 83.127 234.968 82.637 234.968 82.017C234.968 81.387 234.788 80.897 234.428 80.547C234.078 80.187 233.483 80.007 232.643 80.007H230.483V84.012Z" fill="#6AA4FF"/>
<path d="M237.835 89.457V78.657H239.095V89.457H237.835Z" fill="#6AA4FF"/>
<path d="M243.635 89.637C243.015 89.637 242.5 89.532 242.09 89.322C241.68 89.112 241.375 88.832 241.175 88.482C240.975 88.132 240.875 87.752 240.875 87.342C240.875 86.582 241.165 85.997 241.745 85.587C242.325 85.177 243.115 84.972 244.115 84.972H246.125V84.882C246.125 84.232 245.955 83.742 245.615 83.412C245.275 83.072 244.82 82.902 244.25 82.902C243.76 82.902 243.335 83.027 242.975 83.277C242.625 83.517 242.405 83.872 242.315 84.342H241.025C241.075 83.802 241.255 83.347 241.565 82.977C241.885 82.607 242.28 82.327 242.75 82.137C243.22 81.937 243.72 81.837 244.25 81.837C245.29 81.837 246.07 82.117 246.59 82.677C247.12 83.227 247.385 83.962 247.385 84.882V89.457H246.26L246.185 88.122C245.975 88.542 245.665 88.902 245.255 89.202C244.855 89.492 244.315 89.637 243.635 89.637ZM243.83 88.572C244.31 88.572 244.72 88.447 245.06 88.197C245.41 87.947 245.675 87.622 245.855 87.222C246.035 86.822 246.125 86.402 246.125 85.962V85.947H244.22C243.48 85.947 242.955 86.077 242.645 86.337C242.345 86.587 242.195 86.902 242.195 87.282C242.195 87.672 242.335 87.987 242.615 88.227C242.905 88.457 243.31 88.572 243.83 88.572Z" fill="#6AA4FF"/>
<path d="M249.275 89.457V82.017H250.415L250.49 83.352C250.73 82.882 251.075 82.512 251.525 82.242C251.975 81.972 252.485 81.837 253.055 81.837C253.935 81.837 254.635 82.107 255.155 82.647C255.685 83.177 255.95 83.997 255.95 85.107V89.457H254.69V85.242C254.69 83.692 254.05 82.917 252.77 82.917C252.13 82.917 251.595 83.152 251.165 83.622C250.745 84.082 250.535 84.742 250.535 85.602V89.457H249.275Z" fill="#6AA4FF"/>
<path d="M257.859 89.457V82.017H258.999L259.074 83.352C259.314 82.882 259.659 82.512 260.109 82.242C260.559 81.972 261.069 81.837 261.639 81.837C262.519 81.837 263.219 82.107 263.739 82.647C264.269 83.177 264.534 83.997 264.534 85.107V89.457H263.274V85.242C263.274 83.692 262.634 82.917 261.354 82.917C260.714 82.917 260.179 83.152 259.749 83.622C259.329 84.082 259.119 84.742 259.119 85.602V89.457H257.859Z" fill="#6AA4FF"/>
<path d="M267.208 80.367C266.958 80.367 266.748 80.287 266.578 80.127C266.418 79.957 266.338 79.747 266.338 79.497C266.338 79.257 266.418 79.057 266.578 78.897C266.748 78.737 266.958 78.657 267.208 78.657C267.448 78.657 267.653 78.737 267.823 78.897C267.993 79.057 268.078 79.257 268.078 79.497C268.078 79.747 267.993 79.957 267.823 80.127C267.653 80.287 267.448 80.367 267.208 80.367ZM266.578 89.457V82.017H267.838V89.457H266.578Z" fill="#6AA4FF"/>
<path d="M270.032 89.457V82.017H271.172L271.247 83.352C271.487 82.882 271.832 82.512 272.282 82.242C272.732 81.972 273.242 81.837 273.812 81.837C274.692 81.837 275.392 82.107 275.912 82.647C276.442 83.177 276.707 83.997 276.707 85.107V89.457H275.447V85.242C275.447 83.692 274.807 82.917 273.527 82.917C272.887 82.917 272.352 83.152 271.922 83.622C271.502 84.082 271.292 84.742 271.292 85.602V89.457H270.032Z" fill="#6AA4FF"/>
<path d="M281.556 87.117C281.136 87.117 280.751 87.062 280.401 86.952L279.651 87.657C279.761 87.737 279.896 87.807 280.056 87.867C280.226 87.917 280.466 87.967 280.776 88.017C281.086 88.057 281.521 88.102 282.081 88.152C283.081 88.222 283.796 88.452 284.226 88.842C284.656 89.232 284.871 89.742 284.871 90.372C284.871 90.802 284.751 91.212 284.511 91.602C284.281 91.992 283.921 92.312 283.431 92.562C282.951 92.812 282.331 92.937 281.571 92.937C280.901 92.937 280.306 92.847 279.786 92.667C279.266 92.497 278.861 92.232 278.571 91.872C278.281 91.522 278.136 91.077 278.136 90.537C278.136 90.257 278.211 89.952 278.361 89.622C278.511 89.302 278.791 88.997 279.201 88.707C278.981 88.617 278.791 88.522 278.631 88.422C278.481 88.312 278.341 88.192 278.211 88.062V87.717L279.486 86.457C278.896 85.957 278.601 85.297 278.601 84.477C278.601 83.987 278.716 83.542 278.946 83.142C279.176 82.742 279.511 82.427 279.951 82.197C280.391 81.957 280.926 81.837 281.556 81.837C281.986 81.837 282.376 81.897 282.726 82.017H285.471V82.962L284.076 83.022C284.366 83.442 284.511 83.927 284.511 84.477C284.511 84.967 284.391 85.412 284.151 85.812C283.921 86.212 283.586 86.532 283.146 86.772C282.716 87.002 282.186 87.117 281.556 87.117ZM281.556 86.082C282.086 86.082 282.506 85.947 282.816 85.677C283.136 85.397 283.296 84.997 283.296 84.477C283.296 83.967 283.136 83.577 282.816 83.307C282.506 83.027 282.086 82.887 281.556 82.887C281.016 82.887 280.586 83.027 280.266 83.307C279.956 83.577 279.801 83.967 279.801 84.477C279.801 84.997 279.956 85.397 280.266 85.677C280.586 85.947 281.016 86.082 281.556 86.082ZM279.366 90.417C279.366 90.917 279.576 91.287 279.996 91.527C280.416 91.777 280.941 91.902 281.571 91.902C282.191 91.902 282.686 91.767 283.056 91.497C283.436 91.227 283.626 90.867 283.626 90.417C283.626 90.097 283.496 89.817 283.236 89.577C282.976 89.347 282.496 89.212 281.796 89.172C281.246 89.132 280.771 89.082 280.371 89.022C279.961 89.242 279.691 89.477 279.561 89.727C279.431 89.987 279.366 90.217 279.366 90.417Z" fill="#6AA4FF"/>
<path d="M293.802 89.457C293.122 89.457 292.587 89.292 292.197 88.962C291.807 88.632 291.612 88.037 291.612 87.177V83.082H290.322V82.017H291.612L291.777 80.232H292.872V82.017H295.062V83.082H292.872V87.177C292.872 87.647 292.967 87.967 293.157 88.137C293.347 88.297 293.682 88.377 294.162 88.377H294.942V89.457H293.802Z" fill="#6AA4FF"/>
<path d="M299.848 89.637C299.148 89.637 298.518 89.477 297.958 89.157C297.398 88.837 296.953 88.387 296.623 87.807C296.303 87.217 296.143 86.527 296.143 85.737C296.143 84.947 296.308 84.262 296.638 83.682C296.968 83.092 297.413 82.637 297.973 82.317C298.543 81.997 299.178 81.837 299.878 81.837C300.578 81.837 301.208 81.997 301.768 82.317C302.328 82.637 302.768 83.092 303.088 83.682C303.418 84.262 303.583 84.947 303.583 85.737C303.583 86.527 303.418 87.217 303.088 87.807C302.758 88.387 302.308 88.837 301.738 89.157C301.178 89.477 300.548 89.637 299.848 89.637ZM299.848 88.557C300.278 88.557 300.678 88.452 301.048 88.242C301.418 88.032 301.718 87.717 301.948 87.297C302.178 86.877 302.293 86.357 302.293 85.737C302.293 85.117 302.178 84.597 301.948 84.177C301.728 83.757 301.433 83.442 301.063 83.232C300.693 83.022 300.298 82.917 299.878 82.917C299.448 82.917 299.048 83.022 298.678 83.232C298.308 83.442 298.008 83.757 297.778 84.177C297.548 84.597 297.433 85.117 297.433 85.737C297.433 86.357 297.548 86.877 297.778 87.297C298.008 87.717 298.303 88.032 298.663 88.242C299.033 88.452 299.428 88.557 299.848 88.557Z" fill="#6AA4FF"/>
<path d="M313.279 89.637C312.669 89.637 312.124 89.512 311.644 89.262C311.174 89.012 310.814 88.662 310.564 88.212L310.444 89.457H309.304V78.657H310.564V83.247C310.804 82.887 311.144 82.562 311.584 82.272C312.034 81.982 312.604 81.837 313.294 81.837C314.034 81.837 314.679 82.007 315.229 82.347C315.779 82.687 316.204 83.152 316.504 83.742C316.814 84.332 316.969 85.002 316.969 85.752C316.969 86.502 316.814 87.172 316.504 87.762C316.204 88.342 315.774 88.802 315.214 89.142C314.664 89.472 314.019 89.637 313.279 89.637ZM313.144 88.542C313.644 88.542 314.084 88.427 314.464 88.197C314.844 87.957 315.144 87.627 315.364 87.207C315.584 86.787 315.694 86.297 315.694 85.737C315.694 85.177 315.584 84.687 315.364 84.267C315.144 83.847 314.844 83.522 314.464 83.292C314.084 83.052 313.644 82.932 313.144 82.932C312.644 82.932 312.204 83.052 311.824 83.292C311.444 83.522 311.144 83.847 310.924 84.267C310.704 84.687 310.594 85.177 310.594 85.737C310.594 86.297 310.704 86.787 310.924 87.207C311.144 87.627 311.444 87.957 311.824 88.197C312.204 88.427 312.644 88.542 313.144 88.542Z" fill="#6AA4FF"/>
<path d="M325.233 82.017V89.457H324.093L324.018 88.122C323.778 88.592 323.433 88.962 322.983 89.232C322.533 89.502 322.023 89.637 321.453 89.637C320.573 89.637 319.868 89.372 319.338 88.842C318.818 88.302 318.558 87.477 318.558 86.367V82.017H319.818V86.232C319.818 87.782 320.458 88.557 321.738 88.557C322.378 88.557 322.908 88.327 323.328 87.867C323.758 87.397 323.973 86.732 323.973 85.872V82.017H325.233Z" fill="#6AA4FF"/>
<path d="M328.117 92.757L329.962 88.737H329.527L326.572 82.017H327.937L330.397 87.807L333.007 82.017H334.312L329.437 92.757H328.117Z" fill="#6AA4FF"/>
<path d="M231.623 109.637C231.003 109.637 230.488 109.532 230.078 109.322C229.668 109.112 229.363 108.832 229.163 108.482C228.963 108.132 228.863 107.752 228.863 107.342C228.863 106.582 229.153 105.997 229.733 105.587C230.313 105.177 231.103 104.972 232.103 104.972H234.113V104.882C234.113 104.232 233.943 103.742 233.603 103.412C233.263 103.072 232.808 102.902 232.238 102.902C231.748 102.902 231.323 103.027 230.963 103.277C230.613 103.517 230.393 103.872 230.303 104.342H229.013C229.063 103.802 229.243 103.347 229.553 102.977C229.873 102.607 230.268 102.327 230.738 102.137C231.208 101.937 231.708 101.837 232.238 101.837C233.278 101.837 234.058 102.117 234.578 102.677C235.108 103.227 235.373 103.962 235.373 104.882V109.457H234.248L234.173 108.122C233.963 108.542 233.653 108.902 233.243 109.202C232.843 109.492 232.303 109.637 231.623 109.637ZM231.818 108.572C232.298 108.572 232.708 108.447 233.048 108.197C233.398 107.947 233.663 107.622 233.843 107.222C234.023 106.822 234.113 106.402 234.113 105.962V105.947H232.208C231.468 105.947 230.943 106.077 230.633 106.337C230.333 106.587 230.183 106.902 230.183 107.282C230.183 107.672 230.323 107.987 230.603 108.227C230.893 108.457 231.298 108.572 231.818 108.572Z" fill="#6AA4FF"/>
<path d="M244.653 109.637C243.943 109.637 243.303 109.477 242.733 109.157C242.173 108.827 241.728 108.372 241.398 107.792C241.078 107.202 240.918 106.517 240.918 105.737C240.918 104.957 241.078 104.277 241.398 103.697C241.728 103.107 242.173 102.652 242.733 102.332C243.303 102.002 243.943 101.837 244.653 101.837C245.533 101.837 246.273 102.067 246.873 102.527C247.483 102.987 247.868 103.602 248.028 104.372H246.738C246.638 103.912 246.393 103.557 246.003 103.307C245.613 103.047 245.158 102.917 244.638 102.917C244.218 102.917 243.823 103.022 243.453 103.232C243.083 103.442 242.783 103.757 242.553 104.177C242.323 104.597 242.208 105.117 242.208 105.737C242.208 106.357 242.323 106.877 242.553 107.297C242.783 107.717 243.083 108.037 243.453 108.257C243.823 108.467 244.218 108.572 244.638 108.572C245.158 108.572 245.613 108.447 246.003 108.197C246.393 107.937 246.638 107.572 246.738 107.102H248.028C247.878 107.852 247.498 108.462 246.888 108.932C246.278 109.402 245.533 109.637 244.653 109.637Z" fill="#6AA4FF"/>
<path d="M252.263 109.637C251.643 109.637 251.128 109.532 250.718 109.322C250.308 109.112 250.003 108.832 249.803 108.482C249.603 108.132 249.503 107.752 249.503 107.342C249.503 106.582 249.793 105.997 250.373 105.587C250.953 105.177 251.743 104.972 252.743 104.972H254.753V104.882C254.753 104.232 254.583 103.742 254.243 103.412C253.903 103.072 253.448 102.902 252.878 102.902C252.388 102.902 251.963 103.027 251.603 103.277C251.253 103.517 251.033 103.872 250.943 104.342H249.653C249.703 103.802 249.883 103.347 250.193 102.977C250.513 102.607 250.908 102.327 251.378 102.137C251.848 101.937 252.348 101.837 252.878 101.837C253.918 101.837 254.698 102.117 255.218 102.677C255.748 103.227 256.013 103.962 256.013 104.882V109.457H254.888L254.813 108.122C254.603 108.542 254.293 108.902 253.883 109.202C253.483 109.492 252.943 109.637 252.263 109.637ZM252.458 108.572C252.938 108.572 253.348 108.447 253.688 108.197C254.038 107.947 254.303 107.622 254.483 107.222C254.663 106.822 254.753 106.402 254.753 105.962V105.947H252.848C252.108 105.947 251.583 106.077 251.273 106.337C250.973 106.587 250.823 106.902 250.823 107.282C250.823 107.672 250.963 107.987 251.243 108.227C251.533 108.457 251.938 108.572 252.458 108.572Z" fill="#6AA4FF"/>
<path d="M257.903 109.457V102.017H259.043L259.148 103.442C259.378 102.952 259.728 102.562 260.198 102.272C260.668 101.982 261.248 101.837 261.938 101.837V103.157H261.593C261.153 103.157 260.748 103.237 260.378 103.397C260.008 103.547 259.713 103.807 259.493 104.177C259.273 104.547 259.163 105.057 259.163 105.707V109.457H257.903Z" fill="#6AA4FF"/>
<path d="M268.552 106.517L268.492 104.102H268.957C269.517 104.102 270.037 104.047 270.517 103.937C271.007 103.827 271.402 103.612 271.702 103.292C272.002 102.972 272.152 102.492 272.152 101.852C272.152 101.232 271.957 100.742 271.567 100.382C271.187 100.022 270.682 99.842 270.052 99.842C269.412 99.842 268.907 100.017 268.537 100.367C268.167 100.717 267.982 101.187 267.982 101.777H266.782C266.782 101.177 266.917 100.652 267.187 100.202C267.467 99.752 267.852 99.402 268.342 99.152C268.832 98.902 269.402 98.777 270.052 98.777C270.702 98.777 271.277 98.902 271.777 99.152C272.277 99.402 272.667 99.757 272.947 100.217C273.227 100.677 273.367 101.222 273.367 101.852C273.367 102.592 273.207 103.192 272.887 103.652C272.577 104.112 272.142 104.447 271.582 104.657C271.032 104.867 270.402 104.972 269.692 104.972L269.647 106.517H268.552ZM269.092 109.532C268.842 109.532 268.632 109.452 268.462 109.292C268.302 109.122 268.222 108.917 268.222 108.677C268.222 108.437 268.302 108.237 268.462 108.077C268.632 107.907 268.842 107.822 269.092 107.822C269.342 107.822 269.547 107.907 269.707 108.077C269.867 108.237 269.947 108.437 269.947 108.677C269.947 108.917 269.867 109.122 269.707 109.292C269.547 109.452 269.342 109.532 269.092 109.532Z" fill="#6AA4FF"/>
<rect x="228.321" y="194.412" width="58.3482" height="18.1946" fill="#6AA4FF"/>
<path d="M228.705 136.424V130.824H230.513C230.95 130.824 231.308 130.896 231.585 131.04C231.862 131.184 232.068 131.381 232.201 131.632C232.334 131.882 232.401 132.16 232.401 132.464C232.401 132.816 232.305 133.133 232.113 133.416C231.926 133.698 231.633 133.898 231.233 134.016L232.457 136.424H231.665L230.529 134.112H229.377V136.424H228.705ZM229.377 133.584H230.465C230.897 133.584 231.212 133.48 231.409 133.272C231.606 133.064 231.705 132.797 231.705 132.472C231.705 132.141 231.606 131.88 231.409 131.688C231.217 131.49 230.9 131.392 230.457 131.392H229.377V133.584Z" fill="#6AA4FF"/>
<path d="M234.949 136.52C234.57 136.52 234.234 136.434 233.941 136.264C233.648 136.088 233.416 135.845 233.245 135.536C233.08 135.226 232.997 134.861 232.997 134.44C232.997 134.024 233.08 133.661 233.245 133.352C233.41 133.037 233.64 132.794 233.933 132.624C234.232 132.448 234.576 132.36 234.965 132.36C235.349 132.36 235.68 132.448 235.957 132.624C236.24 132.794 236.456 133.021 236.605 133.304C236.754 133.586 236.829 133.89 236.829 134.216C236.829 134.274 236.826 134.333 236.821 134.392C236.821 134.45 236.821 134.517 236.821 134.592H233.661C233.677 134.896 233.746 135.149 233.869 135.352C233.997 135.549 234.154 135.698 234.341 135.8C234.533 135.901 234.736 135.952 234.949 135.952C235.226 135.952 235.458 135.888 235.645 135.76C235.832 135.632 235.968 135.458 236.053 135.24H236.717C236.61 135.608 236.405 135.914 236.101 136.16C235.802 136.4 235.418 136.52 234.949 136.52ZM234.949 132.928C234.629 132.928 234.344 133.026 234.093 133.224C233.848 133.416 233.706 133.698 233.669 134.072H236.165C236.149 133.714 236.026 133.434 235.797 133.232C235.568 133.029 235.285 132.928 234.949 132.928Z" fill="#6AA4FF"/>
<path d="M238.707 136.424L237.203 132.456H237.907L239.099 135.776L240.299 132.456H240.987L239.483 136.424H238.707Z" fill="#6AA4FF"/>
<path d="M242.879 136.424L241.375 132.456H242.079L243.271 135.776L244.471 132.456H245.159L243.655 136.424H242.879Z" fill="#6AA4FF"/>
<path d="M250.52 136.52C249.971 136.52 249.496 136.4 249.096 136.16C248.702 135.914 248.395 135.576 248.176 135.144C247.958 134.706 247.848 134.2 247.848 133.624C247.848 133.053 247.958 132.552 248.176 132.12C248.395 131.682 248.702 131.341 249.096 131.096C249.496 130.85 249.971 130.728 250.52 130.728C251.16 130.728 251.68 130.882 252.08 131.192C252.486 131.496 252.744 131.922 252.856 132.472H252.112C252.027 132.125 251.851 131.848 251.584 131.64C251.323 131.426 250.968 131.32 250.52 131.32C250.12 131.32 249.771 131.413 249.472 131.6C249.174 131.781 248.942 132.045 248.776 132.392C248.616 132.733 248.536 133.144 248.536 133.624C248.536 134.104 248.616 134.517 248.776 134.864C248.942 135.205 249.174 135.469 249.472 135.656C249.771 135.837 250.12 135.928 250.52 135.928C250.968 135.928 251.323 135.826 251.584 135.624C251.851 135.416 252.027 135.141 252.112 134.8H252.856C252.744 135.338 252.486 135.76 252.08 136.064C251.68 136.368 251.16 136.52 250.52 136.52Z" fill="#6AA4FF"/>
<path d="M255.102 136.52C254.772 136.52 254.497 136.464 254.278 136.352C254.06 136.24 253.897 136.09 253.79 135.904C253.684 135.717 253.63 135.514 253.63 135.296C253.63 134.89 253.785 134.578 254.094 134.36C254.404 134.141 254.825 134.032 255.358 134.032H256.43V133.984C256.43 133.637 256.34 133.376 256.158 133.2C255.977 133.018 255.734 132.928 255.43 132.928C255.169 132.928 254.942 132.994 254.75 133.128C254.564 133.256 254.446 133.445 254.398 133.696H253.71C253.737 133.408 253.833 133.165 253.998 132.968C254.169 132.77 254.38 132.621 254.63 132.52C254.881 132.413 255.148 132.36 255.43 132.36C255.985 132.36 256.401 132.509 256.678 132.808C256.961 133.101 257.102 133.493 257.102 133.984V136.424H256.502L256.462 135.712C256.35 135.936 256.185 136.128 255.966 136.288C255.753 136.442 255.465 136.52 255.102 136.52ZM255.206 135.952C255.462 135.952 255.681 135.885 255.862 135.752C256.049 135.618 256.19 135.445 256.286 135.232C256.382 135.018 256.43 134.794 256.43 134.56V134.552H255.414C255.02 134.552 254.74 134.621 254.574 134.76C254.414 134.893 254.334 135.061 254.334 135.264C254.334 135.472 254.409 135.64 254.558 135.768C254.713 135.89 254.929 135.952 255.206 135.952Z" fill="#6AA4FF"/>
<path d="M258.11 136.424V132.456H258.718L258.774 133.216C258.897 132.954 259.084 132.746 259.334 132.592C259.585 132.437 259.894 132.36 260.262 132.36V133.064H260.078C259.844 133.064 259.628 133.106 259.43 133.192C259.233 133.272 259.076 133.41 258.958 133.608C258.841 133.805 258.782 134.077 258.782 134.424V136.424H258.11Z" fill="#6AA4FF"/>
<path d="M260.729 132.608L261.193 130.824H261.945L261.209 132.608H260.729Z" fill="#6AA4FF"/>
<path d="M263.896 136.52C263.421 136.52 263.027 136.4 262.712 136.16C262.397 135.92 262.213 135.594 262.16 135.184H262.848C262.891 135.392 263 135.573 263.176 135.728C263.357 135.877 263.6 135.952 263.904 135.952C264.187 135.952 264.395 135.893 264.528 135.776C264.661 135.653 264.728 135.509 264.728 135.344C264.728 135.104 264.64 134.944 264.464 134.864C264.293 134.784 264.051 134.712 263.736 134.648C263.523 134.605 263.309 134.544 263.096 134.464C262.883 134.384 262.704 134.272 262.56 134.128C262.416 133.978 262.344 133.784 262.344 133.544C262.344 133.197 262.472 132.914 262.728 132.696C262.989 132.472 263.341 132.36 263.784 132.36C264.205 132.36 264.549 132.466 264.816 132.68C265.088 132.888 265.245 133.186 265.288 133.576H264.624C264.597 133.373 264.509 133.216 264.36 133.104C264.216 132.986 264.021 132.928 263.776 132.928C263.536 132.928 263.349 132.978 263.216 133.08C263.088 133.181 263.024 133.314 263.024 133.48C263.024 133.64 263.107 133.765 263.272 133.856C263.443 133.946 263.672 134.024 263.96 134.088C264.205 134.141 264.437 134.208 264.656 134.288C264.88 134.362 265.061 134.477 265.2 134.632C265.344 134.781 265.416 135 265.416 135.288C265.421 135.645 265.285 135.941 265.008 136.176C264.736 136.405 264.365 136.52 263.896 136.52Z" fill="#6AA4FF"/>
<path d="M269.637 136.424L268.133 132.456H268.837L270.029 135.776L271.229 132.456H271.917L270.413 136.424H269.637Z" fill="#6AA4FF"/>
<path d="M273.073 131.576C272.94 131.576 272.828 131.533 272.737 131.448C272.652 131.357 272.609 131.245 272.609 131.112C272.609 130.984 272.652 130.877 272.737 130.792C272.828 130.706 272.94 130.664 273.073 130.664C273.201 130.664 273.31 130.706 273.401 130.792C273.492 130.877 273.537 130.984 273.537 131.112C273.537 131.245 273.492 131.357 273.401 131.448C273.31 131.533 273.201 131.576 273.073 131.576ZM272.737 136.424V132.456H273.409V136.424H272.737Z" fill="#6AA4FF"/>
<path d="M276.099 136.52C275.624 136.52 275.23 136.4 274.915 136.16C274.6 135.92 274.416 135.594 274.363 135.184H275.051C275.094 135.392 275.203 135.573 275.379 135.728C275.56 135.877 275.803 135.952 276.107 135.952C276.39 135.952 276.598 135.893 276.731 135.776C276.864 135.653 276.931 135.509 276.931 135.344C276.931 135.104 276.843 134.944 276.667 134.864C276.496 134.784 276.254 134.712 275.939 134.648C275.726 134.605 275.512 134.544 275.299 134.464C275.086 134.384 274.907 134.272 274.763 134.128C274.619 133.978 274.547 133.784 274.547 133.544C274.547 133.197 274.675 132.914 274.931 132.696C275.192 132.472 275.544 132.36 275.987 132.36C276.408 132.36 276.752 132.466 277.019 132.68C277.291 132.888 277.448 133.186 277.491 133.576H276.827C276.8 133.373 276.712 133.216 276.563 133.104C276.419 132.986 276.224 132.928 275.979 132.928C275.739 132.928 275.552 132.978 275.419 133.08C275.291 133.181 275.227 133.314 275.227 133.48C275.227 133.64 275.31 133.765 275.475 133.856C275.646 133.946 275.875 134.024 276.163 134.088C276.408 134.141 276.64 134.208 276.859 134.288C277.083 134.362 277.264 134.477 277.403 134.632C277.547 134.781 277.619 135 277.619 135.288C277.624 135.645 277.488 135.941 277.211 136.176C276.939 136.405 276.568 136.52 276.099 136.52Z" fill="#6AA4FF"/>
<path d="M278.987 131.576C278.854 131.576 278.742 131.533 278.651 131.448C278.566 131.357 278.523 131.245 278.523 131.112C278.523 130.984 278.566 130.877 278.651 130.792C278.742 130.706 278.854 130.664 278.987 130.664C279.115 130.664 279.224 130.706 279.315 130.792C279.406 130.877 279.451 130.984 279.451 131.112C279.451 131.245 279.406 131.357 279.315 131.448C279.224 131.533 279.115 131.576 278.987 131.576ZM278.651 136.424V132.456H279.323V136.424H278.651Z" fill="#6AA4FF"/>
<path d="M282.301 136.52C281.928 136.52 281.592 136.434 281.293 136.264C280.995 136.093 280.757 135.853 280.581 135.544C280.411 135.229 280.325 134.861 280.325 134.44C280.325 134.018 280.413 133.653 280.589 133.344C280.765 133.029 281.003 132.786 281.301 132.616C281.605 132.445 281.944 132.36 282.317 132.36C282.691 132.36 283.027 132.445 283.325 132.616C283.624 132.786 283.859 133.029 284.029 133.344C284.205 133.653 284.293 134.018 284.293 134.44C284.293 134.861 284.205 135.229 284.029 135.544C283.853 135.853 283.613 136.093 283.309 136.264C283.011 136.434 282.675 136.52 282.301 136.52ZM282.301 135.944C282.531 135.944 282.744 135.888 282.941 135.776C283.139 135.664 283.299 135.496 283.421 135.272C283.544 135.048 283.605 134.77 283.605 134.44C283.605 134.109 283.544 133.832 283.421 133.608C283.304 133.384 283.147 133.216 282.949 133.104C282.752 132.992 282.541 132.936 282.317 132.936C282.088 132.936 281.875 132.992 281.677 133.104C281.48 133.216 281.32 133.384 281.197 133.608C281.075 133.832 281.013 134.109 281.013 134.44C281.013 134.77 281.075 135.048 281.197 135.272C281.32 135.496 281.477 135.664 281.669 135.776C281.867 135.888 282.077 135.944 282.301 135.944Z" fill="#6AA4FF"/>
<path d="M285.228 136.424V132.456H285.836L285.876 133.168C286.004 132.917 286.188 132.72 286.428 132.576C286.668 132.432 286.94 132.36 287.244 132.36C287.713 132.36 288.086 132.504 288.364 132.792C288.646 133.074 288.788 133.512 288.788 134.104V136.424H288.116V134.176C288.116 133.349 287.774 132.936 287.092 132.936C286.75 132.936 286.465 133.061 286.236 133.312C286.012 133.557 285.9 133.909 285.9 134.368V136.424H285.228Z" fill="#6AA4FF"/>
<path d="M293.491 136.424C293.128 136.424 292.843 136.336 292.635 136.16C292.427 135.984 292.323 135.666 292.323 135.208V133.024H291.635V132.456H292.323L292.411 131.504H292.995V132.456H294.163V133.024H292.995V135.208C292.995 135.458 293.046 135.629 293.147 135.72C293.248 135.805 293.427 135.848 293.683 135.848H294.099V136.424H293.491Z" fill="#6AA4FF"/>
<path d="M296.715 136.52C296.342 136.52 296.006 136.434 295.707 136.264C295.409 136.093 295.171 135.853 294.995 135.544C294.825 135.229 294.739 134.861 294.739 134.44C294.739 134.018 294.827 133.653 295.003 133.344C295.179 133.029 295.417 132.786 295.715 132.616C296.019 132.445 296.358 132.36 296.731 132.36C297.105 132.36 297.441 132.445 297.739 132.616C298.038 132.786 298.273 133.029 298.443 133.344C298.619 133.653 298.707 134.018 298.707 134.44C298.707 134.861 298.619 135.229 298.443 135.544C298.267 135.853 298.027 136.093 297.723 136.264C297.425 136.434 297.089 136.52 296.715 136.52ZM296.715 135.944C296.945 135.944 297.158 135.888 297.355 135.776C297.553 135.664 297.713 135.496 297.835 135.272C297.958 135.048 298.019 134.77 298.019 134.44C298.019 134.109 297.958 133.832 297.835 133.608C297.718 133.384 297.561 133.216 297.363 133.104C297.166 132.992 296.955 132.936 296.731 132.936C296.502 132.936 296.289 132.992 296.091 133.104C295.894 133.216 295.734 133.384 295.611 133.608C295.489 133.832 295.427 134.109 295.427 134.44C295.427 134.77 295.489 135.048 295.611 135.272C295.734 135.496 295.891 135.664 296.083 135.776C296.281 135.888 296.491 135.944 296.715 135.944Z" fill="#6AA4FF"/>
<path d="M303.559 136.52C303.164 136.52 302.817 136.429 302.519 136.248C302.225 136.066 301.996 135.818 301.831 135.504C301.671 135.189 301.591 134.832 301.591 134.432C301.591 134.032 301.673 133.677 301.839 133.368C302.004 133.053 302.233 132.808 302.527 132.632C302.82 132.45 303.167 132.36 303.567 132.36C303.892 132.36 304.18 132.426 304.431 132.56C304.681 132.693 304.876 132.88 305.015 133.12V130.664H305.687V136.424H305.079L305.015 135.768C304.887 135.96 304.703 136.133 304.463 136.288C304.223 136.442 303.921 136.52 303.559 136.52ZM303.631 135.936C303.897 135.936 304.132 135.874 304.335 135.752C304.543 135.624 304.703 135.448 304.815 135.224C304.932 135 304.991 134.738 304.991 134.44C304.991 134.141 304.932 133.88 304.815 133.656C304.703 133.432 304.543 133.258 304.335 133.136C304.132 133.008 303.897 132.944 303.631 132.944C303.369 132.944 303.135 133.008 302.927 133.136C302.724 133.258 302.564 133.432 302.447 133.656C302.335 133.88 302.279 134.141 302.279 134.44C302.279 134.738 302.335 135 302.447 135.224C302.564 135.448 302.724 135.624 302.927 135.752C303.135 135.874 303.369 135.936 303.631 135.936Z" fill="#6AA4FF"/>
<path d="M308.566 136.52C308.188 136.52 307.852 136.434 307.558 136.264C307.265 136.088 307.033 135.845 306.862 135.536C306.697 135.226 306.614 134.861 306.614 134.44C306.614 134.024 306.697 133.661 306.862 133.352C307.028 133.037 307.257 132.794 307.55 132.624C307.849 132.448 308.193 132.36 308.582 132.36C308.966 132.36 309.297 132.448 309.574 132.624C309.857 132.794 310.073 133.021 310.222 133.304C310.372 133.586 310.446 133.89 310.446 134.216C310.446 134.274 310.444 134.333 310.438 134.392C310.438 134.45 310.438 134.517 310.438 134.592H307.278C307.294 134.896 307.364 135.149 307.486 135.352C307.614 135.549 307.772 135.698 307.958 135.8C308.15 135.901 308.353 135.952 308.566 135.952C308.844 135.952 309.076 135.888 309.262 135.76C309.449 135.632 309.585 135.458 309.67 135.24H310.334C310.228 135.608 310.022 135.914 309.718 136.16C309.42 136.4 309.036 136.52 308.566 136.52ZM308.566 132.928C308.246 132.928 307.961 133.026 307.71 133.224C307.465 133.416 307.324 133.698 307.286 134.072H309.782C309.766 133.714 309.644 133.434 309.414 133.232C309.185 133.029 308.902 132.928 308.566 132.928Z" fill="#6AA4FF"/>
<path d="M312.325 136.424L310.821 132.456H311.525L312.717 135.776L313.917 132.456H314.605L313.101 136.424H312.325Z" fill="#6AA4FF"/>
<path d="M316.933 136.52C316.555 136.52 316.219 136.434 315.925 136.264C315.632 136.088 315.4 135.845 315.229 135.536C315.064 135.226 314.981 134.861 314.981 134.44C314.981 134.024 315.064 133.661 315.229 133.352C315.395 133.037 315.624 132.794 315.917 132.624C316.216 132.448 316.56 132.36 316.949 132.36C317.333 132.36 317.664 132.448 317.941 132.624C318.224 132.794 318.44 133.021 318.589 133.304C318.739 133.586 318.813 133.89 318.813 134.216C318.813 134.274 318.811 134.333 318.805 134.392C318.805 134.45 318.805 134.517 318.805 134.592H315.645C315.661 134.896 315.731 135.149 315.853 135.352C315.981 135.549 316.139 135.698 316.325 135.8C316.517 135.901 316.72 135.952 316.933 135.952C317.211 135.952 317.443 135.888 317.629 135.76C317.816 135.632 317.952 135.458 318.037 135.24H318.701C318.595 135.608 318.389 135.914 318.085 136.16C317.787 136.4 317.403 136.52 316.933 136.52ZM316.933 132.928C316.613 132.928 316.328 133.026 316.077 133.224C315.832 133.416 315.691 133.698 315.653 134.072H318.149C318.133 133.714 318.011 133.434 317.781 133.232C317.552 133.029 317.269 132.928 316.933 132.928Z" fill="#6AA4FF"/>
<path d="M321.512 136.52C321.139 136.52 320.803 136.434 320.504 136.264C320.205 136.093 319.968 135.853 319.792 135.544C319.621 135.229 319.536 134.861 319.536 134.44C319.536 134.018 319.624 133.653 319.8 133.344C319.976 133.029 320.213 132.786 320.512 132.616C320.816 132.445 321.155 132.36 321.528 132.36C321.901 132.36 322.237 132.445 322.536 132.616C322.835 132.786 323.069 133.029 323.24 133.344C323.416 133.653 323.504 134.018 323.504 134.44C323.504 134.861 323.416 135.229 323.24 135.544C323.064 135.853 322.824 136.093 322.52 136.264C322.221 136.434 321.885 136.52 321.512 136.52ZM321.512 135.944C321.741 135.944 321.955 135.888 322.152 135.776C322.349 135.664 322.509 135.496 322.632 135.272C322.755 135.048 322.816 134.77 322.816 134.44C322.816 134.109 322.755 133.832 322.632 133.608C322.515 133.384 322.357 133.216 322.16 133.104C321.963 132.992 321.752 132.936 321.528 132.936C321.299 132.936 321.085 132.992 320.888 133.104C320.691 133.216 320.531 133.384 320.408 133.608C320.285 133.832 320.224 134.109 320.224 134.44C320.224 134.77 320.285 135.048 320.408 135.272C320.531 135.496 320.688 135.664 320.88 135.776C321.077 135.888 321.288 135.944 321.512 135.944Z" fill="#6AA4FF"/>
<path d="M324.438 138.184V132.456H325.047L325.11 133.112C325.238 132.92 325.42 132.746 325.655 132.592C325.895 132.437 326.199 132.36 326.566 132.36C326.961 132.36 327.305 132.45 327.598 132.632C327.892 132.813 328.118 133.061 328.278 133.376C328.444 133.69 328.526 134.048 328.526 134.448C328.526 134.848 328.444 135.205 328.278 135.52C328.118 135.829 327.889 136.074 327.59 136.256C327.297 136.432 326.953 136.52 326.559 136.52C326.233 136.52 325.942 136.453 325.687 136.32C325.436 136.186 325.244 136 325.11 135.76V138.184H324.438ZM326.486 135.936C326.753 135.936 326.988 135.874 327.19 135.752C327.393 135.624 327.553 135.448 327.671 135.224C327.788 135 327.846 134.738 327.846 134.44C327.846 134.141 327.788 133.88 327.671 133.656C327.553 133.432 327.393 133.258 327.19 133.136C326.988 133.008 326.753 132.944 326.486 132.944C326.22 132.944 325.985 133.008 325.783 133.136C325.58 133.258 325.42 133.432 325.302 133.656C325.185 133.88 325.126 134.141 325.126 134.44C325.126 134.738 325.185 135 325.302 135.224C325.42 135.448 325.58 135.624 325.783 135.752C325.985 135.874 326.22 135.936 326.486 135.936Z" fill="#6AA4FF"/>
<path d="M229.985 148.52C229.654 148.52 229.38 148.464 229.161 148.352C228.942 148.24 228.78 148.09 228.673 147.904C228.566 147.717 228.513 147.514 228.513 147.296C228.513 146.89 228.668 146.578 228.977 146.36C229.286 146.141 229.708 146.032 230.241 146.032H231.313V145.984C231.313 145.637 231.222 145.376 231.041 145.2C230.86 145.018 230.617 144.928 230.313 144.928C230.052 144.928 229.825 144.994 229.633 145.128C229.446 145.256 229.329 145.445 229.281 145.696H228.593C228.62 145.408 228.716 145.165 228.881 144.968C229.052 144.77 229.262 144.621 229.513 144.52C229.764 144.413 230.03 144.36 230.313 144.36C230.868 144.36 231.284 144.509 231.561 144.808C231.844 145.101 231.985 145.493 231.985 145.984V148.424H231.385L231.345 147.712C231.233 147.936 231.068 148.128 230.849 148.288C230.636 148.442 230.348 148.52 229.985 148.52ZM230.089 147.952C230.345 147.952 230.564 147.885 230.745 147.752C230.932 147.618 231.073 147.445 231.169 147.232C231.265 147.018 231.313 146.794 231.313 146.56V146.552H230.297C229.902 146.552 229.622 146.621 229.457 146.76C229.297 146.893 229.217 147.061 229.217 147.264C229.217 147.472 229.292 147.64 229.441 147.768C229.596 147.89 229.812 147.952 230.089 147.952Z" fill="#6AA4FF"/>
<path d="M236.43 148.52C236.1 148.52 235.825 148.464 235.606 148.352C235.388 148.24 235.225 148.09 235.118 147.904C235.012 147.717 234.958 147.514 234.958 147.296C234.958 146.89 235.113 146.578 235.422 146.36C235.732 146.141 236.153 146.032 236.686 146.032H237.758V145.984C237.758 145.637 237.668 145.376 237.486 145.2C237.305 145.018 237.062 144.928 236.758 144.928C236.497 144.928 236.27 144.994 236.078 145.128C235.892 145.256 235.774 145.445 235.726 145.696H235.038C235.065 145.408 235.161 145.165 235.326 144.968C235.497 144.77 235.708 144.621 235.958 144.52C236.209 144.413 236.476 144.36 236.758 144.36C237.313 144.36 237.729 144.509 238.006 144.808C238.289 145.101 238.43 145.493 238.43 145.984V148.424H237.83L237.79 147.712C237.678 147.936 237.513 148.128 237.294 148.288C237.081 148.442 236.793 148.52 236.43 148.52ZM236.534 147.952C236.79 147.952 237.009 147.885 237.19 147.752C237.377 147.618 237.518 147.445 237.614 147.232C237.71 147.018 237.758 146.794 237.758 146.56V146.552H236.742C236.348 146.552 236.068 146.621 235.902 146.76C235.742 146.893 235.662 147.061 235.662 147.264C235.662 147.472 235.737 147.64 235.886 147.768C236.041 147.89 236.257 147.952 236.534 147.952Z" fill="#6AA4FF"/>
<path d="M241.262 148.52C240.884 148.52 240.542 148.434 240.238 148.264C239.94 148.088 239.702 147.845 239.526 147.536C239.356 147.221 239.27 146.856 239.27 146.44C239.27 146.024 239.356 145.661 239.526 145.352C239.702 145.037 239.94 144.794 240.238 144.624C240.542 144.448 240.884 144.36 241.262 144.36C241.732 144.36 242.126 144.482 242.446 144.728C242.772 144.973 242.977 145.301 243.062 145.712H242.374C242.321 145.466 242.19 145.277 241.982 145.144C241.774 145.005 241.532 144.936 241.254 144.936C241.03 144.936 240.82 144.992 240.622 145.104C240.425 145.216 240.265 145.384 240.142 145.608C240.02 145.832 239.958 146.109 239.958 146.44C239.958 146.77 240.02 147.048 240.142 147.272C240.265 147.496 240.425 147.666 240.622 147.784C240.82 147.896 241.03 147.952 241.254 147.952C241.532 147.952 241.774 147.885 241.982 147.752C242.19 147.613 242.321 147.418 242.374 147.168H243.062C242.982 147.568 242.78 147.893 242.454 148.144C242.129 148.394 241.732 148.52 241.262 148.52Z" fill="#6AA4FF"/>
<path d="M244.001 148.424V144.456H244.609L244.665 145.216C244.788 144.954 244.974 144.746 245.225 144.592C245.476 144.437 245.785 144.36 246.153 144.36V145.064H245.969C245.734 145.064 245.518 145.106 245.321 145.192C245.124 145.272 244.966 145.41 244.849 145.608C244.732 145.805 244.673 146.077 244.673 146.424V148.424H244.001Z" fill="#6AA4FF"/>
<path d="M251.144 148.52C250.819 148.52 250.528 148.453 250.272 148.32C250.022 148.186 249.83 148 249.696 147.76L249.632 148.424H249.024V142.664H249.696V145.112C249.824 144.92 250.006 144.746 250.24 144.592C250.48 144.437 250.784 144.36 251.152 144.36C251.547 144.36 251.891 144.45 252.184 144.632C252.478 144.813 252.704 145.061 252.864 145.376C253.03 145.69 253.112 146.048 253.112 146.448C253.112 146.848 253.03 147.205 252.864 147.52C252.704 147.829 252.475 148.074 252.176 148.256C251.883 148.432 251.539 148.52 251.144 148.52ZM251.072 147.936C251.339 147.936 251.574 147.874 251.776 147.752C251.979 147.624 252.139 147.448 252.256 147.224C252.374 147 252.432 146.738 252.432 146.44C252.432 146.141 252.374 145.88 252.256 145.656C252.139 145.432 251.979 145.258 251.776 145.136C251.574 145.008 251.339 144.944 251.072 144.944C250.806 144.944 250.571 145.008 250.368 145.136C250.166 145.258 250.006 145.432 249.888 145.656C249.771 145.88 249.712 146.141 249.712 146.44C249.712 146.738 249.771 147 249.888 147.224C250.006 147.448 250.166 147.624 250.368 147.752C250.571 147.874 250.806 147.936 251.072 147.936Z" fill="#6AA4FF"/>
<path d="M257.52 144.456V148.424H256.912L256.872 147.712C256.744 147.962 256.56 148.16 256.32 148.304C256.08 148.448 255.808 148.52 255.504 148.52C255.035 148.52 254.659 148.378 254.376 148.096C254.099 147.808 253.96 147.368 253.96 146.776V144.456H254.632V146.704C254.632 147.53 254.973 147.944 255.656 147.944C255.997 147.944 256.28 147.821 256.504 147.576C256.733 147.325 256.848 146.97 256.848 146.512V144.456H257.52Z" fill="#6AA4FF"/>
<path d="M259.058 150.184L260.042 148.04H259.81L258.234 144.456H258.962L260.274 147.544L261.666 144.456H262.362L259.762 150.184H259.058Z" fill="#6AA4FF"/>
<path d="M263.479 143.576C263.346 143.576 263.234 143.533 263.143 143.448C263.058 143.357 263.015 143.245 263.015 143.112C263.015 142.984 263.058 142.877 263.143 142.792C263.234 142.706 263.346 142.664 263.479 142.664C263.607 142.664 263.717 142.706 263.807 142.792C263.898 142.877 263.943 142.984 263.943 143.112C263.943 143.245 263.898 143.357 263.807 143.448C263.717 143.533 263.607 143.576 263.479 143.576ZM263.143 148.424V144.456H263.815V148.424H263.143Z" fill="#6AA4FF"/>
<path d="M264.985 148.424V144.456H265.593L265.633 145.168C265.761 144.917 265.945 144.72 266.185 144.576C266.425 144.432 266.697 144.36 267.001 144.36C267.471 144.36 267.844 144.504 268.121 144.792C268.404 145.074 268.545 145.512 268.545 146.104V148.424H267.873V146.176C267.873 145.349 267.532 144.936 266.849 144.936C266.508 144.936 266.223 145.061 265.993 145.312C265.769 145.557 265.657 145.909 265.657 146.368V148.424H264.985Z" fill="#6AA4FF"/>
<path d="M271.132 147.176C270.908 147.176 270.702 147.146 270.515 147.088L270.115 147.464C270.174 147.506 270.246 147.544 270.331 147.576C270.422 147.602 270.55 147.629 270.715 147.656C270.881 147.677 271.113 147.701 271.411 147.728C271.945 147.765 272.326 147.888 272.556 148.096C272.785 148.304 272.899 148.576 272.899 148.912C272.899 149.141 272.835 149.36 272.708 149.568C272.585 149.776 272.393 149.946 272.132 150.08C271.875 150.213 271.545 150.28 271.139 150.28C270.782 150.28 270.465 150.232 270.188 150.136C269.91 150.045 269.694 149.904 269.539 149.712C269.385 149.525 269.307 149.288 269.307 149C269.307 148.85 269.347 148.688 269.427 148.512C269.507 148.341 269.657 148.178 269.875 148.024C269.758 147.976 269.657 147.925 269.571 147.872C269.491 147.813 269.417 147.749 269.347 147.68V147.496L270.028 146.824C269.713 146.557 269.556 146.205 269.556 145.768C269.556 145.506 269.617 145.269 269.739 145.056C269.862 144.842 270.041 144.674 270.275 144.552C270.51 144.424 270.796 144.36 271.132 144.36C271.361 144.36 271.569 144.392 271.756 144.456H273.219V144.96L272.475 144.992C272.63 145.216 272.708 145.474 272.708 145.768C272.708 146.029 272.643 146.266 272.515 146.48C272.393 146.693 272.214 146.864 271.979 146.992C271.75 147.114 271.467 147.176 271.132 147.176ZM271.132 146.624C271.414 146.624 271.638 146.552 271.803 146.408C271.974 146.258 272.059 146.045 272.059 145.768C272.059 145.496 271.974 145.288 271.803 145.144C271.638 144.994 271.414 144.92 271.132 144.92C270.844 144.92 270.614 144.994 270.444 145.144C270.278 145.288 270.195 145.496 270.195 145.768C270.195 146.045 270.278 146.258 270.444 146.408C270.614 146.552 270.844 146.624 271.132 146.624ZM269.963 148.936C269.963 149.202 270.076 149.4 270.299 149.528C270.523 149.661 270.804 149.728 271.139 149.728C271.47 149.728 271.734 149.656 271.931 149.512C272.134 149.368 272.236 149.176 272.236 148.936C272.236 148.765 272.166 148.616 272.028 148.488C271.889 148.365 271.633 148.293 271.259 148.272C270.966 148.25 270.713 148.224 270.5 148.192C270.281 148.309 270.137 148.434 270.067 148.568C269.998 148.706 269.963 148.829 269.963 148.936Z" fill="#6AA4FF"/>
<path d="M276.095 150.184V144.456H276.703L276.767 145.112C276.895 144.92 277.076 144.746 277.311 144.592C277.551 144.437 277.855 144.36 278.223 144.36C278.617 144.36 278.961 144.45 279.255 144.632C279.548 144.813 279.775 145.061 279.935 145.376C280.1 145.69 280.183 146.048 280.183 146.448C280.183 146.848 280.1 147.205 279.935 147.52C279.775 147.829 279.545 148.074 279.247 148.256C278.953 148.432 278.609 148.52 278.215 148.52C277.889 148.52 277.599 148.453 277.343 148.32C277.092 148.186 276.9 148 276.767 147.76V150.184H276.095ZM278.143 147.936C278.409 147.936 278.644 147.874 278.847 147.752C279.049 147.624 279.209 147.448 279.327 147.224C279.444 147 279.503 146.738 279.503 146.44C279.503 146.141 279.444 145.88 279.327 145.656C279.209 145.432 279.049 145.258 278.847 145.136C278.644 145.008 278.409 144.944 278.143 144.944C277.876 144.944 277.641 145.008 277.439 145.136C277.236 145.258 277.076 145.432 276.959 145.656C276.841 145.88 276.783 146.141 276.783 146.44C276.783 146.738 276.841 147 276.959 147.224C277.076 147.448 277.236 147.624 277.439 147.752C277.641 147.874 277.876 147.936 278.143 147.936Z" fill="#6AA4FF"/>
<path d="M281.118 148.424V142.664H281.79V148.424H281.118Z" fill="#6AA4FF"/>
<path d="M284.212 148.52C283.881 148.52 283.606 148.464 283.388 148.352C283.169 148.24 283.006 148.09 282.9 147.904C282.793 147.717 282.74 147.514 282.74 147.296C282.74 146.89 282.894 146.578 283.204 146.36C283.513 146.141 283.934 146.032 284.468 146.032H285.54V145.984C285.54 145.637 285.449 145.376 285.268 145.2C285.086 145.018 284.844 144.928 284.54 144.928C284.278 144.928 284.052 144.994 283.86 145.128C283.673 145.256 283.556 145.445 283.508 145.696H282.82C282.846 145.408 282.942 145.165 283.108 144.968C283.278 144.77 283.489 144.621 283.74 144.52C283.99 144.413 284.257 144.36 284.54 144.36C285.094 144.36 285.51 144.509 285.788 144.808C286.07 145.101 286.212 145.493 286.212 145.984V148.424H285.612L285.572 147.712C285.46 147.936 285.294 148.128 285.076 148.288C284.862 148.442 284.574 148.52 284.212 148.52ZM284.316 147.952C284.572 147.952 284.79 147.885 284.972 147.752C285.158 147.618 285.3 147.445 285.396 147.232C285.492 147.018 285.54 146.794 285.54 146.56V146.552H284.524C284.129 146.552 283.849 146.621 283.684 146.76C283.524 146.893 283.444 147.061 283.444 147.264C283.444 147.472 283.518 147.64 283.668 147.768C283.822 147.89 284.038 147.952 284.316 147.952Z" fill="#6AA4FF"/>
<path d="M288.678 148.424C288.316 148.424 288.03 148.336 287.822 148.16C287.614 147.984 287.51 147.666 287.51 147.208V145.024H286.822V144.456H287.51L287.598 143.504H288.182V144.456H289.35V145.024H288.182V147.208C288.182 147.458 288.233 147.629 288.334 147.72C288.436 147.805 288.614 147.848 288.87 147.848H289.286V148.424H288.678Z" fill="#6AA4FF"/>
<path d="M290.42 148.424V145.024H289.82V144.456H290.42V143.768C290.42 143.384 290.516 143.104 290.708 142.928C290.9 142.752 291.18 142.664 291.548 142.664H291.948V143.24H291.652C291.449 143.24 291.305 143.282 291.22 143.368C291.135 143.448 291.092 143.586 291.092 143.784V144.456H292.068V145.024H291.092V148.424H290.42Z" fill="#6AA4FF"/>
<path d="M294.52 148.52C294.147 148.52 293.811 148.434 293.512 148.264C293.213 148.093 292.976 147.853 292.8 147.544C292.629 147.229 292.544 146.861 292.544 146.44C292.544 146.018 292.632 145.653 292.808 145.344C292.984 145.029 293.221 144.786 293.52 144.616C293.824 144.445 294.163 144.36 294.536 144.36C294.909 144.36 295.245 144.445 295.544 144.616C295.843 144.786 296.077 145.029 296.248 145.344C296.424 145.653 296.512 146.018 296.512 146.44C296.512 146.861 296.424 147.229 296.248 147.544C296.072 147.853 295.832 148.093 295.528 148.264C295.229 148.434 294.893 148.52 294.52 148.52ZM294.52 147.944C294.749 147.944 294.963 147.888 295.16 147.776C295.357 147.664 295.517 147.496 295.64 147.272C295.763 147.048 295.824 146.77 295.824 146.44C295.824 146.109 295.763 145.832 295.64 145.608C295.523 145.384 295.365 145.216 295.168 145.104C294.971 144.992 294.76 144.936 294.536 144.936C294.307 144.936 294.093 144.992 293.896 145.104C293.699 145.216 293.539 145.384 293.416 145.608C293.293 145.832 293.232 146.109 293.232 146.44C293.232 146.77 293.293 147.048 293.416 147.272C293.539 147.496 293.696 147.664 293.888 147.776C294.085 147.888 294.296 147.944 294.52 147.944Z" fill="#6AA4FF"/>
<path d="M297.446 148.424V144.456H298.054L298.11 145.216C298.233 144.954 298.42 144.746 298.67 144.592C298.921 144.437 299.23 144.36 299.598 144.36V145.064H299.414C299.18 145.064 298.964 145.106 298.766 145.192C298.569 145.272 298.412 145.41 298.294 145.608C298.177 145.805 298.118 146.077 298.118 146.424V148.424H297.446Z" fill="#6AA4FF"/>
<path d="M300.353 148.424V144.456H300.961L301.009 145.032C301.137 144.818 301.307 144.653 301.521 144.536C301.734 144.418 301.974 144.36 302.241 144.36C302.555 144.36 302.825 144.424 303.049 144.552C303.278 144.68 303.454 144.874 303.577 145.136C303.715 144.896 303.905 144.706 304.145 144.568C304.39 144.429 304.654 144.36 304.937 144.36C305.411 144.36 305.79 144.504 306.073 144.792C306.355 145.074 306.497 145.512 306.497 146.104V148.424H305.833V146.176C305.833 145.765 305.75 145.456 305.585 145.248C305.419 145.04 305.182 144.936 304.873 144.936C304.553 144.936 304.286 145.061 304.073 145.312C303.865 145.557 303.761 145.909 303.761 146.368V148.424H303.089V146.176C303.089 145.765 303.006 145.456 302.841 145.248C302.675 145.04 302.438 144.936 302.129 144.936C301.814 144.936 301.55 145.061 301.337 145.312C301.129 145.557 301.025 145.909 301.025 146.368V148.424H300.353Z" fill="#6AA4FF"/>
<path d="M309.842 148.424V145.024H309.242V144.456H309.842V143.768C309.842 143.384 309.938 143.104 310.13 142.928C310.322 142.752 310.602 142.664 310.97 142.664H311.37V143.24H311.074C310.871 143.24 310.727 143.282 310.642 143.368C310.557 143.448 310.514 143.586 310.514 143.784V144.456H311.49V145.024H310.514V148.424H309.842Z" fill="#6AA4FF"/>
<path d="M313.942 148.52C313.568 148.52 313.232 148.434 312.934 148.264C312.635 148.093 312.398 147.853 312.222 147.544C312.051 147.229 311.966 146.861 311.966 146.44C311.966 146.018 312.054 145.653 312.23 145.344C312.406 145.029 312.643 144.786 312.942 144.616C313.246 144.445 313.584 144.36 313.958 144.36C314.331 144.36 314.667 144.445 314.966 144.616C315.264 144.786 315.499 145.029 315.67 145.344C315.846 145.653 315.934 146.018 315.934 146.44C315.934 146.861 315.846 147.229 315.67 147.544C315.494 147.853 315.254 148.093 314.95 148.264C314.651 148.434 314.315 148.52 313.942 148.52ZM313.942 147.944C314.171 147.944 314.384 147.888 314.582 147.776C314.779 147.664 314.939 147.496 315.062 147.272C315.184 147.048 315.246 146.77 315.246 146.44C315.246 146.109 315.184 145.832 315.062 145.608C314.944 145.384 314.787 145.216 314.59 145.104C314.392 144.992 314.182 144.936 313.958 144.936C313.728 144.936 313.515 144.992 313.318 145.104C313.12 145.216 312.96 145.384 312.838 145.608C312.715 145.832 312.654 146.109 312.654 146.44C312.654 146.77 312.715 147.048 312.838 147.272C312.96 147.496 313.118 147.664 313.31 147.776C313.507 147.888 313.718 147.944 313.942 147.944Z" fill="#6AA4FF"/>
<path d="M316.868 148.424V144.456H317.476L317.532 145.216C317.655 144.954 317.842 144.746 318.092 144.592C318.343 144.437 318.652 144.36 319.02 144.36V145.064H318.836C318.602 145.064 318.386 145.106 318.188 145.192C317.991 145.272 317.834 145.41 317.716 145.608C317.599 145.805 317.54 146.077 317.54 146.424V148.424H316.868Z" fill="#6AA4FF"/>
<path d="M323.46 148.424C323.097 148.424 322.812 148.336 322.604 148.16C322.396 147.984 322.292 147.666 322.292 147.208V145.024H321.604V144.456H322.292L322.38 143.504H322.964V144.456H324.132V145.024H322.964V147.208C322.964 147.458 323.014 147.629 323.116 147.72C323.217 147.805 323.396 147.848 323.652 147.848H324.068V148.424H323.46Z" fill="#6AA4FF"/>
<path d="M324.985 148.424V142.664H325.657V145.136C325.791 144.89 325.98 144.701 326.225 144.568C326.471 144.429 326.737 144.36 327.025 144.36C327.484 144.36 327.852 144.504 328.129 144.792C328.407 145.074 328.545 145.512 328.545 146.104V148.424H327.881V146.176C327.881 145.349 327.548 144.936 326.881 144.936C326.535 144.936 326.244 145.061 326.009 145.312C325.775 145.557 325.657 145.909 325.657 146.368V148.424H324.985Z" fill="#6AA4FF"/>
<path d="M331.347 148.52C330.969 148.52 330.633 148.434 330.34 148.264C330.046 148.088 329.814 147.845 329.644 147.536C329.478 147.226 329.396 146.861 329.396 146.44C329.396 146.024 329.478 145.661 329.644 145.352C329.809 145.037 330.038 144.794 330.331 144.624C330.63 144.448 330.974 144.36 331.364 144.36C331.748 144.36 332.078 144.448 332.355 144.624C332.638 144.794 332.854 145.021 333.004 145.304C333.153 145.586 333.228 145.89 333.228 146.216C333.228 146.274 333.225 146.333 333.219 146.392C333.219 146.45 333.219 146.517 333.219 146.592H330.06C330.076 146.896 330.145 147.149 330.268 147.352C330.396 147.549 330.553 147.698 330.74 147.8C330.932 147.901 331.134 147.952 331.347 147.952C331.625 147.952 331.857 147.888 332.044 147.76C332.23 147.632 332.366 147.458 332.451 147.24H333.116C333.009 147.608 332.803 147.914 332.499 148.16C332.201 148.4 331.817 148.52 331.347 148.52ZM331.347 144.928C331.027 144.928 330.742 145.026 330.492 145.224C330.246 145.416 330.105 145.698 330.067 146.072H332.563C332.548 145.714 332.425 145.434 332.195 145.232C331.966 145.029 331.683 144.928 331.347 144.928Z" fill="#6AA4FF"/>
<path d="M228.665 162.184V156.456H229.273L229.337 157.112C229.465 156.92 229.646 156.746 229.881 156.592C230.121 156.437 230.425 156.36 230.793 156.36C231.188 156.36 231.532 156.45 231.825 156.632C232.118 156.813 232.345 157.061 232.505 157.376C232.67 157.69 232.753 158.048 232.753 158.448C232.753 158.848 232.67 159.205 232.505 159.52C232.345 159.829 232.116 160.074 231.817 160.256C231.524 160.432 231.18 160.52 230.785 160.52C230.46 160.52 230.169 160.453 229.913 160.32C229.662 160.186 229.47 160 229.337 159.76V162.184H228.665ZM230.713 159.936C230.98 159.936 231.214 159.874 231.417 159.752C231.62 159.624 231.78 159.448 231.897 159.224C232.014 159 232.073 158.738 232.073 158.44C232.073 158.141 232.014 157.88 231.897 157.656C231.78 157.432 231.62 157.258 231.417 157.136C231.214 157.008 230.98 156.944 230.713 156.944C230.446 156.944 230.212 157.008 230.009 157.136C229.806 157.258 229.646 157.432 229.529 157.656C229.412 157.88 229.353 158.141 229.353 158.44C229.353 158.738 229.412 159 229.529 159.224C229.646 159.448 229.806 159.624 230.009 159.752C230.212 159.874 230.446 159.936 230.713 159.936Z" fill="#6AA4FF"/>
<path d="M233.688 160.424V156.456H234.296L234.352 157.216C234.475 156.954 234.662 156.746 234.912 156.592C235.163 156.437 235.472 156.36 235.84 156.36V157.064H235.656C235.422 157.064 235.206 157.106 235.008 157.192C234.811 157.272 234.654 157.41 234.536 157.608C234.419 157.805 234.36 158.077 234.36 158.424V160.424H233.688Z" fill="#6AA4FF"/>
<path d="M238.23 160.52C237.852 160.52 237.516 160.434 237.222 160.264C236.929 160.088 236.697 159.845 236.526 159.536C236.361 159.226 236.278 158.861 236.278 158.44C236.278 158.024 236.361 157.661 236.526 157.352C236.692 157.037 236.921 156.794 237.214 156.624C237.513 156.448 237.857 156.36 238.246 156.36C238.63 156.36 238.961 156.448 239.238 156.624C239.521 156.794 239.737 157.021 239.886 157.304C240.036 157.586 240.11 157.89 240.11 158.216C240.11 158.274 240.108 158.333 240.102 158.392C240.102 158.45 240.102 158.517 240.102 158.592H236.942C236.958 158.896 237.028 159.149 237.15 159.352C237.278 159.549 237.436 159.698 237.622 159.8C237.814 159.901 238.017 159.952 238.23 159.952C238.508 159.952 238.74 159.888 238.926 159.76C239.113 159.632 239.249 159.458 239.334 159.24H239.998C239.892 159.608 239.686 159.914 239.382 160.16C239.084 160.4 238.7 160.52 238.23 160.52ZM238.23 156.928C237.91 156.928 237.625 157.026 237.374 157.224C237.129 157.416 236.988 157.698 236.95 158.072H239.446C239.43 157.714 239.308 157.434 239.078 157.232C238.849 157.029 238.566 156.928 238.23 156.928Z" fill="#6AA4FF"/>
<path d="M242.521 160.52C242.046 160.52 241.652 160.4 241.337 160.16C241.022 159.92 240.838 159.594 240.785 159.184H241.473C241.516 159.392 241.625 159.573 241.801 159.728C241.982 159.877 242.225 159.952 242.529 159.952C242.812 159.952 243.02 159.893 243.153 159.776C243.286 159.653 243.353 159.509 243.353 159.344C243.353 159.104 243.265 158.944 243.089 158.864C242.918 158.784 242.676 158.712 242.361 158.648C242.148 158.605 241.934 158.544 241.721 158.464C241.508 158.384 241.329 158.272 241.185 158.128C241.041 157.978 240.969 157.784 240.969 157.544C240.969 157.197 241.097 156.914 241.353 156.696C241.614 156.472 241.966 156.36 242.409 156.36C242.83 156.36 243.174 156.466 243.441 156.68C243.713 156.888 243.87 157.186 243.913 157.576H243.249C243.222 157.373 243.134 157.216 242.985 157.104C242.841 156.986 242.646 156.928 242.401 156.928C242.161 156.928 241.974 156.978 241.841 157.08C241.713 157.181 241.649 157.314 241.649 157.48C241.649 157.64 241.732 157.765 241.897 157.856C242.068 157.946 242.297 158.024 242.585 158.088C242.83 158.141 243.062 158.208 243.281 158.288C243.505 158.362 243.686 158.477 243.825 158.632C243.969 158.781 244.041 159 244.041 159.288C244.046 159.645 243.91 159.941 243.633 160.176C243.361 160.405 242.99 160.52 242.521 160.52Z" fill="#6AA4FF"/>
<path d="M246.785 160.52C246.406 160.52 246.07 160.434 245.777 160.264C245.484 160.088 245.252 159.845 245.081 159.536C244.916 159.226 244.833 158.861 244.833 158.44C244.833 158.024 244.916 157.661 245.081 157.352C245.246 157.037 245.476 156.794 245.769 156.624C246.068 156.448 246.412 156.36 246.801 156.36C247.185 156.36 247.516 156.448 247.793 156.624C248.076 156.794 248.292 157.021 248.441 157.304C248.59 157.586 248.665 157.89 248.665 158.216C248.665 158.274 248.662 158.333 248.657 158.392C248.657 158.45 248.657 158.517 248.657 158.592H245.497C245.513 158.896 245.582 159.149 245.705 159.352C245.833 159.549 245.99 159.698 246.177 159.8C246.369 159.901 246.572 159.952 246.785 159.952C247.062 159.952 247.294 159.888 247.481 159.76C247.668 159.632 247.804 159.458 247.889 159.24H248.553C248.446 159.608 248.241 159.914 247.937 160.16C247.638 160.4 247.254 160.52 246.785 160.52ZM246.785 156.928C246.465 156.928 246.18 157.026 245.929 157.224C245.684 157.416 245.542 157.698 245.505 158.072H248.001C247.985 157.714 247.862 157.434 247.633 157.232C247.404 157.029 247.121 156.928 246.785 156.928Z" fill="#6AA4FF"/>
<path d="M249.556 160.424V156.456H250.164L250.204 157.168C250.332 156.917 250.516 156.72 250.756 156.576C250.996 156.432 251.268 156.36 251.572 156.36C252.041 156.36 252.414 156.504 252.692 156.792C252.974 157.074 253.116 157.512 253.116 158.104V160.424H252.444V158.176C252.444 157.349 252.102 156.936 251.42 156.936C251.078 156.936 250.793 157.061 250.564 157.312C250.34 157.557 250.228 157.909 250.228 158.368V160.424H249.556Z" fill="#6AA4FF"/>
<path d="M255.702 160.424C255.339 160.424 255.054 160.336 254.846 160.16C254.638 159.984 254.534 159.666 254.534 159.208V157.024H253.846V156.456H254.534L254.622 155.504H255.206V156.456H256.374V157.024H255.206V159.208C255.206 159.458 255.256 159.629 255.358 159.72C255.459 159.805 255.638 159.848 255.894 159.848H256.31V160.424H255.702Z" fill="#6AA4FF"/>
<path d="M261.145 160.52C260.75 160.52 260.403 160.429 260.105 160.248C259.811 160.066 259.582 159.818 259.417 159.504C259.257 159.189 259.177 158.832 259.177 158.432C259.177 158.032 259.259 157.677 259.425 157.368C259.59 157.053 259.819 156.808 260.113 156.632C260.406 156.45 260.753 156.36 261.153 156.36C261.478 156.36 261.766 156.426 262.017 156.56C262.267 156.693 262.462 156.88 262.601 157.12V154.664H263.273V160.424H262.665L262.601 159.768C262.473 159.96 262.289 160.133 262.049 160.288C261.809 160.442 261.507 160.52 261.145 160.52ZM261.217 159.936C261.483 159.936 261.718 159.874 261.921 159.752C262.129 159.624 262.289 159.448 262.401 159.224C262.518 159 262.577 158.738 262.577 158.44C262.577 158.141 262.518 157.88 262.401 157.656C262.289 157.432 262.129 157.258 261.921 157.136C261.718 157.008 261.483 156.944 261.217 156.944C260.955 156.944 260.721 157.008 260.513 157.136C260.31 157.258 260.15 157.432 260.033 157.656C259.921 157.88 259.865 158.141 259.865 158.44C259.865 158.738 259.921 159 260.033 159.224C260.15 159.448 260.31 159.624 260.513 159.752C260.721 159.874 260.955 159.936 261.217 159.936Z" fill="#6AA4FF"/>
<path d="M265.688 160.52C265.358 160.52 265.083 160.464 264.864 160.352C264.646 160.24 264.483 160.09 264.376 159.904C264.27 159.717 264.216 159.514 264.216 159.296C264.216 158.89 264.371 158.578 264.68 158.36C264.99 158.141 265.411 158.032 265.944 158.032H267.016V157.984C267.016 157.637 266.926 157.376 266.744 157.2C266.563 157.018 266.32 156.928 266.016 156.928C265.755 156.928 265.528 156.994 265.336 157.128C265.15 157.256 265.032 157.445 264.984 157.696H264.296C264.323 157.408 264.419 157.165 264.584 156.968C264.755 156.77 264.966 156.621 265.216 156.52C265.467 156.413 265.734 156.36 266.016 156.36C266.571 156.36 266.987 156.509 267.264 156.808C267.547 157.101 267.688 157.493 267.688 157.984V160.424H267.088L267.048 159.712C266.936 159.936 266.771 160.128 266.552 160.288C266.339 160.442 266.051 160.52 265.688 160.52ZM265.792 159.952C266.048 159.952 266.267 159.885 266.448 159.752C266.635 159.618 266.776 159.445 266.872 159.232C266.968 159.018 267.016 158.794 267.016 158.56V158.552H266C265.606 158.552 265.326 158.621 265.16 158.76C265 158.893 264.92 159.061 264.92 159.264C264.92 159.472 264.995 159.64 265.144 159.768C265.299 159.89 265.515 159.952 265.792 159.952Z" fill="#6AA4FF"/>
<path d="M269.011 162.184L269.995 160.04H269.763L268.187 156.456H268.915L270.227 159.544L271.619 156.456H272.315L269.715 162.184H269.011Z" fill="#6AA4FF"/>
<path d="M272.736 156.608L273.2 154.824H273.952L273.216 156.608H272.736Z" fill="#6AA4FF"/>
<path d="M275.904 160.52C275.429 160.52 275.034 160.4 274.72 160.16C274.405 159.92 274.221 159.594 274.168 159.184H274.856C274.898 159.392 275.008 159.573 275.184 159.728C275.365 159.877 275.608 159.952 275.912 159.952C276.194 159.952 276.402 159.893 276.536 159.776C276.669 159.653 276.736 159.509 276.736 159.344C276.736 159.104 276.648 158.944 276.472 158.864C276.301 158.784 276.058 158.712 275.744 158.648C275.53 158.605 275.317 158.544 275.104 158.464C274.89 158.384 274.712 158.272 274.568 158.128C274.424 157.978 274.352 157.784 274.352 157.544C274.352 157.197 274.48 156.914 274.736 156.696C274.997 156.472 275.349 156.36 275.792 156.36C276.213 156.36 276.557 156.466 276.824 156.68C277.096 156.888 277.253 157.186 277.296 157.576H276.632C276.605 157.373 276.517 157.216 276.368 157.104C276.224 156.986 276.029 156.928 275.784 156.928C275.544 156.928 275.357 156.978 275.224 157.08C275.096 157.181 275.032 157.314 275.032 157.48C275.032 157.64 275.114 157.765 275.28 157.856C275.45 157.946 275.68 158.024 275.968 158.088C276.213 158.141 276.445 158.208 276.664 158.288C276.888 158.362 277.069 158.477 277.208 158.632C277.352 158.781 277.424 159 277.424 159.288C277.429 159.645 277.293 159.941 277.016 160.176C276.744 160.405 276.373 160.52 275.904 160.52Z" fill="#6AA4FF"/>
<path d="M282.069 160.424C281.706 160.424 281.421 160.336 281.213 160.16C281.005 159.984 280.901 159.666 280.901 159.208V157.024H280.213V156.456H280.901L280.989 155.504H281.573V156.456H282.741V157.024H281.573V159.208C281.573 159.458 281.624 159.629 281.725 159.72C281.826 159.805 282.005 159.848 282.261 159.848H282.677V160.424H282.069Z" fill="#6AA4FF"/>
<path d="M285.269 160.52C284.891 160.52 284.555 160.434 284.261 160.264C283.968 160.088 283.736 159.845 283.565 159.536C283.4 159.226 283.317 158.861 283.317 158.44C283.317 158.024 283.4 157.661 283.565 157.352C283.731 157.037 283.96 156.794 284.253 156.624C284.552 156.448 284.896 156.36 285.285 156.36C285.669 156.36 286 156.448 286.277 156.624C286.56 156.794 286.776 157.021 286.925 157.304C287.075 157.586 287.149 157.89 287.149 158.216C287.149 158.274 287.147 158.333 287.141 158.392C287.141 158.45 287.141 158.517 287.141 158.592H283.981C283.997 158.896 284.067 159.149 284.189 159.352C284.317 159.549 284.475 159.698 284.661 159.8C284.853 159.901 285.056 159.952 285.269 159.952C285.547 159.952 285.779 159.888 285.965 159.76C286.152 159.632 286.288 159.458 286.373 159.24H287.037C286.931 159.608 286.725 159.914 286.421 160.16C286.123 160.4 285.739 160.52 285.269 160.52ZM285.269 156.928C284.949 156.928 284.664 157.026 284.413 157.224C284.168 157.416 284.027 157.698 283.989 158.072H286.485C286.469 157.714 286.347 157.434 286.117 157.232C285.888 157.029 285.605 156.928 285.269 156.928Z" fill="#6AA4FF"/>
<path d="M288.04 160.424V156.456H288.648L288.696 157.032C288.824 156.818 288.995 156.653 289.208 156.536C289.421 156.418 289.661 156.36 289.928 156.36C290.243 156.36 290.512 156.424 290.736 156.552C290.965 156.68 291.141 156.874 291.264 157.136C291.403 156.896 291.592 156.706 291.832 156.568C292.077 156.429 292.341 156.36 292.624 156.36C293.099 156.36 293.477 156.504 293.76 156.792C294.043 157.074 294.184 157.512 294.184 158.104V160.424H293.52V158.176C293.52 157.765 293.437 157.456 293.272 157.248C293.107 157.04 292.869 156.936 292.56 156.936C292.24 156.936 291.973 157.061 291.76 157.312C291.552 157.557 291.448 157.909 291.448 158.368V160.424H290.776V158.176C290.776 157.765 290.693 157.456 290.528 157.248C290.363 157.04 290.125 156.936 289.816 156.936C289.501 156.936 289.237 157.061 289.024 157.312C288.816 157.557 288.712 157.909 288.712 158.368V160.424H288.04Z" fill="#6AA4FF"/>
<path d="M295.196 162.184V156.456H295.804L295.868 157.112C295.996 156.92 296.178 156.746 296.412 156.592C296.652 156.437 296.956 156.36 297.324 156.36C297.719 156.36 298.063 156.45 298.356 156.632C298.65 156.813 298.876 157.061 299.036 157.376C299.202 157.69 299.284 158.048 299.284 158.448C299.284 158.848 299.202 159.205 299.036 159.52C298.876 159.829 298.647 160.074 298.348 160.256C298.055 160.432 297.711 160.52 297.316 160.52C296.991 160.52 296.7 160.453 296.444 160.32C296.194 160.186 296.002 160 295.868 159.76V162.184H295.196ZM297.244 159.936C297.511 159.936 297.746 159.874 297.948 159.752C298.151 159.624 298.311 159.448 298.428 159.224C298.546 159 298.604 158.738 298.604 158.44C298.604 158.141 298.546 157.88 298.428 157.656C298.311 157.432 298.151 157.258 297.948 157.136C297.746 157.008 297.511 156.944 297.244 156.944C296.978 156.944 296.743 157.008 296.54 157.136C296.338 157.258 296.178 157.432 296.06 157.656C295.943 157.88 295.884 158.141 295.884 158.44C295.884 158.738 295.943 159 296.06 159.224C296.178 159.448 296.338 159.624 296.54 159.752C296.743 159.874 296.978 159.936 297.244 159.936Z" fill="#6AA4FF"/>
<path d="M302.028 160.52C301.654 160.52 301.318 160.434 301.02 160.264C300.721 160.093 300.484 159.853 300.308 159.544C300.137 159.229 300.052 158.861 300.052 158.44C300.052 158.018 300.14 157.653 300.316 157.344C300.492 157.029 300.729 156.786 301.028 156.616C301.332 156.445 301.67 156.36 302.044 156.36C302.417 156.36 302.753 156.445 303.052 156.616C303.35 156.786 303.585 157.029 303.756 157.344C303.932 157.653 304.02 158.018 304.02 158.44C304.02 158.861 303.932 159.229 303.756 159.544C303.58 159.853 303.34 160.093 303.036 160.264C302.737 160.434 302.401 160.52 302.028 160.52ZM302.028 159.944C302.257 159.944 302.47 159.888 302.668 159.776C302.865 159.664 303.025 159.496 303.148 159.272C303.27 159.048 303.332 158.77 303.332 158.44C303.332 158.109 303.27 157.832 303.148 157.608C303.03 157.384 302.873 157.216 302.676 157.104C302.478 156.992 302.268 156.936 302.044 156.936C301.814 156.936 301.601 156.992 301.404 157.104C301.206 157.216 301.046 157.384 300.924 157.608C300.801 157.832 300.74 158.109 300.74 158.44C300.74 158.77 300.801 159.048 300.924 159.272C301.046 159.496 301.204 159.664 301.396 159.776C301.593 159.888 301.804 159.944 302.028 159.944Z" fill="#6AA4FF"/>
<path d="M304.954 160.424V156.456H305.562L305.618 157.216C305.741 156.954 305.927 156.746 306.178 156.592C306.429 156.437 306.738 156.36 307.106 156.36V157.064H306.922C306.687 157.064 306.471 157.106 306.274 157.192C306.077 157.272 305.919 157.41 305.802 157.608C305.685 157.805 305.626 158.077 305.626 158.424V160.424H304.954Z" fill="#6AA4FF"/>
<path d="M309.18 160.52C308.85 160.52 308.575 160.464 308.356 160.352C308.138 160.24 307.975 160.09 307.868 159.904C307.762 159.717 307.708 159.514 307.708 159.296C307.708 158.89 307.863 158.578 308.172 158.36C308.482 158.141 308.903 158.032 309.436 158.032H310.508V157.984C310.508 157.637 310.418 157.376 310.236 157.2C310.055 157.018 309.812 156.928 309.508 156.928C309.247 156.928 309.02 156.994 308.828 157.128C308.642 157.256 308.524 157.445 308.476 157.696H307.788C307.815 157.408 307.911 157.165 308.076 156.968C308.247 156.77 308.458 156.621 308.708 156.52C308.959 156.413 309.226 156.36 309.508 156.36C310.063 156.36 310.479 156.509 310.756 156.808C311.039 157.101 311.18 157.493 311.18 157.984V160.424H310.58L310.54 159.712C310.428 159.936 310.263 160.128 310.044 160.288C309.831 160.442 309.543 160.52 309.18 160.52ZM309.284 159.952C309.54 159.952 309.759 159.885 309.94 159.752C310.127 159.618 310.268 159.445 310.364 159.232C310.46 159.018 310.508 158.794 310.508 158.56V158.552H309.492C309.098 158.552 308.818 158.621 308.652 158.76C308.492 158.893 308.412 159.061 308.412 159.264C308.412 159.472 308.487 159.64 308.636 159.768C308.791 159.89 309.007 159.952 309.284 159.952Z" fill="#6AA4FF"/>
<path d="M312.188 160.424V156.456H312.797L312.853 157.216C312.975 156.954 313.162 156.746 313.412 156.592C313.663 156.437 313.973 156.36 314.34 156.36V157.064H314.157C313.922 157.064 313.706 157.106 313.508 157.192C313.311 157.272 313.154 157.41 313.036 157.608C312.919 157.805 312.86 158.077 312.86 158.424V160.424H312.188Z" fill="#6AA4FF"/>
<path d="M315.527 162.184L316.511 160.04H316.279L314.703 156.456H315.431L316.743 159.544L318.135 156.456H318.831L316.231 162.184H315.527Z" fill="#6AA4FF"/>
<path d="M228.665 172.424V168.456H229.273L229.321 169.032C229.449 168.818 229.62 168.653 229.833 168.536C230.046 168.418 230.286 168.36 230.553 168.36C230.868 168.36 231.137 168.424 231.361 168.552C231.59 168.68 231.766 168.874 231.889 169.136C232.028 168.896 232.217 168.706 232.457 168.568C232.702 168.429 232.966 168.36 233.249 168.36C233.724 168.36 234.102 168.504 234.385 168.792C234.668 169.074 234.809 169.512 234.809 170.104V172.424H234.145V170.176C234.145 169.765 234.062 169.456 233.897 169.248C233.732 169.04 233.494 168.936 233.185 168.936C232.865 168.936 232.598 169.061 232.385 169.312C232.177 169.557 232.073 169.909 232.073 170.368V172.424H231.401V170.176C231.401 169.765 231.318 169.456 231.153 169.248C230.988 169.04 230.75 168.936 230.441 168.936C230.126 168.936 229.862 169.061 229.649 169.312C229.441 169.557 229.337 169.909 229.337 170.368V172.424H228.665Z" fill="#6AA4FF"/>
<path d="M237.141 172.52C236.811 172.52 236.536 172.464 236.317 172.352C236.099 172.24 235.936 172.09 235.829 171.904C235.723 171.717 235.669 171.514 235.669 171.296C235.669 170.89 235.824 170.578 236.133 170.36C236.443 170.141 236.864 170.032 237.397 170.032H238.469V169.984C238.469 169.637 238.379 169.376 238.197 169.2C238.016 169.018 237.773 168.928 237.469 168.928C237.208 168.928 236.981 168.994 236.789 169.128C236.603 169.256 236.485 169.445 236.437 169.696H235.749C235.776 169.408 235.872 169.165 236.037 168.968C236.208 168.77 236.419 168.621 236.669 168.52C236.92 168.413 237.187 168.36 237.469 168.36C238.024 168.36 238.44 168.509 238.717 168.808C239 169.101 239.141 169.493 239.141 169.984V172.424H238.541L238.501 171.712C238.389 171.936 238.224 172.128 238.005 172.288C237.792 172.442 237.504 172.52 237.141 172.52ZM237.245 171.952C237.501 171.952 237.72 171.885 237.901 171.752C238.088 171.618 238.229 171.445 238.325 171.232C238.421 171.018 238.469 170.794 238.469 170.56V170.552H237.453C237.059 170.552 236.779 170.621 236.613 170.76C236.453 170.893 236.373 171.061 236.373 171.264C236.373 171.472 236.448 171.64 236.597 171.768C236.752 171.89 236.968 171.952 237.245 171.952Z" fill="#6AA4FF"/>
<path d="M240.149 172.424V168.456H240.757L240.797 169.168C240.925 168.917 241.109 168.72 241.349 168.576C241.589 168.432 241.861 168.36 242.165 168.36C242.635 168.36 243.008 168.504 243.285 168.792C243.568 169.074 243.709 169.512 243.709 170.104V172.424H243.037V170.176C243.037 169.349 242.696 168.936 242.013 168.936C241.672 168.936 241.387 169.061 241.157 169.312C240.933 169.557 240.821 169.909 240.821 170.368V172.424H240.149Z" fill="#6AA4FF"/>
<path d="M360.709 384.989V266.699H29.7129V384.989" stroke="#6AA4FF"/>
<path d="M135.563 384.026V295.289H52.3721V384.026" stroke="#6AA4FF"/>
<path d="M236.806 384.026V295.289H153.615V384.026" stroke="#6AA4FF"/>
<path d="M338.05 384.026V295.289H254.858V384.026" stroke="#6AA4FF"/>
</svg>
