<svg xmlns="http://www.w3.org/2000/svg" xmlns:xlink="http://www.w3.org/1999/xlink" width="100%" height="100%" viewBox="0 0 385 395" fill="none" xmlns:v="https://vecta.io/nano"><path fill="#ffcdcd" stroke="#000" d="M.5.5h383.05v393.053H.5z"/><path d="M55.35 42.115c-14.533 0-26.315 12.105-26.315 27.036s11.78 27.036 26.315 27.036a25.74 25.74 0 0 0 2.368-.109 25.13 25.13 0 0 0 2.174-.3l.276-.05c13.362-2.56 22.626-15.158 21.376-29.063S68.942 42.12 55.35 42.115h0zM53.235 94.3h-.062a23.71 23.71 0 0 1-2.031-.276c-.038-.007-.077-.01-.115-.02a23.91 23.91 0 0 1-1.948-.445l-.155-.04a24 24 0 0 1-1.858-.603l-.2-.068c-.6-.226-1.188-.48-1.767-.754l-.216-.1c-.568-.27-1.126-.575-1.672-.895l-.232-.134a24.82 24.82 0 0 1-1.579-1.034l-.234-.166a24.77 24.77 0 0 1-1.482-1.171l-.132-.12v-7.598c.007-5.472 4.322-9.907 9.65-9.913H61.5c5.326.007 9.642 4.44 9.65 9.913v7.6l-.116.1c-.5.42-.994.818-1.5 1.194l-.206.145a24.42 24.42 0 0 1-1.604 1.052l-.207.12a23.49 23.49 0 0 1-1.694.906 5.63 5.63 0 0 1-.199.09 23.96 23.96 0 0 1-1.78.76l-.176.064c-.614.226-1.237.43-1.867.606l-.15.04c-.644.175-1.294.325-1.95.446-.038.007-.075.012-.113.018a23.77 23.77 0 0 1-2.033.277h-.062c-.702.062-1.404.096-2.114.096a23.65 23.65 0 0 1-2.118-.09zm19.657-7.494v-5.928c-.007-6.468-5.108-11.7-11.392-11.718H49.2c-6.295.007-11.396 5.248-11.403 11.716v5.927c-9.447-9.907-9.342-25.8.236-35.564s25.037-9.773 34.615 0 9.683 25.657.236 35.564v.001zM55.35 49.325c-4.844 0-8.77 4.035-8.77 9.012s3.927 9.012 8.77 9.012 8.772-4.035 8.772-9.012-3.93-9.007-8.772-9.012zm0 16.222c-3.876 0-7.017-3.228-7.017-7.2s3.142-7.2 7.017-7.2 7.017 3.228 7.017 7.2-3.144 7.205-7.017 7.2zm90.184-23.432C131 42.115 119.22 54.22 119.22 69.15S131 96.187 145.534 96.187a25.75 25.75 0 0 0 2.369-.109c.73-.067 1.455-.17 2.173-.3l.277-.05c13.36-2.562 22.626-15.157 21.376-29.063s-12.602-24.546-26.195-24.55h0zM143.42 94.3h-.062a23.78 23.78 0 0 1-2.031-.276c-.038-.007-.077-.01-.114-.02a23.7 23.7 0 0 1-1.95-.445l-.155-.04a24.24 24.24 0 0 1-1.858-.603l-.2-.068c-.6-.226-1.188-.48-1.767-.754l-.216-.1c-.568-.27-1.126-.575-1.672-.895l-.232-.134a24.62 24.62 0 0 1-1.579-1.034l-.235-.166c-.506-.37-1-.76-1.48-1.17l-.133-.12v-7.598c.007-5.472 4.323-9.907 9.65-9.913h12.28c5.327.007 9.643 4.44 9.65 9.913v7.6l-.117.1a23.82 23.82 0 0 1-1.51 1.194l-.206.145a24.35 24.35 0 0 1-1.604 1.052l-.207.12a23.39 23.39 0 0 1-1.693.906c-.066.032-.133.06-.2.1-.584.277-1.177.532-1.78.76l-.176.064a24.33 24.33 0 0 1-1.867.606l-.15.04c-.644.175-1.294.325-1.95.446-.037.007-.075.012-.113.018-.672.12-1.35.214-2.032.277h-.062a23.94 23.94 0 0 1-2.115.096 23.99 23.99 0 0 1-2.118-.089zm19.657-7.494v-5.928c-.007-6.467-5.108-11.708-11.403-11.716h-12.28c-6.295.007-11.396 5.248-11.403 11.716v5.927c-9.447-9.907-9.342-25.8.236-35.564s25.037-9.773 34.615 0 9.683 25.657.235 35.564v.001zm-17.543-37.47c-4.844 0-8.77 4.035-8.77 9.012s3.927 9.012 8.77 9.012 8.772-4.035 8.772-9.012-3.93-9.007-8.772-9.012zm0 16.222c-3.875 0-7.017-3.228-7.017-7.2s3.142-7.2 7.017-7.2 7.018 3.228 7.018 7.2-3.144 7.205-7.018 7.2zm90.186-23.432c-14.533 0-26.314 12.105-26.314 27.036s11.78 27.036 26.314 27.036a25.75 25.75 0 0 0 2.369-.109 25.55 25.55 0 0 0 2.173-.299l.277-.05c13.36-2.562 22.626-15.157 21.376-29.063s-12.602-24.546-26.195-24.55h0zM233.606 94.3h-.062a23.7 23.7 0 0 1-2.03-.276c-.04-.007-.077-.01-.115-.02a23.47 23.47 0 0 1-1.948-.445l-.156-.04a24.24 24.24 0 0 1-1.858-.603l-.2-.068c-.6-.226-1.188-.48-1.767-.754l-.216-.1c-.568-.27-1.126-.575-1.672-.895l-.232-.134a24.62 24.62 0 0 1-1.579-1.034l-.235-.166c-.506-.37-1-.76-1.48-1.17l-.132-.12v-7.598c.006-5.472 4.322-9.907 9.648-9.913h12.28c5.327.007 9.643 4.44 9.65 9.913v7.6l-.116.1a24.4 24.4 0 0 1-1.51 1.194l-.206.145a24.35 24.35 0 0 1-1.604 1.052l-.206.12a23.62 23.62 0 0 1-1.694.906 6.47 6.47 0 0 1-.199.09c-.585.277-1.178.532-1.782.76l-.175.064a24.5 24.5 0 0 1-1.868.606l-.15.04c-.644.175-1.293.325-1.95.446-.038.007-.076.012-.113.018a24.22 24.22 0 0 1-2.033.277h-.062c-.702.062-1.404.096-2.114.096a23.73 23.73 0 0 1-2.12-.09zm19.657-7.494v-5.928c-.007-6.467-5.108-11.708-11.403-11.716h-12.28c-6.294.007-11.395 5.248-11.403 11.716v5.927c-9.447-9.907-9.342-25.8.236-35.564s25.037-9.773 34.615 0 9.683 25.657.235 35.564v.001zm-17.543-37.47c-4.844 0-8.77 4.035-8.77 9.012s3.927 9.012 8.77 9.012 8.772-4.035 8.772-9.012-3.93-9.007-8.772-9.012zm0 16.222c-3.875 0-7.017-3.228-7.017-7.2s3.142-7.2 7.017-7.2 7.017 3.228 7.017 7.2-3.143 7.205-7.017 7.2zm90.186-23.432c-14.533 0-26.315 12.105-26.315 27.036s11.782 27.036 26.315 27.036c.792 0 1.582-.037 2.368-.1a25.63 25.63 0 0 0 2.174-.299l.276-.05c13.36-2.562 22.626-15.157 21.376-29.063s-12.602-24.546-26.194-24.55h0zM323.8 94.3h-.062a23.7 23.7 0 0 1-2.03-.276c-.04-.007-.077-.01-.115-.02a23.93 23.93 0 0 1-1.948-.445l-.156-.04a24.24 24.24 0 0 1-1.858-.603l-.2-.068a23.67 23.67 0 0 1-1.767-.754l-.216-.1c-.568-.27-1.125-.575-1.672-.895l-.232-.134a25.04 25.04 0 0 1-1.58-1.034l-.234-.166c-.507-.37-1-.76-1.482-1.17l-.132-.12v-7.598c.006-5.472 4.322-9.907 9.648-9.913h12.28c5.326.007 9.642 4.44 9.648 9.913v7.6l-.116.1a24.4 24.4 0 0 1-1.51 1.194c-.068.05-.138.096-.206.145a24.33 24.33 0 0 1-1.603 1.052l-.207.12a23.62 23.62 0 0 1-1.694.906 5.54 5.54 0 0 1-.199.09c-.585.277-1.178.532-1.782.76l-.175.064c-.614.226-1.237.43-1.868.606l-.15.04a23.93 23.93 0 0 1-1.95.446c-.038.007-.076.012-.113.018a24.22 24.22 0 0 1-2.033.277h-.062c-.702.062-1.404.096-2.114.096a23.73 23.73 0 0 1-2.12-.09zm19.658-7.494v-5.928c-.008-6.467-5.1-11.708-11.403-11.716h-12.28c-6.294.007-11.395 5.248-11.403 11.716v5.927c-9.447-9.907-9.342-25.8.236-35.564s25.037-9.773 34.615 0 9.683 25.657.236 35.564v.001zm-17.542-37.47c-4.844 0-8.77 4.035-8.77 9.012s3.927 9.012 8.77 9.012 8.772-4.035 8.772-9.012c-.006-4.975-3.93-9.007-8.772-9.012zm0 16.222c-3.876 0-7.017-3.228-7.017-7.2s3.14-7.2 7.017-7.2 7.017 3.228 7.017 7.2-3.143 7.205-7.017 7.2z" fill="#f7aeae"/><path d="M145.315 131.25c-14.533 0-26.315 12.104-26.315 27.036s11.782 27.036 26.315 27.036c.792 0 1.582-.037 2.368-.1a25.47 25.47 0 0 0 2.174-.299l.276-.05c13.362-2.56 22.626-15.157 21.376-29.063s-12.602-24.546-26.194-24.55h0zm-2.114 52.174h-.063a23.74 23.74 0 0 1-2.03-.276c-.04-.007-.077-.01-.115-.02a23.56 23.56 0 0 1-1.948-.445l-.156-.04a23.8 23.8 0 0 1-1.858-.602c-.063-.024-.127-.044-.2-.07a23.84 23.84 0 0 1-1.767-.753l-.216-.1c-.568-.27-1.125-.575-1.672-.895l-.232-.135a24.72 24.72 0 0 1-1.579-1.033l-.234-.166c-.507-.37-1-.76-1.482-1.17l-.132-.12V170c.006-5.473 4.322-9.907 9.65-9.914h12.28c5.326.007 9.642 4.44 9.648 9.914v7.6l-.116.1a24.42 24.42 0 0 1-1.511 1.194l-.206.145a24.4 24.4 0 0 1-1.603 1.051l-.207.12a23.39 23.39 0 0 1-1.694.907c-.066.032-.132.06-.2.1a23.65 23.65 0 0 1-1.782.76l-.175.064c-.614.226-1.237.43-1.868.606l-.15.04a23.93 23.93 0 0 1-1.95.446c-.038.007-.076.012-.113.018a24.22 24.22 0 0 1-2.033.277h-.062c-.702.062-1.404.095-2.114.095a23.65 23.65 0 0 1-2.118-.09zm19.657-7.494v-5.928c-.008-6.468-5.1-11.7-11.403-11.716h-12.28c-6.295.007-11.396 5.248-11.403 11.716v5.927c-9.448-9.907-9.342-25.8.235-35.564s25.038-9.773 34.615 0 9.683 25.657.236 35.564h0zm-17.543-37.47c-4.845 0-8.772 4.035-8.772 9.012s3.927 9.013 8.772 9.013 8.77-4.035 8.77-9.013-3.93-9.007-8.77-9.012zm0 16.222c-3.876 0-7.017-3.228-7.017-7.2s3.14-7.2 7.017-7.2 7.017 3.228 7.017 7.2-3.144 7.206-7.017 7.2z" fill="#fa7f7f"/><g fill="#f7aeae"><path d="M235.5 131.25c-14.533 0-26.315 12.104-26.315 27.036s11.782 27.036 26.315 27.036a25.94 25.94 0 0 0 2.368-.109 25.47 25.47 0 0 0 2.174-.299l.276-.05c13.362-2.56 22.626-15.157 21.376-29.063s-12.602-24.546-26.194-24.55h0zm-2.114 52.174h-.062a23.71 23.71 0 0 1-2.031-.276c-.04-.007-.077-.01-.115-.02a23.56 23.56 0 0 1-1.948-.445l-.156-.04a23.8 23.8 0 0 1-1.858-.602c-.063-.024-.127-.044-.2-.07a23.84 23.84 0 0 1-1.767-.753l-.216-.1c-.568-.27-1.125-.575-1.672-.895l-.232-.135a24.72 24.72 0 0 1-1.579-1.033l-.234-.166c-.507-.37-1-.76-1.482-1.17l-.132-.12V170c.006-5.473 4.322-9.907 9.65-9.914h12.28c5.326.007 9.642 4.44 9.65 9.914v7.6l-.117.1c-.5.42-.994.818-1.5 1.194l-.206.145a24.4 24.4 0 0 1-1.603 1.051l-.207.12a23.39 23.39 0 0 1-1.694.907c-.066.032-.132.06-.2.1a23.96 23.96 0 0 1-1.78.76l-.176.064a24.04 24.04 0 0 1-1.867.606l-.152.04a23.93 23.93 0 0 1-1.95.446c-.038.007-.075.012-.113.018a24.22 24.22 0 0 1-2.033.277h-.062a23.94 23.94 0 0 1-2.114.095 23.65 23.65 0 0 1-2.118-.09zm19.657-7.494v-5.928c-.007-6.468-5.108-11.7-11.403-11.716h-12.28c-6.295.007-11.396 5.248-11.403 11.716v5.927c-9.448-9.907-9.342-25.8.235-35.564s25.038-9.773 34.615 0 9.683 25.657.236 35.564h0zM235.5 138.46c-4.845 0-8.772 4.035-8.772 9.012s3.927 9.013 8.772 9.013 8.77-4.035 8.77-9.013-3.93-9.007-8.77-9.012zm0 16.222c-3.876 0-7.018-3.228-7.018-7.2s3.142-7.2 7.018-7.2 7.017 3.228 7.017 7.2-3.144 7.206-7.017 7.2zm90.186-23.432c-14.533 0-26.315 12.104-26.315 27.036s11.782 27.036 26.315 27.036a25.94 25.94 0 0 0 2.368-.109 25.47 25.47 0 0 0 2.174-.299l.276-.05c13.362-2.56 22.626-15.157 21.377-29.063s-12.603-24.546-26.195-24.55h0zm-2.114 52.174h-.062a23.71 23.71 0 0 1-2.031-.276c-.038-.007-.077-.01-.115-.02a23.56 23.56 0 0 1-1.948-.445l-.155-.04c-.627-.174-1.248-.377-1.86-.602-.063-.024-.127-.044-.2-.07a24.11 24.11 0 0 1-1.768-.753l-.215-.1c-.57-.27-1.126-.575-1.672-.895l-.233-.135a24.72 24.72 0 0 1-1.579-1.033l-.234-.166c-.507-.37-1-.76-1.48-1.17l-.133-.12V170c.007-5.473 4.323-9.907 9.65-9.914h12.28c5.326.007 9.642 4.44 9.65 9.914v7.6l-.117.1c-.5.42-.993.818-1.5 1.194l-.206.145a24.69 24.69 0 0 1-1.604 1.051l-.207.12a23.79 23.79 0 0 1-1.694.907c-.066.032-.132.06-.2.1a23.96 23.96 0 0 1-1.78.76l-.176.064a24.04 24.04 0 0 1-1.867.606l-.15.04a24.05 24.05 0 0 1-1.951.446c-.038.007-.075.012-.113.018a24.22 24.22 0 0 1-2.033.277h-.062a23.94 23.94 0 0 1-2.114.095 24.03 24.03 0 0 1-2.118-.089zm19.657-7.494v-5.928c-.007-6.468-5.108-11.7-11.403-11.716h-12.28c-6.295.007-11.396 5.248-11.403 11.716v5.927c-9.448-9.907-9.342-25.8.235-35.564s25.038-9.773 34.615 0 9.683 25.657.236 35.564h0zm-17.543-37.47c-4.844 0-8.77 4.035-8.77 9.012s3.927 9.013 8.77 9.013 8.772-4.035 8.772-9.013-3.93-9.007-8.772-9.012zm0 16.222c-3.875 0-7.017-3.228-7.017-7.2s3.142-7.2 7.017-7.2 7.018 3.228 7.018 7.2-3.144 7.206-7.018 7.2zm-180.37 65.688c-14.533 0-26.315 12.104-26.315 27.036s11.782 27.036 26.315 27.036c.792 0 1.582-.037 2.368-.1.73-.068 1.455-.17 2.174-.3l.276-.05c13.362-2.562 22.626-15.157 21.376-29.063s-12.602-24.546-26.194-24.55h0zm-2.114 52.174h-.063a23.74 23.74 0 0 1-2.03-.276l-.115-.02a23.56 23.56 0 0 1-1.948-.445l-.156-.04c-.627-.175-1.247-.377-1.858-.603l-.2-.068a23.85 23.85 0 0 1-1.767-.754l-.216-.1c-.568-.27-1.125-.574-1.672-.895l-.232-.134a24.72 24.72 0 0 1-1.579-1.033l-.234-.166a25.06 25.06 0 0 1-1.482-1.172l-.132-.12v-7.598c.006-5.472 4.322-9.906 9.65-9.913h12.28c5.326.007 9.642 4.44 9.648 9.913v7.6l-.116.1a23.67 23.67 0 0 1-1.51 1.194c-.068.05-.138.097-.206.145a23.76 23.76 0 0 1-1.603 1.052l-.207.12a23.79 23.79 0 0 1-1.694.907c-.066.03-.132.06-.2.1a23.64 23.64 0 0 1-1.782.759l-.175.065c-.614.226-1.237.43-1.868.606l-.15.04c-.643.174-1.293.325-1.95.446-.038.007-.076.012-.113.018a24.22 24.22 0 0 1-2.033.277h-.062c-.702.062-1.404.095-2.114.095a23.65 23.65 0 0 1-2.118-.09zm19.657-7.495v-5.928c-.008-6.467-5.1-11.708-11.403-11.715h-12.28c-6.295.007-11.396 5.248-11.403 11.715v5.928c-9.448-9.907-9.342-25.8.235-35.564s25.038-9.773 34.615 0 9.683 25.657.236 35.564h0z"/><use xlink:href="#B"/><path d="M235.5 220.37c-14.533 0-26.315 12.104-26.315 27.036s11.782 27.036 26.315 27.036a25.94 25.94 0 0 0 2.368-.109c.73-.068 1.455-.17 2.174-.3l.276-.05c13.362-2.562 22.626-15.157 21.376-29.063s-12.602-24.546-26.194-24.55h0zm-2.114 52.174h-.062a23.71 23.71 0 0 1-2.031-.276l-.115-.02c-.656-.12-1.305-.27-1.948-.445l-.156-.04c-.627-.175-1.247-.377-1.858-.603l-.19-.068a23.85 23.85 0 0 1-1.767-.754l-.216-.1c-.568-.27-1.125-.574-1.672-.895l-.232-.134a24.72 24.72 0 0 1-1.579-1.033l-.234-.166a25.06 25.06 0 0 1-1.482-1.172l-.132-.12v-7.598c.006-5.472 4.322-9.906 9.65-9.913h12.28c5.326.007 9.642 4.44 9.65 9.913v7.6l-.117.1a23.41 23.41 0 0 1-1.511 1.194c-.068.05-.138.097-.206.145-.52.373-1.056.723-1.603 1.052l-.207.12a23.79 23.79 0 0 1-1.694.907c-.066.03-.132.06-.2.1-.584.277-1.178.53-1.78.76l-.176.065c-.614.226-1.237.43-1.867.606l-.152.04c-.643.174-1.293.325-1.95.446-.038.007-.075.012-.113.018a24.22 24.22 0 0 1-2.033.277h-.062a23.94 23.94 0 0 1-2.114.095c-.71 0-1.418-.027-2.118-.09zm19.657-7.495v-5.928c-.007-6.467-5.108-11.708-11.403-11.715h-12.28c-6.295.007-11.396 5.248-11.403 11.715v5.928c-9.448-9.907-9.342-25.8.235-35.564s25.038-9.773 34.615 0 9.683 25.657.236 35.564h0z"/><use xlink:href="#C"/><path d="M325.686 220.37c-14.533 0-26.315 12.104-26.315 27.036s11.782 27.036 26.315 27.036a25.94 25.94 0 0 0 2.368-.109c.73-.068 1.455-.17 2.174-.3l.276-.05c13.362-2.562 22.626-15.157 21.377-29.063s-12.603-24.546-26.195-24.55h0zm-2.114 52.174h-.062a23.71 23.71 0 0 1-2.031-.276c-.038-.007-.077-.012-.115-.02-.656-.12-1.305-.27-1.948-.445l-.155-.04a23.83 23.83 0 0 1-1.859-.603l-.2-.068c-.6-.226-1.188-.48-1.768-.754-.07-.033-.143-.064-.215-.1a21.49 21.49 0 0 1-1.672-.895l-.233-.134a24.72 24.72 0 0 1-1.579-1.033l-.234-.166c-.507-.37-1-.762-1.48-1.172l-.133-.12v-7.598c.007-5.472 4.323-9.906 9.65-9.913h12.28c5.326.007 9.642 4.44 9.65 9.913v7.6l-.117.1a23.39 23.39 0 0 1-1.51 1.194l-.206.145c-.522.373-1.057.723-1.604 1.052-.068.04-.14.08-.207.12-.554.324-1.12.63-1.694.907-.066.03-.132.06-.2.1-.584.277-1.178.53-1.78.76l-.176.065c-.614.226-1.237.43-1.867.606l-.15.04a24.48 24.48 0 0 1-1.951.446c-.038.007-.075.012-.113.018a24.22 24.22 0 0 1-2.033.277h-.062a23.94 23.94 0 0 1-2.114.095 24.03 24.03 0 0 1-2.118-.089zm19.657-7.495v-5.928c-.007-6.467-5.108-11.708-11.403-11.715h-12.28c-6.295.007-11.396 5.248-11.403 11.715v5.928c-9.448-9.907-9.342-25.8.235-35.564s25.038-9.773 34.615 0 9.683 25.657.236 35.564h0z"/><use xlink:href="#D"/><path d="M145.315 313.492c-14.533 0-26.315 12.105-26.315 27.037s11.782 27.036 26.315 27.036c.792 0 1.582-.037 2.368-.11.73-.068 1.455-.17 2.174-.3l.276-.05c13.362-2.562 22.626-15.157 21.376-29.063s-12.602-24.546-26.194-24.55h0zm-2.114 52.175h-.063a23.74 23.74 0 0 1-2.03-.276l-.115-.02c-.656-.12-1.305-.27-1.948-.445l-.156-.04c-.627-.175-1.247-.377-1.858-.603l-.19-.068a23.85 23.85 0 0 1-1.767-.754l-.216-.1c-.568-.27-1.125-.574-1.672-.895l-.232-.134a24.72 24.72 0 0 1-1.579-1.033l-.234-.166a25.06 25.06 0 0 1-1.482-1.172l-.132-.12v-7.598c.006-5.472 4.322-9.906 9.65-9.913h12.28c5.326.007 9.642 4.44 9.648 9.913v7.6l-.116.1c-.49.42-.994.82-1.51 1.194-.068.05-.138.097-.206.145-.52.373-1.056.723-1.603 1.052l-.207.12a23.79 23.79 0 0 1-1.694.907c-.066.03-.132.06-.2.1a23.64 23.64 0 0 1-1.782.759c-.06.023-.12.043-.175.065-.614.226-1.237.43-1.868.606l-.15.04c-.643.174-1.293.325-1.95.446-.038.007-.076.012-.113.018a24.22 24.22 0 0 1-2.033.277h-.062c-.702.062-1.404.095-2.114.095s-1.418-.027-2.118-.09zm19.657-7.495v-5.928c-.008-6.467-5.11-11.708-11.403-11.715h-12.28c-6.295.007-11.396 5.248-11.403 11.715v5.928c-9.448-9.907-9.342-25.8.235-35.564s25.038-9.773 34.615 0 9.683 25.657.236 35.564h0z"/><use xlink:href="#B" y="93.124"/><path d="M235.5 313.492c-14.533 0-26.315 12.105-26.315 27.037s11.782 27.036 26.315 27.036a25.94 25.94 0 0 0 2.368-.109c.73-.068 1.455-.17 2.174-.3l.276-.05c13.362-2.562 22.626-15.157 21.376-29.063s-12.602-24.546-26.194-24.55h0zm-2.114 52.175h-.062a23.71 23.71 0 0 1-2.031-.276l-.115-.02c-.656-.12-1.305-.27-1.948-.445l-.156-.04c-.627-.175-1.247-.377-1.858-.603l-.19-.068a23.85 23.85 0 0 1-1.767-.754l-.216-.1c-.568-.27-1.125-.574-1.672-.895l-.232-.134a24.72 24.72 0 0 1-1.579-1.033l-.234-.166a25.06 25.06 0 0 1-1.482-1.172l-.132-.12v-7.598c.006-5.472 4.322-9.906 9.65-9.913h12.28c5.326.007 9.642 4.44 9.65 9.913v7.6l-.117.1a23.41 23.41 0 0 1-1.511 1.194c-.068.05-.138.097-.206.145-.52.373-1.056.723-1.603 1.052l-.207.12a23.79 23.79 0 0 1-1.694.907c-.066.03-.132.06-.2.1-.584.277-1.178.53-1.78.76l-.176.065c-.614.226-1.237.43-1.867.606l-.152.04c-.643.174-1.293.325-1.95.446-.038.007-.075.012-.113.018a24.22 24.22 0 0 1-2.033.277h-.062a23.94 23.94 0 0 1-2.114.095c-.71 0-1.418-.027-2.118-.09zm19.657-7.495v-5.928c-.007-6.467-5.108-11.708-11.403-11.715h-12.28c-6.295.007-11.396 5.248-11.403 11.715v5.928c-9.448-9.907-9.342-25.8.235-35.564s25.038-9.773 34.615 0 9.683 25.657.236 35.564h0z"/><use xlink:href="#C" y="93.124"/><path d="M325.686 313.492c-14.533 0-26.315 12.105-26.315 27.037s11.782 27.036 26.315 27.036a25.94 25.94 0 0 0 2.368-.109c.73-.068 1.455-.17 2.174-.3l.276-.05c13.362-2.562 22.626-15.157 21.377-29.063s-12.603-24.546-26.195-24.55h0zm-2.114 52.175h-.062a23.71 23.71 0 0 1-2.031-.276c-.038-.007-.077-.012-.115-.02-.656-.12-1.305-.27-1.948-.445l-.155-.04a23.83 23.83 0 0 1-1.859-.603l-.2-.068c-.6-.226-1.188-.48-1.768-.754-.07-.033-.143-.064-.215-.1a21.49 21.49 0 0 1-1.672-.895l-.233-.134a24.72 24.72 0 0 1-1.579-1.033l-.234-.166c-.507-.37-1-.762-1.48-1.172l-.133-.12v-7.598c.007-5.472 4.323-9.906 9.65-9.913h12.28c5.326.007 9.642 4.44 9.65 9.913v7.6l-.117.1a23.39 23.39 0 0 1-1.51 1.194l-.206.145c-.522.373-1.057.723-1.604 1.052-.068.04-.14.08-.207.12-.554.324-1.12.63-1.694.907-.066.03-.132.06-.2.1-.584.277-1.178.53-1.78.76l-.176.065c-.614.226-1.237.43-1.867.606l-.15.04a24.48 24.48 0 0 1-1.951.446c-.038.007-.075.012-.113.018a24.22 24.22 0 0 1-2.033.277h-.062a23.94 23.94 0 0 1-2.114.095 24.03 24.03 0 0 1-2.118-.089zm19.657-7.495v-5.928c-.007-6.467-5.108-11.708-11.403-11.715h-12.28c-6.295.007-11.396 5.248-11.403 11.715v5.928c-9.448-9.907-9.342-25.8.235-35.564s25.038-9.773 34.615 0 9.683 25.657.236 35.564h0z"/><use xlink:href="#D" y="93.124"/><path d="M55.35 132.7c-14.533 0-26.315 12.105-26.315 27.036s11.782 27.036 26.315 27.036a25.6 25.6 0 0 0 2.368-.109 25.13 25.13 0 0 0 2.174-.3l.276-.05c13.362-2.562 22.626-15.157 21.376-29.063S68.942 132.695 55.35 132.7h0zm-2.114 52.175h-.062a23.75 23.75 0 0 1-2.031-.276l-.115-.02a23.47 23.47 0 0 1-1.948-.445l-.155-.04a24.26 24.26 0 0 1-1.858-.603l-.2-.068c-.6-.226-1.188-.48-1.767-.754l-.216-.1a21.67 21.67 0 0 1-1.672-.895L43 181.54c-.538-.323-1.064-.668-1.58-1.034l-.234-.166a24.72 24.72 0 0 1-1.482-1.171l-.132-.12v-7.598c.007-5.472 4.322-9.907 9.65-9.913H61.5c5.326.006 9.642 4.44 9.65 9.913v7.6l-.116.1a23.87 23.87 0 0 1-1.511 1.194l-.206.145c-.522.372-1.056.723-1.604 1.052l-.207.12c-.555.324-1.12.63-1.694.906-.066.032-.132.06-.2.1a25.3 25.3 0 0 1-1.78.76c-.06.023-.12.043-.176.064-.614.226-1.237.43-1.867.607l-.15.038a24.13 24.13 0 0 1-1.95.447c-.038.007-.075.01-.113.018a23.81 23.81 0 0 1-2.033.276h-.062c-.702.062-1.404.096-2.114.096a23.65 23.65 0 0 1-2.118-.09zm19.657-7.495v-5.928c-.007-6.467-5.108-11.708-11.403-11.716H49.2c-6.295.008-11.396 5.25-11.403 11.716v5.927c-9.447-9.906-9.342-25.8.236-35.563s25.037-9.773 34.615 0 9.683 25.657.236 35.563h0zM55.35 139.9c-4.844 0-8.77 4.035-8.77 9.012s3.927 9.012 8.77 9.012 8.772-4.035 8.772-9.012-3.93-9.007-8.772-9.012zm0 16.22c-3.876 0-7.017-3.227-7.017-7.2s3.142-7.2 7.017-7.2 7.017 3.227 7.017 7.2-3.144 7.205-7.017 7.2zm0 67.146c-14.533 0-26.315 12.104-26.315 27.036s11.782 27.036 26.315 27.036c.793 0 1.582-.037 2.368-.1a26.29 26.29 0 0 0 2.174-.299l.276-.05c13.362-2.562 22.626-15.157 21.376-29.063s-12.602-24.546-26.195-24.55h0zm-2.114 52.174h-.062a23.75 23.75 0 0 1-2.031-.276c-.038-.007-.077-.01-.115-.02a23.54 23.54 0 0 1-1.948-.445l-.155-.04a23.8 23.8 0 0 1-1.858-.602c-.063-.024-.127-.044-.2-.07a23.72 23.72 0 0 1-1.767-.753l-.216-.1c-.568-.27-1.126-.575-1.672-.895l-.232-.135a24.64 24.64 0 0 1-1.579-1.033l-.234-.166a24.34 24.34 0 0 1-1.482-1.172l-.132-.118v-7.6c.007-5.472 4.322-9.906 9.65-9.913H61.5c5.326.007 9.642 4.44 9.65 9.913v7.6l-.116.1c-.5.42-.994.82-1.5 1.195l-.206.144a24.1 24.1 0 0 1-1.604 1.052l-.207.12a24.01 24.01 0 0 1-1.694.907 7.26 7.26 0 0 1-.199.09 23.96 23.96 0 0 1-1.78.76l-.176.065a24.02 24.02 0 0 1-1.867.606l-.15.04a24.01 24.01 0 0 1-1.95.446c-.038.007-.075.012-.113.018a23.81 23.81 0 0 1-2.033.277h-.062c-.702.062-1.404.095-2.114.095a23.65 23.65 0 0 1-2.118-.09zm19.657-7.494v-5.93c-.007-6.467-5.108-11.708-11.403-11.715H49.2c-6.295.007-11.396 5.248-11.403 11.715v5.928c-9.447-9.907-9.342-25.8.236-35.564s25.037-9.773 34.615 0 9.683 25.657.236 35.564v.001zm-17.543-37.47c-4.844 0-8.77 4.035-8.77 9.012s3.927 9.012 8.77 9.012 8.772-4.034 8.772-9.012-3.93-9.006-8.772-9.012zm0 16.222c-3.876 0-7.017-3.228-7.017-7.2s3.142-7.2 7.017-7.2 7.017 3.227 7.017 7.2-3.144 7.205-7.017 7.2zm0 67.145c-14.533 0-26.315 12.104-26.315 27.036s11.782 27.036 26.315 27.036a25.6 25.6 0 0 0 2.368-.11 25.13 25.13 0 0 0 2.174-.3l.276-.05c13.362-2.562 22.626-15.157 21.376-29.063s-12.602-24.546-26.195-24.55h0zm-2.114 52.174h-.062a23.75 23.75 0 0 1-2.031-.276l-.115-.02a23.47 23.47 0 0 1-1.948-.445l-.155-.04a23.83 23.83 0 0 1-1.858-.603l-.2-.068c-.6-.226-1.188-.48-1.767-.754l-.216-.1a21.67 21.67 0 0 1-1.672-.895L43 362.68a24.33 24.33 0 0 1-1.58-1.034l-.234-.165a25.15 25.15 0 0 1-1.482-1.172l-.132-.12v-7.598c.007-5.472 4.322-9.906 9.65-9.913H61.5c5.326.007 9.642 4.44 9.65 9.913v7.6l-.116.1c-.5.42-.994.82-1.5 1.194l-.206.145c-.522.372-1.056.723-1.604 1.052l-.207.12a23.25 23.25 0 0 1-1.694.906 3.59 3.59 0 0 1-.2.09 25.3 25.3 0 0 1-1.78.76c-.06.023-.12.043-.176.064a24.03 24.03 0 0 1-1.867.607l-.15.038a24.13 24.13 0 0 1-1.95.447c-.038.007-.075.012-.113.018a24.22 24.22 0 0 1-2.033.277h-.062c-.702.062-1.404.095-2.114.095a23.65 23.65 0 0 1-2.118-.09zm19.657-7.495v-5.928c-.007-6.467-5.108-11.708-11.403-11.715H49.2c-6.295.007-11.396 5.248-11.403 11.715v5.927c-9.447-9.906-9.342-25.8.236-35.563s25.037-9.773 34.615 0 9.683 25.657.236 35.563h0zM55.35 321.05c-4.844 0-8.77 4.035-8.77 9.012s3.927 9.012 8.77 9.012 8.772-4.035 8.772-9.012-3.93-9.007-8.772-9.012zm0 16.222c-3.876 0-7.017-3.228-7.017-7.2s3.142-7.2 7.017-7.2 7.017 3.228 7.017 7.2-3.144 7.205-7.017 7.2z"/></g><defs ><path id="B" d="M145.315 227.578c-4.845 0-8.772 4.035-8.772 9.012s3.927 9.012 8.772 9.012 8.77-4.035 8.77-9.012c-.005-4.975-3.93-9.007-8.77-9.012zm0 16.222c-3.876 0-7.017-3.228-7.017-7.2s3.14-7.21 7.017-7.21 7.017 3.227 7.017 7.21-3.144 7.205-7.017 7.2z"/><path id="C" d="M235.5 227.578c-4.845 0-8.772 4.035-8.772 9.012s3.927 9.012 8.772 9.012 8.77-4.035 8.77-9.012-3.93-9.007-8.77-9.012zm0 16.222c-3.876 0-7.018-3.228-7.018-7.2s3.142-7.21 7.018-7.21 7.017 3.227 7.017 7.21-3.144 7.205-7.017 7.2z"/><path id="D" d="M325.686 227.578c-4.844 0-8.77 4.035-8.77 9.012s3.927 9.012 8.77 9.012 8.772-4.035 8.772-9.012c-.005-4.975-3.93-9.007-8.772-9.012zm0 16.222c-3.875 0-7.017-3.228-7.017-7.2s3.142-7.21 7.017-7.21 7.018 3.227 7.018 7.21-3.144 7.205-7.018 7.2z"/></defs></svg>