<svg width="100%" height="100%" viewBox="0 0 385 395" fill="none" xmlns="http://www.w3.org/2000/svg">
<rect x="0.5" y="0.5" width="383.05" height="393.053" fill="#FFCDCD" stroke="black"/>
<path d="M55.3494 42.1145C40.8164 42.1145 29.0348 54.2192 29.0348 69.1508C29.0348 84.0823 40.8164 96.187 55.3494 96.187C56.1422 96.187 56.9319 96.1505 57.7179 96.0779C58.4485 96.0106 59.1728 95.9076 59.8915 95.7787L60.1677 95.7285C73.5293 93.1666 82.7938 80.5712 81.5441 66.665C80.2943 52.7587 68.9418 42.1189 55.3494 42.1145V42.1145ZM53.2353 94.2891H53.1732C52.4909 94.2271 51.8138 94.1333 51.1426 94.0132C51.1041 94.0062 51.0656 94.0018 51.0279 93.9943C50.3717 93.8737 49.7224 93.7241 49.0795 93.5494L48.9241 93.5085C48.297 93.3338 47.6769 93.1309 47.0657 92.9056C47.0023 92.8823 46.9385 92.8616 46.8751 92.8374C46.2759 92.6112 45.6874 92.3578 45.1079 92.0836C45.036 92.0506 44.964 92.0189 44.8921 91.9837C44.3237 91.7135 43.7665 91.409 43.22 91.0887C43.1429 91.0438 43.065 90.9989 42.9879 90.9545C42.4499 90.6319 41.9244 90.286 41.4087 89.9208C41.3308 89.8649 41.252 89.8108 41.1745 89.7549C40.6678 89.3857 40.174 88.9936 39.693 88.5835L39.5606 88.4647V80.8665C39.5671 75.3941 43.883 70.9598 49.2093 70.9532H61.4895C66.8158 70.9598 71.1317 75.3941 71.1381 80.8665V88.4656L71.0216 88.5655C70.5312 88.9861 70.028 89.3839 69.511 89.7597C69.4425 89.809 69.3731 89.8561 69.305 89.9045C68.7834 90.2768 68.2488 90.6271 67.7015 90.9562C67.633 90.9971 67.5627 91.0359 67.4946 91.0764C66.94 91.4007 66.3759 91.7069 65.8007 91.9828C65.7347 92.0145 65.6684 92.044 65.6015 92.073C65.0173 92.3498 64.4237 92.6046 63.8203 92.8326C63.7603 92.8554 63.6999 92.8752 63.6447 92.8968C63.0305 93.123 62.4077 93.3276 61.7773 93.5032L61.6261 93.5419C60.9824 93.7166 60.3326 93.8671 59.6756 93.9881C59.6379 93.9952 59.6002 94 59.5625 94.0062C58.8906 94.1267 58.2126 94.2205 57.5298 94.2829H57.4677C56.7662 94.345 56.0642 94.3784 55.3537 94.3784C54.6431 94.3784 53.9356 94.3512 53.2353 94.2891ZM72.8925 86.7947V80.8665C72.8852 74.3992 67.7841 69.1582 61.4895 69.1508H49.2093C42.9146 69.1582 37.8136 74.3992 37.8063 80.8665V86.7938C28.3589 76.8872 28.4643 61.0038 38.0419 51.23C47.6195 41.4566 63.0793 41.4566 72.6569 51.23C82.2345 61.0038 82.3398 76.8872 72.8925 86.7938V86.7947Z" fill="#F7AEAE"/>
<path d="M55.349 49.3245C50.5046 49.3245 46.5775 53.3592 46.5775 58.3364C46.5775 63.3137 50.5046 67.3484 55.349 67.3484C60.1935 67.3484 64.1206 63.3137 64.1206 58.3364C64.1154 53.3614 60.1914 49.3297 55.349 49.3245ZM55.349 65.546C51.4734 65.546 48.3318 62.3183 48.3318 58.3364C48.3318 54.3545 51.4734 51.1269 55.349 51.1269C59.2247 51.1269 62.3663 54.3545 62.3663 58.3364C62.362 62.3161 59.2226 65.5416 55.349 65.546Z" fill="#F7AEAE"/>
<path d="M145.534 42.1145C131.001 42.1145 119.22 54.2192 119.22 69.1508C119.22 84.0823 131.001 96.187 145.534 96.187C146.327 96.187 147.117 96.1505 147.903 96.0779C148.633 96.0106 149.358 95.9076 150.076 95.7787L150.353 95.7285C163.714 93.1666 172.979 80.5712 171.729 66.665C170.479 52.7587 159.127 42.1189 145.534 42.1145V42.1145ZM143.42 94.2891H143.358C142.676 94.2271 141.999 94.1333 141.327 94.0132C141.289 94.0062 141.25 94.0018 141.213 93.9943C140.557 93.8737 139.907 93.7241 139.264 93.5494L139.109 93.5085C138.482 93.3338 137.862 93.1309 137.251 92.9056C137.187 92.8823 137.123 92.8616 137.06 92.8374C136.461 92.6112 135.872 92.3578 135.293 92.0836C135.221 92.0506 135.149 92.0189 135.077 91.9837C134.509 91.7135 133.951 91.409 133.405 91.0887C133.328 91.0438 133.25 90.9989 133.173 90.9545C132.635 90.6319 132.109 90.286 131.594 89.9208C131.516 89.8649 131.437 89.8108 131.359 89.7549C130.853 89.3857 130.359 88.9936 129.878 88.5835L129.745 88.4647V80.8665C129.752 75.3941 134.068 70.9598 139.394 70.9532H151.674C157.001 70.9598 161.317 75.3941 161.323 80.8665V88.4656L161.206 88.5655C160.716 88.9861 160.213 89.3839 159.696 89.7597C159.627 89.809 159.558 89.8561 159.49 89.9045C158.968 90.2768 158.434 90.6271 157.886 90.9562C157.818 90.9971 157.748 91.0359 157.679 91.0764C157.125 91.4007 156.561 91.7069 155.986 91.9828C155.92 92.0145 155.853 92.044 155.786 92.073C155.202 92.3498 154.609 92.6046 154.005 92.8326C153.945 92.8554 153.885 92.8752 153.829 92.8968C153.215 93.123 152.593 93.3276 151.962 93.5032L151.811 93.5419C151.167 93.7166 150.517 93.8671 149.86 93.9881C149.823 93.9952 149.785 94 149.747 94.0062C149.075 94.1267 148.397 94.2205 147.715 94.2829H147.653C146.951 94.345 146.249 94.3784 145.538 94.3784C144.828 94.3784 144.12 94.3512 143.42 94.2891ZM163.077 86.7947V80.8665C163.07 74.3992 157.969 69.1582 151.674 69.1508H139.394C133.099 69.1582 127.998 74.3992 127.991 80.8665V86.7938C118.544 76.8872 118.649 61.0038 128.227 51.23C137.804 41.4566 153.264 41.4566 162.842 51.23C172.419 61.0038 172.525 76.8872 163.077 86.7938V86.7947Z" fill="#F7AEAE"/>
<path d="M145.534 49.3245C140.69 49.3245 136.763 53.3592 136.763 58.3364C136.763 63.3137 140.69 67.3484 145.534 67.3484C150.379 67.3484 154.306 63.3137 154.306 58.3364C154.301 53.3614 150.377 49.3297 145.534 49.3245ZM145.534 65.546C141.659 65.546 138.517 62.3183 138.517 58.3364C138.517 54.3545 141.659 51.1269 145.534 51.1269C149.41 51.1269 152.552 54.3545 152.552 58.3364C152.547 62.3161 149.408 65.5416 145.534 65.546Z" fill="#F7AEAE"/>
<path d="M235.72 42.1145C221.187 42.1145 209.406 54.2192 209.406 69.1508C209.406 84.0823 221.187 96.187 235.72 96.187C236.513 96.187 237.303 96.1505 238.089 96.0779C238.82 96.0106 239.544 95.9076 240.262 95.7787L240.539 95.7285C253.9 93.1666 263.165 80.5712 261.915 66.665C260.665 52.7587 249.313 42.1189 235.72 42.1145V42.1145ZM233.606 94.2891H233.544C232.862 94.2271 232.185 94.1333 231.514 94.0132C231.475 94.0062 231.437 94.0018 231.399 93.9943C230.743 93.8737 230.093 93.7241 229.451 93.5494L229.295 93.5085C228.668 93.3338 228.048 93.1309 227.437 92.9056C227.373 92.8823 227.309 92.8616 227.246 92.8374C226.647 92.6112 226.058 92.3578 225.479 92.0836C225.407 92.0506 225.335 92.0189 225.263 91.9837C224.695 91.7135 224.137 91.409 223.591 91.0887C223.514 91.0438 223.436 90.9989 223.359 90.9545C222.821 90.6319 222.295 90.286 221.78 89.9208C221.702 89.8649 221.623 89.8108 221.545 89.7549C221.039 89.3857 220.545 88.9936 220.064 88.5835L219.932 88.4647V80.8665C219.938 75.3941 224.254 70.9598 229.58 70.9532H241.86C247.187 70.9598 251.503 75.3941 251.509 80.8665V88.4656L251.393 88.5655C250.902 88.9861 250.399 89.3839 249.882 89.7597C249.813 89.809 249.744 89.8561 249.676 89.9045C249.154 90.2768 248.62 90.6271 248.072 90.9562C248.004 90.9971 247.934 91.0359 247.866 91.0764C247.311 91.4007 246.747 91.7069 246.172 91.9828C246.106 92.0145 246.039 92.044 245.973 92.073C245.388 92.3498 244.795 92.6046 244.191 92.8326C244.131 92.8554 244.071 92.8752 244.016 92.8968C243.401 93.123 242.779 93.3276 242.148 93.5032L241.997 93.5419C241.353 93.7166 240.704 93.8671 240.047 93.9881C240.009 93.9952 239.971 94 239.934 94.0062C239.262 94.1267 238.584 94.2205 237.901 94.2829H237.839C237.137 94.345 236.435 94.3784 235.725 94.3784C235.014 94.3784 234.307 94.3512 233.606 94.2891ZM253.263 86.7947V80.8665C253.256 74.3992 248.155 69.1582 241.86 69.1508H229.58C223.286 69.1582 218.185 74.3992 218.177 80.8665V86.7938C208.73 76.8872 208.835 61.0038 218.413 51.23C227.99 41.4566 243.45 41.4566 253.028 51.23C262.605 61.0038 262.711 76.8872 253.263 86.7938V86.7947Z" fill="#F7AEAE"/>
<path d="M235.72 49.3245C230.876 49.3245 226.949 53.3592 226.949 58.3364C226.949 63.3137 230.876 67.3484 235.72 67.3484C240.565 67.3484 244.492 63.3137 244.492 58.3364C244.487 53.3614 240.563 49.3297 235.72 49.3245ZM235.72 65.546C231.845 65.546 228.703 62.3183 228.703 58.3364C228.703 54.3545 231.845 51.1269 235.72 51.1269C239.596 51.1269 242.737 54.3545 242.737 58.3364C242.733 62.3161 239.594 65.5416 235.72 65.546Z" fill="#F7AEAE"/>
<path d="M325.906 42.1145C311.373 42.1145 299.591 54.2192 299.591 69.1508C299.591 84.0823 311.373 96.187 325.906 96.187C326.698 96.187 327.488 96.1505 328.274 96.0779C329.005 96.0106 329.729 95.9076 330.448 95.7787L330.724 95.7285C344.085 93.1666 353.35 80.5712 352.1 66.665C350.85 52.7587 339.498 42.1189 325.906 42.1145V42.1145ZM323.791 94.2891H323.729C323.047 94.2271 322.37 94.1333 321.699 94.0132C321.66 94.0062 321.622 94.0018 321.584 93.9943C320.928 93.8737 320.279 93.7241 319.636 93.5494L319.48 93.5085C318.853 93.3338 318.233 93.1309 317.622 92.9056C317.558 92.8823 317.495 92.8616 317.431 92.8374C316.832 92.6112 316.244 92.3578 315.664 92.0836C315.592 92.0506 315.52 92.0189 315.448 91.9837C314.88 91.7135 314.323 91.409 313.776 91.0887C313.699 91.0438 313.621 90.9989 313.544 90.9545C313.006 90.6319 312.481 90.286 311.965 89.9208C311.887 89.8649 311.808 89.8108 311.731 89.7549C311.224 89.3857 310.73 88.9936 310.249 88.5835L310.117 88.4647V80.8665C310.123 75.3941 314.439 70.9598 319.765 70.9532H332.046C337.372 70.9598 341.688 75.3941 341.694 80.8665V88.4656L341.578 88.5655C341.087 88.9861 340.584 89.3839 340.067 89.7597C339.999 89.809 339.929 89.8561 339.861 89.9045C339.34 90.2768 338.805 90.6271 338.258 90.9562C338.189 90.9971 338.119 91.0359 338.051 91.0764C337.496 91.4007 336.932 91.7069 336.357 91.9828C336.291 92.0145 336.225 92.044 336.158 92.073C335.573 92.3498 334.98 92.6046 334.376 92.8326C334.316 92.8554 334.256 92.8752 334.201 92.8968C333.587 93.123 332.964 93.3276 332.333 93.5032L332.182 93.5419C331.539 93.7166 330.889 93.8671 330.232 93.9881C330.194 93.9952 330.156 94 330.119 94.0062C329.447 94.1267 328.769 94.2205 328.086 94.2829H328.024C327.322 94.345 326.62 94.3784 325.91 94.3784C325.199 94.3784 324.492 94.3512 323.791 94.2891ZM343.449 86.7947V80.8665C343.441 74.3992 338.34 69.1582 332.046 69.1508H319.765C313.471 69.1582 308.37 74.3992 308.362 80.8665V86.7938C298.915 76.8872 299.02 61.0038 308.598 51.23C318.176 41.4566 333.635 41.4566 343.213 51.23C352.791 61.0038 352.896 76.8872 343.449 86.7938V86.7947Z" fill="#F7AEAE"/>
<path d="M325.906 49.3245C321.062 49.3245 317.135 53.3592 317.135 58.3364C317.135 63.3137 321.062 67.3484 325.906 67.3484C330.751 67.3484 334.678 63.3137 334.678 58.3364C334.672 53.3614 330.748 49.3297 325.906 49.3245ZM325.906 65.546C322.03 65.546 318.889 62.3183 318.889 58.3364C318.889 54.3545 322.03 51.1269 325.906 51.1269C329.782 51.1269 332.923 54.3545 332.923 58.3364C332.919 62.3161 329.78 65.5416 325.906 65.546Z" fill="#F7AEAE"/>
<path d="M145.315 131.25C130.782 131.25 119 143.354 119 158.286C119 173.217 130.782 185.322 145.315 185.322C146.107 185.322 146.897 185.285 147.683 185.213C148.414 185.146 149.138 185.043 149.857 184.914L150.133 184.863C163.495 182.302 172.759 169.706 171.509 155.8C170.259 141.894 158.907 131.254 145.315 131.25V131.25ZM143.201 183.424H143.138C142.456 183.362 141.779 183.268 141.108 183.148C141.069 183.141 141.031 183.137 140.993 183.129C140.337 183.009 139.688 182.859 139.045 182.684L138.889 182.643C138.262 182.469 137.642 182.266 137.031 182.041C136.968 182.017 136.904 181.997 136.84 181.972C136.241 181.746 135.653 181.493 135.073 181.219C135.001 181.186 134.929 181.154 134.857 181.119C134.289 180.849 133.732 180.544 133.185 180.224C133.108 180.179 133.03 180.134 132.953 180.089C132.415 179.767 131.89 179.421 131.374 179.056C131.296 179 131.217 178.946 131.14 178.89C130.633 178.521 130.139 178.129 129.658 177.719L129.526 177.6V170.002C129.532 164.529 133.848 160.095 139.175 160.088H151.455C156.781 160.095 161.097 164.529 161.103 170.002V177.601L160.987 177.701C160.496 178.121 159.993 178.519 159.476 178.895C159.408 178.944 159.338 178.991 159.27 179.04C158.749 179.412 158.214 179.762 157.667 180.091C157.598 180.132 157.528 180.171 157.46 180.211C156.905 180.536 156.341 180.842 155.766 181.118C155.7 181.15 155.634 181.179 155.567 181.208C154.983 181.485 154.389 181.74 153.785 181.968C153.726 181.99 153.665 182.01 153.61 182.032C152.996 182.258 152.373 182.463 151.742 182.638L151.591 182.677C150.948 182.852 150.298 183.002 149.641 183.123C149.603 183.13 149.565 183.135 149.528 183.141C148.856 183.262 148.178 183.355 147.495 183.418H147.433C146.731 183.48 146.029 183.513 145.319 183.513C144.608 183.513 143.901 183.486 143.201 183.424ZM162.858 175.93V170.002C162.85 163.534 157.749 158.293 151.455 158.286H139.175C132.88 158.293 127.779 163.534 127.772 170.002V175.929C118.324 166.022 118.43 150.139 128.007 140.365C137.585 130.592 153.045 130.592 162.622 140.365C172.2 150.139 172.305 166.022 162.858 175.929V175.93Z" fill="#FA7F7F"/>
<path d="M145.315 138.459C140.47 138.459 136.543 142.494 136.543 147.471C136.543 152.449 140.47 156.484 145.315 156.484C150.159 156.484 154.086 152.449 154.086 147.471C154.081 142.496 150.157 138.464 145.315 138.459ZM145.315 154.681C141.439 154.681 138.298 151.453 138.298 147.471C138.298 143.489 141.439 140.261 145.315 140.261C149.191 140.261 152.332 143.489 152.332 147.471C152.328 151.451 149.188 154.677 145.315 154.681Z" fill="#FA7F7F"/>
<path d="M235.501 131.25C220.968 131.25 209.186 143.354 209.186 158.286C209.186 173.217 220.968 185.322 235.501 185.322C236.294 185.322 237.083 185.285 237.869 185.213C238.6 185.146 239.324 185.043 240.043 184.914L240.319 184.863C253.681 182.302 262.945 169.706 261.695 155.8C260.446 141.894 249.093 131.254 235.501 131.25V131.25ZM233.387 183.424H233.325C232.642 183.362 231.965 183.268 231.294 183.148C231.255 183.141 231.217 183.137 231.179 183.129C230.523 183.009 229.874 182.859 229.231 182.684L229.075 182.643C228.448 182.469 227.828 182.266 227.217 182.041C227.154 182.017 227.09 181.997 227.026 181.972C226.427 181.746 225.839 181.493 225.259 181.219C225.187 181.186 225.115 181.154 225.043 181.119C224.475 180.849 223.918 180.544 223.371 180.224C223.294 180.179 223.216 180.134 223.139 180.089C222.601 179.767 222.076 179.421 221.56 179.056C221.482 179 221.403 178.946 221.326 178.89C220.819 178.521 220.325 178.129 219.844 177.719L219.712 177.6V170.002C219.718 164.529 224.034 160.095 229.361 160.088H241.641C246.967 160.095 251.283 164.529 251.29 170.002V177.601L251.173 177.701C250.683 178.121 250.179 178.519 249.662 178.895C249.594 178.944 249.524 178.991 249.456 179.04C248.935 179.412 248.4 179.762 247.853 180.091C247.784 180.132 247.714 180.171 247.646 180.211C247.091 180.536 246.527 180.842 245.952 181.118C245.886 181.15 245.82 181.179 245.753 181.208C245.169 181.485 244.575 181.74 243.972 181.968C243.912 181.99 243.851 182.01 243.796 182.032C243.182 182.258 242.559 182.463 241.929 182.638L241.777 182.677C241.134 182.852 240.484 183.002 239.827 183.123C239.789 183.13 239.752 183.135 239.714 183.141C239.042 183.262 238.364 183.355 237.681 183.418H237.619C236.918 183.48 236.216 183.513 235.505 183.513C234.794 183.513 234.087 183.486 233.387 183.424ZM253.044 175.93V170.002C253.037 163.534 247.936 158.293 241.641 158.286H229.361C223.066 158.293 217.965 163.534 217.958 170.002V175.929C208.51 166.022 208.616 150.139 218.193 140.365C227.771 130.592 243.231 130.592 252.808 140.365C262.386 150.139 262.491 166.022 253.044 175.929V175.93Z" fill="#F7AEAE"/>
<path d="M235.501 138.459C230.656 138.459 226.729 142.494 226.729 147.471C226.729 152.449 230.656 156.484 235.501 156.484C240.345 156.484 244.272 152.449 244.272 147.471C244.267 142.496 240.343 138.464 235.501 138.459ZM235.501 154.681C231.625 154.681 228.483 151.453 228.483 147.471C228.483 143.489 231.625 140.261 235.501 140.261C239.376 140.261 242.518 143.489 242.518 147.471C242.513 151.451 239.374 154.677 235.501 154.681Z" fill="#F7AEAE"/>
<path d="M325.686 131.25C311.153 131.25 299.371 143.354 299.371 158.286C299.371 173.217 311.153 185.322 325.686 185.322C326.479 185.322 327.268 185.285 328.054 185.213C328.785 185.146 329.509 185.043 330.228 184.914L330.504 184.863C343.866 182.302 353.13 169.706 351.881 155.8C350.631 141.894 339.278 131.254 325.686 131.25V131.25ZM323.572 183.424H323.51C322.827 183.362 322.15 183.268 321.479 183.148C321.441 183.141 321.402 183.137 321.364 183.129C320.708 183.009 320.059 182.859 319.416 182.684L319.261 182.643C318.634 182.469 318.013 182.266 317.402 182.041C317.339 182.017 317.275 181.997 317.212 181.972C316.612 181.746 316.024 181.493 315.444 181.219C315.373 181.186 315.301 181.154 315.229 181.119C314.66 180.849 314.103 180.544 313.557 180.224C313.479 180.179 313.402 180.134 313.324 180.089C312.786 179.767 312.261 179.421 311.745 179.056C311.667 179 311.589 178.946 311.511 178.89C311.004 178.521 310.51 178.129 310.03 177.719L309.897 177.6V170.002C309.904 164.529 314.22 160.095 319.546 160.088H331.826C337.152 160.095 341.468 164.529 341.475 170.002V177.601L341.358 177.701C340.868 178.121 340.365 178.519 339.848 178.895C339.779 178.944 339.71 178.991 339.642 179.04C339.12 179.412 338.585 179.762 338.038 180.091C337.97 180.132 337.899 180.171 337.831 180.211C337.277 180.536 336.712 180.842 336.137 181.118C336.071 181.15 336.005 181.179 335.938 181.208C335.354 181.485 334.76 181.74 334.157 181.968C334.097 181.99 334.036 182.01 333.981 182.032C333.367 182.258 332.744 182.463 332.114 182.638L331.963 182.677C331.319 182.852 330.669 183.002 330.012 183.123C329.974 183.13 329.937 183.135 329.899 183.141C329.227 183.262 328.549 183.355 327.866 183.418H327.804C327.103 183.48 326.401 183.513 325.69 183.513C324.98 183.513 324.272 183.486 323.572 183.424ZM343.229 175.93V170.002C343.222 163.534 338.121 158.293 331.826 158.286H319.546C313.251 158.293 308.15 163.534 308.143 170.002V175.929C298.695 166.022 298.801 150.139 308.378 140.365C317.956 130.592 333.416 130.592 342.993 140.365C352.571 150.139 352.676 166.022 343.229 175.929V175.93Z" fill="#F7AEAE"/>
<path d="M325.686 138.459C320.842 138.459 316.915 142.494 316.915 147.471C316.915 152.449 320.842 156.484 325.686 156.484C330.531 156.484 334.458 152.449 334.458 147.471C334.453 142.496 330.529 138.464 325.686 138.459ZM325.686 154.681C321.811 154.681 318.669 151.453 318.669 147.471C318.669 143.489 321.811 140.261 325.686 140.261C329.562 140.261 332.704 143.489 332.704 147.471C332.699 151.451 329.56 154.677 325.686 154.681Z" fill="#F7AEAE"/>
<path d="M145.315 220.369C130.782 220.369 119 232.473 119 247.405C119 262.336 130.782 274.441 145.315 274.441C146.107 274.441 146.897 274.404 147.683 274.332C148.414 274.264 149.138 274.161 149.857 274.032L150.133 273.982C163.495 271.42 172.759 258.825 171.509 244.919C170.259 231.013 158.907 220.373 145.315 220.369V220.369ZM143.201 272.543H143.138C142.456 272.481 141.779 272.387 141.108 272.267C141.069 272.26 141.031 272.255 140.993 272.248C140.337 272.127 139.688 271.978 139.045 271.803L138.889 271.762C138.262 271.587 137.642 271.385 137.031 271.159C136.968 271.136 136.904 271.115 136.84 271.091C136.241 270.865 135.653 270.611 135.073 270.337C135.001 270.304 134.929 270.273 134.857 270.237C134.289 269.967 133.732 269.663 133.185 269.342C133.108 269.297 133.03 269.253 132.953 269.208C132.415 268.886 131.89 268.54 131.374 268.175C131.296 268.119 131.217 268.065 131.14 268.009C130.633 267.639 130.139 267.247 129.658 266.837L129.526 266.718V259.12C129.532 253.648 133.848 249.214 139.175 249.207H151.455C156.781 249.214 161.097 253.648 161.103 259.12V266.719L160.987 266.819C160.496 267.24 159.993 267.638 159.476 268.013C159.408 268.063 159.338 268.11 159.27 268.158C158.749 268.531 158.214 268.881 157.667 269.21C157.598 269.251 157.528 269.29 157.46 269.33C156.905 269.654 156.341 269.961 155.766 270.237C155.7 270.268 155.634 270.298 155.567 270.327C154.983 270.604 154.389 270.858 153.785 271.086C153.726 271.109 153.665 271.129 153.61 271.151C152.996 271.377 152.373 271.581 151.742 271.757L151.591 271.796C150.948 271.97 150.298 272.121 149.641 272.242C149.603 272.249 149.565 272.254 149.528 272.26C148.856 272.38 148.178 272.474 147.495 272.537H147.433C146.731 272.599 146.029 272.632 145.319 272.632C144.608 272.632 143.901 272.605 143.201 272.543ZM162.858 265.048V259.12C162.85 252.653 157.749 247.412 151.455 247.405H139.175C132.88 247.412 127.779 252.653 127.772 259.12V265.048C118.324 255.141 118.43 239.258 128.007 229.484C137.585 219.711 153.045 219.711 162.622 229.484C172.2 239.258 172.305 255.141 162.858 265.048V265.048Z" fill="#F7AEAE"/>
<path d="M145.315 227.578C140.47 227.578 136.543 231.613 136.543 236.59C136.543 241.567 140.47 245.602 145.315 245.602C150.159 245.602 154.086 241.567 154.086 236.59C154.081 231.615 150.157 227.583 145.315 227.578ZM145.315 243.8C141.439 243.8 138.298 240.572 138.298 236.59C138.298 232.608 141.439 229.381 145.315 229.381C149.191 229.381 152.332 232.608 152.332 236.59C152.328 240.57 149.188 243.795 145.315 243.8Z" fill="#F7AEAE"/>
<path d="M235.501 220.369C220.968 220.369 209.186 232.473 209.186 247.405C209.186 262.336 220.968 274.441 235.501 274.441C236.294 274.441 237.083 274.404 237.869 274.332C238.6 274.264 239.324 274.161 240.043 274.032L240.319 273.982C253.681 271.42 262.945 258.825 261.695 244.919C260.446 231.013 249.093 220.373 235.501 220.369V220.369ZM233.387 272.543H233.325C232.642 272.481 231.965 272.387 231.294 272.267C231.255 272.26 231.217 272.255 231.179 272.248C230.523 272.127 229.874 271.978 229.231 271.803L229.075 271.762C228.448 271.587 227.828 271.385 227.217 271.159C227.154 271.136 227.09 271.115 227.026 271.091C226.427 270.865 225.839 270.611 225.259 270.337C225.187 270.304 225.115 270.273 225.043 270.237C224.475 269.967 223.918 269.663 223.371 269.342C223.294 269.297 223.216 269.253 223.139 269.208C222.601 268.886 222.076 268.54 221.56 268.175C221.482 268.119 221.403 268.065 221.326 268.009C220.819 267.639 220.325 267.247 219.844 266.837L219.712 266.718V259.12C219.718 253.648 224.034 249.214 229.361 249.207H241.641C246.967 249.214 251.283 253.648 251.29 259.12V266.719L251.173 266.819C250.683 267.24 250.179 267.638 249.662 268.013C249.594 268.063 249.524 268.11 249.456 268.158C248.935 268.531 248.4 268.881 247.853 269.21C247.784 269.251 247.714 269.29 247.646 269.33C247.091 269.654 246.527 269.961 245.952 270.237C245.886 270.268 245.82 270.298 245.753 270.327C245.169 270.604 244.575 270.858 243.972 271.086C243.912 271.109 243.851 271.129 243.796 271.151C243.182 271.377 242.559 271.581 241.929 271.757L241.777 271.796C241.134 271.97 240.484 272.121 239.827 272.242C239.789 272.249 239.752 272.254 239.714 272.26C239.042 272.38 238.364 272.474 237.681 272.537H237.619C236.918 272.599 236.216 272.632 235.505 272.632C234.794 272.632 234.087 272.605 233.387 272.543ZM253.044 265.048V259.12C253.037 252.653 247.936 247.412 241.641 247.405H229.361C223.066 247.412 217.965 252.653 217.958 259.12V265.048C208.51 255.141 208.616 239.258 218.193 229.484C227.771 219.711 243.231 219.711 252.808 229.484C262.386 239.258 262.491 255.141 253.044 265.048V265.048Z" fill="#F7AEAE"/>
<path d="M235.501 227.578C230.656 227.578 226.729 231.613 226.729 236.59C226.729 241.567 230.656 245.602 235.501 245.602C240.345 245.602 244.272 241.567 244.272 236.59C244.267 231.615 240.343 227.583 235.501 227.578ZM235.501 243.8C231.625 243.8 228.483 240.572 228.483 236.59C228.483 232.608 231.625 229.381 235.501 229.381C239.376 229.381 242.518 232.608 242.518 236.59C242.513 240.57 239.374 243.795 235.501 243.8Z" fill="#F7AEAE"/>
<path d="M325.686 220.369C311.153 220.369 299.371 232.473 299.371 247.405C299.371 262.336 311.153 274.441 325.686 274.441C326.479 274.441 327.268 274.404 328.054 274.332C328.785 274.264 329.509 274.161 330.228 274.032L330.504 273.982C343.866 271.42 353.13 258.825 351.881 244.919C350.631 231.013 339.278 220.373 325.686 220.369V220.369ZM323.572 272.543H323.51C322.827 272.481 322.15 272.387 321.479 272.267C321.441 272.26 321.402 272.255 321.364 272.248C320.708 272.127 320.059 271.978 319.416 271.803L319.261 271.762C318.634 271.587 318.013 271.385 317.402 271.159C317.339 271.136 317.275 271.115 317.212 271.091C316.612 270.865 316.024 270.611 315.444 270.337C315.373 270.304 315.301 270.273 315.229 270.237C314.66 269.967 314.103 269.663 313.557 269.342C313.479 269.297 313.402 269.253 313.324 269.208C312.786 268.886 312.261 268.54 311.745 268.175C311.667 268.119 311.589 268.065 311.511 268.009C311.004 267.639 310.51 267.247 310.03 266.837L309.897 266.718V259.12C309.904 253.648 314.22 249.214 319.546 249.207H331.826C337.152 249.214 341.468 253.648 341.475 259.12V266.719L341.358 266.819C340.868 267.24 340.365 267.638 339.848 268.013C339.779 268.063 339.71 268.11 339.642 268.158C339.12 268.531 338.585 268.881 338.038 269.21C337.97 269.251 337.899 269.29 337.831 269.33C337.277 269.654 336.712 269.961 336.137 270.237C336.071 270.268 336.005 270.298 335.938 270.327C335.354 270.604 334.76 270.858 334.157 271.086C334.097 271.109 334.036 271.129 333.981 271.151C333.367 271.377 332.744 271.581 332.114 271.757L331.963 271.796C331.319 271.97 330.669 272.121 330.012 272.242C329.974 272.249 329.937 272.254 329.899 272.26C329.227 272.38 328.549 272.474 327.866 272.537H327.804C327.103 272.599 326.401 272.632 325.69 272.632C324.98 272.632 324.272 272.605 323.572 272.543ZM343.229 265.048V259.12C343.222 252.653 338.121 247.412 331.826 247.405H319.546C313.251 247.412 308.15 252.653 308.143 259.12V265.048C298.695 255.141 298.801 239.258 308.378 229.484C317.956 219.711 333.416 219.711 342.993 229.484C352.571 239.258 352.676 255.141 343.229 265.048V265.048Z" fill="#F7AEAE"/>
<path d="M325.686 227.578C320.842 227.578 316.915 231.613 316.915 236.59C316.915 241.567 320.842 245.602 325.686 245.602C330.531 245.602 334.458 241.567 334.458 236.59C334.453 231.615 330.529 227.583 325.686 227.578ZM325.686 243.8C321.811 243.8 318.669 240.572 318.669 236.59C318.669 232.608 321.811 229.381 325.686 229.381C329.562 229.381 332.704 232.608 332.704 236.59C332.699 240.57 329.56 243.795 325.686 243.8Z" fill="#F7AEAE"/>
<path d="M145.315 313.492C130.782 313.492 119 325.597 119 340.529C119 355.46 130.782 367.565 145.315 367.565C146.107 367.565 146.897 367.528 147.683 367.456C148.414 367.388 149.138 367.285 149.857 367.156L150.133 367.106C163.495 364.544 172.759 351.949 171.509 338.043C170.259 324.137 158.907 313.497 145.315 313.492V313.492ZM143.201 365.667H143.138C142.456 365.605 141.779 365.511 141.108 365.391C141.069 365.384 141.031 365.379 140.993 365.372C140.337 365.251 139.688 365.102 139.045 364.927L138.889 364.886C138.262 364.711 137.642 364.509 137.031 364.283C136.968 364.26 136.904 364.239 136.84 364.215C136.241 363.989 135.653 363.735 135.073 363.461C135.001 363.428 134.929 363.397 134.857 363.361C134.289 363.091 133.732 362.787 133.185 362.466C133.108 362.421 133.03 362.377 132.953 362.332C132.415 362.01 131.89 361.664 131.374 361.299C131.296 361.243 131.217 361.188 131.14 361.133C130.633 360.763 130.139 360.371 129.658 359.961L129.526 359.842V352.244C129.532 346.772 133.848 342.338 139.175 342.331H151.455C156.781 342.338 161.097 346.772 161.103 352.244V359.843L160.987 359.943C160.496 360.364 159.993 360.762 159.476 361.137C159.408 361.187 159.338 361.234 159.27 361.282C158.749 361.655 158.214 362.005 157.667 362.334C157.598 362.375 157.528 362.414 157.46 362.454C156.905 362.778 156.341 363.085 155.766 363.361C155.7 363.392 155.634 363.422 155.567 363.451C154.983 363.728 154.389 363.982 153.785 364.21C153.726 364.233 153.665 364.253 153.61 364.275C152.996 364.501 152.373 364.705 151.742 364.881L151.591 364.92C150.948 365.094 150.298 365.245 149.641 365.366C149.603 365.373 149.565 365.378 149.528 365.384C148.856 365.504 148.178 365.598 147.495 365.661H147.433C146.731 365.723 146.029 365.756 145.319 365.756C144.608 365.756 143.901 365.729 143.201 365.667ZM162.858 358.172V352.244C162.85 345.777 157.749 340.536 151.455 340.529H139.175C132.88 340.536 127.779 345.777 127.772 352.244V358.172C118.324 348.265 118.43 332.382 128.007 322.608C137.585 312.835 153.045 312.835 162.622 322.608C172.2 332.382 172.305 348.265 162.858 358.172V358.172Z" fill="#F7AEAE"/>
<path d="M145.315 320.702C140.47 320.702 136.543 324.737 136.543 329.714C136.543 334.691 140.47 338.726 145.315 338.726C150.159 338.726 154.086 334.691 154.086 329.714C154.081 324.739 150.157 320.707 145.315 320.702ZM145.315 336.924C141.439 336.924 138.298 333.696 138.298 329.714C138.298 325.732 141.439 322.505 145.315 322.505C149.191 322.505 152.332 325.732 152.332 329.714C152.328 333.694 149.188 336.919 145.315 336.924Z" fill="#F7AEAE"/>
<path d="M235.501 313.492C220.968 313.492 209.186 325.597 209.186 340.529C209.186 355.46 220.968 367.565 235.501 367.565C236.294 367.565 237.083 367.528 237.869 367.456C238.6 367.388 239.324 367.285 240.043 367.156L240.319 367.106C253.681 364.544 262.945 351.949 261.695 338.043C260.446 324.137 249.093 313.497 235.501 313.492V313.492ZM233.387 365.667H233.325C232.642 365.605 231.965 365.511 231.294 365.391C231.255 365.384 231.217 365.379 231.179 365.372C230.523 365.251 229.874 365.102 229.231 364.927L229.075 364.886C228.448 364.711 227.828 364.509 227.217 364.283C227.154 364.26 227.09 364.239 227.026 364.215C226.427 363.989 225.839 363.735 225.259 363.461C225.187 363.428 225.115 363.397 225.043 363.361C224.475 363.091 223.918 362.787 223.371 362.466C223.294 362.421 223.216 362.377 223.139 362.332C222.601 362.01 222.076 361.664 221.56 361.299C221.482 361.243 221.403 361.188 221.326 361.133C220.819 360.763 220.325 360.371 219.844 359.961L219.712 359.842V352.244C219.718 346.772 224.034 342.338 229.361 342.331H241.641C246.967 342.338 251.283 346.772 251.29 352.244V359.843L251.173 359.943C250.683 360.364 250.179 360.762 249.662 361.137C249.594 361.187 249.524 361.234 249.456 361.282C248.935 361.655 248.4 362.005 247.853 362.334C247.784 362.375 247.714 362.414 247.646 362.454C247.091 362.778 246.527 363.085 245.952 363.361C245.886 363.392 245.82 363.422 245.753 363.451C245.169 363.728 244.575 363.982 243.972 364.21C243.912 364.233 243.851 364.253 243.796 364.275C243.182 364.501 242.559 364.705 241.929 364.881L241.777 364.92C241.134 365.094 240.484 365.245 239.827 365.366C239.789 365.373 239.752 365.378 239.714 365.384C239.042 365.504 238.364 365.598 237.681 365.661H237.619C236.918 365.723 236.216 365.756 235.505 365.756C234.794 365.756 234.087 365.729 233.387 365.667ZM253.044 358.172V352.244C253.037 345.777 247.936 340.536 241.641 340.529H229.361C223.066 340.536 217.965 345.777 217.958 352.244V358.172C208.51 348.265 208.616 332.382 218.193 322.608C227.771 312.835 243.231 312.835 252.808 322.608C262.386 332.382 262.491 348.265 253.044 358.172V358.172Z" fill="#F7AEAE"/>
<path d="M235.501 320.702C230.656 320.702 226.729 324.737 226.729 329.714C226.729 334.691 230.656 338.726 235.501 338.726C240.345 338.726 244.272 334.691 244.272 329.714C244.267 324.739 240.343 320.707 235.501 320.702ZM235.501 336.924C231.625 336.924 228.483 333.696 228.483 329.714C228.483 325.732 231.625 322.505 235.501 322.505C239.376 322.505 242.518 325.732 242.518 329.714C242.513 333.694 239.374 336.919 235.501 336.924Z" fill="#F7AEAE"/>
<path d="M325.686 313.492C311.153 313.492 299.371 325.597 299.371 340.529C299.371 355.46 311.153 367.565 325.686 367.565C326.479 367.565 327.268 367.528 328.054 367.456C328.785 367.388 329.509 367.285 330.228 367.156L330.504 367.106C343.866 364.544 353.13 351.949 351.881 338.043C350.631 324.137 339.278 313.497 325.686 313.492V313.492ZM323.572 365.667H323.51C322.827 365.605 322.15 365.511 321.479 365.391C321.441 365.384 321.402 365.379 321.364 365.372C320.708 365.251 320.059 365.102 319.416 364.927L319.261 364.886C318.634 364.711 318.013 364.509 317.402 364.283C317.339 364.26 317.275 364.239 317.212 364.215C316.612 363.989 316.024 363.735 315.444 363.461C315.373 363.428 315.301 363.397 315.229 363.361C314.66 363.091 314.103 362.787 313.557 362.466C313.479 362.421 313.402 362.377 313.324 362.332C312.786 362.01 312.261 361.664 311.745 361.299C311.667 361.243 311.589 361.188 311.511 361.133C311.004 360.763 310.51 360.371 310.03 359.961L309.897 359.842V352.244C309.904 346.772 314.22 342.338 319.546 342.331H331.826C337.152 342.338 341.468 346.772 341.475 352.244V359.843L341.358 359.943C340.868 360.364 340.365 360.762 339.848 361.137C339.779 361.187 339.71 361.234 339.642 361.282C339.12 361.655 338.585 362.005 338.038 362.334C337.97 362.375 337.899 362.414 337.831 362.454C337.277 362.778 336.712 363.085 336.137 363.361C336.071 363.392 336.005 363.422 335.938 363.451C335.354 363.728 334.76 363.982 334.157 364.21C334.097 364.233 334.036 364.253 333.981 364.275C333.367 364.501 332.744 364.705 332.114 364.881L331.963 364.92C331.319 365.094 330.669 365.245 330.012 365.366C329.974 365.373 329.937 365.378 329.899 365.384C329.227 365.504 328.549 365.598 327.866 365.661H327.804C327.103 365.723 326.401 365.756 325.69 365.756C324.98 365.756 324.272 365.729 323.572 365.667ZM343.229 358.172V352.244C343.222 345.777 338.121 340.536 331.826 340.529H319.546C313.251 340.536 308.15 345.777 308.143 352.244V358.172C298.695 348.265 298.801 332.382 308.378 322.608C317.956 312.835 333.416 312.835 342.993 322.608C352.571 332.382 352.676 348.265 343.229 358.172V358.172Z" fill="#F7AEAE"/>
<path d="M325.686 320.702C320.842 320.702 316.915 324.737 316.915 329.714C316.915 334.691 320.842 338.726 325.686 338.726C330.531 338.726 334.458 334.691 334.458 329.714C334.453 324.739 330.529 320.707 325.686 320.702ZM325.686 336.924C321.811 336.924 318.669 333.696 318.669 329.714C318.669 325.732 321.811 322.505 325.686 322.505C329.562 322.505 332.704 325.732 332.704 329.714C332.699 333.694 329.56 336.919 325.686 336.924Z" fill="#F7AEAE"/>
<path d="M55.3494 132.69C40.8164 132.69 29.0348 144.795 29.0348 159.726C29.0348 174.658 40.8164 186.762 55.3494 186.762C56.1422 186.762 56.9319 186.726 57.7179 186.653C58.4485 186.586 59.1728 186.483 59.8915 186.354L60.1677 186.304C73.5293 183.742 82.7938 171.147 81.5441 157.241C80.2943 143.335 68.9418 132.695 55.3494 132.69V132.69ZM53.2353 184.865H53.1732C52.4909 184.803 51.8138 184.709 51.1426 184.589C51.1041 184.582 51.0656 184.577 51.0279 184.57C50.3717 184.449 49.7224 184.3 49.0795 184.125L48.9241 184.084C48.297 183.909 47.6769 183.706 47.0657 183.481C47.0023 183.458 46.9385 183.437 46.8751 183.413C46.2759 183.187 45.6874 182.933 45.1079 182.659C45.036 182.626 44.964 182.594 44.8921 182.559C44.3237 182.289 43.7665 181.985 43.22 181.664C43.1429 181.619 43.065 181.574 42.9879 181.53C42.4499 181.207 41.9244 180.862 41.4087 180.496C41.3308 180.44 41.252 180.386 41.1745 180.33C40.6678 179.961 40.174 179.569 39.693 179.159L39.5606 179.04V171.442C39.5671 165.97 43.883 161.535 49.2093 161.529H61.4895C66.8158 161.535 71.1317 165.97 71.1381 171.442V179.041L71.0216 179.141C70.5312 179.562 70.028 179.959 69.511 180.335C69.4425 180.385 69.3731 180.432 69.305 180.48C68.7834 180.852 68.2488 181.203 67.7015 181.532C67.633 181.573 67.5627 181.611 67.4946 181.652C66.94 181.976 66.3759 182.282 65.8007 182.558C65.7347 182.59 65.6684 182.619 65.6015 182.649C65.0173 182.925 64.4237 183.18 63.8203 183.408C63.7603 183.431 63.6999 183.451 63.6447 183.472C63.0305 183.698 62.4077 183.903 61.7773 184.079L61.6261 184.117C60.9824 184.292 60.3326 184.443 59.6756 184.564C59.6379 184.571 59.6002 184.575 59.5625 184.582C58.8906 184.702 58.2126 184.796 57.5298 184.858H57.4677C56.7662 184.92 56.0642 184.954 55.3537 184.954C54.6431 184.954 53.9356 184.927 53.2353 184.865ZM72.8925 177.37V171.442C72.8852 164.975 67.7841 159.734 61.4895 159.726H49.2093C42.9146 159.734 37.8136 164.975 37.8063 171.442V177.369C28.3589 167.463 28.4643 151.58 38.0419 141.806C47.6195 132.033 63.0793 132.033 72.6569 141.806C82.2345 151.58 82.3398 167.463 72.8925 177.369V177.37Z" fill="#F7AEAE"/>
<path d="M55.349 139.9C50.5046 139.9 46.5775 143.935 46.5775 148.912C46.5775 153.889 50.5046 157.924 55.349 157.924C60.1935 157.924 64.1206 153.889 64.1206 148.912C64.1154 143.937 60.1914 139.905 55.349 139.9ZM55.349 156.121C51.4734 156.121 48.3318 152.894 48.3318 148.912C48.3318 144.93 51.4734 141.703 55.349 141.703C59.2247 141.703 62.3663 144.93 62.3663 148.912C62.362 152.892 59.2226 156.117 55.349 156.121Z" fill="#F7AEAE"/>
<path d="M55.3494 223.266C40.8164 223.266 29.0348 235.37 29.0348 250.302C29.0348 265.233 40.8164 277.338 55.3494 277.338C56.1422 277.338 56.9319 277.301 57.7179 277.229C58.4485 277.161 59.1728 277.058 59.8915 276.93L60.1677 276.879C73.5293 274.317 82.7938 261.722 81.5441 247.816C80.2943 233.91 68.9418 223.27 55.3494 223.266V223.266ZM53.2353 275.44H53.1732C52.4909 275.378 51.8138 275.284 51.1426 275.164C51.1041 275.157 51.0656 275.153 51.0279 275.145C50.3717 275.025 49.7224 274.875 49.0795 274.7L48.9241 274.659C48.297 274.485 47.6769 274.282 47.0657 274.057C47.0023 274.033 46.9385 274.013 46.8751 273.988C46.2759 273.762 45.6874 273.509 45.1079 273.235C45.036 273.202 44.964 273.17 44.8921 273.135C44.3237 272.864 43.7665 272.56 43.22 272.24C43.1429 272.195 43.065 272.15 42.9879 272.105C42.4499 271.783 41.9244 271.437 41.4087 271.072C41.3308 271.016 41.252 270.962 41.1745 270.906C40.6678 270.537 40.174 270.145 39.693 269.734L39.5606 269.616V262.017C39.5671 256.545 43.883 252.111 49.2093 252.104H61.4895C66.8158 252.111 71.1317 256.545 71.1381 262.017V269.617L71.0216 269.716C70.5312 270.137 70.028 270.535 69.511 270.911C69.4425 270.96 69.3731 271.007 69.305 271.055C68.7834 271.428 68.2488 271.778 67.7015 272.107C67.633 272.148 67.5627 272.187 67.4946 272.227C66.94 272.552 66.3759 272.858 65.8007 273.134C65.7347 273.165 65.6684 273.195 65.6015 273.224C65.0173 273.501 64.4237 273.756 63.8203 273.983C63.7603 274.006 63.6999 274.026 63.6447 274.048C63.0305 274.274 62.4077 274.479 61.7773 274.654L61.6261 274.693C60.9824 274.868 60.3326 275.018 59.6756 275.139C59.6379 275.146 59.6002 275.151 59.5625 275.157C58.8906 275.278 58.2126 275.371 57.5298 275.434H57.4677C56.7662 275.496 56.0642 275.529 55.3537 275.529C54.6431 275.529 53.9356 275.502 53.2353 275.44ZM72.8925 267.946V262.017C72.8852 255.55 67.7841 250.309 61.4895 250.302H49.2093C42.9146 250.309 37.8136 255.55 37.8063 262.017V267.945C28.3589 258.038 28.4643 242.155 38.0419 232.381C47.6195 222.608 63.0793 222.608 72.6569 232.381C82.2345 242.155 82.3398 258.038 72.8925 267.945V267.946Z" fill="#F7AEAE"/>
<path d="M55.349 230.475C50.5046 230.475 46.5775 234.51 46.5775 239.487C46.5775 244.465 50.5046 248.499 55.349 248.499C60.1935 248.499 64.1206 244.465 64.1206 239.487C64.1154 234.512 60.1914 230.481 55.349 230.475ZM55.349 246.697C51.4734 246.697 48.3318 243.469 48.3318 239.487C48.3318 235.505 51.4734 232.278 55.349 232.278C59.2247 232.278 62.3663 235.505 62.3663 239.487C62.362 243.467 59.2226 246.692 55.349 246.697Z" fill="#F7AEAE"/>
<path d="M55.3494 313.842C40.8164 313.842 29.0348 325.946 29.0348 340.878C29.0348 355.809 40.8164 367.914 55.3494 367.914C56.1422 367.914 56.9319 367.877 57.7179 367.804C58.4485 367.737 59.1728 367.634 59.8915 367.505L60.1677 367.455C73.5293 364.893 82.7938 352.298 81.5441 338.392C80.2943 324.486 68.9418 313.846 55.3494 313.842V313.842ZM53.2353 366.016H53.1732C52.4909 365.954 51.8138 365.86 51.1426 365.74C51.1041 365.733 51.0656 365.728 51.0279 365.721C50.3717 365.6 49.7224 365.451 49.0795 365.276L48.9241 365.235C48.297 365.06 47.6769 364.858 47.0657 364.632C47.0023 364.609 46.9385 364.588 46.8751 364.564C46.2759 364.338 45.6874 364.084 45.1079 363.81C45.036 363.777 44.964 363.746 44.8921 363.71C44.3237 363.44 43.7665 363.136 43.22 362.815C43.1429 362.77 43.065 362.726 42.9879 362.681C42.4499 362.359 41.9244 362.013 41.4087 361.647C41.3308 361.592 41.252 361.537 41.1745 361.482C40.6678 361.112 40.174 360.72 39.693 360.31L39.5606 360.191V352.593C39.5671 347.121 43.883 342.687 49.2093 342.68H61.4895C66.8158 342.687 71.1317 347.121 71.1381 352.593V360.192L71.0216 360.292C70.5312 360.713 70.028 361.111 69.511 361.486C69.4425 361.536 69.3731 361.583 69.305 361.631C68.7834 362.003 68.2488 362.354 67.7015 362.683C67.633 362.724 67.5627 362.762 67.4946 362.803C66.94 363.127 66.3759 363.434 65.8007 363.709C65.7347 363.741 65.6684 363.771 65.6015 363.8C65.0173 364.076 64.4237 364.331 63.8203 364.559C63.7603 364.582 63.6999 364.602 63.6447 364.623C63.0305 364.85 62.4077 365.054 61.7773 365.23L61.6261 365.268C60.9824 365.443 60.3326 365.594 59.6756 365.715C59.6379 365.722 59.6002 365.727 59.5625 365.733C58.8906 365.853 58.2126 365.947 57.5298 366.01H57.4677C56.7662 366.072 56.0642 366.105 55.3537 366.105C54.6431 366.105 53.9356 366.078 53.2353 366.016ZM72.8925 358.521V352.593C72.8852 346.126 67.7841 340.885 61.4895 340.878H49.2093C42.9146 340.885 37.8136 346.126 37.8063 352.593V358.52C28.3589 348.614 28.4643 332.731 38.0419 322.957C47.6195 313.184 63.0793 313.184 72.6569 322.957C82.2345 332.731 82.3398 348.614 72.8925 358.52V358.521Z" fill="#F7AEAE"/>
<path d="M55.349 321.051C50.5046 321.051 46.5775 325.086 46.5775 330.063C46.5775 335.04 50.5046 339.075 55.349 339.075C60.1935 339.075 64.1206 335.04 64.1206 330.063C64.1154 325.088 60.1914 321.056 55.349 321.051ZM55.349 337.273C51.4734 337.273 48.3318 334.045 48.3318 330.063C48.3318 326.081 51.4734 322.853 55.349 322.853C59.2247 322.853 62.3663 326.081 62.3663 330.063C62.362 334.043 59.2226 337.268 55.349 337.273Z" fill="#F7AEAE"/>
</svg>
