<svg width="876" height="420" viewBox="0 0 876 420" fill="none" xmlns="http://www.w3.org/2000/svg">
<rect x="24.5085" y="24.21" width="851.205" height="394.844" fill="#EDEDED"/>
<rect x="0.5" y="0.5" width="850.205" height="393.844" fill="#F7F7F7" stroke="black"/>
<rect opacity="0.07" x="130" y="49.6318" width="1" height="257.896" fill="black"/>
<rect opacity="0.07" x="299" y="49.6318" width="1" height="241.361" fill="black"/>
<rect opacity="0.07" x="499" y="49.6318" width="1" height="257.896" fill="black"/>
<rect opacity="0.07" x="681" y="49.6318" width="1" height="257.896" fill="black"/>
<path d="M75.1387 244.586C85.7931 237.25 112.08 222.84 131.991 223.888C156.88 225.198 188.057 233.582 205.873 237.774C223.688 241.966 243.1 244.133 256.432 240.439C272.09 236.1 286.068 227.394 298.328 213.565C303.011 208.283 341.038 146.631 377.214 146.631C407.846 146.631 429.327 173.404 455.623 220.258C476.659 257.741 494.851 262.212 507.061 262.212C516.918 260.963 534.264 257.072 549.942 228.911C563.533 204.497 598.77 175.049 634.762 207.517C663.556 233.492 699.553 223.708 713.952 215.569C751.047 196.144 776.745 166.489 800 138.583" stroke="#1D74FF" stroke-dasharray="7 7"/>
<rect x="89.3784" y="116.852" width="58.4074" height="23.1119" fill="white" stroke="black" stroke-width="0.75"/>
<rect x="94.4307" y="112.875" width="58.4074" height="23.1119" fill="white" stroke="black" stroke-width="0.75"/>
<rect x="468.27" y="329.62" width="58.4074" height="23.1119" fill="white" stroke="black" stroke-width="0.75"/>
<rect x="473.322" y="325.643" width="58.4074" height="23.1119" fill="white" stroke="black" stroke-width="0.75"/>
<rect x="587.371" y="142.935" width="58.4074" height="23.1119" fill="white" stroke="black" stroke-width="0.75"/>
<rect x="592.423" y="138.958" width="58.4074" height="23.1119" fill="white" stroke="black" stroke-width="0.75"/>
<rect x="223.152" y="305.243" width="58.4074" height="23.1119" fill="white" stroke="black" stroke-width="0.75"/>
<rect x="228.205" y="301.266" width="58.4074" height="23.1119" fill="white" stroke="black" stroke-width="0.75"/>
<rect x="361.768" y="89.0132" width="58.4074" height="23.1119" fill="white" stroke="black" stroke-width="0.75"/>
<rect x="366.82" y="85.0361" width="58.4074" height="23.1119" fill="white" stroke="black" stroke-width="0.75"/>
<rect x="742.89" y="245.189" width="58.4074" height="23.1119" fill="white" stroke="black" stroke-width="0.75"/>
<rect x="747.943" y="241.212" width="58.4074" height="23.1119" fill="white" stroke="black" stroke-width="0.75"/>
<path d="M768.891 255.946C768.378 255.946 767.916 255.829 767.505 255.594C767.094 255.359 766.768 255.029 766.526 254.604C766.291 254.171 766.174 253.665 766.174 253.086C766.174 252.507 766.295 252.004 766.537 251.579C766.779 251.146 767.105 250.813 767.516 250.578C767.934 250.343 768.4 250.226 768.913 250.226C769.426 250.226 769.888 250.343 770.299 250.578C770.71 250.813 771.032 251.146 771.267 251.579C771.509 252.004 771.63 252.507 771.63 253.086C771.63 253.665 771.509 254.171 771.267 254.604C771.025 255.029 770.695 255.359 770.277 255.594C769.866 255.829 769.404 255.946 768.891 255.946ZM768.891 255.154C769.206 255.154 769.5 255.077 769.771 254.923C770.042 254.769 770.262 254.538 770.431 254.23C770.6 253.922 770.684 253.541 770.684 253.086C770.684 252.631 770.6 252.25 770.431 251.942C770.27 251.634 770.053 251.403 769.782 251.249C769.511 251.095 769.221 251.018 768.913 251.018C768.598 251.018 768.304 251.095 768.033 251.249C767.762 251.403 767.542 251.634 767.373 251.942C767.204 252.25 767.12 252.631 767.12 253.086C767.12 253.541 767.204 253.922 767.373 254.23C767.542 254.538 767.758 254.769 768.022 254.923C768.293 255.077 768.583 255.154 768.891 255.154Z" fill="#797979"/>
<path d="M774.251 255.814L772.656 250.358H773.58L774.735 254.637L776.011 250.358H777.056L778.343 254.637L779.487 250.358H780.422L778.827 255.814H777.881L776.539 251.315L775.197 255.814H774.251Z" fill="#797979"/>
<path d="M781.884 255.814V250.358H782.72L782.775 251.337C782.951 250.992 783.204 250.721 783.534 250.523C783.864 250.325 784.238 250.226 784.656 250.226C785.301 250.226 785.814 250.424 786.196 250.82C786.584 251.209 786.779 251.81 786.779 252.624V255.814H785.855V252.723C785.855 251.586 785.385 251.018 784.447 251.018C783.977 251.018 783.585 251.19 783.27 251.535C782.962 251.872 782.808 252.356 782.808 252.987V255.814H781.884Z" fill="#797979"/>
<path d="M615.659 148.104V153.56H614.823L614.768 152.581C614.592 152.926 614.339 153.197 614.009 153.395C613.679 153.593 613.305 153.692 612.887 153.692C612.242 153.692 611.725 153.498 611.336 153.109C610.955 152.713 610.764 152.108 610.764 151.294V148.104H611.688V151.195C611.688 152.332 612.157 152.9 613.096 152.9C613.565 152.9 613.954 152.732 614.262 152.394C614.577 152.05 614.735 151.562 614.735 150.931V148.104H615.659Z" fill="#797979"/>
<path d="M619.71 153.692C619.057 153.692 618.515 153.527 618.082 153.197C617.649 152.867 617.396 152.42 617.323 151.855H618.269C618.328 152.141 618.478 152.391 618.72 152.603C618.969 152.809 619.303 152.911 619.721 152.911C620.11 152.911 620.396 152.831 620.579 152.669C620.762 152.501 620.854 152.303 620.854 152.075C620.854 151.745 620.733 151.525 620.491 151.415C620.256 151.305 619.923 151.206 619.49 151.118C619.197 151.06 618.903 150.975 618.61 150.865C618.317 150.755 618.071 150.601 617.873 150.403C617.675 150.198 617.576 149.93 617.576 149.6C617.576 149.124 617.752 148.735 618.104 148.434C618.463 148.126 618.947 147.972 619.556 147.972C620.135 147.972 620.608 148.119 620.975 148.412C621.349 148.698 621.565 149.109 621.624 149.644H620.711C620.674 149.366 620.553 149.149 620.348 148.995C620.15 148.834 619.882 148.753 619.545 148.753C619.215 148.753 618.958 148.823 618.775 148.962C618.599 149.102 618.511 149.285 618.511 149.512C618.511 149.732 618.625 149.905 618.852 150.029C619.087 150.154 619.402 150.26 619.798 150.348C620.135 150.422 620.454 150.513 620.755 150.623C621.063 150.726 621.312 150.884 621.503 151.096C621.701 151.302 621.8 151.602 621.8 151.998C621.807 152.49 621.62 152.897 621.239 153.219C620.865 153.535 620.355 153.692 619.71 153.692Z" fill="#797979"/>
<path d="M626.013 153.692C625.492 153.692 625.03 153.575 624.627 153.34C624.224 153.098 623.905 152.765 623.67 152.339C623.443 151.914 623.329 151.412 623.329 150.832C623.329 150.26 623.443 149.762 623.67 149.336C623.897 148.904 624.213 148.57 624.616 148.335C625.027 148.093 625.5 147.972 626.035 147.972C626.563 147.972 627.018 148.093 627.399 148.335C627.788 148.57 628.085 148.882 628.29 149.27C628.495 149.659 628.598 150.077 628.598 150.524C628.598 150.605 628.594 150.686 628.587 150.766C628.587 150.847 628.587 150.939 628.587 151.041H624.242C624.264 151.459 624.359 151.808 624.528 152.086C624.704 152.358 624.92 152.563 625.177 152.702C625.441 152.842 625.72 152.911 626.013 152.911C626.394 152.911 626.713 152.823 626.97 152.647C627.227 152.471 627.414 152.233 627.531 151.932H628.444C628.297 152.438 628.015 152.86 627.597 153.197C627.186 153.527 626.658 153.692 626.013 153.692ZM626.013 148.753C625.573 148.753 625.181 148.889 624.836 149.16C624.499 149.424 624.304 149.813 624.253 150.326H627.685C627.663 149.835 627.494 149.45 627.179 149.171C626.864 148.893 626.475 148.753 626.013 148.753Z" fill="#797979"/>
<path d="M376.266 100.724C375.745 100.724 375.276 100.607 374.858 100.372C374.447 100.13 374.121 99.7967 373.879 99.3714C373.644 98.9387 373.527 98.4364 373.527 97.8644C373.527 97.2924 373.644 96.7937 373.879 96.3684C374.121 95.9357 374.447 95.6021 374.858 95.3674C375.276 95.1254 375.745 95.0044 376.266 95.0044C376.911 95.0044 377.454 95.1731 377.894 95.5104C378.341 95.8477 378.624 96.2987 378.741 96.8634H377.795C377.722 96.5261 377.542 96.2657 377.256 96.0824C376.97 95.8917 376.636 95.7964 376.255 95.7964C375.947 95.7964 375.657 95.8734 375.386 96.0274C375.115 96.1814 374.895 96.4124 374.726 96.7204C374.557 97.0284 374.473 97.4097 374.473 97.8644C374.473 98.3191 374.557 98.7004 374.726 99.0084C374.895 99.3164 375.115 99.5511 375.386 99.7124C375.657 99.8664 375.947 99.9434 376.255 99.9434C376.636 99.9434 376.97 99.8517 377.256 99.6684C377.542 99.4777 377.722 99.2101 377.795 98.8654H378.741C378.631 99.4154 378.352 99.8627 377.905 100.207C377.458 100.552 376.911 100.724 376.266 100.724Z" fill="#797979"/>
<path d="M382.958 100.724C382.444 100.724 381.982 100.607 381.572 100.372C381.161 100.138 380.835 99.8077 380.593 99.3824C380.358 98.9497 380.241 98.4437 380.241 97.8644C380.241 97.2851 380.362 96.7827 380.604 96.3574C380.846 95.9247 381.172 95.5911 381.583 95.3564C382.001 95.1217 382.466 95.0044 382.98 95.0044C383.493 95.0044 383.955 95.1217 384.366 95.3564C384.776 95.5911 385.099 95.9247 385.334 96.3574C385.576 96.7827 385.697 97.2851 385.697 97.8644C385.697 98.4437 385.576 98.9497 385.334 99.3824C385.092 99.8077 384.762 100.138 384.344 100.372C383.933 100.607 383.471 100.724 382.958 100.724ZM382.958 99.9324C383.273 99.9324 383.566 99.8554 383.838 99.7014C384.109 99.5474 384.329 99.3164 384.498 99.0084C384.666 98.7004 384.751 98.3191 384.751 97.8644C384.751 97.4097 384.666 97.0284 384.498 96.7204C384.336 96.4124 384.12 96.1814 383.849 96.0274C383.577 95.8734 383.288 95.7964 382.98 95.7964C382.664 95.7964 382.371 95.8734 382.1 96.0274C381.828 96.1814 381.608 96.4124 381.44 96.7204C381.271 97.0284 381.187 97.4097 381.187 97.8644C381.187 98.3191 381.271 98.7004 381.44 99.0084C381.608 99.3164 381.825 99.5474 382.089 99.7014C382.36 99.8554 382.65 99.9324 382.958 99.9324Z" fill="#797979"/>
<path d="M387.421 100.592V95.1364H388.257L388.323 95.9284C388.499 95.6351 388.734 95.4077 389.027 95.2464C389.321 95.0851 389.651 95.0044 390.017 95.0044C390.45 95.0044 390.82 95.0924 391.128 95.2684C391.444 95.4444 391.686 95.7121 391.854 96.0714C392.045 95.7414 392.305 95.4811 392.635 95.2904C392.973 95.0997 393.336 95.0044 393.724 95.0044C394.377 95.0044 394.898 95.2024 395.286 95.5984C395.675 95.9871 395.869 96.5884 395.869 97.4024V100.592H394.956V97.5014C394.956 96.9367 394.843 96.5114 394.615 96.2254C394.388 95.9394 394.062 95.7964 393.636 95.7964C393.196 95.7964 392.83 95.9687 392.536 96.3134C392.25 96.6507 392.107 97.1347 392.107 97.7654V100.592H391.183V97.5014C391.183 96.9367 391.07 96.5114 390.842 96.2254C390.615 95.9394 390.289 95.7964 389.863 95.7964C389.431 95.7964 389.068 95.9687 388.774 96.3134C388.488 96.6507 388.345 97.1347 388.345 97.7654V100.592H387.421Z" fill="#797979"/>
<path d="M397.701 103.012V95.1364H398.537L398.625 96.0384C398.801 95.7744 399.05 95.5361 399.373 95.3234C399.703 95.1107 400.121 95.0044 400.627 95.0044C401.17 95.0044 401.643 95.1291 402.046 95.3784C402.449 95.6277 402.761 95.9687 402.981 96.4014C403.208 96.8341 403.322 97.3254 403.322 97.8754C403.322 98.4254 403.208 98.9167 402.981 99.3494C402.761 99.7747 402.446 100.112 402.035 100.361C401.632 100.603 401.159 100.724 400.616 100.724C400.169 100.724 399.769 100.633 399.417 100.449C399.072 100.266 398.808 100.009 398.625 99.6794V103.012H397.701ZM400.517 99.9214C400.884 99.9214 401.206 99.8371 401.485 99.6684C401.764 99.4924 401.984 99.2504 402.145 98.9424C402.306 98.6344 402.387 98.2751 402.387 97.8644C402.387 97.4537 402.306 97.0944 402.145 96.7864C401.984 96.4784 401.764 96.2401 401.485 96.0714C401.206 95.8954 400.884 95.8074 400.517 95.8074C400.15 95.8074 399.828 95.8954 399.549 96.0714C399.27 96.2401 399.05 96.4784 398.889 96.7864C398.728 97.0944 398.647 97.4537 398.647 97.8644C398.647 98.2751 398.728 98.6344 398.889 98.9424C399.05 99.2504 399.27 99.4924 399.549 99.6684C399.828 99.8371 400.15 99.9214 400.517 99.9214Z" fill="#797979"/>
<path d="M406.863 100.724C406.409 100.724 406.031 100.647 405.73 100.493C405.43 100.339 405.206 100.134 405.059 99.8774C404.913 99.6207 404.839 99.3421 404.839 99.0414C404.839 98.4841 405.052 98.0551 405.477 97.7544C405.903 97.4537 406.482 97.3034 407.215 97.3034H408.689V97.2374C408.689 96.7607 408.565 96.4014 408.315 96.1594C408.066 95.9101 407.732 95.7854 407.314 95.7854C406.955 95.7854 406.643 95.8771 406.379 96.0604C406.123 96.2364 405.961 96.4967 405.895 96.8414H404.949C404.986 96.4454 405.118 96.1117 405.345 95.8404C405.58 95.5691 405.87 95.3637 406.214 95.2244C406.559 95.0777 406.926 95.0044 407.314 95.0044C408.077 95.0044 408.649 95.2097 409.03 95.6204C409.419 96.0237 409.613 96.5627 409.613 97.2374V100.592H408.788L408.733 99.6134C408.579 99.9214 408.352 100.185 408.051 100.405C407.758 100.618 407.362 100.724 406.863 100.724ZM407.006 99.9434C407.358 99.9434 407.659 99.8517 407.908 99.6684C408.165 99.4851 408.359 99.2467 408.491 98.9534C408.623 98.6601 408.689 98.3521 408.689 98.0294V98.0184H407.292C406.75 98.0184 406.365 98.1137 406.137 98.3044C405.917 98.4877 405.807 98.7187 405.807 98.9974C405.807 99.2834 405.91 99.5144 406.115 99.6904C406.328 99.8591 406.625 99.9434 407.006 99.9434Z" fill="#797979"/>
<path d="M411.44 100.592V95.1364H412.276L412.353 96.1814C412.521 95.8221 412.778 95.5361 413.123 95.3234C413.467 95.1107 413.893 95.0044 414.399 95.0044V95.9724H414.146C413.823 95.9724 413.526 96.0311 413.255 96.1484C412.983 96.2584 412.767 96.4491 412.606 96.7204C412.444 96.9917 412.364 97.3657 412.364 97.8424V100.592H411.44Z" fill="#797979"/>
<path d="M418.125 100.724C417.604 100.724 417.142 100.607 416.739 100.372C416.335 100.13 416.016 99.7967 415.782 99.3714C415.554 98.9461 415.441 98.4437 415.441 97.8644C415.441 97.2924 415.554 96.7937 415.782 96.3684C416.009 95.9357 416.324 95.6021 416.728 95.3674C417.138 95.1254 417.611 95.0044 418.147 95.0044C418.675 95.0044 419.129 95.1254 419.511 95.3674C419.899 95.6021 420.196 95.9137 420.402 96.3024C420.607 96.6911 420.71 97.1091 420.71 97.5564C420.71 97.6371 420.706 97.7177 420.699 97.7984C420.699 97.8791 420.699 97.9707 420.699 98.0734H416.354C416.376 98.4914 416.471 98.8397 416.64 99.1184C416.816 99.3897 417.032 99.5951 417.289 99.7344C417.553 99.8737 417.831 99.9434 418.125 99.9434C418.506 99.9434 418.825 99.8554 419.082 99.6794C419.338 99.5034 419.525 99.2651 419.643 98.9644H420.556C420.409 99.4704 420.127 99.8921 419.709 100.229C419.298 100.559 418.77 100.724 418.125 100.724ZM418.125 95.7854C417.685 95.7854 417.292 95.9211 416.948 96.1924C416.61 96.4564 416.416 96.8451 416.365 97.3584H419.797C419.775 96.8671 419.606 96.4821 419.291 96.2034C418.975 95.9247 418.587 95.7854 418.125 95.7854Z" fill="#797979"/>
<path d="M243.573 315.953C243.118 315.953 242.741 315.876 242.44 315.722C242.139 315.568 241.916 315.363 241.769 315.106C241.622 314.85 241.549 314.571 241.549 314.27C241.549 313.713 241.762 313.284 242.187 312.983C242.612 312.683 243.192 312.532 243.925 312.532H245.399V312.466C245.399 311.99 245.274 311.63 245.025 311.388C244.776 311.139 244.442 311.014 244.024 311.014C243.665 311.014 243.353 311.106 243.089 311.289C242.832 311.465 242.671 311.726 242.605 312.07H241.659C241.696 311.674 241.828 311.341 242.055 311.069C242.29 310.798 242.579 310.593 242.924 310.453C243.269 310.307 243.635 310.233 244.024 310.233C244.787 310.233 245.359 310.439 245.74 310.849C246.129 311.253 246.323 311.792 246.323 312.466V315.821H245.498L245.443 314.842C245.289 315.15 245.062 315.414 244.761 315.634C244.468 315.847 244.072 315.953 243.573 315.953ZM243.716 315.172C244.068 315.172 244.369 315.081 244.618 314.897C244.875 314.714 245.069 314.476 245.201 314.182C245.333 313.889 245.399 313.581 245.399 313.258V313.247H244.002C243.459 313.247 243.074 313.343 242.847 313.533C242.627 313.717 242.517 313.948 242.517 314.226C242.517 314.512 242.62 314.743 242.825 314.919C243.038 315.088 243.335 315.172 243.716 315.172Z" fill="#797979"/>
<path d="M249.142 315.821L247.547 310.365H248.471L249.626 314.644L250.902 310.365H251.947L253.234 314.644L254.378 310.365H255.313L253.718 315.821H252.772L251.43 311.322L250.088 315.821H249.142Z" fill="#797979"/>
<path d="M258.396 315.953C257.942 315.953 257.564 315.876 257.263 315.722C256.963 315.568 256.739 315.363 256.592 315.106C256.446 314.85 256.372 314.571 256.372 314.27C256.372 313.713 256.585 313.284 257.01 312.983C257.436 312.683 258.015 312.532 258.748 312.532H260.222V312.466C260.222 311.99 260.098 311.63 259.848 311.388C259.599 311.139 259.265 311.014 258.847 311.014C258.488 311.014 258.176 311.106 257.912 311.289C257.656 311.465 257.494 311.726 257.428 312.07H256.482C256.519 311.674 256.651 311.341 256.878 311.069C257.113 310.798 257.403 310.593 257.747 310.453C258.092 310.307 258.459 310.233 258.847 310.233C259.61 310.233 260.182 310.439 260.563 310.849C260.952 311.253 261.146 311.792 261.146 312.466V315.821H260.321L260.266 314.842C260.112 315.15 259.885 315.414 259.584 315.634C259.291 315.847 258.895 315.953 258.396 315.953ZM258.539 315.172C258.891 315.172 259.192 315.081 259.441 314.897C259.698 314.714 259.892 314.476 260.024 314.182C260.156 313.889 260.222 313.581 260.222 313.258V313.247H258.825C258.283 313.247 257.898 313.343 257.67 313.533C257.45 313.717 257.34 313.948 257.34 314.226C257.34 314.512 257.443 314.743 257.648 314.919C257.861 315.088 258.158 315.172 258.539 315.172Z" fill="#797979"/>
<path d="M262.973 315.821V310.365H263.809L263.886 311.41C264.054 311.051 264.311 310.765 264.656 310.552C265 310.34 265.426 310.233 265.932 310.233V311.201H265.679C265.356 311.201 265.059 311.26 264.788 311.377C264.516 311.487 264.3 311.678 264.139 311.949C263.977 312.221 263.897 312.595 263.897 313.071V315.821H262.973Z" fill="#797979"/>
<path d="M269.658 315.953C269.137 315.953 268.675 315.836 268.272 315.601C267.868 315.359 267.549 315.026 267.315 314.6C267.087 314.175 266.974 313.673 266.974 313.093C266.974 312.521 267.087 312.023 267.315 311.597C267.542 311.165 267.857 310.831 268.261 310.596C268.671 310.354 269.144 310.233 269.68 310.233C270.208 310.233 270.662 310.354 271.044 310.596C271.432 310.831 271.729 311.143 271.935 311.531C272.14 311.92 272.243 312.338 272.243 312.785C272.243 312.866 272.239 312.947 272.232 313.027C272.232 313.108 272.232 313.2 272.232 313.302H267.887C267.909 313.72 268.004 314.069 268.173 314.347C268.349 314.619 268.565 314.824 268.822 314.963C269.086 315.103 269.364 315.172 269.658 315.172C270.039 315.172 270.358 315.084 270.615 314.908C270.871 314.732 271.058 314.494 271.176 314.193H272.089C271.942 314.699 271.66 315.121 271.242 315.458C270.831 315.788 270.303 315.953 269.658 315.953ZM269.658 311.014C269.218 311.014 268.825 311.15 268.481 311.421C268.143 311.685 267.949 312.074 267.898 312.587H271.33C271.308 312.096 271.139 311.711 270.824 311.432C270.508 311.154 270.12 311.014 269.658 311.014Z" fill="#797979"/>
<path d="M489.759 341.176V335.72H490.595L490.672 336.765C490.841 336.405 491.097 336.119 491.442 335.907C491.787 335.694 492.212 335.588 492.718 335.588V336.556H492.465C492.142 336.556 491.845 336.614 491.574 336.732C491.303 336.842 491.086 337.032 490.925 337.304C490.764 337.575 490.683 337.949 490.683 338.426V341.176H489.759Z" fill="#797979"/>
<path d="M496.444 341.308C495.923 341.308 495.461 341.19 495.058 340.956C494.655 340.714 494.336 340.38 494.101 339.955C493.874 339.529 493.76 339.027 493.76 338.448C493.76 337.876 493.874 337.377 494.101 336.952C494.328 336.519 494.644 336.185 495.047 335.951C495.458 335.709 495.931 335.588 496.466 335.588C496.994 335.588 497.449 335.709 497.83 335.951C498.219 336.185 498.516 336.497 498.721 336.886C498.926 337.274 499.029 337.692 499.029 338.14C499.029 338.22 499.025 338.301 499.018 338.382C499.018 338.462 499.018 338.554 499.018 338.657H494.673C494.695 339.075 494.79 339.423 494.959 339.702C495.135 339.973 495.351 340.178 495.608 340.318C495.872 340.457 496.151 340.527 496.444 340.527C496.825 340.527 497.144 340.439 497.401 340.263C497.658 340.087 497.845 339.848 497.962 339.548H498.875C498.728 340.054 498.446 340.475 498.028 340.813C497.617 341.143 497.089 341.308 496.444 341.308ZM496.444 336.369C496.004 336.369 495.612 336.504 495.267 336.776C494.93 337.04 494.735 337.428 494.684 337.942H498.116C498.094 337.45 497.925 337.065 497.61 336.787C497.295 336.508 496.906 336.369 496.444 336.369Z" fill="#797979"/>
<path d="M500.694 341.176V335.72H501.53L501.585 336.699C501.761 336.354 502.014 336.083 502.344 335.885C502.674 335.687 503.048 335.588 503.466 335.588C504.111 335.588 504.624 335.786 505.006 336.182C505.394 336.57 505.589 337.172 505.589 337.986V341.176H504.665V338.085C504.665 336.948 504.195 336.38 503.257 336.38C502.787 336.38 502.395 336.552 502.08 336.897C501.772 337.234 501.618 337.718 501.618 338.349V341.176H500.694Z" fill="#797979"/>
<path d="M509.585 341.176C509.086 341.176 508.694 341.055 508.408 340.813C508.122 340.571 507.979 340.134 507.979 339.504V336.501H507.033V335.72H507.979L508.1 334.411H508.903V335.72H510.509V336.501H508.903V339.504C508.903 339.848 508.972 340.083 509.112 340.208C509.251 340.325 509.497 340.384 509.849 340.384H510.421V341.176H509.585Z" fill="#797979"/>
<path d="M104.346 127.609C103.826 127.609 103.364 127.492 102.96 127.257C102.557 127.015 102.238 126.681 102.003 126.256C101.776 125.831 101.662 125.328 101.662 124.749C101.662 124.177 101.776 123.678 102.003 123.253C102.231 122.82 102.546 122.487 102.949 122.252C103.36 122.01 103.833 121.889 104.368 121.889C104.896 121.889 105.351 122.01 105.732 122.252C106.121 122.487 106.418 122.798 106.623 123.187C106.829 123.576 106.931 123.994 106.931 124.441C106.931 124.522 106.928 124.602 106.92 124.683C106.92 124.764 106.92 124.855 106.92 124.958H102.575C102.597 125.376 102.693 125.724 102.861 126.003C103.037 126.274 103.254 126.48 103.51 126.619C103.774 126.758 104.053 126.828 104.346 126.828C104.728 126.828 105.047 126.74 105.303 126.564C105.56 126.388 105.747 126.15 105.864 125.849H106.777C106.631 126.355 106.348 126.777 105.93 127.114C105.52 127.444 104.992 127.609 104.346 127.609ZM104.346 122.67C103.906 122.67 103.514 122.806 103.169 123.077C102.832 123.341 102.638 123.73 102.586 124.243H106.018C105.996 123.752 105.828 123.367 105.512 123.088C105.197 122.809 104.808 122.67 104.346 122.67Z" fill="#797979"/>
<path d="M107.788 127.477L109.68 124.749L107.788 122.021H108.789L110.318 124.276L111.858 122.021H112.848L110.956 124.749L112.848 127.477H111.858L110.318 125.222L108.789 127.477H107.788Z" fill="#797979"/>
<path d="M114.257 129.897V122.021H115.093L115.181 122.923C115.357 122.659 115.606 122.421 115.929 122.208C116.259 121.995 116.677 121.889 117.183 121.889C117.725 121.889 118.198 122.014 118.602 122.263C119.005 122.512 119.317 122.853 119.537 123.286C119.764 123.719 119.878 124.21 119.878 124.76C119.878 125.31 119.764 125.801 119.537 126.234C119.317 126.659 119.001 126.997 118.591 127.246C118.187 127.488 117.714 127.609 117.172 127.609C116.724 127.609 116.325 127.517 115.973 127.334C115.628 127.151 115.364 126.894 115.181 126.564V129.897H114.257ZM117.073 126.806C117.439 126.806 117.762 126.722 118.041 126.553C118.319 126.377 118.539 126.135 118.701 125.827C118.862 125.519 118.943 125.16 118.943 124.749C118.943 124.338 118.862 123.979 118.701 123.671C118.539 123.363 118.319 123.125 118.041 122.956C117.762 122.78 117.439 122.692 117.073 122.692C116.706 122.692 116.383 122.78 116.105 122.956C115.826 123.125 115.606 123.363 115.445 123.671C115.283 123.979 115.203 124.338 115.203 124.749C115.203 125.16 115.283 125.519 115.445 125.827C115.606 126.135 115.826 126.377 116.105 126.553C116.383 126.722 116.706 126.806 117.073 126.806Z" fill="#797979"/>
<path d="M121.604 127.477V119.557H122.528V127.477H121.604Z" fill="#797979"/>
<path d="M126.968 127.609C126.455 127.609 125.993 127.492 125.582 127.257C125.172 127.022 124.845 126.692 124.603 126.267C124.369 125.834 124.251 125.328 124.251 124.749C124.251 124.17 124.372 123.667 124.614 123.242C124.856 122.809 125.183 122.476 125.593 122.241C126.011 122.006 126.477 121.889 126.99 121.889C127.504 121.889 127.966 122.006 128.376 122.241C128.787 122.476 129.11 122.809 129.344 123.242C129.586 123.667 129.707 124.17 129.707 124.749C129.707 125.328 129.586 125.834 129.344 126.267C129.102 126.692 128.772 127.022 128.354 127.257C127.944 127.492 127.482 127.609 126.968 127.609ZM126.968 126.817C127.284 126.817 127.577 126.74 127.848 126.586C128.12 126.432 128.34 126.201 128.508 125.893C128.677 125.585 128.761 125.204 128.761 124.749C128.761 124.294 128.677 123.913 128.508 123.605C128.347 123.297 128.131 123.066 127.859 122.912C127.588 122.758 127.298 122.681 126.99 122.681C126.675 122.681 126.382 122.758 126.11 122.912C125.839 123.066 125.619 123.297 125.45 123.605C125.282 123.913 125.197 124.294 125.197 124.749C125.197 125.204 125.282 125.585 125.45 125.893C125.619 126.201 125.835 126.432 126.099 126.586C126.371 126.74 126.66 126.817 126.968 126.817Z" fill="#797979"/>
<path d="M131.432 127.477V122.021H132.268L132.345 123.066C132.514 122.707 132.771 122.421 133.115 122.208C133.46 121.995 133.885 121.889 134.391 121.889V122.857H134.138C133.816 122.857 133.519 122.916 133.247 123.033C132.976 123.143 132.76 123.334 132.598 123.605C132.437 123.876 132.356 124.25 132.356 124.727V127.477H131.432Z" fill="#797979"/>
<path d="M138.117 127.609C137.597 127.609 137.135 127.492 136.731 127.257C136.328 127.015 136.009 126.681 135.774 126.256C135.547 125.831 135.433 125.328 135.433 124.749C135.433 124.177 135.547 123.678 135.774 123.253C136.002 122.82 136.317 122.487 136.72 122.252C137.131 122.01 137.604 121.889 138.139 121.889C138.667 121.889 139.122 122.01 139.503 122.252C139.892 122.487 140.189 122.798 140.394 123.187C140.6 123.576 140.702 123.994 140.702 124.441C140.702 124.522 140.699 124.602 140.691 124.683C140.691 124.764 140.691 124.855 140.691 124.958H136.346C136.368 125.376 136.464 125.724 136.632 126.003C136.808 126.274 137.025 126.48 137.281 126.619C137.545 126.758 137.824 126.828 138.117 126.828C138.499 126.828 138.818 126.74 139.074 126.564C139.331 126.388 139.518 126.15 139.635 125.849H140.548C140.402 126.355 140.119 126.777 139.701 127.114C139.291 127.444 138.763 127.609 138.117 127.609ZM138.117 122.67C137.677 122.67 137.285 122.806 136.94 123.077C136.603 123.341 136.409 123.73 136.357 124.243H139.789C139.767 123.752 139.599 123.367 139.283 123.088C138.968 122.809 138.579 122.67 138.117 122.67Z" fill="#797979"/>
</svg>
