<svg xmlns="http://www.w3.org/2000/svg" xmlns:xlink="http://www.w3.org/1999/xlink" width="100%" height="100%" viewBox="0 0 386 385" fill="none" xmlns:v="https://vecta.io/nano"><path fill="#9fd6ff" stroke="#000" d="M1.054.5h383.99v383.99H1.054z"/><g stroke="#6aa4ff"><path d="M30.213 49.367H360.21V244.48H30.213V49.367z"/><path d="M55.81 77.957h149.287V218.9H55.81V77.957z"/></g><g fill="#6aa4ff"><path d="M229.223 89.457v-10.5h3.45c.82 0 1.495.135 2.025.405s.92.635 1.17 1.095a3.12 3.12 0 0 1 .4 1.56c0 .57-.125 1.085-.375 1.545s-.64.83-1.17 1.1-1.2.405-2.04.405h-2.2v4.38h-1.26zm1.26-5.445h2.16c.84 0 1.435-.175 1.785-.525.36-.36.54-.85.54-1.47 0-.63-.18-1.12-.54-1.47-.35-.36-.945-.54-1.785-.54h-2.16v4.005zm7.352 5.445v-10.8h1.26v10.8h-1.26z"/><use xlink:href="#B"/><use xlink:href="#C"/><path d="M257.86 89.457v-7.44H259l.075 1.335a2.7 2.7 0 0 1 1.035-1.11c.45-.27.96-.405 1.53-.405.88 0 1.58.27 2.1.8.53.53.795 1.35.795 2.46v4.35h-1.26v-4.215c0-1.55-.64-2.325-1.92-2.325-.64 0-1.175.235-1.605.705-.42.46-.63 1.12-.63 1.98v3.855h-1.26zm9.348-9.1c-.25 0-.46-.08-.63-.24-.16-.17-.24-.38-.24-.63 0-.24.08-.44.24-.6.17-.16.38-.24.63-.24.24 0 .445.08.615.24a.79.79 0 0 1 .255.6c0 .25-.085.46-.255.63-.17.16-.375.24-.615.24zm-.63 9.1v-7.44h1.26v7.44h-1.26z"/><use xlink:href="#C" x="20.757"/><path d="M281.556 87.117c-.42 0-.805-.055-1.155-.165l-.75.705c.1.08.245.15.405.2.17.05.4.1.72.15l1.305.135c1 .07 1.715.3 2.145.7s.645.9.645 1.53a2.31 2.31 0 0 1-.36 1.23c-.23.4-.6.7-1.08.96-.48.25-1.1.375-1.86.375-.67 0-1.265-.1-1.785-.27s-.925-.435-1.215-.795c-.3-.35-.435-.795-.435-1.335 0-.28.075-.585.225-.915.15-.32.43-.625.84-.915l-.57-.285a3.62 3.62 0 0 1-.42-.36v-.345l1.275-1.26c-.6-.5-.885-1.16-.885-1.98a2.63 2.63 0 0 1 .345-1.335c.23-.4.565-.715 1.005-.945.44-.24.975-.36 1.605-.36.43 0 .82.06 1.17.18h2.745v.945l-1.395.06c.3.42.435.905.435 1.455a2.52 2.52 0 0 1-.36 1.335c-.23.4-.565.72-1.005.96-.43.23-.96.345-1.6.345zm0-1.035c.53 0 .95-.135 1.26-.405.32-.28.48-.68.48-1.2 0-.5-.16-.9-.48-1.17-.3-.28-.73-.42-1.26-.42-.54 0-.97.14-1.3.42-.3.27-.465.66-.465 1.17 0 .52.155.92.465 1.2.32.27.75.405 1.3.405zm-2.2 4.335a1.19 1.19 0 0 0 .63 1.11c.42.25.945.375 1.575.375.62 0 1.115-.135 1.485-.405a1.26 1.26 0 0 0 .57-1.08c0-.32-.13-.6-.4-.84-.26-.23-.74-.365-1.44-.405l-1.425-.15c-.4.22-.68.455-.8.705-.13.26-.195.5-.195.7zm14.446-.96c-.68 0-1.215-.165-1.605-.495s-.585-.925-.585-1.785v-4.095h-1.3v-1.065h1.3l.165-1.785h1.095v1.785h2.2v1.065h-2.2v4.095c0 .47.095.8.285.96.2.16.525.24 1.005.24h.78v1.08h-1.14zm6.046.18c-.7 0-1.33-.16-1.9-.48s-1.005-.77-1.335-1.35c-.32-.6-.48-1.28-.48-2.07s.165-1.475.495-2.055a3.44 3.44 0 0 1 1.335-1.365c.57-.32 1.205-.48 1.905-.48s1.33.16 1.9.48 1 .775 1.32 1.365c.33.58.495 1.265.495 2.055s-.165 1.48-.495 2.07c-.33.58-.78 1.03-1.35 1.35-.56.32-1.2.48-1.9.48zm0-1.08a2.39 2.39 0 0 0 1.2-.315c.37-.2.67-.525.9-.945s.345-.94.345-1.56-.115-1.14-.345-1.56c-.22-.42-.515-.735-.885-.945s-.765-.315-1.185-.315a2.39 2.39 0 0 0-1.2.315c-.37.2-.67.525-.9.945s-.345.94-.345 1.56.115 1.14.345 1.56.525.735.885.945a2.47 2.47 0 0 0 1.185.315zm13.432 1.08c-.6 0-1.155-.125-1.635-.375-.47-.25-.83-.6-1.08-1.05l-.12 1.245h-1.14v-10.8h1.26v4.6c.24-.36.58-.685 1.02-.975.45-.3 1.02-.435 1.7-.435.74 0 1.385.17 1.935.5s.975.805 1.275 1.395c.3.6.465 1.26.465 2s-.155 1.42-.465 2a3.43 3.43 0 0 1-1.29 1.38c-.55.33-1.195.495-1.935.495zm-.135-1.095c.5 0 .94-.115 1.32-.345.38-.24.68-.57.9-1s.33-.9.33-1.47-.1-1.05-.33-1.47-.52-.745-.9-.975c-.38-.24-.82-.36-1.32-.36s-.94.12-1.32.36c-.38.23-.68.555-.9.975s-.33.9-.33 1.47.1 1.05.33 1.47a2.72 2.72 0 0 0 .9 1c.38.23.82.345 1.32.345zm12.088-6.525v7.44h-1.14l-.075-1.335a2.7 2.7 0 0 1-1.035 1.11c-.45.27-.96.405-1.53.405-.88 0-1.585-.265-2.115-.795-.52-.54-.78-1.365-.78-2.475v-4.35h1.26v4.215c0 1.55.64 2.325 1.92 2.325a2.06 2.06 0 0 0 1.59-.69c.43-.47.645-1.135.645-1.995v-3.855h1.26zm2.884 10.74l1.845-4.02h-.435l-2.955-6.72h1.365l2.46 5.8 2.6-5.8h1.305l-4.875 10.74h-1.32z"/><use xlink:href="#B" x="-12.012" y="20"/><path d="M244.653 109.637c-.7 0-1.35-.16-1.92-.48-.56-.33-1.005-.785-1.335-1.365-.32-.6-.48-1.275-.48-2.055s.16-1.46.48-2.04c.33-.6.775-1.045 1.335-1.365.57-.33 1.2-.495 1.92-.495.88 0 1.62.23 2.22.7.6.46.995 1.075 1.155 1.845h-1.3c-.1-.46-.345-.815-.735-1.065-.4-.26-.845-.4-1.365-.4-.42 0-.815.105-1.185.315s-.67.525-.9.945-.345.94-.345 1.56.115 1.14.345 1.56.53.74.9.96c.37.2.765.315 1.185.315.52 0 .975-.125 1.365-.375.4-.26.635-.625.735-1.095h1.3c-.15.75-.53 1.36-1.14 1.83s-1.355.705-2.235.705z"/><use xlink:href="#B" x="8.628" y="20"/><path d="M257.903 109.457v-7.44h1.14l.105 1.425c.23-.5.58-.88 1.05-1.17s1.05-.435 1.74-.435v1.32h-.345c-.44 0-.845.08-1.215.24-.37.15-.665.4-.885.78s-.33.88-.33 1.53v3.75h-1.26zm10.65-2.94l-.06-2.415h.465c.56 0 1.08-.055 1.56-.165a2.15 2.15 0 0 0 1.185-.645c.3-.32.45-.8.45-1.44 0-.62-.195-1.1-.585-1.47-.38-.36-.885-.54-1.515-.54-.64 0-1.145.175-1.515.525s-.555.82-.555 1.4h-1.2c0-.6.135-1.125.405-1.575a2.86 2.86 0 0 1 1.155-1.05c.5-.25 1.06-.375 1.7-.375s1.225.125 1.725.375.9.605 1.17 1.065.42 1.005.42 1.635c0 .74-.16 1.34-.48 1.8-.3.46-.745.795-1.305 1.005a5.52 5.52 0 0 1-1.9.315l-.045 1.545h-1.095zm.54 3.015c-.25 0-.46-.08-.63-.24-.16-.17-.24-.375-.24-.615s.08-.44.24-.6c.17-.17.38-.255.63-.255s.455.085.615.255c.16.16.24.36.24.6s-.08.445-.24.615c-.16.16-.365.24-.615.24zm-40.772 84.88h58.348v18.195H228.32zm.385-57.988v-5.6h1.808c.437 0 .795.072 1.072.216s.483.34.616.592a1.75 1.75 0 0 1 .2.832c0 .352-.096.67-.288.952s-.48.482-.88.6l1.224 2.408h-.792l-1.136-2.312h-1.152v2.312h-.672zm.672-2.84h1.088c.432 0 .747-.104.944-.312s.296-.475.296-.8-.1-.592-.296-.784c-.192-.198-.5-.296-.952-.296h-1.08v2.192zm5.573 2.936a1.97 1.97 0 0 1-1.008-.256 1.91 1.91 0 0 1-.696-.728c-.165-.3-.248-.675-.248-1.096s.083-.78.248-1.088a1.77 1.77 0 0 1 .688-.728c.3-.176.643-.264 1.032-.264.384 0 .715.088.992.264.283.17.5.397.648.68a1.94 1.94 0 0 1 .224.912l-.008.176v.2h-3.16c.016.304.085.557.208.76a1.31 1.31 0 0 0 .472.448 1.29 1.29 0 0 0 .608.152c.277 0 .5-.064.696-.192s.323-.302.408-.52h.664c-.107.368-.312.674-.616.92-.3.24-.683.36-1.152.36zm0-3.592c-.32 0-.605.098-.856.296-.245.192-.387.474-.424.848h2.496c-.016-.358-.14-.638-.368-.84s-.512-.304-.848-.304z"/><use xlink:href="#D"/><use xlink:href="#D" x="4.173"/><path d="M250.52 136.52c-.55 0-1.024-.12-1.424-.36-.394-.246-.7-.584-.92-1.016-.218-.438-.328-.944-.328-1.52s.1-1.072.328-1.504c.22-.438.526-.78.92-1.024.4-.246.875-.368 1.424-.368.64 0 1.16.154 1.56.464.406.304.664.73.776 1.28h-.744a1.46 1.46 0 0 0-.528-.832c-.26-.214-.616-.32-1.064-.32-.4 0-.75.093-1.048.28-.298.18-.53.445-.696.792-.16.34-.24.752-.24 1.232s.08.893.24 1.24c.166.34.398.605.696.792.3.18.648.272 1.048.272.448 0 .803-.102 1.064-.304a1.46 1.46 0 0 0 .528-.824h.744c-.112.538-.37.96-.776 1.264-.4.304-.92.456-1.56.456z"/><use xlink:href="#E"/><use xlink:href="#F"/><path d="M260.73 132.608l.464-1.784h.752l-.736 1.784h-.48z"/><use xlink:href="#G"/><use xlink:href="#D" x="30.93"/><use xlink:href="#H"/><path d="M276.1 136.52c-.475 0-.87-.12-1.184-.36s-.5-.566-.552-.976h.688c.043.208.152.39.328.544.18.15.424.224.728.224.283 0 .49-.06.624-.176a.57.57 0 0 0 .2-.432c0-.24-.088-.4-.264-.48-.17-.08-.413-.152-.728-.216-.213-.043-.427-.104-.64-.184s-.392-.192-.536-.336c-.144-.15-.216-.344-.216-.584a1.06 1.06 0 0 1 .384-.848c.26-.224.613-.336 1.056-.336.42 0 .765.106 1.032.32.272.208.43.506.472.896h-.664c-.027-.203-.115-.36-.264-.472-.144-.118-.34-.176-.584-.176s-.427.05-.56.152c-.128.1-.192.234-.192.4 0 .16.083.285.248.376.17.1.4.168.688.232a5.28 5.28 0 0 1 .696.2c.224.074.405.19.544.344.144.15.216.368.216.656.005.357-.13.653-.408.888-.272.23-.643.344-1.112.344z"/><use xlink:href="#H" x="5.914"/><use xlink:href="#I"/><use xlink:href="#J"/><use xlink:href="#K"/><use xlink:href="#I" x="14.415"/><use xlink:href="#L"/><use xlink:href="#M"/><use xlink:href="#D" x="73.618"/><use xlink:href="#M" x="8.367"/><path d="M321.512 136.52a2 2 0 0 1-1.008-.256 1.88 1.88 0 0 1-.712-.72 2.29 2.29 0 0 1-.256-1.104c0-.42.088-.787.264-1.096a1.86 1.86 0 0 1 .712-.728c.304-.17.643-.256 1.016-.256a1.99 1.99 0 0 1 1.008.256 1.81 1.81 0 0 1 .704.728c.176.3.264.674.264 1.096s-.088.8-.264 1.104a1.86 1.86 0 0 1-.72.72c-.3.17-.635.256-1.008.256zm0-.576a1.27 1.27 0 0 0 .64-.168c.197-.112.357-.28.48-.504s.184-.502.184-.832-.06-.608-.184-.832c-.117-.224-.275-.392-.472-.504a1.26 1.26 0 0 0-.632-.168 1.27 1.27 0 0 0-.64.168c-.197.112-.357.28-.48.504s-.184.5-.184.832.06.608.184.832.28.392.472.504a1.26 1.26 0 0 0 .632.168zm2.926 2.24v-5.728h.6l.063.656a1.88 1.88 0 0 1 .545-.52c.24-.155.544-.232.9-.232.395 0 .74.1 1.032.272s.52.43.68.744a2.26 2.26 0 0 1 .248 1.072c0 .4-.082.757-.248 1.072a1.83 1.83 0 0 1-.688.736c-.293.176-.637.264-1.03.264-.326 0-.617-.067-.872-.2a1.37 1.37 0 0 1-.577-.56v2.424h-.672zm2.048-2.248c.267 0 .502-.062.704-.184.203-.128.363-.304.48-.528s.175-.486.175-.784-.058-.56-.175-.784-.278-.398-.48-.52c-.202-.128-.437-.192-.704-.192s-.5.064-.703.192c-.203.122-.363.296-.48.52a1.67 1.67 0 0 0-.176.784c0 .298.06.56.176.784s.278.4.48.528c.202.122.437.184.703.184zm-96.5 12.584c-.33 0-.605-.056-.824-.168s-.38-.262-.488-.448a1.22 1.22 0 0 1-.16-.608c0-.406.155-.718.464-.936s.73-.328 1.264-.328h1.072v-.048c0-.347-.1-.608-.272-.784-.18-.182-.424-.272-.728-.272a1.16 1.16 0 0 0-.68.2c-.187.128-.304.317-.352.568h-.688c.027-.288.123-.53.288-.728a1.62 1.62 0 0 1 .632-.448c.25-.107.517-.16.8-.16.555 0 .97.15 1.248.448s.424.685.424 1.176v2.44h-.6l-.04-.712a1.59 1.59 0 0 1-.496.576c-.213.154-.5.232-.864.232zm.104-.568c.256 0 .475-.067.656-.2a1.27 1.27 0 0 0 .424-.52c.096-.214.144-.438.144-.672v-.008h-1.016c-.395 0-.675.07-.84.208s-.24.3-.24.504.075.376.224.504c.155.122.37.184.648.184z"/><use xlink:href="#E" x="-18.672" y="12"/><path d="M241.262 148.52c-.378 0-.72-.086-1.024-.256a1.95 1.95 0 0 1-.712-.728c-.17-.315-.256-.68-.256-1.096s.086-.78.256-1.088c.176-.315.414-.558.712-.728.304-.176.646-.264 1.024-.264.47 0 .864.122 1.184.368a1.59 1.59 0 0 1 .616.984h-.688c-.053-.246-.184-.435-.392-.568a1.27 1.27 0 0 0-.728-.208 1.26 1.26 0 0 0-.632.168c-.197.112-.357.28-.48.504s-.184.5-.184.832.062.608.184.832a1.32 1.32 0 0 0 .48.512 1.26 1.26 0 0 0 .632.168 1.32 1.32 0 0 0 .728-.2.9.9 0 0 0 .392-.584h.688c-.08.4-.282.725-.608.976s-.722.376-1.192.376zm2.738-.096v-3.968h.608l.056.76a1.43 1.43 0 0 1 .56-.624c.25-.155.56-.232.928-.232v.704h-.184a1.6 1.6 0 0 0-.648.128.96.96 0 0 0-.472.416c-.117.197-.176.47-.176.816v2H244zm7.144.096c-.325 0-.616-.067-.872-.2a1.4 1.4 0 0 1-.576-.56l-.064.664h-.608v-5.76h.672v2.448a1.77 1.77 0 0 1 .544-.52c.24-.155.544-.232.912-.232.395 0 .74.1 1.032.272s.52.43.68.744a2.26 2.26 0 0 1 .248 1.072c0 .4-.082.757-.248 1.072a1.83 1.83 0 0 1-.688.736c-.293.176-.637.264-1.032.264zm-.072-.584c.267 0 .502-.062.704-.184.203-.128.363-.304.48-.528a1.66 1.66 0 0 0 .176-.784c0-.3-.058-.56-.176-.784s-.277-.398-.48-.52c-.202-.128-.437-.192-.704-.192s-.5.064-.704.192a1.3 1.3 0 0 0-.48.52 1.67 1.67 0 0 0-.176.784c0 .298.06.56.176.784s.278.4.48.528a1.34 1.34 0 0 0 .704.184zm6.448-3.48v3.968h-.608l-.04-.712c-.128.25-.312.448-.552.592s-.512.216-.816.216c-.47 0-.845-.142-1.128-.424-.277-.288-.416-.728-.416-1.32v-2.32h.672v2.248c0 .826.34 1.24 1.024 1.24a1.1 1.1 0 0 0 .848-.368c.23-.25.344-.606.344-1.064v-2.056h.672z"/><use xlink:href="#N"/><path d="M263.48 143.576c-.133 0-.245-.043-.336-.128-.085-.09-.128-.203-.128-.336 0-.128.043-.235.128-.32a.47.47 0 0 1 .336-.128c.128 0 .238.042.328.128a.42.42 0 0 1 .136.32c0 .133-.045.245-.136.336a.46.46 0 0 1-.328.128zm-.336 4.848v-3.968h.672v3.968h-.672z"/><use xlink:href="#O"/><path d="M271.132 147.176c-.224 0-.43-.03-.617-.088l-.4.376c.06.042.13.08.216.112.1.026.22.053.384.08l.696.072c.534.037.915.16 1.145.368s.343.48.343.816a1.24 1.24 0 0 1-.191.656c-.123.208-.315.378-.576.512s-.587.2-.993.2c-.357 0-.674-.048-.95-.144s-.494-.232-.65-.424-.232-.424-.232-.712c0-.15.04-.312.12-.488s.23-.334.448-.488c-.117-.048-.218-.1-.304-.152a2.06 2.06 0 0 1-.224-.192v-.184l.68-.672c-.315-.267-.472-.62-.472-1.056 0-.262.06-.5.183-.712a1.3 1.3 0 0 1 .536-.504c.235-.128.52-.192.857-.192.23 0 .437.032.624.096h1.463v.504l-.744.032a1.33 1.33 0 0 1 .233.776 1.36 1.36 0 0 1-.193.712 1.33 1.33 0 0 1-.536.512c-.23.122-.512.184-.847.184zm0-.552c.282 0 .506-.072.67-.216.17-.15.256-.363.256-.64s-.085-.48-.256-.624c-.165-.15-.4-.224-.67-.224-.288 0-.518.074-.688.224-.166.144-.25.352-.25.624s.083.5.25.64.4.216.688.216zm-1.17 2.312c0 .266.113.464.336.592s.505.2.84.2.595-.072.792-.216c.203-.144.305-.336.305-.576 0-.17-.07-.32-.208-.448-.14-.123-.395-.195-.77-.216l-.76-.08c-.22.117-.363.242-.433.376s-.104.26-.104.368zm6.133 1.248v-5.728h.608l.064.656c.128-.192.3-.366.544-.52.24-.155.544-.232.912-.232a1.92 1.92 0 0 1 1.032.272 1.83 1.83 0 0 1 .68.744c.165.314.248.672.248 1.072s-.083.757-.248 1.072a1.84 1.84 0 0 1-.688.736c-.294.176-.638.264-1.032.264-.326 0-.616-.067-.872-.2a1.39 1.39 0 0 1-.576-.56v2.424h-.672zm2.048-2.248a1.34 1.34 0 0 0 .704-.184c.202-.128.362-.304.48-.528a1.66 1.66 0 0 0 .176-.784 1.67 1.67 0 0 0-.176-.784 1.3 1.3 0 0 0-.48-.52c-.203-.128-.438-.192-.704-.192a1.29 1.29 0 0 0-.704.192c-.203.122-.363.296-.48.52a1.67 1.67 0 0 0-.176.784 1.66 1.66 0 0 0 .176.784c.117.224.277.4.48.528.202.122.437.184.704.184zm2.975.488v-5.76h.672v5.76h-.672zm3.094.096c-.33 0-.606-.056-.824-.168a1.14 1.14 0 0 1-.488-.448 1.23 1.23 0 0 1-.16-.608c0-.406.154-.718.464-.936s.73-.328 1.264-.328h1.072v-.048c0-.347-.1-.608-.272-.784-.182-.182-.424-.272-.728-.272-.262 0-.488.066-.68.2-.187.128-.304.317-.352.568h-.688a1.28 1.28 0 0 1 .288-.728 1.61 1.61 0 0 1 .632-.448c.25-.107.517-.16.8-.16.554 0 .97.15 1.248.448s.424.685.424 1.176v2.44h-.6l-.04-.712a1.6 1.6 0 0 1-.496.576c-.214.154-.502.232-.864.232zm.104-.568a1.08 1.08 0 0 0 .656-.2c.186-.134.328-.307.424-.52a1.62 1.62 0 0 0 .144-.672v-.008h-1.016c-.395 0-.675.07-.84.208s-.24.3-.24.504a.63.63 0 0 0 .224.504c.154.122.37.184.648.184zm4.362.472c-.362 0-.648-.088-.856-.264s-.312-.494-.312-.952v-2.184h-.688v-.568h.688l.088-.952h.584v.952h1.168v.568h-1.168v2.184c0 .25.05.42.152.512.102.085.28.128.536.128h.416v.576h-.608z"/><use xlink:href="#P"/><path d="M294.52 148.52c-.373 0-.71-.086-1.008-.256s-.536-.41-.712-.72c-.17-.315-.256-.683-.256-1.104s.088-.787.264-1.096a1.86 1.86 0 0 1 .712-.728c.304-.17.643-.256 1.016-.256s.71.085 1.008.256a1.81 1.81 0 0 1 .704.728c.176.31.264.674.264 1.096s-.088.79-.264 1.104c-.176.31-.416.55-.72.72s-.635.256-1.008.256zm0-.576c.23 0 .443-.056.64-.168s.357-.28.48-.504.184-.502.184-.832-.06-.608-.184-.832c-.117-.224-.275-.392-.472-.504a1.26 1.26 0 0 0-.632-.168c-.23 0-.443.056-.64.168s-.357.28-.48.504-.184.5-.184.832.06.608.184.832.28.392.472.504a1.26 1.26 0 0 0 .632.168z"/><use xlink:href="#F" x="39.346" y="12"/><path d="M300.353 148.424v-3.968h.608l.048.576a1.33 1.33 0 0 1 .512-.496 1.46 1.46 0 0 1 .72-.176c.314 0 .584.064.808.192.23.128.405.322.528.584a1.52 1.52 0 0 1 .568-.568 1.58 1.58 0 0 1 .792-.208c.474 0 .853.144 1.136.432.282.282.424.72.424 1.312v2.32h-.664v-2.248c0-.41-.083-.72-.248-.928s-.403-.312-.712-.312c-.32 0-.587.125-.8.376-.208.245-.312.597-.312 1.056v2.056h-.672v-2.248c0-.41-.083-.72-.248-.928s-.403-.312-.712-.312c-.315 0-.58.125-.792.376-.208.245-.312.597-.312 1.056v2.056h-.672z"/><use xlink:href="#P" x="19.422"/><path d="M313.942 148.52c-.374 0-.7-.086-1.008-.256s-.536-.41-.712-.72c-.17-.315-.256-.683-.256-1.104s.088-.787.264-1.096a1.86 1.86 0 0 1 .712-.728c.304-.17.642-.256 1.016-.256s.71.085 1.008.256.533.413.704.728c.176.31.264.674.264 1.096s-.088.79-.264 1.104c-.176.31-.416.55-.72.72-.3.17-.635.256-1.008.256zm0-.576a1.28 1.28 0 0 0 .64-.168c.197-.112.357-.28.48-.504s.184-.502.184-.832-.062-.608-.184-.832-.275-.392-.472-.504a1.26 1.26 0 0 0-.632-.168 1.27 1.27 0 0 0-.64.168c-.198.112-.358.28-.48.504s-.184.5-.184.832.06.608.184.832.28.392.472.504a1.26 1.26 0 0 0 .632.168z"/><use xlink:href="#F" x="58.768" y="12"/><use xlink:href="#K" x="29.97" y="12"/><path d="M324.985 148.424v-5.76h.672v2.472c.134-.246.323-.435.568-.568.246-.14.512-.208.8-.208.46 0 .827.144 1.104.432.278.282.416.72.416 1.312v2.32h-.664v-2.248c0-.827-.333-1.24-1-1.24-.346 0-.637.125-.872.376-.234.245-.352.597-.352 1.056v2.056h-.672zm6.362.096a1.97 1.97 0 0 1-1.007-.256c-.294-.176-.526-.42-.696-.728s-.248-.675-.248-1.096.082-.78.248-1.088a1.77 1.77 0 0 1 .687-.728 2 2 0 0 1 1.033-.264c.384 0 .714.088 1 .264.283.17.5.397.65.68s.224.586.224.912c0 .058-.003.117-.01.176v.2h-3.16c.016.304.085.557.208.76a1.31 1.31 0 0 0 .472.448c.192.1.394.152.607.152.278 0 .5-.064.697-.192a1.1 1.1 0 0 0 .407-.52h.665a1.81 1.81 0 0 1-.617.92c-.298.24-.682.36-1.152.36zm0-3.592a1.34 1.34 0 0 0-.855.296c-.246.192-.387.474-.425.848h2.496c-.015-.358-.138-.638-.368-.84s-.512-.304-.848-.304zm-102.682 17.256v-5.728h.608l.064.656c.128-.192.3-.366.544-.52s.544-.232.912-.232c.395 0 .74.1 1.032.272a1.83 1.83 0 0 1 .68.744c.165.314.248.672.248 1.072s-.083.757-.248 1.072a1.83 1.83 0 0 1-.688.736c-.293.176-.637.264-1.032.264-.325 0-.616-.067-.872-.2a1.39 1.39 0 0 1-.576-.56v2.424h-.672zm2.048-2.248a1.34 1.34 0 0 0 .704-.184c.203-.128.363-.304.48-.528s.176-.486.176-.784a1.67 1.67 0 0 0-.176-.784c-.117-.224-.277-.398-.48-.52a1.29 1.29 0 0 0-.704-.192 1.29 1.29 0 0 0-.704.192c-.203.122-.363.296-.48.52a1.67 1.67 0 0 0-.176.784c0 .298.06.56.176.784a1.34 1.34 0 0 0 1.184.712z"/><use xlink:href="#F" x="-24.412" y="24"/><use xlink:href="#Q"/><use xlink:href="#G" x="-21.376" y="24"/><path d="M246.785 160.52c-.38 0-.715-.086-1.008-.256a1.91 1.91 0 0 1-.696-.728c-.165-.3-.248-.675-.248-1.096s.083-.78.248-1.088a1.77 1.77 0 0 1 .688-.728c.3-.176.643-.264 1.032-.264s.715.088.992.264c.283.17.5.397.648.68s.224.586.224.912l-.008.176v.2h-3.16c.016.304.085.557.208.76a1.31 1.31 0 0 0 .472.448 1.29 1.29 0 0 0 .608.152c.277 0 .51-.064.696-.192s.323-.302.408-.52h.664c-.107.368-.312.674-.616.92-.3.24-.683.36-1.152.36zm0-3.592c-.32 0-.605.098-.856.296-.245.192-.387.474-.424.848H248c-.016-.358-.14-.638-.368-.84s-.512-.304-.848-.304z"/><use xlink:href="#J" x="-35.672" y="24"/><use xlink:href="#K" x="-37.788" y="24"/><use xlink:href="#L" x="-42.415" y="24"/><path d="M265.688 160.52c-.33 0-.605-.056-.824-.168s-.38-.262-.488-.448-.16-.4-.16-.608c0-.406.155-.718.464-.936s.73-.328 1.264-.328h1.072v-.048c0-.347-.1-.608-.272-.784-.18-.182-.424-.272-.728-.272-.26 0-.488.066-.68.2a.85.85 0 0 0-.352.568h-.688c.027-.288.123-.53.288-.728.17-.198.382-.347.632-.448a2.02 2.02 0 0 1 .8-.16c.555 0 .97.15 1.248.448.283.293.424.685.424 1.176v2.44h-.6l-.04-.712a1.59 1.59 0 0 1-.496.576c-.213.154-.5.232-.864.232zm.104-.568c.256 0 .475-.067.656-.2a1.27 1.27 0 0 0 .424-.52c.096-.214.144-.438.144-.672v-.008H266c-.394 0-.674.07-.84.208-.16.133-.24.3-.24.504s.075.376.224.504c.155.122.37.184.648.184z"/><use xlink:href="#N" x="9.952" y="12"/><path d="M272.736 156.608l.464-1.784h.752l-.736 1.784h-.48zm3.168 3.912c-.475 0-.87-.12-1.184-.36s-.5-.566-.552-.976h.688a.97.97 0 0 0 .328.544c.18.15.424.224.728.224.282 0 .5-.06.624-.176a.57.57 0 0 0 .2-.432c0-.24-.088-.4-.264-.48-.17-.08-.414-.152-.728-.216a4.13 4.13 0 0 1-.64-.184c-.214-.08-.392-.192-.536-.336-.144-.15-.216-.344-.216-.584a1.06 1.06 0 0 1 .384-.848c.26-.224.613-.336 1.056-.336.42 0 .765.106 1.032.32.272.208.43.506.472.896h-.664c-.027-.203-.115-.36-.264-.472-.144-.118-.34-.176-.584-.176s-.427.05-.56.152-.192.234-.192.4c0 .16.082.285.248.376s.4.168.688.232a5.28 5.28 0 0 1 .696.2 1.24 1.24 0 0 1 .544.344c.144.15.216.368.216.656a1.09 1.09 0 0 1-.408.888c-.272.23-.643.344-1.112.344z"/><use xlink:href="#K" x="-11.42" y="24"/><use xlink:href="#Q" x="47.04"/><path d="M288.04 160.424v-3.968h.608l.048.576a1.34 1.34 0 0 1 .512-.496 1.46 1.46 0 0 1 .72-.176c.315 0 .584.064.808.192s.405.322.528.584c.14-.24.328-.43.568-.568a1.58 1.58 0 0 1 .792-.208c.475 0 .853.144 1.136.432.283.282.424.72.424 1.312v2.32h-.664v-2.248c0-.4-.083-.72-.248-.928s-.403-.312-.712-.312c-.32 0-.587.125-.8.376-.208.245-.312.597-.312 1.056v2.056h-.672v-2.248c0-.4-.083-.72-.248-.928s-.403-.312-.712-.312c-.315 0-.58.125-.792.376-.208.245-.312.597-.312 1.056v2.056h-.672zm7.156 1.76v-5.728h.608l.064.656a1.77 1.77 0 0 1 .544-.52c.24-.155.544-.232.912-.232.395 0 .74.1 1.032.272s.52.43.68.744a2.26 2.26 0 0 1 .248 1.072c0 .4-.082.757-.248 1.072a1.83 1.83 0 0 1-.688.736c-.293.176-.637.264-1.032.264-.325 0-.616-.067-.872-.2a1.4 1.4 0 0 1-.576-.56v2.424h-.672zm2.048-2.248c.267 0 .502-.062.704-.184.203-.128.363-.304.48-.528a1.66 1.66 0 0 0 .176-.784c0-.3-.058-.56-.176-.784s-.277-.398-.48-.52c-.202-.128-.437-.192-.704-.192s-.5.064-.704.192a1.3 1.3 0 0 0-.48.52 1.67 1.67 0 0 0-.176.784c0 .298.06.56.176.784s.278.4.48.528a1.34 1.34 0 0 0 .704.184zm4.784.584c-.374 0-.7-.086-1.008-.256s-.536-.4-.712-.72a2.29 2.29 0 0 1-.256-1.104c0-.42.088-.787.264-1.096a1.86 1.86 0 0 1 .712-.728c.304-.17.642-.256 1.016-.256s.7.085 1.008.256a1.82 1.82 0 0 1 .704.728c.176.3.264.674.264 1.096s-.088.8-.264 1.104a1.86 1.86 0 0 1-.72.72c-.304.17-.635.256-1.008.256zm0-.576a1.28 1.28 0 0 0 .64-.168c.197-.112.357-.28.48-.504s.184-.502.184-.832-.062-.608-.184-.832-.275-.392-.472-.504a1.26 1.26 0 0 0-.632-.168 1.27 1.27 0 0 0-.64.168c-.198.112-.358.28-.48.504s-.184.5-.184.832.06.608.184.832.28.392.472.504a1.26 1.26 0 0 0 .632.168zm2.926.48v-3.968h.608l.056.76a1.43 1.43 0 0 1 .56-.624c.25-.155.56-.232.928-.232v.704h-.184a1.6 1.6 0 0 0-.648.128.96.96 0 0 0-.472.416c-.117.197-.176.47-.176.816v2h-.672z"/><use xlink:href="#E" x="54.078" y="24"/><path d="M312.188 160.424v-3.968h.61l.056.76a1.43 1.43 0 0 1 .559-.624c.25-.155.56-.232.928-.232v.704h-.183a1.61 1.61 0 0 0-.649.128c-.197.08-.354.218-.472.416s-.176.47-.176.816v2h-.672z"/><use xlink:href="#N" x="56.469" y="12"/><path d="M228.665 172.424v-3.968h.608l.048.576a1.34 1.34 0 0 1 .512-.496 1.46 1.46 0 0 1 .72-.176c.315 0 .584.064.808.192.23.128.405.322.528.584.14-.24.328-.43.568-.568a1.58 1.58 0 0 1 .792-.208c.475 0 .853.144 1.136.432.283.282.424.72.424 1.312v2.32h-.664v-2.248c0-.41-.083-.72-.248-.928s-.403-.312-.712-.312c-.32 0-.587.125-.8.376-.208.245-.312.597-.312 1.056v2.056h-.672v-2.248c0-.41-.083-.72-.248-.928s-.403-.312-.712-.312c-.315 0-.58.125-.792.376-.208.245-.312.597-.312 1.056v2.056h-.672z"/><use xlink:href="#E" x="-17.962" y="36"/><use xlink:href="#O" x="-24.835" y="24"/></g><path d="M360.7 385V266.7H29.713V385m105.85-.974V295.3h-83.2v88.737m184.433-.001V295.3h-83.2v88.737m184.434-.001V295.3h-83.192v88.737" stroke="#6aa4ff"/><defs ><path id="B" d="M243.635 89.637c-.62 0-1.135-.105-1.545-.315s-.715-.5-.915-.84a2.26 2.26 0 0 1-.3-1.14c0-.76.3-1.345.87-1.755s1.37-.615 2.37-.615h2v-.1c0-.65-.17-1.14-.5-1.47-.34-.34-.795-.5-1.365-.5-.5 0-.915.125-1.275.375-.35.24-.57.595-.66 1.065h-1.3c.05-.54.23-.995.54-1.365.32-.37.715-.65 1.185-.84a3.79 3.79 0 0 1 1.5-.3c1.04 0 1.82.28 2.34.84.53.55.795 1.285.795 2.205v4.575h-1.125l-.075-1.335c-.2.42-.52.78-.93 1.08-.4.3-.94.435-1.62.435zm.195-1.065c.48 0 .9-.125 1.23-.375a2.37 2.37 0 0 0 .795-.975c.18-.4.27-.82.27-1.26v-.015h-1.905c-.74 0-1.265.13-1.575.4-.3.25-.45.565-.45.945 0 .4.14.705.42.945.3.23.695.345 1.215.345z"/><path id="C" d="M249.275 89.457v-7.44h1.14l.075 1.335a2.7 2.7 0 0 1 1.035-1.11c.45-.27.96-.405 1.53-.405.88 0 1.58.27 2.1.8.53.53.795 1.35.795 2.46v4.35h-1.26v-4.215c0-1.55-.64-2.325-1.92-2.325-.64 0-1.175.235-1.605.705-.42.46-.63 1.12-.63 1.98v3.855h-1.26z"/><path id="D" d="M238.707 136.424l-1.504-3.968h.704l1.192 3.32 1.2-3.32h.688l-1.504 3.968h-.776z"/><path id="E" d="M255.102 136.52c-.33 0-.605-.056-.824-.168s-.38-.262-.488-.448-.16-.4-.16-.608c0-.406.155-.718.464-.936s.73-.328 1.264-.328h1.072v-.048c0-.347-.1-.608-.272-.784-.18-.182-.424-.272-.728-.272-.26 0-.488.066-.68.2a.85.85 0 0 0-.352.568h-.688c.027-.288.123-.53.288-.728.17-.198.382-.347.632-.448a2.02 2.02 0 0 1 .8-.16c.555 0 .97.15 1.248.448.283.293.424.685.424 1.176v2.44h-.6l-.04-.712a1.59 1.59 0 0 1-.496.576c-.213.154-.5.232-.864.232zm.104-.568c.256 0 .475-.067.656-.2a1.27 1.27 0 0 0 .424-.52c.096-.214.144-.438.144-.672v-.008h-1.016c-.394 0-.674.07-.84.208-.16.133-.24.3-.24.504s.075.376.224.504c.155.122.37.184.648.184z"/><path id="F" d="M258.1 136.424v-3.968h.608l.056.76c.123-.262.3-.47.56-.624s.56-.232.928-.232v.704h-.184a1.61 1.61 0 0 0-.648.128c-.197.08-.354.218-.472.416s-.176.47-.176.816v2h-.672z"/><path id="G" d="M263.896 136.52c-.475 0-.87-.12-1.184-.36s-.5-.566-.552-.976h.688c.043.208.152.39.328.544.18.15.424.224.728.224.283 0 .49-.06.624-.176a.57.57 0 0 0 .2-.432c0-.24-.088-.4-.264-.48s-.413-.152-.728-.216c-.213-.043-.427-.104-.64-.184s-.392-.192-.536-.336c-.144-.15-.216-.344-.216-.584a1.06 1.06 0 0 1 .384-.848c.26-.224.613-.336 1.056-.336.42 0 .765.106 1.032.32.272.208.43.506.472.896h-.664c-.027-.203-.115-.36-.264-.472-.144-.118-.34-.176-.584-.176s-.427.05-.56.152-.192.234-.192.4c0 .16.083.285.248.376.17.1.4.168.688.232a5.28 5.28 0 0 1 .696.2c.224.074.405.19.544.344.144.15.216.368.216.656.005.357-.13.653-.408.888-.272.23-.643.344-1.112.344z"/><path id="H" d="M273.073 131.576c-.133 0-.245-.043-.336-.128-.085-.09-.128-.203-.128-.336 0-.128.043-.235.128-.32a.47.47 0 0 1 .336-.128.46.46 0 0 1 .328.128.42.42 0 0 1 .136.32c0 .133-.045.245-.136.336-.09.085-.2.128-.328.128zm-.336 4.848v-3.968h.672v3.968h-.672z"/><path id="I" d="M282.3 136.52c-.373 0-.71-.086-1.008-.256s-.536-.41-.712-.72a2.29 2.29 0 0 1-.256-1.104c0-.422.088-.787.264-1.096.176-.315.414-.558.712-.728.304-.17.643-.256 1.016-.256s.7.085 1.008.256.534.413.704.728c.176.31.264.674.264 1.096s-.088.79-.264 1.104c-.176.31-.416.55-.72.72-.298.17-.634.256-1.008.256zm0-.576a1.27 1.27 0 0 0 .64-.168c.198-.112.358-.28.48-.504s.184-.502.184-.832-.06-.608-.184-.832c-.117-.224-.274-.392-.472-.504a1.26 1.26 0 0 0-.632-.168 1.28 1.28 0 0 0-.64.168c-.197.112-.357.28-.48.504s-.184.5-.184.832.062.608.184.832.28.392.472.504a1.26 1.26 0 0 0 .632.168z"/><path id="J" d="M285.228 136.424v-3.968h.608l.04.712a1.44 1.44 0 0 1 .552-.592c.24-.144.512-.216.816-.216.47 0 .842.144 1.12.432.282.282.424.72.424 1.312v2.32h-.672v-2.248c0-.827-.342-1.24-1.024-1.24a1.11 1.11 0 0 0-.856.376c-.224.245-.336.597-.336 1.056v2.056h-.672z"/><path id="K" d="M293.49 136.424c-.363 0-.648-.088-.856-.264s-.312-.494-.312-.952v-2.184h-.688v-.568h.688l.088-.952h.584v.952h1.168v.568h-1.168v2.184c0 .25.05.42.152.512.1.085.28.128.536.128h.416v.576h-.608z"/><path id="L" d="M303.56 136.52c-.395 0-.742-.09-1.04-.272a1.89 1.89 0 0 1-.688-.744c-.16-.315-.24-.672-.24-1.072s.082-.755.248-1.064c.165-.315.394-.56.688-.736.293-.182.64-.272 1.04-.272.325 0 .613.066.864.2s.445.32.584.56v-2.456h.672v5.76h-.608l-.064-.656c-.128.192-.312.365-.552.52s-.542.232-.904.232zm.072-.584a1.34 1.34 0 0 0 .704-.184c.208-.128.368-.304.48-.528s.176-.486.176-.784a1.67 1.67 0 0 0-.176-.784 1.22 1.22 0 0 0-.48-.52c-.203-.128-.438-.192-.704-.192s-.496.064-.704.192c-.203.122-.363.296-.48.52s-.168.485-.168.784.056.56.168.784.277.4.48.528c.208.122.442.184.704.184z"/><path id="M" d="M308.566 136.52c-.378 0-.714-.086-1.008-.256a1.91 1.91 0 0 1-.696-.728c-.165-.3-.248-.675-.248-1.096s.083-.78.248-1.088c.166-.315.395-.558.688-.728.3-.176.643-.264 1.032-.264s.715.088.992.264c.283.17.5.397.648.68a1.91 1.91 0 0 1 .224.912l-.008.176v.2h-3.16c.016.304.086.557.208.76.128.197.286.346.472.448a1.29 1.29 0 0 0 .608.152c.278 0 .5-.064.696-.192s.323-.302.408-.52h.664a1.8 1.8 0 0 1-.616.92c-.298.24-.682.36-1.152.36zm0-3.592c-.32 0-.605.098-.856.296-.245.192-.386.474-.424.848h2.496c-.016-.358-.138-.638-.368-.84s-.512-.304-.848-.304z"/><path id="N" d="M259.058 150.184l.984-2.144h-.232l-1.576-3.584h.728l1.312 3.088 1.392-3.088h.696l-2.6 5.728h-.704z"/><path id="O" d="M264.985 148.424v-3.968h.608l.04.712a1.44 1.44 0 0 1 .552-.592c.24-.144.512-.216.816-.216.47 0 .843.144 1.12.432.283.282.424.72.424 1.312v2.32h-.672v-2.248c0-.827-.34-1.24-1.024-1.24a1.11 1.11 0 0 0-.856.376c-.224.245-.336.597-.336 1.056v2.056h-.672z"/><path id="P" d="M290.42 148.424v-3.4h-.6v-.568h.6v-.688c0-.384.096-.664.288-.84s.472-.264.84-.264h.4v.576h-.296c-.203 0-.347.042-.432.128-.085.08-.128.218-.128.416v.672h.976v.568h-.976v3.4h-.672z"/><path id="Q" d="M238.23 160.52c-.378 0-.714-.086-1.008-.256a1.91 1.91 0 0 1-.696-.728c-.165-.3-.248-.675-.248-1.096s.083-.78.248-1.088c.166-.315.395-.558.688-.728.3-.176.643-.264 1.032-.264.384 0 .715.088.992.264.283.17.5.397.648.68a1.91 1.91 0 0 1 .224.912l-.008.176v.2h-3.16c.016.304.086.557.208.76.128.197.286.346.472.448a1.29 1.29 0 0 0 .608.152c.278 0 .5-.064.696-.192s.323-.302.408-.52h.664a1.8 1.8 0 0 1-.616.92c-.298.24-.682.36-1.152.36zm0-3.592c-.32 0-.605.098-.856.296-.245.192-.386.474-.424.848h2.496c-.016-.358-.138-.638-.368-.84s-.512-.304-.848-.304z"/></defs></svg>