<svg width="418" height="103" viewBox="0 0 418 103" fill="none" xmlns="http://www.w3.org/2000/svg">
<path opacity="0.2" d="M24.8774 80.3092C20.1734 80.3092 15.8054 79.3385 11.7734 77.3972C7.74142 75.3812 4.49342 72.5812 2.02942 68.9972L8.52542 61.3812C12.8561 67.5785 18.3068 70.6772 24.8774 70.6772C29.2828 70.6772 32.6054 69.3332 34.8454 66.6452C37.1601 63.9572 38.3174 59.9999 38.3174 54.7732V10.7572H9.98142V1.01318H49.4054V54.2132C49.4054 62.8745 47.3148 69.4079 43.1334 73.8132C39.0268 78.1439 32.9414 80.3092 24.8774 80.3092ZM93.8353 80.0852C87.9366 80.0852 82.6353 78.7785 77.9313 76.1652C73.2273 73.5519 69.5313 69.9679 66.8433 65.4132C64.23 60.7839 62.9233 55.5572 62.9233 49.7332C62.9233 43.9092 64.23 38.7199 66.8433 34.1652C69.5313 29.5359 73.2273 25.9519 77.9313 23.4132C82.6353 20.7999 87.9366 19.4932 93.8353 19.4932C99.734 19.4932 104.998 20.7999 109.627 23.4132C114.331 25.9519 117.99 29.5359 120.603 34.1652C123.291 38.7199 124.635 43.9092 124.635 49.7332C124.635 55.5572 123.291 60.7839 120.603 65.4132C117.99 69.9679 114.331 73.5519 109.627 76.1652C104.998 78.7785 99.734 80.0852 93.8353 80.0852ZM93.8353 70.6772C97.6433 70.6772 101.041 69.8185 104.027 68.1012C107.089 66.3092 109.478 63.8452 111.195 60.7092C112.913 57.4985 113.771 53.8399 113.771 49.7332C113.771 45.6265 112.913 42.0052 111.195 38.8692C109.478 35.6585 107.089 33.1945 104.027 31.4772C101.041 29.7599 97.6433 28.9012 93.8353 28.9012C90.0273 28.9012 86.5926 29.7599 83.5313 31.4772C80.5446 33.1945 78.1553 35.6585 76.3633 38.8692C74.646 42.0052 73.7873 45.6265 73.7873 49.7332C73.7873 53.8399 74.646 57.4985 76.3633 60.7092C78.1553 63.8452 80.5446 66.3092 83.5313 68.1012C86.5926 69.8185 90.0273 70.6772 93.8353 70.6772ZM192.593 20.0532V79.4132H182.401V70.4532C180.236 73.5145 177.361 75.9039 173.777 77.6212C170.268 79.2639 166.422 80.0852 162.241 80.0852C154.326 80.0852 148.092 77.9199 143.537 73.5892C138.982 69.1839 136.705 62.7252 136.705 54.2132V20.0532H147.457V52.9812C147.457 58.7305 148.838 63.0985 151.601 66.0852C154.364 68.9972 158.321 70.4532 163.473 70.4532C169.148 70.4532 173.628 68.7359 176.913 65.3012C180.198 61.8665 181.841 57.0132 181.841 50.7412V20.0532H192.593ZM221.126 30.0212C222.993 26.5865 225.755 23.9732 229.414 22.1812C233.073 20.3892 237.515 19.4932 242.742 19.4932V29.9092C242.145 29.8345 241.323 29.7972 240.278 29.7972C234.454 29.7972 229.862 31.5519 226.502 35.0612C223.217 38.4959 221.574 43.4239 221.574 49.8452V79.4132H210.822V20.0532H221.126V30.0212ZM285.45 19.4932C292.991 19.4932 298.964 21.6959 303.37 26.1012C307.85 30.4319 310.09 36.8159 310.09 45.2532V79.4132H299.338V46.4852C299.338 40.7359 297.956 36.4052 295.194 33.4932C292.431 30.5812 288.474 29.1252 283.322 29.1252C277.498 29.1252 272.906 30.8425 269.546 34.2772C266.186 37.6372 264.506 42.4905 264.506 48.8372V79.4132H253.754V20.0532H264.058V29.0132C266.223 25.9519 269.135 23.5999 272.794 21.9572C276.527 20.3145 280.746 19.4932 285.45 19.4932ZM381.724 50.0692C381.724 50.8905 381.65 51.9732 381.5 53.3172H333.34C334.012 58.5439 336.29 62.7625 340.172 65.9732C344.13 69.1092 349.02 70.6772 354.844 70.6772C361.938 70.6772 367.65 68.2879 371.98 63.5092L377.916 70.4532C375.228 73.5892 371.868 75.9785 367.836 77.6212C363.879 79.2639 359.436 80.0852 354.508 80.0852C348.236 80.0852 342.674 78.8159 337.82 76.2772C332.967 73.6639 329.196 70.0425 326.508 65.4132C323.895 60.7839 322.588 55.5572 322.588 49.7332C322.588 43.9839 323.858 38.7945 326.396 34.1652C329.01 29.5359 332.556 25.9519 337.036 23.4132C341.591 20.7999 346.706 19.4932 352.38 19.4932C358.055 19.4932 363.095 20.7999 367.5 23.4132C371.98 25.9519 375.452 29.5359 377.916 34.1652C380.455 38.7945 381.724 44.0959 381.724 50.0692ZM352.38 28.5652C347.228 28.5652 342.898 30.1332 339.388 33.2692C335.954 36.4052 333.938 40.5119 333.34 45.5892H371.42C370.823 40.5865 368.77 36.5172 365.26 33.3812C361.826 30.1705 357.532 28.5652 352.38 28.5652ZM445.849 20.0532L417.065 85.3492C414.526 91.3972 411.539 95.6532 408.105 98.1172C404.745 100.581 400.675 101.813 395.897 101.813C392.985 101.813 390.147 101.328 387.385 100.357C384.697 99.4612 382.457 98.1172 380.665 96.3252L385.257 88.2612C388.318 91.1732 391.865 92.6292 395.897 92.6292C398.51 92.6292 400.675 91.9199 402.393 90.5012C404.185 89.1572 405.79 86.8052 407.209 83.4452L409.113 79.3012L382.905 20.0532H394.105L414.825 67.5412L435.321 20.0532H445.849Z" stroke="#0066B3" stroke-width="2"/>
</svg>
