<svg width="100%" height="100%" viewBox="0 0 220 155" fill="none" xmlns="http://www.w3.org/2000/svg">
<rect width="0.643275" height="60.9088" transform="matrix(-1 0 0 1 106.783 46.7383)" fill="#0C8AFE"/>
<rect width="0.643275" height="75.6393" transform="matrix(-1 0 0 1 92.6316 39.3735)" fill="#0C8AFE"/>
<rect width="0.643275" height="69.3116" transform="matrix(-1 0 0 1 64.3274 42.5371)" fill="#0C8AFE"/>
<rect width="0.643275" height="69.3116" transform="matrix(-1 0 0 1 43.0996 42.5371)" fill="#0C8AFE"/>
<rect width="0.643275" height="32.3002" transform="matrix(-1 0 0 1 113.86 61.043)" fill="#0C8AFE"/>
<rect width="0.643275" height="32.3002" transform="matrix(-1 0 0 1 21.8713 61.043)" fill="#0C8AFE"/>
<rect width="0.643275" height="21.8644" transform="matrix(-1 0 0 1 7.71924 66.2607)" fill="#0C8AFE"/>
<rect width="0.643275" height="131.915" transform="matrix(-1 0 0 1 170.468 11.2354)" fill="#0C8AFE"/>
<rect width="0.643275" height="63.0614" transform="matrix(-1 0 0 1 184.62 45.6621)" fill="#0C8AFE"/>
<rect width="0.643275" height="102.54" transform="matrix(-1 0 0 1 156.316 25.9229)" fill="#0C8AFE"/>
<rect width="0.643275" height="86.2348" transform="matrix(-1 0 0 1 149.24 34.0757)" fill="#0C8AFE"/>
<rect width="0.643275" height="42.0373" transform="matrix(-1 0 0 1 128.012 56.1743)" fill="#0C8AFE"/>
<rect width="0.643275" height="7.49116" transform="matrix(-1 0 0 1 212.924 73.4473)" fill="#0C8AFE"/>
<rect width="0.643275" height="9.90185" transform="matrix(-1 0 0 1 220 72.2422)" fill="#00ADEF"/>
<rect width="0.643275" height="27.945" transform="matrix(-1 0 0 1 205.848 63.2207)" fill="#00ADEF"/>
<rect width="0.643275" height="52.7629" transform="matrix(-1 0 0 1 198.772 50.8115)" fill="#00ADEF"/>
<rect width="0.643275" height="13.9997" transform="matrix(-1 0 0 1 120.936 70.1934)" fill="#00ADEF"/>
<rect width="0.643275" height="25.5064" transform="matrix(-1 0 0 1 78.4795 64.4399)" fill="#00ADEF"/>
<rect width="0.643275" height="25.5064" transform="matrix(-1 0 0 1 57.2515 64.4399)" fill="#00ADEF"/>
<rect width="0.643275" height="41.5102" transform="matrix(-1 0 0 1 28.9473 56.438)" fill="#00ADEF"/>
<rect width="0.643275" height="15.6614" transform="matrix(-1 0 0 1 71.4036 69.3623)" fill="#00ADEF"/>
<rect width="0.643275" height="15.6614" transform="matrix(-1 0 0 1 50.1753 69.3623)" fill="#00ADEF"/>
<rect width="0.643275" height="15.6614" transform="matrix(-1 0 0 1 14.7952 69.3623)" fill="#00ADEF"/>
<rect width="0.643275" height="8.08449" transform="matrix(-1 0 0 1 0.643066 73.1509)" fill="#00ADEF"/>
<rect width="0.643275" height="48.3989" transform="matrix(-1 0 0 1 85.5557 52.9937)" fill="#00ADEF"/>
<rect width="0.643275" height="53.3922" transform="matrix(-1 0 0 1 135.088 50.4971)" fill="#00ADEF"/>
<rect width="0.643275" height="97.6121" transform="matrix(-1 0 0 1 177.544 28.3872)" fill="#00ADEF"/>
<rect width="0.643275" height="48.8061" transform="matrix(-1 0 0 1 191.696 52.79)" fill="#00ADEF"/>
<rect width="0.643275" height="77.8086" transform="matrix(-1 0 0 1 142.164 38.2886)" fill="#00ADEF"/>
<rect width="0.643275" height="154.386" transform="matrix(-1 0 0 1 163.392 0)" fill="#1D4EFF"/>
<rect width="0.643275" height="94.9148" transform="matrix(-1 0 0 1 99.7075 29.7358)" fill="#1D4EFF"/>
<rect width="0.643275" height="79.9584" transform="matrix(-1 0 0 1 36.0234 37.2139)" fill="#1D4EFF"/>
</svg>
