<svg width="378" height="87" viewBox="0 0 378 87" fill="none" xmlns="http://www.w3.org/2000/svg">
<path opacity="0.2" d="M18.0594 85.27C10.2194 85.27 3.12605 83.5527 -3.22061 80.118C-9.49261 76.6087 -14.4206 71.83 -18.0046 65.782C-21.5886 59.6594 -23.3806 52.79 -23.3806 45.174C-23.3806 37.558 -21.5886 30.726 -18.0046 24.678C-14.4206 18.5554 -9.45528 13.7767 -3.10861 10.342C3.23805 6.83269 10.3314 5.07802 18.1714 5.07802C24.2941 5.07802 29.8941 6.12336 34.9714 8.21402C40.0487 10.23 44.3794 13.254 47.9634 17.286L40.6834 24.342C34.7847 18.1447 27.4301 15.046 18.6194 15.046C12.7954 15.046 7.53139 16.3527 2.82738 18.966C-1.87661 21.5794 -5.57261 25.2007 -8.26061 29.83C-10.8739 34.3847 -12.1806 39.4994 -12.1806 45.174C-12.1806 50.8487 -10.8739 56.0007 -8.26061 60.63C-5.57261 65.1847 -1.87661 68.7687 2.82738 71.382C7.53139 73.9954 12.7954 75.302 18.6194 75.302C27.3554 75.302 34.7101 72.166 40.6834 65.894L47.9634 72.95C44.3794 76.982 40.0114 80.0434 34.8594 82.134C29.7821 84.2247 24.1821 85.27 18.0594 85.27ZM113.602 25.014V84.374H103.41V75.414C101.244 78.4754 98.3695 80.8647 94.7855 82.582C91.2762 84.2247 87.4308 85.046 83.2495 85.046C75.3348 85.046 69.1002 82.8807 64.5455 78.55C59.9908 74.1447 57.7135 67.686 57.7135 59.174V25.014H68.4655V57.942C68.4655 63.6914 69.8468 68.0594 72.6095 71.046C75.3722 73.958 79.3295 75.414 84.4815 75.414C90.1562 75.414 94.6362 73.6967 97.9215 70.262C101.207 66.8274 102.85 61.974 102.85 55.702V25.014H113.602ZM131.83 1.27002H142.582V84.374H131.83V1.27002ZM195.67 80.902C194.102 82.246 192.16 83.2914 189.846 84.038C187.531 84.71 185.142 85.046 182.678 85.046C176.704 85.046 172.075 83.4407 168.79 80.23C165.504 77.0194 163.862 72.4274 163.862 66.454V33.862H153.782V25.014H163.862V12.022H174.614V25.014H191.638V33.862H174.614V66.006C174.614 69.2167 175.398 71.6807 176.966 73.398C178.608 75.1154 180.923 75.974 183.91 75.974C187.195 75.974 189.995 75.0407 192.31 73.174L195.67 80.902ZM261.757 25.014V84.374H251.565V75.414C249.399 78.4754 246.524 80.8647 242.94 82.582C239.431 84.2247 235.586 85.046 231.405 85.046C223.49 85.046 217.255 82.8807 212.701 78.55C208.146 74.1447 205.868 67.686 205.868 59.174V25.014H216.62V57.942C216.62 63.6914 218.002 68.0594 220.765 71.046C223.527 73.958 227.485 75.414 232.637 75.414C238.311 75.414 242.791 73.6967 246.077 70.262C249.362 66.8274 251.005 61.974 251.005 55.702V25.014H261.757ZM290.289 34.982C292.156 31.5474 294.919 28.934 298.577 27.142C302.236 25.35 306.679 24.454 311.905 24.454V34.87C311.308 34.7954 310.487 34.758 309.441 34.758C303.617 34.758 299.025 36.5127 295.665 40.022C292.38 43.4567 290.737 48.3847 290.737 54.806V84.374H279.985V25.014H290.289V34.982ZM376.018 55.03C376.018 55.8514 375.944 56.934 375.794 58.278H327.634C328.306 63.5047 330.584 67.7234 334.466 70.934C338.424 74.07 343.314 75.638 349.138 75.638C356.232 75.638 361.944 73.2487 366.274 68.47L372.21 75.414C369.522 78.55 366.162 80.9394 362.13 82.582C358.173 84.2247 353.73 85.046 348.802 85.046C342.53 85.046 336.968 83.7767 332.114 81.238C327.261 78.6247 323.49 75.0034 320.802 70.374C318.189 65.7447 316.882 60.518 316.882 54.694C316.882 48.9447 318.152 43.7554 320.69 39.126C323.304 34.4967 326.85 30.9127 331.33 28.374C335.885 25.7607 341 24.454 346.674 24.454C352.349 24.454 357.389 25.7607 361.794 28.374C366.274 30.9127 369.746 34.4967 372.21 39.126C374.749 43.7554 376.018 49.0567 376.018 55.03ZM346.674 33.526C341.522 33.526 337.192 35.094 333.682 38.23C330.248 41.366 328.232 45.4727 327.634 50.55H365.714C365.117 45.5474 363.064 41.478 359.554 38.342C356.12 35.1314 351.826 33.526 346.674 33.526Z" stroke="#0066B3" stroke-width="2"/>
</svg>
