<svg width="100%" height="100%" viewBox="0 0 202 126" fill="none" xmlns="http://www.w3.org/2000/svg">
<path d="M124.912 1H1V124.912H124.912" stroke="#0085FF" stroke-miterlimit="10" stroke-linecap="round" stroke-linejoin="round"/>
<path d="M124.912 1H201.442V77.5299" stroke="#00B9FF" stroke-miterlimit="10" stroke-linecap="round" stroke-linejoin="round"/>
<path d="M201.443 77.53H154.06V124.913H201.443V77.53Z" stroke="#00B9FF" stroke-miterlimit="10" stroke-linecap="round" stroke-linejoin="round"/>
<path d="M124.912 95.7361H154.06V124.883H124.912" stroke="#00B9FF" stroke-miterlimit="10" stroke-linecap="round" stroke-linejoin="round"/>
<path d="M124.912 77.53H143.089V95.7362H124.912" stroke="#00B9FF" stroke-miterlimit="10" stroke-linecap="round" stroke-linejoin="round"/>
<path d="M154.06 77.53H143.089V88.5004H154.06V77.53Z" stroke="#00B9FF" stroke-miterlimit="10" stroke-linecap="round" stroke-linejoin="round"/>
<path d="M154.089 88.5002H146.824V95.736H154.089V88.5002Z" stroke="#00B9FF" stroke-miterlimit="10" stroke-linecap="round" stroke-linejoin="round"/>
<path d="M146.795 92.0305H143.089V95.7359H146.795V92.0305Z" stroke="#00B9FF" stroke-miterlimit="10" stroke-linecap="round" stroke-linejoin="round"/>
<path d="M1.14575 125C1.14575 56.4645 56.6102 1 125.146 1H124.854C167.101 1 201.296 35.1948 201.296 77.4424C201.296 103.73 180.027 125 153.739 125H154.03C137.896 125 124.854 111.958 124.854 95.8235C124.854 85.6701 133.082 77.4424 143.235 77.4424H142.943C149.07 77.4424 154.03 82.4024 154.03 88.5294C154.03 92.5558 150.763 95.8235 146.736 95.8235C144.811 95.8235 143.235 94.1313 143.235 92.0306" stroke="#1D4EFF" stroke-miterlimit="10" stroke-linecap="round" stroke-linejoin="round"/>
<path d="M1.14575 125C1.14575 56.5293 56.5054 1.10488 124.951 1.00015L124.854 1" stroke="#0085FF" stroke-miterlimit="10" stroke-linecap="round" stroke-linejoin="round"/>
<path d="M124.912 1L124.675 77.5542C124.587 105.693 124.54 120.831 124.528 124.883" stroke="#0085FF"/>
</svg>
