<svg viewBox="0 0 300 403" fill="none" xmlns="http://www.w3.org/2000/svg"><rect width="300" height="402.5" rx="3" fill="#fff"/><rect x="172.358" y="94.525" width="5.691" height="5" rx="2.5" fill="#fff"/><path d="M49.688 260.914c-.242 0-.387-.126-.434-.378l-1.806-8.988a.792.792 0 01-.014-.154c0-.075.028-.14.084-.196a.269.269 0 01.196-.084h.728c.196 0 .308.079.336.238l1.428 7.224 1.512-4.956c.084-.224.233-.336.448-.336h.518c.122 0 .215.032.28.098a.498.498 0 01.154.238l1.526 4.956 1.414-7.224c.028-.159.145-.238.35-.238h.728c.075 0 .14.028.196.084a.268.268 0 01.084.196l-.014.154-1.806 8.988c-.056.252-.2.378-.434.378h-.546c-.242 0-.397-.117-.462-.35l-1.736-5.334-1.722 5.334c-.075.233-.228.35-.462.35h-.546zm11.988.14c-.961 0-1.731-.294-2.31-.882-.569-.598-.882-1.41-.938-2.436l-.014-.476.014-.462c.066-1.008.383-1.811.952-2.408.579-.598 1.34-.896 2.282-.896 1.036 0 1.839.331 2.408.994.57.653.854 1.54.854 2.66v.238a.326.326 0 01-.098.238.303.303 0 01-.224.084h-4.844v.126c.028.606.21 1.124.546 1.554.346.42.798.63 1.358.63.43 0 .78-.084 1.05-.252.28-.178.486-.36.616-.546.084-.112.145-.178.182-.196a.491.491 0 01.238-.042h.686c.084 0 .154.023.21.07a.24.24 0 01.084.196c0 .205-.13.452-.392.742-.252.289-.611.541-1.078.756-.457.205-.984.308-1.582.308zm1.918-4.312v-.042c0-.644-.177-1.167-.532-1.568-.345-.411-.812-.616-1.4-.616-.588 0-1.054.205-1.4.616-.336.401-.504.924-.504 1.568v.042h3.836zm6.772 4.172a.353.353 0 01-.238-.084.355.355 0 01-.084-.238v-9.296c0-.094.028-.168.084-.224a.322.322 0 01.238-.098h.7c.093 0 .168.032.224.098a.28.28 0 01.098.224v3.262a2.7 2.7 0 01.952-.784c.364-.187.817-.28 1.358-.28.896 0 1.591.289 2.086.868.504.569.756 1.33.756 2.282v3.948a.325.325 0 01-.098.238.303.303 0 01-.224.084h-.7a.353.353 0 01-.238-.084.355.355 0 01-.084-.238v-3.878c0-.663-.163-1.176-.49-1.54-.317-.364-.78-.546-1.386-.546-.588 0-1.06.186-1.414.56-.345.364-.518.872-.518 1.526v3.878a.325.325 0 01-.098.238.303.303 0 01-.224.084h-.7zm11.107.14c-.961 0-1.731-.294-2.31-.882-.57-.598-.882-1.41-.938-2.436l-.014-.476.014-.462c.066-1.008.383-1.811.952-2.408.579-.598 1.34-.896 2.282-.896 1.036 0 1.839.331 2.408.994.57.653.854 1.54.854 2.66v.238a.326.326 0 01-.098.238.303.303 0 01-.224.084h-4.844v.126c.028.606.21 1.124.546 1.554.346.42.798.63 1.358.63.43 0 .78-.084 1.05-.252.28-.178.486-.36.616-.546.084-.112.145-.178.182-.196a.49.49 0 01.238-.042h.686c.084 0 .154.023.21.07a.24.24 0 01.084.196c0 .205-.13.452-.392.742-.252.289-.611.541-1.078.756-.457.205-.985.308-1.582.308zm1.918-4.312v-.042c0-.644-.177-1.167-.532-1.568-.345-.411-.812-.616-1.4-.616-.588 0-1.055.205-1.4.616-.336.401-.504.924-.504 1.568v.042h3.836zm3.34 4.172a.353.353 0 01-.238-.084.355.355 0 01-.084-.238v-9.296c0-.094.028-.168.084-.224a.321.321 0 01.238-.098h.658c.094 0 .168.032.224.098a.28.28 0 01.098.224v9.296a.326.326 0 01-.098.238.303.303 0 01-.224.084h-.658zm3.404 2.66a.325.325 0 01-.238-.098.303.303 0 01-.084-.224v-9.296c0-.094.028-.168.084-.224a.321.321 0 01.238-.098h.644a.28.28 0 01.225.098.28.28 0 01.097.224v.616c.523-.719 1.288-1.078 2.296-1.078.98 0 1.713.308 2.198.924.495.616.761 1.409.799 2.38.009.102.013.261.013.476 0 .214-.004.373-.013.476-.038.961-.304 1.754-.799 2.38-.494.616-1.227.924-2.198.924-.97 0-1.726-.35-2.268-1.05v3.248a.303.303 0 01-.084.224.281.281 0 01-.224.098h-.686zm2.968-3.654c.663 0 1.144-.206 1.443-.616.307-.411.475-.952.503-1.624.01-.094.014-.229.014-.406 0-1.764-.653-2.646-1.96-2.646-.643 0-1.129.214-1.456.644-.317.42-.49.924-.518 1.512l-.014.532.014.546c.02.55.197 1.031.532 1.442.337.41.817.616 1.442.616zm9.359 3.654a.268.268 0 01-.196-.084.27.27 0 01-.084-.196c0-.066.023-.15.07-.252l1.078-2.562-2.674-6.314a.897.897 0 01-.07-.238.285.285 0 01.294-.294h.686c.149 0 .261.079.336.238l2.128 5.096 2.184-5.096c.075-.159.191-.238.35-.238h.658c.084 0 .154.028.21.084a.268.268 0 01.084.196c0 .028-.023.112-.07.252l-3.976 9.17c-.075.158-.191.238-.35.238h-.658zm9.187-2.52c-1.027 0-1.825-.29-2.394-.868-.56-.579-.859-1.349-.896-2.31l-.014-.602.014-.602c.037-.952.34-1.718.91-2.296.569-.588 1.362-.882 2.38-.882 1.017 0 1.81.294 2.38.882.569.578.872 1.344.91 2.296.009.102.014.303.014.602 0 .298-.005.499-.014.602-.038.961-.341 1.731-.91 2.31-.56.578-1.354.868-2.38.868zm0-1.078c.588 0 1.05-.187 1.386-.56.345-.374.532-.91.56-1.61.009-.094.014-.271.014-.532 0-.262-.005-.439-.014-.532-.028-.7-.215-1.237-.56-1.61-.336-.374-.798-.56-1.386-.56-.588 0-1.055.186-1.4.56-.346.373-.528.91-.546 1.61l-.014.532.014.532c.018.7.2 1.236.546 1.61.345.373.812.56 1.4.56zm7.773 1.078c-.887 0-1.573-.285-2.058-.854-.486-.579-.728-1.344-.728-2.296v-3.948c0-.094.028-.168.084-.224a.32.32 0 01.238-.098h.7c.093 0 .168.032.224.098a.28.28 0 01.098.224v3.878c0 1.39.606 2.086 1.82 2.086.588 0 1.054-.182 1.4-.546.345-.374.518-.887.518-1.54v-3.878c0-.094.028-.168.084-.224a.32.32 0 01.238-.098h.7c.093 0 .168.032.224.098.056.056.084.13.084.224v6.636a.355.355 0 01-.084.238.303.303 0 01-.224.084h-.658a.351.351 0 01-.238-.084.355.355 0 01-.084-.238v-.616a2.658 2.658 0 01-.952.812c-.374.177-.836.266-1.386.266zm9.927-.14a.355.355 0 01-.238-.084.355.355 0 01-.084-.238v-5.838h-1.19a.355.355 0 01-.238-.084.355.355 0 01-.084-.238v-.476c0-.094.028-.168.084-.224a.323.323 0 01.238-.098h1.19v-.7c0-1.587.803-2.38 2.408-2.38h.84c.094 0 .168.032.224.098.066.056.098.13.098.224v.476a.323.323 0 01-.098.238.302.302 0 01-.224.084h-.812c-.42 0-.714.112-.882.336-.168.214-.252.546-.252.994v.63h1.806c.094 0 .168.032.224.098.066.056.098.13.098.224v.476a.323.323 0 01-.098.238.302.302 0 01-.224.084h-1.806v5.838a.323.323 0 01-.098.238.302.302 0 01-.224.084h-.658zm6.271.14c-.457 0-.882-.094-1.274-.28a2.45 2.45 0 01-.938-.756 1.866 1.866 0 01-.336-1.078c0-.616.252-1.12.756-1.512.514-.402 1.204-.663 2.072-.784l2.086-.294v-.406c0-.952-.546-1.428-1.638-1.428-.41 0-.746.088-1.008.266a1.72 1.72 0 00-.588.602.382.382 0 01-.112.182c-.037.037-.093.056-.168.056h-.602a.336.336 0 01-.224-.084.336.336 0 01-.084-.224c.01-.224.112-.476.308-.756.206-.29.518-.537.938-.742.42-.215.938-.322 1.554-.322 1.046 0 1.797.247 2.254.742.458.485.686 1.092.686 1.82v4.536a.323.323 0 01-.098.238.302.302 0 01-.224.084h-.644a.355.355 0 01-.238-.084.355.355 0 01-.084-.238v-.602c-.205.298-.504.55-.896.756-.392.205-.891.308-1.498.308zm.294-1.05c.607 0 1.102-.196 1.484-.588.392-.402.588-.976.588-1.722v-.392l-1.624.238c-.662.093-1.162.252-1.498.476-.336.214-.504.49-.504.826 0 .373.154.662.462.868.308.196.672.294 1.092.294zm8.341 1.05c-.999 0-1.783-.28-2.352-.84-.56-.57-.859-1.363-.896-2.38l-.014-.56.014-.56c.037-1.018.336-1.806.896-2.366.569-.57 1.353-.854 2.352-.854.672 0 1.241.121 1.708.364.467.242.812.541 1.036.896.233.354.359.709.378 1.064a.247.247 0 01-.084.224.353.353 0 01-.238.084h-.672c-.093 0-.163-.019-.21-.056a.582.582 0 01-.14-.224c-.159-.448-.383-.766-.672-.952-.289-.196-.653-.294-1.092-.294-.579 0-1.041.182-1.386.546-.336.354-.518.9-.546 1.638l-.014.504.014.476c.028.746.21 1.297.546 1.652.336.354.798.532 1.386.532.439 0 .803-.094 1.092-.28.289-.196.513-.518.672-.966a.574.574 0 01.14-.224c.047-.047.117-.07.21-.07h.672c.093 0 .173.032.238.098.065.056.093.13.084.224-.019.345-.145.7-.378 1.064-.224.354-.569.653-1.036.896-.457.242-1.027.364-1.708.364zm4.995-8.778a.351.351 0 01-.238-.084.355.355 0 01-.084-.238v-.756c0-.094.028-.173.084-.238a.32.32 0 01.238-.098h.882c.093 0 .172.032.238.098a.324.324 0 01.098.238v.756a.327.327 0 01-.098.238.355.355 0 01-.238.084h-.882zm.112 8.638a.351.351 0 01-.238-.084.355.355 0 01-.084-.238v-6.636c0-.094.028-.168.084-.224a.32.32 0 01.238-.098h.672c.093 0 .168.032.224.098a.28.28 0 01.098.224v6.636a.327.327 0 01-.098.238.303.303 0 01-.224.084h-.672zm3.404 0a.355.355 0 01-.238-.084.355.355 0 01-.084-.238v-9.296c0-.094.028-.168.084-.224a.323.323 0 01.238-.098h.658c.094 0 .168.032.224.098.066.056.098.13.098.224v9.296a.323.323 0 01-.098.238.302.302 0 01-.224.084h-.658zm3.279-8.638a.351.351 0 01-.238-.084.355.355 0 01-.084-.238v-.756c0-.094.028-.173.084-.238a.32.32 0 01.238-.098h.882c.093 0 .172.032.238.098a.324.324 0 01.098.238v.756a.327.327 0 01-.098.238.355.355 0 01-.238.084h-.882zm.112 8.638a.351.351 0 01-.238-.084.355.355 0 01-.084-.238v-6.636c0-.094.028-.168.084-.224a.32.32 0 01.238-.098h.672c.093 0 .168.032.224.098a.28.28 0 01.098.224v6.636a.327.327 0 01-.098.238.303.303 0 01-.224.084h-.672zm5.91 0c-1.474 0-2.212-.822-2.212-2.464v-3.696h-1.092a.355.355 0 01-.238-.084.355.355 0 01-.084-.238v-.476c0-.094.028-.168.084-.224a.323.323 0 01.238-.098h1.092v-2.338c0-.094.028-.168.084-.224a.323.323 0 01.238-.098h.658c.094 0 .168.032.224.098.066.056.098.13.098.224v2.338h1.736c.094 0 .168.032.224.098.066.056.098.13.098.224v.476a.323.323 0 01-.098.238.302.302 0 01-.224.084h-1.736v3.598c0 .466.08.821.238 1.064.159.233.42.35.784.35h.854c.094 0 .168.032.224.098.066.056.098.13.098.224v.504a.323.323 0 01-.098.238.302.302 0 01-.224.084h-.966zm4.657.14c-.457 0-.882-.094-1.274-.28a2.443 2.443 0 01-.938-.756 1.866 1.866 0 01-.336-1.078c0-.616.252-1.12.756-1.512.513-.402 1.204-.663 2.072-.784l2.086-.294v-.406c0-.952-.546-1.428-1.638-1.428-.411 0-.747.088-1.008.266a1.72 1.72 0 00-.588.602.382.382 0 01-.112.182c-.037.037-.093.056-.168.056h-.602a.334.334 0 01-.224-.084.336.336 0 01-.084-.224c.009-.224.112-.476.308-.756.205-.29.518-.537.938-.742.42-.215.938-.322 1.554-.322 1.045 0 1.797.247 2.254.742.457.485.686 1.092.686 1.82v4.536a.327.327 0 01-.098.238.303.303 0 01-.224.084h-.644a.353.353 0 01-.238-.084.355.355 0 01-.084-.238v-.602c-.205.298-.504.55-.896.756-.392.205-.891.308-1.498.308zm.294-1.05c.607 0 1.101-.196 1.484-.588.392-.402.588-.976.588-1.722v-.392l-1.624.238c-.663.093-1.162.252-1.498.476-.336.214-.504.49-.504.826 0 .373.154.662.462.868.308.196.672.294 1.092.294zm8.174.91c-1.474 0-2.212-.822-2.212-2.464v-3.696h-1.092a.355.355 0 01-.238-.084.355.355 0 01-.084-.238v-.476c0-.094.028-.168.084-.224a.323.323 0 01.238-.098h1.092v-2.338c0-.094.028-.168.084-.224a.323.323 0 01.238-.098h.658c.094 0 .168.032.224.098.066.056.098.13.098.224v2.338h1.736c.094 0 .168.032.224.098.066.056.098.13.098.224v.476a.323.323 0 01-.098.238.302.302 0 01-.224.084h-1.736v3.598c0 .466.08.821.238 1.064.159.233.42.35.784.35h.854c.094 0 .168.032.224.098.066.056.098.13.098.224v.504a.323.323 0 01-.098.238.302.302 0 01-.224.084h-.966zm5.539.14c-.961 0-1.731-.294-2.31-.882-.569-.598-.882-1.41-.938-2.436l-.014-.476.014-.462c.065-1.008.383-1.811.952-2.408.579-.598 1.339-.896 2.282-.896 1.036 0 1.839.331 2.408.994.569.653.854 1.54.854 2.66v.238a.327.327 0 01-.098.238.303.303 0 01-.224.084h-4.844v.126c.028.606.21 1.124.546 1.554.345.42.798.63 1.358.63.429 0 .779-.084 1.05-.252.28-.178.485-.36.616-.546.084-.112.145-.178.182-.196a.492.492 0 01.238-.042h.686c.084 0 .154.023.21.07a.24.24 0 01.084.196c0 .205-.131.452-.392.742-.252.289-.611.541-1.078.756-.457.205-.985.308-1.582.308zm1.918-4.312v-.042c0-.644-.177-1.167-.532-1.568-.345-.411-.812-.616-1.4-.616-.588 0-1.055.205-1.4.616-.336.401-.504.924-.504 1.568v.042h3.836zm8.039 4.172a.42.42 0 01-.28-.084.663.663 0 01-.168-.266l-1.988-6.496-.028-.14c0-.084.028-.154.084-.21a.32.32 0 01.21-.084h.616c.094 0 .168.028.224.084a.31.31 0 01.126.154l1.554 5.278 1.666-5.222a.378.378 0 01.126-.196.358.358 0 01.266-.098h.476c.112 0 .201.032.266.098a.366.366 0 01.126.196l1.666 5.222 1.554-5.278a.328.328 0 01.098-.154.355.355 0 01.238-.084h.63c.075 0 .14.028.196.084a.285.285 0 01.084.21l-.028.14-1.974 6.496a.642.642 0 01-.168.266c-.065.056-.163.084-.294.084h-.546c-.252 0-.406-.117-.462-.35l-1.624-5.012-1.624 5.012c-.074.233-.233.35-.476.35h-.546zm9.503-8.638a.353.353 0 01-.238-.084.355.355 0 01-.084-.238v-.756c0-.094.028-.173.084-.238a.321.321 0 01.238-.098h.882c.093 0 .173.032.238.098a.324.324 0 01.098.238v.756a.327.327 0 01-.098.238.353.353 0 01-.238.084h-.882zm.112 8.638a.353.353 0 01-.238-.084.355.355 0 01-.084-.238v-6.636c0-.094.028-.168.084-.224a.321.321 0 01.238-.098h.672c.093 0 .168.032.224.098a.28.28 0 01.098.224v6.636a.327.327 0 01-.098.238.303.303 0 01-.224.084h-.672zm5.911 0c-1.475 0-2.212-.822-2.212-2.464v-3.696h-1.092a.351.351 0 01-.238-.084.355.355 0 01-.084-.238v-.476c0-.094.028-.168.084-.224a.32.32 0 01.238-.098h1.092v-2.338c0-.094.028-.168.084-.224a.32.32 0 01.238-.098h.658c.093 0 .168.032.224.098a.28.28 0 01.098.224v2.338h1.736c.093 0 .168.032.224.098a.28.28 0 01.098.224v.476a.327.327 0 01-.098.238.303.303 0 01-.224.084h-1.736v3.598c0 .466.079.821.238 1.064.158.233.42.35.784.35h.854c.093 0 .168.032.224.098a.28.28 0 01.098.224v.504a.327.327 0 01-.098.238.303.303 0 01-.224.084h-.966zm2.962 0a.355.355 0 01-.238-.084.355.355 0 01-.084-.238v-9.296c0-.094.028-.168.084-.224a.323.323 0 01.238-.098h.7c.094 0 .168.032.224.098.066.056.098.13.098.224v3.262c.271-.346.588-.607.952-.784.364-.187.817-.28 1.358-.28.896 0 1.592.289 2.086.868.504.569.756 1.33.756 2.282v3.948a.323.323 0 01-.098.238.302.302 0 01-.224.084h-.7a.355.355 0 01-.238-.084.355.355 0 01-.084-.238v-3.878c0-.663-.163-1.176-.49-1.54-.317-.364-.779-.546-1.386-.546-.588 0-1.059.186-1.414.56-.345.364-.518.872-.518 1.526v3.878a.323.323 0 01-.098.238.302.302 0 01-.224.084h-.7zm8.406-8.638a.351.351 0 01-.238-.084.355.355 0 01-.084-.238v-.756c0-.094.028-.173.084-.238a.32.32 0 01.238-.098h.882c.093 0 .172.032.238.098a.324.324 0 01.098.238v.756a.327.327 0 01-.098.238.355.355 0 01-.238.084h-.882zm.112 8.638a.351.351 0 01-.238-.084.355.355 0 01-.084-.238v-6.636c0-.094.028-.168.084-.224a.32.32 0 01.238-.098h.672c.093 0 .168.032.224.098a.28.28 0 01.098.224v6.636a.327.327 0 01-.098.238.303.303 0 01-.224.084h-.672zm3.39 0a.355.355 0 01-.238-.084.355.355 0 01-.084-.238v-6.636c0-.094.028-.168.084-.224a.323.323 0 01.238-.098h.658c.094 0 .168.032.224.098.066.056.098.13.098.224v.616c.271-.346.588-.612.952-.798.374-.187.836-.28 1.386-.28.896 0 1.592.289 2.086.868.504.569.756 1.33.756 2.282v3.948a.323.323 0 01-.098.238.302.302 0 01-.224.084h-.7a.355.355 0 01-.238-.084.355.355 0 01-.084-.238v-3.878c0-.663-.163-1.176-.49-1.54-.317-.364-.779-.546-1.386-.546-.588 0-1.054.186-1.4.56-.345.364-.518.872-.518 1.526v3.878a.323.323 0 01-.098.238.302.302 0 01-.224.084h-.7zm14.141 0c-1.474 0-2.212-.822-2.212-2.464v-3.696h-1.092a.355.355 0 01-.238-.084.355.355 0 01-.084-.238v-.476c0-.094.028-.168.084-.224a.323.323 0 01.238-.098h1.092v-2.338c0-.094.028-.168.084-.224a.323.323 0 01.238-.098h.658c.094 0 .168.032.224.098.066.056.098.13.098.224v2.338h1.736c.094 0 .168.032.224.098.066.056.098.13.098.224v.476a.323.323 0 01-.098.238.302.302 0 01-.224.084h-1.736v3.598c0 .466.08.821.238 1.064.159.233.42.35.784.35h.854c.094 0 .168.032.224.098.066.056.098.13.098.224v.504a.323.323 0 01-.098.238.302.302 0 01-.224.084h-.966zm2.963 0a.355.355 0 01-.238-.084.355.355 0 01-.084-.238v-9.296c0-.094.028-.168.084-.224a.323.323 0 01.238-.098h.7c.094 0 .168.032.224.098.066.056.098.13.098.224v3.262c.271-.346.588-.607.952-.784.364-.187.817-.28 1.358-.28.896 0 1.592.289 2.086.868.504.569.756 1.33.756 2.282v3.948a.323.323 0 01-.098.238.302.302 0 01-.224.084h-.7a.355.355 0 01-.238-.084.355.355 0 01-.084-.238v-3.878c0-.663-.163-1.176-.49-1.54-.317-.364-.779-.546-1.386-.546-.588 0-1.059.186-1.414.56-.345.364-.518.872-.518 1.526v3.878a.323.323 0 01-.098.238.302.302 0 01-.224.084h-.7zm11.107.14c-.961 0-1.731-.294-2.31-.882-.569-.598-.882-1.41-.938-2.436l-.014-.476.014-.462c.066-1.008.383-1.811.952-2.408.579-.598 1.34-.896 2.282-.896 1.036 0 1.839.331 2.408.994.57.653.854 1.54.854 2.66v.238a.323.323 0 01-.098.238.302.302 0 01-.224.084h-4.844v.126c.028.606.21 1.124.546 1.554.346.42.798.63 1.358.63.43 0 .78-.084 1.05-.252.28-.178.486-.36.616-.546.084-.112.145-.178.182-.196a.492.492 0 01.238-.042h.686c.084 0 .154.023.21.07a.24.24 0 01.084.196c0 .205-.13.452-.392.742-.252.289-.611.541-1.078.756-.457.205-.984.308-1.582.308zm1.918-4.312v-.042c0-.644-.177-1.167-.532-1.568-.345-.411-.812-.616-1.4-.616-.588 0-1.054.205-1.4.616-.336.401-.504.924-.504 1.568v.042h3.836zM69.854 285.054c-1.027 0-1.825-.29-2.394-.868-.56-.579-.859-1.349-.896-2.31l-.014-.602.014-.602c.037-.952.34-1.718.91-2.296.57-.588 1.362-.882 2.38-.882 1.017 0 1.81.294 2.38.882.57.578.872 1.344.91 2.296.01.102.014.303.014.602 0 .298-.005.499-.014.602-.038.961-.34 1.731-.91 2.31-.56.578-1.354.868-2.38.868zm0-1.078c.588 0 1.05-.187 1.386-.56.345-.374.532-.91.56-1.61.01-.094.014-.271.014-.532 0-.262-.005-.439-.014-.532-.028-.7-.215-1.237-.56-1.61-.336-.374-.798-.56-1.386-.56-.588 0-1.055.186-1.4.56-.346.373-.528.91-.546 1.61l-.014.532.014.532c.018.7.2 1.236.546 1.61.345.373.812.56 1.4.56zm5.379.938a.353.353 0 01-.238-.084.355.355 0 01-.084-.238v-6.622c0-.094.028-.173.084-.238a.321.321 0 01.238-.098h.644c.093 0 .172.032.238.098a.323.323 0 01.098.238v.616c.383-.635 1.036-.952 1.96-.952h.546c.093 0 .168.032.224.098a.28.28 0 01.098.224v.574a.28.28 0 01-.098.224.303.303 0 01-.224.084h-.84c-.504 0-.9.149-1.19.448-.29.289-.434.686-.434 1.19v4.116a.326.326 0 01-.098.238.353.353 0 01-.238.084h-.686zm7.827 3.08c-.765 0-1.38-.131-1.847-.392-.467-.252-.798-.542-.994-.868-.196-.327-.304-.621-.322-.882a.28.28 0 01.084-.238.353.353 0 01.238-.098h.672c.084 0 .154.018.21.056a.515.515 0 01.14.238c.112.298.294.555.546.77.261.224.662.336 1.204.336.69 0 1.2-.15 1.526-.448.326-.29.49-.808.49-1.554v-.952a2.69 2.69 0 01-.924.742c-.374.177-.817.266-1.33.266-.99 0-1.732-.313-2.226-.938-.486-.635-.742-1.438-.77-2.408l-.014-.392.014-.378c.028-.962.29-1.76.784-2.394.494-.644 1.232-.966 2.212-.966.98 0 1.745.359 2.296 1.078v-.602c0-.094.028-.173.084-.238a.321.321 0 01.238-.098h.644c.093 0 .172.032.238.098a.323.323 0 01.098.238v6.79c0 2.156-1.097 3.234-3.29 3.234zm-.027-4.144c.634 0 1.115-.21 1.442-.63.326-.42.504-.92.532-1.498.01-.084.014-.248.014-.49 0-.234-.005-.392-.014-.476-.028-.579-.206-1.078-.532-1.498-.318-.42-.798-.63-1.442-.63-.663 0-1.144.205-1.442.616-.299.41-.462.952-.49 1.624l-.014.364.014.378c.028.662.191 1.204.49 1.624.298.41.78.616 1.442.616zm7.429 1.204c-.457 0-.882-.094-1.274-.28a2.445 2.445 0 01-.938-.756 1.866 1.866 0 01-.336-1.078c0-.616.252-1.12.756-1.512.514-.402 1.204-.663 2.072-.784l2.086-.294v-.406c0-.952-.546-1.428-1.638-1.428-.41 0-.746.088-1.008.266a1.713 1.713 0 00-.588.602.385.385 0 01-.112.182c-.037.037-.093.056-.168.056h-.602a.334.334 0 01-.224-.084.336.336 0 01-.084-.224c.01-.224.112-.476.308-.756.206-.29.518-.537.938-.742.42-.215.938-.322 1.554-.322 1.046 0 1.797.247 2.254.742.458.485.686 1.092.686 1.82v4.536a.326.326 0 01-.098.238.303.303 0 01-.224.084h-.644a.353.353 0 01-.238-.084.355.355 0 01-.084-.238v-.602c-.205.298-.504.55-.896.756-.392.205-.891.308-1.498.308zm.294-1.05c.607 0 1.102-.196 1.484-.588.392-.402.588-.976.588-1.722v-.392l-1.624.238c-.662.093-1.162.252-1.498.476-.336.214-.504.49-.504.826 0 .373.154.662.462.868.308.196.672.294 1.092.294zm5.723.91a.353.353 0 01-.238-.084.355.355 0 01-.084-.238v-6.636c0-.094.028-.168.084-.224a.321.321 0 01.238-.098h.658c.093 0 .168.032.224.098a.28.28 0 01.098.224v.616a2.85 2.85 0 01.952-.798c.373-.187.835-.28 1.386-.28.896 0 1.591.289 2.086.868.504.569.756 1.33.756 2.282v3.948a.327.327 0 01-.098.238.303.303 0 01-.224.084h-.7a.353.353 0 01-.238-.084.355.355 0 01-.084-.238v-3.878c0-.663-.163-1.176-.49-1.54-.317-.364-.779-.546-1.386-.546-.588 0-1.055.186-1.4.56-.346.364-.518.872-.518 1.526v3.878a.326.326 0 01-.098.238.303.303 0 01-.224.084h-.7zm8.378-8.638a.353.353 0 01-.238-.084.355.355 0 01-.084-.238v-.756c0-.094.028-.173.084-.238a.321.321 0 01.238-.098h.882c.093 0 .173.032.238.098a.324.324 0 01.098.238v.756a.327.327 0 01-.098.238.353.353 0 01-.238.084h-.882zm.112 8.638a.353.353 0 01-.238-.084.355.355 0 01-.084-.238v-6.636c0-.094.028-.168.084-.224a.321.321 0 01.238-.098h.672c.093 0 .168.032.224.098a.28.28 0 01.098.224v6.636a.327.327 0 01-.098.238.303.303 0 01-.224.084h-.672zm5.589.14c-.654 0-1.204-.103-1.652-.308-.439-.215-.77-.458-.994-.728-.215-.271-.322-.495-.322-.672 0-.094.032-.164.098-.21a.37.37 0 01.224-.084h.63c.093 0 .177.046.252.14.224.261.466.466.728.616.261.149.611.224 1.05.224.485 0 .877-.094 1.176-.28.308-.196.462-.462.462-.798a.771.771 0 00-.196-.546c-.122-.15-.336-.276-.644-.378-.299-.112-.747-.234-1.344-.364-.812-.178-1.391-.434-1.736-.77-.336-.336-.504-.77-.504-1.302 0-.355.102-.691.308-1.008.214-.327.522-.588.924-.784.41-.206.9-.308 1.47-.308.597 0 1.106.098 1.526.294.42.196.732.429.938.7.214.261.322.48.322.658a.266.266 0 01-.098.21.285.285 0 01-.21.084h-.588a.345.345 0 01-.28-.14 3.31 3.31 0 00-.392-.406 1.247 1.247 0 00-.462-.266c-.196-.075-.448-.112-.756-.112-.448 0-.794.098-1.036.294a.888.888 0 00-.364.742c0 .196.051.364.154.504.102.13.298.252.588.364.298.112.728.228 1.288.35.886.186 1.512.457 1.876.812.373.345.56.788.56 1.33 0 .401-.117.765-.35 1.092-.234.326-.579.583-1.036.77-.448.186-.985.28-1.61.28zm6.646 0c-.457 0-.882-.094-1.274-.28a2.45 2.45 0 01-.938-.756 1.866 1.866 0 01-.336-1.078c0-.616.252-1.12.756-1.512.514-.402 1.204-.663 2.072-.784l2.086-.294v-.406c0-.952-.546-1.428-1.638-1.428-.41 0-.746.088-1.008.266a1.72 1.72 0 00-.588.602.382.382 0 01-.112.182c-.037.037-.093.056-.168.056h-.602a.336.336 0 01-.224-.084.336.336 0 01-.084-.224c.01-.224.112-.476.308-.756.206-.29.518-.537.938-.742.42-.215.938-.322 1.554-.322 1.046 0 1.797.247 2.254.742.458.485.686 1.092.686 1.82v4.536a.323.323 0 01-.098.238.302.302 0 01-.224.084h-.644a.355.355 0 01-.238-.084.355.355 0 01-.084-.238v-.602c-.205.298-.504.55-.896.756-.392.205-.891.308-1.498.308zm.294-1.05c.607 0 1.102-.196 1.484-.588.392-.402.588-.976.588-1.722v-.392l-1.624.238c-.662.093-1.162.252-1.498.476-.336.214-.504.49-.504.826 0 .373.154.662.462.868.308.196.672.294 1.092.294zm8.175.91c-1.475 0-2.212-.822-2.212-2.464v-3.696h-1.092a.351.351 0 01-.238-.084.355.355 0 01-.084-.238v-.476c0-.094.028-.168.084-.224a.32.32 0 01.238-.098h1.092v-2.338c0-.094.028-.168.084-.224a.32.32 0 01.238-.098h.658c.093 0 .168.032.224.098a.28.28 0 01.098.224v2.338h1.736c.093 0 .168.032.224.098a.28.28 0 01.098.224v.476a.327.327 0 01-.098.238.303.303 0 01-.224.084h-1.736v3.598c0 .466.079.821.238 1.064.158.233.42.35.784.35h.854c.093 0 .168.032.224.098a.28.28 0 01.098.224v.504a.327.327 0 01-.098.238.303.303 0 01-.224.084h-.966zm2.836-8.638a.355.355 0 01-.238-.084.355.355 0 01-.084-.238v-.756c0-.094.028-.173.084-.238a.323.323 0 01.238-.098h.882a.32.32 0 01.238.098.32.32 0 01.098.238v.756a.323.323 0 01-.098.238.351.351 0 01-.238.084h-.882zm.112 8.638a.355.355 0 01-.238-.084.355.355 0 01-.084-.238v-6.636c0-.094.028-.168.084-.224a.323.323 0 01.238-.098h.672c.094 0 .168.032.224.098.066.056.098.13.098.224v6.636a.323.323 0 01-.098.238.302.302 0 01-.224.084h-.672zm6.051.14c-1.027 0-1.825-.29-2.394-.868-.56-.579-.859-1.349-.896-2.31l-.014-.602.014-.602c.037-.952.341-1.718.91-2.296.569-.588 1.363-.882 2.38-.882s1.811.294 2.38.882c.569.578.873 1.344.91 2.296.009.102.014.303.014.602 0 .298-.005.499-.014.602-.037.961-.341 1.731-.91 2.31-.56.578-1.353.868-2.38.868zm0-1.078c.588 0 1.05-.187 1.386-.56.345-.374.532-.91.56-1.61.009-.094.014-.271.014-.532 0-.262-.005-.439-.014-.532-.028-.7-.215-1.237-.56-1.61-.336-.374-.798-.56-1.386-.56-.588 0-1.055.186-1.4.56-.345.373-.527.91-.546 1.61l-.014.532.014.532c.019.7.201 1.236.546 1.61.345.373.812.56 1.4.56zm5.379.938a.353.353 0 01-.238-.084.355.355 0 01-.084-.238v-6.636c0-.094.028-.168.084-.224a.321.321 0 01.238-.098h.658c.093 0 .168.032.224.098a.28.28 0 01.098.224v.616c.271-.346.588-.612.952-.798.373-.187.835-.28 1.386-.28.896 0 1.591.289 2.086.868.504.569.756 1.33.756 2.282v3.948a.327.327 0 01-.098.238.303.303 0 01-.224.084h-.7a.353.353 0 01-.238-.084.355.355 0 01-.084-.238v-3.878c0-.663-.163-1.176-.49-1.54-.317-.364-.779-.546-1.386-.546-.588 0-1.055.186-1.4.56-.345.364-.518.872-.518 1.526v3.878a.327.327 0 01-.098.238.303.303 0 01-.224.084h-.7zm13.63.14c-.457 0-.882-.094-1.274-.28a2.443 2.443 0 01-.938-.756 1.866 1.866 0 01-.336-1.078c0-.616.252-1.12.756-1.512.513-.402 1.204-.663 2.072-.784l2.086-.294v-.406c0-.952-.546-1.428-1.638-1.428-.411 0-.747.088-1.008.266a1.72 1.72 0 00-.588.602.382.382 0 01-.112.182c-.037.037-.093.056-.168.056h-.602a.334.334 0 01-.224-.084.336.336 0 01-.084-.224c.009-.224.112-.476.308-.756.205-.29.518-.537.938-.742.42-.215.938-.322 1.554-.322 1.045 0 1.797.247 2.254.742.457.485.686 1.092.686 1.82v4.536a.327.327 0 01-.098.238.303.303 0 01-.224.084h-.644a.353.353 0 01-.238-.084.355.355 0 01-.084-.238v-.602c-.205.298-.504.55-.896.756-.392.205-.891.308-1.498.308zm.294-1.05c.607 0 1.101-.196 1.484-.588.392-.402.588-.976.588-1.722v-.392l-1.624.238c-.663.093-1.162.252-1.498.476-.336.214-.504.49-.504.826 0 .373.154.662.462.868.308.196.672.294 1.092.294zm11.373.91c-1.474 0-2.212-.822-2.212-2.464v-3.696h-1.092a.355.355 0 01-.238-.084.355.355 0 01-.084-.238v-.476c0-.094.028-.168.084-.224a.323.323 0 01.238-.098h1.092v-2.338c0-.094.028-.168.084-.224a.323.323 0 01.238-.098h.658c.094 0 .168.032.224.098.066.056.098.13.098.224v2.338h1.736c.094 0 .168.032.224.098.066.056.098.13.098.224v.476a.323.323 0 01-.098.238.302.302 0 01-.224.084h-1.736v3.598c0 .466.08.821.238 1.064.159.233.42.35.784.35h.854c.094 0 .168.032.224.098.066.056.098.13.098.224v.504a.323.323 0 01-.098.238.302.302 0 01-.224.084h-.966zm2.949 0a.355.355 0 01-.238-.084.355.355 0 01-.084-.238v-6.622c0-.094.028-.173.084-.238a.323.323 0 01.238-.098h.644a.32.32 0 01.238.098.32.32 0 01.098.238v.616c.383-.635 1.036-.952 1.96-.952h.546c.094 0 .168.032.224.098.066.056.098.13.098.224v.574a.279.279 0 01-.098.224.302.302 0 01-.224.084h-.84c-.504 0-.9.149-1.19.448-.289.289-.434.686-.434 1.19v4.116a.323.323 0 01-.098.238.351.351 0 01-.238.084h-.686zm6.917.14c-.457 0-.882-.094-1.274-.28a2.45 2.45 0 01-.938-.756 1.866 1.866 0 01-.336-1.078c0-.616.252-1.12.756-1.512.514-.402 1.204-.663 2.072-.784l2.086-.294v-.406c0-.952-.546-1.428-1.638-1.428-.41 0-.746.088-1.008.266a1.72 1.72 0 00-.588.602.382.382 0 01-.112.182c-.037.037-.093.056-.168.056h-.602a.336.336 0 01-.224-.084.336.336 0 01-.084-.224c.01-.224.112-.476.308-.756.206-.29.518-.537.938-.742.42-.215.938-.322 1.554-.322 1.046 0 1.797.247 2.254.742.458.485.686 1.092.686 1.82v4.536a.323.323 0 01-.098.238.302.302 0 01-.224.084h-.644a.355.355 0 01-.238-.084.355.355 0 01-.084-.238v-.602c-.205.298-.504.55-.896.756-.392.205-.891.308-1.498.308zm.294-1.05c.607 0 1.102-.196 1.484-.588.392-.402.588-.976.588-1.722v-.392l-1.624.238c-.662.093-1.162.252-1.498.476-.336.214-.504.49-.504.826 0 .373.154.662.462.868.308.196.672.294 1.092.294zm5.723.91a.351.351 0 01-.238-.084.355.355 0 01-.084-.238v-6.636c0-.094.028-.168.084-.224a.32.32 0 01.238-.098h.658c.093 0 .168.032.224.098a.28.28 0 01.098.224v.616c.27-.346.588-.612.952-.798.373-.187.835-.28 1.386-.28.896 0 1.591.289 2.086.868.504.569.756 1.33.756 2.282v3.948a.327.327 0 01-.098.238.303.303 0 01-.224.084h-.7a.351.351 0 01-.238-.084.355.355 0 01-.084-.238v-3.878c0-.663-.164-1.176-.49-1.54-.318-.364-.779-.546-1.386-.546-.588 0-1.055.186-1.4.56-.346.364-.518.872-.518 1.526v3.878a.327.327 0 01-.098.238.303.303 0 01-.224.084h-.7zm10.688.14c-.653 0-1.204-.103-1.652-.308-.439-.215-.77-.458-.994-.728-.215-.271-.322-.495-.322-.672 0-.094.033-.164.098-.21a.372.372 0 01.224-.084h.63c.093 0 .177.046.252.14.224.261.467.466.728.616.261.149.611.224 1.05.224.485 0 .877-.094 1.176-.28.308-.196.462-.462.462-.798a.767.767 0 00-.196-.546c-.121-.15-.336-.276-.644-.378-.299-.112-.747-.234-1.344-.364-.812-.178-1.391-.434-1.736-.77-.336-.336-.504-.77-.504-1.302 0-.355.103-.691.308-1.008.215-.327.523-.588.924-.784.411-.206.901-.308 1.47-.308.597 0 1.106.098 1.526.294.42.196.733.429.938.7.215.261.322.48.322.658a.266.266 0 01-.098.21.285.285 0 01-.21.084h-.588a.346.346 0 01-.28-.14 3.237 3.237 0 00-.392-.406 1.247 1.247 0 00-.462-.266c-.196-.075-.448-.112-.756-.112-.448 0-.793.098-1.036.294a.888.888 0 00-.364.742c0 .196.051.364.154.504.103.13.299.252.588.364.299.112.728.228 1.288.35.887.186 1.512.457 1.876.812.373.345.56.788.56 1.33 0 .401-.117.765-.35 1.092-.233.326-.579.583-1.036.77-.448.186-.985.28-1.61.28zm6.905-.14c-.243 0-.416-.117-.518-.35l-2.59-6.496-.028-.14a.285.285 0 01.294-.294h.672c.158 0 .275.079.35.238l2.128 5.516 2.128-5.516c.084-.159.196-.238.336-.238h.686a.27.27 0 01.196.084.266.266 0 01.098.21l-.028.14-2.604 6.496c-.103.233-.276.35-.518.35h-.602zm7.87.14c-.961 0-1.731-.294-2.31-.882-.569-.598-.882-1.41-.938-2.436l-.014-.476.014-.462c.065-1.008.383-1.811.952-2.408.579-.598 1.339-.896 2.282-.896 1.036 0 1.839.331 2.408.994.569.653.854 1.54.854 2.66v.238a.327.327 0 01-.098.238.303.303 0 01-.224.084h-4.844v.126c.028.606.21 1.124.546 1.554.345.42.798.63 1.358.63.429 0 .779-.084 1.05-.252.28-.178.485-.36.616-.546.084-.112.145-.178.182-.196a.492.492 0 01.238-.042h.686c.084 0 .154.023.21.07a.24.24 0 01.084.196c0 .205-.131.452-.392.742-.252.289-.611.541-1.078.756-.457.205-.985.308-1.582.308zm1.918-4.312v-.042c0-.644-.177-1.167-.532-1.568-.345-.411-.812-.616-1.4-.616-.588 0-1.055.205-1.4.616-.336.401-.504.924-.504 1.568v.042h3.836zm3.326 4.172a.353.353 0 01-.238-.084.355.355 0 01-.084-.238v-6.622c0-.094.028-.173.084-.238a.321.321 0 01.238-.098h.644c.093 0 .173.032.238.098a.324.324 0 01.098.238v.616c.383-.635 1.036-.952 1.96-.952h.546c.093 0 .168.032.224.098a.28.28 0 01.098.224v.574a.282.282 0 01-.098.224.303.303 0 01-.224.084h-.84c-.504 0-.901.149-1.19.448-.289.289-.434.686-.434 1.19v4.116a.327.327 0 01-.098.238.353.353 0 01-.238.084h-.686zm7.516.14c-.653 0-1.204-.103-1.652-.308-.438-.215-.77-.458-.994-.728-.214-.271-.322-.495-.322-.672 0-.094.033-.164.098-.21a.375.375 0 01.224-.084h.63c.094 0 .178.046.252.14.224.261.467.466.728.616.262.149.612.224 1.05.224.486 0 .878-.094 1.176-.28.308-.196.462-.462.462-.798a.767.767 0 00-.196-.546c-.121-.15-.336-.276-.644-.378-.298-.112-.746-.234-1.344-.364-.812-.178-1.39-.434-1.736-.77-.336-.336-.504-.77-.504-1.302 0-.355.103-.691.308-1.008.215-.327.523-.588.924-.784.411-.206.901-.308 1.47-.308.598 0 1.106.098 1.526.294.42.196.733.429.938.7.215.261.322.48.322.658a.263.263 0 01-.098.21.285.285 0 01-.21.084h-.588a.346.346 0 01-.28-.14 3.237 3.237 0 00-.392-.406 1.23 1.23 0 00-.462-.266c-.196-.075-.448-.112-.756-.112-.448 0-.793.098-1.036.294a.891.891 0 00-.364.742c0 .196.052.364.154.504.103.13.299.252.588.364.299.112.728.228 1.288.35.887.186 1.512.457 1.876.812.374.345.56.788.56 1.33 0 .401-.116.765-.35 1.092-.233.326-.578.583-1.036.77-.448.186-.984.28-1.61.28zm6.647 0c-.457 0-.882-.094-1.274-.28a2.443 2.443 0 01-.938-.756 1.866 1.866 0 01-.336-1.078c0-.616.252-1.12.756-1.512.513-.402 1.204-.663 2.072-.784l2.086-.294v-.406c0-.952-.546-1.428-1.638-1.428-.411 0-.747.088-1.008.266a1.72 1.72 0 00-.588.602.382.382 0 01-.112.182c-.037.037-.093.056-.168.056h-.602a.334.334 0 01-.224-.084.336.336 0 01-.084-.224c.009-.224.112-.476.308-.756.205-.29.518-.537.938-.742.42-.215.938-.322 1.554-.322 1.045 0 1.797.247 2.254.742.457.485.686 1.092.686 1.82v4.536a.327.327 0 01-.098.238.303.303 0 01-.224.084h-.644a.353.353 0 01-.238-.084.355.355 0 01-.084-.238v-.602c-.205.298-.504.55-.896.756-.392.205-.891.308-1.498.308zm.294-1.05c.607 0 1.101-.196 1.484-.588.392-.402.588-.976.588-1.722v-.392l-1.624.238c-.663.093-1.162.252-1.498.476-.336.214-.504.49-.504.826 0 .373.154.662.462.868.308.196.672.294 1.092.294zm5.737.91a.351.351 0 01-.238-.084.355.355 0 01-.084-.238v-9.296c0-.094.028-.168.084-.224a.32.32 0 01.238-.098h.658c.093 0 .168.032.224.098a.28.28 0 01.098.224v9.296a.327.327 0 01-.098.238.303.303 0 01-.224.084h-.658zm-162.225 24.14c-.998 0-1.782-.28-2.352-.84-.56-.57-.858-1.363-.896-2.38l-.014-.56.014-.56c.038-1.018.336-1.806.896-2.366.57-.57 1.354-.854 2.352-.854.672 0 1.242.121 1.708.364.467.242.812.541 1.036.896.234.354.36.709.378 1.064a.245.245 0 01-.084.224.353.353 0 01-.238.084h-.672c-.093 0-.163-.019-.21-.056a.583.583 0 01-.14-.224c-.158-.448-.382-.766-.672-.952-.289-.196-.653-.294-1.092-.294-.578 0-1.04.182-1.386.546-.336.354-.518.9-.546 1.638l-.014.504.014.476c.028.746.21 1.297.546 1.652.336.354.798.532 1.386.532.44 0 .803-.094 1.092-.28.29-.196.514-.518.672-.966a.575.575 0 01.14-.224c.047-.047.117-.07.21-.07h.672a.32.32 0 01.238.098c.066.056.094.13.084.224-.018.345-.144.7-.378 1.064-.224.354-.569.653-1.036.896-.457.242-1.026.364-1.708.364zm4.995-8.778a.353.353 0 01-.238-.084.355.355 0 01-.084-.238v-.756c0-.094.028-.173.084-.238a.322.322 0 01.238-.098h.882c.093 0 .173.032.238.098a.322.322 0 01.098.238v.756a.325.325 0 01-.098.238.353.353 0 01-.238.084h-.882zm.112 8.638a.353.353 0 01-.238-.084.355.355 0 01-.084-.238v-6.636c0-.094.028-.168.084-.224a.322.322 0 01.238-.098h.672c.093 0 .168.032.224.098a.28.28 0 01.098.224v6.636a.325.325 0 01-.098.238.303.303 0 01-.224.084h-.672zm3.391 0a.353.353 0 01-.238-.084.355.355 0 01-.084-.238v-6.622c0-.094.028-.173.084-.238a.321.321 0 01.238-.098h.644c.093 0 .172.032.238.098a.323.323 0 01.098.238v.616c.382-.635 1.036-.952 1.96-.952h.546c.093 0 .168.032.224.098a.28.28 0 01.098.224v.574a.28.28 0 01-.098.224.303.303 0 01-.224.084h-.84c-.504 0-.901.149-1.19.448-.29.289-.434.686-.434 1.19v4.116a.326.326 0 01-.098.238.353.353 0 01-.238.084h-.686zm7.799.14c-.998 0-1.782-.28-2.352-.84-.56-.57-.858-1.363-.896-2.38l-.014-.56.014-.56c.038-1.018.336-1.806.896-2.366.57-.57 1.354-.854 2.352-.854.672 0 1.242.121 1.708.364.467.242.812.541 1.036.896.234.354.36.709.378 1.064a.246.246 0 01-.084.224.353.353 0 01-.238.084h-.672c-.093 0-.163-.019-.21-.056a.582.582 0 01-.14-.224c-.158-.448-.382-.766-.672-.952-.289-.196-.653-.294-1.092-.294-.578 0-1.04.182-1.386.546-.336.354-.518.9-.546 1.638l-.014.504.014.476c.028.746.21 1.297.546 1.652.336.354.798.532 1.386.532.439 0 .803-.094 1.092-.28.29-.196.514-.518.672-.966a.574.574 0 01.14-.224c.047-.047.117-.07.21-.07h.672a.32.32 0 01.238.098c.066.056.094.13.084.224-.018.345-.144.7-.378 1.064-.224.354-.569.653-1.036.896-.457.242-1.026.364-1.708.364zm7.501 0c-.887 0-1.573-.285-2.058-.854-.485-.579-.728-1.344-.728-2.296v-3.948c0-.094.028-.168.084-.224a.321.321 0 01.238-.098h.7c.093 0 .168.032.224.098a.28.28 0 01.098.224v3.878c0 1.39.607 2.086 1.82 2.086.588 0 1.055-.182 1.4-.546.345-.374.518-.887.518-1.54v-3.878c0-.094.028-.168.084-.224a.321.321 0 01.238-.098h.7c.093 0 .168.032.224.098.056.056.084.13.084.224v6.636a.355.355 0 01-.084.238.303.303 0 01-.224.084h-.658a.353.353 0 01-.238-.084.355.355 0 01-.084-.238v-.616a2.65 2.65 0 01-.952.812c-.373.177-.835.266-1.386.266zm6.042-.14a.353.353 0 01-.238-.084.355.355 0 01-.084-.238v-9.296c0-.094.028-.168.084-.224a.321.321 0 01.238-.098h.658c.093 0 .168.032.224.098a.28.28 0 01.098.224v9.296a.327.327 0 01-.098.238.303.303 0 01-.224.084h-.658zm5.098.14c-.457 0-.882-.094-1.274-.28a2.443 2.443 0 01-.938-.756 1.866 1.866 0 01-.336-1.078c0-.616.252-1.12.756-1.512.513-.402 1.204-.663 2.072-.784l2.086-.294v-.406c0-.952-.546-1.428-1.638-1.428-.411 0-.747.088-1.008.266a1.72 1.72 0 00-.588.602.382.382 0 01-.112.182c-.037.037-.093.056-.168.056h-.602a.334.334 0 01-.224-.084.336.336 0 01-.084-.224c.009-.224.112-.476.308-.756.205-.29.518-.537.938-.742.42-.215.938-.322 1.554-.322 1.045 0 1.797.247 2.254.742.457.485.686 1.092.686 1.82v4.536a.327.327 0 01-.098.238.303.303 0 01-.224.084h-.644a.353.353 0 01-.238-.084.355.355 0 01-.084-.238v-.602c-.205.298-.504.55-.896.756-.392.205-.891.308-1.498.308zm.294-1.05c.607 0 1.101-.196 1.484-.588.392-.402.588-.976.588-1.722v-.392l-1.624.238c-.663.093-1.162.252-1.498.476-.336.214-.504.49-.504.826 0 .373.154.662.462.868.308.196.672.294 1.092.294zm8.174.91c-1.474 0-2.212-.822-2.212-2.464v-3.696h-1.092a.355.355 0 01-.238-.084.355.355 0 01-.084-.238v-.476c0-.094.028-.168.084-.224a.323.323 0 01.238-.098h1.092v-2.338c0-.094.028-.168.084-.224a.323.323 0 01.238-.098h.658c.094 0 .168.032.224.098.066.056.098.13.098.224v2.338h1.736c.094 0 .168.032.224.098.066.056.098.13.098.224v.476a.323.323 0 01-.098.238.302.302 0 01-.224.084h-1.736v3.598c0 .466.08.821.238 1.064.159.233.42.35.784.35h.854c.094 0 .168.032.224.098.066.056.098.13.098.224v.504a.323.323 0 01-.098.238.302.302 0 01-.224.084h-.966zm2.837-8.638a.353.353 0 01-.238-.084.355.355 0 01-.084-.238v-.756c0-.094.028-.173.084-.238a.321.321 0 01.238-.098h.882c.093 0 .173.032.238.098a.324.324 0 01.098.238v.756a.327.327 0 01-.098.238.353.353 0 01-.238.084h-.882zm.112 8.638a.353.353 0 01-.238-.084.355.355 0 01-.084-.238v-6.636c0-.094.028-.168.084-.224a.321.321 0 01.238-.098h.672c.093 0 .168.032.224.098a.28.28 0 01.098.224v6.636a.327.327 0 01-.098.238.303.303 0 01-.224.084h-.672zm6.051.14c-1.027 0-1.825-.29-2.394-.868-.56-.579-.859-1.349-.896-2.31l-.014-.602.014-.602c.037-.952.34-1.718.91-2.296.569-.588 1.362-.882 2.38-.882 1.017 0 1.81.294 2.38.882.569.578.872 1.344.91 2.296.009.102.014.303.014.602 0 .298-.005.499-.014.602-.038.961-.341 1.731-.91 2.31-.56.578-1.354.868-2.38.868zm0-1.078c.588 0 1.05-.187 1.386-.56.345-.374.532-.91.56-1.61.009-.094.014-.271.014-.532 0-.262-.005-.439-.014-.532-.028-.7-.215-1.237-.56-1.61-.336-.374-.798-.56-1.386-.56-.588 0-1.055.186-1.4.56-.346.373-.528.91-.546 1.61l-.014.532.014.532c.018.7.2 1.236.546 1.61.345.373.812.56 1.4.56zm5.379.938a.351.351 0 01-.238-.084.355.355 0 01-.084-.238v-6.636c0-.094.028-.168.084-.224a.32.32 0 01.238-.098h.658c.093 0 .168.032.224.098a.28.28 0 01.098.224v.616c.27-.346.588-.612.952-.798.373-.187.835-.28 1.386-.28.896 0 1.591.289 2.086.868.504.569.756 1.33.756 2.282v3.948a.327.327 0 01-.098.238.303.303 0 01-.224.084h-.7a.351.351 0 01-.238-.084.355.355 0 01-.084-.238v-3.878c0-.663-.164-1.176-.49-1.54-.318-.364-.78-.546-1.386-.546-.588 0-1.055.186-1.4.56-.346.364-.518.872-.518 1.526v3.878a.327.327 0 01-.098.238.303.303 0 01-.224.084h-.7zm14.582.14c-1.027 0-1.825-.29-2.394-.868-.56-.579-.859-1.349-.896-2.31l-.014-.602.014-.602c.037-.952.34-1.718.91-2.296.569-.588 1.362-.882 2.38-.882 1.017 0 1.81.294 2.38.882.569.578.872 1.344.91 2.296.009.102.014.303.014.602 0 .298-.005.499-.014.602-.038.961-.341 1.731-.91 2.31-.56.578-1.354.868-2.38.868zm0-1.078c.588 0 1.05-.187 1.386-.56.345-.374.532-.91.56-1.61.009-.094.014-.271.014-.532 0-.262-.005-.439-.014-.532-.028-.7-.215-1.237-.56-1.61-.336-.374-.798-.56-1.386-.56-.588 0-1.055.186-1.4.56-.346.373-.528.91-.546 1.61l-.014.532.014.532c.018.7.2 1.236.546 1.61.345.373.812.56 1.4.56zm6.025.938a.351.351 0 01-.238-.084.355.355 0 01-.084-.238v-5.838h-1.19a.351.351 0 01-.238-.084.355.355 0 01-.084-.238v-.476c0-.094.028-.168.084-.224a.32.32 0 01.238-.098h1.19v-.7c0-1.587.802-2.38 2.408-2.38h.84c.093 0 .168.032.224.098a.28.28 0 01.098.224v.476a.327.327 0 01-.098.238.303.303 0 01-.224.084h-.812c-.42 0-.714.112-.882.336-.168.214-.252.546-.252.994v.63h1.806c.093 0 .168.032.224.098a.28.28 0 01.098.224v.476a.327.327 0 01-.098.238.303.303 0 01-.224.084h-1.806v5.838a.327.327 0 01-.098.238.303.303 0 01-.224.084h-.658zm7.664-8.638a.351.351 0 01-.238-.084.355.355 0 01-.084-.238v-.756c0-.094.028-.173.084-.238a.32.32 0 01.238-.098h.882c.093 0 .172.032.238.098a.324.324 0 01.098.238v.756a.327.327 0 01-.098.238.355.355 0 01-.238.084h-.882zm.112 8.638a.351.351 0 01-.238-.084.355.355 0 01-.084-.238v-6.636c0-.094.028-.168.084-.224a.32.32 0 01.238-.098h.672c.093 0 .168.032.224.098a.28.28 0 01.098.224v6.636a.327.327 0 01-.098.238.303.303 0 01-.224.084h-.672zm3.39 0a.355.355 0 01-.238-.084.355.355 0 01-.084-.238v-6.636c0-.094.028-.168.084-.224a.323.323 0 01.238-.098h.658c.094 0 .168.032.224.098.066.056.098.13.098.224v.616c.271-.346.588-.612.952-.798.374-.187.836-.28 1.386-.28.896 0 1.592.289 2.086.868.504.569.756 1.33.756 2.282v3.948a.323.323 0 01-.098.238.302.302 0 01-.224.084h-.7a.355.355 0 01-.238-.084.355.355 0 01-.084-.238v-3.878c0-.663-.163-1.176-.49-1.54-.317-.364-.779-.546-1.386-.546-.588 0-1.054.186-1.4.56-.345.364-.518.872-.518 1.526v3.878a.323.323 0 01-.098.238.302.302 0 01-.224.084h-.7zm9.109 0a.353.353 0 01-.238-.084.355.355 0 01-.084-.238v-5.838h-1.19a.353.353 0 01-.238-.084.355.355 0 01-.084-.238v-.476c0-.094.028-.168.084-.224a.321.321 0 01.238-.098h1.19v-.7c0-1.587.803-2.38 2.408-2.38h.84c.093 0 .168.032.224.098a.28.28 0 01.098.224v.476a.327.327 0 01-.098.238.303.303 0 01-.224.084h-.812c-.42 0-.714.112-.882.336-.168.214-.252.546-.252.994v.63h1.806c.093 0 .168.032.224.098a.28.28 0 01.098.224v.476a.327.327 0 01-.098.238.303.303 0 01-.224.084h-1.806v5.838a.327.327 0 01-.098.238.303.303 0 01-.224.084h-.658zm7.182.14c-1.027 0-1.825-.29-2.394-.868-.56-.579-.859-1.349-.896-2.31l-.014-.602.014-.602c.037-.952.341-1.718.91-2.296.569-.588 1.363-.882 2.38-.882s1.811.294 2.38.882c.569.578.873 1.344.91 2.296.009.102.014.303.014.602 0 .298-.005.499-.014.602-.037.961-.341 1.731-.91 2.31-.56.578-1.353.868-2.38.868zm0-1.078c.588 0 1.05-.187 1.386-.56.345-.374.532-.91.56-1.61.009-.094.014-.271.014-.532 0-.262-.005-.439-.014-.532-.028-.7-.215-1.237-.56-1.61-.336-.374-.798-.56-1.386-.56-.588 0-1.055.186-1.4.56-.345.373-.527.91-.546 1.61l-.014.532.014.532c.019.7.201 1.236.546 1.61.345.373.812.56 1.4.56zm5.379.938a.353.353 0 01-.238-.084.355.355 0 01-.084-.238v-6.622c0-.094.028-.173.084-.238a.321.321 0 01.238-.098h.644c.093 0 .173.032.238.098a.324.324 0 01.098.238v.616c.383-.635 1.036-.952 1.96-.952h.546c.093 0 .168.032.224.098a.28.28 0 01.098.224v.574a.282.282 0 01-.098.224.303.303 0 01-.224.084h-.84c-.504 0-.901.149-1.19.448-.289.289-.434.686-.434 1.19v4.116a.327.327 0 01-.098.238.353.353 0 01-.238.084h-.686zm5.318 0a.355.355 0 01-.238-.084.355.355 0 01-.084-.238v-6.636c0-.094.028-.168.084-.224a.323.323 0 01.238-.098h.63c.094 0 .168.032.224.098.066.056.098.13.098.224v.49c.486-.635 1.162-.952 2.03-.952 1.036 0 1.769.429 2.198 1.288.224-.392.542-.705.952-.938a2.75 2.75 0 011.386-.35c.766 0 1.391.261 1.876.784.486.522.728 1.278.728 2.268v4.046a.323.323 0 01-.098.238.302.302 0 01-.224.084h-.658a.355.355 0 01-.238-.084.355.355 0 01-.084-.238v-3.92c0-.728-.154-1.251-.462-1.568-.298-.318-.695-.476-1.19-.476-.438 0-.816.163-1.134.49-.317.317-.476.835-.476 1.554v3.92a.323.323 0 01-.098.238.302.302 0 01-.224.084h-.658a.355.355 0 01-.238-.084.355.355 0 01-.084-.238v-3.92c0-.728-.158-1.251-.476-1.568-.308-.318-.7-.476-1.176-.476-.438 0-.816.163-1.134.49-.317.317-.476.83-.476 1.54v3.934a.323.323 0 01-.098.238.302.302 0 01-.224.084h-.672zm14.15.14c-.457 0-.882-.094-1.274-.28a2.443 2.443 0 01-.938-.756 1.866 1.866 0 01-.336-1.078c0-.616.252-1.12.756-1.512.513-.402 1.204-.663 2.072-.784l2.086-.294v-.406c0-.952-.546-1.428-1.638-1.428-.411 0-.747.088-1.008.266a1.72 1.72 0 00-.588.602.382.382 0 01-.112.182c-.037.037-.093.056-.168.056h-.602a.334.334 0 01-.224-.084.336.336 0 01-.084-.224c.009-.224.112-.476.308-.756.205-.29.518-.537.938-.742.42-.215.938-.322 1.554-.322 1.045 0 1.797.247 2.254.742.457.485.686 1.092.686 1.82v4.536a.327.327 0 01-.098.238.303.303 0 01-.224.084h-.644a.353.353 0 01-.238-.084.355.355 0 01-.084-.238v-.602c-.205.298-.504.55-.896.756-.392.205-.891.308-1.498.308zm.294-1.05c.607 0 1.101-.196 1.484-.588.392-.402.588-.976.588-1.722v-.392l-1.624.238c-.663.093-1.162.252-1.498.476-.336.214-.504.49-.504.826 0 .373.154.662.462.868.308.196.672.294 1.092.294zm8.174.91c-1.475 0-2.212-.822-2.212-2.464v-3.696h-1.092a.353.353 0 01-.238-.084.355.355 0 01-.084-.238v-.476c0-.094.028-.168.084-.224a.321.321 0 01.238-.098h1.092v-2.338c0-.094.028-.168.084-.224a.321.321 0 01.238-.098h.658c.093 0 .168.032.224.098a.28.28 0 01.098.224v2.338h1.736c.093 0 .168.032.224.098a.28.28 0 01.098.224v.476a.327.327 0 01-.098.238.303.303 0 01-.224.084h-1.736v3.598c0 .466.079.821.238 1.064.159.233.42.35.784.35h.854c.093 0 .168.032.224.098a.28.28 0 01.098.224v.504a.327.327 0 01-.098.238.303.303 0 01-.224.084h-.966zm2.837-8.638a.353.353 0 01-.238-.084.355.355 0 01-.084-.238v-.756c0-.094.028-.173.084-.238a.321.321 0 01.238-.098h.882c.093 0 .173.032.238.098a.324.324 0 01.098.238v.756a.327.327 0 01-.098.238.353.353 0 01-.238.084h-.882zm.112 8.638a.353.353 0 01-.238-.084.355.355 0 01-.084-.238v-6.636c0-.094.028-.168.084-.224a.321.321 0 01.238-.098h.672c.093 0 .168.032.224.098a.28.28 0 01.098.224v6.636a.327.327 0 01-.098.238.303.303 0 01-.224.084h-.672zm6.051.14c-1.027 0-1.825-.29-2.394-.868-.56-.579-.859-1.349-.896-2.31l-.014-.602.014-.602c.037-.952.34-1.718.91-2.296.569-.588 1.362-.882 2.38-.882 1.017 0 1.81.294 2.38.882.569.578.872 1.344.91 2.296.009.102.014.303.014.602 0 .298-.005.499-.014.602-.038.961-.341 1.731-.91 2.31-.56.578-1.354.868-2.38.868zm0-1.078c.588 0 1.05-.187 1.386-.56.345-.374.532-.91.56-1.61.009-.094.014-.271.014-.532 0-.262-.005-.439-.014-.532-.028-.7-.215-1.237-.56-1.61-.336-.374-.798-.56-1.386-.56-.588 0-1.055.186-1.4.56-.346.373-.528.91-.546 1.61l-.014.532.014.532c.018.7.2 1.236.546 1.61.345.373.812.56 1.4.56zm5.379.938a.351.351 0 01-.238-.084.355.355 0 01-.084-.238v-6.636c0-.094.028-.168.084-.224a.32.32 0 01.238-.098h.658c.093 0 .168.032.224.098a.28.28 0 01.098.224v.616c.27-.346.588-.612.952-.798.373-.187.835-.28 1.386-.28.896 0 1.591.289 2.086.868.504.569.756 1.33.756 2.282v3.948a.327.327 0 01-.098.238.303.303 0 01-.224.084h-.7a.351.351 0 01-.238-.084.355.355 0 01-.084-.238v-3.878c0-.663-.164-1.176-.49-1.54-.318-.364-.78-.546-1.386-.546-.588 0-1.055.186-1.4.56-.346.364-.518.872-.518 1.526v3.878a.327.327 0 01-.098.238.303.303 0 01-.224.084h-.7zm8.07 1.05a.224.224 0 01-.182-.084.3.3 0 01-.042-.21l.322-2.002c.037-.271.168-.406.392-.406h.938c.065 0 .116.023.154.07a.23.23 0 01.07.168.98.98 0 01-.042.224l-.742 1.918a.622.622 0 01-.154.238c-.056.056-.14.084-.252.084h-.462zm-147.776 22.95a.353.353 0 01-.238-.084.355.355 0 01-.084-.238v-9.296c0-.094.028-.168.084-.224a.321.321 0 01.238-.098h.658c.093 0 .168.032.224.098a.28.28 0 01.098.224v4.872l2.758-2.296c.028-.019.075-.056.14-.112a.674.674 0 01.182-.098.863.863 0 01.238-.028h.742a.285.285 0 01.294.294c0 .102-.056.191-.168.266l-3.234 2.688 3.584 3.486c.112.093.168.177.168.252a.285.285 0 01-.294.294h-.728a.834.834 0 01-.308-.042 1.356 1.356 0 01-.252-.196l-3.122-2.982v2.898a.326.326 0 01-.098.238.303.303 0 01-.224.084h-.658zm7.205 0a.353.353 0 01-.238-.084.355.355 0 01-.084-.238v-6.636c0-.094.028-.168.084-.224a.321.321 0 01.238-.098h.658c.093 0 .168.032.224.098a.28.28 0 01.098.224v.616a2.85 2.85 0 01.952-.798c.373-.187.835-.28 1.386-.28.896 0 1.59.289 2.086.868.504.569.756 1.33.756 2.282v3.948a.326.326 0 01-.098.238.303.303 0 01-.224.084h-.7a.353.353 0 01-.238-.084.355.355 0 01-.084-.238v-3.878c0-.663-.164-1.176-.49-1.54-.318-.364-.78-.546-1.386-.546-.588 0-1.055.186-1.4.56-.346.364-.518.872-.518 1.526v3.878a.326.326 0 01-.098.238.303.303 0 01-.224.084h-.7zm11.15.14c-1.027 0-1.825-.29-2.394-.868-.56-.579-.859-1.349-.896-2.31l-.014-.602.014-.602c.037-.952.34-1.718.91-2.296.569-.588 1.363-.882 2.38-.882s1.811.294 2.38.882c.569.578.873 1.344.91 2.296.009.102.014.303.014.602 0 .298-.005.499-.014.602-.037.961-.341 1.731-.91 2.31-.56.578-1.353.868-2.38.868zm0-1.078c.588 0 1.05-.187 1.386-.56.345-.374.532-.91.56-1.61.009-.094.014-.271.014-.532 0-.262-.005-.439-.014-.532-.028-.7-.215-1.237-.56-1.61-.336-.374-.798-.56-1.386-.56-.588 0-1.055.186-1.4.56-.345.373-.527.91-.546 1.61l-.014.532.014.532c.019.7.201 1.236.546 1.61.345.373.812.56 1.4.56zm6.797.938a.42.42 0 01-.28-.084.663.663 0 01-.168-.266l-1.988-6.496-.028-.14c0-.084.028-.154.084-.21a.32.32 0 01.21-.084h.616c.094 0 .168.028.224.084a.31.31 0 01.126.154l1.554 5.278 1.666-5.222a.378.378 0 01.126-.196.358.358 0 01.266-.098h.476c.112 0 .201.032.266.098a.366.366 0 01.126.196l1.666 5.222 1.554-5.278a.328.328 0 01.098-.154.355.355 0 01.238-.084h.63c.075 0 .14.028.196.084a.285.285 0 01.084.21l-.028.14-1.974 6.496a.642.642 0 01-.168.266c-.065.056-.163.084-.294.084h-.546c-.252 0-.406-.117-.462-.35l-1.624-5.012-1.624 5.012c-.074.233-.233.35-.476.35h-.546zm9.34-3.612a.353.353 0 01-.238-.084.355.355 0 01-.084-.238v-.532c0-.094.028-.168.084-.224a.321.321 0 01.238-.098h4.2c.093 0 .168.032.224.098a.28.28 0 01.098.224v.532a.327.327 0 01-.098.238.303.303 0 01-.224.084h-4.2zm6.865 3.612a.355.355 0 01-.238-.084.355.355 0 01-.084-.238v-9.296c0-.094.028-.168.084-.224a.323.323 0 01.238-.098h.7c.094 0 .168.032.224.098.066.056.098.13.098.224v3.262c.271-.346.588-.607.952-.784.364-.187.817-.28 1.358-.28.896 0 1.592.289 2.086.868.504.569.756 1.33.756 2.282v3.948a.323.323 0 01-.098.238.302.302 0 01-.224.084h-.7a.355.355 0 01-.238-.084.355.355 0 01-.084-.238v-3.878c0-.663-.163-1.176-.49-1.54-.317-.364-.779-.546-1.386-.546-.588 0-1.059.186-1.414.56-.345.364-.518.872-.518 1.526v3.878a.323.323 0 01-.098.238.302.302 0 01-.224.084h-.7zm11.178.14c-1.027 0-1.825-.29-2.394-.868-.56-.579-.859-1.349-.896-2.31l-.014-.602.014-.602c.037-.952.34-1.718.91-2.296.569-.588 1.362-.882 2.38-.882 1.017 0 1.81.294 2.38.882.569.578.872 1.344.91 2.296.009.102.014.303.014.602 0 .298-.005.499-.014.602-.038.961-.341 1.731-.91 2.31-.56.578-1.354.868-2.38.868zm0-1.078c.588 0 1.05-.187 1.386-.56.345-.374.532-.91.56-1.61.009-.094.014-.271.014-.532 0-.262-.005-.439-.014-.532-.028-.7-.215-1.237-.56-1.61-.336-.374-.798-.56-1.386-.56-.588 0-1.055.186-1.4.56-.346.373-.528.91-.546 1.61l-.014.532.014.532c.018.7.2 1.236.546 1.61.345.373.812.56 1.4.56zm6.797.938a.42.42 0 01-.28-.084.663.663 0 01-.168-.266l-1.988-6.496-.028-.14c0-.084.028-.154.084-.21a.32.32 0 01.21-.084h.616c.094 0 .168.028.224.084a.31.31 0 01.126.154l1.554 5.278 1.666-5.222a.378.378 0 01.126-.196.358.358 0 01.266-.098h.476c.112 0 .201.032.266.098a.366.366 0 01.126.196l1.666 5.222 1.554-5.278a.328.328 0 01.098-.154.355.355 0 01.238-.084h.63c.075 0 .14.028.196.084a.285.285 0 01.084.21l-.028.14-1.974 6.496a.642.642 0 01-.168.266c-.065.056-.163.084-.294.084h-.546c-.252 0-.406-.117-.462-.35l-1.624-5.012-1.624 5.012c-.074.233-.233.35-.476.35h-.546zm14.426.14c-.457 0-.882-.094-1.274-.28a2.45 2.45 0 01-.938-.756 1.866 1.866 0 01-.336-1.078c0-.616.252-1.12.756-1.512.514-.402 1.204-.663 2.072-.784l2.086-.294v-.406c0-.952-.546-1.428-1.638-1.428-.41 0-.746.088-1.008.266a1.72 1.72 0 00-.588.602.382.382 0 01-.112.182c-.037.037-.093.056-.168.056h-.602a.336.336 0 01-.224-.084.336.336 0 01-.084-.224c.01-.224.112-.476.308-.756.206-.29.518-.537.938-.742.42-.215.938-.322 1.554-.322 1.046 0 1.797.247 2.254.742.458.485.686 1.092.686 1.82v4.536a.323.323 0 01-.098.238.302.302 0 01-.224.084h-.644a.355.355 0 01-.238-.084.355.355 0 01-.084-.238v-.602c-.205.298-.504.55-.896.756-.392.205-.891.308-1.498.308zm.294-1.05c.607 0 1.102-.196 1.484-.588.392-.402.588-.976.588-1.722v-.392l-1.624.238c-.662.093-1.162.252-1.498.476-.336.214-.504.49-.504.826 0 .373.154.662.462.868.308.196.672.294 1.092.294zm5.723.91a.353.353 0 01-.238-.084.355.355 0 01-.084-.238v-6.636c0-.094.028-.168.084-.224a.321.321 0 01.238-.098h.658c.093 0 .168.032.224.098a.28.28 0 01.098.224v.616c.271-.346.588-.612.952-.798.373-.187.835-.28 1.386-.28.896 0 1.591.289 2.086.868.504.569.756 1.33.756 2.282v3.948a.327.327 0 01-.098.238.303.303 0 01-.224.084h-.7a.353.353 0 01-.238-.084.355.355 0 01-.084-.238v-3.878c0-.663-.163-1.176-.49-1.54-.317-.364-.779-.546-1.386-.546-.588 0-1.055.186-1.4.56-.345.364-.518.872-.518 1.526v3.878a.327.327 0 01-.098.238.303.303 0 01-.224.084h-.7zm10.828.14c-.971 0-1.703-.318-2.198-.952-.495-.635-.756-1.438-.784-2.408l-.014-.42.014-.42c.028-.962.289-1.76.784-2.394.495-.644 1.227-.966 2.198-.966.961 0 1.717.34 2.268 1.022v-3.22c0-.094.028-.168.084-.224a.321.321 0 01.238-.098h.672c.093 0 .168.032.224.098a.28.28 0 01.098.224v9.296a.327.327 0 01-.098.238.303.303 0 01-.224.084h-.63a.353.353 0 01-.238-.084.355.355 0 01-.084-.238v-.588c-.541.7-1.311 1.05-2.31 1.05zm.294-1.134c.644 0 1.125-.21 1.442-.63.327-.43.504-.938.532-1.526a6.99 6.99 0 00.014-.532 7.23 7.23 0 00-.014-.546 2.34 2.34 0 00-.532-1.442c-.336-.411-.817-.616-1.442-.616-.663 0-1.148.205-1.456.616-.299.41-.462.952-.49 1.624l-.014.406c0 1.764.653 2.646 1.96 2.646zm11.324 1.134c-.653 0-1.204-.103-1.652-.308-.439-.215-.77-.458-.994-.728-.215-.271-.322-.495-.322-.672 0-.094.033-.164.098-.21a.372.372 0 01.224-.084h.63c.093 0 .177.046.252.14.224.261.467.466.728.616.261.149.611.224 1.05.224.485 0 .877-.094 1.176-.28.308-.196.462-.462.462-.798a.767.767 0 00-.196-.546c-.121-.15-.336-.276-.644-.378-.299-.112-.747-.234-1.344-.364-.812-.178-1.391-.434-1.736-.77-.336-.336-.504-.77-.504-1.302 0-.355.103-.691.308-1.008.215-.327.523-.588.924-.784.411-.206.901-.308 1.47-.308.597 0 1.106.098 1.526.294.42.196.733.429.938.7.215.261.322.48.322.658a.266.266 0 01-.098.21.285.285 0 01-.21.084h-.588a.346.346 0 01-.28-.14 3.237 3.237 0 00-.392-.406 1.247 1.247 0 00-.462-.266c-.196-.075-.448-.112-.756-.112-.448 0-.793.098-1.036.294a.888.888 0 00-.364.742c0 .196.051.364.154.504.103.13.299.252.588.364.299.112.728.228 1.288.35.887.186 1.512.457 1.876.812.373.345.56.788.56 1.33 0 .401-.117.765-.35 1.092-.233.326-.579.583-1.036.77-.448.186-.985.28-1.61.28zm4.953-.14a.351.351 0 01-.238-.084.355.355 0 01-.084-.238v-9.296c0-.094.028-.168.084-.224a.32.32 0 01.238-.098h.658c.093 0 .168.032.224.098a.28.28 0 01.098.224v4.872l2.758-2.296c.028-.019.074-.056.14-.112a.67.67 0 01.182-.098.858.858 0 01.238-.028h.742a.285.285 0 01.294.294c0 .102-.056.191-.168.266l-3.234 2.688 3.584 3.486c.112.093.168.177.168.252a.285.285 0 01-.294.294h-.728a.833.833 0 01-.308-.042 1.356 1.356 0 01-.252-.196l-3.122-2.982v2.898a.327.327 0 01-.098.238.303.303 0 01-.224.084h-.658zm7.092-8.638a.355.355 0 01-.238-.084.355.355 0 01-.084-.238v-.756c0-.094.028-.173.084-.238a.323.323 0 01.238-.098h.882a.32.32 0 01.238.098.32.32 0 01.098.238v.756a.323.323 0 01-.098.238.351.351 0 01-.238.084h-.882zm.112 8.638a.355.355 0 01-.238-.084.355.355 0 01-.084-.238v-6.636c0-.094.028-.168.084-.224a.323.323 0 01.238-.098h.672c.094 0 .168.032.224.098.066.056.098.13.098.224v6.636a.323.323 0 01-.098.238.302.302 0 01-.224.084h-.672zm3.405 0a.353.353 0 01-.238-.084.355.355 0 01-.084-.238v-9.296c0-.094.028-.168.084-.224a.321.321 0 01.238-.098h.658c.093 0 .168.032.224.098a.28.28 0 01.098.224v9.296a.327.327 0 01-.098.238.303.303 0 01-.224.084h-.658zm3.404 0a.355.355 0 01-.238-.084.355.355 0 01-.084-.238v-9.296c0-.094.028-.168.084-.224a.323.323 0 01.238-.098h.658c.094 0 .168.032.224.098.066.056.098.13.098.224v9.296a.323.323 0 01-.098.238.302.302 0 01-.224.084h-.658zm5.589.14c-.654 0-1.204-.103-1.652-.308-.439-.215-.77-.458-.994-.728-.215-.271-.322-.495-.322-.672 0-.094.032-.164.098-.21a.37.37 0 01.224-.084h.63c.093 0 .177.046.252.14.224.261.466.466.728.616.261.149.611.224 1.05.224.485 0 .877-.094 1.176-.28.308-.196.462-.462.462-.798a.771.771 0 00-.196-.546c-.122-.15-.336-.276-.644-.378-.299-.112-.747-.234-1.344-.364-.812-.178-1.391-.434-1.736-.77-.336-.336-.504-.77-.504-1.302 0-.355.102-.691.308-1.008.214-.327.522-.588.924-.784.41-.206.9-.308 1.47-.308.597 0 1.106.098 1.526.294.42.196.732.429.938.7.214.261.322.48.322.658a.266.266 0 01-.098.21.285.285 0 01-.21.084h-.588a.345.345 0 01-.28-.14 3.31 3.31 0 00-.392-.406 1.247 1.247 0 00-.462-.266c-.196-.075-.448-.112-.756-.112-.448 0-.794.098-1.036.294a.888.888 0 00-.364.742c0 .196.051.364.154.504.102.13.298.252.588.364.298.112.728.228 1.288.35.886.186 1.512.457 1.876.812.373.345.56.788.56 1.33 0 .401-.117.765-.35 1.092-.234.326-.579.583-1.036.77-.448.186-.985.28-1.61.28zm4.84-.14a.355.355 0 01-.238-.084.355.355 0 01-.084-.238v-1.008c0-.094.028-.168.084-.224a.323.323 0 01.238-.098h1.008a.32.32 0 01.238.098c.066.056.098.13.098.224v1.008a.323.323 0 01-.098.238.351.351 0 01-.238.084h-1.008z" opacity=".6" fill="#09192B"/><path d="M57.49 221.013c-1.876 0-3.304-.504-4.284-1.512-.966-1.008-1.484-2.401-1.554-4.179a56.48 56.48 0 01-.02-1.848c0-.868.006-1.498.02-1.89.07-1.764.595-3.15 1.575-4.158.98-1.022 2.401-1.533 4.263-1.533 1.246 0 2.303.224 3.171.672.868.434 1.526 1.008 1.974 1.722.448.714.693 1.477.735 2.289v.042c0 .112-.049.21-.147.294a.445.445 0 01-.294.105h-1.155c-.28 0-.455-.161-.525-.483-.238-1.05-.665-1.785-1.28-2.205-.617-.434-1.443-.651-2.479-.651-2.408 0-3.654 1.337-3.738 4.011-.014.378-.02.959-.02 1.743 0 .784.006 1.379.02 1.785.084 2.674 1.33 4.011 3.738 4.011 1.036 0 1.862-.21 2.478-.63.63-.434 1.057-1.176 1.281-2.226.042-.182.105-.308.19-.378a.508.508 0 01.335-.105h1.155c.126 0 .231.042.315.126.098.07.14.168.126.294a4.733 4.733 0 01-.735 2.31c-.448.714-1.106 1.295-1.974 1.743-.868.434-1.925.651-3.17.651zm14.987 0c-1.834 0-3.255-.476-4.263-1.428-.994-.966-1.52-2.415-1.575-4.347a57.37 57.37 0 01-.021-1.785c0-.77.007-1.358.02-1.764.057-1.89.603-3.325 1.639-4.305 1.036-.994 2.436-1.491 4.2-1.491 1.75 0 3.143.497 4.179 1.491 1.036.98 1.582 2.415 1.638 4.305.028.812.042 1.4.042 1.764 0 .35-.014.945-.042 1.785-.056 1.932-.588 3.381-1.596 4.347-.994.952-2.401 1.428-4.221 1.428zm0-1.785c1.106 0 1.988-.336 2.646-1.008.658-.672 1.015-1.701 1.07-3.087.029-.84.043-1.4.043-1.68 0-.308-.014-.868-.042-1.68-.056-1.386-.42-2.415-1.092-3.087-.658-.672-1.533-1.008-2.625-1.008-1.106 0-1.995.336-2.667 1.008-.658.672-1.015 1.701-1.071 3.087-.014.406-.021.966-.021 1.68 0 .7.007 1.26.02 1.68.057 1.386.414 2.415 1.072 3.087.672.672 1.56 1.008 2.667 1.008zm10.025-3.843a.53.53 0 01-.357-.126.53.53 0 01-.126-.357v-.798c0-.14.042-.252.126-.336a.486.486 0 01.357-.147h6.3a.42.42 0 01.336.147.42.42 0 01.147.336v.798a.49.49 0 01-.147.357.454.454 0 01-.336.126h-6.3zm11.406 5.418a.53.53 0 01-.357-.126.53.53 0 01-.126-.357v-13.713c0-.154.042-.273.126-.357a.486.486 0 01.357-.147h4.767c2.114 0 3.64.476 4.578 1.428.938.938 1.428 2.359 1.47 4.263.014.406.021.952.021 1.638 0 .686-.007 1.239-.021 1.659-.042 1.33-.266 2.415-.672 3.255-.392.826-1.015 1.442-1.869 1.848-.854.406-1.988.609-3.402.609h-4.872zm4.767-1.785c.966 0 1.729-.133 2.289-.399a2.42 2.42 0 001.239-1.26c.266-.588.413-1.372.441-2.352.028-.84.042-1.365.042-1.575 0-.224-.014-.742-.042-1.554-.028-1.386-.357-2.394-.987-3.024-.63-.644-1.66-.966-3.087-.966h-3.087v11.13h3.192zm10.711 1.785a.53.53 0 01-.357-.126.53.53 0 01-.126-.357v-13.713c0-.154.042-.273.126-.357a.486.486 0 01.357-.147h8.673a.42.42 0 01.336.147.445.445 0 01.147.357v.798a.53.53 0 01-.126.357c-.084.084-.203.126-.357.126h-7.14v4.599h6.678a.42.42 0 01.336.147.445.445 0 01.147.357v.777c0 .14-.049.259-.147.357a.454.454 0 01-.336.126h-6.678v4.767h7.308c.154 0 .273.042.357.126.084.084.126.203.126.357v.819c0 .14-.049.259-.147.357a.454.454 0 01-.336.126h-8.841zm17.457 0c-.378 0-.637-.182-.777-.546l-4.683-13.503-.042-.231c0-.112.042-.21.126-.294a.403.403 0 01.294-.126h1.092c.266 0 .455.126.567.378l4.095 11.907 4.116-11.907a.595.595 0 01.189-.252.53.53 0 01.357-.126h1.092c.112 0 .21.042.294.126a.378.378 0 01.147.294l-.042.231-4.704 13.503c-.14.364-.392.546-.756.546h-1.365zm10.875 0a.53.53 0 01-.357-.126.53.53 0 01-.126-.357v-13.713c0-.154.042-.273.126-.357a.486.486 0 01.357-.147h8.673a.42.42 0 01.336.147.445.445 0 01.147.357v.798a.53.53 0 01-.126.357c-.084.084-.203.126-.357.126h-7.14v4.599h6.678a.42.42 0 01.336.147.445.445 0 01.147.357v.777c0 .14-.049.259-.147.357a.454.454 0 01-.336.126h-6.678v4.767h7.308c.154 0 .273.042.357.126.084.084.126.203.126.357v.819c0 .14-.049.259-.147.357a.454.454 0 01-.336.126h-8.841zm13.736 0a.53.53 0 01-.357-.126.53.53 0 01-.126-.357v-13.734c0-.14.042-.252.126-.336a.486.486 0 01.357-.147h1.113a.42.42 0 01.336.147.42.42 0 01.147.336v12.39h6.972c.154 0 .273.049.357.147a.445.445 0 01.147.357v.84c0 .14-.049.259-.147.357a.53.53 0 01-.357.126h-8.568zm17.437.21c-1.834 0-3.255-.476-4.263-1.428-.994-.966-1.519-2.415-1.575-4.347a57.37 57.37 0 01-.021-1.785c0-.77.007-1.358.021-1.764.056-1.89.602-3.325 1.638-4.305 1.036-.994 2.436-1.491 4.2-1.491 1.75 0 3.143.497 4.179 1.491 1.036.98 1.582 2.415 1.638 4.305.028.812.042 1.4.042 1.764 0 .35-.014.945-.042 1.785-.056 1.932-.588 3.381-1.596 4.347-.994.952-2.401 1.428-4.221 1.428zm0-1.785c1.106 0 1.988-.336 2.646-1.008.658-.672 1.015-1.701 1.071-3.087.028-.84.042-1.4.042-1.68 0-.308-.014-.868-.042-1.68-.056-1.386-.42-2.415-1.092-3.087-.658-.672-1.533-1.008-2.625-1.008-1.106 0-1.995.336-2.667 1.008-.658.672-1.015 1.701-1.071 3.087-.014.406-.021.966-.021 1.68 0 .7.007 1.26.021 1.68.056 1.386.413 2.415 1.071 3.087.672.672 1.561 1.008 2.667 1.008zm10.403 1.575a.53.53 0 01-.357-.126.53.53 0 01-.126-.357v-13.713c0-.154.042-.273.126-.357a.486.486 0 01.357-.147h5.334c1.582 0 2.828.385 3.738 1.155.91.77 1.365 1.883 1.365 3.339s-.455 2.569-1.365 3.339c-.896.756-2.142 1.134-3.738 1.134h-3.717v5.25c0 .14-.049.259-.147.357a.53.53 0 01-.357.126h-1.113zm5.229-7.497c1.022 0 1.792-.231 2.31-.693.532-.462.798-1.134.798-2.016 0-.882-.259-1.554-.777-2.016-.518-.476-1.295-.714-2.331-.714h-3.633v5.439h3.633zm9.244 7.497a.53.53 0 01-.357-.126.53.53 0 01-.126-.357v-13.713c0-.154.042-.273.126-.357a.486.486 0 01.357-.147h1.05c.224 0 .406.112.546.336l4.431 8.484 4.473-8.484a.517.517 0 01.168-.231.598.598 0 01.357-.105h1.029c.154 0 .273.049.357.147a.445.445 0 01.147.357v13.713c0 .14-.049.259-.147.357a.53.53 0 01-.357.126h-1.029a.53.53 0 01-.357-.126.53.53 0 01-.126-.357v-10.332l-3.507 6.846c-.14.294-.364.441-.672.441h-.651c-.308 0-.532-.147-.672-.441l-3.528-6.846v10.332c0 .14-.049.259-.147.357a.454.454 0 01-.336.126h-1.029zm17.673 0a.53.53 0 01-.357-.126.53.53 0 01-.126-.357v-13.713c0-.154.042-.273.126-.357a.486.486 0 01.357-.147h8.673a.42.42 0 01.336.147.445.445 0 01.147.357v.798a.53.53 0 01-.126.357c-.084.084-.203.126-.357.126h-7.14v4.599h6.678a.42.42 0 01.336.147.445.445 0 01.147.357v.777c0 .14-.049.259-.147.357a.454.454 0 01-.336.126h-6.678v4.767h7.308c.154 0 .273.042.357.126.084.084.126.203.126.357v.819c0 .14-.049.259-.147.357a.454.454 0 01-.336.126h-8.841zm13.735 0a.53.53 0 01-.357-.126.53.53 0 01-.126-.357v-13.713c0-.154.042-.273.126-.357a.486.486 0 01.357-.147h.966c.252 0 .427.098.525.294l6.972 10.71v-10.5c0-.154.042-.273.126-.357a.486.486 0 01.357-.147h1.008c.154 0 .273.049.357.147.099.084.147.203.147.357v13.692c0 .14-.048.259-.147.357a.42.42 0 01-.336.147h-1.008c-.21 0-.378-.098-.504-.294l-6.951-10.605v10.416c0 .14-.049.259-.147.357a.53.53 0 01-.357.126h-1.008zm18.815 0a.53.53 0 01-.357-.126.53.53 0 01-.126-.357v-12.348h-4.032a.53.53 0 01-.357-.126.53.53 0 01-.126-.357v-.882a.53.53 0 01.126-.357.486.486 0 01.357-.147h10.122c.154 0 .273.049.357.147a.445.445 0 01.147.357v.882c0 .14-.049.259-.147.357a.53.53 0 01-.357.126h-4.011v12.348c0 .14-.049.259-.147.357a.53.53 0 01-.357.126h-1.092z" opacity=".9" fill="#09192B"/><path d="M161.578 72.754c0 6.213-5.062 11.262-11.321 11.262-6.259 0-11.321-5.049-11.321-11.262 0-6.214 5.062-11.263 11.321-11.263 6.259 0 11.321 5.049 11.321 11.263z" stroke="#1A61B7" stroke-width="3"/><path d="M117.987 142.826c0 4.522-3.684 8.199-8.243 8.199-4.56 0-8.244-3.677-8.244-8.199s3.684-8.2 8.244-8.2c4.559 0 8.243 3.678 8.243 8.2zm40.513 0c0 4.486-3.762 8.199-8.5 8.199-4.738 0-8.5-3.713-8.5-8.199s3.762-8.2 8.5-8.2c4.738 0 8.5 3.714 8.5 8.2zm40 0c0 4.522-3.685 8.199-8.244 8.199-4.559 0-8.243-3.677-8.243-8.199s3.684-8.2 8.243-8.2 8.244 3.678 8.244 8.2z" stroke="#C7DEEF" stroke-width="3"/><path fill="#F29665" d="M109.23 103.518h82.052v2.042H109.23z"/><path fill="#F29665" d="M109.23 104.539h2.051v20.42h-2.051z"/><rect x="149.23" y="88.713" width="2.051" height="37.266" rx="1.026" fill="#F29665"/><path fill="#F29665" d="M189.23 105.56h2.051v20.42h-2.051z"/><path d="M105.641 121.896l4.616 4.084 5.128-4.084m30.256 1.021l4.616 4.083 5.128-4.083m30.255 0l4.616 4.083 5.128-4.083" stroke="#F29665" stroke-width="3" stroke-linecap="round"/></svg>