<svg width="378" height="87" fill="none" xmlns="http://www.w3.org/2000/svg"><path opacity=".2" d="M18.06 85.27c-7.84 0-14.934-1.717-21.28-5.152-6.273-3.51-11.2-8.288-14.785-14.336-3.584-6.123-5.376-12.992-5.376-20.608s1.792-14.448 5.376-20.496c3.584-6.123 8.55-10.901 14.896-14.336 6.347-3.51 13.44-5.264 21.28-5.264 6.123 0 11.723 1.045 16.8 3.136 5.078 2.016 9.408 5.04 12.992 9.072l-7.28 7.056c-5.898-6.197-13.253-9.296-22.064-9.296-5.824 0-11.088 1.307-15.792 3.92-4.704 2.613-8.4 6.235-11.088 10.864-2.613 4.555-3.92 9.67-3.92 15.344 0 5.675 1.307 10.827 3.92 15.456 2.688 4.555 6.384 8.139 11.088 10.752 4.704 2.613 9.968 3.92 15.792 3.92 8.736 0 16.091-3.136 22.064-9.408l7.28 7.056c-3.584 4.032-7.952 7.093-13.104 9.184-5.077 2.09-10.677 3.136-16.8 3.136zm95.542-60.256v59.36H103.41v-8.96c-2.166 3.061-5.04 5.45-8.624 7.168-3.51 1.643-7.355 2.464-11.537 2.464-7.914 0-14.149-2.165-18.703-6.496-4.555-4.405-6.833-10.864-6.833-19.376v-34.16h10.753v32.928c0 5.75 1.38 10.117 4.144 13.104 2.762 2.912 6.72 4.368 11.871 4.368 5.675 0 10.155-1.717 13.44-5.152 3.286-3.435 4.929-8.288 4.929-14.56V25.014h10.752zM131.83 1.27h10.752v83.104H131.83V1.27zm63.84 79.632c-1.568 1.344-3.51 2.39-5.824 3.136a25.58 25.58 0 01-7.168 1.008c-5.974 0-10.603-1.605-13.888-4.816-3.286-3.21-4.928-7.803-4.928-13.776V33.862h-10.08v-8.848h10.08V12.022h10.752v12.992h17.024v8.848h-17.024v32.144c0 3.21.784 5.675 2.352 7.392 1.642 1.717 3.957 2.576 6.944 2.576 3.285 0 6.085-.933 8.4-2.8l3.36 7.728zm66.087-55.888v59.36h-10.192v-8.96c-2.166 3.061-5.041 5.45-8.625 7.168-3.509 1.643-7.354 2.464-11.535 2.464-7.915 0-14.15-2.165-18.704-6.496-4.555-4.405-6.833-10.864-6.833-19.376v-34.16h10.752v32.928c0 5.75 1.382 10.117 4.145 13.104 2.762 2.912 6.72 4.368 11.872 4.368 5.674 0 10.154-1.717 13.44-5.152 3.285-3.435 4.928-8.288 4.928-14.56V25.014h10.752zm28.532 9.968c1.867-3.435 4.63-6.048 8.288-7.84 3.659-1.792 8.102-2.688 13.328-2.688V34.87c-.597-.075-1.418-.112-2.464-.112-5.824 0-10.416 1.755-13.776 5.264-3.285 3.435-4.928 8.363-4.928 14.784v29.568h-10.752v-59.36h10.304v9.968zm85.729 20.048c0 .821-.074 1.904-.224 3.248h-48.16c.672 5.227 2.95 9.445 6.832 12.656 3.958 3.136 8.848 4.704 14.672 4.704 7.094 0 12.806-2.39 17.136-7.168l5.936 6.944c-2.688 3.136-6.048 5.525-10.08 7.168-3.957 1.643-8.4 2.464-13.328 2.464-6.272 0-11.834-1.27-16.688-3.808-4.853-2.613-8.624-6.235-11.312-10.864-2.613-4.63-3.92-9.856-3.92-15.68 0-5.75 1.27-10.939 3.808-15.568 2.614-4.63 6.16-8.213 10.64-10.752 4.555-2.613 9.67-3.92 15.344-3.92 5.675 0 10.715 1.307 15.12 3.92 4.48 2.539 7.952 6.123 10.416 10.752 2.539 4.63 3.808 9.93 3.808 15.904zm-29.344-21.504c-5.152 0-9.482 1.568-12.992 4.704-3.434 3.136-5.45 7.243-6.048 12.32h38.08c-.597-5.003-2.65-9.072-6.16-12.208-3.434-3.21-7.728-4.816-12.88-4.816z" stroke="#0066B3" stroke-width="2"/></svg>