<svg viewBox="0 0 300 404" fill="none" xmlns="http://www.w3.org/2000/svg"><rect y=".525" width="300" height="402.5" rx="3" fill="#fff"/><path d="M64.556 270.525c-.242 0-.387-.126-.433-.378l-1.807-8.988a.792.792 0 01-.014-.154c0-.075.029-.14.084-.196a.269.269 0 01.197-.084h.727c.197 0 .308.079.337.238l1.428 7.224 1.511-4.956c.085-.224.234-.336.448-.336h.518c.122 0 .215.033.28.098a.502.502 0 01.155.238l1.526 4.956 1.413-7.224c.028-.159.145-.238.35-.238h.728c.075 0 .14.028.197.084a.268.268 0 01.084.196l-.014.154-1.806 8.988c-.056.252-.201.378-.434.378h-.547c-.242 0-.396-.117-.462-.35l-1.736-5.334-1.722 5.334c-.074.233-.228.35-.461.35h-.546zm11.989.14c-.962 0-1.732-.294-2.31-.882-.57-.597-.882-1.409-.938-2.436l-.014-.476.014-.462c.065-1.008.382-1.811.952-2.408.578-.597 1.339-.896 2.282-.896 1.036 0 1.838.331 2.408.994.569.653.854 1.54.854 2.66v.238a.324.324 0 01-.098.238.303.303 0 01-.224.084h-4.844v.126c.028.607.21 1.125.546 1.554.345.42.798.63 1.358.63.429 0 .779-.084 1.05-.252.28-.177.485-.359.616-.546.084-.112.144-.177.182-.196a.491.491 0 01.238-.042h.686c.084 0 .154.023.21.07a.242.242 0 01.084.196c0 .205-.131.453-.392.742-.252.289-.612.541-1.078.756-.458.205-.985.308-1.582.308zm1.918-4.312v-.042c0-.644-.178-1.167-.532-1.568-.346-.411-.812-.616-1.4-.616-.588 0-1.055.205-1.4.616-.336.401-.504.924-.504 1.568v.042h3.836zm6.771 4.172a.353.353 0 01-.238-.084.353.353 0 01-.084-.238v-9.296c0-.093.028-.168.084-.224a.325.325 0 01.238-.098h.7a.28.28 0 01.224.098.28.28 0 01.098.224v3.262a2.72 2.72 0 01.952-.784c.364-.187.817-.28 1.358-.28.896 0 1.592.289 2.086.868.504.569.756 1.33.756 2.282v3.948a.324.324 0 01-.098.238.303.303 0 01-.224.084h-.7a.353.353 0 01-.238-.084.353.353 0 01-.084-.238v-3.878c0-.663-.163-1.176-.49-1.54-.317-.364-.779-.546-1.386-.546-.588 0-1.059.187-1.414.56-.345.364-.518.873-.518 1.526v3.878a.324.324 0 01-.098.238.303.303 0 01-.224.084h-.7zm11.108.14c-.962 0-1.732-.294-2.31-.882-.57-.597-.882-1.409-.938-2.436l-.014-.476.014-.462c.065-1.008.382-1.811.952-2.408.578-.597 1.339-.896 2.282-.896 1.036 0 1.838.331 2.408.994.569.653.854 1.54.854 2.66v.238a.324.324 0 01-.098.238.303.303 0 01-.224.084h-4.844v.126c.028.607.21 1.125.546 1.554.345.42.798.63 1.358.63.429 0 .779-.084 1.05-.252.28-.177.485-.359.616-.546.084-.112.144-.177.182-.196a.49.49 0 01.238-.042h.686c.084 0 .154.023.21.07a.242.242 0 01.084.196c0 .205-.131.453-.392.742-.252.289-.612.541-1.078.756-.458.205-.985.308-1.582.308zm1.918-4.312v-.042c0-.644-.178-1.167-.532-1.568-.346-.411-.812-.616-1.4-.616-.588 0-1.055.205-1.4.616-.336.401-.504.924-.504 1.568v.042h3.836zm3.34 4.172a.351.351 0 01-.238-.084.353.353 0 01-.084-.238v-9.296c0-.093.028-.168.084-.224a.324.324 0 01.238-.098h.658c.093 0 .168.033.224.098a.282.282 0 01.098.224v9.296a.325.325 0 01-.098.238.303.303 0 01-.224.084h-.658zm3.404 2.66a.325.325 0 01-.238-.098.303.303 0 01-.084-.224v-9.296c0-.093.028-.168.084-.224a.325.325 0 01.238-.098h.644c.093 0 .168.033.224.098a.282.282 0 01.098.224v.616c.523-.719 1.288-1.078 2.296-1.078.98 0 1.713.308 2.198.924.495.616.761 1.409.798 2.38.009.103.014.261.014.476 0 .215-.005.373-.014.476-.037.961-.303 1.755-.798 2.38-.495.616-1.227.924-2.198.924-.971 0-1.727-.35-2.268-1.05v3.248a.303.303 0 01-.084.224.282.282 0 01-.224.098h-.686zm2.968-3.654c.663 0 1.143-.205 1.442-.616.308-.411.476-.952.504-1.624.009-.093.014-.229.014-.406 0-1.764-.653-2.646-1.96-2.646-.644 0-1.129.215-1.456.644-.317.42-.49.924-.518 1.512l-.014.532.014.546c.019.551.196 1.031.532 1.442.336.411.817.616 1.442.616zm9.359 3.654a.268.268 0 01-.196-.084.268.268 0 01-.084-.196c0-.065.023-.149.07-.252l1.078-2.562-2.674-6.314a.887.887 0 01-.07-.238.285.285 0 01.294-.294h.686c.149 0 .261.079.336.238l2.128 5.096 2.184-5.096c.074-.159.191-.238.35-.238h.658c.084 0 .154.028.21.084a.268.268 0 01.084.196c0 .028-.024.112-.07.252l-3.976 9.17c-.075.159-.192.238-.35.238h-.658zm9.186-2.52c-1.027 0-1.825-.289-2.394-.868-.56-.579-.859-1.349-.896-2.31l-.014-.602.014-.602c.037-.952.341-1.717.91-2.296.569-.588 1.363-.882 2.38-.882s1.811.294 2.38.882c.569.579.873 1.344.91 2.296.009.103.014.303.014.602s-.005.499-.014.602c-.037.961-.341 1.731-.91 2.31-.56.579-1.353.868-2.38.868zm0-1.078c.588 0 1.05-.187 1.386-.56.345-.373.532-.91.56-1.61.009-.093.014-.271.014-.532s-.005-.439-.014-.532c-.028-.7-.215-1.237-.56-1.61-.336-.373-.798-.56-1.386-.56-.588 0-1.055.187-1.4.56-.345.373-.527.91-.546 1.61l-.014.532.014.532c.019.7.201 1.237.546 1.61.345.373.812.56 1.4.56zm7.773 1.078c-.887 0-1.573-.285-2.058-.854-.485-.579-.728-1.344-.728-2.296v-3.948c0-.093.028-.168.084-.224a.325.325 0 01.238-.098h.7c.093 0 .168.033.224.098a.282.282 0 01.098.224v3.878c0 1.391.607 2.086 1.82 2.086.588 0 1.055-.182 1.4-.546.345-.373.518-.887.518-1.54v-3.878c0-.093.028-.168.084-.224a.325.325 0 01.238-.098h.7c.093 0 .168.033.224.098a.303.303 0 01.084.224v6.636a.353.353 0 01-.084.238.303.303 0 01-.224.084h-.658a.353.353 0 01-.238-.084.353.353 0 01-.084-.238v-.616a2.64 2.64 0 01-.952.812c-.373.177-.835.266-1.386.266zm12.736 0c-1.008 0-1.774-.35-2.296-1.05v.588a.325.325 0 01-.098.238.303.303 0 01-.224.084h-.644a.351.351 0 01-.238-.084.353.353 0 01-.084-.238v-9.296c0-.093.028-.168.084-.224a.324.324 0 01.238-.098h.686c.093 0 .168.033.224.098a.303.303 0 01.084.224v3.22c.55-.681 1.306-1.022 2.268-1.022.97 0 1.703.322 2.198.966.494.635.76 1.433.798 2.394.009.103.014.243.014.42s-.005.317-.014.42c-.038.971-.304 1.773-.798 2.408-.495.635-1.228.952-2.198.952zm-.294-1.134c.662 0 1.143-.205 1.442-.616.308-.411.476-.952.504-1.624.009-.093.014-.229.014-.406 0-1.764-.654-2.646-1.96-2.646-.626 0-1.106.205-1.442.616a2.335 2.335 0 00-.532 1.442l-.014.546.014.532c.028.588.2 1.097.518 1.526.326.42.812.63 1.456.63zm7.934 1.134c-.962 0-1.732-.294-2.31-.882-.57-.597-.882-1.409-.938-2.436l-.014-.476.014-.462c.065-1.008.382-1.811.952-2.408.578-.597 1.339-.896 2.282-.896 1.036 0 1.838.331 2.408.994.569.653.854 1.54.854 2.66v.238a.325.325 0 01-.098.238.303.303 0 01-.224.084h-4.844v.126c.028.607.21 1.125.546 1.554.345.42.798.63 1.358.63.429 0 .779-.084 1.05-.252.28-.177.485-.359.616-.546.084-.112.144-.177.182-.196a.49.49 0 01.238-.042h.686c.084 0 .154.023.21.07a.242.242 0 01.084.196c0 .205-.131.453-.392.742-.252.289-.612.541-1.078.756-.458.205-.985.308-1.582.308zm1.918-4.312v-.042c0-.644-.178-1.167-.532-1.568-.346-.411-.812-.616-1.4-.616-.588 0-1.055.205-1.4.616-.336.401-.504.924-.504 1.568v.042h3.836zm5.805 4.172c-1.475 0-2.212-.821-2.212-2.464v-3.696h-1.092a.351.351 0 01-.238-.084.353.353 0 01-.084-.238v-.476c0-.093.028-.168.084-.224a.324.324 0 01.238-.098h1.092v-2.338c0-.093.028-.168.084-.224a.324.324 0 01.238-.098h.658c.093 0 .168.033.224.098a.282.282 0 01.098.224v2.338h1.736c.093 0 .168.033.224.098a.282.282 0 01.098.224v.476a.325.325 0 01-.098.238.303.303 0 01-.224.084h-1.736v3.598c0 .467.079.821.238 1.064.158.233.42.35.784.35h.854c.093 0 .168.033.224.098a.282.282 0 01.098.224v.504a.325.325 0 01-.098.238.303.303 0 01-.224.084h-.966zm5.469 0c-1.475 0-2.212-.821-2.212-2.464v-3.696h-1.092a.351.351 0 01-.238-.084.353.353 0 01-.084-.238v-.476c0-.093.028-.168.084-.224a.324.324 0 01.238-.098h1.092v-2.338c0-.093.028-.168.083-.224a.328.328 0 01.239-.098h.658c.093 0 .168.033.224.098a.282.282 0 01.098.224v2.338h1.736c.093 0 .168.033.224.098a.282.282 0 01.098.224v.476a.325.325 0 01-.098.238.303.303 0 01-.224.084h-1.736v3.598c0 .467.079.821.238 1.064.158.233.42.35.784.35h.854c.093 0 .168.033.224.098a.282.282 0 01.098.224v.504a.325.325 0 01-.098.238.303.303 0 01-.224.084h-.966zm5.538.14c-.961 0-1.731-.294-2.31-.882-.569-.597-.882-1.409-.938-2.436l-.014-.476.014-.462c.066-1.008.383-1.811.952-2.408.579-.597 1.34-.896 2.282-.896 1.036 0 1.839.331 2.408.994.57.653.854 1.54.854 2.66v.238a.321.321 0 01-.098.238.302.302 0 01-.224.084h-4.844v.126c.028.607.21 1.125.546 1.554.346.42.798.63 1.358.63.43 0 .78-.084 1.05-.252.28-.177.486-.359.616-.546.084-.112.145-.177.182-.196a.492.492 0 01.238-.042h.686c.084 0 .154.023.21.07a.242.242 0 01.084.196c0 .205-.13.453-.392.742-.252.289-.611.541-1.078.756-.457.205-.984.308-1.582.308zm1.918-4.312v-.042c0-.644-.177-1.167-.532-1.568-.345-.411-.812-.616-1.4-.616-.588 0-1.054.205-1.4.616-.336.401-.504.924-.504 1.568v.042h3.836zm3.326 4.172a.355.355 0 01-.238-.084.353.353 0 01-.084-.238v-6.622c0-.093.028-.173.084-.238a.327.327 0 01.238-.098h.644c.094 0 .173.033.238.098a.321.321 0 01.098.238v.616c.383-.635 1.036-.952 1.96-.952h.546a.28.28 0 01.224.098.279.279 0 01.098.224v.574a.279.279 0 01-.098.224.302.302 0 01-.224.084h-.84c-.504 0-.9.149-1.19.448-.289.289-.434.686-.434 1.19v4.116a.321.321 0 01-.098.238.351.351 0 01-.238.084h-.686zm8.31-8.638a.353.353 0 01-.238-.084.353.353 0 01-.084-.238v-.756c0-.093.028-.173.084-.238a.325.325 0 01.238-.098h.882c.093 0 .173.033.238.098a.325.325 0 01.098.238v.756a.325.325 0 01-.098.238.353.353 0 01-.238.084h-.882zm.112 8.638a.353.353 0 01-.238-.084.353.353 0 01-.084-.238v-6.636c0-.093.028-.168.084-.224a.325.325 0 01.238-.098h.672c.093 0 .168.033.224.098a.282.282 0 01.098.224v6.636a.325.325 0 01-.098.238.303.303 0 01-.224.084h-.672zm5.729.14c-.971 0-1.704-.317-2.198-.952-.495-.635-.756-1.437-.784-2.408l-.014-.42.014-.42c.028-.961.289-1.759.784-2.394.494-.644 1.227-.966 2.198-.966.961 0 1.717.341 2.268 1.022v-3.22c0-.093.028-.168.084-.224a.324.324 0 01.238-.098h.672c.093 0 .168.033.224.098a.282.282 0 01.098.224v9.296a.325.325 0 01-.098.238.303.303 0 01-.224.084h-.63a.351.351 0 01-.238-.084.353.353 0 01-.084-.238v-.588c-.542.7-1.312 1.05-2.31 1.05zm.294-1.134c.644 0 1.124-.21 1.442-.63.326-.429.504-.938.532-1.526a6.99 6.99 0 00.014-.532c0-.261-.005-.443-.014-.546a2.341 2.341 0 00-.532-1.442c-.336-.411-.817-.616-1.442-.616-.663 0-1.148.205-1.456.616-.299.411-.462.952-.49 1.624l-.014.406c0 1.764.653 2.646 1.96 2.646zm8.284 1.134c-.961 0-1.731-.294-2.31-.882-.569-.597-.882-1.409-.938-2.436l-.014-.476.014-.462c.065-1.008.383-1.811.952-2.408.579-.597 1.339-.896 2.282-.896 1.036 0 1.839.331 2.408.994.569.653.854 1.54.854 2.66v.238a.325.325 0 01-.098.238.303.303 0 01-.224.084h-4.844v.126c.028.607.21 1.125.546 1.554.345.42.798.63 1.358.63.429 0 .779-.084 1.05-.252.28-.177.485-.359.616-.546.084-.112.145-.177.182-.196a.492.492 0 01.238-.042h.686c.084 0 .154.023.21.07a.242.242 0 01.084.196c0 .205-.131.453-.392.742-.252.289-.611.541-1.078.756-.457.205-.985.308-1.582.308zm1.918-4.312v-.042c0-.644-.177-1.167-.532-1.568-.345-.411-.812-.616-1.4-.616-.588 0-1.055.205-1.4.616-.336.401-.504.924-.504 1.568v.042h3.836zm3.326 4.172a.353.353 0 01-.238-.084.353.353 0 01-.084-.238v-6.636c0-.093.028-.168.084-.224a.325.325 0 01.238-.098h.658c.093 0 .168.033.224.098a.282.282 0 01.098.224v.616c.271-.345.588-.611.952-.798.373-.187.835-.28 1.386-.28.896 0 1.591.289 2.086.868.504.569.756 1.33.756 2.282v3.948a.325.325 0 01-.098.238.303.303 0 01-.224.084h-.7a.353.353 0 01-.238-.084.353.353 0 01-.084-.238v-3.878c0-.663-.163-1.176-.49-1.54-.317-.364-.779-.546-1.386-.546-.588 0-1.055.187-1.4.56-.345.364-.518.873-.518 1.526v3.878a.325.325 0 01-.098.238.303.303 0 01-.224.084h-.7zm10.914 0c-1.474 0-2.212-.821-2.212-2.464v-3.696h-1.092a.355.355 0 01-.238-.084.353.353 0 01-.084-.238v-.476c0-.093.028-.168.084-.224a.327.327 0 01.238-.098h1.092v-2.338c0-.093.028-.168.084-.224a.327.327 0 01.238-.098h.658a.28.28 0 01.224.098.279.279 0 01.098.224v2.338h1.736a.28.28 0 01.224.098.279.279 0 01.098.224v.476a.321.321 0 01-.098.238.302.302 0 01-.224.084h-1.736v3.598c0 .467.08.821.238 1.064.159.233.42.35.784.35h.854a.28.28 0 01.224.098.279.279 0 01.098.224v.504a.321.321 0 01-.098.238.302.302 0 01-.224.084h-.966zm2.837-8.638a.355.355 0 01-.238-.084.353.353 0 01-.084-.238v-.756c0-.093.028-.173.084-.238a.327.327 0 01.238-.098h.882c.094 0 .173.033.238.098a.321.321 0 01.098.238v.756a.321.321 0 01-.098.238.351.351 0 01-.238.084h-.882zm.112 8.638a.355.355 0 01-.238-.084.353.353 0 01-.084-.238v-6.636c0-.093.028-.168.084-.224a.327.327 0 01.238-.098h.672a.28.28 0 01.224.098.279.279 0 01.098.224v6.636a.321.321 0 01-.098.238.302.302 0 01-.224.084h-.672zm4.119 0a.351.351 0 01-.238-.084.353.353 0 01-.084-.238v-5.838h-1.19a.351.351 0 01-.238-.084.353.353 0 01-.084-.238v-.476c0-.093.028-.168.084-.224a.324.324 0 01.238-.098h1.19v-.7c0-1.587.802-2.38 2.408-2.38h.84c.093 0 .168.033.224.098a.282.282 0 01.098.224v.476a.325.325 0 01-.098.238.303.303 0 01-.224.084h-.812c-.42 0-.714.112-.882.336-.168.215-.252.546-.252.994v.63h1.806c.093 0 .168.033.224.098a.282.282 0 01.098.224v.476a.325.325 0 01-.098.238.303.303 0 01-.224.084h-1.806v5.838a.325.325 0 01-.098.238.303.303 0 01-.224.084h-.658zm5.611 2.66a.268.268 0 01-.196-.084.268.268 0 01-.084-.196c0-.065.023-.149.07-.252l1.078-2.562-2.674-6.314a.887.887 0 01-.07-.238.285.285 0 01.294-.294h.686c.149 0 .261.079.336.238l2.128 5.096 2.184-5.096c.074-.159.191-.238.35-.238h.658c.084 0 .154.028.21.084a.268.268 0 01.084.196c0 .028-.024.112-.07.252l-3.976 9.17c-.075.159-.192.238-.35.238h-.658zm5.559-1.61a.226.226 0 01-.182-.084.31.31 0 01-.042-.21l.322-2.002c.037-.271.168-.406.392-.406h.938c.065 0 .117.023.154.07.047.047.07.103.07.168a.97.97 0 01-.042.224l-.742 1.918a.611.611 0 01-.154.238c-.056.056-.14.084-.252.084h-.462zm-184.13 22.95a.353.353 0 01-.238-.084.353.353 0 01-.084-.238v-6.636c0-.093.028-.168.084-.224a.325.325 0 01.238-.098h.63a.28.28 0 01.224.098.28.28 0 01.098.224v.49c.486-.635 1.162-.952 2.03-.952 1.036 0 1.769.429 2.198 1.288.224-.392.542-.705.952-.938a2.76 2.76 0 011.386-.35c.766 0 1.391.261 1.876.784.486.523.728 1.279.728 2.268v4.046a.324.324 0 01-.098.238.303.303 0 01-.224.084h-.658a.353.353 0 01-.238-.084.353.353 0 01-.084-.238v-3.92c0-.728-.154-1.251-.462-1.568-.298-.317-.695-.476-1.19-.476-.438 0-.816.163-1.134.49-.317.317-.476.835-.476 1.554v3.92a.324.324 0 01-.098.238.303.303 0 01-.224.084h-.658a.353.353 0 01-.238-.084.353.353 0 01-.084-.238v-3.92c0-.728-.158-1.251-.476-1.568-.308-.317-.7-.476-1.176-.476-.438 0-.816.163-1.134.49-.317.317-.476.831-.476 1.54v3.934a.324.324 0 01-.098.238.303.303 0 01-.224.084h-.672zm14.15.14a2.92 2.92 0 01-1.274-.28 2.445 2.445 0 01-.938-.756 1.866 1.866 0 01-.336-1.078c0-.616.252-1.12.756-1.512.513-.401 1.204-.663 2.072-.784l2.086-.294v-.406c0-.952-.546-1.428-1.638-1.428-.41 0-.747.089-1.008.266a1.722 1.722 0 00-.588.602.38.38 0 01-.112.182c-.038.037-.094.056-.168.056h-.602a.334.334 0 01-.224-.084.334.334 0 01-.084-.224c.01-.224.112-.476.308-.756.205-.289.518-.537.938-.742.42-.215.938-.322 1.554-.322 1.045 0 1.796.247 2.254.742.457.485.686 1.092.686 1.82v4.536a.324.324 0 01-.098.238.303.303 0 01-.224.084H68.5a.353.353 0 01-.238-.084.353.353 0 01-.084-.238v-.602c-.206.299-.504.551-.896.756-.392.205-.892.308-1.498.308zm.294-1.05c.606 0 1.101-.196 1.484-.588.392-.401.588-.975.588-1.722v-.392l-1.624.238c-.663.093-1.162.252-1.498.476-.336.215-.504.49-.504.826 0 .373.154.663.462.868.308.196.672.294 1.092.294zm5.722.91a.353.353 0 01-.238-.084.353.353 0 01-.084-.238v-6.636c0-.093.028-.168.084-.224a.325.325 0 01.238-.098h.658a.28.28 0 01.224.098.28.28 0 01.098.224v.616c.271-.345.588-.611.952-.798.374-.187.836-.28 1.386-.28.896 0 1.592.289 2.086.868.504.569.756 1.33.756 2.282v3.948a.324.324 0 01-.098.238.303.303 0 01-.224.084h-.7a.353.353 0 01-.238-.084.353.353 0 01-.084-.238v-3.878c0-.663-.163-1.176-.49-1.54-.317-.364-.779-.546-1.386-.546-.588 0-1.054.187-1.4.56-.345.364-.518.873-.518 1.526v3.878a.324.324 0 01-.098.238.303.303 0 01-.224.084h-.7zm10.199.14a2.92 2.92 0 01-1.274-.28 2.445 2.445 0 01-.938-.756 1.866 1.866 0 01-.336-1.078c0-.616.252-1.12.756-1.512.513-.401 1.204-.663 2.072-.784l2.086-.294v-.406c0-.952-.546-1.428-1.638-1.428-.411 0-.747.089-1.008.266a1.723 1.723 0 00-.588.602.379.379 0 01-.112.182c-.038.037-.094.056-.168.056h-.602a.334.334 0 01-.224-.084.334.334 0 01-.084-.224c.009-.224.112-.476.308-.756.205-.289.518-.537.938-.742.42-.215.938-.322 1.554-.322 1.045 0 1.796.247 2.254.742.457.485.686 1.092.686 1.82v4.536a.324.324 0 01-.098.238.303.303 0 01-.224.084h-.644a.353.353 0 01-.238-.084.353.353 0 01-.084-.238v-.602c-.206.299-.504.551-.896.756-.392.205-.892.308-1.498.308zm.294-1.05c.606 0 1.1-.196 1.484-.588.392-.401.588-.975.588-1.722v-.392l-1.624.238c-.663.093-1.162.252-1.498.476-.336.215-.504.49-.504.826 0 .373.154.663.462.868.308.196.672.294 1.092.294zm8.382 3.99c-.765 0-1.381-.131-1.848-.392-.466-.252-.798-.541-.994-.868-.196-.327-.303-.621-.322-.882a.281.281 0 01.084-.238.358.358 0 01.238-.098h.672c.084 0 .154.019.21.056a.52.52 0 01.14.238c.112.299.294.555.546.77.261.224.663.336 1.204.336.69 0 1.2-.149 1.526-.448.327-.289.49-.807.49-1.554v-.952a2.69 2.69 0 01-.924.742c-.373.177-.816.266-1.33.266-.99 0-1.731-.313-2.226-.938-.485-.635-.742-1.437-.77-2.408l-.014-.392.014-.378c.028-.961.29-1.759.784-2.394.495-.644 1.232-.966 2.212-.966.98 0 1.746.359 2.296 1.078v-.602c0-.093.028-.173.084-.238a.325.325 0 01.238-.098h.644c.094 0 .173.033.238.098a.324.324 0 01.098.238v6.79c0 2.156-1.096 3.234-3.29 3.234zm-.028-4.144c.635 0 1.115-.21 1.442-.63.327-.42.504-.919.532-1.498a5.45 5.45 0 00.014-.49c0-.233-.004-.392-.014-.476-.028-.579-.205-1.078-.532-1.498-.317-.42-.798-.63-1.442-.63-.662 0-1.143.205-1.442.616-.299.411-.462.952-.49 1.624l-.014.364.014.378c.028.663.192 1.204.49 1.624.299.411.78.616 1.442.616zm8.312 1.204c-.962 0-1.732-.294-2.31-.882-.57-.597-.882-1.409-.938-2.436l-.014-.476.014-.462c.065-1.008.382-1.811.952-2.408.578-.597 1.34-.896 2.282-.896 1.036 0 1.838.331 2.408.994.569.653.854 1.54.854 2.66v.238a.325.325 0 01-.098.238.303.303 0 01-.224.084h-4.844v.126c.028.607.21 1.125.546 1.554.345.42.798.63 1.358.63.43 0 .78-.084 1.05-.252.28-.177.485-.359.616-.546.084-.112.144-.177.182-.196a.49.49 0 01.238-.042h.686c.084 0 .154.023.21.07a.242.242 0 01.084.196c0 .205-.131.453-.392.742-.252.289-.612.541-1.078.756-.458.205-.985.308-1.582.308zm1.918-4.312v-.042c0-.644-.178-1.167-.532-1.568-.346-.411-.812-.616-1.4-.616-.588 0-1.055.205-1.4.616-.336.401-.504.924-.504 1.568v.042h3.836zm8.465 4.312c-.457 0-.882-.093-1.274-.28a2.45 2.45 0 01-.938-.756 1.866 1.866 0 01-.336-1.078c0-.616.252-1.12.756-1.512.514-.401 1.204-.663 2.072-.784l2.086-.294v-.406c0-.952-.546-1.428-1.638-1.428-.41 0-.746.089-1.008.266a1.729 1.729 0 00-.588.602.377.377 0 01-.112.182c-.037.037-.093.056-.168.056h-.602a.336.336 0 01-.224-.084.334.334 0 01-.084-.224c.01-.224.112-.476.308-.756.206-.289.518-.537.938-.742.42-.215.938-.322 1.554-.322 1.046 0 1.797.247 2.254.742.458.485.686 1.092.686 1.82v4.536a.321.321 0 01-.098.238.302.302 0 01-.224.084h-.644a.355.355 0 01-.238-.084.353.353 0 01-.084-.238v-.602c-.205.299-.504.551-.896.756-.392.205-.891.308-1.498.308zm.294-1.05c.607 0 1.102-.196 1.484-.588.392-.401.588-.975.588-1.722v-.392l-1.624.238c-.662.093-1.162.252-1.498.476-.336.215-.504.49-.504.826 0 .373.154.663.462.868.308.196.672.294 1.092.294zm5.723.91a.353.353 0 01-.238-.084.353.353 0 01-.084-.238v-6.636c0-.093.028-.168.084-.224a.325.325 0 01.238-.098h.658c.093 0 .168.033.224.098a.282.282 0 01.098.224v.616c.271-.345.588-.611.952-.798.373-.187.835-.28 1.386-.28.896 0 1.591.289 2.086.868.504.569.756 1.33.756 2.282v3.948a.325.325 0 01-.098.238.303.303 0 01-.224.084h-.7a.353.353 0 01-.238-.084.353.353 0 01-.084-.238v-3.878c0-.663-.163-1.176-.49-1.54-.317-.364-.779-.546-1.386-.546-.588 0-1.055.187-1.4.56-.345.364-.518.873-.518 1.526v3.878a.325.325 0 01-.098.238.303.303 0 01-.224.084h-.7zm10.828.14c-.97 0-1.703-.317-2.198-.952-.494-.635-.756-1.437-.784-2.408l-.014-.42.014-.42c.028-.961.29-1.759.784-2.394.495-.644 1.228-.966 2.198-.966.962 0 1.718.341 2.268 1.022v-3.22c0-.093.028-.168.084-.224a.327.327 0 01.238-.098h.672a.28.28 0 01.224.098.279.279 0 01.098.224v9.296a.321.321 0 01-.098.238.302.302 0 01-.224.084h-.63a.355.355 0 01-.238-.084.353.353 0 01-.084-.238v-.588c-.541.7-1.311 1.05-2.31 1.05zm.294-1.134c.644 0 1.125-.21 1.442-.63.327-.429.504-.938.532-1.526.01-.103.014-.28.014-.532a6.75 6.75 0 00-.014-.546 2.335 2.335 0 00-.532-1.442c-.336-.411-.816-.616-1.442-.616-.662 0-1.148.205-1.456.616-.298.411-.462.952-.49 1.624l-.014.406c0 1.764.654 2.646 1.96 2.646zm9.126.994a.353.353 0 01-.238-.084.353.353 0 01-.084-.238v-6.636c0-.093.028-.168.084-.224a.325.325 0 01.238-.098h.63c.093 0 .168.033.224.098a.282.282 0 01.098.224v.49c.485-.635 1.162-.952 2.03-.952 1.036 0 1.769.429 2.198 1.288a2.48 2.48 0 01.952-.938 2.76 2.76 0 011.386-.35c.765 0 1.391.261 1.876.784.485.523.728 1.279.728 2.268v4.046a.325.325 0 01-.098.238.303.303 0 01-.224.084h-.658a.353.353 0 01-.238-.084.353.353 0 01-.084-.238v-3.92c0-.728-.154-1.251-.462-1.568-.299-.317-.695-.476-1.19-.476-.439 0-.817.163-1.134.49-.317.317-.476.835-.476 1.554v3.92a.325.325 0 01-.098.238.303.303 0 01-.224.084h-.658a.353.353 0 01-.238-.084.353.353 0 01-.084-.238v-3.92c0-.728-.159-1.251-.476-1.568-.308-.317-.7-.476-1.176-.476-.439 0-.817.163-1.134.49-.317.317-.476.831-.476 1.54v3.934a.325.325 0 01-.098.238.303.303 0 01-.224.084h-.672zm12.329-8.638a.355.355 0 01-.238-.084.353.353 0 01-.084-.238v-.756c0-.093.028-.173.084-.238a.327.327 0 01.238-.098h.882c.094 0 .173.033.238.098a.321.321 0 01.098.238v.756a.321.321 0 01-.098.238.351.351 0 01-.238.084h-.882zm.112 8.638a.355.355 0 01-.238-.084.353.353 0 01-.084-.238v-6.636c0-.093.028-.168.084-.224a.327.327 0 01.238-.098h.672a.28.28 0 01.224.098.279.279 0 01.098.224v6.636a.321.321 0 01-.098.238.302.302 0 01-.224.084h-.672zm5.911 0c-1.475 0-2.212-.821-2.212-2.464v-3.696h-1.092a.353.353 0 01-.238-.084.353.353 0 01-.084-.238v-.476c0-.093.028-.168.084-.224a.325.325 0 01.238-.098h1.092v-2.338c0-.093.028-.168.084-.224a.325.325 0 01.238-.098h.658c.093 0 .168.033.224.098a.282.282 0 01.098.224v2.338h1.736c.093 0 .168.033.224.098a.282.282 0 01.098.224v.476a.325.325 0 01-.098.238.303.303 0 01-.224.084h-1.736v3.598c0 .467.079.821.238 1.064.159.233.42.35.784.35h.854c.093 0 .168.033.224.098a.282.282 0 01.098.224v.504a.325.325 0 01-.098.238.303.303 0 01-.224.084h-.966zm2.837-8.638a.351.351 0 01-.238-.084.353.353 0 01-.084-.238v-.756c0-.093.028-.173.084-.238a.324.324 0 01.238-.098h.882c.093 0 .172.033.238.098a.325.325 0 01.098.238v.756a.325.325 0 01-.098.238.355.355 0 01-.238.084h-.882zm.112 8.638a.351.351 0 01-.238-.084.353.353 0 01-.084-.238v-6.636c0-.093.028-.168.084-.224a.324.324 0 01.238-.098h.672c.093 0 .168.033.224.098a.282.282 0 01.098.224v6.636a.325.325 0 01-.098.238.303.303 0 01-.224.084h-.672zm6.05 3.08c-.765 0-1.381-.131-1.848-.392-.466-.252-.798-.541-.994-.868-.196-.327-.303-.621-.322-.882a.283.283 0 01.084-.238.359.359 0 01.238-.098h.672c.084 0 .154.019.21.056a.517.517 0 01.14.238c.112.299.294.555.546.77.262.224.663.336 1.204.336.691 0 1.2-.149 1.526-.448.327-.289.49-.807.49-1.554v-.952c-.242.308-.55.555-.924.742-.373.177-.816.266-1.33.266-.989 0-1.731-.313-2.226-.938-.485-.635-.742-1.437-.77-2.408l-.014-.392.014-.378c.028-.961.29-1.759.784-2.394.495-.644 1.232-.966 2.212-.966.98 0 1.746.359 2.296 1.078v-.602c0-.093.028-.173.084-.238a.327.327 0 01.238-.098h.644c.094 0 .173.033.238.098a.321.321 0 01.098.238v6.79c0 2.156-1.096 3.234-3.29 3.234zm-.028-4.144c.635 0 1.116-.21 1.442-.63.327-.42.504-.919.532-1.498.01-.084.014-.247.014-.49 0-.233-.004-.392-.014-.476-.028-.579-.205-1.078-.532-1.498-.317-.42-.798-.63-1.442-.63-.662 0-1.143.205-1.442.616-.298.411-.462.952-.49 1.624l-.014.364.014.378c.028.663.192 1.204.49 1.624.299.411.78.616 1.442.616zm7.43 1.204c-.457 0-.882-.093-1.274-.28a2.443 2.443 0 01-.938-.756 1.866 1.866 0 01-.336-1.078c0-.616.252-1.12.756-1.512.513-.401 1.204-.663 2.072-.784l2.086-.294v-.406c0-.952-.546-1.428-1.638-1.428-.411 0-.747.089-1.008.266a1.729 1.729 0 00-.588.602.377.377 0 01-.112.182c-.037.037-.093.056-.168.056h-.602a.334.334 0 01-.224-.084.334.334 0 01-.084-.224c.009-.224.112-.476.308-.756.205-.289.518-.537.938-.742.42-.215.938-.322 1.554-.322 1.045 0 1.797.247 2.254.742.457.485.686 1.092.686 1.82v4.536a.325.325 0 01-.098.238.303.303 0 01-.224.084h-.644a.353.353 0 01-.238-.084.353.353 0 01-.084-.238v-.602c-.205.299-.504.551-.896.756-.392.205-.891.308-1.498.308zm.294-1.05c.607 0 1.101-.196 1.484-.588.392-.401.588-.975.588-1.722v-.392l-1.624.238c-.663.093-1.162.252-1.498.476-.336.215-.504.49-.504.826 0 .373.154.663.462.868.308.196.672.294 1.092.294zm8.174.91c-1.474 0-2.212-.821-2.212-2.464v-3.696h-1.092a.355.355 0 01-.238-.084.353.353 0 01-.084-.238v-.476c0-.093.028-.168.084-.224a.327.327 0 01.238-.098h1.092v-2.338c0-.093.028-.168.084-.224a.327.327 0 01.238-.098h.658a.28.28 0 01.224.098.279.279 0 01.098.224v2.338h1.736a.28.28 0 01.224.098.279.279 0 01.098.224v.476a.321.321 0 01-.098.238.302.302 0 01-.224.084h-1.736v3.598c0 .467.08.821.238 1.064.159.233.42.35.784.35h.854a.28.28 0 01.224.098.279.279 0 01.098.224v.504a.321.321 0 01-.098.238.302.302 0 01-.224.084h-.966zm5.539.14c-.961 0-1.731-.294-2.31-.882-.569-.597-.882-1.409-.938-2.436l-.014-.476.014-.462c.065-1.008.383-1.811.952-2.408.579-.597 1.339-.896 2.282-.896 1.036 0 1.839.331 2.408.994.569.653.854 1.54.854 2.66v.238a.325.325 0 01-.098.238.303.303 0 01-.224.084h-4.844v.126c.028.607.21 1.125.546 1.554.345.42.798.63 1.358.63.429 0 .779-.084 1.05-.252.28-.177.485-.359.616-.546.084-.112.145-.177.182-.196a.492.492 0 01.238-.042h.686c.084 0 .154.023.21.07a.242.242 0 01.084.196c0 .205-.131.453-.392.742-.252.289-.611.541-1.078.756-.457.205-.985.308-1.582.308zm1.918-4.312v-.042c0-.644-.177-1.167-.532-1.568-.345-.411-.812-.616-1.4-.616-.588 0-1.055.205-1.4.616-.336.401-.504.924-.504 1.568v.042h3.836zm6.758 4.172a.351.351 0 01-.238-.084.353.353 0 01-.084-.238v-6.622c0-.093.028-.173.084-.238a.324.324 0 01.238-.098h.644c.093 0 .172.033.238.098a.325.325 0 01.098.238v.616c.382-.635 1.036-.952 1.96-.952h.546c.093 0 .168.033.224.098a.282.282 0 01.098.224v.574a.282.282 0 01-.098.224.303.303 0 01-.224.084h-.84c-.504 0-.901.149-1.19.448-.29.289-.434.686-.434 1.19v4.116a.325.325 0 01-.098.238.355.355 0 01-.238.084h-.686zm5.206-8.638a.353.353 0 01-.238-.084.353.353 0 01-.084-.238v-.756c0-.093.028-.173.084-.238a.325.325 0 01.238-.098h.882c.093 0 .173.033.238.098a.325.325 0 01.098.238v.756a.325.325 0 01-.098.238.353.353 0 01-.238.084h-.882zm.112 8.638a.353.353 0 01-.238-.084.353.353 0 01-.084-.238v-6.636c0-.093.028-.168.084-.224a.325.325 0 01.238-.098h.672c.093 0 .168.033.224.098a.282.282 0 01.098.224v6.636a.325.325 0 01-.098.238.303.303 0 01-.224.084h-.672zm5.589.14c-.654 0-1.204-.103-1.652-.308-.439-.215-.77-.457-.994-.728-.215-.271-.322-.495-.322-.672 0-.093.032-.163.098-.21a.37.37 0 01.224-.084h.63c.093 0 .177.047.252.14.224.261.466.467.728.616.261.149.611.224 1.05.224.485 0 .877-.093 1.176-.28.308-.196.462-.462.462-.798a.771.771 0 00-.196-.546c-.122-.149-.336-.275-.644-.378-.299-.112-.747-.233-1.344-.364-.812-.177-1.391-.434-1.736-.77-.336-.336-.504-.77-.504-1.302 0-.355.102-.691.308-1.008.214-.327.522-.588.924-.784.41-.205.9-.308 1.47-.308.597 0 1.106.098 1.526.294.42.196.732.429.938.7.214.261.322.481.322.658a.266.266 0 01-.098.21.285.285 0 01-.21.084h-.588a.345.345 0 01-.28-.14 3.384 3.384 0 00-.392-.406 1.261 1.261 0 00-.462-.266c-.196-.075-.448-.112-.756-.112-.448 0-.794.098-1.036.294a.89.89 0 00-.364.742c0 .196.051.364.154.504.102.131.298.252.588.364.298.112.728.229 1.288.35.886.187 1.512.457 1.876.812.373.345.56.789.56 1.33 0 .401-.117.765-.35 1.092-.234.327-.579.583-1.036.77-.448.187-.985.28-1.61.28zm4.952-.14a.355.355 0 01-.238-.084.353.353 0 01-.084-.238v-9.296c0-.093.028-.168.084-.224a.327.327 0 01.238-.098h.658a.28.28 0 01.224.098.279.279 0 01.098.224v4.872l2.758-2.296c.028-.019.075-.056.14-.112a.714.714 0 01.182-.098.868.868 0 01.238-.028h.742a.285.285 0 01.294.294c0 .103-.056.191-.168.266l-3.234 2.688 3.584 3.486c.112.093.168.177.168.252a.285.285 0 01-.294.294h-.728a.837.837 0 01-.308-.042 1.312 1.312 0 01-.252-.196l-3.122-2.982v2.898a.321.321 0 01-.098.238.302.302 0 01-.224.084h-.658zm9.266.14c-.653 0-1.204-.103-1.652-.308-.438-.215-.77-.457-.994-.728-.214-.271-.322-.495-.322-.672 0-.093.033-.163.098-.21a.375.375 0 01.224-.084h.63c.094 0 .178.047.252.14.224.261.467.467.728.616.262.149.612.224 1.05.224.486 0 .878-.093 1.176-.28.308-.196.462-.462.462-.798a.767.767 0 00-.196-.546c-.121-.149-.336-.275-.644-.378-.298-.112-.746-.233-1.344-.364-.812-.177-1.39-.434-1.736-.77-.336-.336-.504-.77-.504-1.302 0-.355.103-.691.308-1.008.215-.327.523-.588.924-.784.411-.205.901-.308 1.47-.308.598 0 1.106.098 1.526.294.42.196.733.429.938.7.215.261.322.481.322.658a.263.263 0 01-.098.21.285.285 0 01-.21.084h-.588a.346.346 0 01-.28-.14 3.308 3.308 0 00-.392-.406c-.102-.103-.256-.191-.462-.266-.196-.075-.448-.112-.756-.112-.448 0-.793.098-1.036.294a.892.892 0 00-.364.742c0 .196.052.364.154.504.103.131.299.252.588.364.299.112.728.229 1.288.35.887.187 1.512.457 1.876.812.374.345.56.789.56 1.33 0 .401-.116.765-.35 1.092-.233.327-.578.583-1.036.77-.448.187-.984.28-1.61.28zm10.079 0c-.458 0-.882-.093-1.274-.28a2.443 2.443 0 01-.938-.756 1.866 1.866 0 01-.336-1.078c0-.616.252-1.12.756-1.512.513-.401 1.204-.663 2.072-.784l2.086-.294v-.406c0-.952-.546-1.428-1.638-1.428-.411 0-.747.089-1.008.266a1.711 1.711 0 00-.588.602.384.384 0 01-.112.182c-.038.037-.094.056-.168.056h-.602a.334.334 0 01-.224-.084.334.334 0 01-.084-.224c.009-.224.112-.476.308-.756.205-.289.518-.537.938-.742.42-.215.938-.322 1.554-.322 1.045 0 1.796.247 2.254.742.457.485.686 1.092.686 1.82v4.536a.325.325 0 01-.098.238.303.303 0 01-.224.084h-.644a.351.351 0 01-.238-.084.353.353 0 01-.084-.238v-.602c-.206.299-.504.551-.896.756-.392.205-.892.308-1.498.308zm.294-1.05c.606 0 1.101-.196 1.484-.588.392-.401.588-.975.588-1.722v-.392l-1.624.238c-.663.093-1.162.252-1.498.476-.336.215-.504.49-.504.826 0 .373.154.663.462.868.308.196.672.294 1.092.294zm5.722.91a.355.355 0 01-.238-.084.353.353 0 01-.084-.238v-6.636c0-.093.028-.168.084-.224a.327.327 0 01.238-.098h.658a.28.28 0 01.224.098.279.279 0 01.098.224v.616c.271-.345.588-.611.952-.798.374-.187.836-.28 1.386-.28.896 0 1.592.289 2.086.868.504.569.756 1.33.756 2.282v3.948a.321.321 0 01-.098.238.302.302 0 01-.224.084h-.7a.355.355 0 01-.238-.084.353.353 0 01-.084-.238v-3.878c0-.663-.163-1.176-.49-1.54-.317-.364-.779-.546-1.386-.546-.588 0-1.054.187-1.4.56-.345.364-.518.873-.518 1.526v3.878a.321.321 0 01-.098.238.302.302 0 01-.224.084h-.7zm10.828.14c-.97 0-1.703-.317-2.197-.952-.495-.635-.757-1.437-.785-2.408l-.014-.42.014-.42c.028-.961.29-1.759.785-2.394.494-.644 1.227-.966 2.197-.966.962 0 1.718.341 2.268 1.022v-3.22c0-.093.028-.168.084-.224a.327.327 0 01.238-.098h.672a.28.28 0 01.224.098.279.279 0 01.098.224v9.296a.321.321 0 01-.098.238.302.302 0 01-.224.084h-.629a.356.356 0 01-.239-.084.353.353 0 01-.084-.238v-.588c-.541.7-1.311 1.05-2.31 1.05zm.294-1.134c.644 0 1.125-.21 1.442-.63.327-.429.504-.938.532-1.526.01-.103.014-.28.014-.532a6.75 6.75 0 00-.014-.546 2.335 2.335 0 00-.532-1.442c-.336-.411-.816-.616-1.442-.616-.662 0-1.148.205-1.456.616-.298.411-.462.952-.49 1.624l-.014.406c0 1.764.654 2.646 1.96 2.646zM42.892 318.525a.353.353 0 01-.238-.084.353.353 0 01-.084-.238v-6.636c0-.093.028-.168.084-.224a.325.325 0 01.238-.098h.63c.093 0 .168.033.224.098a.28.28 0 01.098.224v.49c.486-.635 1.162-.952 2.03-.952 1.036 0 1.769.429 2.198 1.288a2.48 2.48 0 01.952-.938 2.76 2.76 0 011.386-.35c.766 0 1.39.261 1.876.784s.728 1.279.728 2.268v4.046a.324.324 0 01-.098.238.303.303 0 01-.224.084h-.658a.353.353 0 01-.238-.084.353.353 0 01-.084-.238v-3.92c0-.728-.154-1.251-.462-1.568-.298-.317-.695-.476-1.19-.476-.439 0-.817.163-1.134.49-.317.317-.476.835-.476 1.554v3.92a.324.324 0 01-.098.238.303.303 0 01-.224.084h-.658a.353.353 0 01-.238-.084.353.353 0 01-.084-.238v-3.92c0-.728-.159-1.251-.476-1.568-.308-.317-.7-.476-1.176-.476-.439 0-.817.163-1.134.49-.317.317-.476.831-.476 1.54v3.934a.324.324 0 01-.098.238.303.303 0 01-.224.084h-.672zm14.15.14a2.92 2.92 0 01-1.274-.28 2.445 2.445 0 01-.938-.756 1.866 1.866 0 01-.336-1.078c0-.616.252-1.12.756-1.512.513-.401 1.204-.663 2.072-.784l2.086-.294v-.406c0-.952-.546-1.428-1.638-1.428-.411 0-.747.089-1.008.266a1.723 1.723 0 00-.588.602.379.379 0 01-.112.182c-.038.037-.094.056-.168.056h-.602a.334.334 0 01-.224-.084.334.334 0 01-.084-.224c.009-.224.112-.476.308-.756.205-.289.518-.537.938-.742.42-.215.938-.322 1.554-.322 1.045 0 1.796.247 2.254.742.457.485.686 1.092.686 1.82v4.536a.324.324 0 01-.098.238.303.303 0 01-.224.084h-.644a.353.353 0 01-.238-.084.353.353 0 01-.084-.238v-.602c-.206.299-.504.551-.896.756-.392.205-.892.308-1.498.308zm.294-1.05c.606 0 1.1-.196 1.484-.588.392-.401.588-.975.588-1.722v-.392l-1.624.238c-.663.093-1.162.252-1.498.476-.336.215-.504.49-.504.826 0 .373.154.663.462.868.308.196.672.294 1.092.294zm5.736.91a.353.353 0 01-.238-.084.353.353 0 01-.084-.238v-9.296c0-.093.028-.168.084-.224a.325.325 0 01.238-.098h.658a.28.28 0 01.224.098.28.28 0 01.098.224v4.872l2.758-2.296c.028-.019.075-.056.14-.112a.703.703 0 01.182-.098.863.863 0 01.238-.028h.742a.285.285 0 01.294.294c0 .103-.056.191-.168.266l-3.234 2.688 3.584 3.486c.112.093.168.177.168.252a.285.285 0 01-.294.294h-.728a.834.834 0 01-.308-.042 1.312 1.312 0 01-.252-.196l-3.122-2.982v2.898a.324.324 0 01-.098.238.303.303 0 01-.224.084h-.658zm9.453.14c-.961 0-1.731-.294-2.31-.882-.57-.597-.882-1.409-.938-2.436l-.014-.476.014-.462c.066-1.008.383-1.811.952-2.408.579-.597 1.34-.896 2.282-.896 1.036 0 1.839.331 2.408.994.57.653.854 1.54.854 2.66v.238a.324.324 0 01-.098.238.303.303 0 01-.224.084h-4.844v.126c.028.607.21 1.125.546 1.554.346.42.798.63 1.358.63.43 0 .78-.084 1.05-.252.28-.177.485-.359.616-.546.084-.112.145-.177.182-.196a.49.49 0 01.238-.042h.686c.084 0 .154.023.21.07a.242.242 0 01.084.196c0 .205-.13.453-.392.742-.252.289-.611.541-1.078.756-.457.205-.984.308-1.582.308zm1.918-4.312v-.042c0-.644-.177-1.167-.532-1.568-.345-.411-.812-.616-1.4-.616-.588 0-1.054.205-1.4.616-.336.401-.504.924-.504 1.568v.042h3.836zm9.417 7.252c-.765 0-1.38-.131-1.847-.392-.467-.252-.798-.541-.994-.868-.196-.327-.303-.621-.322-.882a.281.281 0 01.084-.238.358.358 0 01.238-.098h.672c.084 0 .154.019.21.056a.52.52 0 01.14.238c.112.299.294.555.546.77.261.224.662.336 1.204.336.69 0 1.2-.149 1.526-.448.327-.289.49-.807.49-1.554v-.952a2.69 2.69 0 01-.924.742c-.373.177-.817.266-1.33.266-.99 0-1.731-.313-2.226-.938-.486-.635-.742-1.437-.77-2.408l-.014-.392.014-.378c.028-.961.29-1.759.784-2.394.495-.644 1.232-.966 2.212-.966.98 0 1.745.359 2.296 1.078v-.602c0-.093.028-.173.084-.238a.325.325 0 01.238-.098h.644c.093 0 .172.033.238.098a.324.324 0 01.098.238v6.79c0 2.156-1.097 3.234-3.29 3.234zm-.027-4.144c.634 0 1.115-.21 1.442-.63.326-.42.504-.919.532-1.498a5.45 5.45 0 00.014-.49c0-.233-.005-.392-.014-.476-.028-.579-.206-1.078-.532-1.498-.318-.42-.798-.63-1.442-.63-.663 0-1.144.205-1.442.616-.299.411-.462.952-.49 1.624l-.014.364.014.378c.028.663.191 1.204.49 1.624.298.411.78.616 1.442.616zm5.721 1.064a.353.353 0 01-.238-.084.353.353 0 01-.084-.238v-6.622c0-.093.028-.173.084-.238a.325.325 0 01.238-.098h.644c.094 0 .173.033.238.098a.324.324 0 01.098.238v.616c.383-.635 1.036-.952 1.96-.952h.546a.28.28 0 01.224.098.28.28 0 01.098.224v.574a.28.28 0 01-.098.224.303.303 0 01-.224.084h-.84c-.504 0-.9.149-1.19.448-.289.289-.434.686-.434 1.19v4.116a.324.324 0 01-.098.238.353.353 0 01-.238.084h-.686zm7.772.14c-.961 0-1.731-.294-2.31-.882-.57-.597-.882-1.409-.938-2.436l-.014-.476.014-.462c.065-1.008.383-1.811.952-2.408.579-.597 1.34-.896 2.282-.896 1.036 0 1.839.331 2.408.994.569.653.854 1.54.854 2.66v.238a.325.325 0 01-.098.238.303.303 0 01-.224.084h-4.844v.126c.028.607.21 1.125.546 1.554.345.42.798.63 1.358.63.43 0 .78-.084 1.05-.252.28-.177.485-.359.616-.546.084-.112.145-.177.182-.196a.491.491 0 01.238-.042h.686c.084 0 .154.023.21.07a.242.242 0 01.084.196c0 .205-.131.453-.392.742-.252.289-.611.541-1.078.756-.457.205-.985.308-1.582.308zm1.918-4.312v-.042c0-.644-.177-1.167-.532-1.568-.345-.411-.812-.616-1.4-.616-.588 0-1.055.205-1.4.616-.336.401-.504.924-.504 1.568v.042h3.836zm5.034 4.312c-.457 0-.882-.093-1.274-.28a2.443 2.443 0 01-.938-.756 1.866 1.866 0 01-.336-1.078c0-.616.252-1.12.756-1.512.513-.401 1.204-.663 2.072-.784l2.086-.294v-.406c0-.952-.546-1.428-1.638-1.428-.411 0-.747.089-1.008.266a1.729 1.729 0 00-.588.602.377.377 0 01-.112.182c-.037.037-.093.056-.168.056h-.602a.334.334 0 01-.224-.084.334.334 0 01-.084-.224c.009-.224.112-.476.308-.756.205-.289.518-.537.938-.742.42-.215.938-.322 1.554-.322 1.045 0 1.797.247 2.254.742.457.485.686 1.092.686 1.82v4.536a.325.325 0 01-.098.238.303.303 0 01-.224.084h-.644a.353.353 0 01-.238-.084.353.353 0 01-.084-.238v-.602c-.205.299-.504.551-.896.756-.392.205-.891.308-1.498.308zm.294-1.05c.607 0 1.101-.196 1.484-.588.392-.401.588-.975.588-1.722v-.392l-1.624.238c-.663.093-1.162.252-1.498.476-.336.215-.504.49-.504.826 0 .373.154.663.462.868.308.196.672.294 1.092.294zm8.174.91c-1.474 0-2.212-.821-2.212-2.464v-3.696h-1.092a.355.355 0 01-.238-.084.353.353 0 01-.084-.238v-.476c0-.093.028-.168.084-.224a.327.327 0 01.238-.098h1.092v-2.338c0-.093.028-.168.084-.224a.327.327 0 01.238-.098h.658a.28.28 0 01.224.098.279.279 0 01.098.224v2.338h1.736a.28.28 0 01.224.098.279.279 0 01.098.224v.476a.321.321 0 01-.098.238.302.302 0 01-.224.084h-1.736v3.598c0 .467.08.821.238 1.064.159.233.42.35.784.35h.854a.28.28 0 01.224.098.279.279 0 01.098.224v.504a.321.321 0 01-.098.238.302.302 0 01-.224.084h-.966zm5.539.14c-.961 0-1.731-.294-2.31-.882-.569-.597-.882-1.409-.938-2.436l-.014-.476.014-.462c.065-1.008.383-1.811.952-2.408.579-.597 1.339-.896 2.282-.896 1.036 0 1.839.331 2.408.994.569.653.854 1.54.854 2.66v.238a.325.325 0 01-.098.238.303.303 0 01-.224.084h-4.844v.126c.028.607.21 1.125.546 1.554.345.42.798.63 1.358.63.429 0 .779-.084 1.05-.252.28-.177.485-.359.616-.546.084-.112.145-.177.182-.196a.492.492 0 01.238-.042h.686c.084 0 .154.023.21.07a.242.242 0 01.084.196c0 .205-.131.453-.392.742-.252.289-.611.541-1.078.756-.457.205-.985.308-1.582.308zm1.918-4.312v-.042c0-.644-.177-1.167-.532-1.568-.345-.411-.812-.616-1.4-.616-.588 0-1.055.205-1.4.616-.336.401-.504.924-.504 1.568v.042h3.836zm3.326 4.172a.353.353 0 01-.238-.084.353.353 0 01-.084-.238v-6.622c0-.093.028-.173.084-.238a.325.325 0 01.238-.098h.644c.093 0 .173.033.238.098a.325.325 0 01.098.238v.616c.383-.635 1.036-.952 1.96-.952h.546c.093 0 .168.033.224.098a.282.282 0 01.098.224v.574a.282.282 0 01-.098.224.303.303 0 01-.224.084h-.84c-.504 0-.901.149-1.19.448-.289.289-.434.686-.434 1.19v4.116a.325.325 0 01-.098.238.353.353 0 01-.238.084h-.686zm10.62.14c-.654 0-1.204-.103-1.652-.308-.439-.215-.77-.457-.994-.728-.215-.271-.322-.495-.322-.672 0-.093.032-.163.098-.21a.37.37 0 01.224-.084h.63c.093 0 .177.047.252.14.224.261.466.467.728.616.261.149.611.224 1.05.224.485 0 .877-.093 1.176-.28.308-.196.462-.462.462-.798a.771.771 0 00-.196-.546c-.122-.149-.336-.275-.644-.378-.299-.112-.747-.233-1.344-.364-.812-.177-1.391-.434-1.736-.77-.336-.336-.504-.77-.504-1.302 0-.355.102-.691.308-1.008.214-.327.522-.588.924-.784.41-.205.9-.308 1.47-.308.597 0 1.106.098 1.526.294.42.196.732.429.938.7.214.261.322.481.322.658a.266.266 0 01-.098.21.285.285 0 01-.21.084h-.588a.345.345 0 01-.28-.14 3.384 3.384 0 00-.392-.406 1.261 1.261 0 00-.462-.266c-.196-.075-.448-.112-.756-.112-.448 0-.794.098-1.036.294a.89.89 0 00-.364.742c0 .196.051.364.154.504.102.131.298.252.588.364.298.112.728.229 1.288.35.886.187 1.512.457 1.876.812.373.345.56.789.56 1.33 0 .401-.117.765-.35 1.092-.234.327-.579.583-1.036.77-.448.187-.985.28-1.61.28zm7.445-.14c-1.475 0-2.212-.821-2.212-2.464v-3.696h-1.092a.353.353 0 01-.238-.084.353.353 0 01-.084-.238v-.476c0-.093.028-.168.084-.224a.325.325 0 01.238-.098h1.092v-2.338c0-.093.028-.168.084-.224a.325.325 0 01.238-.098h.658c.093 0 .168.033.224.098a.282.282 0 01.098.224v2.338h1.736c.093 0 .168.033.224.098a.282.282 0 01.098.224v.476a.325.325 0 01-.098.238.303.303 0 01-.224.084h-1.736v3.598c0 .467.079.821.238 1.064.158.233.42.35.784.35h.854c.093 0 .168.033.224.098a.282.282 0 01.098.224v.504a.325.325 0 01-.098.238.303.303 0 01-.224.084h-.966zm2.949 0a.351.351 0 01-.238-.084.353.353 0 01-.084-.238v-6.622c0-.093.028-.173.084-.238a.324.324 0 01.238-.098h.644c.093 0 .172.033.238.098a.325.325 0 01.098.238v.616c.382-.635 1.036-.952 1.96-.952h.546c.093 0 .168.033.224.098a.282.282 0 01.098.224v.574a.282.282 0 01-.098.224.303.303 0 01-.224.084h-.84c-.504 0-.901.149-1.19.448-.29.289-.434.686-.434 1.19v4.116a.325.325 0 01-.098.238.355.355 0 01-.238.084h-.686zm6.917.14c-.458 0-.882-.093-1.274-.28a2.443 2.443 0 01-.938-.756 1.866 1.866 0 01-.336-1.078c0-.616.252-1.12.756-1.512.513-.401 1.204-.663 2.072-.784l2.086-.294v-.406c0-.952-.546-1.428-1.638-1.428-.411 0-.747.089-1.008.266a1.711 1.711 0 00-.588.602.384.384 0 01-.112.182c-.038.037-.094.056-.168.056h-.602a.334.334 0 01-.224-.084.334.334 0 01-.084-.224c.009-.224.112-.476.308-.756.205-.289.518-.537.938-.742.42-.215.938-.322 1.554-.322 1.045 0 1.796.247 2.254.742.457.485.686 1.092.686 1.82v4.536a.325.325 0 01-.098.238.303.303 0 01-.224.084h-.644a.351.351 0 01-.238-.084.353.353 0 01-.084-.238v-.602c-.206.299-.504.551-.896.756-.392.205-.892.308-1.498.308zm.294-1.05c.606 0 1.101-.196 1.484-.588.392-.401.588-.975.588-1.722v-.392l-1.624.238c-.663.093-1.162.252-1.498.476-.336.215-.504.49-.504.826 0 .373.154.663.462.868.308.196.672.294 1.092.294zm8.174.91c-1.475 0-2.212-.821-2.212-2.464v-3.696h-1.092a.351.351 0 01-.238-.084.353.353 0 01-.084-.238v-.476c0-.093.028-.168.084-.224a.324.324 0 01.238-.098h1.092v-2.338c0-.093.028-.168.084-.224a.324.324 0 01.238-.098h.658c.093 0 .168.033.224.098a.282.282 0 01.098.224v2.338h1.736c.093 0 .168.033.224.098a.282.282 0 01.098.224v.476a.325.325 0 01-.098.238.303.303 0 01-.224.084h-1.736v3.598c0 .467.079.821.238 1.064.158.233.42.35.784.35h.854c.093 0 .168.033.224.098a.282.282 0 01.098.224v.504a.325.325 0 01-.098.238.303.303 0 01-.224.084h-.966zm5.539.14c-.962 0-1.732-.294-2.31-.882-.57-.597-.882-1.409-.938-2.436l-.014-.476.014-.462c.065-1.008.382-1.811.952-2.408.578-.597 1.339-.896 2.282-.896 1.036 0 1.838.331 2.408.994.569.653.854 1.54.854 2.66v.238a.325.325 0 01-.098.238.303.303 0 01-.224.084h-4.844v.126c.028.607.21 1.125.546 1.554.345.42.798.63 1.358.63.429 0 .779-.084 1.05-.252.28-.177.485-.359.616-.546.084-.112.144-.177.182-.196a.49.49 0 01.238-.042h.686c.084 0 .154.023.21.07a.242.242 0 01.084.196c0 .205-.131.453-.392.742-.252.289-.612.541-1.078.756-.458.205-.985.308-1.582.308zm1.918-4.312v-.042c0-.644-.178-1.167-.532-1.568-.346-.411-.812-.616-1.4-.616-.588 0-1.055.205-1.4.616-.336.401-.504.924-.504 1.568v.042h3.836zm5.986 7.252c-.766 0-1.382-.131-1.848-.392-.467-.252-.798-.541-.994-.868-.196-.327-.304-.621-.322-.882a.277.277 0 01.084-.238.357.357 0 01.238-.098h.672c.084 0 .154.019.21.056a.525.525 0 01.14.238c.112.299.294.555.546.77.261.224.662.336 1.204.336.69 0 1.199-.149 1.526-.448.326-.289.49-.807.49-1.554v-.952a2.696 2.696 0 01-.924.742c-.374.177-.817.266-1.33.266-.99 0-1.732-.313-2.226-.938-.486-.635-.742-1.437-.77-2.408l-.014-.392.014-.378c.028-.961.289-1.759.784-2.394.494-.644 1.232-.966 2.212-.966.98 0 1.745.359 2.296 1.078v-.602c0-.093.028-.173.084-.238a.324.324 0 01.238-.098h.644c.093 0 .172.033.238.098a.325.325 0 01.098.238v6.79c0 2.156-1.097 3.234-3.29 3.234zm-.028-4.144c.634 0 1.115-.21 1.442-.63.326-.42.504-.919.532-1.498.009-.084.014-.247.014-.49 0-.233-.005-.392-.014-.476-.028-.579-.206-1.078-.532-1.498-.318-.42-.798-.63-1.442-.63-.663 0-1.144.205-1.442.616-.299.411-.462.952-.49 1.624l-.014.364.014.378c.028.663.191 1.204.49 1.624.298.411.779.616 1.442.616zm5.609-7.574a.353.353 0 01-.238-.084.353.353 0 01-.084-.238v-.756c0-.093.028-.173.084-.238a.325.325 0 01.238-.098h.882c.093 0 .173.033.238.098a.325.325 0 01.098.238v.756a.325.325 0 01-.098.238.353.353 0 01-.238.084h-.882zm.112 8.638a.353.353 0 01-.238-.084.353.353 0 01-.084-.238v-6.636c0-.093.028-.168.084-.224a.325.325 0 01.238-.098h.672c.093 0 .168.033.224.098a.282.282 0 01.098.224v6.636a.325.325 0 01-.098.238.303.303 0 01-.224.084h-.672zm6.009.14c-.999 0-1.783-.28-2.352-.84-.56-.569-.859-1.363-.896-2.38l-.014-.56.014-.56c.037-1.017.336-1.806.896-2.366.569-.569 1.353-.854 2.352-.854.672 0 1.241.121 1.708.364.466.243.812.541 1.036.896.233.355.359.709.378 1.064a.247.247 0 01-.084.224.355.355 0 01-.238.084h-.672c-.094 0-.164-.019-.21-.056a.563.563 0 01-.14-.224c-.159-.448-.383-.765-.672-.952-.29-.196-.654-.294-1.092-.294-.579 0-1.041.182-1.386.546-.336.355-.518.901-.546 1.638l-.014.504.014.476c.028.747.21 1.297.546 1.652.336.355.798.532 1.386.532.438 0 .802-.093 1.092-.28.289-.196.513-.518.672-.966a.563.563 0 01.14-.224c.046-.047.116-.07.21-.07h.672c.093 0 .172.033.238.098a.247.247 0 01.084.224c-.019.345-.145.7-.378 1.064-.224.355-.57.653-1.036.896-.458.243-1.027.364-1.708.364zm10.932 0c-.887 0-1.573-.285-2.058-.854-.485-.579-.728-1.344-.728-2.296v-3.948c0-.093.028-.168.084-.224a.325.325 0 01.238-.098h.7c.093 0 .168.033.224.098a.282.282 0 01.098.224v3.878c0 1.391.607 2.086 1.82 2.086.588 0 1.055-.182 1.4-.546.345-.373.518-.887.518-1.54v-3.878c0-.093.028-.168.084-.224a.325.325 0 01.238-.098h.7c.093 0 .168.033.224.098a.303.303 0 01.084.224v6.636a.353.353 0 01-.084.238.303.303 0 01-.224.084h-.658a.353.353 0 01-.238-.084.353.353 0 01-.084-.238v-.616a2.64 2.64 0 01-.952.812c-.373.177-.835.266-1.386.266zm8.226 0c-.654 0-1.204-.103-1.652-.308-.439-.215-.77-.457-.994-.728-.215-.271-.322-.495-.322-.672 0-.093.032-.163.098-.21a.37.37 0 01.224-.084h.63c.093 0 .177.047.252.14.224.261.466.467.728.616.261.149.611.224 1.05.224.485 0 .877-.093 1.176-.28.308-.196.462-.462.462-.798a.771.771 0 00-.196-.546c-.122-.149-.336-.275-.644-.378-.299-.112-.747-.233-1.344-.364-.812-.177-1.391-.434-1.736-.77-.336-.336-.504-.77-.504-1.302 0-.355.102-.691.308-1.008.214-.327.522-.588.924-.784.41-.205.9-.308 1.47-.308.597 0 1.106.098 1.526.294.42.196.732.429.938.7.214.261.322.481.322.658a.266.266 0 01-.098.21.285.285 0 01-.21.084h-.588a.345.345 0 01-.28-.14 3.384 3.384 0 00-.392-.406 1.261 1.261 0 00-.462-.266c-.196-.075-.448-.112-.756-.112-.448 0-.794.098-1.036.294a.89.89 0 00-.364.742c0 .196.051.364.154.504.102.131.298.252.588.364.298.112.728.229 1.288.35.886.187 1.512.457 1.876.812.373.345.56.789.56 1.33 0 .401-.117.765-.35 1.092-.234.327-.579.583-1.036.77-.448.187-.985.28-1.61.28zm7.529 0c-.962 0-1.732-.294-2.31-.882-.57-.597-.882-1.409-.938-2.436l-.014-.476.014-.462c.065-1.008.382-1.811.952-2.408.578-.597 1.339-.896 2.282-.896 1.036 0 1.838.331 2.408.994.569.653.854 1.54.854 2.66v.238a.325.325 0 01-.098.238.303.303 0 01-.224.084h-4.844v.126c.028.607.21 1.125.546 1.554.345.42.798.63 1.358.63.429 0 .779-.084 1.05-.252.28-.177.485-.359.616-.546.084-.112.144-.177.182-.196a.49.49 0 01.238-.042h.686c.084 0 .154.023.21.07a.242.242 0 01.084.196c0 .205-.131.453-.392.742-.252.289-.612.541-1.078.756-.458.205-.985.308-1.582.308zm1.918-4.312v-.042c0-.644-.178-1.167-.532-1.568-.346-.411-.812-.616-1.4-.616-.588 0-1.055.205-1.4.616-.336.401-.504.924-.504 1.568v.042h3.836zm9.417 4.312c-1.027 0-1.825-.289-2.394-.868-.56-.579-.859-1.349-.896-2.31l-.014-.602.014-.602c.037-.952.341-1.717.91-2.296.57-.588 1.363-.882 2.38-.882s1.811.294 2.38.882c.569.579.873 1.344.91 2.296.01.103.014.303.014.602s-.004.499-.014.602c-.037.961-.341 1.731-.91 2.31-.56.579-1.353.868-2.38.868zm0-1.078c.588 0 1.05-.187 1.386-.56.345-.373.532-.91.56-1.61.009-.093.014-.271.014-.532s-.005-.439-.014-.532c-.028-.7-.215-1.237-.56-1.61-.336-.373-.798-.56-1.386-.56-.588 0-1.055.187-1.4.56-.345.373-.527.91-.546 1.61l-.014.532.014.532c.019.7.201 1.237.546 1.61.345.373.812.56 1.4.56zm6.025.938a.355.355 0 01-.238-.084.353.353 0 01-.084-.238v-5.838h-1.19a.355.355 0 01-.238-.084.353.353 0 01-.084-.238v-.476c0-.093.028-.168.084-.224a.327.327 0 01.238-.098h1.19v-.7c0-1.587.803-2.38 2.408-2.38h.84a.28.28 0 01.224.098.279.279 0 01.098.224v.476a.321.321 0 01-.098.238.302.302 0 01-.224.084h-.812c-.42 0-.714.112-.882.336-.168.215-.252.546-.252.994v.63h1.806a.28.28 0 01.224.098.279.279 0 01.098.224v.476a.321.321 0 01-.098.238.302.302 0 01-.224.084H230.1v5.838a.321.321 0 01-.098.238.302.302 0 01-.224.084h-.658zm7.776 0a.353.353 0 01-.238-.084.353.353 0 01-.084-.238v-6.622c0-.093.028-.173.084-.238a.325.325 0 01.238-.098h.644c.093 0 .173.033.238.098a.325.325 0 01.098.238v.616c.383-.635 1.036-.952 1.96-.952h.546c.093 0 .168.033.224.098a.282.282 0 01.098.224v.574a.282.282 0 01-.098.224.303.303 0 01-.224.084h-.84c-.504 0-.901.149-1.19.448-.289.289-.434.686-.434 1.19v4.116a.325.325 0 01-.098.238.353.353 0 01-.238.084h-.686zm5.206-8.638a.355.355 0 01-.238-.084.353.353 0 01-.084-.238v-.756c0-.093.028-.173.084-.238a.327.327 0 01.238-.098h.882c.094 0 .173.033.238.098a.321.321 0 01.098.238v.756a.321.321 0 01-.098.238.351.351 0 01-.238.084h-.882zm.112 8.638a.355.355 0 01-.238-.084.353.353 0 01-.084-.238v-6.636c0-.093.028-.168.084-.224a.327.327 0 01.238-.098h.672a.28.28 0 01.224.098.279.279 0 01.098.224v6.636a.321.321 0 01-.098.238.302.302 0 01-.224.084h-.672zm5.589.14c-.653 0-1.204-.103-1.652-.308-.439-.215-.77-.457-.994-.728-.215-.271-.322-.495-.322-.672 0-.093.033-.163.098-.21a.372.372 0 01.224-.084h.63c.093 0 .177.047.252.14.224.261.467.467.728.616.261.149.611.224 1.05.224.485 0 .877-.093 1.176-.28.308-.196.462-.462.462-.798a.767.767 0 00-.196-.546c-.121-.149-.336-.275-.644-.378-.299-.112-.747-.233-1.344-.364-.812-.177-1.391-.434-1.736-.77-.336-.336-.504-.77-.504-1.302 0-.355.103-.691.308-1.008.215-.327.523-.588.924-.784.411-.205.901-.308 1.47-.308.597 0 1.106.098 1.526.294.42.196.733.429.938.7.215.261.322.481.322.658a.266.266 0 01-.098.21.285.285 0 01-.21.084h-.588a.346.346 0 01-.28-.14 3.308 3.308 0 00-.392-.406 1.261 1.261 0 00-.462-.266c-.196-.075-.448-.112-.756-.112-.448 0-.793.098-1.036.294a.89.89 0 00-.364.742c0 .196.051.364.154.504.103.131.299.252.588.364.299.112.728.229 1.288.35.887.187 1.512.457 1.876.812.373.345.56.789.56 1.33 0 .401-.117.765-.35 1.092-.233.327-.579.583-1.036.77-.448.187-.985.28-1.61.28zm4.953-.14a.351.351 0 01-.238-.084.353.353 0 01-.084-.238v-9.296c0-.093.028-.168.084-.224a.324.324 0 01.238-.098h.658c.093 0 .168.033.224.098a.282.282 0 01.098.224v4.872l2.758-2.296c.028-.019.074-.056.14-.112a.698.698 0 01.182-.098.858.858 0 01.238-.028h.742a.285.285 0 01.294.294c0 .103-.056.191-.168.266l-3.234 2.688 3.584 3.486c.112.093.168.177.168.252a.285.285 0 01-.294.294h-.728a.833.833 0 01-.308-.042 1.312 1.312 0 01-.252-.196l-3.122-2.982v2.898a.325.325 0 01-.098.238.303.303 0 01-.224.084h-.658zM83.71 342.665c-.971 0-1.704-.317-2.198-.952-.495-.635-.756-1.437-.784-2.408l-.014-.42.014-.42c.028-.961.289-1.759.784-2.394.494-.644 1.227-.966 2.198-.966.961 0 1.717.341 2.268 1.022v-3.22c0-.093.028-.168.084-.224a.325.325 0 01.238-.098h.672c.093 0 .168.033.224.098a.28.28 0 01.098.224v9.296a.324.324 0 01-.098.238.303.303 0 01-.224.084h-.63a.353.353 0 01-.238-.084.353.353 0 01-.084-.238v-.588c-.542.7-1.312 1.05-2.31 1.05zm.294-1.134c.644 0 1.124-.21 1.442-.63.326-.429.504-.938.532-1.526a6.99 6.99 0 00.014-.532c0-.261-.005-.443-.014-.546a2.34 2.34 0 00-.532-1.442c-.336-.411-.817-.616-1.442-.616-.663 0-1.148.205-1.456.616-.299.411-.462.952-.49 1.624l-.014.406c0 1.764.653 2.646 1.96 2.646zm7.402 1.134a2.92 2.92 0 01-1.274-.28 2.445 2.445 0 01-.938-.756 1.866 1.866 0 01-.336-1.078c0-.616.252-1.12.756-1.512.513-.401 1.204-.663 2.072-.784l2.086-.294v-.406c0-.952-.546-1.428-1.638-1.428-.41 0-.747.089-1.008.266a1.722 1.722 0 00-.588.602.38.38 0 01-.112.182c-.038.037-.094.056-.168.056h-.602a.334.334 0 01-.224-.084.334.334 0 01-.084-.224c.01-.224.112-.476.308-.756.205-.289.518-.537.938-.742.42-.215.938-.322 1.554-.322 1.045 0 1.797.247 2.254.742.457.485.686 1.092.686 1.82v4.536a.324.324 0 01-.098.238.303.303 0 01-.224.084h-.644a.353.353 0 01-.238-.084.353.353 0 01-.084-.238v-.602c-.206.299-.504.551-.896.756-.392.205-.891.308-1.498.308zm.294-1.05c.606 0 1.101-.196 1.484-.588.392-.401.588-.975.588-1.722v-.392l-1.624.238c-.663.093-1.162.252-1.498.476-.336.215-.504.49-.504.826 0 .373.154.663.462.868.308.196.672.294 1.092.294zm8.174.91c-1.475 0-2.212-.821-2.212-2.464v-3.696H96.57a.353.353 0 01-.238-.084.353.353 0 01-.084-.238v-.476c0-.093.028-.168.084-.224a.325.325 0 01.238-.098h1.092v-2.338c0-.093.028-.168.084-.224a.325.325 0 01.238-.098h.658c.093 0 .168.033.224.098a.28.28 0 01.098.224v2.338h1.736c.093 0 .168.033.224.098a.282.282 0 01.098.224v.476a.325.325 0 01-.098.238.303.303 0 01-.224.084h-1.736v3.598c0 .467.08.821.238 1.064.159.233.42.35.784.35h.854c.093 0 .168.033.224.098a.282.282 0 01.098.224v.504a.325.325 0 01-.098.238.303.303 0 01-.224.084h-.966zm4.657.14c-.457 0-.882-.093-1.274-.28a2.443 2.443 0 01-.938-.756 1.866 1.866 0 01-.336-1.078c0-.616.252-1.12.756-1.512.513-.401 1.204-.663 2.072-.784l2.086-.294v-.406c0-.952-.546-1.428-1.638-1.428-.411 0-.747.089-1.008.266a1.729 1.729 0 00-.588.602.377.377 0 01-.112.182c-.037.037-.093.056-.168.056h-.602a.334.334 0 01-.224-.084.334.334 0 01-.084-.224c.009-.224.112-.476.308-.756.205-.289.518-.537.938-.742.42-.215.938-.322 1.554-.322 1.045 0 1.797.247 2.254.742.457.485.686 1.092.686 1.82v4.536a.325.325 0 01-.098.238.303.303 0 01-.224.084h-.644a.353.353 0 01-.238-.084.353.353 0 01-.084-.238v-.602c-.205.299-.504.551-.896.756-.392.205-.891.308-1.498.308zm.294-1.05c.607 0 1.101-.196 1.484-.588.392-.401.588-.975.588-1.722v-.392l-1.624.238c-.663.093-1.162.252-1.498.476-.336.215-.504.49-.504.826 0 .373.154.663.462.868.308.196.672.294 1.092.294zm10.862 1.05c-.457 0-.882-.093-1.274-.28a2.443 2.443 0 01-.938-.756 1.866 1.866 0 01-.336-1.078c0-.616.252-1.12.756-1.512.513-.401 1.204-.663 2.072-.784l2.086-.294v-.406c0-.952-.546-1.428-1.638-1.428-.411 0-.747.089-1.008.266a1.729 1.729 0 00-.588.602.377.377 0 01-.112.182c-.037.037-.093.056-.168.056h-.602a.334.334 0 01-.224-.084.334.334 0 01-.084-.224c.009-.224.112-.476.308-.756.205-.289.518-.537.938-.742.42-.215.938-.322 1.554-.322 1.045 0 1.797.247 2.254.742.457.485.686 1.092.686 1.82v4.536a.325.325 0 01-.098.238.303.303 0 01-.224.084h-.644a.353.353 0 01-.238-.084.353.353 0 01-.084-.238v-.602c-.205.299-.504.551-.896.756-.392.205-.891.308-1.498.308zm.294-1.05c.607 0 1.101-.196 1.484-.588.392-.401.588-.975.588-1.722v-.392l-1.624.238c-.663.093-1.162.252-1.498.476-.336.215-.504.49-.504.826 0 .373.154.663.462.868.308.196.672.294 1.092.294zm5.723.91a.351.351 0 01-.238-.084.353.353 0 01-.084-.238v-6.636c0-.093.028-.168.084-.224a.324.324 0 01.238-.098h.658c.093 0 .168.033.224.098a.282.282 0 01.098.224v.616c.27-.345.588-.611.952-.798.373-.187.835-.28 1.386-.28.896 0 1.591.289 2.086.868.504.569.756 1.33.756 2.282v3.948a.325.325 0 01-.098.238.303.303 0 01-.224.084h-.7a.351.351 0 01-.238-.084.353.353 0 01-.084-.238v-3.878c0-.663-.164-1.176-.49-1.54-.318-.364-.78-.546-1.386-.546-.588 0-1.055.187-1.4.56-.346.364-.518.873-.518 1.526v3.878a.325.325 0 01-.098.238.303.303 0 01-.224.084h-.7zm10.828.14c-.971 0-1.703-.317-2.198-.952-.495-.635-.756-1.437-.784-2.408l-.014-.42.014-.42c.028-.961.289-1.759.784-2.394.495-.644 1.227-.966 2.198-.966.961 0 1.717.341 2.268 1.022v-3.22c0-.093.028-.168.084-.224a.325.325 0 01.238-.098h.672c.093 0 .168.033.224.098a.282.282 0 01.098.224v9.296a.325.325 0 01-.098.238.303.303 0 01-.224.084h-.63a.353.353 0 01-.238-.084.353.353 0 01-.084-.238v-.588c-.541.7-1.311 1.05-2.31 1.05zm.294-1.134c.644 0 1.125-.21 1.442-.63.327-.429.504-.938.532-1.526a6.99 6.99 0 00.014-.532c0-.261-.005-.443-.014-.546a2.341 2.341 0 00-.532-1.442c-.336-.411-.817-.616-1.442-.616-.663 0-1.148.205-1.456.616-.299.411-.462.952-.49 1.624l-.014.406c0 1.764.653 2.646 1.96 2.646zm9.014-7.644a.351.351 0 01-.238-.084.353.353 0 01-.084-.238v-.756c0-.093.028-.173.084-.238a.324.324 0 01.238-.098h.882c.093 0 .172.033.238.098a.325.325 0 01.098.238v.756a.325.325 0 01-.098.238.355.355 0 01-.238.084h-.882zm.112 8.638a.351.351 0 01-.238-.084.353.353 0 01-.084-.238v-6.636c0-.093.028-.168.084-.224a.324.324 0 01.238-.098h.672c.093 0 .168.033.224.098a.282.282 0 01.098.224v6.636a.325.325 0 01-.098.238.303.303 0 01-.224.084h-.672zm3.39 0a.355.355 0 01-.238-.084.353.353 0 01-.084-.238v-6.636c0-.093.028-.168.084-.224a.327.327 0 01.238-.098H146a.28.28 0 01.224.098.279.279 0 01.098.224v.616c.271-.345.588-.611.952-.798.374-.187.836-.28 1.386-.28.896 0 1.592.289 2.086.868.504.569.756 1.33.756 2.282v3.948a.321.321 0 01-.098.238.302.302 0 01-.224.084h-.7a.355.355 0 01-.238-.084.353.353 0 01-.084-.238v-3.878c0-.663-.163-1.176-.49-1.54-.317-.364-.779-.546-1.386-.546-.588 0-1.054.187-1.4.56-.345.364-.518.873-.518 1.526v3.878a.321.321 0 01-.098.238.302.302 0 01-.224.084h-.7zm9.109 0a.355.355 0 01-.238-.084.353.353 0 01-.084-.238v-5.838h-1.19a.355.355 0 01-.238-.084.353.353 0 01-.084-.238v-.476c0-.093.028-.168.084-.224a.327.327 0 01.238-.098h1.19v-.7c0-1.587.803-2.38 2.408-2.38h.84a.28.28 0 01.224.098.279.279 0 01.098.224v.476a.321.321 0 01-.098.238.302.302 0 01-.224.084h-.812c-.42 0-.714.112-.882.336-.168.215-.252.546-.252.994v.63h1.806a.28.28 0 01.224.098.279.279 0 01.098.224v.476a.321.321 0 01-.098.238.302.302 0 01-.224.084h-1.806v5.838a.321.321 0 01-.098.238.302.302 0 01-.224.084h-.658zm7.182.14c-1.026 0-1.824-.289-2.394-.868-.56-.579-.858-1.349-.896-2.31l-.014-.602.014-.602c.038-.952.341-1.717.91-2.296.57-.588 1.363-.882 2.38-.882 1.018 0 1.811.294 2.38.882.57.579.873 1.344.91 2.296.01.103.014.303.014.602s-.004.499-.014.602c-.037.961-.34 1.731-.91 2.31-.56.579-1.353.868-2.38.868zm0-1.078c.588 0 1.05-.187 1.386-.56.346-.373.532-.91.56-1.61.01-.093.014-.271.014-.532s-.004-.439-.014-.532c-.028-.7-.214-1.237-.56-1.61-.336-.373-.798-.56-1.386-.56-.588 0-1.054.187-1.4.56-.345.373-.527.91-.546 1.61l-.014.532.014.532c.019.7.201 1.237.546 1.61.346.373.812.56 1.4.56zm5.379.938a.355.355 0 01-.238-.084.353.353 0 01-.084-.238v-6.622c0-.093.028-.173.084-.238a.327.327 0 01.238-.098h.644c.094 0 .173.033.238.098a.321.321 0 01.098.238v.616c.383-.635 1.036-.952 1.96-.952h.546a.28.28 0 01.224.098.279.279 0 01.098.224v.574a.279.279 0 01-.098.224.302.302 0 01-.224.084h-.84c-.504 0-.9.149-1.19.448-.289.289-.434.686-.434 1.19v4.116a.321.321 0 01-.098.238.351.351 0 01-.238.084h-.686zm5.319 0a.351.351 0 01-.238-.084.353.353 0 01-.084-.238v-6.636c0-.093.028-.168.084-.224a.324.324 0 01.238-.098h.63c.093 0 .168.033.224.098a.282.282 0 01.098.224v.49c.485-.635 1.162-.952 2.03-.952 1.036 0 1.768.429 2.198 1.288a2.48 2.48 0 01.952-.938c.41-.233.872-.35 1.386-.35.765 0 1.39.261 1.876.784.485.523.728 1.279.728 2.268v4.046a.325.325 0 01-.098.238.303.303 0 01-.224.084h-.658a.351.351 0 01-.238-.084.353.353 0 01-.084-.238v-3.92c0-.728-.154-1.251-.462-1.568-.299-.317-.696-.476-1.19-.476-.439 0-.817.163-1.134.49-.318.317-.476.835-.476 1.554v3.92a.325.325 0 01-.098.238.303.303 0 01-.224.084h-.658a.351.351 0 01-.238-.084.353.353 0 01-.084-.238v-3.92c0-.728-.159-1.251-.476-1.568-.308-.317-.7-.476-1.176-.476-.439 0-.817.163-1.134.49-.318.317-.476.831-.476 1.54v3.934a.325.325 0 01-.098.238.303.303 0 01-.224.084h-.672zm14.149.14c-.457 0-.882-.093-1.274-.28a2.443 2.443 0 01-.938-.756 1.866 1.866 0 01-.336-1.078c0-.616.252-1.12.756-1.512.513-.401 1.204-.663 2.072-.784l2.086-.294v-.406c0-.952-.546-1.428-1.638-1.428-.411 0-.747.089-1.008.266a1.729 1.729 0 00-.588.602.377.377 0 01-.112.182c-.037.037-.093.056-.168.056h-.602a.334.334 0 01-.224-.084.334.334 0 01-.084-.224c.009-.224.112-.476.308-.756.205-.289.518-.537.938-.742.42-.215.938-.322 1.554-.322 1.045 0 1.797.247 2.254.742.457.485.686 1.092.686 1.82v4.536a.325.325 0 01-.098.238.303.303 0 01-.224.084h-.644a.353.353 0 01-.238-.084.353.353 0 01-.084-.238v-.602c-.205.299-.504.551-.896.756-.392.205-.891.308-1.498.308zm.294-1.05c.607 0 1.101-.196 1.484-.588.392-.401.588-.975.588-1.722v-.392l-1.624.238c-.663.093-1.162.252-1.498.476-.336.215-.504.49-.504.826 0 .373.154.663.462.868.308.196.672.294 1.092.294zm8.174.91c-1.474 0-2.212-.821-2.212-2.464v-3.696h-1.092a.355.355 0 01-.238-.084.353.353 0 01-.084-.238v-.476c0-.093.028-.168.084-.224a.327.327 0 01.238-.098h1.092v-2.338c0-.093.028-.168.084-.224a.327.327 0 01.238-.098h.658a.28.28 0 01.224.098.279.279 0 01.098.224v2.338h1.736a.28.28 0 01.224.098.279.279 0 01.098.224v.476a.321.321 0 01-.098.238.302.302 0 01-.224.084h-1.736v3.598c0 .467.08.821.238 1.064.159.233.42.35.784.35h.854a.28.28 0 01.224.098.279.279 0 01.098.224v.504a.321.321 0 01-.098.238.302.302 0 01-.224.084h-.966zm2.837-8.638a.353.353 0 01-.238-.084.353.353 0 01-.084-.238v-.756c0-.093.028-.173.084-.238a.325.325 0 01.238-.098h.882c.093 0 .173.033.238.098a.325.325 0 01.098.238v.756a.325.325 0 01-.098.238.353.353 0 01-.238.084h-.882zm.112 8.638a.353.353 0 01-.238-.084.353.353 0 01-.084-.238v-6.636c0-.093.028-.168.084-.224a.325.325 0 01.238-.098h.672c.093 0 .168.033.224.098a.282.282 0 01.098.224v6.636a.325.325 0 01-.098.238.303.303 0 01-.224.084h-.672zm6.051.14c-1.027 0-1.825-.289-2.394-.868-.56-.579-.859-1.349-.896-2.31l-.014-.602.014-.602c.037-.952.34-1.717.91-2.296.569-.588 1.362-.882 2.38-.882 1.017 0 1.81.294 2.38.882.569.579.872 1.344.91 2.296.009.103.014.303.014.602s-.005.499-.014.602c-.038.961-.341 1.731-.91 2.31-.56.579-1.354.868-2.38.868zm0-1.078c.588 0 1.05-.187 1.386-.56.345-.373.532-.91.56-1.61.009-.093.014-.271.014-.532s-.005-.439-.014-.532c-.028-.7-.215-1.237-.56-1.61-.336-.373-.798-.56-1.386-.56-.588 0-1.055.187-1.4.56-.346.373-.528.91-.546 1.61l-.014.532.014.532c.018.7.2 1.237.546 1.61.345.373.812.56 1.4.56zm5.379.938a.351.351 0 01-.238-.084.353.353 0 01-.084-.238v-6.636c0-.093.028-.168.084-.224a.324.324 0 01.238-.098h.658c.093 0 .168.033.224.098a.282.282 0 01.098.224v.616c.27-.345.588-.611.952-.798.373-.187.835-.28 1.386-.28.896 0 1.591.289 2.086.868.504.569.756 1.33.756 2.282v3.948a.325.325 0 01-.098.238.303.303 0 01-.224.084h-.7a.351.351 0 01-.238-.084.353.353 0 01-.084-.238v-3.878c0-.663-.164-1.176-.49-1.54-.318-.364-.78-.546-1.386-.546-.588 0-1.055.187-1.4.56-.346.364-.518.873-.518 1.526v3.878a.325.325 0 01-.098.238.303.303 0 01-.224.084h-.7zm8.392 0a.353.353 0 01-.238-.084.353.353 0 01-.084-.238v-1.008c0-.093.028-.168.084-.224a.325.325 0 01.238-.098h1.008c.093 0 .173.033.238.098a.282.282 0 01.098.224v1.008a.325.325 0 01-.098.238.353.353 0 01-.238.084h-1.008z" opacity=".6" fill="#09192B"/><path d="M49.577 233.191a.53.53 0 01-.357-.126.53.53 0 01-.126-.357v-13.713c0-.154.042-.273.126-.357a.486.486 0 01.357-.147h5.124c1.61 0 2.87.378 3.78 1.134.91.756 1.365 1.848 1.365 3.276 0 1.064-.266 1.939-.798 2.625-.518.686-1.253 1.162-2.205 1.428l3.234 5.586a.523.523 0 01.063.231c0 .112-.049.21-.147.294a.403.403 0 01-.294.126h-1.008c-.21 0-.378-.049-.504-.147a1.493 1.493 0 01-.315-.42l-3.045-5.334h-3.675v5.418c0 .14-.049.259-.147.357a.53.53 0 01-.357.126h-1.07zm5.04-7.686c2.086 0 3.13-.875 3.13-2.625s-1.044-2.625-3.13-2.625h-3.465v5.25h3.465zm9.721 7.686a.53.53 0 01-.357-.126.53.53 0 01-.126-.357v-13.734c0-.14.042-.252.126-.336a.486.486 0 01.357-.147h1.113a.42.42 0 01.336.147.42.42 0 01.147.336v13.734a.49.49 0 01-.147.357.454.454 0 01-.336.126h-1.113zm10.984.21c-1.162 0-2.17-.182-3.024-.546-.84-.364-1.484-.84-1.932-1.428-.448-.602-.686-1.246-.714-1.932 0-.112.042-.21.126-.294a.463.463 0 01.336-.147h1.071c.266 0 .448.14.546.42.126.588.483 1.092 1.071 1.512.602.42 1.442.63 2.52.63 1.162 0 2.037-.203 2.625-.609.588-.42.882-1.001.882-1.743 0-.476-.147-.861-.441-1.155-.28-.294-.7-.553-1.26-.777-.56-.224-1.4-.504-2.52-.84-1.092-.308-1.96-.637-2.604-.987-.644-.35-1.127-.784-1.449-1.302-.322-.518-.483-1.169-.483-1.953 0-.756.203-1.435.609-2.037.42-.602 1.015-1.071 1.785-1.407.77-.35 1.687-.525 2.751-.525 1.092 0 2.03.196 2.814.588.784.378 1.379.861 1.785 1.449.406.588.623 1.176.651 1.764 0 .112-.042.21-.126.294-.07.084-.175.126-.315.126h-1.113c-.294 0-.476-.133-.546-.399-.084-.588-.413-1.071-.987-1.449-.574-.392-1.295-.588-2.163-.588-.952 0-1.701.182-2.247.546-.546.364-.819.903-.819 1.617 0 .476.126.868.378 1.176.266.308.665.581 1.197.819.532.224 1.309.483 2.331.777 1.19.322 2.128.658 2.814 1.008.686.336 1.197.763 1.533 1.281.336.504.504 1.148.504 1.932 0 1.302-.504 2.324-1.512 3.066s-2.366 1.113-4.074 1.113zm9.822-.21a.53.53 0 01-.358-.126.53.53 0 01-.126-.357v-13.713c0-.154.043-.273.127-.357a.486.486 0 01.356-.147h1.05c.154 0 .273.049.358.147a.445.445 0 01.147.357v5.208l5.607-5.376c.223-.224.496-.336.819-.336h1.133c.112 0 .21.042.294.126a.403.403 0 01.126.294.424.424 0 01-.084.273l-6.489 6.342 6.91 6.951c.07.084.105.182.105.294 0 .112-.043.21-.126.294a.403.403 0 01-.294.126h-1.177c-.308 0-.58-.119-.819-.357l-6.005-5.901v5.775a.49.49 0 01-.147.357.53.53 0 01-.358.126h-1.05zm19.554 0a.53.53 0 01-.357-.126.53.53 0 01-.126-.357v-13.713c0-.154.042-.273.126-.357a.486.486 0 01.357-.147h1.05c.224 0 .406.112.546.336l4.431 8.484 4.473-8.484a.517.517 0 01.168-.231.598.598 0 01.357-.105h1.029c.154 0 .273.049.357.147a.445.445 0 01.147.357v13.713c0 .14-.049.259-.147.357a.53.53 0 01-.357.126h-1.029a.53.53 0 01-.357-.126.53.53 0 01-.126-.357v-10.332l-3.507 6.846c-.14.294-.364.441-.672.441h-.651c-.308 0-.532-.147-.672-.441l-3.528-6.846v10.332c0 .14-.049.259-.147.357a.454.454 0 01-.336.126h-1.029zm16.203 0a.403.403 0 01-.294-.126.403.403 0 01-.126-.294c0-.112.007-.189.021-.231l5.208-13.587c.112-.308.336-.462.672-.462h1.428c.336 0 .56.154.672.462l5.187 13.587.042.231c0 .112-.042.21-.126.294a.403.403 0 01-.294.126h-1.071c-.154 0-.273-.035-.357-.105a.661.661 0 01-.168-.252l-1.155-2.982h-6.888l-1.155 2.982a.595.595 0 01-.189.252.508.508 0 01-.336.105h-1.071zm9.03-5.145l-2.835-7.455-2.835 7.455h5.67zm7.508 5.145a.53.53 0 01-.357-.126.53.53 0 01-.126-.357v-13.713c0-.154.042-.273.126-.357a.486.486 0 01.357-.147h.966c.252 0 .427.098.525.294l6.972 10.71v-10.5c0-.154.042-.273.126-.357a.486.486 0 01.357-.147h1.008c.154 0 .273.049.357.147a.445.445 0 01.147.357v13.692c0 .14-.049.259-.147.357a.42.42 0 01-.336.147h-1.008c-.21 0-.378-.098-.504-.294l-6.951-10.605v10.416c0 .14-.049.259-.147.357a.53.53 0 01-.357.126h-1.008zm14.132 0a.403.403 0 01-.294-.126.403.403 0 01-.126-.294c0-.112.007-.189.021-.231l5.208-13.587c.112-.308.336-.462.672-.462h1.428c.336 0 .56.154.672.462l5.187 13.587.042.231c0 .112-.042.21-.126.294a.403.403 0 01-.294.126h-1.071c-.154 0-.273-.035-.357-.105a.661.661 0 01-.168-.252l-1.155-2.982h-6.888l-1.155 2.982a.595.595 0 01-.189.252.508.508 0 01-.336.105h-1.071zm9.03-5.145l-2.835-7.455-2.835 7.455h5.67zm12.114 5.355c-1.834 0-3.262-.497-4.284-1.491-1.008-1.008-1.547-2.38-1.617-4.116a65.922 65.922 0 01-.021-1.974c0-.91.007-1.568.021-1.974.07-1.722.616-3.08 1.638-4.074 1.022-.994 2.443-1.491 4.263-1.491 1.232 0 2.275.224 3.129.672.868.434 1.519.966 1.953 1.596.434.63.665 1.218.693 1.764v.042a.339.339 0 01-.126.273.475.475 0 01-.315.105h-1.239a.625.625 0 01-.315-.063c-.056-.056-.112-.161-.168-.315-.21-.63-.616-1.169-1.218-1.617-.588-.448-1.386-.672-2.394-.672-1.162 0-2.072.315-2.73.945-.658.63-1.015 1.61-1.071 2.94a59.83 59.83 0 00-.021 1.869c0 .826.007 1.449.021 1.869.056 1.344.413 2.338 1.071 2.982.658.63 1.568.945 2.73.945 1.176 0 2.114-.322 2.814-.966.7-.644 1.05-1.61 1.05-2.898v-.882h-3.15a.53.53 0 01-.357-.126.56.56 0 01-.126-.378v-.672a.53.53 0 01.126-.357.486.486 0 01.357-.147h4.746a.42.42 0 01.336.147.445.445 0 01.147.357v2.016c0 1.148-.238 2.149-.714 3.003a4.963 4.963 0 01-2.058 1.995c-.896.462-1.953.693-3.171.693zm10.422-.21a.53.53 0 01-.357-.126.53.53 0 01-.126-.357v-13.713c0-.154.042-.273.126-.357a.486.486 0 01.357-.147h8.673a.42.42 0 01.336.147.445.445 0 01.147.357v.798a.53.53 0 01-.126.357c-.084.084-.203.126-.357.126h-7.14v4.599h6.678a.42.42 0 01.336.147.445.445 0 01.147.357v.777c0 .14-.049.259-.147.357a.454.454 0 01-.336.126h-6.678v4.767h7.308c.154 0 .273.042.357.126.084.084.126.203.126.357v.819c0 .14-.049.259-.147.357a.454.454 0 01-.336.126h-8.841zm13.735 0a.53.53 0 01-.357-.126.53.53 0 01-.126-.357v-13.713c0-.154.042-.273.126-.357a.486.486 0 01.357-.147h1.05c.224 0 .406.112.546.336l4.431 8.484 4.473-8.484a.517.517 0 01.168-.231.598.598 0 01.357-.105h1.029c.154 0 .273.049.357.147a.445.445 0 01.147.357v13.713c0 .14-.049.259-.147.357a.53.53 0 01-.357.126h-1.029a.53.53 0 01-.357-.126.53.53 0 01-.126-.357v-10.332l-3.507 6.846c-.14.294-.364.441-.672.441h-.651c-.308 0-.532-.147-.672-.441l-3.528-6.846v10.332c0 .14-.049.259-.147.357a.454.454 0 01-.336.126h-1.029zm17.673 0a.53.53 0 01-.357-.126.53.53 0 01-.126-.357v-13.713c0-.154.042-.273.126-.357a.486.486 0 01.357-.147h8.673a.42.42 0 01.336.147.445.445 0 01.147.357v.798a.53.53 0 01-.126.357c-.084.084-.203.126-.357.126h-7.14v4.599h6.678a.42.42 0 01.336.147.445.445 0 01.147.357v.777c0 .14-.049.259-.147.357a.454.454 0 01-.336.126h-6.678v4.767h7.308c.154 0 .273.042.357.126.084.084.126.203.126.357v.819c0 .14-.049.259-.147.357a.454.454 0 01-.336.126h-8.841zm13.735 0a.53.53 0 01-.357-.126.53.53 0 01-.126-.357v-13.713c0-.154.042-.273.126-.357a.486.486 0 01.357-.147h.966c.252 0 .427.098.525.294l6.972 10.71v-10.5c0-.154.042-.273.126-.357a.486.486 0 01.357-.147h1.008c.154 0 .273.049.357.147a.445.445 0 01.147.357v13.692c0 .14-.049.259-.147.357a.42.42 0 01-.336.147h-1.008c-.21 0-.378-.098-.504-.294l-6.951-10.605v10.416c0 .14-.049.259-.147.357a.53.53 0 01-.357.126h-1.008zm18.815 0a.53.53 0 01-.357-.126.53.53 0 01-.126-.357V220.36h-4.032a.53.53 0 01-.357-.126.53.53 0 01-.126-.357v-.882a.53.53 0 01.126-.357.486.486 0 01.357-.147h10.122c.154 0 .273.049.357.147a.445.445 0 01.147.357v.882c0 .14-.049.259-.147.357a.53.53 0 01-.357.126h-4.011v12.348c0 .14-.049.259-.147.357a.53.53 0 01-.357.126h-1.092z" opacity=".9" fill="#09192B"/><g opacity=".2"><mask id="a" fill="#fff"><path d="M194.881 104.361l-7.019-1.191a39.63 39.63 0 00-2.82-6.81l4.136-5.786a6.158 6.158 0 00-.668-7.96l-6.225-6.224a6.133 6.133 0 00-4.366-1.818 6.069 6.069 0 00-3.572 1.15l-5.808 4.135a39.205 39.205 0 00-7.06-2.903l-1.17-6.936a6.172 6.172 0 00-6.1-5.16h-8.795a6.17 6.17 0 00-6.099 5.16l-1.212 7.103a38.625 38.625 0 00-6.789 2.862l-5.745-4.137a6.132 6.132 0 00-3.593-1.148c-1.65 0-3.217.647-4.366 1.817l-6.246 6.225a6.183 6.183 0 00-.668 7.96l4.178 5.87a38.706 38.706 0 00-2.779 6.83l-6.935 1.17a6.171 6.171 0 00-5.16 6.1v8.794a6.171 6.171 0 005.16 6.1l7.102 1.212a38.667 38.667 0 002.862 6.789l-4.115 5.724a6.16 6.16 0 00.668 7.959l6.226 6.225a6.128 6.128 0 004.366 1.817 6.071 6.071 0 003.572-1.149l5.87-4.178a39.43 39.43 0 006.601 2.716l1.17 7.019a6.17 6.17 0 006.1 5.16h8.815a6.172 6.172 0 006.1-5.16l1.191-7.019a39.648 39.648 0 006.81-2.82l5.786 4.136a6.134 6.134 0 003.593 1.149c1.65 0 3.196-.648 4.366-1.817l6.225-6.226a6.184 6.184 0 00.669-7.959l-4.136-5.807c1.148-2.193 2.109-4.47 2.82-6.81l7.019-1.17a6.17 6.17 0 005.159-6.1v-8.794c.042-3.029-2.13-5.599-5.118-6.1zm-.48 14.894a.542.542 0 01-.46.544l-8.773 1.462a2.804 2.804 0 00-2.256 2.068 33.466 33.466 0 01-3.635 8.753 2.824 2.824 0 00.125 3.071l5.16 7.269a.569.569 0 01-.063.71l-6.225 6.226a.53.53 0 01-.397.167.51.51 0 01-.313-.105l-7.249-5.16c-.898-.647-2.11-.689-3.071-.125a33.418 33.418 0 01-8.753 3.635 2.774 2.774 0 00-2.068 2.256l-1.483 8.774a.54.54 0 01-.543.459h-8.795a.541.541 0 01-.543-.459l-1.462-8.774a2.806 2.806 0 00-2.068-2.256 34.731 34.731 0 01-8.565-3.51 2.9 2.9 0 00-1.42-.376c-.564 0-1.149.168-1.63.523l-7.311 5.201a.622.622 0 01-.314.105.563.563 0 01-.397-.167l-6.225-6.226a.565.565 0 01-.062-.71l5.139-7.207a2.86 2.86 0 00.125-3.091 33.13 33.13 0 01-3.677-8.732 2.862 2.862 0 00-2.256-2.069l-8.836-1.504a.54.54 0 01-.46-.543v-8.794a.54.54 0 01.46-.543l8.711-1.463a2.824 2.824 0 002.277-2.089 33.4 33.4 0 013.572-8.773 2.79 2.79 0 00-.146-3.05l-5.202-7.312a.57.57 0 01.063-.71l6.225-6.225a.53.53 0 01.397-.167.51.51 0 01.313.104l7.207 5.14a2.86 2.86 0 003.092.124 33.128 33.128 0 018.732-3.676 2.861 2.861 0 002.068-2.256l1.504-8.837a.541.541 0 01.543-.46h8.795c.271 0 .501.189.543.46l1.462 8.711a2.825 2.825 0 002.089 2.277 33.896 33.896 0 018.962 3.677 2.825 2.825 0 003.071-.125l7.207-5.181a.62.62 0 01.313-.105.56.56 0 01.397.168l6.225 6.225c.188.188.209.48.063.71l-5.16 7.249c-.648.898-.689 2.11-.125 3.07a33.431 33.431 0 013.634 8.753 2.772 2.772 0 002.257 2.068l8.773 1.484a.54.54 0 01.46.543v8.794h-.021z"/></mask><path d="M194.881 104.361l-7.019-1.191a39.63 39.63 0 00-2.82-6.81l4.136-5.786a6.158 6.158 0 00-.668-7.96l-6.225-6.224a6.133 6.133 0 00-4.366-1.818 6.069 6.069 0 00-3.572 1.15l-5.808 4.135a39.205 39.205 0 00-7.06-2.903l-1.17-6.936a6.172 6.172 0 00-6.1-5.16h-8.795a6.17 6.17 0 00-6.099 5.16l-1.212 7.103a38.625 38.625 0 00-6.789 2.862l-5.745-4.137a6.132 6.132 0 00-3.593-1.148c-1.65 0-3.217.647-4.366 1.817l-6.246 6.225a6.183 6.183 0 00-.668 7.96l4.178 5.87a38.706 38.706 0 00-2.779 6.83l-6.935 1.17a6.171 6.171 0 00-5.16 6.1v8.794a6.171 6.171 0 005.16 6.1l7.102 1.212a38.667 38.667 0 002.862 6.789l-4.115 5.724a6.16 6.16 0 00.668 7.959l6.226 6.225a6.128 6.128 0 004.366 1.817 6.071 6.071 0 003.572-1.149l5.87-4.178a39.43 39.43 0 006.601 2.716l1.17 7.019a6.17 6.17 0 006.1 5.16h8.815a6.172 6.172 0 006.1-5.16l1.191-7.019a39.648 39.648 0 006.81-2.82l5.786 4.136a6.134 6.134 0 003.593 1.149c1.65 0 3.196-.648 4.366-1.817l6.225-6.226a6.184 6.184 0 00.669-7.959l-4.136-5.807c1.148-2.193 2.109-4.47 2.82-6.81l7.019-1.17a6.17 6.17 0 005.159-6.1v-8.794c.042-3.029-2.13-5.599-5.118-6.1zm-.48 14.894a.542.542 0 01-.46.544l-8.773 1.462a2.804 2.804 0 00-2.256 2.068 33.466 33.466 0 01-3.635 8.753 2.824 2.824 0 00.125 3.071l5.16 7.269a.569.569 0 01-.063.71l-6.225 6.226a.53.53 0 01-.397.167.51.51 0 01-.313-.105l-7.249-5.16c-.898-.647-2.11-.689-3.071-.125a33.418 33.418 0 01-8.753 3.635 2.774 2.774 0 00-2.068 2.256l-1.483 8.774a.54.54 0 01-.543.459h-8.795a.541.541 0 01-.543-.459l-1.462-8.774a2.806 2.806 0 00-2.068-2.256 34.731 34.731 0 01-8.565-3.51 2.9 2.9 0 00-1.42-.376c-.564 0-1.149.168-1.63.523l-7.311 5.201a.622.622 0 01-.314.105.563.563 0 01-.397-.167l-6.225-6.226a.565.565 0 01-.062-.71l5.139-7.207a2.86 2.86 0 00.125-3.091 33.13 33.13 0 01-3.677-8.732 2.862 2.862 0 00-2.256-2.069l-8.836-1.504a.54.54 0 01-.46-.543v-8.794a.54.54 0 01.46-.543l8.711-1.463a2.824 2.824 0 002.277-2.089 33.4 33.4 0 013.572-8.773 2.79 2.79 0 00-.146-3.05l-5.202-7.312a.57.57 0 01.063-.71l6.225-6.225a.53.53 0 01.397-.167.51.51 0 01.313.104l7.207 5.14a2.86 2.86 0 003.092.124 33.128 33.128 0 018.732-3.676 2.861 2.861 0 002.068-2.256l1.504-8.837a.541.541 0 01.543-.46h8.795c.271 0 .501.189.543.46l1.462 8.711a2.825 2.825 0 002.089 2.277 33.896 33.896 0 018.962 3.677 2.825 2.825 0 003.071-.125l7.207-5.181a.62.62 0 01.313-.105.56.56 0 01.397.168l6.225 6.225c.188.188.209.48.063.71l-5.16 7.249c-.648.898-.689 2.11-.125 3.07a33.431 33.431 0 013.634 8.753 2.772 2.772 0 002.257 2.068l8.773 1.484a.54.54 0 01.46.543v8.794h-.021z" fill="#1A61B7" stroke="#fff" stroke-width="4" mask="url(#a)"/></g><circle cx="151.25" cy="116.108" r="27.75" stroke="#0066B3" stroke-width="2"/><path d="M150.38 98.453a1 1 0 011.732 0l15.947 27.62a1 1 0 01-.866 1.5h-31.894a1 1 0 01-.866-1.5l15.947-27.62z" stroke="#F29665" stroke-width="2"/><path fill="#F29665" d="M150.586 109.062h1.971v9.198h-1.971zm0 10.512h1.971v2.628h-1.971z"/></svg>