<svg viewBox="0 0 200 131" fill="none" xmlns="http://www.w3.org/2000/svg"><rect x="25.664" y=".5" width="161.229" height="99.339" rx="1.5" stroke="#00B9FF"/><rect x=".5" y="54.879" width="98.251" height="74.921" rx="1.5" stroke="#1D4EFF"/><rect x="168.395" y="57.936" width="31.105" height="62.604" rx="1.5" fill="#fff" stroke="#0C8AFE"/><g opacity=".5"><mask id="a" maskUnits="userSpaceOnUse" x="168" y="58" width="32" height="63"><rect x="168.794" y="58.517" width="30.285" height="61.571" rx="1.5" fill="#fff" stroke="#0C8AFE"/></mask><g mask="url(#a)" fill="#09192B"><path d="M121.623 83.063L258.278 4.165l.128.222L121.75 83.285zm2.051 3.553L260.328 7.719l.128.221-136.654 78.898zm2.052 3.554L262.38 11.271l.128.221L125.854 90.39zm2.051 3.553l136.655-78.898.128.222-136.655 78.898zm2.052 3.553l136.654-78.897.128.221-136.654 78.898zm2.051 3.553l136.654-78.897.128.221-136.654 78.898zm2.052 3.554l136.654-78.897.128.221-136.654 78.898zm2.051 3.553l136.654-78.897.128.221-136.654 78.898zm2.052 3.553l136.654-78.897.128.221-136.654 78.898zm2.051 3.554L276.74 36.146l.128.221-136.654 78.898zm2.052 3.553l136.654-78.897.128.221-136.654 78.898zm2.051 3.553l136.654-78.897.128.221-136.654 78.898zm2.052 3.553l136.654-78.897.128.221-136.654 78.898zm2.051 3.554l136.654-78.897.128.221-136.654 78.898zm1.795 3.109l136.654-78.897.128.221-136.654 78.898zm2.052 3.553l136.654-78.897.128.221-136.654 78.898zm2.051 3.554l136.654-78.897.128.221-136.654 78.898zm2.052 3.553l136.654-78.897.128.221-136.654 78.898zm2.051 3.553l136.654-78.897.128.221L158.421 146.8zm2.052 3.554l136.654-78.897.128.221-136.654 78.898zm2.051 3.553L299.05 74.788l.128.221-136.654 78.898zm2.052 3.553l136.654-78.897.128.221-136.654 78.898zm2.052 3.554l136.654-78.897.128.221-136.654 78.898zm2.051 3.553l136.654-78.898.128.222-136.654 78.898z"/></g></g></svg>