<svg viewBox="0 0 202 126" fill="none" xmlns="http://www.w3.org/2000/svg"><path d="M124.912 1H1v123.912h123.912" stroke="#0085FF" stroke-miterlimit="10" stroke-linecap="round" stroke-linejoin="round"/><path d="M124.912 1h76.53v76.53m.001 0H154.06v47.383h47.383V77.53zm-76.531 18.206h29.148v29.147h-29.148m0-47.353h18.177v18.206h-18.177M154.06 77.53h-10.971V88.5h10.971V77.53z" stroke="#00B9FF" stroke-miterlimit="10" stroke-linecap="round" stroke-linejoin="round"/><path d="M154.089 88.5h-7.265v7.236h7.265V88.5zm-7.294 3.53h-3.706v3.706h3.706V92.03z" stroke="#00B9FF" stroke-miterlimit="10" stroke-linecap="round" stroke-linejoin="round"/><path d="M1.146 125c0-68.535 55.464-124 124-124h-.292c42.247 0 76.442 34.195 76.442 76.442 0 26.288-21.269 47.558-47.557 47.558h.291c-16.134 0-29.176-13.042-29.176-29.177 0-10.153 8.228-18.38 18.381-18.38h-.292c6.127 0 11.087 4.96 11.087 11.086a7.296 7.296 0 01-7.294 7.294c-1.925 0-3.501-1.692-3.501-3.792" stroke="#1D4EFF" stroke-miterlimit="10" stroke-linecap="round" stroke-linejoin="round"/><path d="M1.146 125c0-68.47 55.36-123.895 123.805-124h-.097" stroke="#0085FF" stroke-miterlimit="10" stroke-linecap="round" stroke-linejoin="round"/><path d="M124.912 1l-.237 76.554-.147 47.329" stroke="#0085FF"/></svg>