<svg viewBox="0 0 300 403" fill="none" xmlns="http://www.w3.org/2000/svg"><rect y=".525" width="300" height="402.439" rx="3" fill="#fff"/><path d="M55.396 263.747c-.242 0-.387-.126-.434-.378l-1.806-8.988a.784.784 0 01-.014-.154.27.27 0 01.084-.196.269.269 0 01.196-.084h.728c.196 0 .308.08.336.238l1.428 7.224 1.512-4.956c.084-.224.234-.336.448-.336h.518c.122 0 .215.033.28.098a.507.507 0 01.154.238l1.526 4.956 1.414-7.224c.028-.158.145-.238.35-.238h.728c.075 0 .14.028.196.084a.27.27 0 01.084.196l-.014.154-1.806 8.988c-.056.252-.2.378-.434.378h-.546c-.242 0-.396-.116-.462-.35l-1.736-5.334-1.722 5.334c-.074.234-.228.35-.462.35h-.546zm11.989.14c-.962 0-1.732-.294-2.31-.882-.57-.597-.883-1.409-.939-2.436l-.013-.476.013-.462c.066-1.008.383-1.81.953-2.408.578-.597 1.339-.896 2.282-.896 1.035 0 1.838.332 2.407.994.57.654.854 1.54.854 2.66v.238a.322.322 0 01-.098.238.303.303 0 01-.224.084h-4.844v.126c.029.607.21 1.125.547 1.554.345.42.797.63 1.358.63.429 0 .779-.084 1.05-.252.28-.177.485-.359.615-.546.085-.112.145-.177.183-.196a.491.491 0 01.238-.042h.686a.32.32 0 01.21.07.242.242 0 01.084.196c0 .206-.131.453-.392.742-.252.29-.612.542-1.079.756-.457.206-.984.308-1.581.308zm1.917-4.312v-.042c0-.644-.177-1.166-.532-1.568-.345-.41-.811-.616-1.4-.616-.588 0-1.054.206-1.4.616-.335.402-.504.924-.504 1.568v.042h3.837zm9.418 7.252c-.765 0-1.381-.13-1.848-.392-.466-.252-.798-.541-.994-.868-.196-.326-.303-.62-.322-.882a.282.282 0 01.084-.238.358.358 0 01.238-.098h.672c.084 0 .154.019.21.056a.52.52 0 01.14.238c.112.299.294.556.546.77.261.224.663.336 1.204.336.69 0 1.2-.149 1.526-.448.327-.289.49-.807.49-1.554v-.952c-.242.308-.55.556-.924.742-.373.178-.817.266-1.33.266-.99 0-1.731-.312-2.226-.938-.485-.634-.742-1.437-.77-2.408l-.014-.392.014-.378c.028-.961.29-1.759.784-2.394.495-.644 1.232-.966 2.212-.966.98 0 1.745.36 2.296 1.078v-.602c0-.093.028-.172.084-.238a.325.325 0 01.238-.098h.644c.093 0 .173.033.238.098a.326.326 0 01.098.238v6.79c0 2.156-1.097 3.234-3.29 3.234zm-.028-4.144c.635 0 1.116-.21 1.442-.63.327-.42.504-.919.532-1.498a5.45 5.45 0 00.014-.49c0-.233-.005-.392-.014-.476-.028-.578-.205-1.078-.532-1.498-.317-.42-.798-.63-1.442-.63-.662 0-1.143.206-1.442.616-.299.411-.462.952-.49 1.624l-.014.364.014.378c.028.663.191 1.204.49 1.624.299.411.78.616 1.442.616zm8.382 1.204c-1.027 0-1.825-.289-2.394-.868-.56-.578-.859-1.348-.896-2.31l-.014-.602.014-.602c.037-.952.34-1.717.91-2.296.569-.588 1.362-.882 2.38-.882 1.017 0 1.81.294 2.38.882.569.579.872 1.344.91 2.296.009.103.014.304.014.602 0 .299-.005.5-.014.602-.038.962-.341 1.732-.91 2.31-.56.579-1.354.868-2.38.868zm0-1.078c.588 0 1.05-.186 1.386-.56.345-.373.532-.91.56-1.61.009-.093.014-.27.014-.532 0-.261-.005-.438-.014-.532-.028-.7-.215-1.236-.56-1.61-.336-.373-.798-.56-1.386-.56-.588 0-1.055.187-1.4.56-.346.374-.528.91-.546 1.61l-.014.532.014.532c.018.7.2 1.237.546 1.61.345.374.812.56 1.4.56zm12.086 1.078c-1.008 0-1.773-.35-2.296-1.05v.588a.323.323 0 01-.098.238.303.303 0 01-.224.084h-.644a.353.353 0 01-.238-.084.351.351 0 01-.084-.238v-9.296c0-.093.028-.168.084-.224a.325.325 0 01.238-.098h.686a.28.28 0 01.224.098.303.303 0 01.084.224v3.22c.551-.681 1.307-1.022 2.268-1.022.971 0 1.704.322 2.198.966.495.635.761 1.433.798 2.394.01.103.014.243.014.42 0 .178-.004.318-.014.42-.037.971-.303 1.774-.798 2.408-.494.635-1.227.952-2.198.952zm-.294-1.134c.663 0 1.144-.205 1.442-.616.308-.41.476-.952.504-1.624.01-.093.014-.228.014-.406 0-1.764-.653-2.646-1.96-2.646-.625 0-1.106.206-1.442.616a2.342 2.342 0 00-.532 1.442l-.014.546.014.532c.028.588.201 1.097.518 1.526.327.42.812.63 1.456.63zm7.935 1.134c-.962 0-1.732-.294-2.31-.882-.57-.597-.882-1.409-.938-2.436l-.014-.476.014-.462c.065-1.008.382-1.81.952-2.408.578-.597 1.339-.896 2.282-.896 1.036 0 1.838.332 2.408.994.569.654.854 1.54.854 2.66v.238a.324.324 0 01-.098.238.303.303 0 01-.224.084h-4.844v.126c.028.607.21 1.125.546 1.554.345.42.798.63 1.358.63.429 0 .779-.084 1.05-.252.28-.177.485-.359.616-.546.084-.112.144-.177.182-.196a.49.49 0 01.238-.042h.686a.32.32 0 01.21.07.242.242 0 01.084.196c0 .206-.131.453-.392.742-.252.29-.612.542-1.078.756-.458.206-.985.308-1.582.308zm1.918-4.312v-.042c0-.644-.178-1.166-.532-1.568-.346-.41-.812-.616-1.4-.616-.588 0-1.055.206-1.4.616-.336.402-.504.924-.504 1.568v.042h3.836zm4.004 6.832a.268.268 0 01-.196-.084.268.268 0 01-.084-.196c0-.065.023-.149.07-.252l1.078-2.562-2.674-6.314a.877.877 0 01-.07-.238.285.285 0 01.294-.294h.686c.149 0 .261.08.336.238l2.128 5.096 2.184-5.096c.075-.158.191-.238.35-.238h.658c.084 0 .154.028.21.084a.27.27 0 01.084.196c0 .028-.023.112-.07.252l-3.976 9.17c-.075.159-.191.238-.35.238h-.658zm9.187-2.52c-1.027 0-1.825-.289-2.394-.868-.56-.578-.859-1.348-.896-2.31l-.014-.602.014-.602c.037-.952.34-1.717.91-2.296.569-.588 1.362-.882 2.38-.882 1.017 0 1.81.294 2.38.882.569.579.872 1.344.91 2.296.009.103.014.304.014.602 0 .299-.005.5-.014.602-.038.962-.341 1.732-.91 2.31-.56.579-1.354.868-2.38.868zm0-1.078c.588 0 1.05-.186 1.386-.56.345-.373.532-.91.56-1.61.009-.093.014-.27.014-.532 0-.261-.005-.438-.014-.532-.028-.7-.215-1.236-.56-1.61-.336-.373-.798-.56-1.386-.56-.588 0-1.055.187-1.4.56-.346.374-.528.91-.546 1.61l-.014.532.014.532c.018.7.2 1.237.546 1.61.345.374.812.56 1.4.56zm5.379.938a.351.351 0 01-.238-.084.351.351 0 01-.084-.238v-6.636c0-.093.028-.168.084-.224a.324.324 0 01.238-.098h.658c.093 0 .168.033.224.098a.282.282 0 01.098.224v.616c.27-.345.588-.611.952-.798.373-.186.835-.28 1.386-.28.896 0 1.591.29 2.086.868.504.57.756 1.33.756 2.282v3.948a.324.324 0 01-.098.238.303.303 0 01-.224.084h-.7a.351.351 0 01-.238-.084.351.351 0 01-.084-.238v-3.878c0-.662-.164-1.176-.49-1.54-.318-.364-.78-.546-1.386-.546-.588 0-1.055.187-1.4.56-.346.364-.518.873-.518 1.526v3.878a.324.324 0 01-.098.238.303.303 0 01-.224.084h-.7zm10.828.14c-.971 0-1.703-.317-2.198-.952-.495-.634-.756-1.437-.784-2.408l-.014-.42.014-.42c.028-.961.289-1.759.784-2.394.495-.644 1.227-.966 2.198-.966.961 0 1.717.341 2.268 1.022v-3.22c0-.093.028-.168.084-.224a.325.325 0 01.238-.098h.672c.093 0 .168.033.224.098a.282.282 0 01.098.224v9.296a.324.324 0 01-.098.238.303.303 0 01-.224.084h-.63a.353.353 0 01-.238-.084.351.351 0 01-.084-.238v-.588c-.541.7-1.311 1.05-2.31 1.05zm.294-1.134c.644 0 1.125-.21 1.442-.63.327-.429.504-.938.532-1.526.009-.102.014-.28.014-.532 0-.261-.005-.443-.014-.546a2.344 2.344 0 00-.532-1.442c-.336-.41-.817-.616-1.442-.616-.663 0-1.148.206-1.456.616-.299.411-.462.952-.49 1.624l-.014.406c0 1.764.653 2.646 1.96 2.646zm9.154-7.644a.351.351 0 01-.238-.084.351.351 0 01-.084-.238v-.756c0-.093.028-.172.084-.238a.324.324 0 01.238-.098h.896c.093 0 .172.033.238.098a.327.327 0 01.098.238v.756a.324.324 0 01-.098.238.355.355 0 01-.238.084h-.896zm-1.54 11.298a.277.277 0 01-.224-.098.277.277 0 01-.098-.224v-.476c0-.093.032-.172.098-.238a.302.302 0 01.224-.084h.196c.457 0 .76-.116.91-.35.149-.233.224-.578.224-1.036v-7.112c0-.093.028-.168.084-.224a.324.324 0 01.238-.098h.686c.093 0 .168.033.224.098a.282.282 0 01.098.224v7.126c0 1.662-.798 2.492-2.394 2.492h-.266zm7.46-2.52c-.886 0-1.572-.284-2.058-.854-.485-.578-.728-1.344-.728-2.296v-3.948c0-.093.028-.168.084-.224a.327.327 0 01.238-.098h.7a.28.28 0 01.224.098.279.279 0 01.098.224v3.878c0 1.391.607 2.086 1.82 2.086.588 0 1.055-.182 1.4-.546.346-.373.518-.886.518-1.54v-3.878c0-.093.028-.168.084-.224a.327.327 0 01.238-.098h.7a.28.28 0 01.224.098.303.303 0 01.084.224v6.636a.351.351 0 01-.084.238.302.302 0 01-.224.084h-.658a.355.355 0 01-.238-.084.351.351 0 01-.084-.238v-.616a2.622 2.622 0 01-.952.812c-.373.178-.835.266-1.386.266zm8.226 0c-.653 0-1.204-.102-1.652-.308-.438-.214-.77-.457-.994-.728-.214-.27-.322-.494-.322-.672 0-.093.033-.163.098-.21a.375.375 0 01.224-.084h.63c.094 0 .178.047.252.14.224.262.467.467.728.616.262.15.612.224 1.05.224.486 0 .878-.093 1.176-.28.308-.196.462-.462.462-.798a.767.767 0 00-.196-.546c-.121-.149-.336-.275-.644-.378-.298-.112-.746-.233-1.344-.364-.812-.177-1.39-.434-1.736-.77-.336-.336-.504-.77-.504-1.302 0-.354.103-.69.308-1.008.215-.326.523-.588.924-.784.411-.205.901-.308 1.47-.308.598 0 1.106.098 1.526.294.42.196.733.43.938.7.215.262.322.481.322.658a.263.263 0 01-.098.21.285.285 0 01-.21.084h-.588a.343.343 0 01-.28-.14 3.383 3.383 0 00-.392-.406 1.258 1.258 0 00-.462-.266 2.169 2.169 0 00-.756-.112c-.448 0-.793.098-1.036.294a.892.892 0 00-.364.742c0 .196.052.364.154.504.103.131.299.252.588.364.299.112.728.229 1.288.35.887.187 1.512.458 1.876.812.374.346.56.789.56 1.33 0 .402-.116.766-.35 1.092-.233.327-.578.584-1.036.77-.448.187-.984.28-1.61.28zm7.445-.14c-1.474 0-2.212-.821-2.212-2.464v-3.696h-1.092a.355.355 0 01-.238-.084.351.351 0 01-.084-.238v-.476c0-.093.028-.168.084-.224a.327.327 0 01.238-.098h1.092v-2.338c0-.093.028-.168.084-.224a.327.327 0 01.238-.098h.658a.28.28 0 01.224.098.279.279 0 01.098.224v2.338h1.736a.28.28 0 01.224.098.279.279 0 01.098.224v.476a.32.32 0 01-.098.238.302.302 0 01-.224.084h-1.736v3.598c0 .467.08.822.238 1.064.159.234.42.35.784.35h.854a.28.28 0 01.224.098.279.279 0 01.098.224v.504a.32.32 0 01-.098.238.302.302 0 01-.224.084h-.966zm8.6 0c-1.475 0-2.212-.821-2.212-2.464v-3.696h-1.092a.353.353 0 01-.238-.084.351.351 0 01-.084-.238v-.476c0-.093.028-.168.084-.224a.325.325 0 01.238-.098h1.092v-2.338c0-.093.028-.168.084-.224a.325.325 0 01.238-.098h.658c.093 0 .168.033.224.098a.282.282 0 01.098.224v2.338h1.736c.093 0 .168.033.224.098a.282.282 0 01.098.224v.476a.324.324 0 01-.098.238.303.303 0 01-.224.084h-1.736v3.598c0 .467.079.822.238 1.064.159.234.42.35.784.35h.854c.093 0 .168.033.224.098a.282.282 0 01.098.224v.504a.324.324 0 01-.098.238.303.303 0 01-.224.084h-.966zm2.963 0a.351.351 0 01-.238-.084.351.351 0 01-.084-.238v-9.296c0-.093.028-.168.084-.224a.324.324 0 01.238-.098h.7c.093 0 .168.033.224.098a.282.282 0 01.098.224v3.262c.27-.345.588-.606.952-.784.364-.186.816-.28 1.358-.28.896 0 1.591.29 2.086.868.504.57.756 1.33.756 2.282v3.948a.324.324 0 01-.098.238.303.303 0 01-.224.084h-.7a.351.351 0 01-.238-.084.351.351 0 01-.084-.238v-3.878c0-.662-.164-1.176-.49-1.54-.318-.364-.78-.546-1.386-.546-.588 0-1.06.187-1.414.56-.346.364-.518.873-.518 1.526v3.878a.324.324 0 01-.098.238.303.303 0 01-.224.084h-.7zm11.107.14c-.961 0-1.731-.294-2.31-.882-.569-.597-.882-1.409-.938-2.436l-.014-.476.014-.462c.065-1.008.383-1.81.952-2.408.579-.597 1.339-.896 2.282-.896 1.036 0 1.839.332 2.408.994.569.654.854 1.54.854 2.66v.238a.324.324 0 01-.098.238.303.303 0 01-.224.084h-4.844v.126c.028.607.21 1.125.546 1.554.345.42.798.63 1.358.63.429 0 .779-.084 1.05-.252.28-.177.485-.359.616-.546.084-.112.145-.177.182-.196a.492.492 0 01.238-.042h.686a.32.32 0 01.21.07.242.242 0 01.084.196c0 .206-.131.453-.392.742-.252.29-.611.542-1.078.756-.457.206-.985.308-1.582.308zm1.918-4.312v-.042c0-.644-.177-1.166-.532-1.568-.345-.41-.812-.616-1.4-.616-.588 0-1.055.206-1.4.616-.336.402-.504.924-.504 1.568v.042h3.836zm8.977 4.172c-1.475 0-2.212-.821-2.212-2.464v-3.696h-1.092a.351.351 0 01-.238-.084.351.351 0 01-.084-.238v-.476c0-.093.028-.168.084-.224a.324.324 0 01.238-.098h1.092v-2.338c0-.093.028-.168.084-.224a.324.324 0 01.238-.098h.658c.093 0 .168.033.224.098a.282.282 0 01.098.224v2.338h1.736c.093 0 .168.033.224.098a.282.282 0 01.098.224v.476a.324.324 0 01-.098.238.303.303 0 01-.224.084h-1.736v3.598c0 .467.079.822.238 1.064.158.234.42.35.784.35h.854c.093 0 .168.033.224.098a.282.282 0 01.098.224v.504a.324.324 0 01-.098.238.303.303 0 01-.224.084h-.966zm4.657.14c-.458 0-.882-.093-1.274-.28a2.425 2.425 0 01-.938-.756 1.864 1.864 0 01-.336-1.078c0-.616.252-1.12.756-1.512.513-.401 1.204-.662 2.072-.784l2.086-.294v-.406c0-.952-.546-1.428-1.638-1.428-.411 0-.747.089-1.008.266a1.711 1.711 0 00-.588.602.384.384 0 01-.112.182c-.038.038-.094.056-.168.056h-.602a.334.334 0 01-.224-.084.334.334 0 01-.084-.224c.009-.224.112-.476.308-.756.205-.289.518-.536.938-.742.42-.214.938-.322 1.554-.322 1.045 0 1.796.248 2.254.742.457.486.686 1.092.686 1.82v4.536a.324.324 0 01-.098.238.303.303 0 01-.224.084h-.644a.351.351 0 01-.238-.084.351.351 0 01-.084-.238v-.602c-.206.299-.504.551-.896.756-.392.206-.892.308-1.498.308zm.294-1.05c.606 0 1.101-.196 1.484-.588.392-.401.588-.975.588-1.722v-.392l-1.624.238c-.663.094-1.162.252-1.498.476-.336.215-.504.49-.504.826 0 .374.154.663.462.868.308.196.672.294 1.092.294zm8.34 1.05c-.999 0-1.783-.28-2.352-.84-.56-.569-.859-1.362-.896-2.38l-.014-.56.014-.56c.037-1.017.336-1.806.896-2.366.569-.569 1.353-.854 2.352-.854.672 0 1.241.122 1.708.364.467.243.812.542 1.036.896.233.355.359.71.378 1.064a.246.246 0 01-.084.224.353.353 0 01-.238.084h-.672c-.093 0-.163-.018-.21-.056a.574.574 0 01-.14-.224c-.159-.448-.383-.765-.672-.952-.289-.196-.653-.294-1.092-.294-.579 0-1.041.182-1.386.546-.336.355-.518.901-.546 1.638l-.014.504.014.476c.028.747.21 1.298.546 1.652.336.355.798.532 1.386.532.439 0 .803-.093 1.092-.28.289-.196.513-.518.672-.966a.582.582 0 01.14-.224c.047-.046.117-.07.21-.07h.672c.093 0 .173.033.238.098a.247.247 0 01.084.224c-.019.346-.145.7-.378 1.064-.224.355-.569.654-1.036.896-.457.243-1.027.364-1.708.364zm7.627-.14c-1.475 0-2.212-.821-2.212-2.464v-3.696h-1.092a.351.351 0 01-.238-.084.351.351 0 01-.084-.238v-.476c0-.093.028-.168.084-.224a.324.324 0 01.238-.098h1.092v-2.338c0-.093.028-.168.084-.224a.324.324 0 01.238-.098h.658c.093 0 .168.033.224.098a.282.282 0 01.098.224v2.338h1.736c.093 0 .168.033.224.098a.282.282 0 01.098.224v.476a.324.324 0 01-.098.238.303.303 0 01-.224.084h-1.736v3.598c0 .467.079.822.238 1.064.158.234.42.35.784.35h.854c.093 0 .168.033.224.098a.282.282 0 01.098.224v.504a.324.324 0 01-.098.238.303.303 0 01-.224.084h-.966zm2.837-8.638a.351.351 0 01-.238-.084.351.351 0 01-.084-.238v-.756c0-.093.028-.172.084-.238a.324.324 0 01.238-.098h.882c.093 0 .172.033.238.098a.327.327 0 01.098.238v.756a.324.324 0 01-.098.238.355.355 0 01-.238.084h-.882zm.112 8.638a.351.351 0 01-.238-.084.351.351 0 01-.084-.238v-6.636c0-.093.028-.168.084-.224a.324.324 0 01.238-.098h.672c.093 0 .168.033.224.098a.282.282 0 01.098.224v6.636a.324.324 0 01-.098.238.303.303 0 01-.224.084h-.672zm6.008.14c-.999 0-1.783-.28-2.352-.84-.56-.569-.859-1.362-.896-2.38l-.014-.56.014-.56c.037-1.017.336-1.806.896-2.366.569-.569 1.353-.854 2.352-.854.672 0 1.241.122 1.708.364.467.243.812.542 1.036.896.233.355.359.71.378 1.064a.246.246 0 01-.084.224.353.353 0 01-.238.084h-.672c-.093 0-.163-.018-.21-.056a.574.574 0 01-.14-.224c-.159-.448-.383-.765-.672-.952-.289-.196-.653-.294-1.092-.294-.579 0-1.041.182-1.386.546-.336.355-.518.901-.546 1.638l-.014.504.014.476c.028.747.21 1.298.546 1.652.336.355.798.532 1.386.532.439 0 .803-.093 1.092-.28.289-.196.513-.518.672-.966a.582.582 0 01.14-.224c.047-.046.117-.07.21-.07h.672c.093 0 .173.033.238.098a.247.247 0 01.084.224c-.019.346-.145.7-.378 1.064-.224.355-.569.654-1.036.896-.457.243-1.027.364-1.708.364zm6.815 0c-.458 0-.882-.093-1.274-.28a2.425 2.425 0 01-.938-.756 1.864 1.864 0 01-.336-1.078c0-.616.252-1.12.756-1.512.513-.401 1.204-.662 2.072-.784l2.086-.294v-.406c0-.952-.546-1.428-1.638-1.428-.411 0-.747.089-1.008.266a1.711 1.711 0 00-.588.602.384.384 0 01-.112.182c-.038.038-.094.056-.168.056h-.602a.334.334 0 01-.224-.084.334.334 0 01-.084-.224c.009-.224.112-.476.308-.756.205-.289.518-.536.938-.742.42-.214.938-.322 1.554-.322 1.045 0 1.796.248 2.254.742.457.486.686 1.092.686 1.82v4.536a.324.324 0 01-.098.238.303.303 0 01-.224.084h-.644a.351.351 0 01-.238-.084.351.351 0 01-.084-.238v-.602c-.206.299-.504.551-.896.756-.392.206-.892.308-1.498.308zm.294-1.05c.606 0 1.101-.196 1.484-.588.392-.401.588-.975.588-1.722v-.392l-1.624.238c-.663.094-1.162.252-1.498.476-.336.215-.504.49-.504.826 0 .374.154.663.462.868.308.196.672.294 1.092.294zm5.736.91a.355.355 0 01-.238-.084.351.351 0 01-.084-.238v-9.296c0-.093.028-.168.084-.224a.327.327 0 01.238-.098h.658a.28.28 0 01.224.098.279.279 0 01.098.224v9.296a.32.32 0 01-.098.238.302.302 0 01-.224.084h-.658zm-194.859 24.14a2.92 2.92 0 01-1.274-.28 2.428 2.428 0 01-.938-.756 1.864 1.864 0 01-.336-1.078c0-.616.252-1.12.756-1.512.513-.401 1.204-.662 2.072-.784l2.086-.294v-.406c0-.952-.546-1.428-1.638-1.428-.411 0-.747.089-1.008.266a1.723 1.723 0 00-.588.602.379.379 0 01-.112.182c-.038.038-.094.056-.168.056h-.602a.335.335 0 01-.224-.084.334.334 0 01-.084-.224c.009-.224.112-.476.308-.756.205-.289.518-.536.938-.742.42-.214.938-.322 1.554-.322 1.045 0 1.796.248 2.254.742.457.486.686 1.092.686 1.82v4.536a.322.322 0 01-.098.238.303.303 0 01-.224.084h-.644a.353.353 0 01-.238-.084.351.351 0 01-.084-.238v-.602c-.206.299-.504.551-.896.756-.392.206-.892.308-1.498.308zm.294-1.05c.606 0 1.101-.196 1.484-.588.392-.401.588-.975.588-1.722v-.392l-1.624.238c-.663.094-1.162.252-1.498.476-.336.215-.504.49-.504.826 0 .374.154.663.462.868.308.196.672.294 1.092.294zm7.92 1.05c-.653 0-1.204-.102-1.652-.308-.438-.214-.77-.457-.994-.728-.214-.27-.322-.494-.322-.672 0-.093.033-.163.098-.21a.372.372 0 01.224-.084h.63c.094 0 .178.047.252.14.224.262.467.467.728.616.262.15.612.224 1.05.224.486 0 .878-.093 1.176-.28.308-.196.462-.462.462-.798a.768.768 0 00-.196-.546c-.121-.149-.336-.275-.644-.378-.298-.112-.746-.233-1.344-.364-.812-.177-1.39-.434-1.736-.77-.336-.336-.504-.77-.504-1.302 0-.354.103-.69.308-1.008.215-.326.523-.588.924-.784.41-.205.9-.308 1.47-.308.598 0 1.106.098 1.526.294.42.196.733.43.938.7.215.262.322.481.322.658a.265.265 0 01-.098.21.285.285 0 01-.21.084h-.588a.343.343 0 01-.28-.14 3.414 3.414 0 00-.392-.406 1.27 1.27 0 00-.462-.266 2.169 2.169 0 00-.756-.112c-.448 0-.793.098-1.036.294a.89.89 0 00-.364.742c0 .196.052.364.154.504.103.131.299.252.588.364.299.112.728.229 1.288.35.887.187 1.512.458 1.876.812.374.346.56.789.56 1.33 0 .402-.116.766-.35 1.092-.233.327-.578.584-1.036.77-.448.187-.984.28-1.61.28zm4.953 2.52a.321.321 0 01-.238-.098.302.302 0 01-.084-.224v-9.296c0-.093.028-.168.084-.224a.325.325 0 01.238-.098h.644c.093 0 .168.033.224.098a.28.28 0 01.098.224v.616c.523-.718 1.288-1.078 2.296-1.078.98 0 1.713.308 2.198.924.495.616.76 1.41.798 2.38.01.103.014.262.014.476 0 .215-.005.374-.014.476-.037.962-.303 1.755-.798 2.38-.495.616-1.227.924-2.198.924-.97 0-1.727-.35-2.268-1.05v3.248a.302.302 0 01-.084.224.278.278 0 01-.224.098h-.686zm2.968-3.654c.663 0 1.143-.205 1.442-.616.308-.41.476-.952.504-1.624.01-.093.014-.228.014-.406 0-1.764-.653-2.646-1.96-2.646-.644 0-1.13.215-1.456.644-.317.42-.49.924-.518 1.512l-.014.532.014.546a2.34 2.34 0 00.532 1.442c.336.411.817.616 1.442.616zm7.948 1.134c-.962 0-1.732-.294-2.31-.882-.57-.597-.882-1.409-.938-2.436l-.014-.476.014-.462c.065-1.008.382-1.81.952-2.408.579-.597 1.34-.896 2.282-.896 1.036 0 1.839.332 2.408.994.57.654.854 1.54.854 2.66v.238a.323.323 0 01-.098.238.303.303 0 01-.224.084h-4.844v.126c.028.607.21 1.125.546 1.554.345.42.798.63 1.358.63.43 0 .78-.084 1.05-.252.28-.177.485-.359.616-.546.084-.112.145-.177.182-.196a.491.491 0 01.238-.042h.686a.32.32 0 01.21.07.242.242 0 01.084.196c0 .206-.13.453-.392.742-.252.29-.612.542-1.078.756-.457.206-.985.308-1.582.308zm1.918-4.312v-.042c0-.644-.177-1.166-.532-1.568-.346-.41-.812-.616-1.4-.616-.588 0-1.055.206-1.4.616-.336.402-.504.924-.504 1.568v.042h3.836zm5.944 4.312c-.999 0-1.783-.28-2.352-.84-.56-.569-.859-1.362-.896-2.38l-.014-.56.014-.56c.037-1.017.336-1.806.896-2.366.57-.569 1.353-.854 2.352-.854.672 0 1.241.122 1.708.364.466.243.812.542 1.036.896.233.355.36.71.378 1.064a.245.245 0 01-.084.224.353.353 0 01-.238.084h-.672c-.094 0-.163-.018-.21-.056a.574.574 0 01-.14-.224c-.159-.448-.383-.765-.672-.952-.29-.196-.653-.294-1.092-.294-.579 0-1.04.182-1.386.546-.336.355-.518.901-.546 1.638l-.014.504.014.476c.028.747.21 1.298.546 1.652.336.355.798.532 1.386.532.439 0 .803-.093 1.092-.28.29-.196.513-.518.672-.966a.582.582 0 01.14-.224c.047-.046.117-.07.21-.07h.672c.093 0 .172.033.238.098a.246.246 0 01.084.224c-.019.346-.145.7-.378 1.064-.224.355-.57.654-1.036.896-.457.243-1.027.364-1.708.364zm7.626-.14c-1.474 0-2.212-.821-2.212-2.464v-3.696H86.85a.353.353 0 01-.238-.084.351.351 0 01-.084-.238v-.476c0-.093.028-.168.084-.224a.325.325 0 01.238-.098h1.092v-2.338c0-.093.028-.168.084-.224a.325.325 0 01.238-.098h.658a.28.28 0 01.224.098.28.28 0 01.098.224v2.338h1.736a.28.28 0 01.224.098.28.28 0 01.098.224v.476a.323.323 0 01-.098.238.303.303 0 01-.224.084h-1.736v3.598c0 .467.08.822.238 1.064.16.234.42.35.784.35h.854a.28.28 0 01.224.098.28.28 0 01.098.224v.504a.323.323 0 01-.098.238.303.303 0 01-.224.084h-.966zm5.147.14c-.653 0-1.204-.102-1.652-.308-.438-.214-.77-.457-.994-.728-.215-.27-.322-.494-.322-.672 0-.093.033-.163.098-.21a.372.372 0 01.224-.084h.63c.093 0 .177.047.252.14.224.262.467.467.728.616.261.15.612.224 1.05.224.486 0 .878-.093 1.176-.28.308-.196.462-.462.462-.798a.768.768 0 00-.196-.546c-.121-.149-.336-.275-.644-.378-.298-.112-.746-.233-1.344-.364-.812-.177-1.39-.434-1.736-.77-.336-.336-.504-.77-.504-1.302 0-.354.103-.69.308-1.008.215-.326.523-.588.924-.784.41-.205.9-.308 1.47-.308.597 0 1.106.098 1.526.294.42.196.733.43.938.7.215.262.322.481.322.658a.265.265 0 01-.098.21.285.285 0 01-.21.084h-.588a.343.343 0 01-.28-.14 3.414 3.414 0 00-.392-.406 1.27 1.27 0 00-.462-.266 2.169 2.169 0 00-.756-.112c-.448 0-.793.098-1.036.294a.89.89 0 00-.364.742c0 .196.052.364.154.504.103.131.299.252.588.364.299.112.728.229 1.288.35.887.187 1.512.458 1.876.812.373.346.56.789.56 1.33 0 .402-.117.766-.35 1.092-.233.327-.578.584-1.036.77-.448.187-.984.28-1.61.28zm11.031 0c-1.027 0-1.825-.289-2.394-.868-.56-.578-.859-1.348-.896-2.31l-.014-.602.014-.602c.037-.952.34-1.717.91-2.296.569-.588 1.362-.882 2.38-.882 1.017 0 1.81.294 2.38.882.569.579.872 1.344.91 2.296.009.103.014.304.014.602 0 .299-.005.5-.014.602-.038.962-.341 1.732-.91 2.31-.56.579-1.354.868-2.38.868zm0-1.078c.588 0 1.05-.186 1.386-.56.345-.373.532-.91.56-1.61.009-.093.014-.27.014-.532 0-.261-.005-.438-.014-.532-.028-.7-.215-1.236-.56-1.61-.336-.373-.798-.56-1.386-.56-.588 0-1.055.187-1.4.56-.346.374-.528.91-.546 1.61l-.014.532.014.532c.018.7.2 1.237.546 1.61.345.374.812.56 1.4.56zm6.025.938a.351.351 0 01-.238-.084.351.351 0 01-.084-.238v-5.838h-1.19a.351.351 0 01-.238-.084.351.351 0 01-.084-.238v-.476c0-.093.028-.168.084-.224a.324.324 0 01.238-.098h1.19v-.7c0-1.586.802-2.38 2.408-2.38h.84c.093 0 .168.033.224.098a.282.282 0 01.098.224v.476a.324.324 0 01-.098.238.303.303 0 01-.224.084h-.812c-.42 0-.714.112-.882.336-.168.215-.252.546-.252.994v.63h1.806c.093 0 .168.033.224.098a.282.282 0 01.098.224v.476a.324.324 0 01-.098.238.303.303 0 01-.224.084h-1.806v5.838a.324.324 0 01-.098.238.303.303 0 01-.224.084h-.658zm7.957 0a.355.355 0 01-.238-.084.351.351 0 01-.084-.238v-9.156c0-.093.028-.168.084-.224a.327.327 0 01.238-.098h.742a.28.28 0 01.224.098.279.279 0 01.098.224v9.156a.32.32 0 01-.098.238.302.302 0 01-.224.084h-.742zm5.971 0a.351.351 0 01-.238-.084.351.351 0 01-.084-.238v-8.232h-2.688a.351.351 0 01-.238-.084.351.351 0 01-.084-.238v-.588c0-.093.028-.172.084-.238a.324.324 0 01.238-.098h6.748c.102 0 .182.033.238.098a.298.298 0 01.098.238v.588a.324.324 0 01-.098.238.355.355 0 01-.238.084h-2.674v8.232a.324.324 0 01-.098.238.355.355 0 01-.238.084h-.728zm8.789-3.612a.355.355 0 01-.238-.084.351.351 0 01-.084-.238v-.532c0-.093.028-.168.084-.224a.327.327 0 01.238-.098h4.2a.28.28 0 01.224.098.279.279 0 01.098.224v.532a.32.32 0 01-.098.238.302.302 0 01-.224.084h-4.2zm10.751 3.612a.355.355 0 01-.238-.084.351.351 0 01-.084-.238v-5.838h-1.19a.355.355 0 01-.238-.084.351.351 0 01-.084-.238v-.476c0-.093.028-.168.084-.224a.327.327 0 01.238-.098h1.19v-.7c0-1.586.803-2.38 2.408-2.38h.84a.28.28 0 01.224.098.279.279 0 01.098.224v.476a.32.32 0 01-.098.238.302.302 0 01-.224.084h-.812c-.42 0-.714.112-.882.336-.168.215-.252.546-.252.994v.63h1.806a.28.28 0 01.224.098.279.279 0 01.098.224v.476a.32.32 0 01-.098.238.302.302 0 01-.224.084h-1.806v5.838a.32.32 0 01-.098.238.302.302 0 01-.224.084h-.658zm7.182.14c-1.026 0-1.824-.289-2.394-.868-.56-.578-.858-1.348-.896-2.31l-.014-.602.014-.602c.038-.952.341-1.717.91-2.296.57-.588 1.363-.882 2.38-.882 1.018 0 1.811.294 2.38.882.57.579.873 1.344.91 2.296.01.103.014.304.014.602 0 .299-.004.5-.014.602-.037.962-.34 1.732-.91 2.31-.56.579-1.353.868-2.38.868zm0-1.078c.588 0 1.05-.186 1.386-.56.346-.373.532-.91.56-1.61.01-.093.014-.27.014-.532 0-.261-.004-.438-.014-.532-.028-.7-.214-1.236-.56-1.61-.336-.373-.798-.56-1.386-.56-.588 0-1.054.187-1.4.56-.345.374-.527.91-.546 1.61l-.014.532.014.532c.019.7.201 1.237.546 1.61.346.374.812.56 1.4.56zm7.997 1.078c-.998 0-1.782-.28-2.352-.84-.56-.569-.858-1.362-.896-2.38l-.014-.56.014-.56c.038-1.017.336-1.806.896-2.366.57-.569 1.354-.854 2.352-.854.672 0 1.242.122 1.708.364.467.243.812.542 1.036.896.234.355.36.71.378 1.064a.241.241 0 01-.084.224.351.351 0 01-.238.084h-.672c-.093 0-.163-.018-.21-.056a.586.586 0 01-.14-.224c-.158-.448-.382-.765-.672-.952-.289-.196-.653-.294-1.092-.294-.578 0-1.04.182-1.386.546-.336.355-.518.901-.546 1.638l-.014.504.014.476c.028.747.21 1.298.546 1.652.336.355.798.532 1.386.532.439 0 .803-.093 1.092-.28.29-.196.514-.518.672-.966a.594.594 0 01.14-.224c.047-.046.117-.07.21-.07h.672c.094 0 .173.033.238.098a.242.242 0 01.084.224c-.018.346-.144.7-.378 1.064-.224.355-.569.654-1.036.896-.457.243-1.026.364-1.708.364zm7.501 0c-.887 0-1.573-.284-2.058-.854-.485-.578-.728-1.344-.728-2.296v-3.948c0-.093.028-.168.084-.224a.325.325 0 01.238-.098h.7c.093 0 .168.033.224.098a.282.282 0 01.098.224v3.878c0 1.391.607 2.086 1.82 2.086.588 0 1.055-.182 1.4-.546.345-.373.518-.886.518-1.54v-3.878c0-.093.028-.168.084-.224a.325.325 0 01.238-.098h.7c.093 0 .168.033.224.098a.303.303 0 01.084.224v6.636a.351.351 0 01-.084.238.303.303 0 01-.224.084h-.658a.353.353 0 01-.238-.084.351.351 0 01-.084-.238v-.616a2.63 2.63 0 01-.952.812c-.373.178-.835.266-1.386.266zm8.226 0c-.653 0-1.204-.102-1.652-.308-.439-.214-.77-.457-.994-.728-.215-.27-.322-.494-.322-.672 0-.093.033-.163.098-.21a.372.372 0 01.224-.084h.63c.093 0 .177.047.252.14.224.262.467.467.728.616.261.15.611.224 1.05.224.485 0 .877-.093 1.176-.28.308-.196.462-.462.462-.798a.767.767 0 00-.196-.546c-.121-.149-.336-.275-.644-.378-.299-.112-.747-.233-1.344-.364-.812-.177-1.391-.434-1.736-.77-.336-.336-.504-.77-.504-1.302 0-.354.103-.69.308-1.008.215-.326.523-.588.924-.784.411-.205.901-.308 1.47-.308.597 0 1.106.098 1.526.294.42.196.733.43.938.7.215.262.322.481.322.658a.266.266 0 01-.098.21.285.285 0 01-.21.084h-.588a.343.343 0 01-.28-.14 3.383 3.383 0 00-.392-.406 1.275 1.275 0 00-.462-.266 2.169 2.169 0 00-.756-.112c-.448 0-.793.098-1.036.294a.89.89 0 00-.364.742c0 .196.051.364.154.504.103.131.299.252.588.364.299.112.728.229 1.288.35.887.187 1.512.458 1.876.812.373.346.56.789.56 1.33 0 .402-.117.766-.35 1.092-.233.327-.579.584-1.036.77-.448.187-.985.28-1.61.28zm4.827-8.778a.351.351 0 01-.238-.084.351.351 0 01-.084-.238v-.756c0-.093.028-.172.084-.238a.324.324 0 01.238-.098h.882c.093 0 .172.033.238.098a.327.327 0 01.098.238v.756a.324.324 0 01-.098.238.355.355 0 01-.238.084h-.882zm.112 8.638a.351.351 0 01-.238-.084.351.351 0 01-.084-.238v-6.636c0-.093.028-.168.084-.224a.324.324 0 01.238-.098h.672c.093 0 .168.033.224.098a.282.282 0 01.098.224v6.636a.324.324 0 01-.098.238.303.303 0 01-.224.084h-.672zm3.39 0a.355.355 0 01-.238-.084.351.351 0 01-.084-.238v-6.636c0-.093.028-.168.084-.224a.327.327 0 01.238-.098h.658a.28.28 0 01.224.098.279.279 0 01.098.224v.616c.271-.345.588-.611.952-.798.374-.186.836-.28 1.386-.28.896 0 1.592.29 2.086.868.504.57.756 1.33.756 2.282v3.948a.32.32 0 01-.098.238.302.302 0 01-.224.084h-.7a.355.355 0 01-.238-.084.351.351 0 01-.084-.238v-3.878c0-.662-.163-1.176-.49-1.54-.317-.364-.779-.546-1.386-.546-.588 0-1.054.187-1.4.56-.345.364-.518.873-.518 1.526v3.878a.32.32 0 01-.098.238.302.302 0 01-.224.084h-.7zm11.15 3.08c-.765 0-1.381-.13-1.848-.392-.466-.252-.798-.541-.994-.868-.196-.326-.303-.62-.322-.882a.284.284 0 01.084-.238.359.359 0 01.238-.098h.672c.084 0 .154.019.21.056a.517.517 0 01.14.238c.112.299.294.556.546.77.262.224.663.336 1.204.336.691 0 1.2-.149 1.526-.448.327-.289.49-.807.49-1.554v-.952c-.242.308-.55.556-.924.742-.373.178-.816.266-1.33.266-.989 0-1.731-.312-2.226-.938-.485-.634-.742-1.437-.77-2.408l-.014-.392.014-.378c.028-.961.29-1.759.784-2.394.495-.644 1.232-.966 2.212-.966.98 0 1.746.36 2.296 1.078v-.602c0-.093.028-.172.084-.238a.327.327 0 01.238-.098h.644c.094 0 .173.033.238.098a.323.323 0 01.098.238v6.79c0 2.156-1.096 3.234-3.29 3.234zm-.028-4.144c.635 0 1.116-.21 1.442-.63.327-.42.504-.919.532-1.498.01-.084.014-.247.014-.49 0-.233-.004-.392-.014-.476-.028-.578-.205-1.078-.532-1.498-.317-.42-.798-.63-1.442-.63-.662 0-1.143.206-1.442.616-.298.411-.462.952-.49 1.624l-.014.364.014.378c.028.663.192 1.204.49 1.624.299.411.78.616 1.442.616zm11.814 1.204c-1.027 0-1.825-.289-2.394-.868-.56-.578-.859-1.348-.896-2.31l-.014-.602.014-.602c.037-.952.34-1.717.91-2.296.569-.588 1.362-.882 2.38-.882 1.017 0 1.81.294 2.38.882.569.579.872 1.344.91 2.296.009.103.014.304.014.602 0 .299-.005.5-.014.602-.038.962-.341 1.732-.91 2.31-.56.579-1.354.868-2.38.868zm0-1.078c.588 0 1.05-.186 1.386-.56.345-.373.532-.91.56-1.61.009-.093.014-.27.014-.532 0-.261-.005-.438-.014-.532-.028-.7-.215-1.236-.56-1.61-.336-.373-.798-.56-1.386-.56-.588 0-1.055.187-1.4.56-.346.374-.528.91-.546 1.61l-.014.532.014.532c.018.7.2 1.237.546 1.61.345.374.812.56 1.4.56zm5.379.938a.351.351 0 01-.238-.084.351.351 0 01-.084-.238v-6.636c0-.093.028-.168.084-.224a.324.324 0 01.238-.098h.658c.093 0 .168.033.224.098a.282.282 0 01.098.224v.616c.27-.345.588-.611.952-.798.373-.186.835-.28 1.386-.28.896 0 1.591.29 2.086.868.504.57.756 1.33.756 2.282v3.948a.324.324 0 01-.098.238.303.303 0 01-.224.084h-.7a.351.351 0 01-.238-.084.351.351 0 01-.084-.238v-3.878c0-.662-.164-1.176-.49-1.54-.318-.364-.78-.546-1.386-.546-.588 0-1.055.187-1.4.56-.346.364-.518.873-.518 1.526v3.878a.324.324 0 01-.098.238.303.303 0 01-.224.084h-.7zm12.491 2.66a.268.268 0 01-.196-.084.268.268 0 01-.084-.196c0-.065.023-.149.07-.252l1.078-2.562-2.674-6.314a.877.877 0 01-.07-.238.285.285 0 01.294-.294h.686c.149 0 .261.08.336.238l2.128 5.096 2.184-5.096c.074-.158.191-.238.35-.238h.658c.084 0 .154.028.21.084a.27.27 0 01.084.196c0 .028-.024.112-.07.252l-3.976 9.17c-.075.159-.192.238-.35.238h-.658zm9.186-2.52c-1.026 0-1.824-.289-2.394-.868-.56-.578-.858-1.348-.896-2.31l-.014-.602.014-.602c.038-.952.341-1.717.91-2.296.57-.588 1.363-.882 2.38-.882 1.018 0 1.811.294 2.38.882.57.579.873 1.344.91 2.296.01.103.014.304.014.602 0 .299-.004.5-.014.602-.037.962-.34 1.732-.91 2.31-.56.579-1.353.868-2.38.868zm0-1.078c.588 0 1.05-.186 1.386-.56.346-.373.532-.91.56-1.61.01-.093.014-.27.014-.532 0-.261-.004-.438-.014-.532-.028-.7-.214-1.236-.56-1.61-.336-.373-.798-.56-1.386-.56-.588 0-1.054.187-1.4.56-.345.374-.527.91-.546 1.61l-.014.532.014.532c.019.7.201 1.237.546 1.61.346.374.812.56 1.4.56zm7.773 1.078c-.886 0-1.572-.284-2.058-.854-.485-.578-.728-1.344-.728-2.296v-3.948c0-.093.028-.168.084-.224a.327.327 0 01.238-.098h.7a.28.28 0 01.224.098.279.279 0 01.098.224v3.878c0 1.391.607 2.086 1.82 2.086.588 0 1.055-.182 1.4-.546.346-.373.518-.886.518-1.54v-3.878c0-.093.028-.168.084-.224a.327.327 0 01.238-.098h.7a.28.28 0 01.224.098.303.303 0 01.084.224v6.636a.351.351 0 01-.084.238.302.302 0 01-.224.084h-.658a.355.355 0 01-.238-.084.351.351 0 01-.084-.238v-.616a2.622 2.622 0 01-.952.812c-.373.178-.835.266-1.386.266zm6.028-.14a.355.355 0 01-.238-.084.351.351 0 01-.084-.238v-6.622c0-.093.028-.172.084-.238a.327.327 0 01.238-.098h.644c.093 0 .173.033.238.098a.327.327 0 01.098.238v.616c.383-.634 1.036-.952 1.96-.952h.546a.28.28 0 01.224.098.279.279 0 01.098.224v.574a.277.277 0 01-.098.224.302.302 0 01-.224.084h-.84c-.504 0-.9.15-1.19.448-.289.29-.434.686-.434 1.19v4.116a.324.324 0 01-.098.238.351.351 0 01-.238.084h-.686zm-202.636 24.14c-1.008 0-1.773-.35-2.296-1.05v.588a.322.322 0 01-.098.238.303.303 0 01-.224.084h-.644a.353.353 0 01-.238-.084.351.351 0 01-.084-.238v-9.296c0-.093.028-.168.084-.224a.325.325 0 01.238-.098h.686c.093 0 .168.033.224.098a.303.303 0 01.084.224v3.22c.55-.681 1.307-1.022 2.268-1.022.97 0 1.703.322 2.198.966.495.635.76 1.433.798 2.394.01.103.014.243.014.42 0 .178-.005.318-.014.42-.037.971-.303 1.774-.798 2.408-.495.635-1.227.952-2.198.952zm-.294-1.134c.663 0 1.143-.205 1.442-.616.308-.41.476-.952.504-1.624a4.4 4.4 0 00.014-.406c0-1.764-.653-2.646-1.96-2.646-.625 0-1.106.206-1.442.616a2.342 2.342 0 00-.532 1.442l-.014.546.014.532c.028.588.2 1.097.518 1.526.327.42.812.63 1.456.63zm7.738 1.134c-.886 0-1.572-.284-2.058-.854-.485-.578-.728-1.344-.728-2.296v-3.948c0-.093.028-.168.084-.224a.325.325 0 01.238-.098h.7a.28.28 0 01.224.098.28.28 0 01.098.224v3.878c0 1.391.607 2.086 1.82 2.086.588 0 1.055-.182 1.4-.546.346-.373.518-.886.518-1.54v-3.878c0-.093.028-.168.084-.224a.325.325 0 01.238-.098h.7a.28.28 0 01.224.098.303.303 0 01.084.224v6.636a.351.351 0 01-.084.238.303.303 0 01-.224.084h-.658a.353.353 0 01-.238-.084.351.351 0 01-.084-.238v-.616a2.63 2.63 0 01-.952.812c-.373.178-.835.266-1.386.266zm8.226 0c-.653 0-1.204-.102-1.652-.308-.439-.214-.77-.457-.994-.728-.215-.27-.322-.494-.322-.672 0-.093.033-.163.098-.21a.372.372 0 01.224-.084h.63c.093 0 .177.047.252.14.224.262.467.467.728.616.261.15.611.224 1.05.224.485 0 .877-.093 1.176-.28.308-.196.462-.462.462-.798a.768.768 0 00-.196-.546c-.121-.149-.336-.275-.644-.378-.299-.112-.747-.233-1.344-.364-.812-.177-1.39-.434-1.736-.77-.336-.336-.504-.77-.504-1.302 0-.354.103-.69.308-1.008.215-.326.523-.588.924-.784.41-.205.9-.308 1.47-.308.597 0 1.106.098 1.526.294.42.196.733.43.938.7.215.262.322.481.322.658a.265.265 0 01-.098.21.285.285 0 01-.21.084h-.588a.343.343 0 01-.28-.14 3.406 3.406 0 00-.392-.406 1.27 1.27 0 00-.462-.266 2.169 2.169 0 00-.756-.112c-.448 0-.793.098-1.036.294a.89.89 0 00-.364.742c0 .196.051.364.154.504.103.131.299.252.588.364.299.112.728.229 1.288.35.887.187 1.512.458 1.876.812.373.346.56.789.56 1.33 0 .402-.117.766-.35 1.092-.233.327-.579.584-1.036.77-.448.187-.985.28-1.61.28zm4.827-8.778a.353.353 0 01-.238-.084.351.351 0 01-.084-.238v-.756c0-.093.028-.172.084-.238a.325.325 0 01.238-.098h.882c.093 0 .172.033.238.098a.326.326 0 01.098.238v.756a.323.323 0 01-.098.238.353.353 0 01-.238.084h-.882zm.112 8.638a.353.353 0 01-.238-.084.351.351 0 01-.084-.238v-6.636c0-.093.028-.168.084-.224a.325.325 0 01.238-.098h.672c.093 0 .168.033.224.098a.28.28 0 01.098.224v6.636a.323.323 0 01-.098.238.303.303 0 01-.224.084h-.672zm3.39 0a.353.353 0 01-.238-.084.351.351 0 01-.084-.238v-6.636c0-.093.028-.168.084-.224a.325.325 0 01.238-.098h.658a.28.28 0 01.224.098.28.28 0 01.098.224v.616c.271-.345.588-.611.952-.798.374-.186.836-.28 1.386-.28.896 0 1.592.29 2.086.868.504.57.756 1.33.756 2.282v3.948a.322.322 0 01-.098.238.303.303 0 01-.224.084h-.7a.353.353 0 01-.238-.084.351.351 0 01-.084-.238v-3.878c0-.662-.163-1.176-.49-1.54-.317-.364-.779-.546-1.386-.546-.588 0-1.054.187-1.4.56-.345.364-.518.873-.518 1.526v3.878a.322.322 0 01-.098.238.303.303 0 01-.224.084h-.7zm11.081.14c-.962 0-1.732-.294-2.31-.882-.57-.597-.882-1.409-.938-2.436l-.014-.476.014-.462c.065-1.008.382-1.81.952-2.408.578-.597 1.339-.896 2.282-.896 1.036 0 1.838.332 2.408.994.569.654.854 1.54.854 2.66v.238a.323.323 0 01-.098.238.303.303 0 01-.224.084h-4.844v.126c.028.607.21 1.125.546 1.554.345.42.798.63 1.358.63.429 0 .779-.084 1.05-.252.28-.177.485-.359.616-.546.084-.112.144-.177.182-.196a.49.49 0 01.238-.042h.686a.32.32 0 01.21.07.242.242 0 01.084.196c0 .206-.131.453-.392.742-.252.29-.612.542-1.078.756-.458.206-.985.308-1.582.308zm1.918-4.312v-.042c0-.644-.178-1.166-.532-1.568-.346-.41-.812-.616-1.4-.616-.588 0-1.055.206-1.4.616-.336.402-.504.924-.504 1.568v.042h3.836zm5.524 4.312c-.654 0-1.204-.102-1.652-.308-.439-.214-.77-.457-.994-.728-.215-.27-.322-.494-.322-.672 0-.093.032-.163.098-.21a.372.372 0 01.224-.084h.63c.093 0 .177.047.252.14.224.262.466.467.728.616.261.15.611.224 1.05.224.485 0 .877-.093 1.176-.28.308-.196.462-.462.462-.798a.768.768 0 00-.196-.546c-.122-.149-.336-.275-.644-.378-.299-.112-.747-.233-1.344-.364-.812-.177-1.391-.434-1.736-.77-.336-.336-.504-.77-.504-1.302 0-.354.102-.69.308-1.008.214-.326.522-.588.924-.784.41-.205.9-.308 1.47-.308.597 0 1.106.098 1.526.294.42.196.732.43.938.7.214.262.322.481.322.658a.265.265 0 01-.098.21.285.285 0 01-.21.084h-.588a.343.343 0 01-.28-.14 3.414 3.414 0 00-.392-.406 1.27 1.27 0 00-.462-.266 2.169 2.169 0 00-.756-.112c-.448 0-.794.098-1.036.294a.89.89 0 00-.364.742c0 .196.051.364.154.504.102.131.298.252.588.364.298.112.728.229 1.288.35.886.187 1.512.458 1.876.812.373.346.56.789.56 1.33 0 .402-.117.766-.35 1.092-.234.327-.579.584-1.036.77-.448.187-.985.28-1.61.28zm7.136 0c-.653 0-1.204-.102-1.652-.308-.438-.214-.77-.457-.994-.728-.214-.27-.322-.494-.322-.672 0-.093.033-.163.098-.21a.372.372 0 01.224-.084h.63c.094 0 .178.047.252.14.224.262.467.467.728.616.262.15.612.224 1.05.224.486 0 .878-.093 1.176-.28.308-.196.462-.462.462-.798a.768.768 0 00-.196-.546c-.121-.149-.336-.275-.644-.378-.298-.112-.746-.233-1.344-.364-.812-.177-1.39-.434-1.736-.77-.336-.336-.504-.77-.504-1.302 0-.354.103-.69.308-1.008.215-.326.523-.588.924-.784.411-.205.901-.308 1.47-.308.598 0 1.106.098 1.526.294.42.196.733.43.938.7.215.262.322.481.322.658a.265.265 0 01-.098.21.285.285 0 01-.21.084h-.588a.343.343 0 01-.28-.14 3.414 3.414 0 00-.392-.406 1.27 1.27 0 00-.462-.266 2.169 2.169 0 00-.756-.112c-.448 0-.793.098-1.036.294a.89.89 0 00-.364.742c0 .196.052.364.154.504.103.131.299.252.588.364.299.112.728.229 1.288.35.887.187 1.512.458 1.876.812.374.346.56.789.56 1.33 0 .402-.116.766-.35 1.092-.233.327-.578.584-1.036.77-.448.187-.984.28-1.61.28zm10.569 0c-.654 0-1.204-.102-1.652-.308-.439-.214-.77-.457-.994-.728-.215-.27-.322-.494-.322-.672 0-.093.032-.163.098-.21a.37.37 0 01.224-.084h.63c.093 0 .177.047.252.14.224.262.466.467.728.616.261.15.611.224 1.05.224.485 0 .877-.093 1.176-.28.308-.196.462-.462.462-.798a.771.771 0 00-.196-.546c-.122-.149-.336-.275-.644-.378-.299-.112-.747-.233-1.344-.364-.812-.177-1.391-.434-1.736-.77-.336-.336-.504-.77-.504-1.302 0-.354.102-.69.308-1.008.214-.326.522-.588.924-.784.41-.205.9-.308 1.47-.308.597 0 1.106.098 1.526.294.42.196.732.43.938.7.214.262.322.481.322.658a.266.266 0 01-.098.21.285.285 0 01-.21.084h-.588a.342.342 0 01-.28-.14 3.462 3.462 0 00-.392-.406 1.275 1.275 0 00-.462-.266 2.169 2.169 0 00-.756-.112c-.448 0-.794.098-1.036.294a.89.89 0 00-.364.742c0 .196.051.364.154.504.102.131.298.252.588.364.298.112.728.229 1.288.35.886.187 1.512.458 1.876.812.373.346.56.789.56 1.33 0 .402-.117.766-.35 1.092-.234.327-.579.584-1.036.77-.448.187-.985.28-1.61.28zm7.445-.14c-1.475 0-2.212-.821-2.212-2.464v-3.696h-1.092a.351.351 0 01-.238-.084.351.351 0 01-.084-.238v-.476c0-.093.028-.168.084-.224a.324.324 0 01.238-.098h1.092v-2.338c0-.093.028-.168.084-.224a.324.324 0 01.238-.098h.658c.093 0 .168.033.224.098a.282.282 0 01.098.224v2.338h1.736c.093 0 .168.033.224.098a.282.282 0 01.098.224v.476a.324.324 0 01-.098.238.303.303 0 01-.224.084h-1.736v3.598c0 .467.079.822.238 1.064.158.234.42.35.784.35h.854c.093 0 .168.033.224.098a.282.282 0 01.098.224v.504a.324.324 0 01-.098.238.303.303 0 01-.224.084h-.966zm2.949 0a.351.351 0 01-.238-.084.351.351 0 01-.084-.238v-6.622c0-.093.028-.172.084-.238a.324.324 0 01.238-.098h.644c.093 0 .172.033.238.098a.327.327 0 01.098.238v.616c.382-.634 1.036-.952 1.96-.952h.546c.093 0 .168.033.224.098a.282.282 0 01.098.224v.574a.28.28 0 01-.098.224.303.303 0 01-.224.084h-.84c-.504 0-.901.15-1.19.448-.29.29-.434.686-.434 1.19v4.116a.324.324 0 01-.098.238.355.355 0 01-.238.084h-.686zm6.917.14c-.458 0-.882-.093-1.274-.28a2.425 2.425 0 01-.938-.756 1.864 1.864 0 01-.336-1.078c0-.616.252-1.12.756-1.512.513-.401 1.204-.662 2.072-.784l2.086-.294v-.406c0-.952-.546-1.428-1.638-1.428-.411 0-.747.089-1.008.266a1.711 1.711 0 00-.588.602.384.384 0 01-.112.182c-.038.038-.094.056-.168.056h-.602a.334.334 0 01-.224-.084.334.334 0 01-.084-.224c.009-.224.112-.476.308-.756.205-.289.518-.536.938-.742.42-.214.938-.322 1.554-.322 1.045 0 1.796.248 2.254.742.457.486.686 1.092.686 1.82v4.536a.324.324 0 01-.098.238.303.303 0 01-.224.084h-.644a.351.351 0 01-.238-.084.351.351 0 01-.084-.238v-.602c-.206.299-.504.551-.896.756-.392.206-.892.308-1.498.308zm.294-1.05c.606 0 1.101-.196 1.484-.588.392-.401.588-.975.588-1.722v-.392l-1.624.238c-.663.094-1.162.252-1.498.476-.336.215-.504.49-.504.826 0 .374.154.663.462.868.308.196.672.294 1.092.294zm8.174.91c-1.475 0-2.212-.821-2.212-2.464v-3.696h-1.092a.351.351 0 01-.238-.084.351.351 0 01-.084-.238v-.476c0-.093.028-.168.084-.224a.324.324 0 01.238-.098h1.092v-2.338c0-.093.028-.168.084-.224a.324.324 0 01.238-.098h.658c.093 0 .168.033.224.098a.282.282 0 01.098.224v2.338h1.736c.093 0 .168.033.224.098a.282.282 0 01.098.224v.476a.324.324 0 01-.098.238.303.303 0 01-.224.084h-1.736v3.598c0 .467.079.822.238 1.064.158.234.42.35.784.35h.854c.093 0 .168.033.224.098a.282.282 0 01.098.224v.504a.324.324 0 01-.098.238.303.303 0 01-.224.084h-.966zm5.539.14c-.962 0-1.732-.294-2.31-.882-.57-.597-.882-1.409-.938-2.436l-.014-.476.014-.462c.065-1.008.382-1.81.952-2.408.578-.597 1.339-.896 2.282-.896 1.036 0 1.838.332 2.408.994.569.654.854 1.54.854 2.66v.238a.324.324 0 01-.098.238.303.303 0 01-.224.084h-4.844v.126c.028.607.21 1.125.546 1.554.345.42.798.63 1.358.63.429 0 .779-.084 1.05-.252.28-.177.485-.359.616-.546.084-.112.144-.177.182-.196a.49.49 0 01.238-.042h.686a.32.32 0 01.21.07.242.242 0 01.084.196c0 .206-.131.453-.392.742-.252.29-.612.542-1.078.756-.458.206-.985.308-1.582.308zm1.918-4.312v-.042c0-.644-.178-1.166-.532-1.568-.346-.41-.812-.616-1.4-.616-.588 0-1.055.206-1.4.616-.336.402-.504.924-.504 1.568v.042h3.836zm5.986 7.252c-.766 0-1.382-.13-1.848-.392-.467-.252-.798-.541-.994-.868-.196-.326-.304-.62-.322-.882a.278.278 0 01.084-.238.357.357 0 01.238-.098h.671c.084 0 .155.019.211.056a.525.525 0 01.14.238c.112.299.294.556.546.77.261.224.662.336 1.204.336.69 0 1.199-.149 1.526-.448.326-.289.49-.807.49-1.554v-.952a2.684 2.684 0 01-.924.742c-.374.178-.817.266-1.33.266-.99 0-1.732-.312-2.226-.938-.486-.634-.742-1.437-.77-2.408l-.014-.392.014-.378c.028-.961.289-1.759.784-2.394.494-.644 1.232-.966 2.212-.966.98 0 1.745.36 2.296 1.078v-.602c0-.093.028-.172.084-.238a.324.324 0 01.238-.098h.643c.094 0 .173.033.239.098a.327.327 0 01.098.238v6.79c0 2.156-1.097 3.234-3.29 3.234zm-.028-4.144c.634 0 1.115-.21 1.442-.63.326-.42.504-.919.532-1.498.009-.084.014-.247.014-.49 0-.233-.005-.392-.014-.476-.028-.578-.206-1.078-.532-1.498-.318-.42-.798-.63-1.442-.63-.663 0-1.144.206-1.442.616-.299.411-.462.952-.49 1.624l-.014.364.014.378c.028.663.191 1.204.49 1.624.298.411.779.616 1.442.616zm6.673 3.724a.268.268 0 01-.196-.084.268.268 0 01-.084-.196c0-.065.023-.149.07-.252l1.078-2.562-2.674-6.314a.877.877 0 01-.07-.238.285.285 0 01.294-.294h.686c.149 0 .261.08.336.238l2.128 5.096 2.184-5.096c.075-.158.191-.238.35-.238h.658c.084 0 .154.028.21.084a.27.27 0 01.084.196c0 .028-.023.112-.07.252l-3.976 9.17c-.075.159-.191.238-.35.238h-.658zm11.543-2.52c-.457 0-.882-.093-1.274-.28a2.425 2.425 0 01-.938-.756 1.864 1.864 0 01-.336-1.078c0-.616.252-1.12.756-1.512.513-.401 1.204-.662 2.072-.784l2.086-.294v-.406c0-.952-.546-1.428-1.638-1.428-.411 0-.747.089-1.008.266a1.729 1.729 0 00-.588.602.377.377 0 01-.112.182c-.037.038-.093.056-.168.056h-.602a.334.334 0 01-.224-.084.334.334 0 01-.084-.224c.009-.224.112-.476.308-.756.205-.289.518-.536.938-.742.42-.214.938-.322 1.554-.322 1.045 0 1.797.248 2.254.742.457.486.686 1.092.686 1.82v4.536a.324.324 0 01-.098.238.303.303 0 01-.224.084h-.644a.353.353 0 01-.238-.084.351.351 0 01-.084-.238v-.602c-.205.299-.504.551-.896.756-.392.206-.891.308-1.498.308zm.294-1.05c.607 0 1.101-.196 1.484-.588.392-.401.588-.975.588-1.722v-.392l-1.624.238c-.663.094-1.162.252-1.498.476-.336.215-.504.49-.504.826 0 .374.154.663.462.868.308.196.672.294 1.092.294zm5.723.91a.351.351 0 01-.238-.084.351.351 0 01-.084-.238v-6.636c0-.093.028-.168.084-.224a.324.324 0 01.238-.098h.658c.093 0 .168.033.224.098a.282.282 0 01.098.224v.616c.27-.345.588-.611.952-.798.373-.186.835-.28 1.386-.28.896 0 1.591.29 2.086.868.504.57.756 1.33.756 2.282v3.948a.324.324 0 01-.098.238.303.303 0 01-.224.084h-.7a.351.351 0 01-.238-.084.351.351 0 01-.084-.238v-3.878c0-.662-.164-1.176-.49-1.54-.318-.364-.78-.546-1.386-.546-.588 0-1.055.187-1.4.56-.346.364-.518.873-.518 1.526v3.878a.324.324 0 01-.098.238.303.303 0 01-.224.084h-.7zm10.828.14c-.971 0-1.703-.317-2.198-.952-.495-.634-.756-1.437-.784-2.408l-.014-.42.014-.42c.028-.961.289-1.759.784-2.394.495-.644 1.227-.966 2.198-.966.961 0 1.717.341 2.268 1.022v-3.22c0-.093.028-.168.084-.224a.325.325 0 01.238-.098h.672c.093 0 .168.033.224.098a.282.282 0 01.098.224v9.296a.324.324 0 01-.098.238.303.303 0 01-.224.084h-.63a.353.353 0 01-.238-.084.351.351 0 01-.084-.238v-.588c-.541.7-1.311 1.05-2.31 1.05zm.294-1.134c.644 0 1.125-.21 1.442-.63.327-.429.504-.938.532-1.526.009-.102.014-.28.014-.532 0-.261-.005-.443-.014-.546a2.344 2.344 0 00-.532-1.442c-.336-.41-.817-.616-1.442-.616-.663 0-1.148.206-1.456.616-.299.411-.462.952-.49 1.624l-.014.406c0 1.764.653 2.646 1.96 2.646zm9.14.994a.351.351 0 01-.238-.084.351.351 0 01-.084-.238v-9.296c0-.093.028-.168.084-.224a.324.324 0 01.238-.098h.7c.093 0 .168.033.224.098a.282.282 0 01.098.224v3.262c.27-.345.588-.606.952-.784.364-.186.816-.28 1.358-.28.896 0 1.591.29 2.086.868.504.57.756 1.33.756 2.282v3.948a.324.324 0 01-.098.238.303.303 0 01-.224.084h-.7a.351.351 0 01-.238-.084.351.351 0 01-.084-.238v-3.878c0-.662-.164-1.176-.49-1.54-.318-.364-.78-.546-1.386-.546-.588 0-1.06.187-1.414.56-.346.364-.518.873-.518 1.526v3.878a.324.324 0 01-.098.238.303.303 0 01-.224.084h-.7zm11.177.14c-1.027 0-1.825-.289-2.394-.868-.56-.578-.859-1.348-.896-2.31l-.014-.602.014-.602c.037-.952.341-1.717.91-2.296.569-.588 1.363-.882 2.38-.882s1.811.294 2.38.882c.569.579.873 1.344.91 2.296.009.103.014.304.014.602 0 .299-.005.5-.014.602-.037.962-.341 1.732-.91 2.31-.56.579-1.353.868-2.38.868zm0-1.078c.588 0 1.05-.186 1.386-.56.345-.373.532-.91.56-1.61.009-.093.014-.27.014-.532 0-.261-.005-.438-.014-.532-.028-.7-.215-1.236-.56-1.61-.336-.373-.798-.56-1.386-.56-.588 0-1.055.187-1.4.56-.345.374-.527.91-.546 1.61l-.014.532.014.532c.019.7.201 1.237.546 1.61.345.374.812.56 1.4.56zm6.798.938c-.122 0-.215-.028-.28-.084a.635.635 0 01-.168-.266l-1.988-6.496-.028-.14c0-.084.028-.154.084-.21a.316.316 0 01.21-.084h.616c.093 0 .168.028.224.084a.325.325 0 01.126.154l1.554 5.278 1.666-5.222a.37.37 0 01.126-.196.36.36 0 01.266-.098h.476c.112 0 .2.033.266.098a.382.382 0 01.126.196l1.666 5.222 1.554-5.278a.324.324 0 01.098-.154.351.351 0 01.238-.084h.63a.27.27 0 01.196.084.285.285 0 01.084.21l-.028.14-1.974 6.496a.656.656 0 01-.168.266c-.066.056-.164.084-.294.084h-.546c-.252 0-.406-.116-.462-.35l-1.624-5.012-1.624 5.012c-.075.234-.234.35-.476.35h-.546zm12.9 0a.351.351 0 01-.238-.084.351.351 0 01-.084-.238v-9.156c0-.093.028-.168.084-.224a.324.324 0 01.238-.098h.742c.093 0 .168.033.224.098a.282.282 0 01.098.224v9.156a.324.324 0 01-.098.238.303.303 0 01-.224.084h-.742zm5.97 0a.353.353 0 01-.238-.084.351.351 0 01-.084-.238v-8.232h-2.688a.353.353 0 01-.238-.084.351.351 0 01-.084-.238v-.588c0-.093.028-.172.084-.238a.325.325 0 01.238-.098h6.748c.103 0 .182.033.238.098a.298.298 0 01.098.238v.588a.324.324 0 01-.098.238.353.353 0 01-.238.084h-2.674v8.232a.324.324 0 01-.098.238.353.353 0 01-.238.084h-.728zm11.478.14c-.999 0-1.783-.28-2.352-.84-.56-.569-.859-1.362-.896-2.38l-.014-.56.014-.56c.037-1.017.336-1.806.896-2.366.569-.569 1.353-.854 2.352-.854.672 0 1.241.122 1.708.364.466.243.812.542 1.036.896.233.355.359.71.378 1.064a.246.246 0 01-.084.224.355.355 0 01-.238.084h-.672c-.094 0-.164-.018-.21-.056a.563.563 0 01-.14-.224c-.159-.448-.383-.765-.672-.952-.29-.196-.654-.294-1.092-.294-.579 0-1.041.182-1.386.546-.336.355-.518.901-.546 1.638l-.014.504.014.476c.028.747.21 1.298.546 1.652.336.355.798.532 1.386.532.438 0 .802-.093 1.092-.28.289-.196.513-.518.672-.966a.57.57 0 01.14-.224c.046-.046.116-.07.21-.07h.672c.093 0 .172.033.238.098a.247.247 0 01.084.224c-.019.346-.145.7-.378 1.064-.224.355-.57.654-1.036.896-.458.243-1.027.364-1.708.364zm6.814 0c-.457 0-.882-.093-1.274-.28a2.425 2.425 0 01-.938-.756 1.864 1.864 0 01-.336-1.078c0-.616.252-1.12.756-1.512.513-.401 1.204-.662 2.072-.784l2.086-.294v-.406c0-.952-.546-1.428-1.638-1.428-.411 0-.747.089-1.008.266a1.729 1.729 0 00-.588.602.377.377 0 01-.112.182c-.037.038-.093.056-.168.056h-.602a.334.334 0 01-.224-.084.334.334 0 01-.084-.224c.009-.224.112-.476.308-.756.205-.289.518-.536.938-.742.42-.214.938-.322 1.554-.322 1.045 0 1.797.248 2.254.742.457.486.686 1.092.686 1.82v4.536a.324.324 0 01-.098.238.303.303 0 01-.224.084h-.644a.353.353 0 01-.238-.084.351.351 0 01-.084-.238v-.602c-.205.299-.504.551-.896.756-.392.206-.891.308-1.498.308zm.294-1.05c.607 0 1.101-.196 1.484-.588.392-.401.588-.975.588-1.722v-.392l-1.624.238c-.663.094-1.162.252-1.498.476-.336.215-.504.49-.504.826 0 .374.154.663.462.868.308.196.672.294 1.092.294zm5.723.91a.351.351 0 01-.238-.084.351.351 0 01-.084-.238v-6.636c0-.093.028-.168.084-.224a.324.324 0 01.238-.098h.658c.093 0 .168.033.224.098a.282.282 0 01.098.224v.616c.27-.345.588-.611.952-.798.373-.186.835-.28 1.386-.28.896 0 1.591.29 2.086.868.504.57.756 1.33.756 2.282v3.948a.324.324 0 01-.098.238.303.303 0 01-.224.084h-.7a.351.351 0 01-.238-.084.351.351 0 01-.084-.238v-3.878c0-.662-.164-1.176-.49-1.54-.318-.364-.78-.546-1.386-.546-.588 0-1.055.187-1.4.56-.346.364-.518.873-.518 1.526v3.878a.324.324 0 01-.098.238.303.303 0 01-.224.084h-.7zm-191.119 24a.353.353 0 01-.238-.084.351.351 0 01-.084-.238v-9.296c0-.093.028-.168.084-.224a.325.325 0 01.238-.098h.7c.093 0 .168.033.224.098a.28.28 0 01.098.224v3.262c.27-.345.588-.606.952-.784.364-.186.817-.28 1.358-.28.896 0 1.591.29 2.086.868.504.57.756 1.33.756 2.282v3.948a.322.322 0 01-.098.238.303.303 0 01-.224.084h-.7a.353.353 0 01-.238-.084.351.351 0 01-.084-.238v-3.878c0-.662-.163-1.176-.49-1.54-.317-.364-.78-.546-1.386-.546-.588 0-1.06.187-1.414.56-.345.364-.518.873-.518 1.526v3.878a.322.322 0 01-.098.238.303.303 0 01-.224.084h-.7zm11.107.14c-.961 0-1.731-.294-2.31-.882-.57-.597-.882-1.409-.938-2.436l-.014-.476.014-.462c.066-1.008.383-1.81.952-2.408.579-.597 1.34-.896 2.282-.896 1.036 0 1.839.332 2.408.994.57.654.854 1.54.854 2.66v.238a.323.323 0 01-.098.238.303.303 0 01-.224.084h-4.844v.126c.028.607.21 1.125.546 1.554.346.42.798.63 1.358.63.43 0 .78-.084 1.05-.252.28-.177.486-.359.616-.546.084-.112.145-.177.182-.196a.491.491 0 01.238-.042h.686a.32.32 0 01.21.07.242.242 0 01.084.196c0 .206-.13.453-.392.742-.252.29-.611.542-1.078.756-.457.206-.984.308-1.582.308zm1.918-4.312v-.042c0-.644-.177-1.166-.532-1.568-.345-.41-.812-.616-1.4-.616-.588 0-1.055.206-1.4.616-.336.402-.504.924-.504 1.568v.042h3.836zm3.34 4.172a.353.353 0 01-.238-.084.351.351 0 01-.084-.238v-9.296c0-.093.028-.168.084-.224a.325.325 0 01.238-.098h.658a.28.28 0 01.224.098.28.28 0 01.098.224v9.296a.323.323 0 01-.098.238.303.303 0 01-.224.084h-.658zm3.404 2.66a.321.321 0 01-.238-.098.302.302 0 01-.083-.224v-9.296c0-.093.028-.168.084-.224a.325.325 0 01.237-.098h.644c.094 0 .169.033.225.098a.28.28 0 01.097.224v.616c.523-.718 1.288-1.078 2.296-1.078.98 0 1.713.308 2.199.924.494.616.76 1.41.797 2.38.01.103.014.262.014.476 0 .215-.004.374-.013.476-.038.962-.304 1.755-.798 2.38-.495.616-1.228.924-2.199.924-.97 0-1.726-.35-2.267-1.05v3.248a.302.302 0 01-.084.224.278.278 0 01-.224.098h-.687zm2.968-3.654c.663 0 1.144-.205 1.443-.616.308-.41.476-.952.504-1.624.009-.093.014-.228.014-.406 0-1.764-.654-2.646-1.96-2.646-.645 0-1.13.215-1.457.644-.317.42-.49.924-.517 1.512l-.014.532.013.546c.02.551.196 1.032.532 1.442.337.411.817.616 1.442.616zm9.359 3.654a.269.269 0 01-.196-.084.268.268 0 01-.084-.196.65.65 0 01.07-.252l1.078-2.562-2.674-6.314a.893.893 0 01-.07-.238.285.285 0 01.294-.294h.686c.15 0 .261.08.336.238l2.128 5.096 2.184-5.096c.075-.158.192-.238.35-.238h.658c.084 0 .154.028.21.084a.27.27 0 01.084.196c0 .028-.023.112-.07.252l-3.976 9.17c-.075.159-.191.238-.35.238h-.658zm9.187-2.52c-1.027 0-1.825-.289-2.394-.868-.56-.578-.859-1.348-.896-2.31l-.014-.602.014-.602c.037-.952.34-1.717.91-2.296.569-.588 1.362-.882 2.38-.882 1.017 0 1.81.294 2.38.882.569.579.872 1.344.91 2.296.009.103.014.304.014.602 0 .299-.005.5-.014.602-.038.962-.341 1.732-.91 2.31-.56.579-1.354.868-2.38.868zm0-1.078c.588 0 1.05-.186 1.386-.56.345-.373.532-.91.56-1.61.009-.093.014-.27.014-.532 0-.261-.005-.438-.014-.532-.028-.7-.215-1.236-.56-1.61-.336-.373-.798-.56-1.386-.56-.588 0-1.055.187-1.4.56-.346.374-.528.91-.546 1.61l-.014.532.014.532c.018.7.2 1.237.546 1.61.345.374.812.56 1.4.56zm7.773 1.078c-.887 0-1.573-.284-2.058-.854-.486-.578-.728-1.344-.728-2.296v-3.948c0-.093.028-.168.084-.224a.324.324 0 01.238-.098h.7c.093 0 .168.033.224.098a.282.282 0 01.098.224v3.878c0 1.391.606 2.086 1.82 2.086.588 0 1.054-.182 1.4-.546.345-.373.518-.886.518-1.54v-3.878c0-.093.028-.168.084-.224a.324.324 0 01.238-.098h.7c.093 0 .168.033.224.098a.303.303 0 01.084.224v6.636a.351.351 0 01-.084.238.303.303 0 01-.224.084h-.658a.351.351 0 01-.238-.084.351.351 0 01-.084-.238v-.616a2.638 2.638 0 01-.952.812c-.374.178-.836.266-1.386.266zm11.167 0c-.457 0-.882-.093-1.274-.28a2.432 2.432 0 01-.938-.756 1.864 1.864 0 01-.336-1.078c0-.616.252-1.12.756-1.512.514-.401 1.204-.662 2.072-.784l2.086-.294v-.406c0-.952-.546-1.428-1.638-1.428-.41 0-.746.089-1.008.266a1.729 1.729 0 00-.588.602.377.377 0 01-.112.182c-.037.038-.093.056-.168.056h-.602a.336.336 0 01-.224-.084.334.334 0 01-.084-.224c.01-.224.112-.476.308-.756.206-.289.518-.536.938-.742.42-.214.938-.322 1.554-.322 1.046 0 1.797.248 2.254.742.458.486.686 1.092.686 1.82v4.536a.32.32 0 01-.098.238.302.302 0 01-.224.084h-.644a.355.355 0 01-.238-.084.351.351 0 01-.084-.238v-.602c-.205.299-.504.551-.896.756-.392.206-.891.308-1.498.308zm.294-1.05c.607 0 1.102-.196 1.484-.588.392-.401.588-.975.588-1.722v-.392l-1.624.238c-.662.094-1.162.252-1.498.476-.336.215-.504.49-.504.826 0 .374.154.663.462.868.308.196.672.294 1.092.294zm8.341 1.05c-.999 0-1.783-.28-2.352-.84-.56-.569-.859-1.362-.896-2.38l-.014-.56.014-.56c.037-1.017.336-1.806.896-2.366.569-.569 1.353-.854 2.352-.854.672 0 1.241.122 1.708.364.467.243.812.542 1.036.896.233.355.359.71.378 1.064a.246.246 0 01-.084.224.353.353 0 01-.238.084h-.672c-.093 0-.163-.018-.21-.056a.574.574 0 01-.14-.224c-.159-.448-.383-.765-.672-.952-.289-.196-.653-.294-1.092-.294-.579 0-1.041.182-1.386.546-.336.355-.518.901-.546 1.638l-.014.504.014.476c.028.747.21 1.298.546 1.652.336.355.798.532 1.386.532.439 0 .803-.093 1.092-.28.289-.196.513-.518.672-.966a.582.582 0 01.14-.224c.047-.046.117-.07.21-.07h.672c.093 0 .173.033.238.098a.247.247 0 01.084.224c-.019.346-.145.7-.378 1.064-.224.355-.569.654-1.036.896-.457.243-1.027.364-1.708.364zm5.12-.14a.355.355 0 01-.238-.084.351.351 0 01-.084-.238v-9.296c0-.093.028-.168.084-.224a.327.327 0 01.238-.098h.7a.28.28 0 01.224.098.279.279 0 01.098.224v3.262a2.73 2.73 0 01.952-.784c.364-.186.817-.28 1.358-.28.896 0 1.592.29 2.086.868.504.57.756 1.33.756 2.282v3.948a.32.32 0 01-.098.238.302.302 0 01-.224.084h-.7a.355.355 0 01-.238-.084.351.351 0 01-.084-.238v-3.878c0-.662-.163-1.176-.49-1.54-.317-.364-.779-.546-1.386-.546-.588 0-1.059.187-1.414.56-.345.364-.518.873-.518 1.526v3.878a.32.32 0 01-.098.238.302.302 0 01-.224.084h-.7zm8.406-8.638a.351.351 0 01-.238-.084.351.351 0 01-.084-.238v-.756c0-.093.028-.172.084-.238a.324.324 0 01.238-.098h.882c.093 0 .172.033.238.098a.327.327 0 01.098.238v.756a.324.324 0 01-.098.238.355.355 0 01-.238.084h-.882zm.112 8.638a.351.351 0 01-.238-.084.351.351 0 01-.084-.238v-6.636c0-.093.028-.168.084-.224a.324.324 0 01.238-.098h.672c.093 0 .168.033.224.098a.282.282 0 01.098.224v6.636a.324.324 0 01-.098.238.303.303 0 01-.224.084h-.672zm5.98.14c-.961 0-1.731-.294-2.31-.882-.569-.597-.882-1.409-.938-2.436l-.014-.476.014-.462c.066-1.008.383-1.81.952-2.408.579-.597 1.34-.896 2.282-.896 1.036 0 1.839.332 2.408.994.57.654.854 1.54.854 2.66v.238a.32.32 0 01-.098.238.302.302 0 01-.224.084h-4.844v.126c.028.607.21 1.125.546 1.554.346.42.798.63 1.358.63.43 0 .78-.084 1.05-.252.28-.177.486-.359.616-.546.084-.112.145-.177.182-.196a.492.492 0 01.238-.042h.686a.32.32 0 01.21.07.242.242 0 01.084.196c0 .206-.13.453-.392.742-.252.29-.611.542-1.078.756-.457.206-.984.308-1.582.308zm1.918-4.312v-.042c0-.644-.177-1.166-.532-1.568-.345-.41-.812-.616-1.4-.616-.588 0-1.054.206-1.4.616-.336.402-.504.924-.504 1.568v.042h3.836zm5.292 4.172c-.242 0-.415-.116-.518-.35l-2.59-6.496-.028-.14a.285.285 0 01.294-.294h.672c.159 0 .276.08.35.238l2.128 5.516 2.128-5.516c.084-.158.196-.238.336-.238h.686c.075 0 .14.028.196.084a.263.263 0 01.098.21l-.028.14-2.604 6.496c-.102.234-.275.35-.518.35h-.602zm7.87.14c-.961 0-1.731-.294-2.31-.882-.569-.597-.882-1.409-.938-2.436l-.014-.476.014-.462c.066-1.008.383-1.81.952-2.408.579-.597 1.34-.896 2.282-.896 1.036 0 1.839.332 2.408.994.57.654.854 1.54.854 2.66v.238a.32.32 0 01-.098.238.302.302 0 01-.224.084h-4.844v.126c.028.607.21 1.125.546 1.554.346.42.798.63 1.358.63.43 0 .78-.084 1.05-.252.28-.177.486-.359.616-.546.084-.112.145-.177.182-.196a.492.492 0 01.238-.042h.686a.32.32 0 01.21.07.242.242 0 01.084.196c0 .206-.13.453-.392.742-.252.29-.611.542-1.078.756-.457.206-.984.308-1.582.308zm1.918-4.312v-.042c0-.644-.177-1.166-.532-1.568-.345-.41-.812-.616-1.4-.616-.588 0-1.054.206-1.4.616-.336.402-.504.924-.504 1.568v.042h3.836zm7.327 6.832a.27.27 0 01-.196-.084.268.268 0 01-.084-.196c0-.065.024-.149.07-.252l1.078-2.562-2.674-6.314a.917.917 0 01-.07-.238.285.285 0 01.294-.294h.686c.15 0 .262.08.336.238l2.128 5.096 2.184-5.096c.075-.158.192-.238.35-.238h.658c.084 0 .154.028.21.084a.27.27 0 01.084.196c0 .028-.023.112-.07.252l-3.976 9.17c-.074.159-.191.238-.35.238h-.658zm9.187-2.52c-1.027 0-1.825-.289-2.394-.868-.56-.578-.859-1.348-.896-2.31l-.014-.602.014-.602c.037-.952.34-1.717.91-2.296.569-.588 1.362-.882 2.38-.882 1.017 0 1.81.294 2.38.882.569.579.872 1.344.91 2.296.009.103.014.304.014.602 0 .299-.005.5-.014.602-.038.962-.341 1.732-.91 2.31-.56.579-1.354.868-2.38.868zm0-1.078c.588 0 1.05-.186 1.386-.56.345-.373.532-.91.56-1.61.009-.093.014-.27.014-.532 0-.261-.005-.438-.014-.532-.028-.7-.215-1.236-.56-1.61-.336-.373-.798-.56-1.386-.56-.588 0-1.055.187-1.4.56-.346.374-.528.91-.546 1.61l-.014.532.014.532c.018.7.2 1.237.546 1.61.345.374.812.56 1.4.56zm7.773 1.078c-.887 0-1.573-.284-2.058-.854-.486-.578-.728-1.344-.728-2.296v-3.948c0-.093.028-.168.084-.224a.324.324 0 01.238-.098h.7c.093 0 .168.033.224.098a.282.282 0 01.098.224v3.878c0 1.391.606 2.086 1.82 2.086.588 0 1.054-.182 1.4-.546.345-.373.518-.886.518-1.54v-3.878c0-.093.028-.168.084-.224a.324.324 0 01.238-.098h.7c.093 0 .168.033.224.098a.303.303 0 01.084.224v6.636a.351.351 0 01-.084.238.303.303 0 01-.224.084h-.658a.351.351 0 01-.238-.084.351.351 0 01-.084-.238v-.616a2.638 2.638 0 01-.952.812c-.374.178-.836.266-1.386.266zm6.028-.14a.351.351 0 01-.238-.084.351.351 0 01-.084-.238v-6.622c0-.093.028-.172.084-.238a.324.324 0 01.238-.098h.644c.093 0 .172.033.238.098a.327.327 0 01.098.238v.616c.382-.634 1.036-.952 1.96-.952h.546c.093 0 .168.033.224.098a.282.282 0 01.098.224v.574a.28.28 0 01-.098.224.303.303 0 01-.224.084h-.84c-.504 0-.901.15-1.19.448-.29.29-.434.686-.434 1.19v4.116a.324.324 0 01-.098.238.355.355 0 01-.238.084h-.686zm11.082 3.08c-.766 0-1.382-.13-1.848-.392-.467-.252-.798-.541-.994-.868-.196-.326-.304-.62-.322-.882a.278.278 0 01.084-.238.357.357 0 01.238-.098h.672c.084 0 .154.019.21.056a.525.525 0 01.14.238c.112.299.294.556.546.77.261.224.662.336 1.204.336.69 0 1.199-.149 1.526-.448.326-.289.49-.807.49-1.554v-.952a2.684 2.684 0 01-.924.742c-.374.178-.817.266-1.33.266-.99 0-1.732-.312-2.226-.938-.486-.634-.742-1.437-.77-2.408l-.014-.392.014-.378c.028-.961.289-1.759.784-2.394.494-.644 1.232-.966 2.212-.966.98 0 1.745.36 2.296 1.078v-.602c0-.093.028-.172.084-.238a.324.324 0 01.238-.098h.644c.093 0 .172.033.238.098a.327.327 0 01.098.238v6.79c0 2.156-1.097 3.234-3.29 3.234zm-.028-4.144c.634 0 1.115-.21 1.442-.63.326-.42.504-.919.532-1.498.009-.084.014-.247.014-.49 0-.233-.005-.392-.014-.476-.028-.578-.206-1.078-.532-1.498-.318-.42-.798-.63-1.442-.63-.663 0-1.144.206-1.442.616-.299.411-.462.952-.49 1.624l-.014.364.014.378c.028.663.191 1.204.49 1.624.298.411.779.616 1.442.616zm8.381 1.204c-1.027 0-1.825-.289-2.394-.868-.56-.578-.859-1.348-.896-2.31l-.014-.602.014-.602c.037-.952.341-1.717.91-2.296.569-.588 1.363-.882 2.38-.882s1.811.294 2.38.882c.569.579.873 1.344.91 2.296.009.103.014.304.014.602 0 .299-.005.5-.014.602-.037.962-.341 1.732-.91 2.31-.56.579-1.353.868-2.38.868zm0-1.078c.588 0 1.05-.186 1.386-.56.345-.373.532-.91.56-1.61.009-.093.014-.27.014-.532 0-.261-.005-.438-.014-.532-.028-.7-.215-1.236-.56-1.61-.336-.373-.798-.56-1.386-.56-.588 0-1.055.187-1.4.56-.345.374-.527.91-.546 1.61l-.014.532.014.532c.019.7.201 1.237.546 1.61.345.374.812.56 1.4.56zm7.087 1.078c-.457 0-.882-.093-1.274-.28a2.425 2.425 0 01-.938-.756 1.864 1.864 0 01-.336-1.078c0-.616.252-1.12.756-1.512.513-.401 1.204-.662 2.072-.784l2.086-.294v-.406c0-.952-.546-1.428-1.638-1.428-.411 0-.747.089-1.008.266a1.729 1.729 0 00-.588.602.377.377 0 01-.112.182c-.037.038-.093.056-.168.056h-.602a.334.334 0 01-.224-.084.334.334 0 01-.084-.224c.009-.224.112-.476.308-.756.205-.289.518-.536.938-.742.42-.214.938-.322 1.554-.322 1.045 0 1.797.248 2.254.742.457.486.686 1.092.686 1.82v4.536a.324.324 0 01-.098.238.303.303 0 01-.224.084h-.644a.353.353 0 01-.238-.084.351.351 0 01-.084-.238v-.602c-.205.299-.504.551-.896.756-.392.206-.891.308-1.498.308zm.294-1.05c.607 0 1.101-.196 1.484-.588.392-.401.588-.975.588-1.722v-.392l-1.624.238c-.663.094-1.162.252-1.498.476-.336.215-.504.49-.504.826 0 .374.154.663.462.868.308.196.672.294 1.092.294zm5.737.91a.351.351 0 01-.238-.084.351.351 0 01-.084-.238v-9.296c0-.093.028-.168.084-.224a.324.324 0 01.238-.098h.658c.093 0 .168.033.224.098a.282.282 0 01.098.224v9.296a.324.324 0 01-.098.238.303.303 0 01-.224.084h-.658zm5.588.14c-.653 0-1.204-.102-1.652-.308-.439-.214-.77-.457-.994-.728-.215-.27-.322-.494-.322-.672 0-.093.033-.163.098-.21a.372.372 0 01.224-.084h.63c.093 0 .177.047.252.14.224.262.467.467.728.616.261.15.611.224 1.05.224.485 0 .877-.093 1.176-.28.308-.196.462-.462.462-.798a.767.767 0 00-.196-.546c-.121-.149-.336-.275-.644-.378-.299-.112-.747-.233-1.344-.364-.812-.177-1.391-.434-1.736-.77-.336-.336-.504-.77-.504-1.302 0-.354.103-.69.308-1.008.215-.326.523-.588.924-.784.411-.205.901-.308 1.47-.308.597 0 1.106.098 1.526.294.42.196.733.43.938.7.215.262.322.481.322.658a.266.266 0 01-.098.21.285.285 0 01-.21.084h-.588a.343.343 0 01-.28-.14 3.383 3.383 0 00-.392-.406 1.275 1.275 0 00-.462-.266 2.169 2.169 0 00-.756-.112c-.448 0-.793.098-1.036.294a.89.89 0 00-.364.742c0 .196.051.364.154.504.103.131.299.252.588.364.299.112.728.229 1.288.35.887.187 1.512.458 1.876.812.373.346.56.789.56 1.33 0 .402-.117.766-.35 1.092-.233.327-.579.584-1.036.77-.448.187-.985.28-1.61.28zm4.841-.14a.351.351 0 01-.238-.084.351.351 0 01-.084-.238v-1.008c0-.093.028-.168.084-.224a.324.324 0 01.238-.098h1.008c.093 0 .172.033.238.098a.282.282 0 01.098.224v1.008a.324.324 0 01-.098.238.355.355 0 01-.238.084h-1.008z" opacity=".6" fill="#09192B"/><path d="M85.883 223.436a.53.53 0 01-.357-.126.53.53 0 01-.126-.357v-13.734c0-.14.042-.252.126-.336a.486.486 0 01.357-.147h1.113a.42.42 0 01.336.147.42.42 0 01.147.336v13.734c0 .14-.049.259-.147.357a.454.454 0 01-.336.126h-1.113zm9.955 0a.53.53 0 01-.357-.126.53.53 0 01-.126-.357v-12.348h-4.032a.53.53 0 01-.357-.126.53.53 0 01-.126-.357v-.882a.53.53 0 01.126-.357.486.486 0 01.357-.147h10.122c.154 0 .273.049.357.147a.445.445 0 01.147.357v.882c0 .14-.049.259-.147.357a.53.53 0 01-.357.126h-4.01v12.348c0 .14-.05.259-.148.357a.53.53 0 01-.357.126h-1.092zm15.563 0a.53.53 0 01-.357-.126.53.53 0 01-.126-.357V209.24c0-.154.042-.273.126-.357a.486.486 0 01.357-.147h5.124c1.61 0 2.87.378 3.78 1.134.91.756 1.365 1.848 1.365 3.276 0 1.064-.266 1.939-.798 2.625-.518.686-1.253 1.162-2.205 1.428l3.234 5.586a.523.523 0 01.063.231c0 .112-.049.21-.147.294a.403.403 0 01-.294.126h-1.008c-.21 0-.378-.049-.504-.147a1.493 1.493 0 01-.315-.42l-3.045-5.334h-3.675v5.418c0 .14-.049.259-.147.357a.53.53 0 01-.357.126h-1.071zm5.04-7.686c2.086 0 3.129-.875 3.129-2.625s-1.043-2.625-3.129-2.625h-3.465v5.25h3.465zm14.509 7.896c-1.834 0-3.255-.476-4.263-1.428-.994-.966-1.519-2.415-1.575-4.347a57.37 57.37 0 01-.021-1.785c0-.77.007-1.358.021-1.764.056-1.89.602-3.325 1.638-4.305 1.036-.994 2.436-1.491 4.2-1.491 1.75 0 3.143.497 4.179 1.491 1.036.98 1.582 2.415 1.638 4.305.028.812.042 1.4.042 1.764 0 .35-.014.945-.042 1.785-.056 1.932-.588 3.381-1.596 4.347-.994.952-2.401 1.428-4.221 1.428zm0-1.785c1.106 0 1.988-.336 2.646-1.008.658-.672 1.015-1.701 1.071-3.087.028-.84.042-1.4.042-1.68 0-.308-.014-.868-.042-1.68-.056-1.386-.42-2.415-1.092-3.087-.658-.672-1.533-1.008-2.625-1.008-1.106 0-1.995.336-2.667 1.008-.658.672-1.015 1.701-1.071 3.087-.014.406-.021.966-.021 1.68 0 .7.007 1.26.021 1.68.056 1.386.413 2.415 1.071 3.087.672.672 1.561 1.008 2.667 1.008zm8.666 1.575a.403.403 0 01-.294-.126.403.403 0 01-.126-.294c0-.112.007-.189.021-.231l5.208-13.587c.112-.308.336-.462.672-.462h1.428c.336 0 .56.154.672.462l5.187 13.587.042.231c0 .112-.042.21-.126.294a.403.403 0 01-.294.126h-1.071c-.154 0-.273-.035-.357-.105a.661.661 0 01-.168-.252l-1.155-2.982h-6.888l-1.155 2.982a.595.595 0 01-.189.252.508.508 0 01-.336.105h-1.071zm9.03-5.145l-2.835-7.455-2.835 7.455h5.67zm7.509 5.145a.53.53 0 01-.357-.126.53.53 0 01-.126-.357V209.24c0-.154.042-.273.126-.357a.486.486 0 01.357-.147h4.767c2.114 0 3.64.476 4.578 1.428.938.938 1.428 2.359 1.47 4.263.014.406.021.952.021 1.638 0 .686-.007 1.239-.021 1.659-.042 1.33-.266 2.415-.672 3.255-.392.826-1.015 1.442-1.869 1.848-.854.406-1.988.609-3.402.609h-4.872zm4.767-1.785c.966 0 1.729-.133 2.289-.399a2.42 2.42 0 001.239-1.26c.266-.588.413-1.372.441-2.352.028-.84.042-1.365.042-1.575 0-.224-.014-.742-.042-1.554-.028-1.386-.357-2.394-.987-3.024-.63-.644-1.659-.966-3.087-.966h-3.087v11.13h3.192zm10.711 1.785a.53.53 0 01-.357-.126.53.53 0 01-.126-.357V209.24c0-.154.042-.273.126-.357a.486.486 0 01.357-.147h1.05c.224 0 .406.112.546.336l4.431 8.484 4.473-8.484a.517.517 0 01.168-.231.598.598 0 01.357-.105h1.029c.154 0 .273.049.357.147a.445.445 0 01.147.357v13.713c0 .14-.049.259-.147.357a.53.53 0 01-.357.126h-1.029a.53.53 0 01-.357-.126.53.53 0 01-.126-.357v-10.332l-3.507 6.846c-.14.294-.364.441-.672.441h-.651c-.308 0-.532-.147-.672-.441l-3.528-6.846v10.332c0 .14-.049.259-.147.357a.454.454 0 01-.336.126h-1.029zm16.203 0a.403.403 0 01-.294-.126.403.403 0 01-.126-.294c0-.112.007-.189.021-.231l5.208-13.587c.112-.308.336-.462.672-.462h1.428c.336 0 .56.154.672.462l5.187 13.587.042.231c0 .112-.042.21-.126.294a.403.403 0 01-.294.126h-1.071c-.154 0-.273-.035-.357-.105a.661.661 0 01-.168-.252l-1.155-2.982h-6.888l-1.155 2.982a.595.595 0 01-.189.252.508.508 0 01-.336.105h-1.071zm9.03-5.145l-2.835-7.455-2.835 7.455h5.67zm7.508 5.145a.53.53 0 01-.357-.126.53.53 0 01-.126-.357V209.24c0-.154.042-.273.126-.357a.486.486 0 01.357-.147h5.334c1.582 0 2.828.385 3.738 1.155.91.77 1.365 1.883 1.365 3.339s-.455 2.569-1.365 3.339c-.896.756-2.142 1.134-3.738 1.134h-3.717v5.25c0 .14-.049.259-.147.357a.53.53 0 01-.357.126h-1.113zm5.229-7.497c1.022 0 1.792-.231 2.31-.693.532-.462.798-1.134.798-2.016 0-.882-.259-1.554-.777-2.016-.518-.476-1.295-.714-2.331-.714h-3.633v5.439h3.633z" opacity=".9" fill="#09192B"/><rect x="102" y="98.23" width="40.721" height="3.119" rx="1.56" fill="#C7DEEF"/><rect x="156.503" y="98.23" width="40.721" height="3.119" rx="1.56" fill="#C7DEEF"/><rect x="125.806" y="114.45" width="56.383" height="3.119" rx="1.56" fill="#C7DEEF"/><rect x="119.541" y="133.166" width="22.553" height="3.119" rx="1.56" fill="#C7DEEF"/><rect x="138.962" y="133.166" width="57.009" height="3.119" rx="1.56" fill="#C7DEEF"/><rect x="102" y="151.883" width="40.721" height="3.119" rx="1.56" fill="#C7DEEF"/><rect x="157.13" y="151.883" width="41.347" height="3.119" rx="1.56" fill="#C7DEEF"/><path fill="#1A61B7" d="M141.395 88.549h2.01v66.453h-2.01z"/><path d="M150.865 86.688l-9.47 5.864v-11.61l9.47 5.746z" fill="#F29665"/></svg>