<svg viewBox="0 0 150 167" fill="none" xmlns="http://www.w3.org/2000/svg"><g opacity=".5"><mask id="a" maskUnits="userSpaceOnUse" x="0" y="0" width="133" height="34"><rect x=".5" y=".5" width="131.693" height="32.462" rx=".5" fill="#0357FF" stroke="#0357FF"/></mask><g mask="url(#a)" fill="#09192B"><path d="M-45.964 21.439l153.72-88.75.144.249-153.72 88.75zm2.307 3.997l153.72-88.75.144.249-153.72 88.75zm2.308 3.998l153.72-88.75.145.249-153.72 88.75zm2.309 3.996l153.72-88.75.143.25-153.72 88.75zm2.306 3.997l153.72-88.75.144.249-153.72 88.75zm2.308 3.998l153.72-88.75.145.249-153.72 88.75zm2.308 3.995l153.72-88.75.144.25-153.72 88.75zm2.308 4l153.72-88.751.143.249-153.72 88.75zm2.307 3.996l153.72-88.75.144.25-153.72 88.75zm2.308 3.997l153.72-88.75.145.249-153.72 88.75zm2.307 3.997l153.72-88.75.145.249-153.72 88.75zm2.308 3.997l153.72-88.75.145.25-153.72 88.75zm2.308 3.997l153.72-88.75.144.249-153.72 88.75zm2.308 3.997l153.72-88.75.144.249-153.72 88.75zm2.019 3.497l153.72-88.75.144.249-153.72 88.75zm2.308 3.997l153.72-88.75.144.249-153.72 88.75zm2.307 3.998l153.72-88.75.145.249-153.72 88.75zm2.308 3.997L146.698.14l.145.249-153.72 88.75zm2.308 3.997l153.72-88.75.144.249-153.72 88.75zm2.307 3.997l153.72-88.75.145.249-153.72 88.75zm2.308 3.997l153.72-88.75.144.25L.045 101.13zm2.308 3.997l153.72-88.75.144.249-153.72 88.75zm2.307 3.997l153.72-88.75.144.25-153.72 88.75zm2.308 3.997l153.72-88.75.144.249-153.72 88.75z"/></g></g><rect x=".5" y=".5" width="131.693" height="32.462" rx=".5" stroke="#0357FF"/><rect x="48.429" y="73.403" width="101.071" height="32.462" rx=".5" stroke="#0084FE"/><rect x="48.429" y="133.77" width="101.071" height="32.462" rx=".5" stroke="#0084FE"/><path fill="#00ADEF" d="M13.5 33h.75v117h-.75z"/><path fill="#00ADEF" d="M14.017 89.345h34.28v.577h-34.28zm.233 59.905H48v.75H14.25z"/></svg>