<svg width="69" height="30" fill="none" xmlns="http://www.w3.org/2000/svg"><mask id="a" maskUnits="userSpaceOnUse" x="0" y="0" width="69" height="30"><path transform="rotate(-90 0 30)" fill="#C4C4C4" d="M0 30h30v68.945H0z"/></mask><g mask="url(#a)" fill="#85C8FF"><path d="M49.075 11.6l29.75 51.53-.546.315-29.75-51.529.546-.316zm-3.003 10.64L72.63 68.236l-.547.316-26.557-45.998z"/><path d="M46.146 22.374L-.475 49.29l-.316-.548L45.83 21.826zm2.998-10.655L-6.943 44.1l-.316-.548L48.828 11.17zM51.57.801l29.751 51.53-.547.316-29.75-51.53z"/><path d="M51.613.934L-34.743 50.79l-.316-.547L51.297.386z"/></g></svg>