<svg width="418" height="103" fill="none" xmlns="http://www.w3.org/2000/svg"><path opacity=".2" d="M24.877 80.31c-4.704 0-9.072-.972-13.104-2.913-4.032-2.016-7.28-4.816-9.744-8.4l6.496-7.616c4.331 6.198 9.782 9.296 16.352 9.296 4.406 0 7.728-1.344 9.968-4.032 2.315-2.688 3.472-6.645 3.472-11.872V10.757H9.981V1.013h39.424v53.2c0 8.661-2.09 15.195-6.272 19.6-4.106 4.33-10.192 6.496-18.256 6.496zm68.958-.225c-5.898 0-11.2-1.306-15.904-3.92-4.704-2.613-8.4-6.197-11.088-10.752-2.613-4.63-3.92-9.856-3.92-15.68s1.307-11.013 3.92-15.568c2.688-4.63 6.384-8.213 11.088-10.752 4.704-2.613 10.006-3.92 15.904-3.92 5.899 0 11.163 1.307 15.792 3.92 4.704 2.539 8.363 6.123 10.976 10.752 2.688 4.555 4.032 9.744 4.032 15.568s-1.344 11.05-4.032 15.68c-2.613 4.555-6.272 8.139-10.976 10.752-4.629 2.613-9.893 3.92-15.792 3.92zm0-9.408c3.808 0 7.206-.859 10.192-2.576 3.062-1.792 5.451-4.256 7.168-7.392 1.718-3.21 2.576-6.87 2.576-10.976 0-4.106-.858-7.728-2.576-10.864-1.717-3.21-4.106-5.675-7.168-7.392-2.986-1.717-6.384-2.576-10.192-2.576s-7.242.859-10.304 2.576c-2.986 1.717-5.376 4.181-7.168 7.392-1.717 3.136-2.576 6.758-2.576 10.864 0 4.107.859 7.766 2.576 10.976 1.792 3.136 4.182 5.6 7.168 7.392 3.062 1.718 6.496 2.576 10.304 2.576zm98.758-50.624v59.36h-10.192v-8.96c-2.165 3.061-5.04 5.45-8.624 7.168-3.509 1.643-7.355 2.464-11.536 2.464-7.915 0-14.149-2.165-18.704-6.496-4.555-4.405-6.832-10.864-6.832-19.376v-34.16h10.752v32.928c0 5.75 1.381 10.117 4.144 13.104 2.763 2.912 6.72 4.368 11.872 4.368 5.675 0 10.155-1.717 13.44-5.152 3.285-3.434 4.928-8.288 4.928-14.56V20.053h10.752zm28.533 9.968c1.867-3.434 4.629-6.048 8.288-7.84 3.659-1.792 8.101-2.688 13.328-2.688V29.91c-.597-.075-1.419-.112-2.464-.112-5.824 0-10.416 1.755-13.776 5.264-3.285 3.435-4.928 8.363-4.928 14.784v29.568h-10.752v-59.36h10.304v9.968zm64.324-10.528c7.541 0 13.514 2.203 17.92 6.608 4.48 4.33 6.72 10.715 6.72 19.152v34.16h-10.752V46.485c0-5.75-1.382-10.08-4.144-12.992-2.763-2.912-6.72-4.368-11.872-4.368-5.824 0-10.416 1.718-13.776 5.152-3.36 3.36-5.04 8.213-5.04 14.56v30.576h-10.752v-59.36h10.304v8.96c2.165-3.061 5.077-5.413 8.736-7.056 3.733-1.643 7.952-2.464 12.656-2.464zm96.274 30.576c0 .822-.074 1.904-.224 3.248h-48.16c.672 5.227 2.95 9.446 6.832 12.656 3.958 3.136 8.848 4.704 14.672 4.704 7.094 0 12.806-2.39 17.136-7.168l5.936 6.944c-2.688 3.136-6.048 5.525-10.08 7.168-3.957 1.643-8.4 2.464-13.328 2.464-6.272 0-11.834-1.27-16.688-3.808-4.853-2.613-8.624-6.234-11.312-10.864-2.613-4.63-3.92-9.856-3.92-15.68 0-5.75 1.27-10.938 3.808-15.568 2.614-4.63 6.16-8.213 10.64-10.752 4.555-2.613 9.67-3.92 15.344-3.92 5.675 0 10.715 1.307 15.12 3.92 4.48 2.539 7.952 6.123 10.416 10.752 2.539 4.63 3.808 9.93 3.808 15.904zM352.38 28.565c-5.152 0-9.482 1.568-12.992 4.704-3.434 3.136-5.45 7.243-6.048 12.32h38.08c-.597-5.002-2.65-9.072-6.16-12.208-3.434-3.21-7.728-4.816-12.88-4.816zm93.469-8.512L417.065 85.35c-2.539 6.048-5.526 10.304-8.96 12.768-3.36 2.464-7.43 3.696-12.208 3.696-2.912 0-5.75-.485-8.512-1.456-2.688-.896-4.928-2.24-6.72-4.032l4.592-8.064c3.061 2.912 6.608 4.368 10.64 4.368 2.613 0 4.778-.71 6.496-2.128 1.792-1.344 3.397-3.696 4.816-7.056l1.904-4.144-26.208-59.248h11.2l20.72 47.488 20.496-47.488h10.528z" stroke="#0066B3" stroke-width="2"/></svg>