<svg viewBox="0 0 220 155" fill="none" xmlns="http://www.w3.org/2000/svg"><path fill="#0C8AFE" d="M106.783 46.738h-.643v60.91h.643zm-14.151-7.365h-.643v75.64h.643zm-28.305 3.164h-.643v69.312h.643zm-21.227 0h-.643v69.312h.643zm70.76 18.506h-.643v32.3h.643zm-91.989 0h-.643v32.3h.643zM7.72 66.26h-.644v21.865h.643zm162.748-55.025h-.643V143.15h.643zm14.152 34.427h-.643v63.061h.643zm-28.304-19.739h-.643v102.54h.643zm-7.076 8.153h-.643v86.235h.643zm-21.228 22.098h-.643v42.037h.643zm84.912 17.273h-.643v7.491h.643z"/><path fill="#00ADEF" d="M220 72.242h-.643v9.902H220zm-14.152-9.022h-.643v27.946h.643zm-7.076-12.408h-.643v52.763h.643zm-77.836 19.381h-.643v14h.643zM78.48 64.44h-.644v25.506h.644zm-21.228 0h-.644v25.506h.644zm-28.305-8.002h-.643v41.51h.643zm42.457 12.924h-.643v15.661h.643zm-21.229 0h-.643v15.661h.643zm-35.38 0h-.643v15.661h.643zM.643 73.15H0v8.085h.643zm84.913-20.156h-.643v48.399h.643zm49.532-2.497h-.643v53.392h.643zm42.456-22.11h-.643V126h.643zm14.152 24.403h-.643v48.806h.643zm-49.532-14.501h-.643v77.809h.643z"/><path fill="#1D4EFF" d="M163.392 0h-.643v154.386h.643zM99.707 29.736h-.642v94.915h.642zm-63.684 7.478h-.643v79.958h.643z"/></svg>