<svg viewBox="0 0 200 168" fill="none" xmlns="http://www.w3.org/2000/svg"><g opacity=".5"><mask id="a" maskUnits="userSpaceOnUse" x="89" y="79" width="22" height="32"><path d="M110.611 110.217c0-14.437-7.266-26.393-10.333-31.014-7.046 7.785-10.618 21.536-10.872 29.639 5.904 2.397 16.456 1.935 21.205 1.375z" fill="#000"/></mask><g mask="url(#a)" fill="#09192B"><path d="M74.226 94.97l39.45-22.775.165.287-39.45 22.776zm1.771 3.07l39.45-22.777.165.288-39.449 22.776zm1.772 3.067l39.45-22.776.165.287-39.449 22.776zm1.771 3.069L118.99 81.4l.165.288-39.449 22.776zm1.772 3.068l39.45-22.776.165.288-39.449 22.776zm1.771 3.068l39.45-22.776.165.288L83.25 110.6zm1.772 3.069l39.45-22.776.165.288-39.449 22.776zm1.702 3.108l39.45-22.776.165.287-39.45 22.776zm1.488 3.232l39.45-22.776.165.288-39.449 22.776z"/></g></g><circle cx="144.454" cy="111.861" r="55.046" stroke="#00B9FF"/><circle cx="55.546" cy="111.861" r="55.046" stroke="#0C8AFE"/><circle cx="103.432" cy="55.546" r="55.046" stroke="#1D4EFF"/></svg>