<svg viewBox="0 0 300 404" fill="none" xmlns="http://www.w3.org/2000/svg"><rect y=".525" width="300" height="402.5" rx="3" fill="#fff"/><path fill="#F4F8FC" d="M177.146 95.525h5.849v5h-5.849z"/><path d="M65.196 273.665c-1.222 0-2.17-.317-2.842-.952-.663-.644-1.012-1.61-1.05-2.898a36.26 36.26 0 01-.014-1.19c0-.513.005-.905.014-1.176.038-1.26.401-2.217 1.092-2.87.69-.663 1.624-.994 2.8-.994 1.167 0 2.096.331 2.786.994.69.653 1.055 1.61 1.092 2.87.019.541.028.933.028 1.176 0 .233-.01.63-.028 1.19-.037 1.288-.392 2.254-1.064 2.898-.663.635-1.6.952-2.814.952zm0-1.19c.737 0 1.326-.224 1.764-.672.439-.448.677-1.134.714-2.058.019-.56.028-.933.028-1.12 0-.205-.01-.579-.028-1.12-.037-.924-.28-1.61-.728-2.058-.439-.448-1.022-.672-1.75-.672-.737 0-1.33.224-1.778.672-.438.448-.676 1.134-.714 2.058-.01.271-.014.644-.014 1.12 0 .467.005.84.014 1.12.038.924.276 1.61.714 2.058.448.448 1.04.672 1.778.672zm8.481 1.19c-.887 0-1.573-.285-2.058-.854-.486-.579-.728-1.344-.728-2.296v-3.948c0-.093.028-.168.084-.224a.325.325 0 01.238-.098h.7c.093 0 .168.033.224.098a.28.28 0 01.098.224v3.878c0 1.391.606 2.086 1.82 2.086.588 0 1.054-.182 1.4-.546.345-.373.518-.887.518-1.54v-3.878c0-.093.028-.168.084-.224a.325.325 0 01.238-.098h.7c.093 0 .168.033.224.098a.303.303 0 01.084.224v6.636a.353.353 0 01-.084.238.303.303 0 01-.224.084h-.658a.353.353 0 01-.238-.084.353.353 0 01-.084-.238v-.616a2.64 2.64 0 01-.952.812c-.374.177-.835.266-1.386.266zm6.028-.14a.353.353 0 01-.238-.084.353.353 0 01-.084-.238v-6.622c0-.093.028-.173.084-.238a.325.325 0 01.238-.098h.644c.093 0 .172.033.238.098a.324.324 0 01.098.238v.616c.382-.635 1.036-.952 1.96-.952h.546c.093 0 .168.033.224.098a.28.28 0 01.098.224v.574a.28.28 0 01-.098.224.303.303 0 01-.224.084h-.84c-.504 0-.901.149-1.19.448-.29.289-.434.686-.434 1.19v4.116a.324.324 0 01-.098.238.353.353 0 01-.238.084h-.686zm10.641 0c-1.475 0-2.212-.821-2.212-2.464v-3.696h-1.092a.353.353 0 01-.238-.084.353.353 0 01-.084-.238v-.476c0-.093.028-.168.084-.224a.325.325 0 01.238-.098h1.092v-2.338c0-.093.028-.168.084-.224a.325.325 0 01.238-.098h.658c.093 0 .168.033.224.098a.28.28 0 01.098.224v2.338h1.736c.093 0 .168.033.224.098a.28.28 0 01.098.224v.476a.324.324 0 01-.098.238.303.303 0 01-.224.084h-1.736v3.598c0 .467.08.821.238 1.064.158.233.42.35.784.35h.854c.093 0 .168.033.224.098a.28.28 0 01.098.224v.504a.324.324 0 01-.098.238.303.303 0 01-.224.084h-.966zm5.539.14c-.962 0-1.732-.294-2.31-.882-.57-.597-.883-1.409-.939-2.436l-.013-.476.013-.462c.066-1.008.383-1.811.953-2.408.578-.597 1.339-.896 2.282-.896 1.035 0 1.838.331 2.407.994.57.653.854 1.54.854 2.66v.238a.324.324 0 01-.098.238.303.303 0 01-.224.084h-4.844v.126c.029.607.21 1.125.547 1.554.345.42.797.63 1.358.63.429 0 .779-.084 1.05-.252.28-.177.485-.359.615-.546.085-.112.145-.177.183-.196a.491.491 0 01.238-.042h.686c.084 0 .153.023.21.07a.242.242 0 01.084.196c0 .205-.131.453-.392.742-.252.289-.612.541-1.079.756-.457.205-.984.308-1.581.308zm1.917-4.312v-.042c0-.644-.177-1.167-.532-1.568-.345-.411-.811-.616-1.4-.616-.588 0-1.054.205-1.4.616-.335.401-.504.924-.504 1.568v.042h3.837zm5.945 4.312c-.999 0-1.783-.28-2.352-.84-.56-.569-.859-1.363-.896-2.38l-.014-.56.014-.56c.037-1.017.336-1.806.896-2.366.569-.569 1.353-.854 2.352-.854.672 0 1.241.121 1.708.364.466.243.812.541 1.036.896.233.355.359.709.378 1.064a.247.247 0 01-.084.224.355.355 0 01-.238.084h-.672c-.094 0-.164-.019-.21-.056a.563.563 0 01-.14-.224c-.159-.448-.383-.765-.672-.952-.29-.196-.654-.294-1.092-.294-.579 0-1.041.182-1.386.546-.336.355-.518.901-.546 1.638l-.014.504.014.476c.028.747.21 1.297.546 1.652.336.355.798.532 1.386.532.438 0 .802-.093 1.092-.28.289-.196.513-.518.672-.966a.563.563 0 01.14-.224c.046-.047.116-.07.21-.07h.672c.093 0 .172.033.238.098a.247.247 0 01.084.224c-.019.345-.145.7-.378 1.064-.224.355-.57.653-1.036.896-.458.243-1.027.364-1.708.364zm5.12-.14a.353.353 0 01-.238-.084.353.353 0 01-.084-.238v-9.296c0-.093.028-.168.084-.224a.325.325 0 01.238-.098h.7c.093 0 .168.033.224.098a.282.282 0 01.098.224v3.262a2.72 2.72 0 01.952-.784c.364-.187.817-.28 1.358-.28.896 0 1.591.289 2.086.868.504.569.756 1.33.756 2.282v3.948a.325.325 0 01-.098.238.303.303 0 01-.224.084h-.7a.353.353 0 01-.238-.084.353.353 0 01-.084-.238v-3.878c0-.663-.163-1.176-.49-1.54-.317-.364-.779-.546-1.386-.546-.588 0-1.059.187-1.414.56-.345.364-.518.873-.518 1.526v3.878a.325.325 0 01-.098.238.303.303 0 01-.224.084h-.7zm8.517 0a.355.355 0 01-.238-.084.353.353 0 01-.084-.238v-6.636c0-.093.028-.168.084-.224a.327.327 0 01.238-.098h.658a.28.28 0 01.224.098.279.279 0 01.098.224v.616c.271-.345.588-.611.952-.798.374-.187.836-.28 1.386-.28.896 0 1.592.289 2.086.868.504.569.756 1.33.756 2.282v3.948a.321.321 0 01-.098.238.302.302 0 01-.224.084h-.7a.355.355 0 01-.238-.084.353.353 0 01-.084-.238v-3.878c0-.663-.163-1.176-.49-1.54-.317-.364-.779-.546-1.386-.546-.588 0-1.054.187-1.4.56-.345.364-.518.873-.518 1.526v3.878a.321.321 0 01-.098.238.302.302 0 01-.224.084h-.7zm11.151.14c-1.027 0-1.825-.289-2.394-.868-.56-.579-.859-1.349-.896-2.31l-.014-.602.014-.602c.037-.952.34-1.717.91-2.296.569-.588 1.362-.882 2.38-.882 1.017 0 1.81.294 2.38.882.569.579.872 1.344.91 2.296.009.103.014.303.014.602s-.005.499-.014.602c-.038.961-.341 1.731-.91 2.31-.56.579-1.354.868-2.38.868zm0-1.078c.588 0 1.05-.187 1.386-.56.345-.373.532-.91.56-1.61.009-.093.014-.271.014-.532s-.005-.439-.014-.532c-.028-.7-.215-1.237-.56-1.61-.336-.373-.798-.56-1.386-.56-.588 0-1.055.187-1.4.56-.346.373-.528.91-.546 1.61l-.014.532.014.532c.018.7.2 1.237.546 1.61.345.373.812.56 1.4.56zm5.393.938a.351.351 0 01-.238-.084.353.353 0 01-.084-.238v-9.296c0-.093.028-.168.084-.224a.324.324 0 01.238-.098h.658c.093 0 .168.033.224.098a.282.282 0 01.098.224v9.296a.325.325 0 01-.098.238.303.303 0 01-.224.084h-.658zm6.05.14c-1.027 0-1.825-.289-2.394-.868-.56-.579-.859-1.349-.896-2.31l-.014-.602.014-.602c.037-.952.341-1.717.91-2.296.569-.588 1.363-.882 2.38-.882s1.811.294 2.38.882c.569.579.873 1.344.91 2.296.009.103.014.303.014.602s-.005.499-.014.602c-.037.961-.341 1.731-.91 2.31-.56.579-1.353.868-2.38.868zm0-1.078c.588 0 1.05-.187 1.386-.56.345-.373.532-.91.56-1.61.009-.093.014-.271.014-.532s-.005-.439-.014-.532c-.028-.7-.215-1.237-.56-1.61-.336-.373-.798-.56-1.386-.56-.588 0-1.055.187-1.4.56-.345.373-.527.91-.546 1.61l-.014.532.014.532c.019.7.201 1.237.546 1.61.345.373.812.56 1.4.56zm8.039 4.018c-.765 0-1.381-.131-1.848-.392-.467-.252-.798-.541-.994-.868-.196-.327-.303-.621-.322-.882a.283.283 0 01.084-.238.359.359 0 01.238-.098h.672c.084 0 .154.019.21.056a.517.517 0 01.14.238c.112.299.294.555.546.77.261.224.663.336 1.204.336.691 0 1.199-.149 1.526-.448.327-.289.49-.807.49-1.554v-.952a2.696 2.696 0 01-.924.742c-.373.177-.817.266-1.33.266-.989 0-1.731-.313-2.226-.938-.485-.635-.742-1.437-.77-2.408l-.014-.392.014-.378c.028-.961.289-1.759.784-2.394.495-.644 1.232-.966 2.212-.966.98 0 1.745.359 2.296 1.078v-.602c0-.093.028-.173.084-.238a.325.325 0 01.238-.098h.644c.093 0 .173.033.238.098a.325.325 0 01.098.238v6.79c0 2.156-1.097 3.234-3.29 3.234zm-.028-4.144c.635 0 1.115-.21 1.442-.63.327-.42.504-.919.532-1.498.009-.084.014-.247.014-.49 0-.233-.005-.392-.014-.476-.028-.579-.205-1.078-.532-1.498-.317-.42-.798-.63-1.442-.63-.663 0-1.143.205-1.442.616-.299.411-.462.952-.49 1.624l-.014.364.014.378c.028.663.191 1.204.49 1.624.299.411.779.616 1.442.616zm6.674 3.724a.268.268 0 01-.196-.084.268.268 0 01-.084-.196c0-.065.023-.149.07-.252l1.078-2.562-2.674-6.314a.887.887 0 01-.07-.238.285.285 0 01.294-.294h.686c.149 0 .261.079.336.238l2.128 5.096 2.184-5.096c.074-.159.191-.238.35-.238h.658c.084 0 .154.028.21.084a.268.268 0 01.084.196c0 .028-.024.112-.07.252l-3.976 9.17c-.075.159-.192.238-.35.238h-.658zm12.453-2.52c-.999 0-1.783-.28-2.352-.84-.56-.569-.859-1.363-.896-2.38l-.014-.56.014-.56c.037-1.017.336-1.806.896-2.366.569-.569 1.353-.854 2.352-.854.672 0 1.241.121 1.708.364.466.243.812.541 1.036.896.233.355.359.709.378 1.064a.247.247 0 01-.084.224.355.355 0 01-.238.084h-.672c-.094 0-.164-.019-.21-.056a.563.563 0 01-.14-.224c-.159-.448-.383-.765-.672-.952-.29-.196-.654-.294-1.092-.294-.579 0-1.041.182-1.386.546-.336.355-.518.901-.546 1.638l-.014.504.014.476c.028.747.21 1.297.546 1.652.336.355.798.532 1.386.532.438 0 .802-.093 1.092-.28.289-.196.513-.518.672-.966a.563.563 0 01.14-.224c.046-.047.116-.07.21-.07h.672c.093 0 .172.033.238.098a.247.247 0 01.084.224c-.019.345-.145.7-.378 1.064-.224.355-.57.653-1.036.896-.458.243-1.027.364-1.708.364zm7.766 0c-1.026 0-1.824-.289-2.394-.868-.56-.579-.858-1.349-.896-2.31l-.014-.602.014-.602c.038-.952.341-1.717.91-2.296.57-.588 1.363-.882 2.38-.882 1.018 0 1.811.294 2.38.882.57.579.873 1.344.91 2.296.01.103.014.303.014.602s-.004.499-.014.602c-.037.961-.34 1.731-.91 2.31-.56.579-1.353.868-2.38.868zm0-1.078c.588 0 1.05-.187 1.386-.56.346-.373.532-.91.56-1.61.01-.093.014-.271.014-.532s-.004-.439-.014-.532c-.028-.7-.214-1.237-.56-1.61-.336-.373-.798-.56-1.386-.56-.588 0-1.054.187-1.4.56-.345.373-.527.91-.546 1.61l-.014.532.014.532c.019.7.201 1.237.546 1.61.346.373.812.56 1.4.56zm5.379.938a.355.355 0 01-.238-.084.353.353 0 01-.084-.238v-6.636c0-.093.028-.168.084-.224a.327.327 0 01.238-.098h.658a.28.28 0 01.224.098.279.279 0 01.098.224v.616c.271-.345.588-.611.952-.798.374-.187.836-.28 1.386-.28.896 0 1.592.289 2.086.868.504.569.756 1.33.756 2.282v3.948a.321.321 0 01-.098.238.302.302 0 01-.224.084h-.7a.355.355 0 01-.238-.084.353.353 0 01-.084-.238v-3.878c0-.663-.163-1.176-.49-1.54-.317-.364-.779-.546-1.386-.546-.588 0-1.054.187-1.4.56-.345.364-.518.873-.518 1.526v3.878a.321.321 0 01-.098.238.302.302 0 01-.224.084h-.7zm10.689.14c-.654 0-1.204-.103-1.652-.308-.439-.215-.77-.457-.994-.728-.215-.271-.322-.495-.322-.672 0-.093.032-.163.098-.21a.37.37 0 01.224-.084h.63c.093 0 .177.047.252.14.224.261.466.467.728.616.261.149.611.224 1.05.224.485 0 .877-.093 1.176-.28.308-.196.462-.462.462-.798a.771.771 0 00-.196-.546c-.122-.149-.336-.275-.644-.378-.299-.112-.747-.233-1.344-.364-.812-.177-1.391-.434-1.736-.77-.336-.336-.504-.77-.504-1.302 0-.355.102-.691.308-1.008.214-.327.522-.588.924-.784.41-.205.9-.308 1.47-.308.597 0 1.106.098 1.526.294.42.196.732.429.938.7.214.261.322.481.322.658a.266.266 0 01-.098.21.285.285 0 01-.21.084h-.588a.345.345 0 01-.28-.14 3.384 3.384 0 00-.392-.406 1.261 1.261 0 00-.462-.266c-.196-.075-.448-.112-.756-.112-.448 0-.794.098-1.036.294a.89.89 0 00-.364.742c0 .196.051.364.154.504.102.131.298.252.588.364.298.112.728.229 1.288.35.886.187 1.512.457 1.876.812.373.345.56.789.56 1.33 0 .401-.117.765-.35 1.092-.234.327-.579.583-1.036.77-.448.187-.985.28-1.61.28zm7.332 0c-.886 0-1.572-.285-2.058-.854-.485-.579-.728-1.344-.728-2.296v-3.948c0-.093.028-.168.084-.224a.327.327 0 01.238-.098h.7a.28.28 0 01.224.098.279.279 0 01.098.224v3.878c0 1.391.607 2.086 1.82 2.086.588 0 1.055-.182 1.4-.546.346-.373.518-.887.518-1.54v-3.878c0-.093.028-.168.084-.224a.327.327 0 01.238-.098h.7a.28.28 0 01.224.098.303.303 0 01.084.224v6.636a.353.353 0 01-.084.238.302.302 0 01-.224.084h-.658a.355.355 0 01-.238-.084.353.353 0 01-.084-.238v-.616a2.632 2.632 0 01-.952.812c-.373.177-.835.266-1.386.266zm6.042-.14a.355.355 0 01-.238-.084.353.353 0 01-.084-.238v-9.296c0-.093.028-.168.084-.224a.327.327 0 01.238-.098h.658a.28.28 0 01.224.098.282.282 0 01.098.224v9.296a.325.325 0 01-.098.238.302.302 0 01-.224.084h-.658zm5.91 0c-1.474 0-2.212-.821-2.212-2.464v-3.696h-1.092a.355.355 0 01-.238-.084.353.353 0 01-.084-.238v-.476c0-.093.028-.168.084-.224a.327.327 0 01.238-.098h1.092v-2.338c0-.093.028-.168.084-.224a.327.327 0 01.238-.098h.658a.28.28 0 01.224.098.279.279 0 01.098.224v2.338h1.736a.28.28 0 01.224.098.279.279 0 01.098.224v.476a.321.321 0 01-.098.238.302.302 0 01-.224.084h-1.736v3.598c0 .467.08.821.238 1.064.159.233.42.35.784.35h.854a.28.28 0 01.224.098.279.279 0 01.098.224v.504a.321.321 0 01-.098.238.302.302 0 01-.224.084h-.966zm4.657.14c-.457 0-.882-.093-1.274-.28a2.45 2.45 0 01-.938-.756 1.866 1.866 0 01-.336-1.078c0-.616.252-1.12.756-1.512.514-.401 1.204-.663 2.072-.784l2.086-.294v-.406c0-.952-.546-1.428-1.638-1.428-.41 0-.746.089-1.008.266a1.729 1.729 0 00-.588.602.377.377 0 01-.112.182c-.037.037-.093.056-.168.056h-.602a.336.336 0 01-.224-.084.334.334 0 01-.084-.224c.01-.224.112-.476.308-.756.206-.289.518-.537.938-.742.42-.215.938-.322 1.554-.322 1.046 0 1.797.247 2.254.742.458.485.686 1.092.686 1.82v4.536a.321.321 0 01-.098.238.302.302 0 01-.224.084h-.644a.355.355 0 01-.238-.084.353.353 0 01-.084-.238v-.602c-.205.299-.504.551-.896.756-.392.205-.891.308-1.498.308zm.294-1.05c.607 0 1.102-.196 1.484-.588.392-.401.588-.975.588-1.722v-.392l-1.624.238c-.662.093-1.162.252-1.498.476-.336.215-.504.49-.504.826 0 .373.154.663.462.868.308.196.672.294 1.092.294zm5.723.91a.351.351 0 01-.238-.084.353.353 0 01-.084-.238v-6.636c0-.093.028-.168.084-.224a.324.324 0 01.238-.098h.658c.093 0 .168.033.224.098a.282.282 0 01.098.224v.616c.27-.345.588-.611.952-.798.373-.187.835-.28 1.386-.28.896 0 1.591.289 2.086.868.504.569.756 1.33.756 2.282v3.948a.325.325 0 01-.098.238.303.303 0 01-.224.084h-.7a.351.351 0 01-.238-.084.353.353 0 01-.084-.238v-3.878c0-.663-.164-1.176-.49-1.54-.318-.364-.78-.546-1.386-.546-.588 0-1.055.187-1.4.56-.346.364-.518.873-.518 1.526v3.878a.325.325 0 01-.098.238.303.303 0 01-.224.084h-.7zm10.914 0c-1.474 0-2.212-.821-2.212-2.464v-3.696h-1.092a.355.355 0 01-.238-.084.353.353 0 01-.084-.238v-.476c0-.093.028-.168.084-.224a.327.327 0 01.238-.098h1.092v-2.338c0-.093.028-.168.084-.224a.327.327 0 01.238-.098h.658a.28.28 0 01.224.098.279.279 0 01.098.224v2.338h1.736a.28.28 0 01.224.098.279.279 0 01.098.224v.476a.321.321 0 01-.098.238.302.302 0 01-.224.084h-1.736v3.598c0 .467.08.821.238 1.064.159.233.42.35.784.35h.854a.28.28 0 01.224.098.279.279 0 01.098.224v.504a.321.321 0 01-.098.238.302.302 0 01-.224.084h-.966zm5.147.14c-.653 0-1.204-.103-1.652-.308-.439-.215-.77-.457-.994-.728-.215-.271-.322-.495-.322-.672 0-.093.033-.163.098-.21a.372.372 0 01.224-.084h.63c.093 0 .177.047.252.14.224.261.467.467.728.616.261.149.611.224 1.05.224.485 0 .877-.093 1.176-.28.308-.196.462-.462.462-.798a.767.767 0 00-.196-.546c-.121-.149-.336-.275-.644-.378-.299-.112-.747-.233-1.344-.364-.812-.177-1.391-.434-1.736-.77-.336-.336-.504-.77-.504-1.302 0-.355.103-.691.308-1.008.215-.327.523-.588.924-.784.411-.205.901-.308 1.47-.308.597 0 1.106.098 1.526.294.42.196.733.429.938.7.215.261.322.481.322.658a.266.266 0 01-.098.21.285.285 0 01-.21.084h-.588a.346.346 0 01-.28-.14 3.308 3.308 0 00-.392-.406 1.261 1.261 0 00-.462-.266c-.196-.075-.448-.112-.756-.112-.448 0-.793.098-1.036.294a.89.89 0 00-.364.742c0 .196.051.364.154.504.103.131.299.252.588.364.299.112.728.229 1.288.35.887.187 1.512.457 1.876.812.373.345.56.789.56 1.33 0 .401-.117.765-.35 1.092-.233.327-.579.583-1.036.77-.448.187-.985.28-1.61.28zm-187.009 24c-.96 0-1.73-.294-2.31-.882-.569-.597-.881-1.409-.937-2.436l-.014-.476.014-.462c.065-1.008.382-1.811.952-2.408.578-.597 1.339-.896 2.282-.896 1.036 0 1.838.331 2.408.994.569.653.854 1.54.854 2.66v.238a.324.324 0 01-.098.238.303.303 0 01-.224.084h-4.844v.126c.028.607.21 1.125.546 1.554.345.42.798.63 1.358.63.429 0 .779-.084 1.05-.252.28-.177.485-.359.616-.546.084-.112.144-.177.182-.196a.491.491 0 01.238-.042h.686c.084 0 .154.023.21.07a.242.242 0 01.084.196c0 .205-.131.453-.392.742-.252.289-.612.541-1.078.756-.458.205-.985.308-1.582.308zm1.919-4.312v-.042c0-.644-.178-1.167-.532-1.568-.346-.411-.812-.616-1.4-.616-.588 0-1.055.205-1.4.616-.336.401-.504.924-.504 1.568v.042h3.836zm3.326 4.172a.353.353 0 01-.238-.084.353.353 0 01-.084-.238v-6.636c0-.093.028-.168.084-.224a.325.325 0 01.238-.098h.63c.093 0 .168.033.224.098a.28.28 0 01.098.224v.49c.485-.635 1.162-.952 2.03-.952 1.036 0 1.768.429 2.198 1.288a2.48 2.48 0 01.952-.938 2.76 2.76 0 011.386-.35c.765 0 1.39.261 1.876.784.485.523.728 1.279.728 2.268v4.046a.324.324 0 01-.098.238.303.303 0 01-.224.084h-.658a.353.353 0 01-.238-.084.353.353 0 01-.084-.238v-3.92c0-.728-.154-1.251-.462-1.568-.299-.317-.696-.476-1.19-.476-.439 0-.817.163-1.134.49-.318.317-.476.835-.476 1.554v3.92a.324.324 0 01-.098.238.303.303 0 01-.224.084h-.658a.353.353 0 01-.238-.084.353.353 0 01-.084-.238v-3.92c0-.728-.159-1.251-.476-1.568-.308-.317-.7-.476-1.176-.476-.439 0-.817.163-1.134.49-.318.317-.476.831-.476 1.54v3.934a.324.324 0 01-.098.238.303.303 0 01-.224.084h-.672zm12.455 2.66a.325.325 0 01-.238-.098.303.303 0 01-.084-.224v-9.296c0-.093.028-.168.084-.224a.325.325 0 01.238-.098h.644c.093 0 .168.033.224.098a.28.28 0 01.098.224v.616c.523-.719 1.288-1.078 2.296-1.078.98 0 1.713.308 2.198.924.495.616.76 1.409.798 2.38.01.103.014.261.014.476 0 .215-.005.373-.014.476-.037.961-.303 1.755-.798 2.38-.495.616-1.227.924-2.198.924-.97 0-1.727-.35-2.268-1.05v3.248a.303.303 0 01-.084.224.281.281 0 01-.224.098h-.686zm2.968-3.654c.663 0 1.143-.205 1.442-.616.308-.411.476-.952.504-1.624.01-.093.014-.229.014-.406 0-1.764-.653-2.646-1.96-2.646-.644 0-1.13.215-1.456.644-.317.42-.49.924-.518 1.512l-.014.532.014.546a2.34 2.34 0 00.532 1.442c.336.411.817.616 1.442.616zm5.372.994a.353.353 0 01-.238-.084.353.353 0 01-.084-.238v-9.296c0-.093.028-.168.084-.224a.325.325 0 01.238-.098h.658c.093 0 .168.033.224.098a.28.28 0 01.098.224v9.296a.324.324 0 01-.098.238.303.303 0 01-.224.084H76zm6.05.14c-1.026 0-1.824-.289-2.394-.868-.56-.579-.858-1.349-.896-2.31l-.014-.602.014-.602c.038-.952.34-1.717.91-2.296.57-.588 1.363-.882 2.38-.882 1.018 0 1.81.294 2.38.882.57.579.873 1.344.91 2.296.01.103.014.303.014.602s-.004.499-.014.602c-.037.961-.34 1.731-.91 2.31-.56.579-1.353.868-2.38.868zm0-1.078c.588 0 1.05-.187 1.386-.56.346-.373.532-.91.56-1.61.01-.093.014-.271.014-.532s-.004-.439-.014-.532c-.028-.7-.214-1.237-.56-1.61-.336-.373-.798-.56-1.386-.56-.588 0-1.054.187-1.4.56-.345.373-.527.91-.546 1.61l-.014.532.014.532c.019.7.2 1.237.546 1.61.346.373.812.56 1.4.56zm6.058 3.598a.269.269 0 01-.196-.084.268.268 0 01-.084-.196c0-.065.023-.149.07-.252l1.078-2.562-2.674-6.314a.899.899 0 01-.07-.238.285.285 0 01.294-.294h.686c.15 0 .261.079.336.238l2.128 5.096 2.184-5.096c.075-.159.191-.238.35-.238h.658c.084 0 .154.028.21.084a.268.268 0 01.084.196c0 .028-.024.112-.07.252l-3.976 9.17c-.075.159-.192.238-.35.238h-.658zm9.723-11.298a.353.353 0 01-.238-.084.353.353 0 01-.084-.238v-.756c0-.093.028-.173.084-.238a.325.325 0 01.238-.098h.882c.093 0 .173.033.238.098a.324.324 0 01.098.238v.756a.324.324 0 01-.098.238.353.353 0 01-.238.084h-.882zm.112 8.638a.353.353 0 01-.238-.084.353.353 0 01-.084-.238v-6.636c0-.093.028-.168.084-.224a.325.325 0 01.238-.098h.672c.093 0 .168.033.224.098a.28.28 0 01.098.224v6.636a.324.324 0 01-.098.238.303.303 0 01-.224.084h-.672zm3.391 0a.351.351 0 01-.238-.084.353.353 0 01-.084-.238v-6.636c0-.093.028-.168.084-.224a.324.324 0 01.238-.098h.658c.093 0 .168.033.224.098a.282.282 0 01.098.224v.616c.27-.345.588-.611.952-.798.373-.187.835-.28 1.386-.28.896 0 1.591.289 2.086.868.504.569.756 1.33.756 2.282v3.948a.325.325 0 01-.098.238.303.303 0 01-.224.084h-.7a.351.351 0 01-.238-.084.353.353 0 01-.084-.238v-3.878c0-.663-.164-1.176-.49-1.54-.318-.364-.78-.546-1.386-.546-.588 0-1.055.187-1.4.56-.346.364-.518.873-.518 1.526v3.878a.325.325 0 01-.098.238.303.303 0 01-.224.084h-.7zm8.49 0a.351.351 0 01-.238-.084.353.353 0 01-.084-.238v-6.636c0-.093.028-.168.084-.224a.324.324 0 01.238-.098h.658c.093 0 .168.033.224.098a.282.282 0 01.098.224v.616c.271-.345.588-.611.952-.798.373-.187.835-.28 1.386-.28.896 0 1.591.289 2.086.868.504.569.756 1.33.756 2.282v3.948a.325.325 0 01-.098.238.303.303 0 01-.224.084h-.7a.351.351 0 01-.238-.084.353.353 0 01-.084-.238v-3.878c0-.663-.163-1.176-.49-1.54-.318-.364-.78-.546-1.386-.546-.588 0-1.055.187-1.4.56-.346.364-.518.873-.518 1.526v3.878a.325.325 0 01-.098.238.303.303 0 01-.224.084h-.7zm11.15.14c-1.027 0-1.825-.289-2.394-.868-.56-.579-.859-1.349-.896-2.31l-.014-.602.014-.602c.037-.952.341-1.717.91-2.296.569-.588 1.363-.882 2.38-.882s1.811.294 2.38.882c.569.579.873 1.344.91 2.296.009.103.014.303.014.602s-.005.499-.014.602c-.037.961-.341 1.731-.91 2.31-.56.579-1.353.868-2.38.868zm0-1.078c.588 0 1.05-.187 1.386-.56.345-.373.532-.91.56-1.61.009-.093.014-.271.014-.532s-.005-.439-.014-.532c-.028-.7-.215-1.237-.56-1.61-.336-.373-.798-.56-1.386-.56-.588 0-1.055.187-1.4.56-.345.373-.527.91-.546 1.61l-.014.532.014.532c.019.7.201 1.237.546 1.61.345.373.812.56 1.4.56zm7.331.938c-.242 0-.415-.117-.518-.35l-2.59-6.496-.028-.14a.285.285 0 01.294-.294h.672c.159 0 .276.079.35.238l2.128 5.516 2.128-5.516c.084-.159.196-.238.336-.238h.686c.075 0 .14.028.196.084a.263.263 0 01.098.21l-.028.14-2.604 6.496c-.102.233-.275.35-.518.35h-.602zm6.975.14c-.457 0-.882-.093-1.274-.28a2.443 2.443 0 01-.938-.756 1.866 1.866 0 01-.336-1.078c0-.616.252-1.12.756-1.512.513-.401 1.204-.663 2.072-.784l2.086-.294v-.406c0-.952-.546-1.428-1.638-1.428-.411 0-.747.089-1.008.266a1.729 1.729 0 00-.588.602.377.377 0 01-.112.182c-.037.037-.093.056-.168.056h-.602a.334.334 0 01-.224-.084.334.334 0 01-.084-.224c.009-.224.112-.476.308-.756.205-.289.518-.537.938-.742.42-.215.938-.322 1.554-.322 1.045 0 1.797.247 2.254.742.457.485.686 1.092.686 1.82v4.536a.325.325 0 01-.098.238.303.303 0 01-.224.084h-.644a.353.353 0 01-.238-.084.353.353 0 01-.084-.238v-.602c-.205.299-.504.551-.896.756-.392.205-.891.308-1.498.308zm.294-1.05c.607 0 1.101-.196 1.484-.588.392-.401.588-.975.588-1.722v-.392l-1.624.238c-.663.093-1.162.252-1.498.476-.336.215-.504.49-.504.826 0 .373.154.663.462.868.308.196.672.294 1.092.294zm8.174.91c-1.475 0-2.212-.821-2.212-2.464v-3.696h-1.092a.353.353 0 01-.238-.084.353.353 0 01-.084-.238v-.476c0-.093.028-.168.084-.224a.325.325 0 01.238-.098h1.092v-2.338c0-.093.028-.168.084-.224a.325.325 0 01.238-.098h.658c.093 0 .168.033.224.098a.282.282 0 01.098.224v2.338h1.736c.093 0 .168.033.224.098a.282.282 0 01.098.224v.476a.325.325 0 01-.098.238.303.303 0 01-.224.084h-1.736v3.598c0 .467.079.821.238 1.064.159.233.42.35.784.35h.854c.093 0 .168.033.224.098a.282.282 0 01.098.224v.504a.325.325 0 01-.098.238.303.303 0 01-.224.084h-.966zm2.837-8.638a.353.353 0 01-.238-.084.353.353 0 01-.084-.238v-.756c0-.093.028-.173.084-.238a.325.325 0 01.238-.098h.882c.093 0 .173.033.238.098a.325.325 0 01.098.238v.756a.325.325 0 01-.098.238.353.353 0 01-.238.084h-.882zm.112 8.638a.353.353 0 01-.238-.084.353.353 0 01-.084-.238v-6.636c0-.093.028-.168.084-.224a.325.325 0 01.238-.098h.672c.093 0 .168.033.224.098a.282.282 0 01.098.224v6.636a.325.325 0 01-.098.238.303.303 0 01-.224.084h-.672zm5.603 0c-.243 0-.416-.117-.518-.35l-2.59-6.496-.028-.14a.285.285 0 01.294-.294h.672c.158 0 .275.079.35.238l2.128 5.516 2.128-5.516c.084-.159.196-.238.336-.238h.686a.27.27 0 01.196.084.266.266 0 01.098.21l-.028.14-2.604 6.496c-.103.233-.276.35-.518.35h-.602zm7.87.14c-.962 0-1.732-.294-2.31-.882-.57-.597-.882-1.409-.938-2.436l-.014-.476.014-.462c.065-1.008.382-1.811.952-2.408.578-.597 1.339-.896 2.282-.896 1.036 0 1.838.331 2.408.994.569.653.854 1.54.854 2.66v.238a.325.325 0 01-.098.238.303.303 0 01-.224.084h-4.844v.126c.028.607.21 1.125.546 1.554.345.42.798.63 1.358.63.429 0 .779-.084 1.05-.252.28-.177.485-.359.616-.546.084-.112.144-.177.182-.196a.49.49 0 01.238-.042h.686c.084 0 .154.023.21.07a.242.242 0 01.084.196c0 .205-.131.453-.392.742-.252.289-.612.541-1.078.756-.458.205-.985.308-1.582.308zm1.918-4.312v-.042c0-.644-.178-1.167-.532-1.568-.346-.411-.812-.616-1.4-.616-.588 0-1.055.205-1.4.616-.336.401-.504.924-.504 1.568v.042h3.836zm8.955 4.312c-.653 0-1.204-.103-1.652-.308-.438-.215-.77-.457-.994-.728-.214-.271-.322-.495-.322-.672 0-.093.033-.163.098-.21a.375.375 0 01.224-.084h.63c.094 0 .178.047.252.14.224.261.467.467.728.616.262.149.612.224 1.05.224.486 0 .878-.093 1.176-.28.308-.196.462-.462.462-.798a.767.767 0 00-.196-.546c-.121-.149-.336-.275-.644-.378-.298-.112-.746-.233-1.344-.364-.812-.177-1.39-.434-1.736-.77-.336-.336-.504-.77-.504-1.302 0-.355.103-.691.308-1.008.215-.327.523-.588.924-.784.411-.205.901-.308 1.47-.308.598 0 1.106.098 1.526.294.42.196.733.429.938.7.215.261.322.481.322.658a.263.263 0 01-.098.21.285.285 0 01-.21.084h-.588a.346.346 0 01-.28-.14 3.308 3.308 0 00-.392-.406c-.102-.103-.256-.191-.462-.266-.196-.075-.448-.112-.756-.112-.448 0-.793.098-1.036.294a.892.892 0 00-.364.742c0 .196.052.364.154.504.103.131.299.252.588.364.299.112.728.229 1.288.35.887.187 1.512.457 1.876.812.374.345.56.789.56 1.33 0 .401-.116.765-.35 1.092-.233.327-.578.583-1.036.77-.448.187-.984.28-1.61.28zm7.599 0c-1.027 0-1.825-.289-2.394-.868-.56-.579-.859-1.349-.896-2.31l-.014-.602.014-.602c.037-.952.341-1.717.91-2.296.569-.588 1.363-.882 2.38-.882s1.811.294 2.38.882c.569.579.873 1.344.91 2.296.009.103.014.303.014.602s-.005.499-.014.602c-.037.961-.341 1.731-.91 2.31-.56.579-1.353.868-2.38.868zm0-1.078c.588 0 1.05-.187 1.386-.56.345-.373.532-.91.56-1.61.009-.093.014-.271.014-.532s-.005-.439-.014-.532c-.028-.7-.215-1.237-.56-1.61-.336-.373-.798-.56-1.386-.56-.588 0-1.055.187-1.4.56-.345.373-.527.91-.546 1.61l-.014.532.014.532c.019.7.201 1.237.546 1.61.345.373.812.56 1.4.56zm5.393.938a.353.353 0 01-.238-.084.353.353 0 01-.084-.238v-9.296c0-.093.028-.168.084-.224a.325.325 0 01.238-.098h.658c.093 0 .168.033.224.098a.282.282 0 01.098.224v9.296a.325.325 0 01-.098.238.303.303 0 01-.224.084h-.658zm5.784.14c-.886 0-1.572-.285-2.058-.854-.485-.579-.728-1.344-.728-2.296v-3.948c0-.093.028-.168.084-.224a.327.327 0 01.238-.098h.7a.28.28 0 01.224.098.279.279 0 01.098.224v3.878c0 1.391.607 2.086 1.82 2.086.588 0 1.055-.182 1.4-.546.346-.373.518-.887.518-1.54v-3.878c0-.093.028-.168.084-.224a.327.327 0 01.238-.098h.7a.28.28 0 01.224.098.303.303 0 01.084.224v6.636a.353.353 0 01-.084.238.302.302 0 01-.224.084h-.658a.355.355 0 01-.238-.084.353.353 0 01-.084-.238v-.616a2.632 2.632 0 01-.952.812c-.373.177-.835.266-1.386.266zm8.548-.14c-1.474 0-2.212-.821-2.212-2.464v-3.696h-1.092a.355.355 0 01-.238-.084.353.353 0 01-.084-.238v-.476c0-.093.028-.168.084-.224a.327.327 0 01.238-.098h1.092v-2.338c0-.093.028-.168.084-.224a.327.327 0 01.238-.098h.658a.28.28 0 01.224.098.279.279 0 01.098.224v2.338h1.736a.28.28 0 01.224.098.279.279 0 01.098.224v.476a.321.321 0 01-.098.238.302.302 0 01-.224.084h-1.736v3.598c0 .467.08.821.238 1.064.159.233.42.35.784.35h.854a.28.28 0 01.224.098.279.279 0 01.098.224v.504a.321.321 0 01-.098.238.302.302 0 01-.224.084h-.966zm2.837-8.638a.353.353 0 01-.238-.084.353.353 0 01-.084-.238v-.756c0-.093.028-.173.084-.238a.325.325 0 01.238-.098h.882c.093 0 .173.033.238.098a.325.325 0 01.098.238v.756a.325.325 0 01-.098.238.353.353 0 01-.238.084h-.882zm.112 8.638a.353.353 0 01-.238-.084.353.353 0 01-.084-.238v-6.636c0-.093.028-.168.084-.224a.325.325 0 01.238-.098h.672c.093 0 .168.033.224.098a.282.282 0 01.098.224v6.636a.325.325 0 01-.098.238.303.303 0 01-.224.084h-.672zm6.051.14c-1.027 0-1.825-.289-2.394-.868-.56-.579-.859-1.349-.896-2.31l-.014-.602.014-.602c.037-.952.34-1.717.91-2.296.569-.588 1.362-.882 2.38-.882 1.017 0 1.81.294 2.38.882.569.579.872 1.344.91 2.296.009.103.014.303.014.602s-.005.499-.014.602c-.038.961-.341 1.731-.91 2.31-.56.579-1.354.868-2.38.868zm0-1.078c.588 0 1.05-.187 1.386-.56.345-.373.532-.91.56-1.61.009-.093.014-.271.014-.532s-.005-.439-.014-.532c-.028-.7-.215-1.237-.56-1.61-.336-.373-.798-.56-1.386-.56-.588 0-1.055.187-1.4.56-.346.373-.528.91-.546 1.61l-.014.532.014.532c.018.7.2 1.237.546 1.61.345.373.812.56 1.4.56zm5.379.938a.351.351 0 01-.238-.084.353.353 0 01-.084-.238v-6.636c0-.093.028-.168.084-.224a.324.324 0 01.238-.098h.658c.093 0 .168.033.224.098a.282.282 0 01.098.224v.616c.27-.345.588-.611.952-.798.373-.187.835-.28 1.386-.28.896 0 1.591.289 2.086.868.504.569.756 1.33.756 2.282v3.948a.325.325 0 01-.098.238.303.303 0 01-.224.084h-.7a.351.351 0 01-.238-.084.353.353 0 01-.084-.238v-3.878c0-.663-.164-1.176-.49-1.54-.318-.364-.78-.546-1.386-.546-.588 0-1.055.187-1.4.56-.346.364-.518.873-.518 1.526v3.878a.325.325 0 01-.098.238.303.303 0 01-.224.084h-.7zm10.688.14c-.653 0-1.204-.103-1.652-.308-.439-.215-.77-.457-.994-.728-.215-.271-.322-.495-.322-.672 0-.093.033-.163.098-.21a.372.372 0 01.224-.084h.63c.093 0 .177.047.252.14.224.261.467.467.728.616.261.149.611.224 1.05.224.485 0 .877-.093 1.176-.28.308-.196.462-.462.462-.798a.767.767 0 00-.196-.546c-.121-.149-.336-.275-.644-.378-.299-.112-.747-.233-1.344-.364-.812-.177-1.391-.434-1.736-.77-.336-.336-.504-.77-.504-1.302 0-.355.103-.691.308-1.008.215-.327.523-.588.924-.784.411-.205.901-.308 1.47-.308.597 0 1.106.098 1.526.294.42.196.733.429.938.7.215.261.322.481.322.658a.266.266 0 01-.098.21.285.285 0 01-.21.084h-.588a.346.346 0 01-.28-.14 3.308 3.308 0 00-.392-.406 1.261 1.261 0 00-.462-.266c-.196-.075-.448-.112-.756-.112-.448 0-.793.098-1.036.294a.89.89 0 00-.364.742c0 .196.051.364.154.504.103.131.299.252.588.364.299.112.728.229 1.288.35.887.187 1.512.457 1.876.812.373.345.56.789.56 1.33 0 .401-.117.765-.35 1.092-.233.327-.579.583-1.036.77-.448.187-.985.28-1.61.28zm10.078 0c-.457 0-.882-.093-1.274-.28a2.45 2.45 0 01-.938-.756 1.866 1.866 0 01-.336-1.078c0-.616.252-1.12.756-1.512.514-.401 1.204-.663 2.072-.784l2.086-.294v-.406c0-.952-.546-1.428-1.638-1.428-.41 0-.746.089-1.008.266a1.729 1.729 0 00-.588.602.377.377 0 01-.112.182c-.037.037-.093.056-.168.056h-.602a.336.336 0 01-.224-.084.334.334 0 01-.084-.224c.01-.224.112-.476.308-.756.206-.289.518-.537.938-.742.42-.215.938-.322 1.554-.322 1.046 0 1.797.247 2.254.742.458.485.686 1.092.686 1.82v4.536a.321.321 0 01-.098.238.302.302 0 01-.224.084h-.644a.355.355 0 01-.238-.084.353.353 0 01-.084-.238v-.602c-.205.299-.504.551-.896.756-.392.205-.891.308-1.498.308zm.294-1.05c.607 0 1.102-.196 1.484-.588.392-.401.588-.975.588-1.722v-.392l-1.624.238c-.662.093-1.162.252-1.498.476-.336.215-.504.49-.504.826 0 .373.154.663.462.868.308.196.672.294 1.092.294zm5.723.91a.353.353 0 01-.238-.084.353.353 0 01-.084-.238v-6.636c0-.093.028-.168.084-.224a.325.325 0 01.238-.098h.658c.093 0 .168.033.224.098a.282.282 0 01.098.224v.616c.271-.345.588-.611.952-.798.373-.187.835-.28 1.386-.28.896 0 1.591.289 2.086.868.504.569.756 1.33.756 2.282v3.948a.325.325 0 01-.098.238.303.303 0 01-.224.084h-.7a.353.353 0 01-.238-.084.353.353 0 01-.084-.238v-3.878c0-.663-.163-1.176-.49-1.54-.317-.364-.779-.546-1.386-.546-.588 0-1.055.187-1.4.56-.345.364-.518.873-.518 1.526v3.878a.325.325 0 01-.098.238.303.303 0 01-.224.084h-.7zm10.828.14c-.971 0-1.703-.317-2.198-.952-.495-.635-.756-1.437-.784-2.408l-.014-.42.014-.42c.028-.961.289-1.759.784-2.394.495-.644 1.227-.966 2.198-.966.961 0 1.717.341 2.268 1.022v-3.22c0-.093.028-.168.084-.224a.325.325 0 01.238-.098h.672c.093 0 .168.033.224.098a.282.282 0 01.098.224v9.296a.325.325 0 01-.098.238.303.303 0 01-.224.084h-.63a.353.353 0 01-.238-.084.353.353 0 01-.084-.238v-.588c-.541.7-1.311 1.05-2.31 1.05zm.294-1.134c.644 0 1.125-.21 1.442-.63.327-.429.504-.938.532-1.526a6.99 6.99 0 00.014-.532c0-.261-.005-.443-.014-.546a2.341 2.341 0 00-.532-1.442c-.336-.411-.817-.616-1.442-.616-.663 0-1.148.205-1.456.616-.299.411-.462.952-.49 1.624l-.014.406c0 1.764.653 2.646 1.96 2.646zM45.662 321.665c-.97 0-1.703-.317-2.198-.952-.495-.635-.756-1.437-.784-2.408l-.014-.42.014-.42c.028-.961.29-1.759.784-2.394.495-.644 1.227-.966 2.198-.966.961 0 1.717.341 2.268 1.022v-3.22c0-.093.028-.168.084-.224a.325.325 0 01.238-.098h.672c.093 0 .168.033.224.098a.28.28 0 01.098.224v9.296a.324.324 0 01-.098.238.303.303 0 01-.224.084h-.63a.353.353 0 01-.238-.084.353.353 0 01-.084-.238v-.588c-.541.7-1.312 1.05-2.31 1.05zm.294-1.134c.644 0 1.124-.21 1.442-.63.326-.429.504-.938.532-1.526.01-.103.014-.28.014-.532a7.05 7.05 0 00-.014-.546 2.339 2.339 0 00-.532-1.442c-.336-.411-.817-.616-1.442-.616-.663 0-1.148.205-1.456.616-.299.411-.462.952-.49 1.624l-.014.406c0 1.764.653 2.646 1.96 2.646zm8.284 1.134c-.961 0-1.731-.294-2.31-.882-.57-.597-.882-1.409-.938-2.436l-.014-.476.014-.462c.065-1.008.383-1.811.952-2.408.579-.597 1.34-.896 2.282-.896 1.036 0 1.839.331 2.408.994.57.653.854 1.54.854 2.66v.238a.324.324 0 01-.098.238.303.303 0 01-.224.084h-4.844v.126c.028.607.21 1.125.546 1.554.345.42.798.63 1.358.63.43 0 .78-.084 1.05-.252.28-.177.485-.359.616-.546.084-.112.145-.177.182-.196a.491.491 0 01.238-.042h.686c.084 0 .154.023.21.07a.242.242 0 01.084.196c0 .205-.13.453-.392.742-.252.289-.611.541-1.078.756-.457.205-.985.308-1.582.308zm1.918-4.312v-.042c0-.644-.177-1.167-.532-1.568-.345-.411-.812-.616-1.4-.616-.588 0-1.055.205-1.4.616-.336.401-.504.924-.504 1.568v.042h3.836zm5.916 4.312c-.961 0-1.731-.294-2.31-.882-.57-.597-.882-1.409-.938-2.436l-.014-.476.014-.462c.065-1.008.383-1.811.952-2.408.579-.597 1.34-.896 2.282-.896 1.036 0 1.839.331 2.408.994.57.653.854 1.54.854 2.66v.238a.324.324 0 01-.098.238.303.303 0 01-.224.084h-4.844v.126c.028.607.21 1.125.546 1.554.345.42.798.63 1.358.63.43 0 .78-.084 1.05-.252.28-.177.485-.359.616-.546.084-.112.145-.177.182-.196a.491.491 0 01.238-.042h.686c.084 0 .154.023.21.07a.242.242 0 01.084.196c0 .205-.13.453-.392.742-.252.289-.611.541-1.078.756-.457.205-.985.308-1.582.308zm1.918-4.312v-.042c0-.644-.177-1.167-.532-1.568-.345-.411-.812-.616-1.4-.616-.588 0-1.055.205-1.4.616-.336.401-.504.924-.504 1.568v.042h3.836zm3.34 6.832a.325.325 0 01-.238-.098.303.303 0 01-.084-.224v-9.296c0-.093.028-.168.084-.224a.325.325 0 01.238-.098h.644c.093 0 .168.033.224.098a.28.28 0 01.098.224v.616c.523-.719 1.288-1.078 2.296-1.078.98 0 1.713.308 2.198.924.495.616.76 1.409.798 2.38.01.103.014.261.014.476 0 .215-.005.373-.014.476-.037.961-.303 1.755-.798 2.38-.495.616-1.227.924-2.198.924-.97 0-1.727-.35-2.268-1.05v3.248a.303.303 0 01-.084.224.281.281 0 01-.224.098h-.686zm2.968-3.654c.663 0 1.143-.205 1.442-.616.308-.411.476-.952.504-1.624.01-.093.014-.229.014-.406 0-1.764-.653-2.646-1.96-2.646-.644 0-1.13.215-1.456.644-.317.42-.49.924-.518 1.512l-.014.532.014.546c.019.551.196 1.031.532 1.442.336.411.817.616 1.442.616zm11.127 1.134c-.97 0-1.703-.317-2.198-.952-.494-.635-.755-1.437-.784-2.408l-.013-.42.013-.42c.029-.961.29-1.759.785-2.394.494-.644 1.227-.966 2.197-.966.962 0 1.718.341 2.268 1.022v-3.22c0-.093.029-.168.085-.224a.325.325 0 01.237-.098h.672c.094 0 .169.033.225.098a.28.28 0 01.097.224v9.296a.324.324 0 01-.097.238.303.303 0 01-.225.084h-.63a.353.353 0 01-.237-.084.353.353 0 01-.085-.238v-.588c-.54.7-1.31 1.05-2.31 1.05zm.294-1.134c.644 0 1.125-.21 1.442-.63.327-.429.505-.938.532-1.526.01-.103.015-.28.015-.532 0-.261-.005-.443-.014-.546a2.34 2.34 0 00-.532-1.442c-.337-.411-.817-.616-1.442-.616-.663 0-1.148.205-1.456.616-.3.411-.463.952-.49 1.624l-.014.406c0 1.764.653 2.646 1.96 2.646zm8.355 1.134c-1.027 0-1.825-.289-2.394-.868-.56-.579-.859-1.349-.896-2.31l-.014-.602.014-.602c.037-.952.34-1.717.91-2.296.569-.588 1.362-.882 2.38-.882 1.017 0 1.81.294 2.38.882.569.579.872 1.344.91 2.296.009.103.014.303.014.602s-.005.499-.014.602c-.038.961-.341 1.731-.91 2.31-.56.579-1.354.868-2.38.868zm0-1.078c.588 0 1.05-.187 1.386-.56.345-.373.532-.91.56-1.61.009-.093.014-.271.014-.532s-.005-.439-.014-.532c-.028-.7-.215-1.237-.56-1.61-.336-.373-.798-.56-1.386-.56-.588 0-1.055.187-1.4.56-.346.373-.528.91-.546 1.61l-.014.532.014.532c.018.7.2 1.237.546 1.61.345.373.812.56 1.4.56zm5.379.938a.353.353 0 01-.238-.084.353.353 0 01-.084-.238v-6.636c0-.093.028-.168.084-.224a.325.325 0 01.238-.098h.63c.093 0 .168.033.224.098a.28.28 0 01.098.224v.49c.485-.635 1.162-.952 2.03-.952 1.036 0 1.768.429 2.198 1.288a2.48 2.48 0 01.952-.938c.41-.233.872-.35 1.386-.35.765 0 1.39.261 1.876.784.485.523.728 1.279.728 2.268v4.046a.325.325 0 01-.098.238.303.303 0 01-.224.084h-.658a.351.351 0 01-.238-.084.353.353 0 01-.084-.238v-3.92c0-.728-.154-1.251-.462-1.568-.299-.317-.696-.476-1.19-.476-.439 0-.817.163-1.134.49-.318.317-.476.835-.476 1.554v3.92a.325.325 0 01-.098.238.303.303 0 01-.224.084h-.658a.353.353 0 01-.238-.084.353.353 0 01-.084-.238v-3.92c0-.728-.159-1.251-.476-1.568-.308-.317-.7-.476-1.176-.476-.439 0-.817.163-1.134.49-.318.317-.476.831-.476 1.54v3.934a.324.324 0 01-.098.238.303.303 0 01-.224.084h-.672zm14.149.14c-.457 0-.882-.093-1.274-.28a2.443 2.443 0 01-.938-.756 1.866 1.866 0 01-.336-1.078c0-.616.252-1.12.756-1.512.513-.401 1.204-.663 2.072-.784l2.086-.294v-.406c0-.952-.546-1.428-1.638-1.428-.411 0-.747.089-1.008.266a1.729 1.729 0 00-.588.602.377.377 0 01-.112.182c-.037.037-.093.056-.168.056h-.602a.334.334 0 01-.224-.084.334.334 0 01-.084-.224c.009-.224.112-.476.308-.756.205-.289.518-.537.938-.742.42-.215.938-.322 1.554-.322 1.045 0 1.797.247 2.254.742.457.485.686 1.092.686 1.82v4.536a.325.325 0 01-.098.238.303.303 0 01-.224.084h-.644a.353.353 0 01-.238-.084.353.353 0 01-.084-.238v-.602c-.205.299-.504.551-.896.756-.392.205-.891.308-1.498.308zm.294-1.05c.607 0 1.101-.196 1.484-.588.392-.401.588-.975.588-1.722v-.392l-1.624.238c-.663.093-1.162.252-1.498.476-.336.215-.504.49-.504.826 0 .373.154.663.462.868.308.196.672.294 1.092.294zm5.611-7.728a.351.351 0 01-.238-.084.353.353 0 01-.084-.238v-.756c0-.093.028-.173.084-.238a.324.324 0 01.238-.098h.882c.093 0 .172.033.238.098a.325.325 0 01.098.238v.756a.325.325 0 01-.098.238.355.355 0 01-.238.084h-.882zm.112 8.638a.351.351 0 01-.238-.084.353.353 0 01-.084-.238v-6.636c0-.093.028-.168.084-.224a.324.324 0 01.238-.098h.672c.093 0 .168.033.224.098a.282.282 0 01.098.224v6.636a.325.325 0 01-.098.238.303.303 0 01-.224.084h-.672zm3.39 0a.355.355 0 01-.238-.084.353.353 0 01-.084-.238v-6.636c0-.093.028-.168.084-.224a.327.327 0 01.238-.098h.658a.28.28 0 01.224.098.279.279 0 01.098.224v.616c.271-.345.588-.611.952-.798.374-.187.836-.28 1.386-.28.896 0 1.592.289 2.086.868.504.569.756 1.33.756 2.282v3.948a.321.321 0 01-.098.238.302.302 0 01-.224.084h-.7a.355.355 0 01-.238-.084.353.353 0 01-.084-.238v-3.878c0-.663-.163-1.176-.49-1.54-.317-.364-.779-.546-1.386-.546-.588 0-1.054.187-1.4.56-.345.364-.518.873-.518 1.526v3.878a.321.321 0 01-.098.238.302.302 0 01-.224.084h-.7zm14.512.14c-.961 0-1.731-.294-2.31-.882-.569-.597-.882-1.409-.938-2.436l-.014-.476.014-.462c.066-1.008.383-1.811.952-2.408.579-.597 1.34-.896 2.282-.896 1.036 0 1.839.331 2.408.994.57.653.854 1.54.854 2.66v.238a.321.321 0 01-.098.238.302.302 0 01-.224.084h-4.844v.126c.028.607.21 1.125.546 1.554.346.42.798.63 1.358.63.43 0 .78-.084 1.05-.252.28-.177.486-.359.616-.546.084-.112.145-.177.182-.196a.492.492 0 01.238-.042h.686c.084 0 .154.023.21.07a.242.242 0 01.084.196c0 .205-.13.453-.392.742-.252.289-.611.541-1.078.756-.457.205-.984.308-1.582.308zm1.918-4.312v-.042c0-.644-.177-1.167-.532-1.568-.345-.411-.812-.616-1.4-.616-.588 0-1.054.205-1.4.616-.336.401-.504.924-.504 1.568v.042h3.836zm2.518 4.172a.316.316 0 01-.21-.084.285.285 0 01-.084-.21c0-.084.032-.168.098-.252l2.436-3.178-2.282-3.01a.37.37 0 01-.098-.252.285.285 0 01.294-.294h.714c.14 0 .261.075.364.224l1.862 2.422 1.862-2.408a.901.901 0 01.154-.168.315.315 0 01.21-.07h.686a.285.285 0 01.294.294.376.376 0 01-.098.252l-2.31 3.038 2.436 3.15a.412.412 0 01.098.252.285.285 0 01-.294.294h-.742c-.14 0-.262-.07-.364-.21l-1.96-2.562-1.988 2.562a.84.84 0 01-.168.154.309.309 0 01-.196.056h-.714zm8.219 2.66a.324.324 0 01-.238-.098.303.303 0 01-.084-.224v-9.296c0-.093.028-.168.084-.224a.324.324 0 01.238-.098h.644c.093 0 .168.033.224.098a.282.282 0 01.098.224v.616c.522-.719 1.288-1.078 2.296-1.078.98 0 1.712.308 2.198.924.494.616.76 1.409.798 2.38.009.103.014.261.014.476 0 .215-.005.373-.014.476-.038.961-.304 1.755-.798 2.38-.495.616-1.228.924-2.198.924-.971 0-1.727-.35-2.268-1.05v3.248a.303.303 0 01-.084.224.282.282 0 01-.224.098h-.686zm2.968-3.654c.662 0 1.143-.205 1.442-.616.308-.411.476-.952.504-1.624.009-.093.014-.229.014-.406 0-1.764-.654-2.646-1.96-2.646-.644 0-1.13.215-1.456.644-.318.42-.49.924-.518 1.512l-.014.532.014.546c.018.551.196 1.031.532 1.442.336.411.816.616 1.442.616zm7.948 1.134c-.962 0-1.732-.294-2.31-.882-.57-.597-.882-1.409-.938-2.436l-.014-.476.014-.462c.065-1.008.382-1.811.952-2.408.578-.597 1.339-.896 2.282-.896 1.036 0 1.838.331 2.408.994.569.653.854 1.54.854 2.66v.238a.325.325 0 01-.098.238.303.303 0 01-.224.084h-4.844v.126c.028.607.21 1.125.546 1.554.345.42.798.63 1.358.63.429 0 .779-.084 1.05-.252.28-.177.485-.359.616-.546.084-.112.144-.177.182-.196a.49.49 0 01.238-.042h.686c.084 0 .154.023.21.07a.242.242 0 01.084.196c0 .205-.131.453-.392.742-.252.289-.612.541-1.078.756-.458.205-.985.308-1.582.308zm1.918-4.312v-.042c0-.644-.178-1.167-.532-1.568-.346-.411-.812-.616-1.4-.616-.588 0-1.055.205-1.4.616-.336.401-.504.924-.504 1.568v.042h3.836zm3.326 4.172a.351.351 0 01-.238-.084.353.353 0 01-.084-.238v-6.622c0-.093.028-.173.084-.238a.324.324 0 01.238-.098h.644c.093 0 .172.033.238.098a.325.325 0 01.098.238v.616c.382-.635 1.036-.952 1.96-.952h.546c.093 0 .168.033.224.098a.282.282 0 01.098.224v.574a.282.282 0 01-.098.224.303.303 0 01-.224.084h-.84c-.504 0-.901.149-1.19.448-.29.289-.434.686-.434 1.19v4.116a.325.325 0 01-.098.238.355.355 0 01-.238.084h-.686zm7.838 0c-1.475 0-2.212-.821-2.212-2.464v-3.696h-1.092a.353.353 0 01-.238-.084.353.353 0 01-.084-.238v-.476c0-.093.028-.168.084-.224a.325.325 0 01.238-.098h1.092v-2.338c0-.093.028-.168.084-.224a.325.325 0 01.238-.098h.658c.093 0 .168.033.224.098a.282.282 0 01.098.224v2.338h1.736c.093 0 .168.033.224.098a.282.282 0 01.098.224v.476a.325.325 0 01-.098.238.303.303 0 01-.224.084h-1.736v3.598c0 .467.079.821.238 1.064.159.233.42.35.784.35h.854c.093 0 .168.033.224.098a.282.282 0 01.098.224v.504a.325.325 0 01-.098.238.303.303 0 01-.224.084h-.966zm2.837-8.638a.351.351 0 01-.238-.084.353.353 0 01-.084-.238v-.756c0-.093.028-.173.084-.238a.324.324 0 01.238-.098h.882c.093 0 .172.033.238.098a.325.325 0 01.098.238v.756a.325.325 0 01-.098.238.355.355 0 01-.238.084h-.882zm.112 8.638a.351.351 0 01-.238-.084.353.353 0 01-.084-.238v-6.636c0-.093.028-.168.084-.224a.324.324 0 01.238-.098h.672c.093 0 .168.033.224.098a.282.282 0 01.098.224v6.636a.325.325 0 01-.098.238.303.303 0 01-.224.084h-.672zm5.588.14c-.653 0-1.204-.103-1.652-.308-.438-.215-.77-.457-.994-.728-.214-.271-.322-.495-.322-.672 0-.093.033-.163.098-.21a.375.375 0 01.224-.084h.63c.094 0 .178.047.252.14.224.261.467.467.728.616.262.149.612.224 1.05.224.486 0 .878-.093 1.176-.28.308-.196.462-.462.462-.798a.767.767 0 00-.196-.546c-.121-.149-.336-.275-.644-.378-.298-.112-.746-.233-1.344-.364-.812-.177-1.39-.434-1.736-.77-.336-.336-.504-.77-.504-1.302 0-.355.103-.691.308-1.008.215-.327.523-.588.924-.784.411-.205.901-.308 1.47-.308.598 0 1.106.098 1.526.294.42.196.733.429.938.7.215.261.322.481.322.658a.263.263 0 01-.098.21.285.285 0 01-.21.084h-.588a.346.346 0 01-.28-.14 3.308 3.308 0 00-.392-.406c-.102-.103-.256-.191-.462-.266-.196-.075-.448-.112-.756-.112-.448 0-.793.098-1.036.294a.892.892 0 00-.364.742c0 .196.052.364.154.504.103.131.299.252.588.364.299.112.728.229 1.288.35.887.187 1.512.457 1.876.812.374.345.56.789.56 1.33 0 .401-.116.765-.35 1.092-.233.327-.578.583-1.036.77-.448.187-.984.28-1.61.28zm7.529 0c-.961 0-1.731-.294-2.31-.882-.569-.597-.882-1.409-.938-2.436l-.014-.476.014-.462c.065-1.008.383-1.811.952-2.408.579-.597 1.339-.896 2.282-.896 1.036 0 1.839.331 2.408.994.569.653.854 1.54.854 2.66v.238a.325.325 0 01-.098.238.303.303 0 01-.224.084h-4.844v.126c.028.607.21 1.125.546 1.554.345.42.798.63 1.358.63.429 0 .779-.084 1.05-.252.28-.177.485-.359.616-.546.084-.112.145-.177.182-.196a.492.492 0 01.238-.042H189c.084 0 .154.023.21.07a.242.242 0 01.084.196c0 .205-.131.453-.392.742-.252.289-.611.541-1.078.756-.457.205-.985.308-1.582.308zm1.918-4.312v-.042c0-.644-.177-1.167-.532-1.568-.345-.411-.812-.616-1.4-.616-.588 0-1.055.205-1.4.616-.336.401-.504.924-.504 1.568v.042h3.836zm8.956 4.312c-.654 0-1.204-.103-1.652-.308-.439-.215-.77-.457-.994-.728-.215-.271-.322-.495-.322-.672 0-.093.032-.163.098-.21a.37.37 0 01.224-.084h.63c.093 0 .177.047.252.14.224.261.466.467.728.616.261.149.611.224 1.05.224.485 0 .877-.093 1.176-.28.308-.196.462-.462.462-.798a.771.771 0 00-.196-.546c-.122-.149-.336-.275-.644-.378-.299-.112-.747-.233-1.344-.364-.812-.177-1.391-.434-1.736-.77-.336-.336-.504-.77-.504-1.302 0-.355.102-.691.308-1.008.214-.327.522-.588.924-.784.41-.205.9-.308 1.47-.308.597 0 1.106.098 1.526.294.42.196.732.429.938.7.214.261.322.481.322.658a.266.266 0 01-.098.21.285.285 0 01-.21.084h-.588a.345.345 0 01-.28-.14 3.384 3.384 0 00-.392-.406 1.261 1.261 0 00-.462-.266c-.196-.075-.448-.112-.756-.112-.448 0-.794.098-1.036.294a.89.89 0 00-.364.742c0 .196.051.364.154.504.102.131.298.252.588.364.298.112.728.229 1.288.35.886.187 1.512.457 1.876.812.373.345.56.789.56 1.33 0 .401-.117.765-.35 1.092-.234.327-.579.583-1.036.77-.448.187-.985.28-1.61.28zm7.445-.14c-1.475 0-2.212-.821-2.212-2.464v-3.696h-1.092a.351.351 0 01-.238-.084.353.353 0 01-.084-.238v-.476c0-.093.028-.168.084-.224a.324.324 0 01.238-.098h1.092v-2.338c0-.093.028-.168.084-.224a.324.324 0 01.238-.098h.658c.093 0 .168.033.224.098a.282.282 0 01.098.224v2.338h1.736c.093 0 .168.033.224.098a.282.282 0 01.098.224v.476a.325.325 0 01-.098.238.303.303 0 01-.224.084h-1.736v3.598c0 .467.079.821.238 1.064.158.233.42.35.784.35h.854c.093 0 .168.033.224.098a.282.282 0 01.098.224v.504a.325.325 0 01-.098.238.303.303 0 01-.224.084h-.966zm2.948 0a.355.355 0 01-.238-.084.353.353 0 01-.084-.238v-6.622c0-.093.028-.173.084-.238a.327.327 0 01.238-.098h.644c.094 0 .173.033.238.098a.321.321 0 01.098.238v.616c.383-.635 1.036-.952 1.96-.952h.546a.28.28 0 01.224.098.279.279 0 01.098.224v.574a.279.279 0 01-.098.224.302.302 0 01-.224.084h-.84c-.504 0-.9.149-1.19.448-.289.289-.434.686-.434 1.19v4.116a.321.321 0 01-.098.238.351.351 0 01-.238.084h-.686zm6.917.14c-.457 0-.882-.093-1.274-.28a2.45 2.45 0 01-.938-.756 1.866 1.866 0 01-.336-1.078c0-.616.252-1.12.756-1.512.514-.401 1.204-.663 2.072-.784l2.086-.294v-.406c0-.952-.546-1.428-1.638-1.428-.41 0-.746.089-1.008.266a1.729 1.729 0 00-.588.602.377.377 0 01-.112.182c-.037.037-.093.056-.168.056h-.602a.336.336 0 01-.224-.084.334.334 0 01-.084-.224c.01-.224.112-.476.308-.756.206-.289.518-.537.938-.742.42-.215.938-.322 1.554-.322 1.046 0 1.797.247 2.254.742.458.485.686 1.092.686 1.82v4.536a.321.321 0 01-.098.238.302.302 0 01-.224.084h-.644a.355.355 0 01-.238-.084.353.353 0 01-.084-.238v-.602c-.205.299-.504.551-.896.756-.392.205-.891.308-1.498.308zm.294-1.05c.607 0 1.102-.196 1.484-.588.392-.401.588-.975.588-1.722v-.392l-1.624.238c-.662.093-1.162.252-1.498.476-.336.215-.504.49-.504.826 0 .373.154.663.462.868.308.196.672.294 1.092.294zm8.175.91c-1.475 0-2.212-.821-2.212-2.464v-3.696h-1.092a.351.351 0 01-.238-.084.353.353 0 01-.084-.238v-.476c0-.093.028-.168.084-.224a.324.324 0 01.238-.098h1.092v-2.338c0-.093.028-.168.084-.224a.324.324 0 01.238-.098h.658c.093 0 .168.033.224.098a.282.282 0 01.098.224v2.338h1.736c.093 0 .168.033.224.098a.282.282 0 01.098.224v.476a.325.325 0 01-.098.238.303.303 0 01-.224.084h-1.736v3.598c0 .467.079.821.238 1.064.158.233.42.35.784.35h.854c.093 0 .168.033.224.098a.282.282 0 01.098.224v.504a.325.325 0 01-.098.238.303.303 0 01-.224.084h-.966zm5.538.14c-.961 0-1.731-.294-2.31-.882-.569-.597-.882-1.409-.938-2.436l-.014-.476.014-.462c.066-1.008.383-1.811.952-2.408.579-.597 1.34-.896 2.282-.896 1.036 0 1.839.331 2.408.994.57.653.854 1.54.854 2.66v.238a.321.321 0 01-.098.238.302.302 0 01-.224.084h-4.844v.126c.028.607.21 1.125.546 1.554.346.42.798.63 1.358.63.43 0 .78-.084 1.05-.252.28-.177.486-.359.616-.546.084-.112.145-.177.182-.196a.492.492 0 01.238-.042h.686c.084 0 .154.023.21.07a.242.242 0 01.084.196c0 .205-.13.453-.392.742-.252.289-.611.541-1.078.756-.457.205-.984.308-1.582.308zm1.918-4.312v-.042c0-.644-.177-1.167-.532-1.568-.345-.411-.812-.616-1.4-.616-.588 0-1.054.205-1.4.616-.336.401-.504.924-.504 1.568v.042h3.836zm5.986 7.252c-.765 0-1.381-.131-1.848-.392-.466-.252-.798-.541-.994-.868-.196-.327-.303-.621-.322-.882a.283.283 0 01.084-.238.359.359 0 01.238-.098h.672c.084 0 .154.019.21.056a.517.517 0 01.14.238c.112.299.294.555.546.77.262.224.663.336 1.204.336.691 0 1.2-.149 1.526-.448.327-.289.49-.807.49-1.554v-.952c-.242.308-.55.555-.924.742-.373.177-.816.266-1.33.266-.989 0-1.731-.313-2.226-.938-.485-.635-.742-1.437-.77-2.408l-.014-.392.014-.378c.028-.961.29-1.759.784-2.394.495-.644 1.232-.966 2.212-.966.98 0 1.746.359 2.296 1.078v-.602c0-.093.028-.173.084-.238a.327.327 0 01.238-.098h.644c.094 0 .173.033.238.098a.321.321 0 01.098.238v6.79c0 2.156-1.096 3.234-3.29 3.234zm-.028-4.144c.635 0 1.116-.21 1.442-.63.327-.42.504-.919.532-1.498.01-.084.014-.247.014-.49 0-.233-.004-.392-.014-.476-.028-.579-.205-1.078-.532-1.498-.317-.42-.798-.63-1.442-.63-.662 0-1.143.205-1.442.616-.298.411-.462.952-.49 1.624l-.014.364.014.378c.028.663.192 1.204.49 1.624.299.411.78.616 1.442.616zm5.61-7.574a.353.353 0 01-.238-.084.353.353 0 01-.084-.238v-.756c0-.093.028-.173.084-.238a.325.325 0 01.238-.098h.882c.093 0 .173.033.238.098a.325.325 0 01.098.238v.756a.325.325 0 01-.098.238.353.353 0 01-.238.084h-.882zm.112 8.638a.353.353 0 01-.238-.084.353.353 0 01-.084-.238v-6.636c0-.093.028-.168.084-.224a.325.325 0 01.238-.098h.672c.093 0 .168.033.224.098a.282.282 0 01.098.224v6.636a.325.325 0 01-.098.238.303.303 0 01-.224.084h-.672zm5.98.14c-.961 0-1.731-.294-2.31-.882-.569-.597-.882-1.409-.938-2.436l-.014-.476.014-.462c.066-1.008.383-1.811.952-2.408.579-.597 1.34-.896 2.282-.896 1.036 0 1.839.331 2.408.994.57.653.854 1.54.854 2.66v.238a.321.321 0 01-.098.238.302.302 0 01-.224.084h-4.844v.126c.028.607.21 1.125.546 1.554.346.42.798.63 1.358.63.43 0 .78-.084 1.05-.252.28-.177.486-.359.616-.546.084-.112.145-.177.182-.196a.492.492 0 01.238-.042h.686c.084 0 .154.023.21.07a.242.242 0 01.084.196c0 .205-.13.453-.392.742-.252.289-.611.541-1.078.756-.457.205-.984.308-1.582.308zm1.918-4.312v-.042c0-.644-.177-1.167-.532-1.568-.345-.411-.812-.616-1.4-.616-.588 0-1.054.205-1.4.616-.336.401-.504.924-.504 1.568v.042h3.836zm5.524 4.312c-.653 0-1.204-.103-1.652-.308-.438-.215-.77-.457-.994-.728-.214-.271-.322-.495-.322-.672 0-.093.033-.163.098-.21a.375.375 0 01.224-.084h.63c.094 0 .178.047.252.14.224.261.467.467.728.616.262.149.612.224 1.05.224.486 0 .878-.093 1.176-.28.308-.196.462-.462.462-.798a.767.767 0 00-.196-.546c-.121-.149-.336-.275-.644-.378-.298-.112-.746-.233-1.344-.364-.812-.177-1.39-.434-1.736-.77-.336-.336-.504-.77-.504-1.302 0-.355.103-.691.308-1.008.215-.327.523-.588.924-.784.411-.205.901-.308 1.47-.308.598 0 1.106.098 1.526.294.42.196.733.429.938.7.215.261.322.481.322.658a.263.263 0 01-.098.21.285.285 0 01-.21.084h-.588a.346.346 0 01-.28-.14 3.308 3.308 0 00-.392-.406c-.102-.103-.256-.191-.462-.266-.196-.075-.448-.112-.756-.112-.448 0-.793.098-1.036.294a.892.892 0 00-.364.742c0 .196.052.364.154.504.103.131.299.252.588.364.299.112.728.229 1.288.35.887.187 1.512.457 1.876.812.374.345.56.789.56 1.33 0 .401-.116.765-.35 1.092-.233.327-.578.583-1.036.77-.448.187-.984.28-1.61.28zm-194.377 24a2.92 2.92 0 01-1.274-.28 2.445 2.445 0 01-.938-.756 1.866 1.866 0 01-.336-1.078c0-.616.252-1.12.756-1.512.513-.401 1.204-.663 2.072-.784l2.086-.294v-.406c0-.952-.546-1.428-1.638-1.428-.41 0-.747.089-1.008.266a1.722 1.722 0 00-.588.602.38.38 0 01-.112.182c-.038.037-.094.056-.168.056h-.602a.334.334 0 01-.224-.084.334.334 0 01-.084-.224c.01-.224.112-.476.308-.756.205-.289.518-.537.938-.742.42-.215.938-.322 1.554-.322 1.045 0 1.796.247 2.254.742.457.485.686 1.092.686 1.82v4.536a.324.324 0 01-.098.238.303.303 0 01-.224.084h-.644a.353.353 0 01-.238-.084.353.353 0 01-.084-.238v-.602c-.206.299-.504.551-.896.756-.392.205-.892.308-1.498.308zm.294-1.05c.606 0 1.101-.196 1.484-.588.392-.401.588-.975.588-1.722v-.392l-1.624.238c-.663.093-1.162.252-1.498.476-.336.215-.504.49-.504.826 0 .373.154.663.462.868.308.196.672.294 1.092.294zm5.736.91a.353.353 0 01-.238-.084.353.353 0 01-.084-.238v-9.296c0-.093.028-.168.084-.224a.325.325 0 01.238-.098h.658a.28.28 0 01.224.098.28.28 0 01.098.224v9.296a.324.324 0 01-.098.238.303.303 0 01-.224.084h-.658zm3.279-8.638a.353.353 0 01-.238-.084.353.353 0 01-.084-.238v-.756c0-.093.028-.173.084-.238a.325.325 0 01.238-.098h.882c.093 0 .172.033.238.098a.324.324 0 01.098.238v.756a.324.324 0 01-.098.238.353.353 0 01-.238.084h-.882zm.112 8.638a.353.353 0 01-.238-.084.353.353 0 01-.084-.238v-6.636c0-.093.028-.168.084-.224a.325.325 0 01.238-.098h.672c.093 0 .168.033.224.098a.28.28 0 01.098.224v6.636a.324.324 0 01-.098.238.303.303 0 01-.224.084h-.672zm6.05 3.08c-.765 0-1.381-.131-1.848-.392-.466-.252-.798-.541-.994-.868-.196-.327-.303-.621-.322-.882a.281.281 0 01.084-.238.358.358 0 01.238-.098h.672c.084 0 .154.019.21.056a.52.52 0 01.14.238c.112.299.294.555.546.77.262.224.663.336 1.204.336.691 0 1.2-.149 1.526-.448.327-.289.49-.807.49-1.554v-.952a2.69 2.69 0 01-.924.742c-.373.177-.816.266-1.33.266-.989 0-1.731-.313-2.226-.938-.485-.635-.742-1.437-.77-2.408l-.014-.392.014-.378c.028-.961.29-1.759.784-2.394.495-.644 1.232-.966 2.212-.966.98 0 1.746.359 2.296 1.078v-.602c0-.093.028-.173.084-.238a.325.325 0 01.238-.098h.644c.094 0 .173.033.238.098a.324.324 0 01.098.238v6.79c0 2.156-1.096 3.234-3.29 3.234zm-.028-4.144c.635 0 1.116-.21 1.442-.63.327-.42.504-.919.532-1.498a5.45 5.45 0 00.014-.49c0-.233-.004-.392-.014-.476-.028-.579-.205-1.078-.532-1.498-.317-.42-.798-.63-1.442-.63-.662 0-1.143.205-1.442.616-.298.411-.462.952-.49 1.624l-.014.364.014.378c.028.663.192 1.204.49 1.624.299.411.78.616 1.442.616zm5.721 1.064a.353.353 0 01-.237-.084.353.353 0 01-.084-.238v-6.636c0-.093.028-.168.084-.224a.325.325 0 01.238-.098h.658c.093 0 .168.033.224.098a.28.28 0 01.098.224v.616c.27-.345.588-.611.952-.798.373-.187.835-.28 1.386-.28.896 0 1.591.289 2.086.868.504.569.756 1.33.756 2.282v3.948a.324.324 0 01-.098.238.303.303 0 01-.224.084h-.7a.353.353 0 01-.238-.084.353.353 0 01-.084-.238v-3.878c0-.663-.163-1.176-.49-1.54-.317-.364-.78-.546-1.386-.546-.588 0-1.055.187-1.4.56-.346.364-.518.873-.518 1.526v3.878a.324.324 0 01-.098.238.303.303 0 01-.224.084h-.7zm11.081.14c-.961 0-1.731-.294-2.31-.882-.57-.597-.882-1.409-.938-2.436l-.014-.476.014-.462c.065-1.008.383-1.811.952-2.408.579-.597 1.34-.896 2.282-.896 1.036 0 1.839.331 2.408.994.57.653.854 1.54.854 2.66v.238a.324.324 0 01-.098.238.303.303 0 01-.224.084h-4.844v.126c.028.607.21 1.125.546 1.554.345.42.798.63 1.358.63.43 0 .78-.084 1.05-.252.28-.177.485-.359.616-.546.084-.112.145-.177.182-.196a.49.49 0 01.238-.042h.686c.084 0 .154.023.21.07a.242.242 0 01.084.196c0 .205-.13.453-.392.742-.252.289-.611.541-1.078.756-.457.205-.985.308-1.582.308zm1.918-4.312v-.042c0-.644-.177-1.167-.532-1.568-.345-.411-.812-.616-1.4-.616-.588 0-1.055.205-1.4.616-.336.401-.504.924-.504 1.568v.042h3.836zm5.664 4.312c-.97 0-1.703-.317-2.198-.952-.495-.635-.756-1.437-.784-2.408l-.014-.42.014-.42c.028-.961.29-1.759.784-2.394.495-.644 1.227-.966 2.198-.966.961 0 1.717.341 2.268 1.022v-3.22c0-.093.028-.168.084-.224a.325.325 0 01.238-.098h.672c.093 0 .168.033.224.098a.282.282 0 01.098.224v9.296a.325.325 0 01-.098.238.303.303 0 01-.224.084h-.63a.353.353 0 01-.238-.084.353.353 0 01-.084-.238v-.588c-.541.7-1.311 1.05-2.31 1.05zm.294-1.134c.644 0 1.125-.21 1.442-.63.327-.429.504-.938.532-1.526a6.99 6.99 0 00.014-.532c0-.261-.005-.443-.014-.546a2.341 2.341 0 00-.532-1.442c-.336-.411-.817-.616-1.442-.616-.663 0-1.148.205-1.456.616-.299.411-.462.952-.49 1.624l-.014.406c0 1.764.653 2.646 1.96 2.646zm10.408.994c-.122 0-.215-.028-.28-.084a.642.642 0 01-.168-.266l-1.988-6.496-.028-.14c0-.084.028-.154.084-.21a.316.316 0 01.21-.084h.616c.093 0 .168.028.224.084a.325.325 0 01.126.154l1.554 5.278 1.666-5.222a.366.366 0 01.126-.196.36.36 0 01.266-.098h.476c.112 0 .2.033.266.098a.378.378 0 01.126.196l1.666 5.222 1.554-5.278a.32.32 0 01.098-.154.351.351 0 01.238-.084h.63a.27.27 0 01.196.084.285.285 0 01.084.21l-.028.14-1.974 6.496a.663.663 0 01-.168.266c-.066.056-.164.084-.294.084h-.546c-.252 0-.406-.117-.462-.35l-1.624-5.012-1.624 5.012c-.075.233-.234.35-.476.35h-.546zm9.502-8.638a.355.355 0 01-.238-.084.353.353 0 01-.084-.238v-.756c0-.093.028-.173.084-.238a.327.327 0 01.238-.098h.882c.094 0 .173.033.238.098a.321.321 0 01.098.238v.756a.321.321 0 01-.098.238.351.351 0 01-.238.084h-.882zm.112 8.638a.355.355 0 01-.238-.084.353.353 0 01-.084-.238v-6.636c0-.093.028-.168.084-.224a.327.327 0 01.238-.098h.672a.28.28 0 01.224.098.279.279 0 01.098.224v6.636a.321.321 0 01-.098.238.302.302 0 01-.224.084h-.672zm5.911 0c-1.475 0-2.212-.821-2.212-2.464v-3.696h-1.092a.353.353 0 01-.238-.084.353.353 0 01-.084-.238v-.476c0-.093.028-.168.084-.224a.325.325 0 01.238-.098h1.092v-2.338c0-.093.028-.168.084-.224a.325.325 0 01.238-.098h.658c.093 0 .168.033.224.098a.282.282 0 01.098.224v2.338h1.736c.093 0 .168.033.224.098a.282.282 0 01.098.224v.476a.325.325 0 01-.098.238.303.303 0 01-.224.084h-1.736v3.598c0 .467.079.821.238 1.064.159.233.42.35.784.35h.854c.093 0 .168.033.224.098a.282.282 0 01.098.224v.504a.325.325 0 01-.098.238.303.303 0 01-.224.084h-.966zm2.963 0a.351.351 0 01-.238-.084.353.353 0 01-.084-.238v-9.296c0-.093.028-.168.084-.224a.324.324 0 01.238-.098h.7c.093 0 .168.033.224.098a.282.282 0 01.098.224v3.262a2.71 2.71 0 01.952-.784c.364-.187.816-.28 1.358-.28.896 0 1.591.289 2.086.868.504.569.756 1.33.756 2.282v3.948a.325.325 0 01-.098.238.303.303 0 01-.224.084h-.7a.351.351 0 01-.238-.084.353.353 0 01-.084-.238v-3.878c0-.663-.164-1.176-.49-1.54-.318-.364-.78-.546-1.386-.546-.588 0-1.06.187-1.414.56-.346.364-.518.873-.518 1.526v3.878a.325.325 0 01-.098.238.303.303 0 01-.224.084h-.7zm12.518 2.66a.268.268 0 01-.196-.084.268.268 0 01-.084-.196c0-.065.023-.149.07-.252l1.078-2.562-2.674-6.314a.887.887 0 01-.07-.238.285.285 0 01.294-.294h.686c.149 0 .261.079.336.238l2.128 5.096 2.184-5.096c.074-.159.191-.238.35-.238h.658c.084 0 .154.028.21.084a.268.268 0 01.084.196c0 .028-.024.112-.07.252l-3.976 9.17c-.075.159-.192.238-.35.238h-.658zm9.186-2.52c-1.026 0-1.824-.289-2.394-.868-.56-.579-.858-1.349-.896-2.31l-.014-.602.014-.602c.038-.952.341-1.717.91-2.296.57-.588 1.363-.882 2.38-.882 1.018 0 1.811.294 2.38.882.57.579.873 1.344.91 2.296.01.103.014.303.014.602s-.004.499-.014.602c-.037.961-.34 1.731-.91 2.31-.56.579-1.353.868-2.38.868zm0-1.078c.588 0 1.05-.187 1.386-.56.346-.373.532-.91.56-1.61.01-.093.014-.271.014-.532s-.004-.439-.014-.532c-.028-.7-.214-1.237-.56-1.61-.336-.373-.798-.56-1.386-.56-.588 0-1.054.187-1.4.56-.345.373-.527.91-.546 1.61l-.014.532.014.532c.019.7.201 1.237.546 1.61.346.373.812.56 1.4.56zm7.773 1.078c-.886 0-1.572-.285-2.058-.854-.485-.579-.728-1.344-.728-2.296v-3.948c0-.093.028-.168.084-.224a.327.327 0 01.238-.098h.7a.28.28 0 01.224.098.279.279 0 01.098.224v3.878c0 1.391.607 2.086 1.82 2.086.588 0 1.055-.182 1.4-.546.346-.373.518-.887.518-1.54v-3.878c0-.093.028-.168.084-.224a.327.327 0 01.238-.098h.7a.28.28 0 01.224.098.303.303 0 01.084.224v6.636a.353.353 0 01-.084.238.302.302 0 01-.224.084h-.658a.355.355 0 01-.238-.084.353.353 0 01-.084-.238v-.616a2.632 2.632 0 01-.952.812c-.373.177-.835.266-1.386.266zm6.028-.14a.355.355 0 01-.238-.084.353.353 0 01-.084-.238v-6.622c0-.093.028-.173.084-.238a.327.327 0 01.238-.098h.644c.094 0 .173.033.238.098a.321.321 0 01.098.238v.616c.383-.635 1.036-.952 1.96-.952h.546a.28.28 0 01.224.098.279.279 0 01.098.224v.574a.279.279 0 01-.098.224.302.302 0 01-.224.084h-.84c-.504 0-.9.149-1.19.448-.289.289-.434.686-.434 1.19v4.116a.321.321 0 01-.098.238.351.351 0 01-.238.084h-.686zm11.082.14c-1.027 0-1.825-.289-2.394-.868-.56-.579-.859-1.349-.896-2.31l-.014-.602.014-.602c.037-.952.341-1.717.91-2.296.569-.588 1.363-.882 2.38-.882s1.811.294 2.38.882c.569.579.873 1.344.91 2.296.009.103.014.303.014.602s-.005.499-.014.602c-.037.961-.341 1.731-.91 2.31-.56.579-1.353.868-2.38.868zm0-1.078c.588 0 1.05-.187 1.386-.56.345-.373.532-.91.56-1.61.009-.093.014-.271.014-.532s-.005-.439-.014-.532c-.028-.7-.215-1.237-.56-1.61-.336-.373-.798-.56-1.386-.56-.588 0-1.055.187-1.4.56-.345.373-.527.91-.546 1.61l-.014.532.014.532c.019.7.201 1.237.546 1.61.345.373.812.56 1.4.56zm8.655 1.078c-1.008 0-1.773-.35-2.296-1.05v.588a.321.321 0 01-.098.238.302.302 0 01-.224.084h-.644a.355.355 0 01-.238-.084.353.353 0 01-.084-.238v-9.296c0-.093.028-.168.084-.224a.327.327 0 01.238-.098h.686a.28.28 0 01.224.098.303.303 0 01.084.224v3.22c.551-.681 1.307-1.022 2.268-1.022.971 0 1.704.322 2.198.966.495.635.761 1.433.798 2.394.01.103.014.243.014.42s-.004.317-.014.42c-.037.971-.303 1.773-.798 2.408-.494.635-1.227.952-2.198.952zm-.294-1.134c.663 0 1.144-.205 1.442-.616.308-.411.476-.952.504-1.624.01-.093.014-.229.014-.406 0-1.764-.653-2.646-1.96-2.646-.625 0-1.106.205-1.442.616a2.341 2.341 0 00-.532 1.442l-.014.546.014.532c.028.588.201 1.097.518 1.526.327.42.812.63 1.456.63zm5.372-7.644a.355.355 0 01-.238-.084.353.353 0 01-.084-.238v-.756c0-.093.028-.173.084-.238a.327.327 0 01.238-.098h.896c.094 0 .173.033.238.098a.321.321 0 01.098.238v.756a.321.321 0 01-.098.238.351.351 0 01-.238.084h-.896zm-1.54 11.298a.282.282 0 01-.224-.098.282.282 0 01-.098-.224v-.476c0-.093.033-.173.098-.238a.303.303 0 01.224-.084h.196c.458 0 .761-.117.91-.35.15-.233.224-.579.224-1.036v-7.112c0-.093.028-.168.084-.224a.327.327 0 01.238-.098h.686a.28.28 0 01.224.098.279.279 0 01.098.224v7.126c0 1.661-.798 2.492-2.394 2.492h-.266zm7.657-2.52c-.961 0-1.731-.294-2.31-.882-.569-.597-.882-1.409-.938-2.436l-.014-.476.014-.462c.065-1.008.383-1.811.952-2.408.579-.597 1.339-.896 2.282-.896 1.036 0 1.839.331 2.408.994.569.653.854 1.54.854 2.66v.238a.325.325 0 01-.098.238.303.303 0 01-.224.084h-4.844v.126c.028.607.21 1.125.546 1.554.345.42.798.63 1.358.63.429 0 .779-.084 1.05-.252.28-.177.485-.359.616-.546.084-.112.145-.177.182-.196a.492.492 0 01.238-.042h.686c.084 0 .154.023.21.07a.242.242 0 01.084.196c0 .205-.131.453-.392.742-.252.289-.611.541-1.078.756-.457.205-.985.308-1.582.308zm1.918-4.312v-.042c0-.644-.177-1.167-.532-1.568-.345-.411-.812-.616-1.4-.616-.588 0-1.055.205-1.4.616-.336.401-.504.924-.504 1.568v.042h3.836zm5.944 4.312c-.999 0-1.783-.28-2.352-.84-.56-.569-.859-1.363-.896-2.38l-.014-.56.014-.56c.037-1.017.336-1.806.896-2.366.569-.569 1.353-.854 2.352-.854.672 0 1.241.121 1.708.364.467.243.812.541 1.036.896.233.355.359.709.378 1.064a.247.247 0 01-.084.224.353.353 0 01-.238.084h-.672c-.093 0-.163-.019-.21-.056a.574.574 0 01-.14-.224c-.159-.448-.383-.765-.672-.952-.289-.196-.653-.294-1.092-.294-.579 0-1.041.182-1.386.546-.336.355-.518.901-.546 1.638l-.014.504.014.476c.028.747.21 1.297.546 1.652.336.355.798.532 1.386.532.439 0 .803-.093 1.092-.28.289-.196.513-.518.672-.966a.574.574 0 01.14-.224c.047-.047.117-.07.21-.07h.672c.093 0 .173.033.238.098a.247.247 0 01.084.224c-.019.345-.145.7-.378 1.064-.224.355-.569.653-1.036.896-.457.243-1.027.364-1.708.364zm7.627-.14c-1.475 0-2.212-.821-2.212-2.464v-3.696h-1.092a.351.351 0 01-.238-.084.353.353 0 01-.084-.238v-.476c0-.093.028-.168.084-.224a.324.324 0 01.238-.098h1.092v-2.338c0-.093.028-.168.084-.224a.324.324 0 01.238-.098h.658c.093 0 .168.033.224.098a.282.282 0 01.098.224v2.338h1.736c.093 0 .168.033.224.098a.282.282 0 01.098.224v.476a.325.325 0 01-.098.238.303.303 0 01-.224.084h-1.736v3.598c0 .467.079.821.238 1.064.158.233.42.35.784.35h.854c.093 0 .168.033.224.098a.282.282 0 01.098.224v.504a.325.325 0 01-.098.238.303.303 0 01-.224.084h-.966zm2.836-8.638a.355.355 0 01-.238-.084.353.353 0 01-.084-.238v-.756c0-.093.028-.173.084-.238a.327.327 0 01.238-.098h.882c.094 0 .173.033.238.098a.321.321 0 01.098.238v.756a.321.321 0 01-.098.238.351.351 0 01-.238.084h-.882zm.112 8.638a.355.355 0 01-.238-.084.353.353 0 01-.084-.238v-6.636c0-.093.028-.168.084-.224a.327.327 0 01.238-.098h.672a.28.28 0 01.224.098.279.279 0 01.098.224v6.636a.321.321 0 01-.098.238.302.302 0 01-.224.084h-.672zm5.603 0c-.243 0-.415-.117-.518-.35l-2.59-6.496-.028-.14a.285.285 0 01.294-.294h.672c.159 0 .275.079.35.238l2.128 5.516 2.128-5.516c.084-.159.196-.238.336-.238h.686c.075 0 .14.028.196.084a.266.266 0 01.098.21l-.028.14-2.604 6.496c-.103.233-.275.35-.518.35h-.602zm7.87.14c-.961 0-1.731-.294-2.31-.882-.569-.597-.882-1.409-.938-2.436l-.014-.476.014-.462c.066-1.008.383-1.811.952-2.408.579-.597 1.34-.896 2.282-.896 1.036 0 1.839.331 2.408.994.57.653.854 1.54.854 2.66v.238a.321.321 0 01-.098.238.302.302 0 01-.224.084h-4.844v.126c.028.607.21 1.125.546 1.554.346.42.798.63 1.358.63.43 0 .78-.084 1.05-.252.28-.177.486-.359.616-.546.084-.112.145-.177.182-.196a.492.492 0 01.238-.042h.686c.084 0 .154.023.21.07a.242.242 0 01.084.196c0 .205-.13.453-.392.742-.252.289-.611.541-1.078.756-.457.205-.984.308-1.582.308zm1.918-4.312v-.042c0-.644-.177-1.167-.532-1.568-.345-.411-.812-.616-1.4-.616-.588 0-1.054.205-1.4.616-.336.401-.504.924-.504 1.568v.042h3.836zm5.524 4.312c-.653 0-1.204-.103-1.652-.308-.438-.215-.77-.457-.994-.728-.214-.271-.322-.495-.322-.672 0-.093.033-.163.098-.21a.375.375 0 01.224-.084h.63c.094 0 .178.047.252.14.224.261.467.467.728.616.262.149.612.224 1.05.224.486 0 .878-.093 1.176-.28.308-.196.462-.462.462-.798a.767.767 0 00-.196-.546c-.121-.149-.336-.275-.644-.378-.298-.112-.746-.233-1.344-.364-.812-.177-1.39-.434-1.736-.77-.336-.336-.504-.77-.504-1.302 0-.355.103-.691.308-1.008.215-.327.523-.588.924-.784.411-.205.901-.308 1.47-.308.598 0 1.106.098 1.526.294.42.196.733.429.938.7.215.261.322.481.322.658a.263.263 0 01-.098.21.285.285 0 01-.21.084h-.588a.346.346 0 01-.28-.14 3.308 3.308 0 00-.392-.406c-.102-.103-.256-.191-.462-.266-.196-.075-.448-.112-.756-.112-.448 0-.793.098-1.036.294a.892.892 0 00-.364.742c0 .196.052.364.154.504.103.131.299.252.588.364.299.112.728.229 1.288.35.887.187 1.512.457 1.876.812.374.345.56.789.56 1.33 0 .401-.116.765-.35 1.092-.233.327-.578.583-1.036.77-.448.187-.984.28-1.61.28zm4.841-.14a.353.353 0 01-.238-.084.353.353 0 01-.084-.238v-1.008c0-.093.028-.168.084-.224a.325.325 0 01.238-.098h1.008c.093 0 .173.033.238.098a.282.282 0 01.098.224v1.008a.325.325 0 01-.098.238.353.353 0 01-.238.084h-1.008z" opacity=".6" fill="#09192B"/><path d="M84.33 236.191a.53.53 0 01-.356-.126.53.53 0 01-.127-.357v-13.734c0-.14.043-.252.127-.336a.486.486 0 01.356-.147h1.114a.42.42 0 01.335.147.42.42 0 01.148.336v13.734c0 .14-.05.259-.148.357a.454.454 0 01-.335.126H84.33zm9.956 0a.53.53 0 01-.357-.126.53.53 0 01-.126-.357V223.36H89.77a.53.53 0 01-.357-.126.53.53 0 01-.126-.357v-.882a.53.53 0 01.126-.357.486.486 0 01.357-.147h10.122c.154 0 .273.049.357.147a.445.445 0 01.147.357v.882c0 .14-.049.259-.147.357a.53.53 0 01-.357.126h-4.011v12.348a.49.49 0 01-.147.357.53.53 0 01-.357.126h-1.092zm19.804.21c-1.162 0-2.17-.182-3.024-.546-.84-.364-1.484-.84-1.932-1.428-.448-.602-.686-1.246-.714-1.932 0-.112.042-.21.126-.294a.463.463 0 01.336-.147h1.071c.266 0 .448.14.546.42.126.588.483 1.092 1.071 1.512.602.42 1.442.63 2.52.63 1.162 0 2.037-.203 2.625-.609.588-.42.882-1.001.882-1.743 0-.476-.147-.861-.441-1.155-.28-.294-.7-.553-1.26-.777-.56-.224-1.4-.504-2.52-.84-1.092-.308-1.96-.637-2.604-.987-.644-.35-1.127-.784-1.449-1.302-.322-.518-.483-1.169-.483-1.953 0-.756.203-1.435.609-2.037.42-.602 1.015-1.071 1.785-1.407.77-.35 1.687-.525 2.751-.525 1.092 0 2.03.196 2.814.588.784.378 1.379.861 1.785 1.449.406.588.623 1.176.651 1.764 0 .112-.042.21-.126.294-.07.084-.175.126-.315.126h-1.113c-.294 0-.476-.133-.546-.399-.084-.588-.413-1.071-.987-1.449-.574-.392-1.295-.588-2.163-.588-.952 0-1.701.182-2.247.546-.546.364-.819.903-.819 1.617 0 .476.126.868.378 1.176.266.308.665.581 1.197.819.532.224 1.309.483 2.331.777 1.19.322 2.128.658 2.814 1.008.686.336 1.197.763 1.533 1.281.336.504.504 1.148.504 1.932 0 1.302-.504 2.324-1.512 3.066s-2.366 1.113-4.074 1.113zm12.871-.21a.53.53 0 01-.357-.126.53.53 0 01-.126-.357V223.36h-4.032a.53.53 0 01-.357-.126.53.53 0 01-.126-.357v-.882a.53.53 0 01.126-.357.486.486 0 01.357-.147h10.122c.154 0 .273.049.357.147a.445.445 0 01.147.357v.882c0 .14-.049.259-.147.357a.53.53 0 01-.357.126h-4.011v12.348c0 .14-.049.259-.147.357a.53.53 0 01-.357.126h-1.092zm9.948 0a.53.53 0 01-.357-.126.53.53 0 01-.126-.357v-13.713c0-.154.042-.273.126-.357a.486.486 0 01.357-.147h5.124c1.61 0 2.87.378 3.78 1.134.91.756 1.365 1.848 1.365 3.276 0 1.064-.266 1.939-.798 2.625-.518.686-1.253 1.162-2.205 1.428l3.234 5.586a.523.523 0 01.063.231c0 .112-.049.21-.147.294a.403.403 0 01-.294.126h-1.008c-.21 0-.378-.049-.504-.147a1.493 1.493 0 01-.315-.42l-3.045-5.334h-3.675v5.418c0 .14-.049.259-.147.357a.53.53 0 01-.357.126h-1.071zm5.04-7.686c2.086 0 3.129-.875 3.129-2.625s-1.043-2.625-3.129-2.625h-3.465v5.25h3.465zm8.25 7.686a.403.403 0 01-.294-.126.403.403 0 01-.126-.294c0-.112.007-.189.021-.231l5.208-13.587c.112-.308.336-.462.672-.462h1.428c.336 0 .56.154.672.462l5.187 13.587.042.231c0 .112-.042.21-.126.294a.403.403 0 01-.294.126h-1.071c-.154 0-.273-.035-.357-.105a.661.661 0 01-.168-.252l-1.155-2.982h-6.888l-1.155 2.982a.595.595 0 01-.189.252.508.508 0 01-.336.105h-1.071zm9.03-5.145l-2.835-7.455-2.835 7.455h5.67zm9.163 5.145a.53.53 0 01-.357-.126.53.53 0 01-.126-.357V223.36h-4.032a.53.53 0 01-.357-.126.53.53 0 01-.126-.357v-.882a.53.53 0 01.126-.357.486.486 0 01.357-.147h10.122c.154 0 .273.049.357.147a.445.445 0 01.147.357v.882c0 .14-.049.259-.147.357a.53.53 0 01-.357.126h-4.011v12.348c0 .14-.049.259-.147.357a.53.53 0 01-.357.126h-1.092zm9.948 0a.53.53 0 01-.357-.126.53.53 0 01-.126-.357v-13.713c0-.154.042-.273.126-.357a.486.486 0 01.357-.147h8.673a.42.42 0 01.336.147.445.445 0 01.147.357v.798a.53.53 0 01-.126.357c-.084.084-.203.126-.357.126h-7.14v4.599h6.678a.42.42 0 01.336.147.445.445 0 01.147.357v.777c0 .14-.049.259-.147.357a.454.454 0 01-.336.126h-6.678v4.767h7.308c.154 0 .273.042.357.126.084.084.126.203.126.357v.819c0 .14-.049.259-.147.357a.454.454 0 01-.336.126h-8.841zm18.464.21c-1.834 0-3.262-.497-4.284-1.491-1.008-1.008-1.547-2.38-1.617-4.116a65.922 65.922 0 01-.021-1.974c0-.91.007-1.568.021-1.974.07-1.722.616-3.08 1.638-4.074 1.022-.994 2.443-1.491 4.263-1.491 1.232 0 2.275.224 3.129.672.868.434 1.519.966 1.953 1.596.434.63.665 1.218.693 1.764v.042a.339.339 0 01-.126.273.475.475 0 01-.315.105h-1.239a.625.625 0 01-.315-.063c-.056-.056-.112-.161-.168-.315-.21-.63-.616-1.169-1.218-1.617-.588-.448-1.386-.672-2.394-.672-1.162 0-2.072.315-2.73.945-.658.63-1.015 1.61-1.071 2.94a59.83 59.83 0 00-.021 1.869c0 .826.007 1.449.021 1.869.056 1.344.413 2.338 1.071 2.982.658.63 1.568.945 2.73.945 1.176 0 2.114-.322 2.814-.966.7-.644 1.05-1.61 1.05-2.898v-.882h-3.15a.53.53 0 01-.357-.126.56.56 0 01-.126-.378v-.672a.53.53 0 01.126-.357.486.486 0 01.357-.147h4.746a.42.42 0 01.336.147.445.445 0 01.147.357v2.016c0 1.148-.238 2.149-.714 3.003a4.963 4.963 0 01-2.058 1.995c-.896.462-1.953.693-3.171.693zm13.816-.21a.53.53 0 01-.357-.126.53.53 0 01-.126-.357v-4.956l-5.061-8.568a.574.574 0 00-.021-.126.338.338 0 01-.042-.147c0-.112.042-.21.126-.294a.403.403 0 01.294-.126h1.092c.238 0 .42.119.546.357l4.095 6.804 4.095-6.804c.154-.238.343-.357.567-.357h1.071c.126 0 .231.042.315.126a.403.403 0 01.126.294c0 .07-.028.161-.084.273l-5.04 8.568v4.956c0 .14-.049.259-.147.357a.53.53 0 01-.357.126h-1.092z" opacity=".9" fill="#09192B"/><path d="M150 167.525c27.614 0 50-22.386 50-50s-22.386-50-50-50-50 22.386-50 50a49.79 49.79 0 0010.943 31.221l16.757-24.414 18.309 7.747 23.24-34.742" stroke="#F29665" stroke-width="4" stroke-linecap="round" stroke-linejoin="round"/><path d="M110.943 148.745l16.757-24.413 18.309 7.747 23.24-34.742" stroke="#B2D4ED" stroke-width="4" stroke-linecap="round" stroke-linejoin="round"/><path d="M154.461 100.154l14.788-3.051 3.756 14.084" stroke="#B2D4ED" stroke-width="4" stroke-linecap="round" stroke-linejoin="round"/></svg>